<?xml version="1.0" encoding="utf-8"?>
<!-- Generator: Adobe Illustrator 16.0.0, SVG Export Plug-In . SVG Version: 6.00 Build 0)  -->
<!DOCTYPE svg PUBLIC "-//W3C//DTD SVG 1.1//EN" "http://www.w3.org/Graphics/SVG/1.1/DTD/svg11.dtd">
<svg version="1.1" id="Layer_1" xmlns="http://www.w3.org/2000/svg" xmlns:xlink="http://www.w3.org/1999/xlink" x="0px" y="0px"
	 width="23.749px" height="27.945px" viewBox="0 0 23.749 27.945" enable-background="new 0 0 23.749 27.945" xml:space="preserve">
<g>
	<g>
		<path fill="#3CAED6" d="M19.516,16.107c0-4.076-7.005-12.035-7.578-12.672l0,0l0,0l0,0c0,0-7.705,8.469-7.705,12.672
			s3.438,7.642,7.642,7.642c0.255,0,0.573,0,0.828-0.063c0.064,0,0.127,0,0.191-0.064c0.191,0,0.382-0.063,0.573-0.063
			c0.063,0,0.127-0.064,0.254-0.064c0.191-0.063,0.382-0.063,0.573-0.127c0.063,0,0.127-0.063,0.191-0.063
			c0.191-0.063,0.382-0.127,0.573-0.191c0.063,0,0.127-0.064,0.127-0.064c0.19-0.063,0.382-0.191,0.573-0.318
			c0.063,0,0.063-0.063,0.127-0.063c0.19-0.127,0.382-0.254,0.572-0.382c0,0,0.064,0,0.064-0.063
			c0.191-0.127,0.382-0.318,0.573-0.446l0,0C18.561,20.311,19.516,18.336,19.516,16.107z"/>
		<path fill="#63BFDE" d="M15.059,13.561c-0.701,0-1.273,0.573-1.273,1.273c0,0.7,0.573,1.273,1.273,1.273s1.273-0.573,1.273-1.273
			C16.332,14.133,15.76,13.561,15.059,13.561z"/>
		<path fill="#369DC0" d="M12.511,23.112c-4.203,0-7.641-3.439-7.641-7.642c0-3.502,5.221-9.934,7.068-12.036l-0.063-0.063
			c0,0-7.642,8.533-7.642,12.736s3.439,7.642,7.642,7.642c2.292,0,4.331-1.019,5.731-2.547
			C16.205,22.348,14.486,23.112,12.511,23.112z"/>
	</g>
	<g>
	</g>
	<g>
	</g>
	<g>
	</g>
	<g>
	</g>
	<g>
	</g>
	<g>
	</g>
	<g>
	</g>
	<g>
	</g>
	<g>
	</g>
	<g>
	</g>
	<g>
	</g>
	<g>
	</g>
	<g>
	</g>
	<g>
	</g>
	<g>
	</g>
</g>
</svg>
