<?xml version="1.0" encoding="utf-8"?>
<!-- Generator: Adobe Illustrator 16.0.0, SVG Export Plug-In . SVG Version: 6.00 Build 0)  -->
<!DOCTYPE svg PUBLIC "-//W3C//DTD SVG 1.1//EN" "http://www.w3.org/Graphics/SVG/1.1/DTD/svg11.dtd">
<svg version="1.1" id="Layer_1" xmlns="http://www.w3.org/2000/svg" xmlns:xlink="http://www.w3.org/1999/xlink" x="0px" y="0px"
	 width="23.749px" height="27.945px" viewBox="0 0 23.749 27.945" enable-background="new 0 0 23.749 27.945" xml:space="preserve">
<g>
	<polygon fill="#CDE1E6" points="3.629,7.082 7.579,10.096 4.921,10.82 	"/>
	<polygon fill="#B4D2D7" points="11.147,8.744 12.238,23.954 15.408,23.954 21.073,15.084 18.578,13.213 14.836,18.15 14.161,8.744 
			"/>
	<polygon fill="#CDE1E6" points="16.811,11.862 18.578,13.213 14.836,18.15 14.59,14.716 	"/>
	<polygon fill="#DCE6EB" points="16.811,11.862 21.073,10.719 18.578,13.213 	"/>
	<polygon fill="#CDE1E6" points="21.073,10.719 21.073,15.084 18.578,13.213 	"/>
	<polygon fill="#CDE1E6" points="11.147,8.744 7.094,8.744 7.094,10.096 2.52,11.62 5.118,23.954 12.228,23.954 	"/>
	<polygon fill="#B4D2D7" points="7.094,10.096 4.921,10.82 8.549,23.954 12.228,23.954 	"/>
	<polygon fill="#DCE6EB" points="2.52,11.62 3.629,7.082 4.921,10.82 	"/>
	<polygon fill="#DCE6EB" points="7.094,8.744 10.593,3.883 11.147,8.744 	"/>
	<polygon fill="#CDE1E6" points="14.161,8.744 11.147,8.744 10.593,3.883 	"/>
</g>
</svg>
