<?xml version="1.0" encoding="utf-8"?>
<!-- Generator: Adobe Illustrator 16.0.0, SVG Export Plug-In . SVG Version: 6.00 Build 0)  -->
<!DOCTYPE svg PUBLIC "-//W3C//DTD SVG 1.1//EN" "http://www.w3.org/Graphics/SVG/1.1/DTD/svg11.dtd">
<svg version="1.1" id="Capa_1" xmlns="http://www.w3.org/2000/svg" xmlns:xlink="http://www.w3.org/1999/xlink" x="0px" y="0px"
	 width="595.279px" height="702px" viewBox="0 53.445 595.279 702" enable-background="new 0 53.445 595.279 702"
	 xml:space="preserve">
<path fill="#71D152" d="M162.719,142.031H423.79c9.011,0,16.317,7.306,16.317,16.317v383.445c0,40.552-32.875,73.425-73.426,73.425
	H162.719c-9.011,0-16.317-7.306-16.317-16.316V158.349C146.403,149.337,153.707,142.031,162.719,142.031z"/>
<path fill="#499E2A" d="M179.036,182.824h228.435l0,0v130.535c0,18.023-14.608,32.633-32.633,32.633H179.036l0,0V182.824
	L179.036,182.824z"/>
<rect x="219.828" y="182.824" fill="#BFBFBF" width="146.852" height="163.168"/>
<circle fill="#447F28" cx="391.156" cy="476.527" r="24.476"/>
<circle fill="#447F28" cx="342.205" cy="517.319" r="24.475"/>
<circle fill="none" stroke="#000000" stroke-width="5" stroke-miterlimit="10" cx="391.156" cy="476.527" r="24.476"/>
<circle fill="none" stroke="#000000" stroke-width="5" stroke-miterlimit="10" cx="342.205" cy="517.319" r="24.475"/>
<circle fill="#BFBFBF" cx="219.828" cy="460.209" r="48.951"/>
<circle fill="none" stroke="#000000" stroke-width="6" stroke-miterlimit="10" cx="219.828" cy="460.209" r="48.951"/>
<polygon fill="#499E2A" points="244.303,452.052 227.988,452.052 227.988,435.735 211.67,435.735 211.67,452.052 195.352,452.052 
	195.352,468.369 211.67,468.369 211.67,484.685 227.988,484.685 227.988,468.369 244.303,468.369 "/>
<polygon fill="none" stroke="#000000" stroke-width="4" stroke-miterlimit="10" points="244.303,452.052 227.988,452.052 
	227.988,435.735 211.67,435.735 211.67,452.052 195.352,452.052 195.352,468.369 211.67,468.369 211.67,484.685 227.988,484.685 
	227.988,468.369 244.303,468.369 "/>
<path fill="#447F28" d="M219.828,582.587c-4.506-0.001-8.158-3.654-8.158-8.16c0-2.164,0.86-4.237,2.39-5.765l24.475-24.478
	c3.24-3.13,8.406-3.039,11.535,0.2c3.054,3.163,3.054,8.176,0,11.338l-24.475,24.475
	C224.067,581.726,221.99,582.587,219.828,582.587z"/>
<path fill="#447F28" d="M260.621,582.587c-4.507-0.001-8.157-3.654-8.157-8.16c0-2.164,0.859-4.237,2.389-5.765l24.475-24.478
	c3.24-3.13,8.406-3.039,11.537,0.2c3.054,3.163,3.054,8.176,0,11.338l-24.476,24.475
	C264.859,581.726,262.783,582.587,260.621,582.587z"/>
<rect x="399.315" y="370.467" fill="#499E2A" width="16.317" height="16.318"/>
<rect x="374.838" y="394.942" fill="#499E2A" width="16.317" height="16.317"/>
<path fill="#447F28" d="M364.289,568.66c-3.161-3.055-8.174-3.055-11.335,0c-3.241,3.132-3.331,8.295-0.202,11.534l32.616,32.617
	c4.855-1.273,9.51-3.04,13.918-5.228c0.146-2.26-0.639-4.564-2.364-6.291L364.289,568.66z"/>
<path fill="#447F28" d="M423.435,588.378c-0.376-1.245-1.056-2.415-2.037-3.4l-32.633-32.635c-3.162-3.053-8.176-3.053-11.336,0
	c-3.242,3.132-3.331,8.297-0.202,11.538l32.635,32.632c0.956,0.958,2.126,1.652,3.397,2.041
	C416.975,595.499,420.383,592.091,423.435,588.378z"/>
<path fill="#447F28" d="M413.24,536.026c-3.161-3.054-8.174-3.054-11.337,0c-3.239,3.131-3.329,8.296-0.198,11.536l24.475,24.476
	c1.53,1.53,3.605,2.391,5.769,2.391c0.172,0,0.345-0.015,0.52-0.027c2.189-4.407,3.954-9.06,5.229-13.917L413.24,536.026z"/>
<path fill="#447F28" d="M364.289,609.451l-24.477-24.475c-3.161-3.055-8.174-3.055-11.334,0c-3.24,3.131-3.329,8.295-0.2,11.535
	l18.705,18.707h19.693C366.677,613.132,365.881,611.044,364.289,609.451z"/>
<rect x="179.036" y="370.467" fill="#499E2A" width="81.584" height="16.318"/>
<rect x="276.938" y="370.467" fill="#499E2A" width="16.317" height="16.318"/>
<path fill="none" stroke="#000000" stroke-width="7" stroke-miterlimit="10" d="M162.719,142.031H423.79
	c9.011,0,16.317,7.306,16.317,16.317v383.445c0,40.552-32.875,73.425-73.426,73.425H162.719c-9.011,0-16.317-7.306-16.317-16.316
	V158.349C146.403,149.337,153.707,142.031,162.719,142.031z"/>
<path fill="none" stroke="#000000" stroke-width="6" stroke-miterlimit="10" d="M179.036,182.824h228.435l0,0v130.535
	c0,18.023-14.608,32.633-32.633,32.633H179.036l0,0V182.824L179.036,182.824z"/>
</svg>
