<?xml version="1.0" encoding="utf-8"?>
<!-- Generator: Adobe Illustrator 16.0.0, SVG Export Plug-In . SVG Version: 6.00 Build 0)  -->
<!DOCTYPE svg PUBLIC "-//W3C//DTD SVG 1.1//EN" "http://www.w3.org/Graphics/SVG/1.1/DTD/svg11.dtd">
<svg version="1.1" id="Layer_1" xmlns="http://www.w3.org/2000/svg" xmlns:xlink="http://www.w3.org/1999/xlink" x="0px" y="0px"
	 width="512px" height="512px" viewBox="0 0 512 512" enable-background="new 0 0 512 512" xml:space="preserve">
<g>
	<path fill="#E8E8E8" d="M166.2,93.645h178.6c6.164,0,11.162,4.998,11.162,11.163v262.317c0,27.743-22.489,50.231-50.23,50.231
		H166.2c-6.165,0-11.162-4.997-11.162-11.163V104.807C155.038,98.643,160.035,93.645,166.2,93.645z"/>
	<path fill="#113142" d="M177.363,121.551h156.275l0,0v89.299c0,12.33-9.996,22.325-22.325,22.325h-133.95l0,0V121.551
		L177.363,121.551z"/>
	<rect x="205.269" y="121.551" fill="#BFBFBF" width="100.462" height="111.625"/>
	<circle fill="#DE463E" cx="322.475" cy="322.475" r="16.743"/>
	<circle fill="#DE463E" cx="288.988" cy="350.381" r="16.743"/>
	<circle fill="#BFBFBF" cx="205.269" cy="311.312" r="33.488"/>
	<polygon fill="#113142" points="222.013,305.731 210.85,305.731 210.85,294.568 199.688,294.568 199.688,305.731 188.526,305.731 
		188.526,316.894 199.688,316.894 199.688,328.056 210.85,328.056 210.85,316.894 222.013,316.894 	"/>
	<path fill="#98A1A1" d="M205.269,395.03c-3.083,0-5.581-2.5-5.581-5.582c0-1.479,0.589-2.898,1.635-3.945l16.744-16.743
		c2.216-2.141,5.749-2.08,7.891,0.137c2.089,2.163,2.089,5.593,0,7.756l-16.743,16.743
		C208.169,394.442,206.749,395.03,205.269,395.03z"/>
	<path fill="#98A1A1" d="M233.175,395.03c-3.082,0-5.58-2.5-5.58-5.582c0-1.479,0.589-2.898,1.635-3.945l16.744-16.743
		c2.217-2.141,5.75-2.08,7.892,0.137c2.088,2.163,2.088,5.593,0,7.756l-16.744,16.743
		C236.075,394.442,234.656,395.03,233.175,395.03z"/>
	<rect x="328.056" y="249.919" fill="#113142" width="11.162" height="11.163"/>
	<rect x="311.313" y="266.662" fill="#113142" width="11.162" height="11.162"/>
	<path fill="#98A1A1" d="M304.096,385.503c-2.163-2.089-5.593-2.089-7.755,0c-2.217,2.143-2.278,5.676-0.136,7.893l22.312,22.312
		c3.321-0.872,6.505-2.079,9.52-3.577c0.099-1.546-0.436-3.122-1.616-4.303L304.096,385.503z"/>
	<path fill="#98A1A1" d="M344.559,398.993c-0.259-0.853-0.723-1.654-1.395-2.327l-22.324-22.325c-2.163-2.089-5.594-2.089-7.756,0
		c-2.217,2.143-2.278,5.676-0.137,7.892l22.326,22.325c0.653,0.654,1.454,1.129,2.324,1.394
		C340.139,403.863,342.469,401.533,344.559,398.993z"/>
	<path fill="#98A1A1" d="M337.583,363.178c-2.164-2.089-5.593-2.089-7.755,0c-2.218,2.143-2.279,5.676-0.137,7.893l16.744,16.744
		c1.046,1.046,2.465,1.635,3.946,1.635c0.119,0,0.237-0.012,0.356-0.018c1.497-3.016,2.705-6.199,3.576-9.521L337.583,363.178z"/>
	<path fill="#98A1A1" d="M304.096,413.409l-16.743-16.743c-2.163-2.089-5.594-2.089-7.755,0c-2.217,2.142-2.278,5.675-0.137,7.892
		l12.797,12.798h13.473C305.73,415.927,305.185,414.499,304.096,413.409z"/>
	<rect x="177.363" y="249.919" fill="#113142" width="55.812" height="11.163"/>
	<rect x="244.338" y="249.919" fill="#113142" width="11.162" height="11.163"/>
</g>
</svg>
