<?xml version="1.0" encoding="utf-8"?>
<!-- Generator: Adobe Illustrator 16.0.0, SVG Export Plug-In . SVG Version: 6.00 Build 0)  -->
<!DOCTYPE svg PUBLIC "-//W3C//DTD SVG 1.1//EN" "http://www.w3.org/Graphics/SVG/1.1/DTD/svg11.dtd">
<svg version="1.1" id="Capa_1" xmlns="http://www.w3.org/2000/svg" xmlns:xlink="http://www.w3.org/1999/xlink" x="0px" y="0px"
	 width="595.279px" height="702px" viewBox="0 53.445 595.279 702" enable-background="new 0 53.445 595.279 702"
	 xml:space="preserve">
<path fill="#4F4F74" d="M533.866,253.474h-75.096v51.422h90.604v-21.605v-14.31C549.375,260.409,542.427,253.474,533.866,253.474z"
	/>
<path fill="#3E436D" d="M510.34,269.465c-3.944,0-7.571-2.304-9.236-5.863l-4.735-10.128h-37.6v51.422h90.604v-21.605v-13.825
	H510.34z"/>
<path fill="#4F4F74" d="M62.565,253.474c-8.561,0-15.507,6.935-15.507,15.507v14.31v13.042h69.492v-42.858H62.565z"/>
<path fill="#3E436D" d="M116.55,253.474h-16.419l-4.729,10.121c-1.668,3.566-5.296,5.871-9.241,5.871H47.058v13.825v13.042h69.492
	V253.474z"/>
<path fill="none" stroke="#000000" stroke-width="6" stroke-miterlimit="10" d="M533.866,253.474h-75.096v51.422h90.604v-21.605
	v-14.31C549.375,260.409,542.427,253.474,533.866,253.474z"/>
<path fill="none" stroke="#000000" stroke-width="6" stroke-miterlimit="10" d="M62.565,253.474
	c-8.561,0-15.507,6.935-15.507,15.507v14.31v13.042h69.492v-42.858H62.565z"/>
<path fill="#82DBBA" d="M468.369,243.324c4.563,0,8.792,2.604,11.223,6.901l1.521,3.249l7.466,15.979
	c3.952,8.445,12.443,13.837,21.764,13.837h39.033h12.142c12.501,0,22.628,10.139,22.628,22.638v162.436
	c0,12.499-10.127,22.638-22.628,22.638h-42.432c-16.646,0-32.72,6.533-44.355,18.434c-25.726,26.313-61.614,42.651-101.316,42.651
	H223.087c-39.701,0-75.589-16.336-101.316-42.651c-11.636-11.9-27.708-18.434-44.355-18.434H33.762
	c-12.5,0.002-22.627-10.138-22.627-22.638V305.929c0-12.5,10.127-22.638,22.627-22.638h13.296H86.16
	c9.32,0,17.811-5.392,21.763-13.837l7.454-15.957l1.532-3.272c2.431-4.298,6.67-6.901,11.222-6.901L468.369,243.324L468.369,243.324
	z"/>
<circle fill="#5BCE95" cx="495.871" cy="396.058" r="18.433"/>
<circle fill="#5BCE95" cx="532.739" cy="338.453" r="18.434"/>
<path fill="#5BCE95" d="M113.001,354.156v28.341c0,1.083-0.875,1.959-1.958,1.959H94.221c-1.083,0-1.958,0.875-1.958,1.958v16.821
	c0,1.083-0.875,1.959-1.958,1.959H61.963c-1.083,0-1.958-0.876-1.958-1.959v-16.821c0-1.083-0.875-1.958-1.959-1.958H41.225
	c-1.083,0-1.958-0.875-1.958-1.959v-28.341c0-1.083,0.875-1.958,1.958-1.958h16.821c1.083,0,1.959-0.875,1.959-1.958v-16.821
	c0-1.084,0.875-1.959,1.958-1.959h28.341c1.083,0,1.958,0.875,1.958,1.959v16.821c0,1.083,0.875,1.958,1.958,1.958h16.821
	C112.125,352.197,113.001,353.073,113.001,354.156z"/>
<path fill="#5BCE95" d="M541.86,451.256c-16.647,0-32.72,6.531-44.355,18.433c-25.727,26.314-61.614,42.652-101.316,42.652H245.86
	c-39.701,0-75.588-16.338-101.315-42.652c-11.636-11.901-27.708-18.433-44.356-18.433H47.054c-7.261,0-13.146-5.887-13.146-13.147
	V283.291h-0.146c-12.5,0-22.627,10.139-22.627,22.638v162.436c0,12.499,10.127,22.638,22.627,22.638h43.653
	c16.647,0,32.719,6.533,44.355,18.434c25.726,26.313,61.614,42.651,101.316,42.651h150.326c39.701,0,75.59-16.336,101.316-42.651
	c11.636-11.9,27.709-18.434,44.355-18.434h42.432c12.501,0,22.628-10.139,22.628-22.638v-17.108H541.86L541.86,451.256z"/>
<path fill="#4F4F74" d="M450.974,309.051v152.205c0,7.443-3.008,14.585-8.341,19.793c-18.342,17.951-43.124,28.272-69.219,28.272
	H223.087c-27.109,0-52.801-11.142-71.326-30.404c-4.862-5.058-7.454-11.866-7.454-18.882V309.051c0-9.505,7.696-17.201,17.2-17.201
	h272.264C443.278,291.85,450.974,299.546,450.974,309.051z"/>
<path fill="#3E436D" d="M395.592,497.408H245.265c-27.109,0-52.801-11.142-71.326-30.404c-4.861-5.059-7.454-11.866-7.454-18.882
	V297.139c0-1.847,0.299-3.621,0.835-5.288h-5.812c-9.505,0-17.2,7.697-17.2,17.201v150.984c0,7.016,2.592,13.824,7.454,18.882
	c18.526,19.263,44.218,30.404,71.326,30.404h150.326c20.893,0,40.934-6.631,57.511-18.481
	C419.786,495.108,407.837,497.408,395.592,497.408z"/>
<path fill="#7CCAFD" d="M419.856,326.296v124.754c0,2.146-1.758,3.903-3.903,3.903H178.177c-2.146,0-3.904-1.757-3.904-3.903
	V326.296c0-2.146,1.757-3.904,3.904-3.904h237.776C418.098,322.393,419.856,324.15,419.856,326.296z"/>
<path fill="#41C2E5" d="M309.24,434.607c-61.718,0-112.214-50.496-112.214-112.215l0,0h-18.851c-2.146,0-3.904,1.758-3.904,3.904
	v124.754c0,2.146,1.757,3.903,3.904,3.903h237.776c2.146,0,3.902-1.757,3.902-3.903v-16.443H309.24L309.24,434.607z"/>
<path fill="#4F4F74" d="M115.031,343.787v28.342c0,1.083-0.875,1.958-1.958,1.958H96.251c-1.083,0-1.958,0.875-1.958,1.958v16.821
	c0,1.083-0.875,1.958-1.958,1.958h-28.34c-1.083,0-1.958-0.875-1.958-1.958v-16.821c0-1.083-0.875-1.958-1.958-1.958H43.256
	c-1.083,0-1.958-0.875-1.958-1.958v-28.342c0-1.083,0.875-1.958,1.958-1.958h16.821c1.083,0,1.958-0.875,1.958-1.958v-16.821
	c0-1.083,0.875-1.958,1.958-1.958h28.341c1.083,0,1.958,0.875,1.958,1.958v16.821c0,1.083,0.875,1.958,1.958,1.958h16.821
	C114.156,341.828,115.031,342.705,115.031,343.787z"/>
<path fill="#3E436D" d="M74.864,382.153c-1.083,0-1.958-0.875-1.958-1.958v-16.821c0-1.083-0.875-1.958-1.958-1.958H54.126
	c-1.083,0-1.959-0.875-1.959-1.959v-17.626h-8.912c-1.083,0-1.958,0.875-1.958,1.959v28.341c0,1.083,0.875,1.958,1.958,1.958h16.821
	c1.083,0,1.958,0.875,1.958,1.958v16.821c0,1.083,0.875,1.958,1.958,1.958h28.342c1.083,0,1.958-0.875,1.958-1.958v-10.714H74.864z"
	/>
<circle fill="#50C998" cx="108.696" cy="431.905" r="10.369"/>
<circle fill="#358DCD" stroke="#000000" stroke-width="6" stroke-miterlimit="10" cx="502.138" cy="391.369" r="18.433"/>
<circle fill="#DD1B1B" stroke="#000000" stroke-width="6" stroke-miterlimit="10" cx="539.005" cy="333.764" r="18.434"/>
<path fill="none" stroke="#000000" stroke-width="6" stroke-miterlimit="10" d="M115.031,343.787v28.342
	c0,1.083-0.875,1.958-1.958,1.958H96.251c-1.083,0-1.958,0.875-1.958,1.958v16.821c0,1.083-0.875,1.958-1.958,1.958h-28.34
	c-1.083,0-1.958-0.875-1.958-1.958v-16.821c0-1.083-0.875-1.958-1.958-1.958H43.256c-1.083,0-1.958-0.875-1.958-1.958v-28.342
	c0-1.083,0.875-1.958,1.958-1.958h16.821c1.083,0,1.958-0.875,1.958-1.958v-16.821c0-1.083,0.875-1.958,1.958-1.958h28.341
	c1.083,0,1.958,0.875,1.958,1.958v16.821c0,1.083,0.875,1.958,1.958,1.958h16.821C114.156,341.828,115.031,342.705,115.031,343.787z
	"/>
<path fill="#50C998" d="M491.769,472.593c-4.772,0-8.641-3.869-8.641-8.642v-18.434c0-4.772,3.868-8.642,8.641-8.642
	c4.773,0,8.642,3.869,8.642,8.642v18.434C500.41,468.724,496.542,472.593,491.769,472.593z"/>
<path fill="#50C998" d="M518.268,472.593c-4.773,0-8.642-3.869-8.642-8.642v-18.434c0-4.772,3.868-8.642,8.642-8.642
	s8.641,3.869,8.641,8.642v18.434C526.908,468.724,523.041,472.593,518.268,472.593z"/>
<path fill="#50C998" d="M544.766,472.593c-4.773,0-8.641-3.869-8.641-8.642v-18.434c0-4.772,3.867-8.642,8.641-8.642
	s8.641,3.869,8.641,8.642v18.434C553.406,468.724,549.539,472.593,544.766,472.593z"/>
<path fill="none" stroke="#000000" stroke-width="6" stroke-miterlimit="10" d="M468.369,243.324c4.563,0,8.792,2.604,11.223,6.901
	l1.521,3.249l7.466,15.979c3.952,8.445,12.443,13.837,21.764,13.837h39.033h12.142c12.501,0,22.628,10.139,22.628,22.638v162.436
	c0,12.499-10.127,22.638-22.628,22.638h-42.432c-16.646,0-32.72,6.533-44.355,18.434c-25.726,26.313-61.614,42.651-101.316,42.651
	H223.087c-39.701,0-75.589-16.336-101.316-42.651c-11.636-11.9-27.708-18.434-44.355-18.434H33.762
	c-12.5,0.002-22.627-10.138-22.627-22.638V305.929c0-12.5,10.127-22.638,22.627-22.638h13.296H86.16
	c9.32,0,17.811-5.392,21.763-13.837l7.454-15.957l1.532-3.272c2.431-4.298,6.67-6.901,11.222-6.901L468.369,243.324L468.369,243.324
	z"/>
<path fill="none" stroke="#000000" stroke-width="7" stroke-miterlimit="10" d="M450.974,309.051v152.205
	c0,7.443-3.008,14.585-8.341,19.793c-18.342,17.951-43.124,28.272-69.219,28.272H223.087c-27.109,0-52.801-11.142-71.326-30.404
	c-4.862-5.058-7.454-11.866-7.454-18.882V309.051c0-9.505,7.696-17.201,17.2-17.201h272.264
	C443.278,291.85,450.974,299.546,450.974,309.051z"/>
</svg>
