<?xml version="1.0" encoding="utf-8"?>
<!-- Generator: Adobe Illustrator 16.0.0, SVG Export Plug-In . SVG Version: 6.00 Build 0)  -->
<!DOCTYPE svg PUBLIC "-//W3C//DTD SVG 1.1//EN" "http://www.w3.org/Graphics/SVG/1.1/DTD/svg11.dtd">
<svg version="1.1" id="Layer_1" xmlns="http://www.w3.org/2000/svg" xmlns:xlink="http://www.w3.org/1999/xlink" x="0px" y="0px"
	 width="512px" height="512px" viewBox="0 0 512 512" enable-background="new 0 0 512 512" xml:space="preserve">
<path fill="#71D152" d="M166.843,94.402h178.315c6.155,0,11.146,4.99,11.146,11.145v261.9c0,27.697-22.454,50.15-50.151,50.15
	H166.843c-6.155,0-11.145-4.989-11.145-11.145V105.547C155.698,99.392,160.687,94.402,166.843,94.402z"/>
<path fill="#499E2A" d="M177.988,122.264h156.025l0,0v89.158c0,12.31-9.979,22.289-22.289,22.289H177.988l0,0V122.264
	L177.988,122.264z"/>
<rect x="205.849" y="122.264" fill="#BFBFBF" width="100.302" height="111.447"/>
<circle fill="#447F28" cx="322.868" cy="322.868" r="16.717"/>
<circle fill="#447F28" cx="289.434" cy="350.73" r="16.717"/>
<circle fill="#BFBFBF" cx="205.849" cy="311.723" r="33.434"/>
<polygon fill="#499E2A" points="222.566,306.151 211.422,306.151 211.422,295.007 200.277,295.007 200.277,306.151 189.132,306.151 
	189.132,317.296 200.277,317.296 200.277,328.44 211.422,328.44 211.422,317.296 222.566,317.296 "/>
<path fill="#447F28" d="M205.849,395.309c-3.078-0.001-5.572-2.496-5.572-5.573c0-1.478,0.587-2.894,1.632-3.938l16.717-16.718
	c2.213-2.138,5.741-2.076,7.879,0.137c2.086,2.16,2.086,5.584,0,7.743l-16.717,16.717
	C208.744,394.721,207.326,395.309,205.849,395.309z"/>
<path fill="#447F28" d="M233.711,395.309c-3.078-0.001-5.571-2.496-5.571-5.573c0-1.478,0.587-2.894,1.632-3.938l16.717-16.718
	c2.213-2.138,5.741-2.076,7.879,0.137c2.086,2.16,2.086,5.584,0,7.743l-16.717,16.717
	C236.606,394.721,235.188,395.309,233.711,395.309z"/>
<rect x="328.441" y="250.428" fill="#499E2A" width="11.145" height="11.145"/>
<rect x="311.724" y="267.145" fill="#499E2A" width="11.145" height="11.145"/>
<path fill="#447F28" d="M304.518,385.797c-2.158-2.086-5.583-2.086-7.742,0c-2.214,2.139-2.275,5.666-0.137,7.879l22.277,22.277
	c3.316-0.87,6.495-2.076,9.506-3.571c0.099-1.542-0.436-3.117-1.614-4.296L304.518,385.797z"/>
<path fill="#447F28" d="M344.916,399.264c-0.257-0.85-0.721-1.65-1.392-2.322l-22.289-22.29c-2.159-2.085-5.584-2.085-7.743,0
	c-2.214,2.139-2.274,5.667-0.137,7.88l22.29,22.289c0.653,0.654,1.453,1.128,2.32,1.393
	C340.504,404.128,342.831,401.801,344.916,399.264z"/>
<path fill="#447F28" d="M337.952,363.507c-2.159-2.085-5.583-2.085-7.743,0c-2.213,2.139-2.274,5.666-0.136,7.88l16.717,16.717
	c1.045,1.045,2.462,1.633,3.939,1.633c0.119,0,0.237-0.01,0.356-0.018c1.495-3.011,2.701-6.189,3.571-9.506L337.952,363.507z"/>
<path fill="#447F28" d="M304.518,413.658l-16.717-16.717c-2.159-2.086-5.583-2.086-7.742,0c-2.213,2.139-2.274,5.666-0.137,7.879
	l12.777,12.777h13.45C306.15,416.172,305.606,414.746,304.518,413.658z"/>
<rect x="177.988" y="250.428" fill="#499E2A" width="55.723" height="11.145"/>
<rect x="244.856" y="250.428" fill="#499E2A" width="11.145" height="11.145"/>
</svg>
