<?xml version="1.0" encoding="utf-8"?>
<!-- Generator: Adobe Illustrator 16.0.0, SVG Export Plug-In . SVG Version: 6.00 Build 0)  -->
<!DOCTYPE svg PUBLIC "-//W3C//DTD SVG 1.1//EN" "http://www.w3.org/Graphics/SVG/1.1/DTD/svg11.dtd">
<svg version="1.1" id="Layer_1" xmlns="http://www.w3.org/2000/svg" xmlns:xlink="http://www.w3.org/1999/xlink" x="0px" y="0px"
	 width="1257.561px" height="130.75px" viewBox="0 0 1257.561 130.75" enable-background="new 0 0 1257.561 130.75"
	 xml:space="preserve">
<polygon fill="#E13639" points="1257.561,96.5 651.029,96.5 0,96.5 0,0 1257.561,0 "/>
<polygon fill="#E13639" points="722.614,76.75 792.263,130.75 1257.561,130.75 1257.561,75.75 "/>
<circle fill="#CDDEE0" cx="57.495" cy="39.661" r="22.995"/>
<circle fill="#1CA2C6" cx="57.495" cy="39.661" r="17.401"/>
<circle fill="#35B1D1" cx="57.495" cy="39.661" r="14.294"/>
<circle fill="#F3604A" cx="116.25" cy="24.667" r="7"/>
<circle fill="#FBCA19" cx="137.25" cy="24.667" r="7"/>
<circle fill="#72C04D" cx="157.5" cy="24.667" r="7"/>
<circle fill="#66C4DC" cx="62.18" cy="34.976" r="4.686"/>
<g>
	<path fill="#FBCA19" d="M709.158,39.735c0-5.5,3.897-7.75,8.66-5l11.522,6.651c4.763,2.75,4.763,7.25,0,10l-11.522,6.651
		c-4.763,2.75-8.66,0.5-8.66-5V39.735z"/>
</g>
</svg>
