<?xml version="1.0" encoding="utf-8"?>
<!-- Generator: Adobe Illustrator 16.0.0, SVG Export Plug-In . SVG Version: 6.00 Build 0)  -->
<!DOCTYPE svg PUBLIC "-//W3C//DTD SVG 1.1//EN" "http://www.w3.org/Graphics/SVG/1.1/DTD/svg11.dtd">
<svg version="1.1" id="Layer_1" xmlns="http://www.w3.org/2000/svg" xmlns:xlink="http://www.w3.org/1999/xlink" x="0px" y="0px"
	 width="1300px" height="151.5px" viewBox="0 0 1300 151.5" enable-background="new 0 0 1300 151.5" xml:space="preserve">
<polygon fill="#E13639" points="1300,124 673,124 0,124 0,0 1300,0 "/>
<polygon fill="#E13639" points="747,97.5 819,151.5 1300,151.5 1300,96.5 "/>
<circle fill="#CDDEE0" cx="62.694" cy="44.86" r="28.194"/>
<circle fill="#1CA2C6" cx="62.694" cy="44.86" r="21.336"/>
<circle fill="#35B1D1" cx="62.694" cy="44.86" r="17.526"/>
<circle fill="#F3604A" cx="116.25" cy="24.667" r="7"/>
<circle fill="#FBCA19" cx="137.25" cy="24.667" r="7"/>
<circle fill="#72C04D" cx="157.5" cy="24.667" r="7"/>
<circle fill="#66C4DC" cx="68.439" cy="39.115" r="5.745"/>
<g>
	<path fill="#FBCA19" d="M718.158,55.735c0-5.5,3.897-7.75,8.661-5l11.521,6.651c4.764,2.75,4.764,7.25,0,10l-11.521,6.651
		c-4.763,2.75-8.66,0.5-8.66-5V55.735z"/>
</g>
</svg>
