<?xml version="1.0" encoding="utf-8"?>
<!-- Generator: Adobe Illustrator 16.0.0, SVG Export Plug-In . SVG Version: 6.00 Build 0)  -->
<!DOCTYPE svg PUBLIC "-//W3C//DTD SVG 1.1//EN" "http://www.w3.org/Graphics/SVG/1.1/DTD/svg11.dtd">
<svg version="1.1" id="Layer_1" xmlns="http://www.w3.org/2000/svg" xmlns:xlink="http://www.w3.org/1999/xlink" x="0px" y="0px"
	 width="23.749px" height="27.945px" viewBox="0 0 23.749 27.945" enable-background="new 0 0 23.749 27.945" xml:space="preserve">
<g>
	<path fill="#FFDC64" d="M10.039,25.727l9.076-15.628c0.206-0.353-0.086-0.788-0.492-0.733l-6.037,0.821l1.443-7.573
		c0.048-0.255-0.281-0.401-0.438-0.194L4.668,14.197c-0.26,0.344,0.015,0.831,0.443,0.786l6.656-0.7L9.585,25.557
		C9.532,25.828,9.9,25.966,10.039,25.727z"/>
	<path fill="#FFC850" d="M7.458,13.362c-0.167,0.014-0.277-0.168-0.188-0.311l6.672-10.675c-0.1-0.079-0.256-0.083-0.351,0.042
		L4.668,14.197c-0.26,0.344,0.015,0.831,0.443,0.786l6.656-0.7L9.585,25.557c-0.03,0.152,0.073,0.259,0.193,0.284l3.739-11.831
		c0.175-0.555-0.267-1.11-0.847-1.063L7.458,13.362z"/>
	<g>
	</g>
	<g>
	</g>
	<g>
	</g>
	<g>
	</g>
	<g>
	</g>
	<g>
	</g>
	<g>
	</g>
	<g>
	</g>
	<g>
	</g>
	<g>
	</g>
	<g>
	</g>
	<g>
	</g>
	<g>
	</g>
	<g>
	</g>
	<g>
	</g>
</g>
</svg>
