<?xml version="1.0" encoding="utf-8"?>
<!-- Generator: Adobe Illustrator 16.0.0, SVG Export Plug-In . SVG Version: 6.00 Build 0)  -->
<!DOCTYPE svg PUBLIC "-//W3C//DTD SVG 1.1//EN" "http://www.w3.org/Graphics/SVG/1.1/DTD/svg11.dtd">
<svg version="1.1" id="Layer_1" xmlns="http://www.w3.org/2000/svg" xmlns:xlink="http://www.w3.org/1999/xlink" x="0px" y="0px"
	 width="595.28px" height="573.058px" viewBox="0 0 595.28 573.058" enable-background="new 0 0 595.28 573.058"
	 xml:space="preserve">
<g>
	<g id="Layer_1_1_" display="none">
		<g display="inline">
			
				<path fill="#F60A4F" stroke="#263344" stroke-width="39" stroke-linecap="round" stroke-linejoin="round" stroke-miterlimit="10" d="
				M521.555,173.309c-12.095-28.583-29.39-54.255-51.421-76.294c-22.059-22.032-47.724-39.344-76.295-51.439
				c-29.611-12.522-61.059-18.875-93.469-18.875c-32.39,0-63.838,6.353-93.438,18.863c-28.582,12.095-54.249,29.394-76.293,51.439
				c-22.02,22.038-39.337,47.711-51.433,76.293c-12.517,29.612-18.869,61.053-18.869,93.443c0,32.41,6.352,63.846,18.856,93.445
				c12.096,28.569,29.401,54.26,51.434,76.281c22.045,22.058,47.711,39.36,76.305,51.444c29.6,12.506,61.048,18.868,93.438,18.868
				c32.41,0,63.857-6.351,93.457-18.868c28.569-12.084,54.248-29.387,76.295-51.444c22.03-22.045,39.338-47.725,51.421-76.281
				c12.502-29.6,18.855-61.035,18.855-93.445C540.411,234.35,534.061,202.909,521.555,173.309z"/>
			
				<path fill="#F60A4F" stroke="#263344" stroke-width="39" stroke-linecap="round" stroke-linejoin="round" stroke-miterlimit="10" d="
				M60.425,273.484c0.819,30.02,7.121,59.162,18.769,86.712c12.096,28.569,29.401,54.249,51.434,76.283
				c22.045,22.056,47.711,39.348,76.305,51.432c29.6,12.518,61.048,18.882,93.438,18.882c32.41,0,63.857-6.353,93.457-18.882
				c28.569-12.084,54.248-29.376,76.295-51.432c22.03-22.034,39.338-47.725,51.421-76.283c11.659-27.538,17.963-56.68,18.781-86.712
				H60.425z"/>
			
				<path fill="#F60A4F" stroke="#263344" stroke-width="39" stroke-linecap="round" stroke-linejoin="round" stroke-miterlimit="10" d="
				M539.269,290.392c0.769-7.816,1.155-15.705,1.155-23.638c0-8.933-0.484-17.771-1.44-26.524
				c-11.933,1.842-29.054,4.231-50.638,6.619c-40.963,4.509-106.811,9.905-187.976,9.905c-81.156,0-147.004-5.396-187.955-9.905
				c-21.584-2.388-38.705-4.776-50.638-6.619c-0.968,8.752-1.439,17.604-1.439,26.524c0,7.933,0.372,15.822,1.14,23.638
				c38.93,5.855,124.725,16.351,238.892,16.351C414.543,306.742,500.341,296.247,539.269,290.392z"/>
			
				<path fill="#F60A4F" stroke="#263344" stroke-width="39" stroke-linecap="round" stroke-linejoin="round" stroke-miterlimit="10" d="
				M350.383,276.745c0,27.615-22.404,50.019-50.023,50.019c-27.615,0-50.02-22.403-50.02-50.019
				c0-27.614,22.404-50.006,50.02-50.006C327.991,226.751,350.383,249.131,350.383,276.745z"/>
			
				<path fill="#F60A4F" stroke="#263344" stroke-width="39" stroke-linecap="round" stroke-linejoin="round" stroke-miterlimit="10" d="
				M300.37,186.738c-49.646,0-90.013,40.38-90.013,90.007c0,49.635,40.381,90.014,90.013,90.014
				c49.64,0,90.021-40.391,90.021-90.014C390.392,227.13,350.01,186.738,300.37,186.738z M300.37,316.767
				c-22.056,0-40.007-17.964-40.007-40.021c0-22.045,17.951-39.995,40.007-39.995c22.076,0,40.002,17.95,40.002,39.995
				C340.372,298.803,322.446,316.767,300.37,316.767z"/>
			
				<path opacity="0.2" fill="#F60A4F" stroke="#263344" stroke-width="39" stroke-linecap="round" stroke-linejoin="round" stroke-miterlimit="10" enable-background="new    " d="
				M521.555,173.309c-12.095-28.583-29.39-54.255-51.421-76.294c-22.059-22.032-47.724-39.344-76.295-51.439
				c-29.611-12.522-61.059-18.875-93.469-18.875c-3.349,0-6.686,0.075-9.998,0.206c28.873,1.165,56.897,7.431,83.431,18.658
				c28.596,12.095,54.262,29.394,76.295,51.439c22.034,22.038,39.351,47.711,51.433,76.293
				c12.528,29.599,18.857,61.034,18.857,93.432c0,32.396-6.329,63.844-18.857,93.444c-12.082,28.569-29.398,54.249-51.433,76.28
				c-22.033,22.058-47.699,39.352-76.295,51.435c-26.546,11.238-54.559,17.49-83.431,18.681c3.312,0.124,6.649,0.199,9.998,0.199
				c32.41,0,63.857-6.351,93.457-18.88c28.569-12.083,54.248-29.377,76.295-51.435c22.03-22.031,39.338-47.711,51.421-76.28
				c12.502-29.601,18.855-61.049,18.855-93.444C540.411,234.35,534.061,202.909,521.555,173.309z"/>
			
				<path opacity="0.1" fill="#F60A4F" stroke="#263344" stroke-width="39" stroke-linecap="round" stroke-linejoin="round" stroke-miterlimit="10" enable-background="new    " d="
				M79.194,360.186c12.096,28.569,29.401,54.26,51.434,76.281c22.045,22.058,47.711,39.36,76.305,51.444
				c29.6,12.506,61.048,18.868,93.438,18.868c3.351,0,6.688-0.073,10.001-0.211c-28.869-1.167-56.893-7.442-83.44-18.657
				c-28.583-12.084-54.249-29.387-76.293-51.444c-22.044-22.045-39.35-47.725-51.445-76.281
				c-12.517-29.6-18.869-61.035-18.869-93.445c0-32.409,6.352-63.832,18.869-93.431c12.096-28.583,29.388-54.255,51.445-76.294
				c22.045-22.044,47.699-39.356,76.293-51.439c26.535-11.227,54.559-17.492,83.44-18.658c-3.313-0.143-6.65-0.217-10.001-0.217
				c-32.39,0-63.838,6.353-93.438,18.863c-28.582,12.095-54.249,29.394-76.293,51.439c-22.02,22.038-39.337,47.711-51.433,76.293
				c-12.517,29.612-18.869,61.053-18.869,93.443C60.338,299.161,66.689,330.597,79.194,360.186z"/>
		</g>
	</g>
	<g id="Layer_2">
		<g>
			
				<path fill="#F60A4F" stroke="#263344" stroke-width="39" stroke-linecap="round" stroke-linejoin="round" stroke-miterlimit="10" d="
				M296.067,122.943c21.256-50.396,69.847-85.622,126.355-85.622c76.106,0,130.941,65.115,137.825,142.706
				c0,0,3.721,19.272-4.479,53.95c-11.14,47.248-37.354,89.191-72.684,121.222L296.067,522.052L112.192,355.199
				C76.875,323.168,50.649,281.2,39.497,233.977c-8.175-34.678-4.467-53.95-4.467-53.95
				c6.886-77.591,61.706-142.706,137.825-142.706C229.387,37.308,274.803,72.533,296.067,122.943z"/>
			<g>
			</g>
			<g>
			</g>
			<g>
			</g>
			<g>
			</g>
			<g>
			</g>
			<g>
			</g>
			<g>
			</g>
			<g>
			</g>
			<g>
			</g>
			<g>
			</g>
			<g>
			</g>
			<g>
			</g>
			<g>
			</g>
			<g>
			</g>
			<g>
			</g>
		</g>
	</g>
</g>
<path fill="#FFFFFF" d="M75.022,178.559c0,0-12.916-11.481,7.637-52.29c20.553-40.808,56.67-52.261,69.102-39.573
	c0,0,3.811-0.448-26.494,33.937C125.266,120.633,78.027,184.35,75.022,178.559z"/>
<path fill="#FFFFFF" d="M166.726,139.392c0,0,24.644,1.896,24.644-28.436c0,0-13.27-13.269-24.644,0
	C155.352,124.226,166.726,139.392,166.726,139.392z"/>
</svg>
