<?xml version="1.0" encoding="utf-8"?>
<!-- Generator: Adobe Illustrator 16.0.0, SVG Export Plug-In . SVG Version: 6.00 Build 0)  -->
<!DOCTYPE svg PUBLIC "-//W3C//DTD SVG 1.1//EN" "http://www.w3.org/Graphics/SVG/1.1/DTD/svg11.dtd">
<svg version="1.1" id="Layer_1" xmlns="http://www.w3.org/2000/svg" xmlns:xlink="http://www.w3.org/1999/xlink" x="0px" y="0px"
	 width="33.581px" height="31.7px" viewBox="0 0 33.581 31.7" enable-background="new 0 0 33.581 31.7" xml:space="preserve">
<g>
	<g>
		<path fill="#FFFFFF" d="M31.202,15.22l-3.272-2.307c-0.593-0.418-1.412,0.008-1.412,0.732v1.411H10.807
			c-0.495,0-0.896,0.401-0.896,0.896s0.401,0.896,0.896,0.896h15.711v1.411c0,0.729,0.824,1.147,1.412,0.732l3.272-2.307
			C31.702,16.333,31.712,15.58,31.202,15.22z"/>
	</g>
</g>
<g>
	<g>
		<path fill="#FFFFFF" d="M26.711,21.706c-0.428-0.248-0.977-0.102-1.225,0.327c-2.104,3.639-6.039,6.081-10.534,6.081
			c-6.706,0-12.161-5.456-12.161-12.161S8.247,3.792,14.953,3.792c4.499,0,8.431,2.445,10.534,6.081
			c0.248,0.428,0.796,0.574,1.225,0.327s0.574-0.796,0.327-1.224C24.618,4.791,20.097,2,14.953,2C7.241,2,1,8.241,1,15.953
			s6.24,13.953,13.953,13.953c5.146,0,9.666-2.793,12.085-6.976C27.286,22.501,27.14,21.953,26.711,21.706z"/>
	</g>
</g>
</svg>
