<?xml version="1.0"?>
<svg xmlns="http://www.w3.org/2000/svg" height="512px" viewBox="0 0 448 448" width="512px"><path d="m224 0c-123.710938 0-224 100.289062-224 224s100.289062 224 224 224 224-100.289062 224-224c-.132812-123.65625-100.34375-223.867188-224-224zm123.3125 235.3125-158.402344 158.398438c-4.015625 4.160156-9.964844 5.828124-15.558594 4.363281-5.59375-1.464844-9.960937-5.832031-11.425781-11.425781-1.464843-5.59375.203125-11.542969 4.363281-15.558594l147.085938-147.089844-147.070312-147.070312c-4.160157-4.019532-5.828126-9.96875-4.363282-15.5625s5.832032-9.960938 11.425782-11.425782 11.542968.203125 15.5625 4.363282l158.398437 158.398437c6.230469 6.25 6.222656 16.367187-.015625 22.609375zm0 0" fill="#f7413e"/></svg>
