<?xml version="1.0" encoding="utf-8"?>
<!-- Generator: Adobe Illustrator 16.0.0, SVG Export Plug-In . SVG Version: 6.00 Build 0)  -->
<!DOCTYPE svg PUBLIC "-//W3C//DTD SVG 1.1//EN" "http://www.w3.org/Graphics/SVG/1.1/DTD/svg11.dtd">
<svg version="1.1" id="Capa_1" xmlns="http://www.w3.org/2000/svg" xmlns:xlink="http://www.w3.org/1999/xlink" x="0px" y="0px"
	 width="595.279px" height="702px" viewBox="0 53.445 595.279 702" enable-background="new 0 53.445 595.279 702"
	 xml:space="preserve">
<path fill="#4F4F74" d="M-99.813,78.088h-78.014v53.42h94.124v-22.445V94.198C-83.702,85.293-90.92,78.088-99.813,78.088z"/>
<path fill="#3E436D" d="M-124.254,94.701c-4.098,0-7.865-2.394-9.596-6.091l-4.919-10.522h-39.061v53.42h94.124v-22.445V94.701
	H-124.254z"/>
<path fill="#4F4F74" d="M-589.431,78.088c-8.893,0-16.11,7.205-16.11,16.109v14.866v13.548h72.193V78.088H-589.431z"/>
<path fill="#3E436D" d="M-533.348,78.088h-17.058l-4.913,10.514c-1.733,3.705-5.502,6.099-9.6,6.099h-40.622v14.362v13.548h72.193
	V78.088z"/>
<path fill="#C5E1E6" d="M150.537,252.445h289.199v289.199H150.537V252.445z"/>
<path fill="#8DB9C4" d="M295.139,252.445H439.74v289.199H295.139V252.445z"/>
<path fill="#3D5959" d="M439.74,556.645H150.537c-8.281,0-15-6.715-15-15V252.445c0-8.285,6.719-15,15-15H439.74
	c8.281,0,15,6.715,15,15v289.199C454.74,549.93,448.022,556.645,439.74,556.645z M165.537,526.645h259.199V267.445H165.537V526.645z
	"/>
<path fill="#293939" d="M439.74,237.445H295.139v30H424.74v259.199H295.139v30H439.74c8.281,0,15-6.715,15-15V252.445
	C454.74,244.16,448.022,237.445,439.74,237.445z"/>
<path fill="#00ACB3" stroke="#000000" stroke-width="7" stroke-miterlimit="10" d="M150.537,237.445H94.303
	c-30.418,0-55.164,24.746-55.164,55.168V501.48c0,30.418,24.746,55.164,55.164,55.164h56.234c8.285,0,15-6.715,15-15V252.445
	C165.537,244.16,158.823,237.445,150.537,237.445z"/>
<path fill="#F30051" stroke="#000000" stroke-width="7" stroke-miterlimit="10" d="M495.975,237.445H439.74c-8.285,0-15,6.715-15,15
	v289.199c0,8.285,6.715,15,15,15h56.234c30.418,0,55.164-24.746,55.164-55.164V292.613
	C551.139,262.191,526.393,237.445,495.975,237.445z"/>
<path fill="#FEF4F5" d="M230.869,420.078c-3.836,0-7.676-1.465-10.605-4.395c-5.855-5.855-5.855-15.352,0-21.211l72.301-72.301
	c5.855-5.859,15.355-5.859,21.215,0c5.855,5.855,5.855,15.355,0,21.211l-72.301,72.301
	C238.549,418.613,234.709,420.078,230.869,420.078z"/>
<path fill="#FEF4F5" d="M287.108,476.312c-3.84,0-7.68-1.465-10.609-4.395c-5.855-5.855-5.855-15.355,0-21.211l72.301-72.301
	c5.859-5.859,15.355-5.859,21.215,0c5.855,5.855,5.855,15.355,0,21.211l-72.301,72.301
	C294.783,474.848,290.944,476.312,287.108,476.312z"/>
<path fill="#3D5959" stroke="#000000" stroke-width="6" stroke-miterlimit="10" d="M150.537,364.914
	c0,26.617-21.578,48.199-48.199,48.199s-48.199-21.582-48.199-48.199c0-26.621,21.578-48.203,48.199-48.203
	S150.537,338.293,150.537,364.914z"/>
<path fill="#293939" stroke="#000000" stroke-width="6" stroke-miterlimit="10" d="M536.139,429.18
	c0,26.617-21.582,48.199-48.199,48.199c-26.621,0-48.203-21.582-48.203-48.199c0-26.621,21.582-48.203,48.203-48.203
	C514.557,380.977,536.139,402.559,536.139,429.18z"/>
<path fill="#D5EDED" d="M313.78,322.172c-5.062-5.062-12.84-5.738-18.641-2.051v41.902l18.641-18.641
	C319.635,337.527,319.635,328.031,313.78,322.172z"/>
<path fill="#D5EDED" d="M370.01,378.406c-5.855-5.859-15.352-5.859-21.211,0l-53.66,53.66v41.902c0.91-0.578,1.777-1.254,2.57-2.051
	l72.301-72.301C375.869,393.762,375.869,384.262,370.01,378.406z"/>
<path fill="none" stroke="#000000" stroke-width="5" stroke-miterlimit="10" d="M495.973,237.445h-56.234H150.535H94.301
	c-30.418,0-55.164,24.746-55.164,55.168V501.48c0,30.418,24.746,55.164,55.164,55.164h56.234h289.203h56.234
	c30.418,0,55.164-24.746,55.164-55.164V292.613C551.137,262.191,526.391,237.445,495.973,237.445z"/>
<path fill="none" stroke="#000000" stroke-width="7" stroke-miterlimit="10" d="M-99.813,78.088h-78.014v53.42h94.124v-22.445
	V94.198C-83.702,85.293-90.92,78.088-99.813,78.088z"/>
<path fill="none" stroke="#000000" stroke-width="7" stroke-miterlimit="10" d="M-589.431,78.088c-8.893,0-16.11,7.205-16.11,16.109
	v14.866v13.548h72.193V78.088H-589.431z"/>
<path fill="#82DBBA" d="M-167.855,67.544c4.74,0,9.133,2.706,11.658,7.169l1.58,3.375l7.756,16.6
	c4.105,8.773,12.927,14.375,22.609,14.375h40.55h12.614c12.986,0,23.507,10.533,23.507,23.518V301.33
	c0,12.985-10.521,23.518-23.507,23.518h-44.081c-17.294,0-33.991,6.787-46.079,19.15c-26.726,27.336-64.009,44.309-105.254,44.309
	h-156.169c-41.244,0-78.527-16.971-105.254-44.309c-12.088-12.363-28.785-19.15-46.08-19.15h-45.35
	c-12.985,0.002-23.506-10.531-23.506-23.518V132.582c0-12.985,10.521-23.518,23.506-23.518h13.812h40.622
	c9.683,0,18.503-5.602,22.609-14.375l7.743-16.577l1.592-3.399c2.525-4.465,6.93-7.169,11.658-7.169L-167.855,67.544
	L-167.855,67.544z"/>
<circle fill="#5BCE95" cx="-139.285" cy="226.214" r="19.15"/>
<circle fill="#5BCE95" cx="-100.985" cy="166.37" r="19.15"/>
<path fill="#5BCE95" d="M-537.035,182.683v29.443c0,1.125-0.909,2.035-2.035,2.035h-17.475c-1.125,0-2.035,0.909-2.035,2.035v17.475
	c0,1.125-0.909,2.035-2.035,2.035h-29.443c-1.125,0-2.035-0.91-2.035-2.035v-17.475c0-1.125-0.909-2.035-2.035-2.035h-17.475
	c-1.125,0-2.035-0.909-2.035-2.035v-29.443c0-1.125,0.909-2.035,2.035-2.035h17.475c1.125,0,2.035-0.909,2.035-2.035v-17.475
	c0-1.126,0.909-2.035,2.035-2.035h29.443c1.125,0,2.035,0.909,2.035,2.035v17.475c0,1.125,0.909,2.035,2.035,2.035h17.475
	C-537.946,180.648-537.035,181.559-537.035,182.683z"/>
<path fill="#5BCE95" d="M-91.51,283.557c-17.294,0-33.991,6.785-46.079,19.149c-26.727,27.337-64.009,44.31-105.254,44.31h-156.169
	c-41.244,0-78.527-16.973-105.254-44.31c-12.088-12.364-28.785-19.149-46.08-19.149h-55.199c-7.543,0-13.658-6.115-13.658-13.658
	V109.063h-0.151c-12.985,0-23.506,10.533-23.506,23.518V301.33c0,12.985,10.521,23.518,23.506,23.518h45.35
	c17.294,0,33.991,6.787,46.08,19.15c26.726,27.336,64.009,44.309,105.254,44.309h156.169c41.244,0,78.527-16.971,105.254-44.309
	c12.088-12.363,28.785-19.15,46.079-19.15h44.081c12.986,0,23.507-10.532,23.507-23.518v-17.773H-91.51L-91.51,283.557z"/>
<path fill="#4F4F74" d="M-185.927,135.826v158.12c0,7.732-3.124,15.152-8.665,20.562c-19.055,18.648-44.8,29.371-71.908,29.371
	h-156.17c-28.163,0-54.853-11.574-74.098-31.586c-5.051-5.254-7.744-12.327-7.744-19.615V135.826
	c0-9.875,7.996-17.869,17.869-17.869h282.846C-193.923,117.956-185.927,125.951-185.927,135.826z"/>
<path fill="#3E436D" d="M-243.462,331.503h-156.169c-28.163,0-54.853-11.574-74.098-31.586c-5.05-5.255-7.743-12.327-7.743-19.616
	V123.45c0-1.918,0.311-3.762,0.867-5.494h-6.038c-9.875,0-17.869,7.996-17.869,17.869v156.852c0,7.288,2.692,14.361,7.743,19.615
	c19.246,20.012,45.937,31.586,74.098,31.586h156.169c21.704,0,42.524-6.889,59.745-19.199
	C-218.327,329.113-230.74,331.503-243.462,331.503z"/>
<path fill="#7CCAFD" d="M-218.255,153.741v129.603c0,2.229-1.826,4.055-4.056,4.055h-247.017c-2.23,0-4.055-1.825-4.055-4.055
	V153.741c0-2.229,1.825-4.055,4.055-4.055h247.017C-220.081,149.686-218.255,151.511-218.255,153.741z"/>
<path fill="#41C2E5" d="M-333.169,266.262c-64.117,0-116.576-52.459-116.576-116.576l0,0h-19.583c-2.23,0-4.056,1.826-4.056,4.055
	v129.603c0,2.229,1.826,4.055,4.056,4.055h247.017c2.229,0,4.055-1.825,4.055-4.055v-17.082H-333.169L-333.169,266.262z"/>
<path fill="#4F4F74" d="M-534.926,171.911v29.443c0,1.125-0.909,2.035-2.035,2.035h-17.475c-1.125,0-2.034,0.909-2.034,2.035v17.475
	c0,1.125-0.91,2.035-2.035,2.035h-29.442c-1.125,0-2.035-0.909-2.035-2.035v-17.475c0-1.125-0.909-2.035-2.035-2.035h-17.475
	c-1.125,0-2.035-0.909-2.035-2.035v-29.443c0-1.125,0.91-2.034,2.035-2.034h17.475c1.125,0,2.035-0.909,2.035-2.035v-17.475
	c0-1.125,0.909-2.034,2.035-2.034h29.443c1.125,0,2.035,0.909,2.035,2.034v17.475c0,1.125,0.909,2.035,2.035,2.035h17.475
	C-535.835,169.876-534.926,170.787-534.926,171.911z"/>
<path fill="#3E436D" d="M-576.655,211.768c-1.125,0-2.035-0.909-2.035-2.035v-17.475c0-1.125-0.909-2.034-2.035-2.034h-17.475
	c-1.125,0-2.035-0.909-2.035-2.035v-18.312h-9.258c-1.125,0-2.035,0.909-2.035,2.035v29.443c0,1.125,0.909,2.035,2.035,2.035h17.475
	c1.125,0,2.035,0.909,2.035,2.035v17.475c0,1.125,0.909,2.035,2.035,2.035h29.443c1.125,0,2.035-0.909,2.035-2.035v-11.131H-576.655
	z"/>
<circle fill="#50C998" cx="-541.508" cy="255.454" r="10.772"/>
<circle fill="#50C998" cx="-541.508" cy="287.77" r="10.771"/>
<circle fill="#358DCD" stroke="#000000" stroke-width="4" stroke-miterlimit="10" cx="-132.774" cy="221.342" r="19.15"/>
<circle fill="#DD1B1B" stroke="#000000" stroke-width="4" stroke-miterlimit="10" cx="-94.474" cy="161.498" r="19.15"/>
<path fill="none" stroke="#000000" stroke-width="4" stroke-miterlimit="10" d="M-534.926,171.911v29.443
	c0,1.125-0.909,2.035-2.035,2.035h-17.475c-1.125,0-2.034,0.909-2.034,2.035v17.475c0,1.125-0.91,2.035-2.035,2.035h-29.442
	c-1.125,0-2.035-0.909-2.035-2.035v-17.475c0-1.125-0.909-2.035-2.035-2.035h-17.475c-1.125,0-2.035-0.909-2.035-2.035v-29.443
	c0-1.125,0.91-2.034,2.035-2.034h17.475c1.125,0,2.035-0.909,2.035-2.035v-17.475c0-1.125,0.909-2.034,2.035-2.034h29.443
	c1.125,0,2.035,0.909,2.035,2.034v17.475c0,1.125,0.909,2.035,2.035,2.035h17.475C-535.835,169.876-534.926,170.787-534.926,171.911
	z"/>
<path fill="#50C998" d="M-143.547,305.723c-4.958,0-8.977-4.02-8.977-8.978v-19.149c0-4.958,4.019-8.978,8.977-8.978
	c4.959,0,8.978,4.02,8.978,8.978v19.149C-134.569,301.703-138.588,305.723-143.547,305.723z"/>
<path fill="#50C998" d="M-116.018,305.723c-4.959,0-8.977-4.02-8.977-8.978v-19.149c0-4.958,4.018-8.978,8.977-8.978
	s8.977,4.02,8.977,8.978v19.149C-107.042,301.703-111.059,305.723-116.018,305.723z"/>
<path fill="#50C998" d="M-88.49,305.723c-4.959,0-8.977-4.02-8.977-8.978v-19.149c0-4.958,4.018-8.978,8.977-8.978
	s8.977,4.02,8.977,8.978v19.149C-79.513,301.703-83.531,305.723-88.49,305.723z"/>
<path fill="none" stroke="#000000" stroke-width="6" stroke-miterlimit="10" d="M-167.855,67.544c4.74,0,9.133,2.706,11.658,7.169
	l1.58,3.375l7.756,16.6c4.105,8.773,12.927,14.375,22.609,14.375h40.55h12.614c12.986,0,23.507,10.533,23.507,23.518V301.33
	c0,12.985-10.521,23.518-23.507,23.518h-44.081c-17.294,0-33.991,6.787-46.079,19.15c-26.726,27.336-64.009,44.309-105.254,44.309
	h-156.169c-41.244,0-78.527-16.971-105.254-44.309c-12.088-12.363-28.785-19.15-46.08-19.15h-45.35
	c-12.985,0.002-23.506-10.531-23.506-23.518V132.582c0-12.985,10.521-23.518,23.506-23.518h13.812h40.622
	c9.683,0,18.503-5.602,22.609-14.375l7.743-16.577l1.592-3.399c2.525-4.465,6.93-7.169,11.658-7.169L-167.855,67.544
	L-167.855,67.544z"/>
</svg>
