<?xml version="1.0" encoding="utf-8"?>
<!-- Generator: Adobe Illustrator 16.0.0, SVG Export Plug-In . SVG Version: 6.00 Build 0)  -->
<!DOCTYPE svg PUBLIC "-//W3C//DTD SVG 1.1//EN" "http://www.w3.org/Graphics/SVG/1.1/DTD/svg11.dtd">
<svg version="1.1" xmlns="http://www.w3.org/2000/svg" xmlns:xlink="http://www.w3.org/1999/xlink" x="0px" y="0px" width="443px"
	 height="679px" viewBox="0 0 443 679" enable-background="new 0 0 443 679" xml:space="preserve">
<g id="Layer_2">
	<rect fill="#DEE0DF" width="443" height="679"/>
</g>
<g id="Layer_1">
	<path fill="#6B6B6B" d="M191.077,277.864c5.862-5.86,8.598-13.643,8.274-21.318c-7.675-0.322-15.456,2.414-21.316,8.273
		c-5.861,5.861-8.598,13.643-8.272,21.317C177.438,286.461,185.218,283.727,191.077,277.864z"/>
	<path fill="#33363A" d="M170.964,288.109c-0.428,0-0.855-0.01-1.285-0.028c-1.009-0.042-1.818-0.852-1.862-1.862
		c-0.36-8.496,2.862-16.796,8.841-22.776c5.977-5.975,14.282-9.189,22.773-8.841c1.01,0.043,1.82,0.854,1.863,1.864
		c0.36,8.498-2.863,16.798-8.841,22.775l0,0l0,0C186.778,284.917,179.008,288.109,170.964,288.109z M197.42,258.479
		c-6.755,0.188-13.234,2.944-18.009,7.717c-4.776,4.776-7.534,11.256-7.718,18.011c6.755-0.186,13.233-2.942,18.008-7.717l0,0
		C194.476,271.714,197.234,265.234,197.42,258.479z"/>
	<path fill="#6B6B6B" d="M249.92,277.864c-5.86-5.86-8.597-13.643-8.273-21.318c7.677-0.322,15.456,2.414,21.318,8.273
		c5.862,5.861,8.597,13.643,8.272,21.317C263.561,286.461,255.781,283.727,249.92,277.864z"/>
	<path fill="#33363A" d="M270.036,288.109c-8.044,0-15.816-3.192-21.491-8.868c-5.977-5.977-9.2-14.277-8.841-22.775
		c0.043-1.011,0.853-1.82,1.862-1.864c8.488-0.345,16.798,2.866,22.775,8.841c5.977,5.977,9.2,14.279,8.841,22.776
		c-0.043,1.009-0.853,1.818-1.862,1.862C270.891,288.1,270.462,288.109,270.036,288.109z M243.578,258.479
		c0.186,6.756,2.944,13.236,7.718,18.011c4.774,4.775,11.254,7.533,18.009,7.717c-0.186-6.755-2.943-13.234-7.718-18.011
		C256.812,261.423,250.331,258.664,243.578,258.479z"/>
	<polygon fill="#4B6466" points="220.5,292.022 143.353,306.431 150.114,345.172 290.886,345.172 297.646,306.431 	"/>
	<polygon fill="#545556" points="220.5,292.022 143.353,306.431 150.114,345.172 290.886,345.172 297.646,306.431 	"/>
	<polygon fill="#6B6B6B" points="220.5,314.358 143.353,306.431 150.114,345.172 290.886,345.172 297.646,306.431 	"/>
	<path fill="#33363A" d="M290.886,347.118H150.114c-0.946,0-1.755-0.68-1.917-1.611l-6.759-38.741
		c-0.183-1.052,0.512-2.052,1.559-2.247l77.147-14.406c0.237-0.043,0.479-0.043,0.715,0l77.145,14.406
		c1.048,0.195,1.743,1.197,1.56,2.247l-6.76,38.741C292.64,346.438,291.832,347.118,290.886,347.118z M151.75,343.227h137.5
		l6.147-35.236l-74.897-13.985L145.6,307.99L151.75,343.227z"/>
	<polygon fill="#D1D1D1" points="202.764,260.644 202.595,300.749 220.499,344.287 238.405,300.749 238.237,260.644 	"/>
	<polygon fill="#545556" points="232.277,315.647 208.723,315.647 220.167,343.479 220.833,343.479 	"/>
	<path fill="#33363A" d="M220.833,345.423h-0.666c-0.789,0-1.5-0.477-1.799-1.206l-11.444-27.83
		c-0.247-0.601-0.178-1.283,0.183-1.823c0.36-0.539,0.968-0.861,1.616-0.861h23.555c0.648,0,1.255,0.322,1.616,0.861
		c0.36,0.54,0.431,1.223,0.183,1.823l-11.445,27.83C222.332,344.946,221.621,345.423,220.833,345.423z M211.627,317.594
		l8.873,21.576l8.874-21.576H211.627z"/>
	<polygon fill="#E0E0E0" points="202.764,260.644 202.595,300.749 220.499,304.586 238.405,300.749 238.237,260.644 	"/>
	<path fill="#D1D1D1" d="M238.237,260.644h-35.473l-1.947,22.867l13.555,11.091c1.782,1.459,3.956,2.188,6.127,2.188
		c2.173,0,4.348-0.729,6.129-2.188l13.555-11.088L238.237,260.644z"/>
	<path fill="#33363A" d="M220.499,346.232L220.499,346.232c-0.789,0-1.5-0.477-1.799-1.207l-17.905-43.537
		c-0.097-0.236-0.147-0.491-0.146-0.746l0.168-40.105c0.004-1.072,0.875-1.939,1.947-1.939h35.473c1.071,0,1.942,0.867,1.946,1.939
		l0.168,40.105c0,0.255-0.05,0.511-0.146,0.746l-17.906,43.537C222,345.755,221.288,346.232,220.499,346.232z M204.544,300.37
		l15.955,38.8l15.957-38.8l-0.157-37.78h-31.597L204.544,300.37z"/>
	<path fill="#BCBCBC" d="M253.348,231.872c0,16.484-14.707,29.847-32.849,29.847c-18.14,0-32.848-13.362-32.848-29.847
		c0-16.482,14.708-33.727,32.848-33.727C238.641,198.146,253.348,215.39,253.348,231.872z"/>
	<path fill="#6B6B6B" d="M253.348,231.872c0,16.484-14.707,29.847-32.849,29.847c-18.14,0-32.848-13.362-32.848-29.847
		c0-16.482,14.708-26.104,32.848-26.104C238.641,205.769,253.348,215.39,253.348,231.872z"/>
	<path fill="#33363A" d="M220.499,263.664c-19.186,0-34.793-14.261-34.793-31.792c0-16.84,14.88-35.673,34.793-35.673
		c19.914,0,34.794,18.833,34.794,35.673C255.293,249.403,239.685,263.664,220.499,263.664z M220.499,200.092
		c-17.686,0-30.901,16.779-30.901,31.78c0,15.384,13.863,27.9,30.901,27.9c17.039,0,30.902-12.517,30.902-27.9
		C251.401,216.871,238.186,200.092,220.499,200.092z"/>
	<path fill="#D1D1D1" d="M194.537,256.779c-5.069,0-9.177-4.107-9.177-9.176c0-5.067,4.108-9.177,9.177-9.177"/>
	<path fill="#33363A" d="M194.537,258.726c-6.135,0-11.123-4.99-11.123-11.122c0-6.134,4.99-11.122,11.123-11.122
		c1.076,0,1.946,0.871,1.946,1.945c0,1.075-0.87,1.946-1.946,1.946c-3.987,0-7.23,3.244-7.23,7.23c0,3.985,3.243,7.229,7.23,7.229
		c1.076,0,1.946,0.872,1.946,1.946S195.613,258.726,194.537,258.726z"/>
	<path fill="#EDEDED" d="M246.463,238.427c5.068,0,9.177,4.109,9.177,9.177c0,5.07-4.109,9.176-9.177,9.176"/>
	<path fill="#33363A" d="M246.463,258.726c-1.076,0-1.946-0.872-1.946-1.946s0.871-1.946,1.946-1.946c3.987,0,7.23-3.244,7.23-7.229
		c0-3.986-3.244-7.23-7.23-7.23c-1.076,0-1.946-0.871-1.946-1.946c0-1.074,0.871-1.945,1.946-1.945
		c6.134,0,11.123,4.989,11.123,11.122S252.596,258.726,246.463,258.726z"/>
	<path fill="#ECA37D" d="M239.531,227.426l-17.336-3.087c-1.122-0.197-2.268-0.197-3.389,0l-17.334,3.087
		c-4.619,0.821-7.981,4.833-7.981,9.527v25.312c0,2.904,1.301,5.651,3.548,7.491l17.334,17.427c1.783,1.459,3.956,2.188,6.127,2.188
		c2.173,0,4.347-0.729,6.129-2.188l17.336-17.427c2.247-1.84,3.546-4.587,3.546-7.491v-25.312
		C247.511,232.26,244.147,228.247,239.531,227.426z"/>
	<path fill="#E0E0E0" d="M239.531,227.426l-17.336,8.4c-1.122-0.197-2.268-0.197-3.389,0l-17.334-8.4
		c-4.619,0.821-7.981,4.833-7.981,9.527v25.312c0,2.904,1.301,5.651,3.548,7.491l17.334,17.427c1.783,1.459,3.956,2.188,6.127,2.188
		c2.173,0,4.347-0.729,6.129-2.188l17.336-17.427c2.247-1.84,3.546-4.587,3.546-7.491v-25.312
		C247.511,232.26,244.147,228.247,239.531,227.426z"/>
	<path fill="#D1D1D1" d="M220.499,289.368c2.173,0,4.348-0.728,6.129-2.188l17.336-17.427c2.247-1.839,3.547-4.586,3.547-7.49
		v-25.311c0-4.693-3.364-8.706-7.98-9.527l-17.336-3.087c-1.122-0.197-0.572-0.197-1.696,0"/>
	<path fill="#33363A" d="M220.499,291.314c-2.676,0-5.291-0.933-7.36-2.627c-0.052-0.041-0.1-0.086-0.146-0.134l-17.269-17.358
		c-2.66-2.217-4.183-5.466-4.183-8.932v-25.311c0-5.644,4.032-10.457,9.587-11.443l17.334-3.085c1.351-0.241,2.718-0.24,4.067-0.002
		l17.341,3.087c5.554,0.987,9.586,5.801,9.586,11.443v25.312c0,3.466-1.521,6.716-4.182,8.932l-17.27,17.358
		c-0.046,0.047-0.095,0.092-0.146,0.135C225.792,290.382,223.179,291.314,220.499,291.314z M215.678,285.736
		c2.729,2.178,6.92,2.178,9.645,0l17.262-17.353c0.046-0.046,0.095-0.091,0.146-0.134c1.801-1.476,2.834-3.656,2.834-5.985v-25.312
		c0-3.754-2.68-6.953-6.375-7.611l0,0l-17.336-3.087c-0.896-0.157-1.808-0.157-2.709,0.001l-17.332,3.086
		c-3.695,0.658-6.377,3.858-6.377,7.611v25.312c0,2.329,1.033,4.511,2.836,5.985c0.052,0.043,0.1,0.086,0.146,0.134L215.678,285.736
		z"/>
	<path fill="#33363A" d="M164.769,347.118c-0.73,0-1.43-0.411-1.762-1.115l-6.919-14.673c-0.458-0.971-0.042-2.131,0.93-2.589
		c0.971-0.46,2.131-0.043,2.591,0.93l6.919,14.672c0.458,0.973,0.041,2.133-0.931,2.591
		C165.33,347.06,165.047,347.118,164.769,347.118z"/>
	<path fill="#33363A" d="M276.231,347.118c-0.278,0-0.561-0.059-0.829-0.187c-0.973-0.459-1.388-1.617-0.93-2.59l6.919-14.673
		c0.459-0.971,1.619-1.386,2.591-0.93c0.973,0.46,1.388,1.618,0.93,2.59l-6.919,14.672
		C277.66,346.707,276.961,347.118,276.231,347.118z"/>
	<path fill="#BCBCBC" d="M220.499,206.83c-14.942,0-27.053,12.111-27.053,27.053h54.106
		C247.553,218.941,235.44,206.83,220.499,206.83z"/>
	<path fill="#6B6B6B" d="M220.499,214.577c-12.249,0-22.59,8.141-25.922,19.306h51.843
		C243.088,222.718,232.747,214.577,220.499,214.577z"/>
	<path fill="#33363A" d="M247.553,235.829h-54.107c-1.075,0-1.946-0.871-1.946-1.946c0-1.073,0.871-1.945,1.946-1.945h54.106
		c1.076,0,1.946,0.872,1.946,1.945C249.499,234.958,248.627,235.829,247.553,235.829z"/>
	<polygon fill="#F55152" points="231.955,343.479 231.955,343.479 231.955,343.479 	"/>
	<path fill="#6B6B6B" d="M240.183,331.909c0-8.979,7.28-16.261,16.259-16.261c8.979,0,16.259,7.282,16.259,16.261"/>
	<path fill="#BCBCBC" d="M240.183,331.909c0-6.875,7.28-12.456,16.259-12.456c8.979,0,16.259,5.581,16.259,12.456"/>
	<line fill="none" x1="272.7" y1="331.909" x2="240.183" y2="331.909"/>
	<line fill="none" x1="272.7" y1="331.909" x2="240.183" y2="331.909"/>
	<path fill="#33363A" d="M256.441,313.702c-10.038,0-18.205,8.166-18.205,18.205c0,1.074,0.871,1.946,1.946,1.946H272.7
		c1.076,0,1.946-0.872,1.946-1.946C274.646,321.868,266.479,313.702,256.441,313.702z M256.441,317.594
		c7.23,0,13.21,5.395,14.165,12.368h-28.33C243.231,322.988,249.211,317.594,256.441,317.594z"/>
	<circle fill="#FFFFFF" cx="256.44" cy="331.942" r="5.375"/>
	<path fill="#D9E3E4" d="M252.639,335.742c-2.098-2.095-2.098-5.5,0-7.6c2.101-2.1,5.505-2.1,7.602,0"/>
	<path fill="#33363A" d="M256.441,339.265c-1.955,0-3.795-0.764-5.178-2.146c-1.381-1.379-2.144-3.217-2.144-5.174
		c0-1.956,0.761-3.795,2.144-5.179c1.384-1.382,3.223-2.144,5.18-2.144c1.956,0,3.795,0.762,5.176,2.146
		c1.384,1.383,2.145,3.223,2.145,5.18c0,1.956-0.763,3.793-2.147,5.172C260.236,338.503,258.398,339.265,256.441,339.265z
		 M256.441,328.513c-0.916,0-1.778,0.356-2.427,1.004c-0.647,0.647-1.002,1.509-1.002,2.426c0,0.916,0.355,1.775,1.002,2.422
		c1.299,1.3,3.557,1.299,4.85,0.003c0.65-0.649,1.005-1.509,1.007-2.423c0-0.918-0.357-1.779-1.006-2.428c0,0,0,0-0.001-0.001
		C258.218,328.871,257.357,328.513,256.441,328.513z"/>
	<text transform="matrix(1 0 0 1 112.4717 428.3848)"><tspan x="0" y="0" fill="#33363A" font-family="'Montserrat-Bold'" font-size="20">VOUS N’AVEZ PAS DE</tspan><tspan x="-48.25" y="24" fill="#33363A" font-family="'Montserrat-Bold'" font-size="20">DRESSEUR POKEMON ATTITRÉ</tspan></text>
</g>
<g id="Layer_3">
	<g opacity="0.4">
		<g>
			<path fill="#33363A" d="M221.5,181.479c-56.226,0-101.8,45.578-101.8,101.8c0,56.221,45.575,101.799,101.8,101.799
				c56.219,0,101.798-45.578,101.798-101.799C323.298,227.057,277.719,181.479,221.5,181.479z M221.5,359.243
				c-41.887,0-75.966-34.076-75.966-75.965s34.079-75.964,75.966-75.964c41.885,0,75.964,34.077,75.964,75.964
				C297.464,325.166,263.385,359.243,221.5,359.243z"/>
			
				<rect x="127.843" y="270.36" transform="matrix(0.7071 0.7071 -0.7071 0.7071 265.1816 -73.6523)" fill="#33363A" width="187.307" height="25.834"/>
		</g>
		<g>
		</g>
		<g>
		</g>
		<g>
		</g>
		<g>
		</g>
		<g>
		</g>
		<g>
		</g>
		<g>
		</g>
		<g>
		</g>
		<g>
		</g>
		<g>
		</g>
		<g>
		</g>
		<g>
		</g>
		<g>
		</g>
		<g>
		</g>
		<g>
		</g>
	</g>
</g>
</svg>
