<?xml version="1.0" encoding="utf-8"?>
<!-- Generator: Adobe Illustrator 16.0.0, SVG Export Plug-In . SVG Version: 6.00 Build 0)  -->
<!DOCTYPE svg PUBLIC "-//W3C//DTD SVG 1.1//EN" "http://www.w3.org/Graphics/SVG/1.1/DTD/svg11.dtd">
<svg version="1.1" id="Layer_1" xmlns="http://www.w3.org/2000/svg" xmlns:xlink="http://www.w3.org/1999/xlink" x="0px" y="0px"
	 width="23.749px" height="27.945px" viewBox="0 0 23.749 27.945" enable-background="new 0 0 23.749 27.945" xml:space="preserve">
<g>
	<path fill="#FF9100" d="M9.293,23.647c-0.338,0.337-0.861,0.337-1.199,0l-5.502-5.502c-0.338-0.338-0.338-0.861,0-1.199
		l11.65-11.65c0.338-0.338,0.861-0.338,1.199,0l5.503,5.502c0.338,0.338,0.338,0.861,0,1.199L9.293,23.647z"/>
	<path fill="#FFC200" d="M9.508,23.432c-0.338,0.338-0.86,0.338-1.199,0L2.806,17.96c-0.337-0.337-0.337-0.86,0-1.198L14.457,5.08
		c0.338-0.338,0.861-0.338,1.199,0l5.503,5.502c0.338,0.338,0.338,0.861,0,1.199L9.508,23.432z"/>
	<path fill="#FFB000" d="M15.656,5.08l5.503,5.502c0.338,0.338,0.338,0.861,0,1.199L9.508,23.432c-0.338,0.338-0.86,0.338-1.199,0"
		/>
	<path fill="#FF9700" d="M21.158,10.583c0.338,0.338,0.338,0.861,0,1.199L9.508,23.432c-0.338,0.338-0.86,0.338-1.199,0"/>
	<path fill="#FFDA00" d="M2.806,17.96c-0.337-0.337-0.337-0.86,0-1.198L14.457,5.08c0.338-0.338,0.861-0.338,1.199,0"/>
	<g>
		<ellipse fill="#FF9100" cx="5.327" cy="9.661" rx="0.124" ry="2.182"/>
		<ellipse fill="#FF9100" cx="5.327" cy="9.661" rx="2.182" ry="0.123"/>
	</g>
	<g>
		
			<ellipse transform="matrix(-0.7091 -0.7051 0.7051 -0.7091 9.0134 17.4115)" fill="#FFC200" cx="8.098" cy="6.846" rx="0.061" ry="1.168"/>
		
			<ellipse transform="matrix(0.7071 -0.7071 0.7071 0.7071 -2.4877 7.7216)" fill="#FFC200" cx="8.077" cy="6.864" rx="0.061" ry="1.168"/>
	</g>
	<g>
		
			<ellipse transform="matrix(-0.7071 -0.7071 0.7071 -0.7071 6.5206 31.1902)" fill="#FFDA00" cx="9.72" cy="14.245" rx="0.061" ry="1.168"/>
		
			<ellipse transform="matrix(0.7071 -0.7071 0.7071 0.7071 -7.2268 11.0384)" fill="#FFDA00" cx="9.711" cy="14.243" rx="0.061" ry="1.168"/>
		<path fill="#FFDA00" d="M16.116,10.798c0,1.199-0.061,2.183-0.122,2.183c-0.062,0-0.123-0.983-0.123-2.183
			c0-1.199,0.062-2.183,0.123-2.183C16.055,8.615,16.116,9.599,16.116,10.798z"/>
		<ellipse fill="#FFDA00" cx="15.994" cy="10.798" rx="2.182" ry="0.123"/>
	</g>
	<g>
	</g>
	<g>
	</g>
	<g>
	</g>
	<g>
	</g>
	<g>
	</g>
	<g>
	</g>
	<g>
	</g>
	<g>
	</g>
	<g>
	</g>
	<g>
	</g>
	<g>
	</g>
	<g>
	</g>
	<g>
	</g>
	<g>
	</g>
	<g>
	</g>
</g>
</svg>
