<?xml version="1.0" encoding="utf-8"?>
<!-- Generator: Adobe Illustrator 16.0.0, SVG Export Plug-In . SVG Version: 6.00 Build 0)  -->
<!DOCTYPE svg PUBLIC "-//W3C//DTD SVG 1.1//EN" "http://www.w3.org/Graphics/SVG/1.1/DTD/svg11.dtd">
<svg version="1.1" id="Layer_1" xmlns="http://www.w3.org/2000/svg" xmlns:xlink="http://www.w3.org/1999/xlink" x="0px" y="0px"
	 width="48px" height="45.833px" viewBox="490.5 0 48 45.833" enable-background="new 490.5 0 48 45.833" xml:space="preserve">
<path fill="#ED5564" d="M532.307,14.541c-0.952-2.25-2.313-4.271-4.048-6.006c-1.736-1.734-3.757-3.097-6.006-4.049
	C519.922,3.5,517.447,3,514.896,3c-2.55,0-5.025,0.5-7.355,1.485c-2.25,0.952-4.271,2.314-6.006,4.049
	c-1.734,1.735-3.097,3.756-4.049,6.006C496.5,16.871,496,19.346,496,21.896c0,2.551,0.5,5.026,1.485,7.356
	c0.952,2.249,2.314,4.271,4.049,6.005c1.735,1.736,3.756,3.098,6.007,4.049c2.33,0.985,4.805,1.486,7.355,1.486
	c2.551,0,5.026-0.5,7.356-1.486c2.249-0.951,4.271-2.313,6.006-4.049c1.735-1.735,3.097-3.757,4.048-6.005
	c0.985-2.33,1.485-4.805,1.485-7.356C533.792,19.346,533.292,16.871,532.307,14.541z"/>
<path fill="#E6E9ED" d="M496.007,22.427c0.065,2.363,0.561,4.657,1.478,6.826c0.952,2.249,2.314,4.271,4.049,6.005
	c1.735,1.736,3.756,3.098,6.007,4.049c2.33,0.985,4.805,1.486,7.355,1.486c2.551,0,5.026-0.5,7.356-1.486
	c2.249-0.951,4.271-2.313,6.006-4.049c1.735-1.735,3.097-3.757,4.048-6.005c0.918-2.168,1.414-4.462,1.479-6.826H496.007z"/>
<path fill="#434A54" d="M533.702,23.758c0.06-0.616,0.09-1.236,0.09-1.861c0-0.703-0.038-1.399-0.113-2.088
	c-0.939,0.145-2.287,0.333-3.986,0.521c-3.225,0.355-8.408,0.78-14.797,0.78c-6.389,0-11.572-0.425-14.796-0.78
	c-1.699-0.188-3.047-0.376-3.986-0.521c-0.076,0.689-0.114,1.386-0.114,2.088c0,0.625,0.03,1.246,0.09,1.861
	c3.065,0.461,9.819,1.287,18.806,1.287S530.637,24.219,533.702,23.758z"/>
<path fill="#E6E9ED" d="M518.833,22.684c0,2.174-1.764,3.937-3.938,3.937s-3.937-1.763-3.937-3.937c0-2.174,1.763-3.937,3.937-3.937
	C517.07,18.748,518.833,20.51,518.833,22.684z"/>
<path fill="#434A54" d="M514.896,15.598c-3.908,0-7.086,3.179-7.086,7.086s3.179,7.085,7.086,7.085s7.086-3.179,7.086-7.085
	S518.803,15.598,514.896,15.598z M514.896,25.834c-1.736,0-3.149-1.414-3.149-3.15s1.413-3.149,3.149-3.149
	c1.737,0,3.148,1.413,3.148,3.149S516.633,25.834,514.896,25.834z"/>
<path opacity="0.2" fill="#FFFFFF" enable-background="new    " d="M532.307,14.541c-0.952-2.25-2.313-4.271-4.048-6.006
	c-1.736-1.734-3.757-3.097-6.006-4.049C519.922,3.5,517.447,3,514.896,3c-0.264,0-0.526,0.006-0.787,0.016
	c2.272,0.092,4.478,0.585,6.567,1.469c2.251,0.952,4.272,2.314,6.006,4.049c1.735,1.735,3.098,3.756,4.049,6.006
	c0.986,2.33,1.484,4.805,1.484,7.355c0,2.551-0.498,5.026-1.484,7.356c-0.951,2.249-2.314,4.271-4.049,6.005
	c-1.734,1.736-3.755,3.098-6.006,4.049c-2.09,0.884-4.295,1.377-6.567,1.47c0.261,0.01,0.523,0.016,0.787,0.016
	c2.551,0,5.026-0.5,7.356-1.486c2.249-0.951,4.271-2.313,6.006-4.049c1.735-1.735,3.097-3.756,4.048-6.005
	c0.985-2.33,1.485-4.805,1.485-7.356C533.792,19.346,533.292,16.871,532.307,14.541z"/>
<path opacity="0.1" enable-background="new    " d="M497.485,29.252c0.952,2.249,2.314,4.271,4.049,6.005
	c1.735,1.736,3.756,3.098,6.007,4.049c2.33,0.985,4.805,1.486,7.355,1.486c0.264,0,0.526-0.006,0.787-0.016
	c-2.272-0.092-4.478-0.586-6.568-1.47c-2.25-0.951-4.271-2.313-6.006-4.049c-1.735-1.735-3.098-3.757-4.05-6.005
	c-0.985-2.33-1.485-4.805-1.485-7.356c0-2.551,0.5-5.025,1.485-7.355c0.952-2.25,2.314-4.271,4.05-6.006
	c1.735-1.735,3.755-3.098,6.006-4.049c2.089-0.884,4.295-1.377,6.568-1.469C515.422,3.006,515.16,3,514.896,3
	c-2.55,0-5.025,0.5-7.355,1.485c-2.25,0.952-4.271,2.314-6.006,4.049c-1.734,1.735-3.097,3.756-4.049,6.006
	C496.5,16.871,496,19.346,496,21.896C496,24.448,496.5,26.923,497.485,29.252z"/>
</svg>
