<?xml version="1.0" encoding="utf-8"?>
<!-- Generator: Adobe Illustrator 16.0.0, SVG Export Plug-In . SVG Version: 6.00 Build 0)  -->
<!DOCTYPE svg PUBLIC "-//W3C//DTD SVG 1.1//EN" "http://www.w3.org/Graphics/SVG/1.1/DTD/svg11.dtd">
<svg version="1.1" id="Layer_1" xmlns="http://www.w3.org/2000/svg" xmlns:xlink="http://www.w3.org/1999/xlink" x="0px" y="0px"
	 width="23.749px" height="27.945px" viewBox="0 0 23.749 27.945" enable-background="new 0 0 23.749 27.945" xml:space="preserve">
<g>
	<path fill="#FF6536" d="M3.552,13.298c0,0,0.833,1.226,2.583,2.264c0,0-1.267-10.703,6.985-12.562
		c-2.114,7.759,2.689,9.947,4.44,5.848c2.924,3.904,0.704,7.31,0.704,7.31c1.2,0.173,2.207-1.137,2.207-1.137
		c0.009,0.162,0.014,0.324,0.014,0.487c0,4.755-3.854,8.609-8.609,8.609s-8.609-3.854-8.609-8.609
		C3.265,14.744,3.365,14.003,3.552,13.298z"/>
	<path fill="#FF421D" d="M20.47,15.02c0,0-1.007,1.31-2.207,1.137c0,0,2.221-3.406-0.704-7.31c-1.75,4.1-6.554,1.911-4.44-5.848
		c-0.442,0.1-0.856,0.225-1.245,0.372v20.745c4.755,0,8.609-3.854,8.609-8.609C20.484,15.344,20.479,15.182,20.47,15.02z"/>
	<path fill="#FBBF00" d="M8.099,20.341c0,2.085,1.69,3.776,3.775,3.776s3.776-1.69,3.776-3.776c0-1.116-0.484-2.119-1.254-2.81
		c-1.46,1.983-3.54-1.026-1.919-3.223C12.477,14.309,8.099,14.857,8.099,20.341z"/>
	<path fill="#FFA900" d="M15.651,20.341c0-1.116-0.484-2.119-1.254-2.81c-1.46,1.983-3.54-1.026-1.919-3.223
		c0,0-0.238,0.03-0.603,0.146v9.663C13.96,24.117,15.651,22.426,15.651,20.341z"/>
	<g>
	</g>
	<g>
	</g>
	<g>
	</g>
	<g>
	</g>
	<g>
	</g>
	<g>
	</g>
	<g>
	</g>
	<g>
	</g>
	<g>
	</g>
	<g>
	</g>
	<g>
	</g>
	<g>
	</g>
	<g>
	</g>
	<g>
	</g>
	<g>
	</g>
</g>
</svg>
