<?xml version="1.0" encoding="utf-8"?>
<!-- Generator: Adobe Illustrator 16.0.0, SVG Export Plug-In . SVG Version: 6.00 Build 0)  -->
<!DOCTYPE svg PUBLIC "-//W3C//DTD SVG 1.1//EN" "http://www.w3.org/Graphics/SVG/1.1/DTD/svg11.dtd">
<svg version="1.1" id="Layer_1" xmlns="http://www.w3.org/2000/svg" xmlns:xlink="http://www.w3.org/1999/xlink" x="0px" y="0px"
	 width="48px" height="43.11px" viewBox="0 0 48 43.11" enable-background="new 0 0 48 43.11" xml:space="preserve">
<g>
	<g>
		<g>
			<path d="M42.177,20.695c-0.076-0.097-1.909-2.396-5.052-4.705c-4.198-3.084-8.767-4.715-13.212-4.715
				c-4.444,0-9.013,1.631-13.212,4.715c-3.143,2.309-4.975,4.608-5.052,4.705L5,21.517l0.649,0.821
				c0.077,0.097,1.909,2.396,5.052,4.705c4.199,3.084,8.768,4.715,13.212,4.715c4.445,0,9.014-1.63,13.212-4.715
				c3.143-2.309,4.976-4.608,5.052-4.705l0.65-0.821L42.177,20.695z M23.913,28.691c-3.956,0-7.175-3.218-7.175-7.174
				c0-0.62,0.079-1.222,0.228-1.796l-1.639-0.276c-0.16,0.665-0.245,1.358-0.245,2.072c0,2.555,1.091,4.86,2.833,6.475
				c-2.241-0.828-4.147-1.99-5.585-3.04c-1.782-1.302-3.117-2.618-3.878-3.435c0.761-0.818,2.096-2.134,3.878-3.435
				c1.438-1.05,3.344-2.212,5.585-3.04l1.098,1.239c1.284-1.202,3.007-1.938,4.9-1.938c3.956,0,7.175,3.218,7.175,7.175
				C31.088,25.473,27.869,28.691,23.913,28.691z M35.496,24.951c-1.438,1.05-3.343,2.212-5.584,3.04
				c1.741-1.614,2.832-3.919,2.832-6.475c0-2.556-1.091-4.861-2.832-6.476c2.241,0.828,4.146,1.99,5.584,3.04
				c1.782,1.302,3.117,2.618,3.878,3.435C38.613,22.334,37.278,23.65,35.496,24.951z"/>
			<path d="M19.348,20.122c-0.135,0.441-0.208,0.91-0.208,1.395c0,2.636,2.138,4.773,4.773,4.773c2.636,0,4.773-2.137,4.773-4.773
				c0-2.637-2.137-4.773-4.773-4.773c-1.284,0-2.449,0.508-3.307,1.333l2.354,2.654L19.348,20.122z"/>
		</g>
	</g>
	<g>
	</g>
	<g>
	</g>
	<g>
	</g>
	<g>
	</g>
	<g>
	</g>
	<g>
	</g>
	<g>
	</g>
	<g>
	</g>
	<g>
	</g>
	<g>
	</g>
	<g>
	</g>
	<g>
	</g>
	<g>
	</g>
	<g>
	</g>
	<g>
	</g>
</g>
</svg>
