<?xml version="1.0" encoding="utf-8"?>
<!-- Generator: Adobe Illustrator 16.0.0, SVG Export Plug-In . SVG Version: 6.00 Build 0)  -->
<!DOCTYPE svg PUBLIC "-//W3C//DTD SVG 1.1//EN" "http://www.w3.org/Graphics/SVG/1.1/DTD/svg11.dtd">
<svg version="1.1" id="Capa_1" xmlns="http://www.w3.org/2000/svg" xmlns:xlink="http://www.w3.org/1999/xlink" x="0px" y="0px"
	 width="64.141px" height="68.945px" viewBox="0 0 64.141 68.945" enable-background="new 0 0 64.141 68.945" xml:space="preserve">
<path fill="#7F8C8D" d="M55.618,30.714v1.602L34.797,53.937H21.985v-19.22h12.812l10.41-10.41l-0.4,2.002
	c0,1.168,0.463,2.289,1.289,3.114c0.826,0.826,1.946,1.29,3.114,1.29H55.618L55.618,30.714z"/>
<polygon fill="#D1D4D1" points="55.618,30.714 55.618,35.519 50.813,40.323 34.797,57.14 33.196,57.14 33.196,52.335 34.797,52.335 
	50.813,35.519 "/>
<polygon fill="#F7F7F7" points="55.618,10.694 55.618,13.097 34.797,33.116 9.172,33.116 9.172,31.515 29.993,10.694 "/>
<polygon fill="#7F8C8D" points="19.582,41.925 20.383,41.925 20.383,53.135 9.172,53.135 9.172,52.335 "/>
<polygon fill="#D1D4D1" points="55.618,10.694 55.618,15.499 34.797,36.319 33.997,36.319 33.997,31.515 34.797,31.515 "/>
<path fill="#C5CCD4" d="M24.387,40.723v7.208c0,1.168,0.463,2.288,1.288,3.114c0.827,0.826,1.947,1.29,3.115,1.289h6.006v4.806
	H9.172v-4.806h6.007c1.168,0,2.288-0.463,3.114-1.289s1.29-1.946,1.289-3.114v-7.207c0-1.168-0.463-2.289-1.289-3.115
	c-0.827-0.826-1.946-1.29-3.114-1.289H9.172v-4.805h25.625v4.805h-6.006c-1.168,0-2.289,0.463-3.115,1.289
	C24.85,38.435,24.386,39.556,24.387,40.723z"/>
<g>
	<path fill="#95A5A5" d="M28.391,49.091c-0.213,0.002-0.418-0.082-0.568-0.231c-0.151-0.151-0.234-0.355-0.232-0.569
		c0-0.441,0.358-0.8,0.802-0.8c0.442,0,0.801,0.358,0.801,0.8c0.002,0.213-0.082,0.418-0.232,0.569
		C28.809,49.01,28.604,49.094,28.391,49.091L28.391,49.091z"/>
	<path fill="#95A5A5" d="M30.793,46.577c-0.319,0-0.609-0.191-0.735-0.485c-0.126-0.295-0.064-0.636,0.156-0.867l0.801-0.84
		c0.197-0.207,0.49-0.293,0.769-0.226s0.499,0.278,0.579,0.553c0.081,0.274,0.009,0.571-0.189,0.778l-0.801,0.839
		C31.222,46.488,31.012,46.577,30.793,46.577L30.793,46.577z"/>
	<path fill="#95A5A5" d="M33.997,43.221c-0.321,0-0.609-0.191-0.737-0.486c-0.126-0.294-0.063-0.636,0.157-0.868l0.801-0.839
		c0.306-0.32,0.812-0.332,1.133-0.026c0.319,0.307,0.332,0.812,0.025,1.132l-0.801,0.841C34.425,43.132,34.216,43.222,33.997,43.221
		L33.997,43.221z"/>
	<path fill="#95A5A5" d="M37.2,39.865c-0.321,0-0.61-0.19-0.737-0.485c-0.126-0.294-0.063-0.636,0.157-0.867l0.801-0.84
		c0.306-0.319,0.812-0.332,1.133-0.025c0.319,0.305,0.331,0.812,0.026,1.132l-0.801,0.84C37.628,39.776,37.419,39.866,37.2,39.865z"
		/>
	<path fill="#95A5A5" d="M40.403,36.51c-0.321,0-0.61-0.189-0.737-0.484c-0.126-0.295-0.063-0.636,0.157-0.868l0.801-0.839
		c0.306-0.32,0.812-0.332,1.132-0.026c0.32,0.307,0.332,0.812,0.027,1.132l-0.801,0.84C40.831,36.421,40.622,36.51,40.403,36.51
		L40.403,36.51z"/>
	<path fill="#95A5A5" d="M43.606,33.156c-0.214,0-0.418-0.087-0.568-0.24c-0.151-0.146-0.236-0.35-0.231-0.561
		c-0.001-0.325,0.192-0.62,0.493-0.744c0.302-0.125,0.647-0.055,0.876,0.176c0.147,0.153,0.23,0.356,0.232,0.568
		c0.003,0.211-0.081,0.414-0.232,0.561C44.025,33.068,43.82,33.155,43.606,33.156L43.606,33.156z"/>
</g>
</svg>
