<?xml version="1.0" encoding="utf-8"?>
<!-- Generator: Adobe Illustrator 16.0.0, SVG Export Plug-In . SVG Version: 6.00 Build 0)  -->
<!DOCTYPE svg PUBLIC "-//W3C//DTD SVG 1.1//EN" "http://www.w3.org/Graphics/SVG/1.1/DTD/svg11.dtd">
<svg version="1.1" id="Layer_1" xmlns="http://www.w3.org/2000/svg" xmlns:xlink="http://www.w3.org/1999/xlink" x="0px" y="0px"
	 width="141.73px" height="141.73px" viewBox="0 0 141.73 141.73" enable-background="new 0 0 141.73 141.73" xml:space="preserve">
<circle fill="#729F3F" cx="70.865" cy="71" r="66"/>
<g>
	<g>
		<g>
			<path fill="#FFFFFF" d="M49.363,39.333c0.431,0.078,10.464,2.103,12.618,13.411c-2.729,2.884-4.422,6.928-4.422,11.418
				c0,0.041,0.002,0.081,0.002,0.119h28.604c0-0.038,0.007-0.078,0.007-0.119c0-4.494-1.7-8.534-4.433-11.421
				c2.156-11.309,12.197-13.333,12.631-13.411c0.935-0.174,1.559-1.072,1.392-2.019c-0.181-0.943-1.072-1.562-2.012-1.397
				c-0.126,0.022-11.686,2.26-15.001,14.389c-2.048-1.243-4.388-1.944-6.886-1.944c-2.488,0-4.835,0.708-6.883,1.944
				c-3.315-12.129-14.875-14.367-14.998-14.389c-0.943-0.168-1.834,0.457-2.015,1.4C47.795,38.261,48.423,39.163,49.363,39.333z"/>
			<path fill="#FFFFFF" d="M105.561,56.143c0.376-1.223-0.306-2.517-1.526-2.896c-1.227-0.374-2.514,0.306-2.891,1.532
				c0,0-2.829,9.123-3.432,11.077c-1.233,0.338-4.974,1.394-7.564,2.105c-0.095-0.412-0.175-0.828-0.264-1.229H53.85
				c-0.104,0.402-0.181,0.817-0.268,1.229c-2.594-0.714-6.341-1.767-7.568-2.105c-0.605-1.96-3.431-11.083-3.431-11.083
				c-0.374-1.224-1.678-1.903-2.894-1.529c-1.224,0.379-1.899,1.677-1.52,2.896l4.175,13.488l10.568,2.935
				c-0.081,0.989-0.132,1.967-0.132,2.979c0,1.239,0.068,2.456,0.181,3.65l-10.552,4.722l-3.293,18.651
				c-0.225,1.259,0.609,2.457,1.871,2.685c1.259,0.219,2.459-0.621,2.679-1.879c0,0,2.501-14.146,2.875-16.234
				c1.01-0.461,4.358-1.948,7.201-3.223c2.507,10.665,9.669,18.379,18.123,18.379c8.457,0,15.625-7.714,18.13-18.379
				c2.839,1.274,6.189,2.763,7.201,3.223c0.363,2.089,2.874,16.234,2.874,16.234c0.216,1.258,1.423,2.098,2.685,1.879
				c1.26-0.229,2.092-1.426,1.864-2.685l-3.295-18.651l-10.551-4.718c0.113-1.195,0.185-2.413,0.185-3.651
				c0-1.005-0.059-1.989-0.132-2.979l10.567-2.935L105.561,56.143z"/>
		</g>
		<g>
		</g>
		<g>
		</g>
		<g>
		</g>
		<g>
		</g>
		<g>
		</g>
		<g>
		</g>
		<g>
		</g>
		<g>
		</g>
		<g>
		</g>
		<g>
		</g>
		<g>
		</g>
		<g>
		</g>
		<g>
		</g>
		<g>
		</g>
		<g>
		</g>
	</g>
	<g>
	</g>
	<g>
	</g>
	<g>
	</g>
	<g>
	</g>
	<g>
	</g>
	<g>
	</g>
	<g>
	</g>
	<g>
	</g>
	<g>
	</g>
	<g>
	</g>
	<g>
	</g>
	<g>
	</g>
	<g>
	</g>
	<g>
	</g>
	<g>
	</g>
</g>
</svg>
