<?xml version="1.0" encoding="utf-8"?>
<!-- Generator: Adobe Illustrator 16.0.0, SVG Export Plug-In . SVG Version: 6.00 Build 0)  -->
<!DOCTYPE svg PUBLIC "-//W3C//DTD SVG 1.1//EN" "http://www.w3.org/Graphics/SVG/1.1/DTD/svg11.dtd">
<svg version="1.1" id="Capa_1" xmlns="http://www.w3.org/2000/svg" xmlns:xlink="http://www.w3.org/1999/xlink" x="0px" y="0px"
	 width="64.141px" height="68.945px" viewBox="0 0 64.141 68.945" enable-background="new 0 0 64.141 68.945" xml:space="preserve">
<g>
	<path fill="#E64C3C" d="M49.868,7.496c-2.007-1.488-4.489-2.19-6.986-2.19H34.72h-9.59c-0.429,0-0.853,0.05-1.267,0.158
		c-2.1,0.553-8.179,2.777-8.179,9.994l2.748,30.689c0,0,3.561,2.273,9.934,3.312l0.007-6.082c0-3.54,3.216-6.134,6.765-6.06
		c3.566,0.075,6.475,3.305,6.475,6.871v5.27c6.608-1.021,9.935-3.312,9.935-3.312l2.207-30.689
		C53.756,11.46,51.888,8.993,49.868,7.496z"/>
	<g>
		<path fill="#38454F" d="M41.614,49.459v14.35c5.862-0.986,8.83-3.312,8.83-3.312V46.775C48.972,47.53,46.03,48.776,41.614,49.459z
			"/>
		<path fill="#38454F" d="M19.537,60.497c0,0,3.529,2.192,8.831,3.312v-14.35c-4.307-0.701-7.322-1.965-8.831-2.712V60.497z"/>
	</g>
	<path fill="#ED7161" d="M48.237,22.967c-0.609,0-1.104-0.494-1.104-1.104c0-5.478-4.457-9.934-9.935-9.934
		c-0.608,0-1.104-0.494-1.104-1.104s0.496-1.104,1.104-1.104c6.695,0,12.143,5.448,12.143,12.142
		C49.341,22.473,48.846,22.967,48.237,22.967z"/>
	<path fill="#C03A2B" d="M7.395,23.74v8.448c0,0.847,0.31,1.663,0.873,2.297l10.165,11.662l-2.375-26.501
		C13.522,19.484,7.17,19.397,7.395,23.74z"/>
	<path fill="#E6E7E8" d="M28.374,43.377c0-3.49,3.126-6.061,6.616-6.061l0,0c3.491,0,6.624,2.697,6.624,6.188v20.305l0,0
		c-5.5,1.27-8.063,1.322-13.247,0L28.374,43.377z"/>
	<g>
		<path fill="#556080" d="M36.552,46.147l2.531-2.531c0.432-0.431,0.432-1.129,0-1.561s-1.13-0.432-1.561,0l-2.532,2.531
			l-2.531-2.531c-0.431-0.432-1.129-0.432-1.56,0c-0.432,0.432-0.432,1.13,0,1.561l2.53,2.531l-2.53,2.53
			c-0.432,0.433-0.432,1.131,0,1.562c0.215,0.216,0.498,0.323,0.78,0.323c0.283,0,0.565-0.107,0.78-0.323l2.531-2.531l2.532,2.531
			c0.214,0.216,0.497,0.323,0.779,0.323c0.283,0,0.565-0.107,0.781-0.323c0.432-0.431,0.432-1.129,0-1.562L36.552,46.147z"/>
		<path fill="#556080" d="M39.083,53.094c-0.432-0.432-1.13-0.432-1.561,0l-2.532,2.531l-2.531-2.531
			c-0.431-0.432-1.129-0.432-1.56,0c-0.432,0.432-0.432,1.13,0,1.561l2.53,2.531l-2.53,2.53c-0.432,0.433-0.432,1.131,0,1.562
			c0.215,0.216,0.498,0.323,0.78,0.323c0.283,0,0.565-0.107,0.78-0.323l2.531-2.531l2.532,2.531
			c0.214,0.216,0.497,0.323,0.779,0.323c0.283,0,0.565-0.107,0.781-0.323c0.432-0.431,0.432-1.129,0-1.562l-2.531-2.53l2.531-2.531
			C39.513,54.223,39.513,53.525,39.083,53.094z"/>
	</g>
	<g>
	</g>
	<g>
	</g>
	<g>
	</g>
	<g>
	</g>
	<g>
	</g>
	<g>
	</g>
	<g>
	</g>
	<g>
	</g>
	<g>
	</g>
	<g>
	</g>
	<g>
	</g>
	<g>
	</g>
	<g>
	</g>
	<g>
	</g>
	<g>
	</g>
</g>
</svg>
