<?xml version="1.0" encoding="utf-8"?>
<!-- Generator: Adobe Illustrator 16.0.0, SVG Export Plug-In . SVG Version: 6.00 Build 0)  -->
<!DOCTYPE svg PUBLIC "-//W3C//DTD SVG 1.1//EN" "http://www.w3.org/Graphics/SVG/1.1/DTD/svg11.dtd">
<svg version="1.1" id="Capa_1" xmlns="http://www.w3.org/2000/svg" xmlns:xlink="http://www.w3.org/1999/xlink" x="0px" y="0px"
	 width="64.14px" height="68.945px" viewBox="0 0 64.14 68.945" enable-background="new 0 0 64.14 68.945" xml:space="preserve">
<g>
	<g transform="matrix(1.25 0 0 -1.25 0 45)">
		<g>
			<g>
				<g>
					<path fill="#3E721D" d="M19.426-5.82c0.758,8.112-5.342,9.12-7.76,7.356c-1.327-0.967-1.636-2.809-0.58-1.839
						c1.865,1.712,2.52,0.454,1.109-0.454c-1.411-0.907-1.663-2.595-0.1-1.436c1.562,1.158,1.989,0.403,0.78-1.083
						c-0.73-0.901,0.051-1.739,1.411,0.075c1.134,1.513,3.87,1.565,3.219-3.616C17.238-8.94,19.264-7.552,19.426-5.82"/>
					<path fill="#3E721D" d="M29.028,19.602c-0.705,4.232-1.361,6.346-5.593,7.051c-4.232,0.707-7.759-2.116-7.759-2.116
						s0.706,4.232,2.822,5.644c0.829,0.554,1.41-2.116,2.116-2.116c0.705,0,1.411,2.116,3.526,2.116
						c0.706,0,0.706-2.116,1.411-2.116s2.712,0.698,2.821,0c0.153-0.982-0.202-2.091,0.353-2.545
						c0.555-0.453,1.878,0.179,2.299-0.591c0.422-0.77-0.737-1.878-0.636-2.382c0.102-0.504,0.87-0.706,0.636-1.662
						c-0.233-0.958-0.786-1.008-0.837-1.714c-0.05-0.705,1.07-1.307,0.837-2.039c-0.233-0.733-0.787-0.832-1.039-1.764
						c-0.251-0.934,0.654-0.786,0.403-1.741c-0.251-0.955-1.158-1.198-1.46-2.136c-0.303-0.936,0.805-1.138,0.252-2.045
						c-0.554-0.907-1.561-1.057-1.612-1.611c-0.05-0.555,0.253-0.991,0.051-1.881c-0.202-0.89-1.362-0.438-1.462-1.143
						c-0.1-0.705,0.253-1.058,0.253-1.914c0-0.857-0.858-1.009-0.757-1.865c0.102-0.856,0.907-0.202,1.411-1.209
						c0.504-1.007-0.302-1.914,0.252-2.519c0.554-0.605,1.31,0.806,2.066,0.302c0.756-0.504,0.819-1.512,1.643-1.663
						c0.826-0.151,1.078,1.562,1.682,1.512c0.605-0.052,1.965-0.858,2.67-0.505c0.705,0.354,0.654,1.764,1.209,2.369
						c0.555,0.605,1.26,0.049,1.763,0.705c0.503,0.656-0.174,1.42-0.075,2.378c0.102,0.957,1.033,1.502,0.983,2.257
						c-0.05,0.756-0.807,0.756-1.109,1.562C37.846,7.029,38.702,7.734,38.4,8.49c-0.302,0.756-1.611,1.007-1.561,1.763
						c0.05,0.755,0.555,1.612,0.302,2.469c-0.253,0.856-1.311,1.411-1.26,2.066c0.051,0.655,0.604,1.512,0.705,1.99
						c0.102,0.479-0.906,0.983-0.805,1.788c0.1,0.807,0.754,0.751,1.006,1.479c0.252,0.729-0.905,1.091-0.301,2.023
						c0.605,0.932,0.908,0.327,1.411,0.831c0.504,0.504-0.001,1.613,0.504,1.865c0.504,0.252,1.511,0.05,2.016,0.403
						c0.504,0.353,0.504,0.856,1.058,1.058c0.554,0.202,1.26-0.654,1.714-0.654c0.453,0,1.259,0.856,1.863,0.654
						c0.604-0.202,1.915-1.613,1.109-2.04c-0.807-0.428-6.955-0.732-7.004-3.553c-0.05-2.821,3.377-15.621,2.369-18.844
						c-1.008-3.224-5.189-10.078-9.976-8.767c-4.788,1.309-10.48,4.232-9.12,8.717C23.788,6.223,28.171,15.397,29.028,19.602"/>
				</g>
				<path fill="#77B255" d="M29.784,20.702c0-4.811-2.88-9.848-7.054-9.149c-6.437,1.077-6.779,3.129-7.759,1.87
					c-3.528-4.527-5.616,0.587-6.418,1.434c-0.202,0.213-4.164,1.38-4.164,3.612c0,1.449,2.116,2.926,3.528,1.489
					c2.082,0.053,9.874,7.446,14.813,7.446C27.668,27.403,29.784,23.679,29.784,20.702"/>
				<path fill="#292F33" d="M22.026,21.715c0-0.78-0.631-1.411-1.411-1.411c-0.779,0-1.41,0.631-1.41,1.411
					c0,0.779,0.631,1.411,1.41,1.411C21.394,23.127,22.026,22.494,22.026,21.715"/>
				<path fill="#3E721D" d="M7.917,17.835c0-0.584-0.474-0.354-1.058-0.354c-0.584,0-1.058-0.23-1.058,0.354
					s0.474,1.058,1.058,1.058C7.444,18.893,7.917,18.419,7.917,17.835"/>
				<path id="SVGCleanerId_0" fill="#FFFFFF" d="M17.788,16.779c0-0.78-0.474-0.704-1.058-0.704c-0.584,0-1.058-0.075-1.058,0.704
					c0,0.779,0.473,2.821,1.058,2.821C17.315,19.6,17.788,17.558,17.788,16.779"/>
				<g transform="translate(-2.334 -0.584)">
					<path id="SVGCleanerId_0_1_" fill="#FFFFFF" d="M17.052,16.595c0-0.78-0.474-0.705-1.058-0.705
						c-0.584,0-1.058-0.075-1.058,0.705c0,0.779,0.474,2.821,1.058,2.821C16.578,19.416,17.052,17.374,17.052,16.595"/>
				</g>
				<path fill="#3E721D" d="M17.692,16.77c-3.742-0.534-7.515-1.48-9.139-1.909c0.202-0.214,0.487-0.7,0.856-1.235
					c1.781,0.461,5.144,1.271,8.483,1.748c0.386,0.055,0.653,0.413,0.598,0.8C18.434,16.558,18.074,16.827,17.692,16.77"/>
				<path fill="#77B255" d="M29.719,19.445c0-5.29-2.072-9.917-3.562-13.507c-1.613-3.884-1.21-10.883,4.837-10.883
					c6.046,0,7.873,3.859,8.464,6.047c1.643,6.071-2.418,9.673-2.418,15.72c0,10.884,9.674,8.465,9.674,7.255
					c0-1.209-8.385-1.661-3.627-10.883c4.756-9.222,4.837-26.474-12.093-26.474c-16.929,0-16.929,10.754-14.511,15.591
					c1.713,3.425,4.837,8.594,0.604,10.937C14.326,14.775,29.719,19.445,29.719,19.445"/>
				<path fill="#3E721D" d="M18.096,20.859c-0.309,0-0.619,0.118-0.855,0.355c-0.472,0.473-0.472,1.237,0,1.709
					c0.1,0.1,2.515,2.47,6.499,2.47c0.668,0,1.209-0.541,1.209-1.209c0-0.668-0.541-1.209-1.209-1.209
					c-2.945,0-4.771-1.744-4.789-1.762C18.716,20.978,18.406,20.859,18.096,20.859"/>
				<path fill="#5C913B" d="M17.34-0.379c0.758,8.112-6.551,9.12-8.969,7.356C7.044,6.01,6.735,4.168,7.791,5.137
					C9.656,6.849,10.312,5.59,8.9,4.684C7.489,3.776,7.238,2.089,8.8,3.248c1.561,1.158,1.989,0.404,0.78-1.082
					c-0.73-0.9,0.051-1.739,1.411,0.075c1.134,1.513,5.079,1.564,4.429-3.616C15.152-3.499,17.178-2.11,17.34-0.379"/>
			</g>
		</g>
	</g>
	<g>
	</g>
	<g>
	</g>
	<g>
	</g>
	<g>
	</g>
	<g>
	</g>
	<g>
	</g>
	<g>
	</g>
	<g>
	</g>
	<g>
	</g>
	<g>
	</g>
	<g>
	</g>
	<g>
	</g>
	<g>
	</g>
	<g>
	</g>
	<g>
	</g>
</g>
</svg>
