<?xml version="1.0" encoding="utf-8"?>
<!-- Generator: Adobe Illustrator 16.0.0, SVG Export Plug-In . SVG Version: 6.00 Build 0)  -->
<!DOCTYPE svg PUBLIC "-//W3C//DTD SVG 1.1//EN" "http://www.w3.org/Graphics/SVG/1.1/DTD/svg11.dtd">
<svg version="1.1" id="Capa_1" xmlns="http://www.w3.org/2000/svg" xmlns:xlink="http://www.w3.org/1999/xlink" x="0px" y="0px"
	 width="64.14px" height="68.945px" viewBox="0 0 64.14 68.945" enable-background="new 0 0 64.14 68.945" xml:space="preserve">
<g>
	<path fill="#84DBFF" d="M50.534,41.084c0,10.188-8.258,18.339-18.339,18.339s-18.339-8.151-18.339-18.339
		S32.196,7.945,32.196,7.945S50.534,31.003,50.534,41.084z"/>
	<path fill="#FFFFFF" d="M32.196,54.597c-7.4,0-13.513-6.005-13.513-13.513c0-0.858,0.751-1.608,1.609-1.608
		c0.858,0,1.608,0.75,1.608,1.608c0,5.684,4.612,10.295,10.296,10.295c0.858,0,1.609,0.751,1.609,1.609
		C33.804,53.846,33.053,54.597,32.196,54.597z"/>
	<g>
	</g>
	<g>
	</g>
	<g>
	</g>
	<g>
	</g>
	<g>
	</g>
	<g>
	</g>
	<g>
	</g>
	<g>
	</g>
	<g>
	</g>
	<g>
	</g>
	<g>
	</g>
	<g>
	</g>
	<g>
	</g>
	<g>
	</g>
	<g>
	</g>
</g>
</svg>
