<?xml version="1.0" encoding="utf-8"?>
<!-- Generator: Adobe Illustrator 16.0.0, SVG Export Plug-In . SVG Version: 6.00 Build 0)  -->
<!DOCTYPE svg PUBLIC "-//W3C//DTD SVG 1.1//EN" "http://www.w3.org/Graphics/SVG/1.1/DTD/svg11.dtd">
<svg version="1.1" id="Capa_1" xmlns="http://www.w3.org/2000/svg" xmlns:xlink="http://www.w3.org/1999/xlink" x="0px" y="0px"
	 width="64.14px" height="68.945px" viewBox="0 0 64.14 68.945" enable-background="new 0 0 64.14 68.945" xml:space="preserve">
<g>
</g>
<g>
</g>
<g>
</g>
<g>
</g>
<g>
</g>
<g>
</g>
<g>
</g>
<g>
</g>
<g>
</g>
<g>
</g>
<g>
</g>
<g>
</g>
<g>
</g>
<g>
</g>
<g>
	<path fill="#FFDC64" d="M27.439,63.925l22.897-39.424c0.518-0.893-0.217-1.991-1.24-1.852l-15.23,2.07l3.639-19.104
		c0.123-0.645-0.708-1.013-1.104-0.491L13.889,34.841c-0.656,0.865,0.039,2.096,1.118,1.982l16.792-1.768l-5.504,28.44
		C26.161,64.183,27.088,64.53,27.439,63.925z"/>
	<path fill="#FFC850" d="M20.928,32.735c-0.42,0.033-0.7-0.426-0.476-0.784L37.284,5.02c-0.25-0.199-0.645-0.211-0.883,0.104
		L13.889,34.84c-0.656,0.866,0.039,2.096,1.118,1.983l16.792-1.768l-5.504,28.441c-0.075,0.384,0.184,0.653,0.487,0.718
		l9.433-29.848c0.442-1.399-0.673-2.801-2.136-2.683L20.928,32.735z"/>
	<g>
	</g>
	<g>
	</g>
	<g>
	</g>
	<g>
	</g>
	<g>
	</g>
	<g>
	</g>
	<g>
	</g>
	<g>
	</g>
	<g>
	</g>
	<g>
	</g>
	<g>
	</g>
	<g>
	</g>
	<g>
	</g>
	<g>
	</g>
	<g>
	</g>
</g>
</svg>
