<?xml version="1.0" encoding="utf-8"?>
<!-- Generator: Adobe Illustrator 16.0.0, SVG Export Plug-In . SVG Version: 6.00 Build 0)  -->
<!DOCTYPE svg PUBLIC "-//W3C//DTD SVG 1.1//EN" "http://www.w3.org/Graphics/SVG/1.1/DTD/svg11.dtd">
<svg version="1.1" id="Layer_1" xmlns="http://www.w3.org/2000/svg" xmlns:xlink="http://www.w3.org/1999/xlink" x="0px" y="0px"
	 width="141.73px" height="141.73px" viewBox="0 0 141.73 141.73" enable-background="new 0 0 141.73 141.73" xml:space="preserve">
<circle fill="#FFD506" cx="70.865" cy="71" r="66"/>
<g>
	<path fill="#FFFFFF" d="M56.601,115.125l43.111-51.57c0.977-1.166,0.182-2.946-1.339-3L75.725,59.76L85.782,32.91
		c0.339-0.906-0.776-1.648-1.481-0.989L44.172,69.482c-1.169,1.093-0.466,3.056,1.128,3.159l24.842,1.623l-15.096,39.95
		C54.679,115.182,55.939,115.918,56.601,115.125z"/>
	<path fill="#FFFFFF" d="M54.926,68.179c-0.62-0.057-0.911-0.793-0.497-1.259l31.18-34.93c-0.313-0.352-0.884-0.467-1.309-0.07
		L44.172,69.481c-1.17,1.094-0.467,3.056,1.128,3.16l24.842,1.623l-15.097,39.952c-0.204,0.539,0.105,0.996,0.529,1.165
		L76.73,74.365c0.992-1.923-0.278-4.237-2.434-4.431L54.926,68.179z"/>
</g>
</svg>
