<?xml version="1.0" encoding="utf-8"?>
<!-- Generator: Adobe Illustrator 16.0.0, SVG Export Plug-In . SVG Version: 6.00 Build 0)  -->
<!DOCTYPE svg PUBLIC "-//W3C//DTD SVG 1.1//EN" "http://www.w3.org/Graphics/SVG/1.1/DTD/svg11.dtd">
<svg version="1.1" id="Layer_1" xmlns="http://www.w3.org/2000/svg" xmlns:xlink="http://www.w3.org/1999/xlink" x="0px" y="0px"
	 width="141.73px" height="141.73px" viewBox="0 0 141.73 141.73" enable-background="new 0 0 141.73 141.73" xml:space="preserve">
<circle fill="#E9A4EE" cx="70.865" cy="71" r="66"/>
<g>
	<g>
		<g>
			<g id="Layer_5_56_">
				<g>
					<g>
						<g>
							<path fill="#FFFFFF" d="M90.502,37.679c0.954-0.621,1.665-0.199,1.576,0.936l-1.033,13.338
								c-0.089,1.135,0.563,2.649,1.449,3.366l10.401,8.413c0.887,0.715,0.705,1.52-0.401,1.787l-13.004,3.14
								c-1.108,0.267-2.347,1.355-2.754,2.419L81.948,83.57c-0.406,1.062-1.227,1.139-1.823,0.168L73.12,72.341
								c-0.597-0.97-2.013-1.812-3.152-1.87l-13.359-0.692c-1.137-0.058-1.464-0.815-0.725-1.683l8.676-10.184
								c0.739-0.866,1.101-2.476,0.806-3.575l-3.47-12.919c-0.296-1.1,0.324-1.645,1.376-1.21l12.365,5.104
								c1.053,0.435,2.696,0.282,3.65-0.338L90.502,37.679z"/>
							<path fill="#FFFFFF" d="M94.645,28.892c0.468-0.787,1.483-1.045,2.271-0.578l0,0c0.786,0.466,1.045,1.482,0.579,2.269
								l-1.903,3.204c-0.467,0.787-1.482,1.046-2.27,0.579l0,0c-0.787-0.467-1.046-1.483-0.579-2.27L94.645,28.892z"/>
						</g>
						<g>
							<path fill="#FFFFFF" d="M53.198,59.399c-0.905,0.139-1.75-0.482-1.89-1.386l0,0c-0.138-0.903,0.482-1.749,1.386-1.888
								l3.684-0.566c0.904-0.139,1.749,0.481,1.888,1.385l0,0c0.139,0.904-0.48,1.75-1.385,1.889L53.198,59.399z"/>
							<path fill="#FFFFFF" d="M67.246,31.663c-0.349-0.846,0.053-1.813,0.899-2.164l0,0c0.845-0.349,1.813,0.052,2.163,0.898
								l1.423,3.445c0.349,0.845-0.052,1.813-0.899,2.162l0,0c-0.845,0.35-1.813-0.052-2.163-0.897L67.246,31.663z"/>
						</g>
						<g>
							<path fill="#FFFFFF" d="M91.227,81.976c0.311,0.86,1.26,1.305,2.118,0.993l0,0c0.862-0.311,1.308-1.259,0.996-2.118
								l-1.267-3.506c-0.311-0.86-1.26-1.307-2.12-0.995l0,0c-0.86,0.311-1.305,1.26-0.995,2.12L91.227,81.976z"/>
							<path fill="#FFFFFF" d="M108.85,56.363c0.909-0.099,1.568-0.915,1.469-1.824l0,0c-0.099-0.91-0.915-1.568-1.824-1.469
								l-3.705,0.399c-0.91,0.099-1.567,0.914-1.469,1.823l0,0c0.099,0.91,0.915,1.567,1.825,1.47L108.85,56.363z"/>
						</g>
					</g>
					<path fill="#FFFFFF" d="M49.62,114.343c-0.465,0.782-1.487,1.043-2.27,0.578l-2.426-1.44c-0.783-0.464-1.043-1.486-0.578-2.271
						l21.847-36.799c0.465-0.784,1.486-1.043,2.27-0.579l2.426,1.439c0.784,0.465,1.044,1.487,0.579,2.271L49.62,114.343z"/>
				</g>
			</g>
		</g>
	</g>
	<g>
	</g>
	<g>
	</g>
	<g>
	</g>
	<g>
	</g>
	<g>
	</g>
	<g>
	</g>
	<g>
	</g>
	<g>
	</g>
	<g>
	</g>
	<g>
	</g>
	<g>
	</g>
	<g>
	</g>
	<g>
	</g>
	<g>
	</g>
	<g>
	</g>
</g>
</svg>
