<?xml version="1.0" encoding="utf-8"?>
<!-- Generator: Adobe Illustrator 16.0.0, SVG Export Plug-In . SVG Version: 6.00 Build 0)  -->
<!DOCTYPE svg PUBLIC "-//W3C//DTD SVG 1.1//EN" "http://www.w3.org/Graphics/SVG/1.1/DTD/svg11.dtd">
<svg version="1.1" id="Capa_1" xmlns="http://www.w3.org/2000/svg" xmlns:xlink="http://www.w3.org/1999/xlink" x="0px" y="0px"
	 width="64.14px" height="68.945px" viewBox="0 0 64.14 68.945" enable-background="new 0 0 64.14 68.945" xml:space="preserve">
<g>
	<path fill="#99503D" d="M35.618,36.543l-2.247-0.397l0.396,2.248l-1.877,1.876l-2.247-0.396l0.37,2.274l-1.851,1.85l-2.273-0.37
		l0.396,2.247l-1.877,1.877l-2.247-0.397l0.37,2.273l-1.851,1.851l-2.273-0.37l0.397,2.247l-3.639,3.64l-2.802-2.802l-2.829-2.803
		l3.666-3.639l2.247,0.37l-0.37-2.247l1.851-1.877l2.273,0.396l-0.396-2.247l1.876-1.877l2.247,0.397l-0.396-2.273l1.877-1.851
		l2.247,0.37l-0.37-2.247l1.877-1.877l2.247,0.396l-0.396-2.273l2.644-2.643l2.802,2.828l2.802,2.802L35.618,36.543z"/>
	<path fill="#7C3D31" d="M35.459,31.098l2.802,2.802l-2.643,2.644l-2.247-0.397l0.396,2.248l-1.877,1.876l-2.247-0.396l0.37,2.274
		l-1.851,1.85l-2.273-0.37l0.396,2.247l-1.877,1.877l-2.247-0.397l0.37,2.273l-1.851,1.851l-2.273-0.37l0.397,2.247l-3.639,3.64
		l-2.802-2.802L35.459,31.098z"/>
	<path fill="#FFDA2D" d="M48.518,24.462l3.305-9.729l-9.728,3.305l-8.248-6.16l0.132,10.284l-8.407,5.948l9.834,3.04l3.041,9.834
		l5.947-8.406l10.284,0.132L48.518,24.462z"/>
	<path fill="#FDBF00" d="M54.678,32.71l-10.284-0.132l-5.947,8.406l-3.041-9.834l16.417-16.417l-3.305,9.729L54.678,32.71z"/>
	<g>
		<path fill="#C6715A" d="M35.618,36.543l-1.851,1.851l-5.604-5.604l1.851-1.877l2.802,2.829L35.618,36.543z"/>
		<path fill="#C6715A" d="M31.891,40.271l-1.877,1.877l-5.604-5.604l1.877-1.877l2.802,2.802L31.891,40.271z"/>
		<path fill="#C6715A" d="M28.163,43.998l-1.877,1.877l-5.605-5.604l1.851-1.876l2.829,2.802L28.163,43.998z"/>
		<path fill="#C6715A" d="M24.409,47.752l-1.877,1.876l-2.802-2.802l-2.802-2.829l1.877-1.85L24.409,47.752z"/>
		<path fill="#C6715A" d="M13.199,47.753l1.876-1.876l5.604,5.604l-1.877,1.876L13.199,47.753z"/>
	</g>
	<path fill="#FDBF00" d="M43.099,25.309l-1.85,1.877l-1.877-1.877l1.877-1.851L43.099,25.309z"/>
	<path fill="#76E2F8" d="M46.747,38.314h2.644v7.931h-2.644V38.314z"/>
	<path fill="#76E2F8" d="M44.104,40.958h7.931v2.644h-7.931V40.958z"/>
	<path fill="#9BFCFF" d="M17.668,19.81h2.644v7.93h-2.644V19.81z"/>
	<path fill="#9BFCFF" d="M15.025,22.453h7.93v2.644h-7.93V22.453z"/>
	<path fill="#76E2F8" d="M52.034,35.671h2.644v2.644h-2.644V35.671z"/>
	<path fill="#76E2F8" d="M44.104,51.532h2.644v2.644h-2.644V51.532z"/>
	<path fill="#9BFCFF" d="M12.381,14.522h2.644v2.644h-2.644V14.522z"/>
	<path fill="#FFB6FA" d="M26.921,19.81c-2.186,0-3.965-1.779-3.965-3.966s1.779-3.965,3.965-3.965c2.187,0,3.965,1.778,3.965,3.965
		S29.108,19.81,26.921,19.81z M26.921,14.522c-0.729,0-1.322,0.593-1.322,1.322c0,0.729,0.592,1.322,1.322,1.322
		s1.322-0.592,1.322-1.322C28.242,15.115,27.65,14.522,26.921,14.522z"/>
	<path fill="#FF9AC9" d="M37.495,51.532c-2.187,0-3.965-1.779-3.965-3.965c0-2.187,1.778-3.965,3.965-3.965s3.965,1.778,3.965,3.965
		C41.46,49.753,39.681,51.532,37.495,51.532z M37.495,46.245c-0.729,0-1.322,0.593-1.322,1.322c0,0.729,0.593,1.321,1.322,1.321
		c0.729,0,1.322-0.592,1.322-1.321C38.817,46.838,38.224,46.245,37.495,46.245z"/>
	<path fill="#B35F49" d="M18.804,53.356l-2.802-2.802l1.876-1.876l2.802,2.802L18.804,53.356z"/>
	<path fill="#B35F49" d="M22.532,49.629l-2.803-2.802l1.877-1.877l2.803,2.803L22.532,49.629z"/>
	<path fill="#B35F49" d="M26.286,45.875l-2.802-2.802l1.876-1.876l2.802,2.802L26.286,45.875z"/>
	<path fill="#B35F49" d="M30.013,42.148l-2.802-2.802l1.876-1.877l2.802,2.802L30.013,42.148z"/>
	<path fill="#B35F49" d="M33.768,38.395l-2.803-2.803l1.851-1.85l2.802,2.802L33.768,38.395z"/>
	<path fill="#FF9100" d="M43.099,25.309l-1.85,1.877l-0.925-0.925l1.851-1.877L43.099,25.309z"/>
</g>
</svg>
