<?xml version="1.0" encoding="utf-8"?>
<!-- Generator: Adobe Illustrator 16.0.0, SVG Export Plug-In . SVG Version: 6.00 Build 0)  -->
<!DOCTYPE svg PUBLIC "-//W3C//DTD SVG 1.1//EN" "http://www.w3.org/Graphics/SVG/1.1/DTD/svg11.dtd">
<svg version="1.1" id="Capa_1" xmlns="http://www.w3.org/2000/svg" xmlns:xlink="http://www.w3.org/1999/xlink" x="0px" y="0px"
	 width="64.14px" height="68.945px" viewBox="0 0 64.14 68.945" enable-background="new 0 0 64.14 68.945" xml:space="preserve">
<g>
	<path fill="#FF6536" d="M10.24,33.53c0,0,2.207,3.241,6.831,5.984c0,0-3.349-28.304,18.472-33.22
		C29.952,26.813,42.655,32.6,47.284,21.76c7.732,10.324,1.862,19.331,1.862,19.331c3.17,0.457,5.833-3.007,5.833-3.007
		c0.024,0.426,0.037,0.856,0.037,1.289c0,12.574-10.193,22.767-22.767,22.767S9.482,51.946,9.482,39.373
		C9.482,37.352,9.746,35.395,10.24,33.53z"/>
	<path fill="#FF421D" d="M54.98,38.083c0,0-2.663,3.464-5.833,3.007c0,0,5.871-9.007-1.862-19.331
		c-4.63,10.84-17.332,5.054-11.741-15.465c-1.168,0.263-2.265,0.594-3.293,0.984V62.14c12.574,0,22.768-10.193,22.768-22.767
		C55.017,38.939,55.004,38.51,54.98,38.083z"/>
	<path fill="#FBBF00" d="M22.265,52.154c0,5.515,4.47,9.985,9.985,9.985s9.985-4.47,9.985-9.985c0-2.951-1.281-5.604-3.316-7.432
		c-3.861,5.245-9.362-2.711-5.075-8.521C33.844,36.202,22.265,37.653,22.265,52.154z"/>
	<path fill="#FFA900" d="M42.235,52.154c0-2.951-1.281-5.604-3.316-7.432c-3.861,5.245-9.362-2.711-5.075-8.521
		c0,0-0.629,0.079-1.594,0.384V62.14C37.764,62.14,42.235,57.669,42.235,52.154z"/>
	<g>
	</g>
	<g>
	</g>
	<g>
	</g>
	<g>
	</g>
	<g>
	</g>
	<g>
	</g>
	<g>
	</g>
	<g>
	</g>
	<g>
	</g>
	<g>
	</g>
	<g>
	</g>
	<g>
	</g>
	<g>
	</g>
	<g>
	</g>
	<g>
	</g>
</g>
</svg>
