<?xml version="1.0" encoding="utf-8"?>
<!-- Generator: Adobe Illustrator 16.0.0, SVG Export Plug-In . SVG Version: 6.00 Build 0)  -->
<!DOCTYPE svg PUBLIC "-//W3C//DTD SVG 1.1//EN" "http://www.w3.org/Graphics/SVG/1.1/DTD/svg11.dtd">
<svg version="1.1" id="Layer_1" xmlns="http://www.w3.org/2000/svg" xmlns:xlink="http://www.w3.org/1999/xlink" x="0px" y="0px"
	 width="141.73px" height="141.73px" viewBox="0 0 141.73 141.73" enable-background="new 0 0 141.73 141.73" xml:space="preserve">
<circle fill="#EF8200" cx="70.865" cy="71" r="66"/>
<g>
	<g>
		<g>
			<path fill="#FFFFFF" d="M104.65,78.056c-1.049-13.654-7.406-22.21-13.015-29.76c-5.193-6.99-9.678-13.026-9.678-21.93
				c0-0.715-0.4-1.369-1.036-1.697c-0.637-0.33-1.402-0.275-1.981,0.145c-8.422,6.027-15.45,16.185-17.905,25.877
				c-1.704,6.748-1.929,14.334-1.961,19.343c-7.778-1.661-9.541-13.296-9.559-13.422c-0.087-0.604-0.456-1.128-0.992-1.416
				c-0.542-0.283-1.179-0.304-1.729-0.032c-0.408,0.197-10.012,5.077-10.571,24.561c-0.039,0.647-0.041,1.298-0.041,1.947
				c0,18.929,15.402,34.329,34.331,34.329c0.026,0.002,0.054,0.006,0.076,0c0.008,0,0.015,0,0.024,0
				c18.883-0.054,34.231-15.434,34.231-34.329C104.845,80.722,104.65,78.056,104.65,78.056z M70.514,112.188
				c-6.311,0-11.444-5.469-11.444-12.19c0-0.229-0.002-0.46,0.015-0.743c0.076-2.834,0.615-4.77,1.205-6.057
				c1.106,2.377,3.084,4.561,6.297,4.561c1.054,0,1.908-0.853,1.908-1.906c0-2.716,0.056-5.849,0.731-8.676
				c0.602-2.507,2.04-5.174,3.862-7.312c0.811,2.775,2.39,5.021,3.932,7.213c2.207,3.137,4.489,6.379,4.89,11.908
				c0.023,0.329,0.048,0.658,0.048,1.012C81.958,106.719,76.825,112.188,70.514,112.188z"/>
		</g>
	</g>
	<g>
	</g>
	<g>
	</g>
	<g>
	</g>
	<g>
	</g>
	<g>
	</g>
	<g>
	</g>
	<g>
	</g>
	<g>
	</g>
	<g>
	</g>
	<g>
	</g>
	<g>
	</g>
	<g>
	</g>
	<g>
	</g>
	<g>
	</g>
	<g>
	</g>
</g>
</svg>
