<?xml version="1.0" encoding="utf-8"?>
<!-- Generator: Adobe Illustrator 16.0.0, SVG Export Plug-In . SVG Version: 6.00 Build 0)  -->
<!DOCTYPE svg PUBLIC "-//W3C//DTD SVG 1.1//EN" "http://www.w3.org/Graphics/SVG/1.1/DTD/svg11.dtd">
<svg version="1.1" id="Layer_1" xmlns="http://www.w3.org/2000/svg" xmlns:xlink="http://www.w3.org/1999/xlink" x="0px" y="0px"
	 width="141.73px" height="141.73px" viewBox="0 0 141.73 141.73" enable-background="new 0 0 141.73 141.73" xml:space="preserve">
<circle fill="#7187DF" cx="70.865" cy="71" r="66"/>
<g>
	<g>
		<path fill="#FFFFFF" d="M32.365,112.01c0,0,24.624-78.717,75.887-75.489c0,0-6.356,10.295-22.403,13.624
			c0,0,7.47,0.911,13.524-1.109c0,0-3.633,11.711-23.412,13.322c0,0,10.9,2.827,15.744,1.21c0,0-1.314,8.729-21.452,13.067
			c-1.192,0.256-9.229,2.267-2.772,3.075c0,0,9.282,1.62,11.708,0.809c0,0-7.949,11.906-27.451,10.898c-1.917-0.101-2.829,0-2.829,0
			L32.365,112.01z"/>
	</g>
	<g>
	</g>
	<g>
	</g>
	<g>
	</g>
	<g>
	</g>
	<g>
	</g>
	<g>
	</g>
	<g>
	</g>
	<g>
	</g>
	<g>
	</g>
	<g>
	</g>
	<g>
	</g>
	<g>
	</g>
	<g>
	</g>
	<g>
	</g>
	<g>
	</g>
</g>
</svg>
