<?xml version="1.0" encoding="utf-8"?>
<!-- Generator: Adobe Illustrator 16.0.0, SVG Export Plug-In . SVG Version: 6.00 Build 0)  -->
<!DOCTYPE svg PUBLIC "-//W3C//DTD SVG 1.1//EN" "http://www.w3.org/Graphics/SVG/1.1/DTD/svg11.dtd">
<svg version="1.1" id="Capa_1" xmlns="http://www.w3.org/2000/svg" xmlns:xlink="http://www.w3.org/1999/xlink" x="0px" y="0px"
	 width="64.14px" height="68.945px" viewBox="0 0 64.14 68.945" enable-background="new 0 0 64.14 68.945" xml:space="preserve">
<g>
	<g>
		<path fill="#B5E5DC" d="M52.469,35.583l-9.211,2.467l-3.551-2.048v-3.844l3.51-2.016l9.252,2.479
			c0.186,0.049,0.373,0.074,0.559,0.074c0.95,0,1.819-0.634,2.077-1.596c0.308-1.149-0.374-2.329-1.522-2.637l-5.072-1.359
			l4.675-2.684c1.031-0.592,1.387-1.908,0.795-2.939c-0.594-1.031-1.907-1.388-2.938-0.794l-4.685,2.69l1.358-5.074
			c0.308-1.148-0.373-2.33-1.522-2.637c-1.142-0.299-2.327,0.375-2.635,1.522L41.09,26.4l-3.532,2.028l-3.348-1.936V22.43
			l6.771-6.771c0.84-0.84,0.84-2.203,0-3.044c-0.841-0.84-2.203-0.84-3.044,0l-3.727,3.727v-5.41c0-1.189-0.964-2.153-2.153-2.153
			c-1.188,0-2.152,0.963-2.152,2.153v5.383l-3.7-3.701c-0.841-0.84-2.203-0.84-3.044,0c-0.841,0.842-0.841,2.204,0,3.044
			l6.744,6.744v4.105l-3.323,1.917l-3.533-2.026l-2.467-9.21c-0.308-1.148-1.487-1.824-2.635-1.522
			c-1.148,0.308-1.831,1.489-1.523,2.637l1.359,5.073l-4.685-2.689c-1.033-0.594-2.348-0.237-2.938,0.795
			c-0.592,1.031-0.235,2.346,0.795,2.938l4.676,2.685l-5.072,1.359C9.41,28.771,8.728,29.951,9.036,31.1
			c0.258,0.962,1.127,1.596,2.078,1.596c0.185,0,0.372-0.025,0.558-0.075l9.253-2.479l3.506,2.013l0.004,3.848l-3.552,2.052
			l-9.211-2.471c-1.14-0.299-2.328,0.375-2.636,1.522c-0.308,1.148,0.375,2.329,1.523,2.636l5.054,1.354l-4.662,2.692
			c-1.029,0.594-1.382,1.91-0.787,2.939c0.398,0.692,1.122,1.076,1.865,1.076c0.365,0,0.735-0.091,1.075-0.29l4.686-2.704
			l-1.364,5.092c-0.308,1.15,0.375,2.328,1.523,2.637c0.186,0.05,0.373,0.074,0.558,0.074c0.95,0,1.819-0.636,2.077-1.598
			l2.479-9.25l3.526-2.034l3.317,1.913v4.158l-6.744,6.744c-0.841,0.841-0.841,2.203,0,3.044c0.42,0.42,0.97,0.628,1.521,0.628
			c0.55,0,1.102-0.208,1.522-0.628l3.7-3.7v5.382c0,1.19,0.964,2.152,2.152,2.152c1.189,0,2.153-0.962,2.153-2.152v-5.409
			l3.728,3.727c0.42,0.42,0.97,0.628,1.521,0.628s1.102-0.208,1.522-0.628c0.84-0.841,0.84-2.203,0-3.044l-6.771-6.771v-4.114
			l3.345-1.93l3.525,2.034l2.479,9.25c0.257,0.962,1.126,1.598,2.076,1.598c0.185,0,0.372-0.024,0.558-0.074
			c1.149-0.309,1.83-1.487,1.522-2.637l-1.365-5.093l4.688,2.704c0.339,0.199,0.709,0.289,1.074,0.289
			c0.743,0,1.466-0.384,1.865-1.076c0.595-1.03,0.243-2.345-0.787-2.94l-4.662-2.69l5.053-1.355c1.149-0.307,1.83-1.487,1.522-2.636
			C54.798,35.958,53.616,35.283,52.469,35.583z M35.402,36.002l-3.332,1.924l-3.329-1.924l-0.003-3.851l3.333-1.922l3.332,1.925
			V36.002z"/>
	</g>
	<g>
	</g>
	<g>
	</g>
	<g>
	</g>
	<g>
	</g>
	<g>
	</g>
	<g>
	</g>
	<g>
	</g>
	<g>
	</g>
	<g>
	</g>
	<g>
	</g>
	<g>
	</g>
	<g>
	</g>
	<g>
	</g>
	<g>
	</g>
	<g>
	</g>
</g>
</svg>
