<?xml version="1.0" encoding="utf-8"?>
<!-- Generator: Adobe Illustrator 16.0.0, SVG Export Plug-In . SVG Version: 6.00 Build 0)  -->
<!DOCTYPE svg PUBLIC "-//W3C//DTD SVG 1.1//EN" "http://www.w3.org/Graphics/SVG/1.1/DTD/svg11.dtd">
<svg version="1.1" id="Layer_1" xmlns="http://www.w3.org/2000/svg" xmlns:xlink="http://www.w3.org/1999/xlink" x="0px" y="0px"
	 width="141.73px" height="141.73px" viewBox="0 0 141.73 141.73" enable-background="new 0 0 141.73 141.73" xml:space="preserve">
<circle fill="#108E38" cx="70.865" cy="71" r="66"/>
<g>
	<g>
		<path fill="#FFFFFF" d="M99.05,83.431c-2.049-1.336-3.991-2.217-5.831-2.645c-1.838-0.428-3.775-0.577-5.803-0.448
			c-2.03,0.128-3.767,0.397-5.211,0.809c-1.446,0.409-2.876,0.931-4.295,1.566c-1.417,0.634-2.36,1.085-2.831,1.354
			s-0.828,0.489-1.071,0.662c2.655-3.898,4.929-8.078,6.817-12.538l0.77,0.345c0.514,0.229,1.229,0.483,2.149,0.766
			c0.919,0.28,1.981,0.563,3.185,0.848c1.203,0.285,2.506,0.453,3.904,0.501c1.396,0.048,2.826,0.004,4.288-0.134
			c1.46-0.136,2.926-0.532,4.398-1.188c1.474-0.653,2.855-1.508,4.143-2.561c1.287-1.053,2.491-2.505,3.608-4.357
			c1.119-1.85,2.021-3.998,2.698-6.446c-1.964-1.264-3.962-2.168-5.99-2.71c-2.029-0.542-3.855-0.756-5.478-0.644
			c-1.623,0.113-3.242,0.455-4.863,1.021c-1.617,0.568-2.959,1.164-4.022,1.785c-1.061,0.624-2.088,1.339-3.078,2.148
			c-0.992,0.809-1.644,1.366-1.954,1.675c-0.313,0.307-0.544,0.56-0.694,0.757c0.239-0.812,0.536-1.938,0.896-3.375
			c0.36-1.437,0.546-2.238,0.552-2.403l0.509-0.627c0.374-0.41,0.809-1.007,1.306-1.788c0.497-0.781,1.044-1.685,1.637-2.711
			c0.593-1.025,1.101-2.183,1.524-3.47c0.424-1.287,0.771-2.634,1.039-4.043c0.271-1.409,0.298-2.896,0.086-4.459
			c-0.213-1.563-0.634-3.096-1.265-4.596c-0.63-1.501-1.661-3.043-3.093-4.627c-1.435-1.585-3.203-3.06-5.311-4.428
			c-2.148,1.744-3.802,3.654-4.96,5.729c-1.159,2.076-1.851,4.033-2.077,5.873c-0.227,1.839-0.15,3.746,0.227,5.72
			c0.378,1.975,0.862,3.657,1.453,5.047c0.592,1.391,1.312,2.771,2.158,4.141c0.849,1.371,1.447,2.267,1.792,2.689
			c0.349,0.423,0.623,0.76,0.829,1.013c-0.577,2.306-1.539,5.337-2.886,9.093l0.002-0.804c-0.039-0.513-0.137-1.2-0.289-2.061
			c-0.154-0.86-0.366-1.853-0.638-2.979c-0.271-1.125-0.685-2.287-1.241-3.483c-0.555-1.196-1.198-2.381-1.928-3.555
			c-0.729-1.172-1.69-2.253-2.888-3.241c-1.195-0.987-2.528-1.825-4.001-2.513c-1.473-0.688-3.245-1.149-5.317-1.384
			c-2.073-0.234-4.325-0.186-6.757,0.145c-0.365,2.258-0.419,4.384-0.164,6.377c0.255,1.994,0.742,3.702,1.459,5.124
			c0.717,1.421,1.645,2.745,2.781,3.969c1.137,1.225,2.294,2.228,3.474,3.011c1.181,0.783,2.486,1.496,3.919,2.141
			c1.432,0.644,2.679,1.125,3.741,1.441c1.062,0.316,2.156,0.6,3.285,0.849c1.129,0.25,1.874,0.395,2.234,0.434
			c0.358,0.041,0.653,0.073,0.883,0.095c-2.089,4.846-4.488,9.13-7.199,12.846c-0.441-1.589-1.009-3.106-1.702-4.557
			c-0.695-1.447-1.787-3.014-3.278-4.697c-1.492-1.683-3.234-3.067-5.227-4.154c-1.994-1.087-4.607-1.868-7.845-2.345
			c-3.238-0.476-6.842-0.422-10.814,0.161c0.386,2.882,0.984,5.481,1.795,7.801c0.813,2.315,1.75,4.229,2.816,5.739
			c1.065,1.508,2.285,2.805,3.657,3.887c1.373,1.083,2.729,1.901,4.067,2.454c1.338,0.554,2.765,0.954,4.281,1.199
			c1.516,0.245,2.877,0.368,4.086,0.37c1.208,0.001,2.435-0.077,3.683-0.235c-4.709,5.129-9.846,8.784-15.41,10.962
			c-5.564,2.181-11.082,2.602-16.553,1.264c-0.6-0.15-1.155-0.08-1.664,0.213c-0.509,0.292-0.839,0.736-0.99,1.337
			c-0.15,0.6-0.071,1.156,0.236,1.669c0.307,0.514,0.761,0.847,1.361,0.997c6.576,1.614,13.172,1.046,19.786-1.711
			c6.615-2.755,12.609-7.285,17.982-13.59l0.688,0.675c0.426,0.443,1.063,0.979,1.911,1.611c0.849,0.634,1.838,1.343,2.966,2.128
			c1.129,0.787,2.405,1.476,3.836,2.068c1.428,0.595,2.918,1.11,4.47,1.55c1.552,0.438,3.211,0.613,4.98,0.519
			c1.769-0.094,3.516-0.438,5.24-1.027c1.726-0.591,3.514-1.628,5.362-3.112c1.849-1.482,3.595-3.359,5.239-5.632
			C102.953,86.531,101.099,84.767,99.05,83.431z"/>
	</g>
	<g>
	</g>
	<g>
	</g>
	<g>
	</g>
	<g>
	</g>
	<g>
	</g>
	<g>
	</g>
	<g>
	</g>
	<g>
	</g>
	<g>
	</g>
	<g>
	</g>
	<g>
	</g>
	<g>
	</g>
	<g>
	</g>
	<g>
	</g>
	<g>
	</g>
</g>
</svg>
