<?xml version="1.0" encoding="utf-8"?>
<!-- Generator: Adobe Illustrator 16.0.0, SVG Export Plug-In . SVG Version: 6.00 Build 0)  -->
<!DOCTYPE svg PUBLIC "-//W3C//DTD SVG 1.1//EN" "http://www.w3.org/Graphics/SVG/1.1/DTD/svg11.dtd">
<svg version="1.1" id="Layer_1" xmlns="http://www.w3.org/2000/svg" xmlns:xlink="http://www.w3.org/1999/xlink" x="0px" y="0px"
	 width="141.73px" height="141.73px" viewBox="0 0 141.73 141.73" enable-background="new 0 0 141.73 141.73" xml:space="preserve">
<circle fill="#6BD3F4" cx="70.865" cy="71" r="66"/>
<g>
	<g>
		<path fill="#FFFFFF" d="M98.109,72.98l-12.303,3.295l-4.742-2.736v-5.134l4.688-2.692l12.357,3.311
			c0.25,0.065,0.499,0.099,0.748,0.099c1.27,0,2.43-0.847,2.774-2.131c0.411-1.536-0.499-3.111-2.033-3.523l-6.775-1.814
			l6.245-3.585c1.377-0.791,1.853-2.549,1.062-3.925c-0.793-1.377-2.548-1.855-3.926-1.061l-6.256,3.592l1.812-6.778
			c0.412-1.532-0.498-3.111-2.032-3.521c-1.526-0.399-3.108,0.501-3.519,2.033l-3.299,12.306l-4.717,2.709l-4.473-2.586v-5.425
			l9.044-9.044c1.122-1.122,1.122-2.943,0-4.066c-1.123-1.122-2.942-1.122-4.065,0l-4.979,4.978v-7.225
			c0-1.588-1.288-2.876-2.875-2.876s-2.875,1.286-2.875,2.876v7.19l-4.942-4.944c-1.123-1.122-2.943-1.122-4.066,0
			c-1.123,1.125-1.123,2.944,0,4.066l9.008,9.008v5.482l-4.439,2.561l-4.719-2.705L55.519,48.41
			c-0.411-1.534-1.985-2.437-3.519-2.034c-1.534,0.413-2.446,1.989-2.035,3.523l1.815,6.775l-6.257-3.591
			c-1.38-0.794-3.137-0.317-3.925,1.062c-0.791,1.377-0.314,3.133,1.062,3.923l6.246,3.587l-6.774,1.814
			c-1.535,0.411-2.446,1.986-2.035,3.521c0.344,1.285,1.505,2.131,2.775,2.131c0.247,0,0.497-0.034,0.745-0.1l12.359-3.311
			l4.684,2.688l0.005,5.14l-4.745,2.742L43.618,72.98c-1.522-0.398-3.11,0.502-3.521,2.034c-0.411,1.532,0.501,3.11,2.035,3.521
			l6.75,1.809l-6.227,3.596c-1.375,0.793-1.846,2.551-1.051,3.926c0.532,0.924,1.499,1.438,2.492,1.438
			c0.488,0,0.982-0.122,1.436-0.388l6.258-3.611l-1.822,6.801c-0.411,1.535,0.501,3.109,2.035,3.521
			c0.248,0.067,0.499,0.1,0.745,0.1c1.269,0,2.43-0.85,2.774-2.134l3.312-12.355l4.709-2.717l4.431,2.555v5.554l-9.008,9.008
			c-1.123,1.123-1.123,2.942,0,4.065c0.561,0.561,1.295,0.839,2.032,0.839c0.734,0,1.471-0.278,2.032-0.839l4.942-4.94v7.188
			c0,1.589,1.287,2.874,2.875,2.874s2.875-1.285,2.875-2.874v-7.225l4.979,4.978c0.562,0.561,1.296,0.839,2.031,0.839
			s1.473-0.278,2.033-0.839c1.122-1.123,1.122-2.942,0-4.065l-9.044-9.043v-5.495l4.469-2.578l4.707,2.717l3.312,12.355
			c0.342,1.284,1.504,2.134,2.771,2.134c0.248,0,0.496-0.032,0.746-0.1c1.533-0.412,2.443-1.986,2.031-3.521l-1.822-6.802
			l6.262,3.611c0.453,0.265,0.947,0.385,1.435,0.385c0.993,0,1.958-0.513,2.491-1.437c0.795-1.376,0.325-3.133-1.051-3.927
			l-6.227-3.592l6.748-1.811c1.535-0.41,2.444-1.987,2.033-3.521C101.22,73.48,99.642,72.58,98.109,72.98z M75.314,73.539
			l-4.45,2.57l-4.447-2.57l-0.004-5.143l4.452-2.567l4.451,2.571v5.139H75.314z"/>
	</g>
</g>
</svg>
