<?xml version="1.0" encoding="utf-8"?>
<!-- Generator: Adobe Illustrator 16.0.0, SVG Export Plug-In . SVG Version: 6.00 Build 0)  -->
<!DOCTYPE svg PUBLIC "-//W3C//DTD SVG 1.1//EN" "http://www.w3.org/Graphics/SVG/1.1/DTD/svg11.dtd">
<svg version="1.1" id="Capa_1" xmlns="http://www.w3.org/2000/svg" xmlns:xlink="http://www.w3.org/1999/xlink" x="0px" y="0px"
	 width="64.14px" height="68.945px" viewBox="0 0 64.14 68.945" enable-background="new 0 0 64.14 68.945" xml:space="preserve">
<g>
	<g id="_x30_11---Wasp" transform="translate(-1 -1)">
		<path id="Shape" fill="#90BAE1" d="M52.439,38.804c-1.282,1.778-3.407,2.749-5.59,2.555c-2.184-0.195-4.103-1.526-5.05-3.503
			c-1-2.363-1.639-4.863-1.896-7.416l0.588-3.016c0.762,0.095,1.533,0.095,2.295,0l3.215,2.58
			C49.081,31.891,54.601,35.959,52.439,38.804z"/>
		<path id="Shape_1_" fill="#4482C3" d="M52.439,35.75c-0.381-0.691-0.854-1.33-1.404-1.896l-5.889-0.635l-3.566-4.523
			c-0.217-0.263-0.557-0.39-0.893-0.333c-0.336,0.057-0.616,0.288-0.735,0.607c-0.119,0.319-0.059,0.677,0.158,0.94l3.651,4.514
			c0,0.332,0,1.167,0.076,5.823c0.557,0.402,1.179,0.704,1.84,0.891c0.095-0.209,0.066,0,0-4.268
			c0.569,0.711,1.499,1.897,3.385,4.249c0.623-0.182,1.214-0.457,1.754-0.816c0-0.076-0.114-0.057-4.021-4.969
			C52.439,35.959,52.088,35.959,52.439,35.75L52.439,35.75z"/>
		<path id="Shape_2_" fill="#B0D3F0" d="M56.829,28.572c-4.277,3.433-10.432,2.114-15.297-0.342c0-1.896,0-1.205,0-3.12
			c3.86-3.376,10.005-6.221,17.118-7.056c0.857-0.078,1.66,0.433,1.953,1.242C61.855,22.768,59.665,26.295,56.829,28.572
			L56.829,28.572z"/>
		<path id="Shape_3_" fill="#4482C3" d="M60.973,20.918c-0.777,0-2.21,1.451-10.583,3.632c0.929-1.492,1.71-3.07,2.333-4.713
			c0.073-0.205,0.073-0.43,0-0.635c-0.654,0.18-1.451,0.446-2.114,0.692c-0.785,1.917-1.839,3.711-3.13,5.33
			c-3.461,0.796-5.993,1.233-5.993,1.366c-0.38,0.242-0.538,0.718-0.376,1.138c0.161,0.421,0.596,0.671,1.04,0.597
			c0.332,0,5.301-1.109,8.222-1.896c1.929,0.744,3.794,1.645,5.576,2.693c0.561-0.358,1.088-0.769,1.575-1.223
			c-1.321-0.844-2.703-1.589-4.135-2.229c2.539-0.711,5.023-1.602,7.436-2.665C60.983,22.321,61.033,21.617,60.973,20.918z"/>
		<path id="Shape_4_" fill="#3F5C6C" d="M31.509,16.385c-0.461,0.009-0.861-0.316-0.949-0.768c-0.398-2.144-4.391-3.187-5.756-3.367
			c-0.252-0.033-0.481-0.166-0.635-0.369c-0.153-0.204-0.219-0.46-0.181-0.712c0.033-0.252,0.166-0.481,0.369-0.634
			c0.203-0.153,0.46-0.219,0.712-0.181c0.266,0,6.638,0.949,7.368,4.894c0.057,0.279-0.014,0.569-0.194,0.79
			C32.063,16.258,31.793,16.385,31.509,16.385L31.509,16.385z"/>
		<path id="Shape_5_" fill="#3F5C6C" d="M35.435,16.385c-0.286,0.005-0.559-0.119-0.743-0.338c-0.184-0.219-0.26-0.51-0.205-0.791
			c0.787-3.907,7.122-4.856,7.388-4.903c0.338-0.047,0.677,0.09,0.887,0.359c0.211,0.27,0.261,0.631,0.133,0.948
			c-0.128,0.317-0.416,0.542-0.755,0.589c-1.46,0.209-5.349,1.233-5.775,3.376C36.274,16.068,35.885,16.386,35.435,16.385z"/>
		<path id="Shape_6_" fill="#35495E" d="M39.892,43.981c0.063-0.205,0.114-0.414,0.151-0.625c0.109-1.655,0.109-3.315,0-4.969
			c0.57-0.285,1.076-0.682,1.489-1.167c-0.398-0.964-0.715-1.96-0.948-2.978c-0.521-1.021-1.207-1.951-2.029-2.75
			c0.888-0.589,1.67-1.323,2.314-2.172c0.948-1.251,1.659-3.054,0.636-4.21c-0.409-0.419-0.918-0.726-1.479-0.892
			c0.464-1.545-0.901-2.845-2.381-3.537c1.679-2.409-0.483-5.586-4.172-5.586s-5.842,3.187-4.173,5.586
			c-1.479,0.683-2.845,1.992-2.38,3.537c-0.561,0.166-1.07,0.472-1.479,0.892c-1.024,1.157-0.285,2.959,0.636,4.21
			c0.638,0.847,1.414,1.582,2.294,2.172c-0.681,0.646-1.266,1.387-1.735,2.2c0,0-0.293,0.521-0.293,0.55
			c-0.231,1.018-0.548,2.014-0.949,2.978c0.413,0.485,0.919,0.882,1.489,1.167c-0.142,1.646-0.161,3.301-0.057,4.95
			c0.037,0.211,0.088,0.421,0.152,0.626c-0.938-0.441-1.666-1.23-2.029-2.2c0.398,3.613,2.2,7.586,4.675,9.673v0.626
			c0,3.669,1.697,6.638,3.793,6.638c2.096,0,3.793-2.968,3.793-6.638c0-0.209,0-0.418,0-0.626c2.475-2.115,4.277-6.06,4.675-9.673
			C41.532,42.733,40.819,43.529,39.892,43.981L39.892,43.981z M39.702,44.086c0.054-0.021,0.105-0.05,0.152-0.085
			C39.806,44.034,39.756,44.062,39.702,44.086z"/>
		<path id="Shape_7_" fill="#35495E" d="M26.919,38.387c-0.066,0.74-0.104,1.489-0.114,2.257
			C26.795,39.89,26.833,39.136,26.919,38.387z"/>
		<path id="Shape_8_" fill="#90BAE1" d="M27.013,30.392c-0.26,2.553-0.899,5.052-1.896,7.416c-0.946,1.966-2.853,3.292-5.025,3.496
			s-4.292-0.745-5.587-2.5c-2.163-2.892,3.348-6.913,6.439-8.8c0.18-0.18-0.749,0.834,3.214-3.528l2.295,0.151L27.013,30.392z"/>
		<path id="Shape_9_" fill="#4482C3" d="M26.663,28.581c-0.409-0.323-1.002-0.255-1.328,0.151l-3.566,4.524L15.89,33.9
			c-0.346,0.324-0.663,0.676-0.949,1.053c-0.184,0.254-0.352,0.521-0.502,0.796c0.389,0.247,0.18,0.199,5.643-0.417
			c-3.983,5.007-3.983,4.893-4.021,4.969c0.542,0.357,1.133,0.632,1.754,0.816l3.423-4.211c-0.057,4.154-0.085,4.002,0,4.239
			c0.667-0.177,1.295-0.479,1.85-0.892c0.057-4.391,0.076-5.434,0.076-5.756l3.67-4.59C27.152,29.494,27.075,28.9,26.663,28.581
			L26.663,28.581z"/>
		<path id="Shape_10_" fill="#F0C419" d="M41.921,41.782c-0.531,4.77-3.897,11.247-8.449,11.247c-4.552,0-7.919-6.449-8.45-11.247
			c0.598,2.077,4.154,3.661,8.45,3.661S41.324,43.858,41.921,41.782z"/>
		<path id="Shape_11_" fill="#F29C1F" d="M33.472,62.512c-0.524,0-0.948-0.425-0.948-0.948v-2.845c0-0.523,0.424-0.948,0.948-0.948
			c0.523,0,0.948,0.425,0.948,0.948v2.845C34.42,62.087,33.995,62.512,33.472,62.512z"/>
		<path id="Shape_12_" fill="#F0C419" d="M41.514,37.22c-2.656,3.367-13.429,3.367-16.122,0c0.379-0.981,0.696-1.985,0.949-3.006
			c0.52-1.012,1.202-1.931,2.02-2.722c3.054,2.173,7.149,2.173,10.204,0c0.816,0.792,1.498,1.711,2.02,2.722
			C40.833,35.234,41.143,36.238,41.514,37.22L41.514,37.22z"/>
		<path id="Shape_13_" fill="#35495E" d="M37.265,52.081c0,3.67-1.697,6.638-3.793,6.638c-2.096,0-3.793-2.968-3.793-6.638
			c0-0.209,0-0.417,0-0.626c1,1.017,2.367,1.59,3.793,1.59c1.426,0,2.793-0.573,3.793-1.59V52.081z"/>
		<path id="Shape_14_" fill="#F3D55B" d="M36.412,51.455c-5.226,5.813-10.527-5.747-9.417-13.599
			c0.414-1.174,0.73-2.379,0.949-3.604c0.382-0.982,0.913-1.9,1.574-2.722c2.208,2.144,5.72,2.144,7.928,0
			c0.661,0.821,1.192,1.739,1.574,2.722c0.217,1.222,0.535,2.424,0.949,3.594C40.584,43.887,38.536,49.112,36.412,51.455z"/>
		<path id="Shape_15_" fill="#B0D3F0" d="M25.439,25.11v3.12c-4.922,2.465-11.038,3.793-15.297,0.342
			c-2.845-2.286-5.026-5.813-3.793-9.275c0.294-0.81,1.096-1.32,1.953-1.242C15.378,18.889,21.579,21.733,25.439,25.11z"/>
		<path id="Shape_16_" fill="#4482C3" d="M25.43,26.617c0-0.132-1.583-0.293-5.984-1.355c-1.303-1.616-2.36-3.415-3.14-5.339
			c-0.663-0.237-1.46-0.512-2.115-0.692c-0.073,0.206-0.073,0.43,0,0.635c0.648,1.614,1.428,3.172,2.333,4.657
			c-8.535-2.276-9.854-3.604-10.564-3.604c-0.049,0.7,0.012,1.404,0.18,2.086c2.416,1.055,4.899,1.945,7.435,2.665
			c-1.458,0.657-2.865,1.421-4.21,2.285c0.485,0.458,1.012,0.867,1.574,1.224c1.79-1.056,3.664-1.96,5.605-2.703
			c4.362,1.157,8.08,1.896,8.393,1.896c0.423-0.002,0.792-0.284,0.907-0.691C25.958,27.273,25.789,26.84,25.43,26.617L25.43,26.617z
			"/>
		<path id="Shape_17_" fill="#F3D55B" d="M40.025,24.218c-2.147-0.498-4.353-0.695-6.553-0.588
			c-2.201-0.102-4.405,0.096-6.553,0.588c-0.464-1.545,0.901-2.845,2.38-3.537C34.041,18.509,41.058,20.842,40.025,24.218z"/>
		<path id="Shape_18_" fill="#2C3E50" d="M41.505,25.11c-1.395-1.556-5.757-1.479-8.033-1.479c-3.955,0-9.483-0.067-8.402,3.793
			c0.948,2.987,4.609,5.69,8.402,5.69C39.162,33.114,43.477,27.338,41.505,25.11z"/>
		<path id="Shape_19_" fill="#35495E" d="M33.472,23.63c-2.893,0-6.638,0-6.638,2.845c0,2.845,3.158,6.638,6.638,6.638
			s6.638-3.793,6.638-6.638C40.11,23.63,36.317,23.63,33.472,23.63z"/>
		<path id="Shape_20_" fill="#3F5C6C" d="M41.798,37.855c0-0.047-0.104-0.17-0.284-0.617c-0.422,0.496-0.942,0.899-1.527,1.186
			c0.197,1.855,0.165,3.728-0.095,5.576c0.937-0.441,1.665-1.23,2.029-2.2C42.069,40.486,42.028,39.158,41.798,37.855z"/>
		<path id="Shape_21_" fill="#3F5C6C" d="M39.987,38.406c-4.296,2.295-12.423,1.536-14.557-1.186
			c-0.18,0.446-0.285,0.57-0.285,0.616c-0.229,1.303-0.271,2.631-0.123,3.946c1.005,3.584,10.081,4.959,14.87,2.2
			C40.152,42.134,40.184,40.261,39.987,38.406z"/>
		<path id="Shape_22_" fill="#35495E" d="M27.052,43.981c-0.938-0.441-1.666-1.23-2.029-2.2c-0.146-1.308-0.104-2.63,0.123-3.926
			c0-0.047,0.104-0.17,0.285-0.617c0.422,0.496,0.942,0.899,1.527,1.186C26.761,40.274,26.793,42.141,27.052,43.981z"/>
		<path id="Shape_23_" fill="#35495E" d="M41.921,41.782c-0.364,0.97-1.092,1.759-2.029,2.2c0.26-1.848,0.292-3.72,0.095-5.576
			c0.585-0.287,1.104-0.69,1.527-1.186c0.18,0.446,0.284,0.57,0.284,0.616C42.028,39.139,42.069,40.467,41.921,41.782z"/>
		<path id="Shape_24_" fill="#3F5C6C" d="M39.892,43.981c-3.386,1.954-9.483,1.897-12.841,0c-0.26-1.848-0.292-3.72-0.095-5.576
			c3.452,1.82,9.673,1.773,13.03,0C40.184,40.261,40.152,42.134,39.892,43.981z"/>
	</g>
</g>
</svg>
