<?xml version="1.0"?>
<svg xmlns="http://www.w3.org/2000/svg" height="512px" viewBox="0 0 464 464" width="512px"><path d="m210.664062 464c7.363282-.007812 13.328126-5.972656 13.335938-13.335938v-277.328124c-.007812-7.363282-5.972656-13.328126-13.335938-13.335938h-26.664062c-22.082031.027344-39.972656 17.917969-40 40v197.335938c.039062 36.800781 29.863281 66.625 66.664062 66.664062zm0 0" fill="#FFFFFF"/><path d="m266.351562 118.671875c-.667968-3.832031-3.980468-6.640625-7.871093-6.671875h-52.960938c-3.894531.03125-7.207031 2.84375-7.871093 6.679688l-4.207032 25.320312h77.117188zm0 0" fill="#FFFFFF"/><path d="m253.335938 464c36.800781-.039062 66.625-29.863281 66.664062-66.664062v-197.335938c-.027344-22.082031-17.917969-39.972656-40-40h-26.664062c-7.363282.007812-13.328126 5.972656-13.335938 13.335938v277.328124c.007812 7.363282 5.972656 13.328126 13.335938 13.335938zm0 0" fill="#FFFFFF"/><path d="m344 0c-49.601562.199219-94.027344 30.730469-112 76.960938-20.757812-53.964844-77.042969-85.453126-133.886719-74.90625-56.847656 10.546874-98.0937498 60.128906-98.113281 117.945312h16c.023438-52.773438 39.550781-97.171875 91.964844-103.300781 52.417968-6.128907 101.121094 27.957031 113.316406 79.300781h21.4375c12.195312-51.34375 60.898438-85.429688 113.316406-79.300781 52.414063 6.128906 91.941406 50.527343 91.964844 103.300781h16c-.078125-66.242188-53.757812-119.921875-120-120zm0 0" fill="#FFFFFF"/><path d="m429.679688 226.320312-11.359376 11.359376-57.359374-57.359376-24.960938 25.039063v-5.359375c.015625-5.171875-.710938-10.316406-2.160156-15.28125l21.441406-21.4375c3.152344-3.09375 8.203125-3.09375 11.359375 0zm0 0" fill="#FFFFFF"/><path d="m429.679688 306.320312-11.359376 11.359376-57.359374-57.359376-24.960938 25.039063v-22.71875l19.28125-19.359375c3.152344-3.09375 8.203125-3.09375 11.359375 0zm0 0" fill="#FFFFFF"/><path d="m429.679688 386.320312-11.359376 11.359376-57.359374-57.359376-24.960938 25.039063v-22.71875l19.28125-19.359375c3.152344-3.09375 8.203125-3.09375 11.359375 0zm0 0" fill="#FFFFFF"/><path d="m130.558594 183.199219c-1.710938 5.4375-2.574219 11.101562-2.558594 16.800781v3.359375l-23.039062-23.039063-57.921876 58-11.359374-11.359374 63.601562-63.679688c3.152344-3.09375 8.203125-3.09375 11.359375 0zm0 0" fill="#FFFFFF"/><path d="m128 260.640625v22.71875l-23.039062-23.039063-57.921876 58-11.359374-11.359374 63.601562-63.679688c3.152344-3.09375 8.203125-3.09375 11.359375 0zm0 0" fill="#FFFFFF"/><path d="m128 340.640625v22.71875l-23.039062-23.039063-57.921876 58-11.359374-11.359374 63.601562-63.679688c3.152344-3.09375 8.203125-3.09375 11.359375 0zm0 0" fill="#FFFFFF"/></svg>
