<?xml version="1.0" encoding="utf-8"?>
<!-- Generator: Adobe Illustrator 16.0.0, SVG Export Plug-In . SVG Version: 6.00 Build 0)  -->
<!DOCTYPE svg PUBLIC "-//W3C//DTD SVG 1.1//EN" "http://www.w3.org/Graphics/SVG/1.1/DTD/svg11.dtd">
<svg version="1.1" id="Capa_1" xmlns="http://www.w3.org/2000/svg" xmlns:xlink="http://www.w3.org/1999/xlink" x="0px" y="0px"
	 width="64.141px" height="68.945px" viewBox="0 0 64.141 68.945" enable-background="new 0 0 64.141 68.945" xml:space="preserve">
<g>
	<path fill="#ED5564" d="M54.861,25.22c-1.246-2.945-3.028-5.593-5.299-7.862c-2.272-2.271-4.918-4.054-7.862-5.299
		c-3.05-1.291-6.29-1.945-9.629-1.945s-6.578,0.655-9.629,1.945c-2.945,1.246-5.591,3.029-7.862,5.299
		c-2.271,2.269-4.055,4.918-5.3,7.862c-1.291,3.05-1.944,6.29-1.944,9.629c0,3.339,0.655,6.58,1.944,9.629
		c1.245,2.945,3.028,5.593,5.3,7.863c2.271,2.271,4.917,4.054,7.863,5.299c3.05,1.29,6.289,1.945,9.628,1.945
		s6.58-0.655,9.629-1.945c2.944-1.245,5.591-3.027,7.862-5.299c2.272-2.271,4.053-4.919,5.299-7.863
		c1.289-3.049,1.945-6.289,1.945-9.629S56.15,28.269,54.861,25.22z"/>
	<path fill="#E6E9ED" d="M7.343,35.544c0.085,3.094,0.734,6.097,1.937,8.935c1.245,2.945,3.028,5.593,5.3,7.863
		c2.271,2.271,4.917,4.054,7.863,5.299c3.05,1.29,6.289,1.945,9.628,1.945s6.58-0.655,9.629-1.945
		c2.944-1.245,5.591-3.027,7.862-5.299c2.272-2.271,4.053-4.919,5.299-7.863c1.203-2.838,1.852-5.841,1.936-8.935H7.343z"/>
	<path fill="#434A54" d="M56.688,37.287c0.08-0.808,0.119-1.618,0.119-2.438c0-0.92-0.05-1.831-0.148-2.733
		c-1.229,0.188-2.995,0.435-5.218,0.681c-4.221,0.466-11.007,1.021-19.37,1.021s-15.149-0.556-19.37-1.021
		c-2.225-0.246-3.988-0.493-5.218-0.681c-0.099,0.902-0.149,1.813-0.149,2.733c0,0.819,0.04,1.63,0.119,2.438
		c4.012,0.604,12.854,1.686,24.619,1.686S52.677,37.89,56.688,37.287z"/>
	<path fill="#E6E9ED" d="M37.225,35.878c0,2.848-2.31,5.155-5.155,5.155s-5.154-2.308-5.154-5.155c0-2.846,2.309-5.152,5.154-5.152
		S37.225,33.033,37.225,35.878z"/>
	<path fill="#434A54" d="M32.07,26.603c-5.115,0-9.276,4.161-9.276,9.274c0,5.115,4.162,9.276,9.276,9.276
		c5.113,0,9.276-4.16,9.276-9.276C41.346,30.763,37.185,26.603,32.07,26.603z M32.07,40.003c-2.274,0-4.123-1.852-4.123-4.125
		c0-2.271,1.849-4.122,4.123-4.122s4.121,1.85,4.121,4.122C36.191,38.152,34.344,40.003,32.07,40.003z"/>
	<path opacity="0.2" fill="#FFFFFF" enable-background="new    " d="M54.861,25.22c-1.246-2.945-3.028-5.593-5.299-7.862
		c-2.272-2.271-4.918-4.054-7.862-5.299c-3.05-1.291-6.29-1.945-9.629-1.945c-0.345,0-0.688,0.007-1.031,0.021
		c2.975,0.122,5.862,0.768,8.598,1.924c2.946,1.246,5.593,3.029,7.862,5.299c2.271,2.271,4.056,4.918,5.301,7.862
		c1.291,3.05,1.942,6.29,1.942,9.629c0,3.339-0.651,6.58-1.942,9.629c-1.245,2.945-3.03,5.593-5.301,7.863
		c-2.27,2.271-4.916,4.054-7.862,5.299c-2.736,1.156-5.622,1.802-8.598,1.925c0.342,0.012,0.686,0.021,1.031,0.021
		c3.339,0,6.58-0.655,9.629-1.944c2.944-1.245,5.591-3.028,7.862-5.299c2.272-2.271,4.053-4.918,5.299-7.863
		c1.289-3.049,1.945-6.288,1.945-9.628C56.806,31.51,56.15,28.269,54.861,25.22z"/>
	<path opacity="0.1" enable-background="new    " d="M9.278,44.477c1.246,2.945,3.029,5.592,5.3,7.861
		c2.272,2.272,4.917,4.055,7.863,5.301c3.05,1.29,6.29,1.945,9.628,1.945c0.345,0,0.688-0.008,1.03-0.021
		c-2.975-0.122-5.862-0.769-8.598-1.924c-2.946-1.246-5.592-3.028-7.861-5.301c-2.271-2.27-4.055-4.917-5.301-7.861
		c-1.291-3.049-1.943-6.289-1.943-9.629s0.654-6.58,1.943-9.629c1.245-2.945,3.03-5.593,5.301-7.862
		c2.271-2.271,4.915-4.055,7.861-5.3c2.735-1.157,5.623-1.802,8.598-1.924c-0.342-0.013-0.686-0.021-1.03-0.021
		c-3.339,0-6.578,0.655-9.629,1.945c-2.945,1.246-5.592,3.029-7.862,5.3c-2.271,2.27-4.055,4.917-5.3,7.862
		c-1.291,3.05-1.944,6.29-1.944,9.629S7.989,41.429,9.278,44.477z"/>
</g>
</svg>
