<?xml version="1.0" encoding="utf-8"?>
<!-- Generator: Adobe Illustrator 16.0.0, SVG Export Plug-In . SVG Version: 6.00 Build 0)  -->
<!DOCTYPE svg PUBLIC "-//W3C//DTD SVG 1.1//EN" "http://www.w3.org/Graphics/SVG/1.1/DTD/svg11.dtd">
<svg version="1.1" id="Capa_1" xmlns="http://www.w3.org/2000/svg" xmlns:xlink="http://www.w3.org/1999/xlink" x="0px" y="0px"
	 width="64.14px" height="68.945px" viewBox="0 0 64.14 68.945" enable-background="new 0 0 64.14 68.945" xml:space="preserve">
<g>
	<path fill="#3D7606" d="M60.12,32.687l-7.89-2.761c-3.148-1.103-6.609-0.881-9.592,0.612s-5.234,4.131-6.238,7.312l-2.064,6.537
		l-2.033,1.524V32.259c-0.002-1.82,0.908-3.52,2.423-4.527l-1.053-1.579c-2.043,1.36-3.27,3.651-3.267,6.105v1.879l-1.227-1.227
		l-1.341,1.341l2.568,2.567v20.834l-1.897-0.948v-1.952c0-4.771-2.293-9.251-6.164-12.041c-3.872-2.789-8.847-3.548-13.373-2.039
		l-4.473,1.491c-0.39,0.128-0.652,0.491-0.652,0.901s0.263,0.773,0.652,0.901l1.016,0.338c4.868,1.618,9.411,4.089,13.416,7.295
		l8.038,6.43c0.054,0.038,0.113,0.069,0.175,0.095l-0.006,0.012l3.27,1.636v2.259h1.896V48.283l3.414-2.562l-0.01-0.013
		c0.039-0.023,0.076-0.048,0.112-0.075c6.006-5.986,13.828-9.812,22.24-10.877l1.866-0.233c0.437-0.055,0.778-0.403,0.825-0.841
		C60.797,33.244,60.536,32.832,60.12,32.687z"/>
	<path fill="#5FA819" d="M40.335,13.161L39.89,6.019c-0.028-0.45-0.368-0.817-0.814-0.881c-0.444-0.059-0.871,0.199-1.024,0.621
		l-3.068,8.585c-1.147,3.207-1.733,6.588-1.733,9.994v2.606c0,0.383,0.232,0.729,0.586,0.875c0.354,0.146,0.762,0.065,1.034-0.206
		C38.68,23.802,40.671,18.54,40.335,13.161z"/>
	<path fill="#5FA819" d="M18.013,17.701l-6.275-2.086c-0.325-0.108-0.682-0.034-0.937,0.195c-0.254,0.229-0.365,0.578-0.291,0.911
		l1.043,4.706c1.67,7.679,8.485,13.142,16.343,13.104h0.611c0.524,0,0.949-0.425,0.949-0.949
		C29.464,26.375,24.851,19.976,18.013,17.701z"/>
	<g>
		<path fill="#589C17" d="M22.677,30.357c-3.634-2.237-6.614-5.394-8.638-9.15l-2.991-5.557c-0.414,0.178-0.64,0.627-0.537,1.066
			l1.043,4.706c1.669,7.681,8.484,13.146,16.343,13.108h0.611c0.216-0.003,0.423-0.082,0.588-0.222L22.677,30.357z"/>
		<path fill="#589C17" d="M42.942,37.091c-1.999,1.427-3.578,3.362-4.575,5.606l-0.439,0.986c5.694-4.88,12.692-7.985,20.131-8.93
			l1.807-0.224h-8.928C48.071,34.529,45.276,35.425,42.942,37.091z"/>
		<path fill="#589C17" d="M28.058,58.601l-0.019-0.104C26.153,48.122,16.711,40.864,6.2,41.709l-0.441,0.036l-1.259,0.42
			c-0.39,0.128-0.652,0.491-0.652,0.901s0.263,0.773,0.652,0.901l1.016,0.339c4.868,1.619,9.411,4.089,13.416,7.296l8.038,6.43
			c0.054,0.038,0.113,0.069,0.175,0.095l-0.006,0.012L28.058,58.601z"/>
	</g>
</g>
</svg>
