<?xml version="1.0" encoding="utf-8"?>
<!-- Generator: Adobe Illustrator 16.0.0, SVG Export Plug-In . SVG Version: 6.00 Build 0)  -->
<!DOCTYPE svg PUBLIC "-//W3C//DTD SVG 1.1//EN" "http://www.w3.org/Graphics/SVG/1.1/DTD/svg11.dtd">
<svg version="1.1" id="Layer_1" xmlns="http://www.w3.org/2000/svg" xmlns:xlink="http://www.w3.org/1999/xlink" x="0px" y="0px"
	 width="141.73px" height="141.73px" viewBox="0 0 141.73 141.73" enable-background="new 0 0 141.73 141.73" xml:space="preserve">
<circle fill="#91308C" cx="70.865" cy="71" r="66"/>
<g>
	<g>
		<g>
			<path fill="#FFFFFF" d="M98.475,96.575c-1.508,0-3.266,0.728-5.274,2.177L82.062,94.65l11.305-4.106
				c1.897,1.231,3.655,1.847,5.276,1.847c1.783,0,2.957-0.924,3.517-2.763c0.111-0.392,0.166-0.813,0.166-1.26
				c0-2.341-1.508-3.6-4.521-3.765c1.227-1.229,1.844-2.433,1.844-3.604c0-1.224-0.646-2.262-1.927-3.099
				c-0.672-0.333-1.368-0.502-2.094-0.502c-2.457,0-4.133,1.979-5.024,5.945L71.01,90.633l-19.593-7.116
				c-0.893-4.077-2.569-6.116-5.024-6.116c-0.727,0-1.425,0.169-2.095,0.502c-1.227,0.837-1.841,1.875-1.841,3.099
				c0,1.172,0.615,2.375,1.841,3.604c-3.068,0.165-4.604,1.424-4.604,3.766c0,0.444,0.056,0.867,0.167,1.259
				c0.615,1.839,1.787,2.763,3.518,2.763c1.617,0,3.375-0.614,5.275-1.847l11.387,4.106l-11.222,4.016
				c-1.954-1.394-3.682-2.091-5.189-2.091c-1.789,0-3.044,0.924-3.77,2.764c-0.11,0.39-0.167,0.807-0.167,1.257
				c0,2.343,1.535,3.602,4.604,3.767c-1.227,1.229-1.841,2.433-1.841,3.604c0,1.225,0.615,2.257,1.841,3.101
				c0.783,0.445,1.535,0.665,2.263,0.665c2.286,0,3.936-1.953,4.94-5.859l19.509-7.119l19.512,7.119
				c1.005,3.906,2.68,5.859,5.022,5.859c0.671,0,1.396-0.22,2.179-0.665c1.281-0.844,1.927-1.876,1.927-3.101
				c0-1.172-0.617-2.376-1.843-3.604c3.013-0.165,4.521-1.424,4.521-3.767c0-0.45-0.056-0.866-0.167-1.257
				C101.49,97.498,100.262,96.575,98.475,96.575z"/>
			<path fill="#FFFFFF" d="M44.467,68.776c3.069,3.516,7.396,6.087,12.98,7.701v1.261c0,1.561,0.529,2.874,1.589,3.933
				c1.061,1.062,2.372,1.648,3.937,1.761c1.617,0.112,2.816-0.167,3.599-0.838c1.228,0.893,2.595,1.34,4.104,1.34
				c1.396,0,2.681-0.417,3.853-1.255c0.78,0.611,1.925,0.865,3.434,0.753c1.562-0.167,2.875-0.768,3.936-1.8
				c1.061-1.038,1.59-2.332,1.59-3.894v-0.92c6.028-1.564,10.689-4.188,13.985-7.876c3.182-3.516,4.771-7.672,4.771-12.476
				c0-1.062-0.111-2.178-0.335-3.352c-1.116-7.14-4.409-13.033-9.879-17.666C86.277,30.485,79.271,28,71.01,28
				c-8.263,0-15.269,2.457-21.017,7.365c-5.471,4.693-8.736,10.61-9.797,17.75c-0.224,1.174-0.336,2.29-0.336,3.352
				C39.86,61.156,41.395,65.256,44.467,68.776L44.467,68.776z M77.501,47.217c1.646-1.925,3.644-2.889,5.985-2.889
				c2.401,0,4.425,0.964,6.071,2.889c1.646,1.923,2.471,4.254,2.471,6.987c0,2.736-0.825,5.067-2.471,6.993
				c-1.646,1.929-3.67,2.889-6.071,2.889c-2.343,0-4.339-0.96-5.985-2.889c-1.648-1.925-2.473-4.257-2.473-6.993
				C75.028,51.47,75.852,49.139,77.501,47.217z M68.624,66.411c0.81-1.046,1.604-1.572,2.386-1.572c0.78,0,1.521,0.58,2.22,1.743
				c0.696,1.158,1.049,2.26,1.049,3.312c0,1.601-1.062,2.397-3.184,2.397c-1.397,0-2.43-0.357-3.099-1.074
				c-0.392-0.446-0.585-0.994-0.585-1.66C67.411,68.51,67.814,67.462,68.624,66.411z M51.751,47.217
				c1.675-1.925,3.686-2.889,6.029-2.889c2.343,0,4.353,0.964,6.029,2.889c1.675,1.923,2.514,4.254,2.514,6.987
				c0,2.736-0.838,5.067-2.514,6.993c-1.677,1.929-3.688,2.889-6.029,2.889c-2.344,0-4.354-0.96-6.029-2.889
				c-1.674-1.925-2.513-4.257-2.513-6.993C49.238,51.47,50.077,49.139,51.751,47.217z"/>
		</g>
	</g>
</g>
</svg>
