<?xml version="1.0" encoding="utf-8"?>
<!-- Generator: Adobe Illustrator 16.0.0, SVG Export Plug-In . SVG Version: 6.00 Build 0)  -->
<!DOCTYPE svg PUBLIC "-//W3C//DTD SVG 1.1//EN" "http://www.w3.org/Graphics/SVG/1.1/DTD/svg11.dtd">
<svg version="1.1" id="Capa_1" xmlns="http://www.w3.org/2000/svg" xmlns:xlink="http://www.w3.org/1999/xlink" x="0px" y="0px"
	 width="64.141px" height="68.945px" viewBox="0 0 64.141 68.945" enable-background="new 0 0 64.141 68.945" xml:space="preserve">
<title>012 - Psychic</title>
<desc>Created with Sketch.</desc>
<g>
</g>
<g>
</g>
<g>
</g>
<g>
</g>
<g>
</g>
<g>
</g>
<g>
</g>
<g>
</g>
<g>
</g>
<g>
</g>
<g>
</g>
<g>
</g>
<g>
</g>
<circle fill="#955BA5" cx="32.07" cy="29.606" r="24.134"/>
<path fill="#E573BA" d="M29.218,39.768c-5.607-0.185-10.011-4.868-9.85-10.477c0-7.046,5.382-12.778,11.996-12.778
	c8.094,0,14.678,7.023,14.678,15.655c0,0.702-0.567,1.271-1.27,1.271s-1.271-0.569-1.271-1.271c0-7.231-5.446-13.115-12.138-13.115
	c-5.214,0-9.456,4.593-9.456,10.238c-0.161,4.206,3.105,7.751,7.31,7.935c3.223-0.15,5.72-2.874,5.59-6.095
	c0.1-2.439-1.786-4.502-4.223-4.623c-1.809,0.096-3.203,1.633-3.123,3.443c-0.065,1.309,0.938,2.424,2.246,2.5
	c0.702,0,1.27,0.569,1.27,1.27c0,0.702-0.568,1.271-1.27,1.271c-2.712-0.075-4.851-2.33-4.786-5.041
	c-0.079-3.213,2.452-5.887,5.664-5.984c3.843,0.119,6.868,3.32,6.769,7.164C37.483,35.76,33.845,39.62,29.218,39.768z"/>
<path fill="#59474E" d="M20.638,51.2h22.864c1.402,0,2.54,1.138,2.54,2.54v10.162H18.097V53.74
	C18.097,52.338,19.235,51.2,20.638,51.2z"/>
<g>
</g>
</svg>
