<?xml version="1.0" encoding="utf-8"?>
<!-- Generator: Adobe Illustrator 16.0.0, SVG Export Plug-In . SVG Version: 6.00 Build 0)  -->
<!DOCTYPE svg PUBLIC "-//W3C//DTD SVG 1.1//EN" "http://www.w3.org/Graphics/SVG/1.1/DTD/svg11.dtd">
<svg version="1.1" id="Layer_1" xmlns="http://www.w3.org/2000/svg" xmlns:xlink="http://www.w3.org/1999/xlink" x="0px" y="0px"
	 width="141.73px" height="141.73px" viewBox="0 0 141.73 141.73" enable-background="new 0 0 141.73 141.73" xml:space="preserve">
<circle fill="#FF73A5" cx="70.865" cy="71" r="66"/>
<g>
	<g>
		<g>
			<g>
				<path fill="#FFFFFF" d="M29.889,73.712c5.028,4.313,10.727,9.203,21.75,9.203c11.024-0.001,16.724-4.89,21.751-9.203
					c4.756-4.078,8.862-7.601,17.429-7.601c8.565,0,12.673,3.522,17.428,7.601c1.393,1.194,3.488,1.034,4.682-0.357
					c1.194-1.393,1.035-3.488-0.357-4.682c-5.029-4.313-10.728-9.202-21.752-9.202s-16.724,4.889-21.752,9.202
					c-4.755,4.079-8.862,7.601-17.428,7.601c-8.565,0-12.672-3.522-17.427-7.601c-1.392-1.194-3.488-1.034-4.682,0.358
					C28.337,70.422,28.497,72.518,29.889,73.712z"/>
				<path fill="#FFFFFF" d="M29.889,55.552c5.028,4.312,10.727,9.201,21.75,9.201s16.724-4.889,21.751-9.201
					c4.756-4.079,8.862-7.602,17.429-7.602c8.565,0,12.672,3.522,17.428,7.602c1.393,1.194,3.488,1.033,4.682-0.359
					c1.194-1.392,1.034-3.489-0.357-4.682c-5.03-4.313-10.729-9.201-21.752-9.201c-11.024,0-16.724,4.889-21.752,9.202
					c-4.755,4.078-8.862,7.601-17.428,7.601c-8.565,0-12.672-3.522-17.427-7.601c-1.392-1.194-3.488-1.034-4.682,0.358
					C28.337,52.261,28.497,54.358,29.889,55.552z"/>
				<path fill="#FFFFFF" d="M112.572,86.833c-5.029-4.313-10.728-9.201-21.752-9.201s-16.724,4.888-21.752,9.201
					c-4.755,4.079-8.862,7.602-17.428,7.602c-8.565,0-12.672-3.522-17.427-7.601v-0.001c-1.392-1.193-3.488-1.033-4.682,0.359
					c-1.194,1.392-1.034,3.487,0.358,4.682c5.028,4.313,10.728,9.201,21.75,9.201c11.024,0,16.724-4.889,21.751-9.201
					c4.756-4.079,8.862-7.603,17.429-7.603c8.565,0,12.673,3.523,17.428,7.603c1.393,1.193,3.488,1.033,4.682-0.358
					C114.124,90.123,113.965,88.027,112.572,86.833z"/>
			</g>
		</g>
	</g>
	<g>
	</g>
	<g>
	</g>
	<g>
	</g>
	<g>
	</g>
	<g>
	</g>
	<g>
	</g>
	<g>
	</g>
	<g>
	</g>
	<g>
	</g>
	<g>
	</g>
	<g>
	</g>
	<g>
	</g>
	<g>
	</g>
	<g>
	</g>
	<g>
	</g>
</g>
</svg>
