<?xml version="1.0" encoding="utf-8"?>
<!-- Generator: Adobe Illustrator 16.0.0, SVG Export Plug-In . SVG Version: 6.00 Build 0)  -->
<!DOCTYPE svg PUBLIC "-//W3C//DTD SVG 1.1//EN" "http://www.w3.org/Graphics/SVG/1.1/DTD/svg11.dtd">
<svg version="1.1" id="Capa_1" xmlns="http://www.w3.org/2000/svg" xmlns:xlink="http://www.w3.org/1999/xlink" x="0px" y="0px"
	 width="64.14px" height="68.945px" viewBox="0 0 64.14 68.945" enable-background="new 0 0 64.14 68.945" xml:space="preserve">
<g>
</g>
<g>
</g>
<g>
</g>
<g>
</g>
<g>
</g>
<g>
</g>
<g>
</g>
<g>
</g>
<g>
</g>
<g>
</g>
<g>
</g>
<g>
</g>
<g>
</g>
<g>
</g>
<g>
	<polygon fill="#77767E" points="31.732,7.555 7.827,21.459 7.827,47.014 31.896,60.917 55.81,47.013 55.81,21.458 	"/>
	<polygon fill="#ACABB1" points="55.81,21.458 31.896,35.361 11.65,23.667 7.827,21.459 31.732,7.555 47.755,13.436 	"/>
	<polygon fill="#77767E" points="55.81,21.458 55.81,47.013 31.896,60.917 31.896,35.361 38.991,31.236 48.069,21.798 	"/>
	<g>
		<polygon fill="#898890" points="31.896,35.361 31.896,60.917 7.827,47.014 7.827,21.459 17.225,20.646 		"/>
		<path fill="#898890" d="M51.851,29.345c1.609-0.93,2.917-0.931,2.919,0c0.004,0.929-1.3,2.435-2.91,3.365
			c-1.61,0.93-2.918,0.931-2.921,0.002C48.937,31.781,50.242,30.273,51.851,29.345"/>
	</g>
	<path fill="#57565C" d="M44.615,37.967c1.099-0.634,1.993-0.613,1.995,0.049c0.001,0.662-0.889,1.713-1.988,2.347
		c-1.1,0.636-1.993,0.613-1.994-0.047C42.625,39.654,43.515,38.603,44.615,37.967"/>
	<g>
		<path fill="#77767E" d="M22.75,39.136c1.099,0.635,1.989,1.685,1.986,2.347c-0.002,0.662-0.895,0.682-1.992,0.048
			c-1.101-0.636-1.99-1.685-1.988-2.347C20.757,38.524,21.65,38.501,22.75,39.136"/>
		<path fill="#77767E" d="M11.05,42.456c0.946,0.635,1.712,1.685,1.711,2.347c-0.001,0.662-0.771,0.682-1.717,0.048
			c-0.948-0.636-1.713-1.685-1.712-2.347C9.335,41.844,10.102,41.821,11.05,42.456"/>
	</g>
	<g>
		<path fill="#57565C" d="M26.802,51.544c0.113,0.066,0.229,0.141,0.345,0.227c1.009,0.75,1.738,2.01,1.628,2.813
			c-0.097,0.715-0.817,0.836-1.68,0.337c-0.114-0.065-0.229-0.142-0.345-0.228c-1.008-0.749-1.738-2.008-1.628-2.815
			C25.219,51.167,25.939,51.046,26.802,51.544"/>
		<path fill="#57565C" d="M11.868,29.579c0.051,0.029,0.103,0.063,0.155,0.102c0.454,0.338,0.782,0.905,0.732,1.267
			c-0.043,0.321-0.368,0.376-0.756,0.152c-0.052-0.03-0.103-0.063-0.156-0.103c-0.454-0.337-0.782-0.903-0.732-1.267
			C11.155,29.41,11.479,29.355,11.868,29.579"/>
	</g>
	<path fill="#ACABB1" d="M14.695,38.563c0.508,0.292,0.919,1.068,0.917,1.73c-0.002,0.66-0.417,0.958-0.925,0.664
		c-0.508-0.293-0.917-1.067-0.916-1.727C13.772,38.567,14.186,38.269,14.695,38.563"/>
	<path fill="#57565C" d="M37.656,50.337c0.976-0.563,1.771-0.489,1.772,0.167c0.001,0.656-0.789,1.648-1.766,2.211
		c-0.977,0.563-1.769,0.488-1.771-0.17C35.889,51.89,36.678,50.901,37.656,50.337"/>
	<g>
		<path fill="#898890" d="M50.662,41.463c0.978-0.564,1.769-0.499,1.771,0.147c0.001,0.646-0.789,1.626-1.765,2.19
			c-0.977,0.564-1.771,0.498-1.773-0.147C48.894,43.007,49.684,42.026,50.662,41.463"/>
		<path fill="#898890" d="M35.975,38.836c0.52-0.301,0.942-0.13,0.942,0.38c0.002,0.509-0.417,1.167-0.937,1.466
			c-0.519,0.3-0.941,0.129-0.942-0.381C35.037,39.792,35.456,39.135,35.975,38.836"/>
	</g>
</g>
</svg>
