<?xml version="1.0" encoding="utf-8"?>
<!-- Generator: Adobe Illustrator 16.0.0, SVG Export Plug-In . SVG Version: 6.00 Build 0)  -->
<!DOCTYPE svg PUBLIC "-//W3C//DTD SVG 1.1//EN" "http://www.w3.org/Graphics/SVG/1.1/DTD/svg11.dtd">
<svg version="1.1" id="Layer_1" xmlns="http://www.w3.org/2000/svg" xmlns:xlink="http://www.w3.org/1999/xlink" x="0px" y="0px"
	 width="141.73px" height="141.73px" viewBox="0 0 141.73 141.73" enable-background="new 0 0 141.73 141.73" xml:space="preserve">
<circle fill="#A88F45" cx="70.865" cy="71" r="66"/>
<g>
	<g>
		<path fill="#FFFFFF" d="M104.235,69.42c-0.21-2.443-1.247-5.093-2.722-7.779c-1.593-2.9-9.393-13.183-10.858-15.122
			c-2.186-2.884-3.624-5.122-3.23-6.214c0.585-1.625-5.88-0.898-12.944,0.337c-2.73,0.481-7.855-0.886-6.882,2.746
			c0.965,3.632-9.969,0.735-9.969,0.735s-12.333,3.724-10.095,5.959c1.37,1.375-10.645,15.969-10.533,19.334
			c0.306,9.187,6.516,22.048,6.738,19.313c0.223-2.733,6.751,6.552,10.073,9.803c3.794,3.707,22.966,2.916,22.624,5.189
			c-0.342,2.272,13.58-1.947,10.994-5.189c-2.921-3.663,9.933-11.788,7.93-14.3C93.356,81.721,104.652,74.375,104.235,69.42z
			 M48.785,79.762c-1.061,0-1.923-0.862-1.923-1.924c0-1.061,0.862-1.923,1.923-1.923c1.065,0,1.923,0.866,1.923,1.923
			C50.708,78.904,49.85,79.762,48.785,79.762z M64.34,76.215c-1.768,0-3.207-1.431-3.207-3.207c0-1.768,1.438-3.202,3.207-3.202
			s3.203,1.435,3.203,3.202C67.543,74.78,66.108,76.215,64.34,76.215z M60.26,63.325c-2.118,2.535-5.141,3.492-6.758,2.145
			c-1.617-1.351-1.212-4.498,0.902-7.032c2.118-2.535,5.146-3.5,6.762-2.15C62.782,57.639,62.377,60.79,60.26,63.325z
			 M75.382,95.871c-3.114,0-5.642-2.528-5.642-5.643c0-3.112,2.527-5.643,5.642-5.643c3.116,0,5.643,2.53,5.643,5.643
			C81.024,93.343,78.501,95.871,75.382,95.871z M91.513,68.224c1.295,0,2.348,1.053,2.348,2.348c0,1.3-1.053,2.352-2.348,2.352
			s-2.353-1.057-2.353-2.352S90.219,68.224,91.513,68.224z M77.972,59.765c0-2.38,2.522-4.311,5.642-4.311
			c3.107,0,5.639,1.931,5.639,4.311c0,2.38-2.531,4.307-5.639,4.307C80.495,64.076,77.972,62.145,77.972,59.765z"/>
	</g>
	<g>
	</g>
	<g>
	</g>
	<g>
	</g>
	<g>
	</g>
	<g>
	</g>
	<g>
	</g>
	<g>
	</g>
	<g>
	</g>
	<g>
	</g>
	<g>
	</g>
	<g>
	</g>
	<g>
	</g>
	<g>
	</g>
	<g>
	</g>
	<g>
	</g>
</g>
</svg>
