<?xml version="1.0" encoding="utf-8"?>
<!-- Generator: Adobe Illustrator 16.0.0, SVG Export Plug-In . SVG Version: 6.00 Build 0)  -->
<!DOCTYPE svg PUBLIC "-//W3C//DTD SVG 1.1//EN" "http://www.w3.org/Graphics/SVG/1.1/DTD/svg11.dtd">
<svg version="1.1" id="Capa_1" xmlns="http://www.w3.org/2000/svg" xmlns:xlink="http://www.w3.org/1999/xlink" x="0px" y="0px"
	 width="64.141px" height="68.945px" viewBox="0 0 64.141 68.945" enable-background="new 0 0 64.141 68.945" xml:space="preserve">
<path fill="#A8A8A8" d="M45.745,60.042c-0.827,0-1.653,0-2.479,0c-0.08-0.028-0.158-0.073-0.239-0.079
	c-1.696-0.12-3.286-0.658-4.881-1.201c-1.327-0.452-2.664-0.928-4.035-1.188c-2.114-0.402-4.148,0.108-6.146,0.841
	c-1.429,0.523-2.9,0.936-4.365,1.357c-0.521,0.15-1.074,0.184-1.613,0.271c-0.826,0-1.653,0-2.479,0
	c-0.15-0.031-0.299-0.077-0.451-0.092c-2.834-0.281-5.474-1.142-7.887-2.664c-1.085-0.685-1.141-1.69-0.311-2.638
	c0.88-1.003,1.75-2.045,2.436-3.185c2.281-3.786,3.352-7.994,4.045-12.312c0.523-3.252,0.686-6.533,0.723-9.822
	c0.045-4.023,0.399-8.005,1.753-11.835c1.173-3.319,2.951-6.225,5.943-8.209c3.539-2.348,7.357-2.783,11.319-1.267
	c3.582,1.371,5.941,4.062,7.535,7.471c1.674,3.58,2.296,7.399,2.496,11.307c0.172,3.349,0.241,6.708,0.521,10.046
	c0.308,3.696,1.122,7.306,2.462,10.774c1.004,2.599,2.269,5.052,4.278,7.045c0.899,0.891,0.787,1.935-0.287,2.626
	c-1.936,1.246-4.062,2.004-6.308,2.441C47.105,59.86,46.423,59.938,45.745,60.042z M29.73,22.176c0-0.344,0.015-0.688-0.003-1.032
	c-0.045-0.887-0.715-1.513-1.583-1.497c-0.834,0.016-1.478,0.654-1.502,1.523c-0.02,0.67-0.021,1.343-0.003,2.013
	c0.023,0.86,0.675,1.509,1.504,1.529c0.849,0.021,1.538-0.627,1.583-1.504C29.745,22.865,29.73,22.52,29.73,22.176z M38.202,22.15
	c0-0.344,0.016-0.689-0.002-1.032c-0.046-0.833-0.687-1.453-1.503-1.471c-0.826-0.017-1.515,0.56-1.566,1.393
	c-0.047,0.754-0.051,1.516-0.004,2.27c0.053,0.82,0.769,1.423,1.571,1.403c0.809-0.02,1.456-0.649,1.501-1.479
	C38.219,22.873,38.202,22.511,38.202,22.15z"/>
</svg>
