<?xml version="1.0" encoding="utf-8"?>
<!-- Generator: Adobe Illustrator 16.0.0, SVG Export Plug-In . SVG Version: 6.00 Build 0)  -->
<!DOCTYPE svg PUBLIC "-//W3C//DTD SVG 1.1//EN" "http://www.w3.org/Graphics/SVG/1.1/DTD/svg11.dtd">
<svg version="1.1" id="Capa_1" xmlns="http://www.w3.org/2000/svg" xmlns:xlink="http://www.w3.org/1999/xlink" x="0px" y="0px"
	 width="64.14px" height="68.945px" viewBox="0 0 64.14 68.945" enable-background="new 0 0 64.14 68.945" xml:space="preserve">
<g>
</g>
<g>
</g>
<g>
</g>
<g>
</g>
<g>
</g>
<g>
</g>
<g>
</g>
<g>
</g>
<g>
</g>
<g>
</g>
<g>
</g>
<g>
</g>
<g>
</g>
<g>
</g>
<g>
	<g>
		<g>
			<path d="M57.121,15.881l-5.026-1.604c-4.536-1.46-9.543-0.981-13.714,1.304c-4.038,2.217-9.061,2.22-13.102,0
				c-4.163-2.285-9.163-2.764-13.717-1.304l-5.023,1.604c-1.004,0.319-1.555,1.388-1.231,2.391c0.319,0.997,1.383,1.548,2.387,1.229
				l5.022-1.608c3.57-1.133,7.479-0.768,10.733,1.02c2.585,1.417,5.482,2.125,8.379,2.125c2.897,0,5.791-0.708,8.376-2.122
				c3.258-1.791,7.167-2.159,10.729-1.019l5.026,1.604c1.019,0.327,2.072-0.236,2.391-1.232
				C58.672,17.27,58.121,16.201,57.121,15.881z"/>
		</g>
	</g>
	<g>
		<g>
			<path d="M57.121,27.288l-5.026-1.604c-4.536-1.453-9.543-0.981-13.714,1.304c-4.038,2.217-9.061,2.22-13.102,0
				c-4.167-2.289-9.167-2.768-13.717-1.304l-5.023,1.604c-1.004,0.319-1.555,1.388-1.231,2.392c0.319,0.996,1.383,1.543,2.387,1.228
				l5.022-1.608c3.57-1.133,7.479-0.768,10.733,1.019c2.585,1.417,5.482,2.125,8.379,2.125c2.897,0,5.791-0.708,8.376-2.122
				c3.258-1.791,7.167-2.159,10.729-1.019l5.026,1.604c1.019,0.327,2.072-0.232,2.391-1.232
				C58.672,28.676,58.121,27.607,57.121,27.288z"/>
		</g>
	</g>
	<g>
		<g>
			<path d="M57.117,38.693l-5.018-1.601c-4.551-1.471-9.54-0.988-13.718,1.301c-4.038,2.212-9.061,2.212-13.102,0
				c-4.171-2.289-9.167-2.765-13.714-1.305l-5.023,1.604c-1,0.32-1.551,1.388-1.231,2.392c0.319,0.996,1.384,1.54,2.388,1.232
				l5.022-1.604c3.559-1.148,7.471-0.772,10.729,1.011c2.585,1.418,5.482,2.126,8.379,2.126c2.897,0,5.791-0.708,8.376-2.122
				c3.258-1.787,7.167-2.167,10.729-1.015l5.022,1.604c1.012,0.312,2.068-0.236,2.392-1.232
				C58.668,40.081,58.117,39.013,57.117,38.693z"/>
		</g>
	</g>
	<g>
		<g>
			<path d="M57.117,50.096l-5.018-1.601c-4.551-1.468-9.54-0.988-13.718,1.3c-4.034,2.213-9.061,2.217-13.102,0
				c-4.167-2.285-9.17-2.752-13.717-1.304l-5.023,1.604c-1,0.319-1.551,1.388-1.231,2.391c0.319,0.996,1.383,1.536,2.387,1.232
				l5.022-1.604c3.562-1.141,7.471-0.772,10.733,1.015c2.585,1.418,5.482,2.125,8.379,2.125c2.897,0,5.791-0.707,8.376-2.125
				c3.258-1.787,7.167-2.163,10.729-1.015l5.022,1.604c1.012,0.312,2.068-0.236,2.392-1.232
				C58.668,51.484,58.117,50.415,57.117,50.096z"/>
		</g>
	</g>
	<g>
	</g>
	<g>
	</g>
	<g>
	</g>
	<g>
	</g>
	<g>
	</g>
	<g>
	</g>
	<g>
	</g>
	<g>
	</g>
	<g>
	</g>
	<g>
	</g>
	<g>
	</g>
	<g>
	</g>
	<g>
	</g>
	<g>
	</g>
	<g>
	</g>
</g>
</svg>
