<?xml version="1.0" encoding="utf-8"?>
<!-- Generator: Adobe Illustrator 16.0.0, SVG Export Plug-In . SVG Version: 6.00 Build 0)  -->
<!DOCTYPE svg PUBLIC "-//W3C//DTD SVG 1.1//EN" "http://www.w3.org/Graphics/SVG/1.1/DTD/svg11.dtd">
<svg version="1.1" id="Capa_1" xmlns="http://www.w3.org/2000/svg" xmlns:xlink="http://www.w3.org/1999/xlink" x="0px" y="0px"
	 width="64.14px" height="68.945px" viewBox="0 0 64.14 68.945" enable-background="new 0 0 64.14 68.945" xml:space="preserve">
<path fill="#D8D8D8" d="M40.385,52.615c-4.236,0-5.765-2.825-6.315-4.784c-0.262-0.931,0.392-1.887,1.354-1.998
	C64.06,42.558,58.046,13.345,56.246,6.548c-0.158-0.597-0.922-0.762-1.311-0.281c-3.758,4.641-18.231,22.211-25.141,26.222
	c-4.659,4.704-11.694,3.776-15.518,3.058c-1.738-0.327-3.532-0.327-5.209,0.23c-0.265,0.088-0.503,0.181-0.7,0.279
	c-3.91,1.932-4.867,5.5-4.416,5.521c6.853,0.321,11.601,3.194,12.009,4.658c0.276,0.988,0.649,1.958,1.256,2.784
	c0.023,0.031,0.046,0.063,0.069,0.095c1.704,2.27,4.457,3.506,7.294,3.505c1.384-0.002,2.525,1.049,2.789,2.408
	c0.127,0.649,0.296,1.268,0.539,1.915c1.793,4.779,6.515,7.823,11.619,7.823h1.962c10.489,0,9.937-6.625,9.937-6.625
	C51.426,52.478,40.385,52.615,40.385,52.615z"/>
<circle fill="#556080" cx="11.127" cy="38.814" r="1.656"/>
<path fill="#C6C6C6" d="M13.27,35.407c0.337,0.037,0.672,0.076,1.006,0.137c3.824,0.719,10.859,1.647,15.518-3.056l0,0
	c1.84-3.202,2.788-7.001,2.863-10.788c0.104-5.256-0.482-13.915-4.884-18.904c-0.389-0.44-1.113-0.305-1.303,0.251
	c-1.154,3.37-4.606,13.234-11.478,20.861c-2.038,2.26-3.762,4.718-3.312,7.728C11.847,32.769,12.402,34.124,13.27,35.407z"/>
<g>
</g>
<g>
</g>
<g>
</g>
<g>
</g>
<g>
</g>
<g>
</g>
<g>
</g>
<g>
</g>
<g>
</g>
<g>
</g>
<g>
</g>
<g>
</g>
<g>
</g>
<g>
</g>
<g>
</g>
</svg>
