<?xml version="1.0" encoding="utf-8"?>
<!-- Generator: Adobe Illustrator 16.0.0, SVG Export Plug-In . SVG Version: 6.00 Build 0)  -->
<!DOCTYPE svg PUBLIC "-//W3C//DTD SVG 1.1//EN" "http://www.w3.org/Graphics/SVG/1.1/DTD/svg11.dtd">
<svg version="1.1" id="Layer_1" xmlns="http://www.w3.org/2000/svg" xmlns:xlink="http://www.w3.org/1999/xlink" x="0px" y="0px"
	 width="141.73px" height="141.73px" viewBox="0 0 141.73 141.73" enable-background="new 0 0 141.73 141.73" xml:space="preserve">
<circle fill="#30A7D7" cx="70.865" cy="71" r="66"/>
<path fill="#FFFFFF" d="M70.699,39.261c0,0-22.615,28.302-22.615,40.863c0,12.563,10.183,22.614,22.613,22.614
	c12.432,0,22.614-10.051,22.614-22.614C93.311,67.694,70.699,39.261,70.699,39.261z M70.699,96.789
	c-9.125,0-16.663-7.405-16.663-16.664c0-1.057,0.926-1.981,1.983-1.981c1.059,0,1.983,0.925,1.983,1.981
	c0,7.01,5.688,12.695,12.696,12.695c1.059,0,1.984,0.926,1.984,1.984C72.682,95.863,71.756,96.789,70.699,96.789z"/>
</svg>
