<?xml version="1.0" encoding="utf-8"?>
<!-- Generator: Adobe Illustrator 16.0.0, SVG Export Plug-In . SVG Version: 6.00 Build 0)  -->
<!DOCTYPE svg PUBLIC "-//W3C//DTD SVG 1.1//EN" "http://www.w3.org/Graphics/SVG/1.1/DTD/svg11.dtd">
<svg version="1.1" xmlns="http://www.w3.org/2000/svg" xmlns:xlink="http://www.w3.org/1999/xlink" x="0px" y="0px" width="243px"
	 height="237px" viewBox="0 0 243 237" enable-background="new 0 0 243 237" xml:space="preserve">
<g id="Layer_1" display="none">
	<g id="_x31_AJzGn.tif" display="inline">
		
			<image overflow="visible" width="501" height="1080" id="Layer_0_1_" xlink:href="BB85480B2FF8D2A7.png"  transform="matrix(1 0 0 1 60.0435 60.1509)">
		</image>
	</g>
</g>
<g id="Layer_2">
	
		<path fill="#EECDC7" stroke="#000000" stroke-width="2" stroke-linecap="round" stroke-linejoin="round" stroke-miterlimit="10" d="
		M34.612,163.77c0,0,3.478,14.012,12.306,20.343l-6.153-24.012L34.612,163.77z"/>
	
		<path fill="#646168" stroke="#000000" stroke-width="2" stroke-linecap="round" stroke-linejoin="round" stroke-miterlimit="10" d="
		M17.418,144.389l-8.672,19.389l20.667-8l-1.333,12l12.514-7.677c0,0-4.292-22.903-6.403-25.946L17.418,144.389z"/>
	
		<path fill="#646168" stroke="#000000" stroke-width="2" stroke-linecap="round" stroke-linejoin="round" stroke-miterlimit="10" d="
		M164.373,198.744l16.039,11.033v-7.667c0,0,12.333,1.834,17,5.75l-2.096-27.474l-22.648-3.221l-12.922,17.944L164.373,198.744z"/>
	
		<path fill="#C65C77" stroke="#000000" stroke-width="2" stroke-linecap="round" stroke-linejoin="round" stroke-miterlimit="10" d="
		M172.668,117.861c0,0,26.75,4.584,35.416,3.917l3-47.667c0,0,3.334-16.667-13-29.667c0,0-24.667-18.333-53.667-27
		c0,0-29-10.182-33.667-10.182s-44.667,13.182-73,33.516c0,0-13,10.217-13,23.775s3.288,50.502,5.311,59.197
		C30.061,123.75,98.586,108.611,172.668,117.861z"/>
	<radialGradient id="SVGID_1_" cx="91.4258" cy="81.8853" r="34.7792" gradientUnits="userSpaceOnUse">
		<stop  offset="0" style="stop-color:#FFFFFF"/>
		<stop  offset="1" style="stop-color:#B8B8B8"/>
	</radialGradient>
	<path fill="url(#SVGID_1_)" stroke="#000000" stroke-width="2" stroke-miterlimit="10" d="M109.199,100.246l23.469,5.261
		c2.918-38.605-22.918-49.729-40.854-50.062s-30.731,11.667-37.731,21s-2.975,31.889-2.975,31.889
		c5.309-3.556,22.963-11.428,27.06-12.473l-5.921,1.601c0,0,2.169-16.683,15.169-17.35s18.627,10.333,18.627,10.333
		s3.611,6.937,3.159,9.802L109.199,100.246z"/>
	
		<path fill="#646168" stroke="#000000" stroke-width="2" stroke-linecap="round" stroke-linejoin="round" stroke-miterlimit="10" d="
		M172.668,117.861c0,0,30.083,4.918,35.416,3.917c0,0,18.332,5.666,20.999,4.999l-12,7.943l16.667,20.057l-28-1.425l-2.541,16.614
		h-3.474l-16.985-9.866L172.668,117.861z"/>
	
		<path fill="#EECDC7" stroke="#000000" stroke-width="2" stroke-linecap="round" stroke-linejoin="round" stroke-miterlimit="10" d="
		M33.409,134.721c0,0,15.009,51.391,16.509,63.641c0,0,2.25,6.75,6.25,9s46.75,21.5,46.75,21.5s7,1.5,10.5,0s51.5-20.75,59.25-42
		c0,0,19.75,14,28.25-21.25s-14.5-15.75-14.5-15.75l-13.75-32c0,0-23.25,19.5-55.5,11.5s-33.506-6.955-33.506-6.955
		S57.9,116.58,33.409,134.721z"/>
	<path fill="#FFFFFF" d="M136.784,136.259c0,0-4.36,38.158,6.262,39.63s16.872-2.984,14.622-30.256c0,0-0.461-15.895-11.23-15.833
		C146.438,129.8,137.256,130.896,136.784,136.259z"/>
	<path fill="#FFFFFF" d="M62.005,129.8c0,0-8.929,39.617,1.896,45.339s15.852-4.056,15.699-8.278l-2.489-27.297
		C77.111,139.564,66.584,131.485,62.005,129.8z"/>
	<radialGradient id="SVGID_2_" cx="141.5449" cy="153.1123" r="12.7358" gradientUnits="userSpaceOnUse">
		<stop  offset="0" style="stop-color:#FFFFFF"/>
		<stop  offset="1" style="stop-color:#666666"/>
	</radialGradient>
	<ellipse fill="url(#SVGID_2_)" stroke="#000000" stroke-miterlimit="10" cx="141.545" cy="153.113" rx="6.352" ry="16.854"/>
	
		<ellipse transform="matrix(0.9896 0.1438 -0.1438 0.9896 22.0471 -18.4612)" fill="#FFFFFF" stroke="#FFFFFF" stroke-miterlimit="10" cx="138.704" cy="143.251" rx="1.854" ry="3.949"/>
	<ellipse transform="matrix(0.9981 -0.0619 0.0619 0.9981 -9.1531 8.9954)" cx="140.625" cy="152.245" rx="2.375" ry="7.87"/>
	
		<radialGradient id="SVGID_3_" cx="91.8125" cy="120.2324" r="59.7143" gradientTransform="matrix(0.7071 -0.7071 2.8284 2.8284 -313.1774 -154.915)" gradientUnits="userSpaceOnUse">
		<stop  offset="0" style="stop-color:#FFFFFF"/>
		<stop  offset="1" style="stop-color:#B8B8B8"/>
	</radialGradient>
	<path fill="url(#SVGID_3_)" stroke="#000000" stroke-width="2" stroke-miterlimit="10" d="M172.668,117.861
		c0,0-22.25,19.25-55.5,11.5s-53-12.5-72-1.75l-27.75,16.777c0,0-8.5,1.473-6-3.277s48.5-45.5,69.5-45.25
		S161.918,112.611,172.668,117.861z"/>
	<path d="M147.418,148.611c-1.5-21-11.25-16-11.75-14s-3,6.25-3,6.25c1.75-0.25,3-1.25,3-1.25c-4.25,24.25,4,32.5,6.39,32.25
		S148.918,169.611,147.418,148.611z M141.809,169.12c-2.968,0.096-5.612-7.242-5.909-16.389c-0.295-9.147,1.869-16.641,4.836-16.737
		c2.968-0.096,5.612,7.242,5.908,16.389C146.941,161.529,144.775,169.023,141.809,169.12z"/>
	<path d="M124.689,130.697c0,0-1.021,6.164-5.021,6.914c0,0,11.5-1.079,13-6.415C132.668,131.197,126.23,130.904,124.689,130.697z"
		/>
	<path fill="none" stroke="#000000" stroke-width="2" stroke-linecap="round" stroke-linejoin="round" stroke-miterlimit="10" d="
		M148.772,129.267c0,0,7.896,1.624,8.146,13.984"/>
	<path stroke="#000000" stroke-linecap="round" stroke-linejoin="round" stroke-miterlimit="10" d="M46.918,133.373
		c0,0,0.536-24.623,33.75,8.739C80.668,142.111,52.811,116.43,46.918,133.373z"/>
	<path stroke="#000000" stroke-linecap="round" stroke-linejoin="round" stroke-miterlimit="10" d="M61.616,129.267
		c0,0-3.198,2.844-2.948,20.594c0,0,0.453-18.328,5.852-19.164L61.616,129.267z"/>
	<radialGradient id="SVGID_4_" cx="72.9482" cy="153.2959" r="13.9518" gradientUnits="userSpaceOnUse">
		<stop  offset="0" style="stop-color:#FFFFFF"/>
		<stop  offset="1" style="stop-color:#666666"/>
	</radialGradient>
	<path fill="url(#SVGID_4_)" stroke="#000000" stroke-width="2" stroke-miterlimit="10" d="M70.94,134.721
		c0,0-5.522,4.141-4.522,19.891s7.75,17.255,7.75,17.255s9.832,1.151,3.041-32.302L70.94,134.721z"/>
	<ellipse transform="matrix(0.9959 -0.0901 0.0901 0.9959 -13.515 7.2482)" cx="73.543" cy="153.353" rx="2.125" ry="7.748"/>
	
		<ellipse transform="matrix(0.9999 0.0134 -0.0134 0.9999 1.9463 -0.9328)" fill="#FFFFFF" stroke="#FFFFFF" stroke-miterlimit="10" cx="70.393" cy="144.389" rx="1.853" ry="3.949"/>
	<path stroke="#000000" stroke-linecap="round" stroke-linejoin="round" stroke-miterlimit="10" d="M61.587,174.611
		c0,0,9.581,2.25,16.581,0C78.168,174.611,71.756,180.361,61.587,174.611z"/>
	<path stroke="#000000" stroke-linecap="round" stroke-linejoin="round" stroke-miterlimit="10" d="M140.625,174.735
		c0,0,5.648,4.374,12.22,0C152.846,174.735,147.583,180.108,140.625,174.735z"/>
	<path fill="none" stroke="#000000" stroke-width="2" stroke-miterlimit="10" d="M89.418,205.861"/>
	<path fill="none" stroke="#000000" stroke-width="2" stroke-linecap="round" stroke-linejoin="round" stroke-miterlimit="10" d="
		M89.418,205.861c0,0,21.25-2.5,33.25,2"/>
	<path fill="none" stroke="#000000" stroke-width="2" stroke-linecap="round" stroke-linejoin="round" stroke-miterlimit="10" d="
		M91.813,186.611c0,0,0.105,5.25-2.395,8.5"/>
	
		<line fill="none" stroke="#000000" stroke-linecap="round" stroke-linejoin="round" stroke-miterlimit="10" x1="98.418" y1="211.361" x2="113.168" y2="211.361"/>
</g>
</svg>
