<?xml version="1.0" encoding="utf-8"?>
<!-- Generator: Adobe Illustrator 16.0.0, SVG Export Plug-In . SVG Version: 6.00 Build 0)  -->
<!DOCTYPE svg PUBLIC "-//W3C//DTD SVG 1.1//EN" "http://www.w3.org/Graphics/SVG/1.1/DTD/svg11.dtd">
<svg version="1.1" id="Layer_1" xmlns="http://www.w3.org/2000/svg" xmlns:xlink="http://www.w3.org/1999/xlink" x="0px" y="0px"
	 width="456px" height="415px" viewBox="0 0 456 415" enable-background="new 0 0 456 415" xml:space="preserve">
<g>
	<path fill="#68AE28" d="M270.426,138.477L140.427,239.115c-1.339,0.147-3.331-0.186-5.973-1.004
		c-3.312-1.043-6.456-2.586-9.432-4.634c-8.485-5.804-13.619-14.142-15.406-25.007c-1.75-10.418-0.149-21.601,4.8-33.545
		c1.636-3.944,3.647-8.02,6.029-12.224l4.354-7.312c3.535-6.288,6.457-12.502,8.764-18.642c3.833-10.27,4.873-17.862,3.125-22.773
		l1.786,0.224c1.34,0.261,2.42,0.744,3.238,1.452c-0.112-1.191-0.427-2.587-0.949-4.187c-1.078-3.274-2.622-6.029-4.632-8.261
		l6.028-0.837c5.099,0.037,10.271,1.488,15.518,4.354l-0.391-3.069c-0.149-2.084,0.057-3.237,0.614-3.461
		c0.855-0.334,2.084,0.484,3.684,2.457c0.038-1.638,0.39-3.498,1.061-5.583c1.302-4.093,3.499-7.181,6.586-9.266l3.069,5.637
		c2.866,4.057,6.363,6.866,10.494,8.429c3.609,1.414,11.795,2.492,24.559,3.237c12.354,0.744,21.062,2.27,26.123,4.577l5.357,0.447
		c4.354,0.559,8.373,1.582,12.058,3.07C262.761,117.992,269.273,126.419,270.426,138.477"/>
	<path fill="#56931F" d="M113.469,219.411c-8.411-15.853-6.401-34.066,6.028-54.645c-6.288,16.633-4.167,29.937,6.363,39.909
		c4.577,4.317,10.345,7.48,17.303,9.489c6.811,1.935,14.029,2.568,21.658,1.897l-26.012,23.499c-3.796-0.334-8.02-2.177-12.67-5.525
		C120.818,230.128,116.594,225.254,113.469,219.411"/>
	<path fill="#7CBEB3" d="M321.443,131.108c3.312,1.451,6.195,6.381,8.652,14.792c2.194,7.627,2.938,13.024,2.231,16.187
		c4.392,5.098,8.67,15.052,12.838,29.862c4.726,16.597,5.526,28.671,2.399,36.225c-1.004,2.42-3.943,5.712-8.819,9.88
		c-5.062,4.391-10.065,7.777-15.014,10.158l2.51,4.074c2.011,3.572,3.816,7.425,5.415,11.555
		c5.098,13.323,7.219,27.128,6.364,41.415c-0.262,4.541-4.021,8.262-11.277,11.163c-7.106,2.792-14.678,3.723-22.715,2.792
		c-2.717-0.371-6.308-3.554-10.774-9.544c-5.098-6.961-8.128-14.178-9.097-21.658c-6.809,3.943-12.557,6.605-17.248,7.982
		l-1.451,2.456c-1.265,2.01-2.753,3.868-4.465,5.581c-5.395,5.507-11.777,8.578-19.146,9.211c-7.33,0.633-13.023,0.055-17.079-1.729
		c-1.266-0.561-2.308-1.209-3.125-1.955l-0.782-0.949l-44.597,1.508l-4.577,4.018c-4.094,2.717-8.82,4.148-14.178,4.297
		c-7.331,0.225-13.099-0.446-17.304-2.009c-5.283-2.009-9.042-5.675-11.275-10.996c-3.237-7.665-4.948-16.447-5.135-26.345
		c-0.261-12.877,2.623-23.407,8.651-31.594c5.805-7.889,13.378-15.927,22.718-24.113c2.605-2.271,9.694-8.037,21.267-17.303
		c5.916-4.688,11.182-9.229,15.796-13.619c4.689-4.465,7.536-7.665,8.54-9.6c1.08-7.406,2.493-14.922,4.242-22.55
		c3.536-15.257,6.96-23.406,10.271-24.448c3.312-1.006,8.187,0.056,14.624,3.181c3.2,1.6,6.066,3.274,8.597,5.023l3.795-1.339
		c3.349-1.005,7.013-1.86,10.996-2.567c12.727-2.195,26.234-2.326,40.523-0.391c2.157-2.307,6.921-4.541,14.29-6.698
		C315.21,130.978,319.656,130.327,321.443,131.108"/>
	<path fill="#68A198" d="M331.546,153.324l1.116,8.763l-5.749-8.539c0.596-2.494,0.855-5.861,0.781-10.103l-0.335-5.582
		C329.071,141.546,330.466,146.7,331.546,153.324"/>
	<path fill="#68A198" d="M203.724,163.203c3.015-13.842,5.973-21.843,8.876-24.001c-0.707,8.038-0.948,15.982-0.726,23.834
		c0.149,4.614,0.634,11.647,1.452,21.099c0.484,5.619-0.094,10.605-1.731,14.959c-1.451,3.795-3.349,6.381-5.693,7.758
		c-2.308,1.34-4.205,1.042-5.693-0.894c-1.601-2.122-2.14-5.768-1.62-10.94C199.632,184.711,201.343,174.106,203.724,163.203"/>
	<path fill="#68A198" d="M304.474,305.091c2.865,5.358,6.289,8.708,10.27,10.047l-2.119,4.242
		c-5.619,1.118-10.587-0.353-14.903-4.409c-5.173-4.947-9.75-13.936-13.73-26.959c-6.438,3.906-13.583,6.828-21.435,8.764
		c-7.739,1.935-17.042,3.107-27.908,3.517c-1.711,0.558-2.959,1.749-3.74,3.571c-0.782,1.749-0.8,3.331-0.056,4.745l-3.126,3.684
		l-6.698-4.074c0.187-1.266,1.229-5.042,3.126-11.33c1.861-6.03,3.032-11.258,3.517-15.687c1.414-13.247-2.27-25.229-11.052-35.945
		c7.814,7.851,21.507,12.781,41.082,14.791c20.914,2.121,38.683,0.224,53.307-5.692c-4.689,3.014-8.038,7.702-10.048,14.066
		c-1.786,5.729-2.327,12.074-1.619,19.032C300.046,294.15,301.758,300.029,304.474,305.091"/>
	<path fill="#68A198" d="M123.236,273.052c1.6,13.062,8.745,21.453,21.433,25.174c4.875,1.413,10.01,1.935,15.406,1.564
		c4.913-0.337,8.95-1.304,12.112-2.902l4.074,13.729c-2.901,2.827-6.809,5.042-11.722,6.643c-9.823,3.2-19.704,1.804-29.639-4.187
		c-4.8-2.902-8.242-10.27-10.326-22.103c-0.669-3.982-1.117-8.02-1.338-12.113C123.051,275.434,123.051,273.498,123.236,273.052"/>
	<path fill="#FFFFFF" d="M242.74,182.07c1.452-0.261,2.995-0.02,4.635,0.725c-5.619,4.316-8.559,10.94-8.821,19.871
		c-0.26,8.15,1.601,15.797,5.582,22.941c-7.814-0.855-13.32-2.643-16.522-5.359c-0.93-0.818-1.32-3.106-1.172-6.865
		c0.149-3.907,0.838-8,2.065-12.279C231.707,189.716,236.452,183.373,242.74,182.07"/>
	<path fill="#D60040" d="M262.053,203.336c1.75,4.688,2.829,8.912,3.238,12.671c0.446,4.019,0,6.697-1.339,8.037
		c-0.894,0.894-3.293,1.508-7.201,1.843c-3.98,0.298-8.187,0.203-12.614-0.279c-3.98-7.145-5.842-14.791-5.582-22.941
		c0.262-8.931,3.201-15.555,8.821-19.871C252.917,185.363,257.811,192.21,262.053,203.336"/>
	<path fill="#D60040" d="M327.414,179.279c4.651,3.796,7.425,9.47,8.318,17.025c0.558,4.726,0.334,11.368-0.67,19.927
		c-1.638,0.633-3.22,1.062-4.746,1.283c-1.562,0.261-2.734,0.261-3.515,0c-2.196-0.707-3.293-6.326-3.293-16.855
		C323.472,189.903,324.773,182.776,327.414,179.279"/>
	<path fill="#FFFFFF" d="M327.414,179.279c0.671-0.93,1.377-1.47,2.121-1.618c3.609-0.781,7.108,3.627,10.494,13.228
		c3.312,9.526,3.963,16.336,1.954,20.429c-0.931,1.936-3.239,3.573-6.922,4.913c1.004-8.56,1.227-15.202,0.67-19.928
		C334.839,188.749,332.066,183.075,327.414,179.279"/>
	<path fill="#006359" d="M294.651,173.585c-1.08,0.409-3.889-0.725-8.428-3.404c-4.764-2.754-7.053-5.004-6.866-6.754
		c0.26-2.307,4.111-5.489,11.554-9.544c7.555-4.094,12.578-5.602,15.071-4.521c1.601,0.67,0.762,4.615-2.512,11.834
		C300.157,168.451,297.218,172.582,294.651,173.585"/>
	<path fill="#006359" d="M269.812,178.386c-0.111-0.484,0.446-1.396,1.675-2.735c1.265-1.376,2.399-2.195,3.406-2.456l1.226,1.73
		c1.043,1.75,2.084,4.205,3.127,7.368l-0.727,1.73c-0.708,1.265-1.58,2.139-2.622,2.624l-2.681-2.568
		C271.357,182.033,270.222,180.134,269.812,178.386"/>
	<path fill="#006359" d="M312.959,190.553c1.153,6.586,1.246,10.271,0.279,11.053c-0.856,0.707-3.461,0.427-7.815-0.837
		c-4.392-1.265-6.886-2.494-7.479-3.684c0.185-2.754,1.6-6.196,4.241-10.326c2.716-4.13,4.911-6.196,6.587-6.196
		C310.41,180.562,311.804,183.894,312.959,190.553"/>
	<path fill="#006359" d="M316.307,287.62c-0.149-2.121,1.153-5.153,3.908-9.099c2.678-3.868,4.613-5.73,5.805-5.581
		c1.785,0.187,3.013,3.926,3.684,11.22c0.633,7.33,0.056,11.294-1.73,11.889c-1.973,0.671-4.335,0.298-7.088-1.116
		C317.723,293.257,316.195,290.82,316.307,287.62"/>
	<path fill="#006359" d="M139.366,256.251l9.21,0.391c4.131,0.818,6.513,1.73,7.145,2.736c1.042,1.675,0.354,5.209-2.065,10.604
		c-2.382,5.358-4.391,8.112-6.029,8.261c-1.414,0.112-4.279-1.302-8.595-4.242c-4.354-2.939-6.512-4.985-6.476-6.14
		c0.037-1.489,0.763-3.609,2.177-6.364C136.297,258.409,137.841,256.661,139.366,256.251"/>
	<path fill="#006359" d="M192.45,208.416c0.967,1.674-0.597,6.326-4.689,13.953c-4.094,7.629-7.238,11.685-9.433,12.169
		c-2.01,0.484-5.284-0.391-9.825-2.623c-4.279-2.047-7.125-3.927-8.54-5.638c-0.445-0.56-0.149-2.196,0.893-4.912l1.676-3.963
		l7.478-5.916c5.062-3.982,7.89-6.047,8.485-6.196l6.978,0.614C189.566,206.61,191.89,207.448,192.45,208.416"/>
	<path fill="#FFFFFF" d="M249.104,188.433c1.19,0,2.231,1.172,3.126,3.517c0.894,2.493,1.321,5.6,1.284,9.322
		c-0.074,3.535-0.56,6.326-1.452,8.373c-0.819,1.858-1.824,2.79-3.013,2.79c-1.117,0-2.084-1.004-2.903-3.014
		c-0.893-2.121-1.378-4.8-1.452-8.037c-0.148-3.908,0.26-7.089,1.228-9.545C246.778,189.567,247.839,188.433,249.104,188.433"/>
	<path fill="#FFFFFF" d="M324.791,189.661l1.118-5.023c0.445-0.596,0.872-0.875,1.283-0.837c0.67,0.037,1.302,0.762,1.896,2.177
		c0.857,1.897,1.322,4.577,1.396,8.038c0.037,3.276-0.261,5.824-0.893,7.647c-0.597,1.637-1.34,2.456-2.233,2.456
		c-0.558,0-1.117-0.408-1.675-1.227c-0.595-0.893-1.004-2.066-1.227-3.517C324.011,196.806,324.121,193.568,324.791,189.661"/>
	<path fill="#0D131A" d="M301.014,142.328c-10.196-1.973-20.521-2.735-30.978-2.289c-11.238,0.447-21.563,2.27-30.979,5.47
		c-0.334,0.112-0.799-0.261-1.396-1.116c-0.633-0.856-0.78-1.358-0.445-1.507c10.68-3.61,22.253-5.544,34.719-5.806
		c10.939-0.26,20.931,0.763,29.974,3.07c4.613,1.19,6.809,2.064,6.586,2.623L301.014,142.328"/>
	<path fill="#0D131A" d="M331.156,157.901c7.554,10.94,13.062,23.629,16.521,38.067c3.014,12.58,3.76,22.308,2.231,29.193
		c-1.674,7.628-10.009,15.441-25.005,23.442c-14.884,7.964-29.267,12.373-43.146,13.229c-14.849,0.893-28.82-0.336-41.919-3.684
		c-13.097-3.35-21.545-7.87-25.341-13.564c-1.228-1.86-1.618-2.995-1.172-3.403c0.484-0.409,1.582,0.316,3.293,2.176
		c5.023,5.508,13.973,9.712,26.847,12.615c12.242,2.754,25.025,3.721,38.347,2.902c13.917-0.855,27.965-5.229,42.143-13.117
		c13.618-7.592,21.173-14.772,22.662-21.546c1.564-7.033,0.911-16.521-1.956-28.467c-3.198-13.359-8.315-25.379-15.347-36.058
		c-2.902-4.428-4.038-6.884-3.404-7.368C326.504,151.835,328.253,153.695,331.156,157.901"/>
	<path fill="#0D131A" d="M201.826,183.466c-2.456,4.614-7.424,10.104-14.903,16.466c-4.465,3.757-11.983,9.712-22.55,17.862
		c-9.638,7.665-17.08,14.419-22.326,20.262c-7.22,8.037-12.02,15.944-14.401,23.722c-2.866,9.341-3.013,19.835-0.445,31.48
		c2.381,10.979,5.766,17.752,10.159,20.317c4.725,2.754,11.089,3.964,19.089,3.63c8.261-0.337,13.973-2.271,17.135-5.806
		c4.875-5.471,6.773-14.326,5.693-26.57c-1.116-12.503-4.911-22.476-11.386-29.919c-2.531-2.938-3.61-4.723-3.238-5.356
		c0.372-0.633,1.954,0.538,4.745,3.515c8.149,8.745,12.689,19.444,13.619,32.098c0.855,12.018-1.657,21.32-7.537,27.907
		c-3.535,3.98-9.897,6.215-19.089,6.697c-8.894,0.485-15.945-0.799-21.155-3.852c-5.283-3.087-9.154-10.381-11.609-21.88
		c-2.494-11.834-2.25-22.773,0.725-32.82c2.271-7.59,6.755-15.2,13.452-22.83c4.875-5.581,11.926-12.111,21.154-19.592
		l22.885-18.532c8.261-7.107,14.419-13.638,18.477-19.591c0.185-0.261,0.521,0.056,1.004,0.949
		C201.845,182.553,202.013,183.167,201.826,183.466"/>
	<path fill="#0D131A" d="M215.502,134.179c2.307-0.744,6.195,0,11.666,2.233c5.508,2.27,10.028,5.042,13.563,8.317
		c2.791,2.604,3.869,4.074,3.237,4.409c-0.596,0.373-2.308-0.539-5.136-2.735c-3.647-2.754-7.869-5.08-12.669-6.977
		c-4.689-1.898-7.833-2.568-9.432-2.009c-2.606,0.856-5.619,7.461-9.042,19.814c-3.61,13.062-5.955,26.756-7.034,41.082
		c-0.296,4.13-0.818,6.029-1.562,5.694c-0.781-0.335-1.098-2.289-0.948-5.86c0.482-12.393,2.344-25.36,5.581-38.906
		C207.408,143.909,211.334,135.555,215.502,134.179"/>
	<path fill="#0D131A" d="M292.028,138.978c3.237-2.456,8.204-4.8,14.902-7.032c7.554-2.531,12.8-3.125,15.739-1.787
		c2.902,1.302,5.546,5.674,7.928,13.117c2.195,6.921,3.424,13.88,3.685,20.875c0,0.335-0.466-0.019-1.395-1.06
		c-0.97-1.042-1.452-1.749-1.452-2.121c-0.223-5.656-1.527-11.61-3.909-17.862c-2.27-5.954-4.37-9.377-6.307-10.27
		c-1.821-0.818-5.991-0.298-12.502,1.562c-6.587,1.861-11.275,3.852-14.066,5.973c-0.259,0.224-0.836,0.112-1.729-0.335
		C292.065,139.556,291.766,139.202,292.028,138.978"/>
	<path fill="#0D131A" d="M294.093,172.023c1.822-0.037,4.372-3.516,7.646-10.438c3.237-6.81,4.446-10.419,3.628-10.828
		c-1.824-0.93-6.345,0.427-13.564,4.074c-7.255,3.647-10.901,6.456-10.939,8.427c-0.037,1.229,1.562,2.959,4.801,5.192
		C288.977,170.683,291.786,171.874,294.093,172.023 M289.627,153.324c7.927-4.28,13.582-6.103,16.968-5.47
		c1.155,0.222,1.489,1.749,1.005,4.577c-0.446,2.605-1.452,5.656-3.014,9.154c-3.906,8.708-7.406,12.987-10.493,12.838
		c-2.455-0.149-5.731-1.563-9.824-4.243c-4.28-2.792-6.42-5.154-6.42-7.089C277.85,160.821,281.776,157.566,289.627,153.324"/>
	<path fill="#0D131A" d="M278.128,182.628c0.112-0.298-0.295-1.675-1.227-4.131c-0.931-2.494-1.602-3.759-2.008-3.796
		c-0.337-0.038-1.081,0.465-2.234,1.507c-1.152,1.042-1.729,1.823-1.729,2.345c0.036,0.484,0.818,1.749,2.344,3.795
		c1.526,1.973,2.419,2.958,2.68,2.958c0.223,0,0.614-0.372,1.173-1.117L278.128,182.628 M278.24,176.767
		c1.153,2.754,1.749,4.633,1.786,5.638c0.038,0.818-0.558,1.936-1.786,3.349c-1.264,1.452-2.213,2.028-2.846,1.73
		c-0.745-0.335-2.028-1.711-3.853-4.131c-1.974-2.568-2.884-4.335-2.735-5.302c0.148-1.006,1.023-2.27,2.623-3.796
		c1.6-1.452,2.809-2.158,3.627-2.121C275.914,172.209,276.976,173.753,278.24,176.767"/>
	<path fill="#0D131A" d="M308.382,182.182c-1.154-0.074-3.052,2.102-5.692,6.53c-2.569,4.391-3.704,7.015-3.405,7.87
		c0.297,0.781,2.399,1.73,6.308,2.847c3.943,1.116,6.195,1.415,6.752,0.893c0.857-0.818,0.689-4.037-0.502-9.657
		C310.652,185.083,309.497,182.255,308.382,182.182 M300.79,186.87c3.239-5.582,5.787-8.28,7.647-8.093
		c2.346,0.224,4.223,4.093,5.639,11.61c1.376,7.479,1.264,11.61-0.336,12.391c-1.376,0.707-4.408,0.279-9.097-1.284
		c-4.613-1.526-7.146-2.828-7.592-3.907C296.344,195.987,297.591,192.414,300.79,186.87"/>
	<path fill="#0D131A" d="M229.847,193.289c4.353-8.819,9.022-12.95,14.011-12.391c7.033,0.818,13.079,6.754,18.141,17.806
		c2.12,4.688,3.516,9.321,4.186,13.898c0.708,4.764,0.465,8.558-0.727,11.387c-0.634,1.563-3.014,2.604-7.144,3.124
		c-3.796,0.448-8.205,0.409-13.229-0.11c-5.062-0.522-9.377-1.433-12.95-2.735c-3.944-1.377-6.084-2.958-6.419-4.744
		C224.042,211.039,225.419,202.294,229.847,193.289 M256.081,194.07c-3.907-6.624-8.076-10.177-12.504-10.662
		c-1.748-0.187-3.646,0.781-5.692,2.903c-3.089,3.2-5.581,7.814-7.48,13.842c-2.009,6.549-2.604,12.819-1.785,18.811
		c0.298,2.308,5.86,4.056,16.688,5.247c10.829,1.228,16.708,0.764,17.639-1.396c0.967-2.345,0.8-6.437-0.503-12.278
		C261.067,204.434,258.946,198.945,256.081,194.07"/>
	<path fill="#0D131A" d="M338.3,189.604c-2.79-6.921-5.6-10.382-8.429-10.382c-2.493,0-4.019,5.897-4.578,17.693
		c-0.557,11.722,0.15,18.158,2.121,19.314c1.303,0.744,3.758,0.333,7.369-1.229c3.609-1.562,5.563-3.032,5.861-4.41
		C342.096,204.006,341.315,197.01,338.3,189.604 M322.669,195.968c0.634-12.875,3.034-19.312,7.201-19.312
		c3.609,0,7.106,3.852,10.493,11.554c3.537,8.112,4.522,15.685,2.96,22.719c-0.559,2.38-3.312,4.502-8.261,6.363
		c-4.801,1.822-7.853,2.176-9.153,1.06c-1.229-1.005-2.141-3.758-2.737-8.261C322.577,205.774,322.411,201.066,322.669,195.968"/>
	<path fill="#0D131A" d="M177.881,204.229l9.768,0.614c3.796,0.67,5.973,1.545,6.53,2.624c1.005,2.047-0.818,7.293-5.47,15.742
		c-4.651,8.521-8.205,12.781-10.66,12.781c-2.345,0-6.178-1.173-11.5-3.517c-5.619-2.456-8.428-4.465-8.428-6.029
		c0-0.892,0.408-2.231,1.228-4.018l2.679-5.247c0.186-0.298,0.688-0.484,1.506-0.558c0.856-0.038,1.191,0.093,1.005,0.39
		c-1.005,1.86-1.804,3.665-2.4,5.414c-0.521,1.526-0.781,2.624-0.781,3.293c0.149,1.005,2.549,2.55,7.2,4.633
		c4.54,2.047,7.685,3.09,9.434,3.126c1.637-0.521,4.316-4.316,8.037-11.387c3.722-7.07,5.321-11.386,4.801-12.949
		c-0.298-0.633-1.898-1.228-4.801-1.785l-8.651-0.614c-0.372,0.037-0.466-0.373-0.279-1.229
		C177.286,204.694,177.547,204.266,177.881,204.229"/>
	<path fill="#0D131A" d="M139.869,257.256c-1.153,0.557-2.473,2.103-3.962,4.632c-1.488,2.495-2.177,4.225-2.065,5.191
		c0.149,1.004,2.121,2.847,5.917,5.526c3.795,2.681,6.251,3.944,7.367,3.795c1.117-0.147,2.848-2.716,5.191-7.7
		c2.345-4.986,3.22-7.797,2.624-8.43c-0.669-0.67-3.107-1.452-7.313-2.345C143.349,257.031,140.762,256.809,139.869,257.256
		 M133.674,260.437c1.749-2.903,3.404-4.763,4.967-5.581l9.657,0.447c5.358,1.004,8.484,2.215,9.376,3.627
		c0.818,1.303-0.112,4.949-2.791,10.941c-2.679,5.954-4.874,9.246-6.585,9.879c-1.303,0.521-4.373-0.912-9.21-4.299
		c-4.912-3.422-7.499-6.103-7.759-8.037C131.144,265.739,131.926,263.414,133.674,260.437"/>
	<path fill="#0D131A" d="M317.535,287.509v0.056c0.074,3.089,1.583,5.34,4.521,6.754c2.642,1.266,4.429,1.471,5.357,0.613
		c0.969-0.893,1.303-4.278,1.005-10.157c-0.297-5.992-1.172-9.323-2.622-9.991c-0.782-0.335-2.363,1.34-4.745,5.023
		C318.707,283.491,317.535,286.057,317.535,287.509 M319.155,277.908c2.865-4.577,5.079-6.847,6.643-6.809
		c2.53,0.037,4.111,4.074,4.744,12.111c0.632,7.891,0.112,12.447-1.563,13.677c-1.377,1.04-3.888,0.854-7.535-0.561
		c-4.168-1.637-6.308-4.371-6.42-8.204C314.987,285.815,316.364,282.411,319.155,277.908"/>
	<path fill="#0D131A" d="M343.657,222.537c-0.037,1.452-0.242,2.642-0.614,3.573l-1.115,1.843
		c-1.823,2.157-6.178,4.874-13.062,8.148c-7.106,3.386-13.265,5.6-18.475,6.643c-9.489,1.934-24.057,2.103-43.704,0.503
		c-19.648-1.563-32.059-3.908-37.23-7.034c-0.855-0.558-1.636-1.47-2.344-2.735c-0.633-1.079-1.098-2.271-1.396-3.572
		c-0.559-2.344-0.595-3.666-0.112-3.964c0.484-0.297,1.247,0.782,2.288,3.238c0.633,1.452,1.303,2.567,2.01,3.35l2.232,1.675
		c4.168,2.27,15.312,4.278,33.436,6.028c19.609,1.897,34.383,1.843,44.318-0.168c4.465-0.93,9.768-2.734,15.908-5.413
		c5.692-2.494,9.954-4.763,12.782-6.811c1.042-0.781,1.805-1.581,2.287-2.399c0.523-0.855,0.855-1.898,1.006-3.125
		c0.261-2.232,0.634-3.275,1.115-3.127C343.472,219.374,343.696,220.491,343.657,222.537"/>
	<path fill="#0D131A" d="M259.039,176.712c1.303,1.19,2.567,2.642,3.795,4.354c1.303,1.786,2.233,3.405,2.792,4.856
		c0.818,2.084,0.855,3.256,0.11,3.517c-0.781,0.222-1.655-0.596-2.623-2.457c-1.6-3.163-3.552-6.028-5.859-8.595
		c-2.158-2.493-3.016-3.944-2.568-4.354C255.169,173.623,256.62,174.515,259.039,176.712"/>
	<path fill="#0D131A" d="M321.946,177.102c-0.707,2.047-1.153,4.242-1.339,6.586c-0.149,2.047-0.615,3.051-1.396,3.014
		c-0.783,0-1.117-1.005-1.006-3.014c0.111-2.456,0.744-4.874,1.898-7.256c1.041-2.121,1.805-3.125,2.287-3.014
		C322.839,173.567,322.691,174.796,321.946,177.102"/>
	<path fill="#0D131A" d="M297.442,235.599c-0.818-0.41-1.47-0.931-1.953-1.563c-0.484-0.595-0.652-1.023-0.503-1.284l1.729,0.057
		c1.079,0.222,1.88,0.576,2.4,1.061c0.671,0.67,0.8,1.247,0.391,1.73S298.409,236.082,297.442,235.599"/>
	<path fill="#0D131A" d="M316.475,232.808c-0.782,0.967-1.489,1.302-2.121,1.004c-0.632-0.297-0.67-0.911-0.111-1.843
		c0.41-0.669,1.061-1.264,1.953-1.785c0.819-0.521,1.34-0.688,1.564-0.502c0.149,0.148,0.111,0.539-0.112,1.173L316.475,232.808"/>
	<path fill="#0D131A" d="M249.382,183.075c0.337,0.112,0.486,0.651,0.448,1.618c-0.038,0.968-0.206,1.357-0.503,1.173
		c-1.897-1.19-3.685-0.279-5.359,2.735c-1.563,2.754-2.641,6.568-3.237,11.443c-0.633,5.024-0.559,9.713,0.223,14.066
		c0.931,4.947,2.66,8.482,5.191,10.604c0.297,0.225,0.112,0.56-0.56,1.006c-0.67,0.408-1.152,0.502-1.45,0.279
		c-3.052-2.271-5.154-6.029-6.308-11.274c-1.004-4.726-1.116-9.786-0.334-15.183c0.781-5.321,2.214-9.562,4.298-12.726
		C244.062,183.428,246.591,182.182,249.382,183.075"/>
	<path fill="#0D131A" d="M326.466,179.726c1.303-1.005,2.812-0.577,4.521,1.284c1.713,1.823,3.182,4.54,4.409,8.148
		c3.052,9.042,3.182,17.937,0.391,26.682c-0.111,0.333-0.539,0.576-1.283,0.724c-0.745,0.111-1.079,0-1.006-0.333
		c2.271-7.072,2.345-15.091,0.223-24.058c-0.855-3.61-1.916-6.456-3.181-8.541c-1.264-2.121-2.419-2.902-3.46-2.344
		c-0.299,0.186-0.54,0.018-0.727-0.503C326.168,180.303,326.205,179.949,326.466,179.726"/>
	<path fill="#0D131A" d="M322.337,249.052c-0.187-0.3,0.203-0.746,1.172-1.341c0.929-0.633,1.468-0.8,1.618-0.502
		c10.568,17.079,15.274,37.007,14.122,59.779c-0.112,2.121-1.731,4.317-4.858,6.586c-2.976,2.158-6.66,3.964-11.051,5.415
		c-10.643,3.498-18.643,3.366-24.001-0.392c-3.535-2.492-7.198-7.256-10.996-14.289c-3.646-6.735-5.508-11.851-5.581-15.35
		c0-0.335,0.521-0.707,1.562-1.116l1.508-0.167c0.074,3.46,1.804,8.355,5.189,14.68c3.61,6.734,7.238,11.387,10.885,13.955
		c4.65,3.237,11.665,3.329,21.042,0.278c3.795-1.227,6.998-2.754,9.602-4.577c2.717-1.86,4.111-3.573,4.187-5.136
		C337.817,285.592,333.015,266.315,322.337,249.052"/>
	<path fill="#0D131A" d="M291.134,284.438c-9.639,7.554-21.136,12.669-34.496,15.35c-12.392,2.455-23.461,2.325-33.211-0.392
		c-0.334-0.11-0.391-0.688-0.167-1.729c0.188-1.005,0.447-1.471,0.782-1.396c9.563,2.679,20.262,2.848,32.094,0.503
		c12.02-2.382,22.923-6.902,32.71-13.564c3.721-2.53,5.786-3.534,6.195-3.012C295.412,280.68,294.111,282.095,291.134,284.438"/>
	<path fill="#0D131A" d="M265.068,295.715c0.186-0.299,1.043-0.56,2.568-0.783l2.009,0.168c-2.902,4.763-6.495,8.912-10.773,12.447
		c-4.911,4.057-9.73,6.382-14.456,6.978l-16.744-0.502c-4.392-1.08-6.978-2.717-7.758-4.913c-0.112-0.334,0.167-0.892,0.836-1.673
		c0.633-0.818,1.005-1.062,1.117-0.727c0.744,2.083,3.032,3.646,6.866,4.688c4.168,1.153,9.284,1.358,15.351,0.615
		c3.533-0.447,7.273-2.215,11.218-5.304C259.207,303.658,262.463,299.991,265.068,295.715"/>
	<path fill="#0D131A" d="M135.181,112.912c0.297-0.223,1.024-0.223,2.177,0c1.786,0.335,3.349,1.135,4.688,2.4
		c0.298,0.224,0.317,0.578,0.056,1.061c-0.224,0.447-0.483,0.559-0.781,0.335c-0.781-0.67-1.545-1.116-2.289-1.338l-1.061-0.057
		l0.224,1.786l0.335,3.35c0.112,5.061-1.545,11.685-4.967,19.87c-2.679,6.513-6.122,13.248-10.326,20.207
		c-13.249,21.992-16.169,40.97-8.763,56.934c2.791,6.029,6.791,10.96,12.001,14.791c4.614,3.351,9.041,5.174,13.285,5.472
		c0.333,0.036,0.279,0.466-0.168,1.284c-0.409,0.854-0.8,1.265-1.172,1.227c-4.949-0.336-9.898-2.289-14.848-5.861
		c-5.507-4.018-9.694-9.228-12.558-15.627c-7.443-16.597-4.224-36.375,9.656-59.335c6.55-10.865,10.997-19.797,13.341-26.793
		c2.494-7.404,2.902-13.414,1.228-18.028C134.902,113.731,134.883,113.173,135.181,112.912"/>
	<path fill="#0D131A" d="M164.094,110.959c0.26,0.26,0.26,0.669,0,1.227c-0.26,0.596-0.521,0.763-0.781,0.503
		c-2.792-2.903-6.42-5.229-10.884-6.978c-4.204-1.6-7.982-2.307-11.331-2.121c-1.563,0.112-2.4,0.316-2.512,0.614
		c-0.112,0.261,0.261,1.06,1.116,2.4c4.056,6.401,4.169,15.852,0.335,28.355c-2.084,6.698-5.34,15.034-9.769,25.006
		c-6.549,17.229-7.07,32.598-1.562,46.105c2.27,5.583,5.414,10.308,9.433,14.177c3.722,3.609,7.739,6.048,12.056,7.312
		c0.296,0.074,0.075,0.446-0.671,1.116c-0.744,0.633-1.284,0.911-1.618,0.837c-11.424-3.35-19.257-11.869-23.499-25.564
		c-4.428-14.178-3.349-29.286,3.238-45.325l4.912-11.107c2.344-5.433,4.112-10.177,5.303-14.233
		c3.646-12.205,3.219-21.192-1.285-26.96c-1.525-1.973-2.232-3.238-2.121-3.796c0.112-0.632,1.228-1.079,3.35-1.339
		c3.981-0.521,8.447,0.093,13.396,1.842C156.447,104.893,160.745,107.535,164.094,110.959"/>
	<path fill="#0D131A" d="M160.187,100.186l2.065,1.675c0.224,0.261,0.168,0.8-0.167,1.618c-0.335,0.782-0.613,1.043-0.837,0.782
		l-1.172-1.396c-0.67-0.669-1.172-0.93-1.507-0.781c-0.297,0.149-0.409,0.632-0.334,1.451l0.502,3.182
		c0.075,0.298-0.225,0.447-0.893,0.447c-0.671-0.038-1.024-0.223-1.061-0.559l-0.559-3.46c-0.149-1.898,0.149-3.145,0.893-3.74
		C157.749,98.921,158.773,99.181,160.187,100.186"/>
	<path fill="#0D131A" d="M245.81,115.927c8.001,6.437,12.206,14.214,12.615,23.332c0.038,0.371-0.446,0.65-1.451,0.837
		c-1.005,0.222-1.507,0.149-1.507-0.224c-0.371-8.335-4.132-15.536-11.274-21.601c-8.595-7.292-20.616-11.219-36.058-11.777
		c-13.21-0.484-22.661-1.954-28.356-4.41c-4.614-1.972-7.944-5.302-9.99-9.991c-0.446-1.005-0.819-1.543-1.117-1.619
		c-0.335-0.111-0.875,0.261-1.619,1.116c-2.492,2.754-3.963,6.122-4.41,10.103c-0.446,4.093,0.409,7.275,2.567,9.545
		c4.354,4.465,7.797,9.73,10.326,15.796c1.562,3.758,3.46,10.029,5.693,18.81c2.717,10.68,5.712,18.625,8.986,23.835
		c2.643,4.205,6.512,8,11.61,11.387c0.224,0.112,0.075,0.651-0.445,1.618c-0.484,0.93-0.875,1.303-1.172,1.116
		c-6.55-4.317-11.256-8.895-14.121-13.731c-2.643-4.465-5.192-11.722-7.646-21.769c-2.643-10.902-4.615-17.992-5.917-21.266
		c-2.009-5.172-5.042-9.86-9.098-14.066c-2.902-3.014-3.833-7.46-2.791-13.34c1.005-5.544,3.032-9.507,6.083-11.89
		c1.377-1.079,2.345-1.562,2.903-1.451c0.559,0.112,1.099,0.893,1.62,2.344c2.233,5.805,5.433,9.638,9.601,11.499
		c4.688,2.046,13.805,3.33,27.351,3.852C224.116,104.54,236.657,108.521,245.81,115.927"/>
	<path fill="#0D131A" d="M262.11,118.717c7.108,6.103,10.178,12.708,9.211,19.815c-0.037,0.334-0.597,0.484-1.675,0.446
		c-1.079-0.038-1.602-0.223-1.565-0.558c0.82-6.102-1.599-11.833-7.254-17.191c-6.513-6.14-15.573-9.638-27.184-10.494
		c-0.372-0.037-1.452-0.483-3.238-1.338c-1.822-0.893-2.567-1.339-2.231-1.339C242.536,108.057,253.848,111.609,262.11,118.717"/>
	<path fill="#7CBEB3" d="M173.973,262.558c2.009-7.851,4.82-13.73,8.429-17.638l41.36,12.057c3.61,13.768,3.962,26.886,1.06,39.351
		c-1.749,7.405-4.483,14.012-8.205,19.815c-2.009,3.163-6.103,5.248-12.28,6.251c-6.513,1.08-12.782,0.429-18.811-1.953
		c-4.392-1.712-7.833-5.897-10.326-12.559c-2.307-6.066-3.553-13.34-3.74-21.823C171.276,277.759,172.113,269.926,173.973,262.558"
		/>
	<path fill="#006359" d="M182.848,277.908c0.224-2.27,2.958-5.339,8.206-9.209c5.247-3.871,8.577-5.267,9.991-4.188
		c1.452,1.079,1.73,6.959,0.837,17.639c-0.893,10.679-2.251,16.094-4.074,16.243c-1.079,0.074-3.87-2.902-8.373-8.933
		C184.895,283.36,182.7,279.507,182.848,277.908"/>
	<path fill="#68A198" d="M172.913,264.903c0.187,15.962,3.778,29.266,10.772,39.909c6.697,10.307,15.07,15.981,25.118,17.023
		c-4.092,1.043-8.521,1.376-13.285,1.004c-9.526-0.743-15.945-4.688-19.257-11.832c-3.312-7.108-4.856-16.933-4.632-29.473
		L172.913,264.903"/>
	<path fill="#0D131A" d="M180.003,251.061c-4.837,8.298-7.033,20.188-6.586,35.667c0.484,16.112,3.87,26.477,10.159,31.09
		c4.279,3.125,10.009,4.373,17.191,3.741c6.922-0.633,11.499-2.531,13.731-5.693c5.062-7.182,8.373-15.852,9.935-26.012
		c1.415-9.154,1.229-17.86-0.557-26.123c-0.893-4.13-1.006-6.344-0.335-6.641c0.67-0.299,1.563,1.562,2.679,5.58
		c2.308,8.374,2.772,17.436,1.395,27.184c-1.488,10.605-4.893,19.703-10.214,27.293c-2.754,3.908-8.448,6.195-17.08,6.867
		c-8.448,0.633-14.812-0.614-19.09-3.741c-3.088-2.271-5.638-6.288-7.647-12.056c-1.935-5.509-3.106-11.835-3.516-18.978
		c-1.006-16.227,1.562-29.343,7.702-39.353c2.159-3.535,3.647-5.227,4.465-5.079C183.09,244.92,182.346,247.004,180.003,251.061"/>
	<path fill="#0D131A" d="M184.189,277.35c-0.075,1.303,1.841,4.948,5.749,10.94c3.982,6.103,6.531,9.079,7.646,8.931
		c1.229-0.186,2.233-5.229,3.014-15.126c0.781-9.936,0.594-15.313-0.56-16.132c-1.078-0.743-3.98,0.653-8.708,4.188
		C186.644,273.685,184.263,276.084,184.189,277.35 M181.621,276.79c0.111-2.715,3.219-6.139,9.321-10.269
		c5.991-4.018,9.583-5.47,10.772-4.355c1.972,1.898,2.53,8.354,1.675,19.369c-0.893,11.016-2.475,17.173-4.746,18.477
		c-1.562,0.93-4.818-2.01-9.767-8.819C183.927,284.42,181.51,279.619,181.621,276.79"/>
	<path fill="#FFFFFF" d="M139.535,316.255c-0.187-0.56,0.521-1.509,2.121-2.847c1.638-1.34,2.866-1.956,3.684-1.843
		c1.489,0.187,2.512,1.805,3.07,4.854c0.521,2.829,0.559,4.447,0.111,4.858c-0.521,0.483-1.972,0.185-4.354-0.895
		C141.6,319.23,140.056,317.854,139.535,316.255"/>
	<path fill="#FFFFFF" d="M156.169,320.44c-2.606-1.19-3.908-2.381-3.908-3.573c0-1.041,0.762-2.307,2.289-3.795
		c1.489-1.488,2.623-2.046,3.405-1.674c1.228,0.595,2.232,2.344,3.014,5.246c0.744,2.792,0.781,4.41,0.111,4.856
		C160.373,321.985,158.737,321.631,156.169,320.44"/>
	<path fill="#FFFFFF" d="M164.931,317.036c-0.26-1.936,0.446-3.721,2.121-5.359l2.624-1.897c1.375,0.596,2.455,2.381,3.237,5.358
		c0.707,2.679,0.875,4.242,0.503,4.689l-4.41-0.112C166.402,319.082,165.043,318.189,164.931,317.036"/>
	<path fill="#FFFFFF" d="M186.868,321.725c-0.075-0.968,0.261-2.01,1.005-3.125c0.893-1.34,2.028-1.991,3.405-1.955
		c1.377,0.038,2.437,0.561,3.182,1.563c0.595,0.93,0.855,2.066,0.781,3.404c-0.074,1.228-0.502,2.605-1.283,4.132
		c-0.745,1.526-1.34,2.288-1.787,2.288c-0.485,0-1.452-0.8-2.902-2.398C187.742,323.957,186.943,322.655,186.868,321.725"/>
	<path fill="#FFFFFF" d="M197.975,322.951c-0.112-1.822,0.39-3.329,1.508-4.521c0.893-1.004,1.786-1.506,2.679-1.506
		c0.669,0,1.452,0.502,2.345,1.506c0.893,1.043,1.451,2.084,1.674,3.126c0.149,0.67-0.019,1.824-0.503,3.461
		c-0.484,1.75-1.061,2.791-1.73,3.125c-0.669,0.371-1.786-0.038-3.349-1.228C198.924,325.688,198.05,324.366,197.975,322.951"/>
	<path fill="#FFFFFF" d="M208.971,322.617c-1.042-1.116-0.949-2.81,0.279-5.079c1.228-2.27,2.438-3.237,3.628-2.902
		c1.117,0.372,2.196,1.936,3.238,4.688c0.968,2.642,1.209,4.335,0.726,5.079c-0.447,0.67-1.6,0.818-3.461,0.446
		C211.483,324.44,210.014,323.697,208.971,322.617"/>
	<path fill="#FFFFFF" d="M227.949,312.46c-0.149-0.783,0.577-1.75,2.176-2.903c1.563-1.116,2.697-1.526,3.406-1.228
		c1.227,0.56,2.028,2.12,2.399,4.688c0.371,2.493,0.223,3.888-0.446,4.188c-0.671,0.295-1.991-0.059-3.964-1.062
		C229.401,315.025,228.21,313.797,227.949,312.46"/>
	<path fill="#FFFFFF" d="M243.075,316.255c-2.271-0.782-3.591-1.676-3.964-2.681c-0.333-0.855,0.243-2.084,1.73-3.683
		c1.489-1.564,2.567-2.195,3.239-1.897c1.3,0.557,2.214,1.991,2.734,4.298c0.446,2.009,0.483,3.386,0.112,4.129L243.075,316.255"/>
	<path fill="#FFFFFF" d="M249.159,311.622c-0.447-0.893,0.185-2.177,1.897-3.853c1.675-1.637,2.885-2.307,3.628-2.008
		c0.855,0.371,1.693,1.729,2.512,4.073c0.782,2.309,0.986,3.723,0.613,4.243l-4.242-0.111
		C251.113,313.37,249.644,312.588,249.159,311.622"/>
	<path fill="#FFFFFF" d="M312.457,320.218c-0.522-0.521-0.113-1.861,1.227-4.021c1.339-2.193,2.474-3.272,3.405-3.235
		c1.228,0.073,2.604,1.413,4.13,4.018c1.451,2.457,2.011,3.908,1.675,4.354c-0.409,0.521-1.991,0.689-4.744,0.503
		C315.284,321.649,313.387,321.11,312.457,320.218"/>
	<path fill="#FFFFFF" d="M324.623,317.146c-0.52-0.558-0.186-1.953,1.007-4.185c1.151-2.232,2.157-3.314,3.013-3.238
		c0.818,0.075,1.972,1.376,3.46,3.908c1.416,2.491,1.992,4.017,1.731,4.575c-0.336,0.559-1.693,0.763-4.075,0.614
		C327.23,318.673,325.517,318.115,324.623,317.146"/>
	<path fill="#FFFFFF" d="M333.947,312.012c-0.596-0.744-0.41-2.158,0.559-4.242c0.93-2.01,1.676-2.978,2.231-2.902
		c0.969,0.111,2.158,1.339,3.572,3.684c1.376,2.308,1.898,3.758,1.563,4.354c-0.26,0.633-1.433,0.875-3.516,0.727
		C336.159,313.482,334.692,312.94,333.947,312.012"/>
	<path fill="#DBDCDC" d="M141.935,313.072l2.456,3.07c1.637,2.27,2.549,4.038,2.735,5.303l-3.907-2.009
		c-2.568-1.451-3.778-2.495-3.628-3.126c0.148-0.633,0.596-1.358,1.339-2.177L141.935,313.072"/>
	<path fill="#DBDCDC" d="M154.493,313.295l2.121,2.623c1.488,2.084,2.475,3.964,2.958,5.639c-4.577-1.601-6.921-3.181-7.033-4.745
		c-0.075-0.967,0.224-1.843,0.893-2.623L154.493,313.295"/>
	<path fill="#DBDCDC" d="M172.019,320.218c-2.381-0.521-4.092-1.042-5.134-1.562c-1.191-0.56-1.861-1.248-2.009-2.066
		c-0.149-0.706,0-1.527,0.445-2.456l0.727-1.172c1.005,0.483,2.233,1.674,3.684,3.572
		C170.96,318.171,171.722,319.399,172.019,320.218"/>
	<path fill="#DBDCDC" d="M189.1,317.816l0.559,3.405c0.483,2.568,1.079,4.577,1.786,6.028l-2.121-1.841
		c-1.376-1.526-2.028-3.089-1.953-4.689c0.075-1.116,0.353-1.936,0.836-2.456C188.579,317.854,188.877,317.707,189.1,317.816"/>
	<path fill="#DBDCDC" d="M199.147,319.604l2.121,3.461l2.791,5.135c-1.042-0.334-2.084-0.818-3.126-1.451
		c-2.083-1.265-3.051-2.623-2.902-4.075c0.148-1.414,0.372-2.344,0.67-2.791L199.147,319.604"/>
	<path fill="#DBDCDC" d="M209.25,317.594l2.623,2.513c1.86,1.896,2.996,3.479,3.405,4.745l-3.46-1.118
		c-2.307-0.892-3.423-1.767-3.349-2.622l0.446-2.512L209.25,317.594"/>
	<path fill="#DBDCDC" d="M229.791,309.947c0.334,0.223,1.041,1.062,2.121,2.513c1.34,1.822,2.083,3.293,2.232,4.407l-4.02-1.897
		c-1.041-0.633-1.581-1.433-1.618-2.399c-0.038-0.708,0.167-1.358,0.614-1.953L229.791,309.947"/>
	<path fill="#DBDCDC" d="M240.23,310.281l1.843,1.285c1.413,1.302,2.641,3.014,3.684,5.135l-3.015-0.836
		c-2.046-0.744-3.181-1.601-3.405-2.57c-0.223-0.965-0.147-1.747,0.225-2.344L240.23,310.281"/>
	<path fill="#DBDCDC" d="M250.723,308.049l2.289,1.675c1.637,1.452,2.753,2.96,3.348,4.521l-3.181-0.445
		c-2.232-0.558-3.554-1.396-3.964-2.511c-0.224-0.522-0.129-1.173,0.278-1.955C249.867,308.589,250.277,308.16,250.723,308.049"/>
	<path fill="#DBDCDC" d="M313.907,315.919c3.125,1.489,5.638,3.35,7.535,5.582l-4.187,0.056c-2.79-0.147-4.242-0.706-4.354-1.675
		c-0.11-0.966,0.021-1.916,0.392-2.846L313.907,315.919"/>
	<path fill="#DBDCDC" d="M325.573,313.519c0.634,0.187,1.694,0.746,3.183,1.675c2.01,1.228,3.256,2.4,3.741,3.517l-3.908-0.168
		c-2.641-0.297-3.981-0.873-4.019-1.729c-0.073-0.818,0.075-1.619,0.446-2.398L325.573,313.519"/>
	<path fill="#DBDCDC" d="M334.391,308.049l2.459,1.508c1.822,1.265,3.087,2.604,3.795,4.018l-2.903-0.223
		c-2.009-0.296-3.256-0.8-3.741-1.508c-0.482-0.706-0.558-1.562-0.222-2.566L334.391,308.049"/>
	<path fill="#0D131A" d="M311.396,320.551c-0.298-1.077,0.297-2.808,1.786-5.188c1.488-2.422,2.772-3.647,3.852-3.686
		c1.079-0.037,2.587,1.377,4.522,4.242c1.895,2.791,2.716,4.689,2.455,5.693c-0.223,0.894-2.308,1.172-6.252,0.837
		C313.815,322.115,311.693,321.482,311.396,320.551 M315.024,316.197c-0.93,1.489-1.301,2.569-1.115,3.24
		c0.371,0.521,1.692,0.948,3.963,1.283c2.194,0.334,3.386,0.316,3.572-0.057c0.187-0.408-0.316-1.601-1.506-3.572
		c-1.266-2.009-2.253-3.033-2.959-3.069C316.569,313.984,315.917,314.709,315.024,316.197"/>
	<path fill="#0D131A" d="M332.662,317.762c0.225-0.335-0.261-1.527-1.451-3.573c-1.153-2.045-2.029-3.125-2.624-3.238
		c-0.446-0.037-1.078,0.745-1.897,2.345c-0.856,1.602-1.21,2.717-1.06,3.35c0.11,0.561,1.283,0.968,3.515,1.228L332.662,317.762
		 M328.865,308.44c1.192,0.148,2.606,1.804,4.244,4.968c1.562,3.013,2.177,4.874,1.842,5.581c-0.335,0.745-2.102,0.969-5.303,0.671
		c-3.274-0.335-5.246-0.967-5.915-1.897c-0.598-0.819-0.207-2.586,1.172-5.302C326.28,309.631,327.601,308.291,328.865,308.44"/>
	<path fill="#0D131A" d="M335.231,308.384c-0.56,1.264-0.67,2.308-0.336,3.126c0.15,0.446,1.136,0.799,2.96,1.061l2.957-0.168
		c0.224-0.372-0.166-1.452-1.172-3.236c-1.005-1.898-1.88-2.828-2.624-2.792C336.383,306.449,335.787,307.12,335.231,308.384
		 M334,306.988c1.154-2.121,2.143-3.182,2.961-3.182c1.376,0,2.828,1.545,4.354,4.634c1.487,2.976,2.009,4.838,1.562,5.582
		l-4.968,0.168c-3.052-0.372-4.706-0.896-4.969-1.564C332.383,311.175,332.737,309.295,334,306.988"/>
	<path fill="#0D131A" d="M203.948,319.213c-0.633-0.744-1.246-1.079-1.842-1.005c-0.855,0.037-1.619,0.576-2.289,1.619
		c-0.67,1.004-0.949,1.972-0.837,2.902c0.112,0.855,0.837,1.822,2.177,2.902c1.302,1.004,2.177,1.415,2.624,1.228
		c0.296-0.113,0.614-0.651,0.948-1.619c0.446-1.116,0.596-2.157,0.446-3.125C205.064,320.962,204.654,319.994,203.948,319.213
		 M198.143,318.487c1.265-1.86,2.641-2.734,4.13-2.622c1.079,0.074,2.047,0.633,2.903,1.674c0.855,1.042,1.396,2.326,1.62,3.852
		c0.26,1.489,0.148,3.108-0.335,4.855c-0.485,1.713-1.08,2.698-1.786,2.96c-0.893,0.333-2.327-0.149-4.299-1.452
		c-2.121-1.45-3.33-3.033-3.627-4.745C196.524,321.707,196.99,320.198,198.143,318.487"/>
	<path fill="#0D131A" d="M193.286,319.102c-0.484-0.671-1.024-1.042-1.619-1.116c-0.708-0.075-1.452,0.224-2.233,0.893
		c-0.818,0.671-1.229,1.396-1.229,2.177c0.037,0.969,0.577,2.122,1.619,3.461c0.931,1.266,1.619,1.898,2.065,1.898
		c0.41-0.037,0.855-0.577,1.34-1.619c0.521-1.041,0.799-2.084,0.836-3.124C194.105,320.7,193.845,319.846,193.286,319.102
		 M187.537,317.259c1.377-1.228,2.81-1.749,4.298-1.563c1.229,0.149,2.289,0.818,3.182,2.01c0.855,1.19,1.246,2.512,1.172,3.964
		c-0.037,1.189-0.502,2.715-1.396,4.575c-0.967,1.937-1.804,2.939-2.512,3.015c-0.818,0.111-2.102-0.838-3.852-2.846
		c-1.861-2.084-2.829-3.853-2.902-5.304C185.453,319.732,186.123,318.45,187.537,317.259"/>
	<path fill="#0D131A" d="M214.776,317.985c-0.855-1.191-1.637-1.788-2.344-1.788c-0.707-0.074-1.415,0.446-2.122,1.564
		c-0.744,1.152-1.022,2.232-0.836,3.237c0.186,0.893,1.228,1.674,3.125,2.345c1.823,0.596,2.884,0.763,3.182,0.502
		c0.261-0.223,0.316-1.004,0.167-2.345C215.801,320.05,215.408,318.878,214.776,317.985 M212.823,313.742
		c1.823,0.261,3.256,2.177,4.298,5.749c0.968,3.351,1.153,5.36,0.559,6.029l-5.247-0.334c-3.126-0.856-4.818-1.972-5.08-3.35
		c-0.297-1.526,0.13-3.275,1.284-5.248C209.902,314.468,211.297,313.519,212.823,313.742"/>
	<path fill="#0D131A" d="M173.918,314.691c0.931,3.572,1.023,5.581,0.279,6.028c-0.967,0.559-2.865,0.446-5.693-0.334
		c-2.939-0.818-4.577-1.805-4.911-2.959c-0.447-1.377,0.074-3.145,1.563-5.303c1.526-2.231,3.051-3.293,4.577-3.182
		C171.518,309.055,172.913,310.97,173.918,314.691 M165.936,316.534c0.112,0.781,1.136,1.489,3.07,2.121
		c1.86,0.595,2.996,0.706,3.405,0.334c0.297-0.261,0.13-1.508-0.503-3.741c-0.669-2.382-1.451-3.646-2.344-3.796
		c-0.744-0.109-1.564,0.392-2.455,1.509C166.104,314.151,165.713,315.343,165.936,316.534"/>
	<path fill="#0D131A" d="M153.6,316.867c0,0.857,1.024,1.75,3.07,2.681c2.009,0.893,3.163,1.135,3.461,0.725
		c0.334-0.408,0.242-1.617-0.279-3.628c-0.558-2.156-1.284-3.329-2.177-3.517c-0.855-0.186-1.75,0.206-2.679,1.175
		c-0.856,0.891-1.321,1.709-1.396,2.455V316.867 M153.545,312.46c1.6-1.49,3.015-2.121,4.241-1.899
		c1.861,0.335,3.202,2.289,4.019,5.86c0.782,3.387,0.8,5.397,0.056,6.03c-0.707,0.67-2.679,0.297-5.916-1.117
		c-3.387-1.414-5.004-3.015-4.855-4.799C151.2,315.269,152.019,313.912,153.545,312.46"/>
	<path fill="#0D131A" d="M250.277,310.841c0.11,0.743,1.189,1.451,3.238,2.121c1.972,0.634,3.087,0.78,3.349,0.446
		c0.261-0.336,0.094-1.489-0.503-3.461c-0.632-2.084-1.321-3.163-2.064-3.239c-0.633-0.074-1.488,0.41-2.567,1.451
		C250.649,309.24,250.163,310.133,250.277,310.841 M250.331,307.1c1.937-1.859,3.462-2.604,4.576-2.232
		c1.415,0.522,2.57,2.289,3.462,5.303c0.855,2.865,1.006,4.559,0.445,5.079c-0.558,0.484-2.382,0.316-5.47-0.503
		c-3.161-0.855-4.93-1.804-5.303-2.846C247.598,310.598,248.359,308.998,250.331,307.1"/>
	<path fill="#0D131A" d="M243.187,315.307c1.638,0.559,2.585,0.705,2.847,0.446c0.262-0.262,0.205-1.322-0.167-3.183
		c-0.41-1.973-0.987-3.052-1.73-3.237c-0.744-0.188-1.619,0.223-2.623,1.227c-1.005,1.043-1.414,1.954-1.229,2.735
		C240.508,314.077,241.476,314.746,243.187,315.307 M244.582,307.269c1.227,0.297,2.252,1.915,3.07,4.855
		c0.743,2.866,0.819,4.744,0.223,5.639c-0.372,0.557-2.028,0.316-4.968-0.726c-3.051-1.08-4.688-2.214-4.911-3.403
		c-0.261-1.193,0.445-2.624,2.121-4.299C241.829,307.622,243.318,306.933,244.582,307.269"/>
	<path fill="#0D131A" d="M231.912,315.193c1.637,0.894,2.623,1.227,2.957,1.004c0.299-0.186,0.337-1.265,0.113-3.236
		c-0.262-2.084-0.783-3.256-1.564-3.518c-0.743-0.26-1.637,0-2.678,0.782c-1.005,0.744-1.49,1.488-1.452,2.233
		C229.326,313.352,230.2,314.265,231.912,315.193 M234.034,307.379c1.562,0.337,2.491,2.178,2.79,5.525
		c0.26,3.164,0.072,4.97-0.559,5.414c-0.707,0.447-2.457-0.073-5.248-1.562c-2.828-1.563-4.298-2.922-4.41-4.074
		c-0.112-1.079,0.688-2.308,2.402-3.685C230.832,307.585,232.507,307.045,234.034,307.379"/>
	<path fill="#0D131A" d="M143.944,318.71c1.972,1.005,3.108,1.321,3.405,0.95c0.335-0.372,0.279-1.544-0.167-3.517
		c-0.484-2.046-1.061-3.163-1.73-3.351c-0.782-0.259-1.73,0.039-2.847,0.894c-1.117,0.857-1.674,1.692-1.674,2.511
		C140.968,316.83,141.972,317.669,143.944,318.71 M145.953,310.281c1.6,0.336,2.736,2.289,3.405,5.861
		c0.633,3.425,0.615,5.34-0.056,5.749c-1.154,0.781-3.238,0.372-6.252-1.228c-2.977-1.562-4.521-2.957-4.632-4.187
		c-0.149-1.415,0.726-2.882,2.624-4.409C142.903,310.578,144.54,309.985,145.953,310.281"/>
</g>
</svg>
