<?xml version="1.0" encoding="utf-8"?>
<!-- Generator: Adobe Illustrator 16.0.0, SVG Export Plug-In . SVG Version: 6.00 Build 0)  -->
<!DOCTYPE svg PUBLIC "-//W3C//DTD SVG 1.1//EN" "http://www.w3.org/Graphics/SVG/1.1/DTD/svg11.dtd">
<svg version="1.1" id="Layer_1" xmlns="http://www.w3.org/2000/svg" xmlns:xlink="http://www.w3.org/1999/xlink" x="0px" y="0px"
	 width="456px" height="415px" viewBox="0 0 456 415" enable-background="new 0 0 456 415" xml:space="preserve">
<g>
	<path fill="#68AE28" d="M291.346,97.553L86.47,256.157c-2.111,0.231-5.249-0.292-9.413-1.581
		c-5.22-1.644-10.173-4.076-14.864-7.305c-13.371-9.148-21.463-22.289-24.278-39.412c-2.758-16.418-0.236-34.042,7.565-52.866
		c2.577-6.214,5.746-12.638,9.5-19.263l6.862-11.523c5.571-9.909,10.176-19.703,13.812-29.379c6.04-16.186,7.68-28.151,4.925-35.891
		l2.814,0.353c2.113,0.411,3.814,1.172,5.104,2.288C88.319,59.701,87.826,57.5,87,54.979c-1.699-5.159-4.132-9.502-7.299-13.02
		l9.5-1.318c8.035,0.057,16.185,2.344,24.456,6.862l-0.617-4.836c-0.235-3.285,0.089-5.102,0.965-5.456
		c1.348-0.525,3.285,0.763,5.808,3.872c0.06-2.582,0.614-5.514,1.671-8.798c2.05-6.45,5.515-11.319,10.379-14.604l4.837,8.886
		c4.517,6.393,10.029,10.819,16.539,13.284c5.687,2.229,18.588,3.927,38.705,5.101c19.47,1.173,33.194,3.577,41.17,7.212l8.44,0.706
		c6.863,0.882,13.197,2.495,19.004,4.839C279.266,65.27,289.527,78.55,291.346,97.553"/>
	<path fill="#56931F" d="M43.985,225.103c-13.255-24.982-10.089-53.686,9.5-86.119c-9.91,26.214-6.568,47.18,10.025,62.896
		c7.215,6.806,16.305,11.787,27.271,14.957c10.732,3.048,22.108,4.045,34.132,2.988L83.918,256.86
		c-5.981-0.529-12.638-3.435-19.967-8.71C55.565,241.994,48.909,234.312,43.985,225.103"/>
	<path fill="#7CBEB3" d="M371.747,85.941c5.221,2.287,9.763,10.056,13.635,23.312c3.456,12.021,4.631,20.524,3.518,25.51
		c6.922,8.035,13.662,23.722,20.229,47.063c7.45,26.157,8.712,45.183,3.781,57.09c-1.581,3.813-6.213,9.001-13.898,15.568
		c-7.979,6.923-15.862,12.257-23.662,16.009l3.956,6.421c3.169,5.629,6.016,11.7,8.534,18.21
		c8.037,20.998,11.379,42.754,10.032,65.269c-0.412,7.159-6.341,13.022-17.775,17.595c-11.197,4.401-23.131,5.869-35.799,4.401
		c-4.281-0.585-9.939-5.602-16.979-15.041c-8.035-10.97-12.807-22.345-14.337-34.134c-10.73,6.216-19.79,10.413-27.183,12.581
		l-2.286,3.87c-1.993,3.168-4.339,6.096-7.036,8.797c-8.502,8.677-18.56,13.517-30.174,14.514c-11.551,1-20.521,0.089-26.916-2.723
		c-1.996-0.884-3.638-1.906-4.926-3.081l-1.232-1.497l-70.284,2.376l-7.215,6.335c-6.451,4.283-13.899,6.536-22.343,6.774
		c-11.554,0.354-20.642-0.706-27.271-3.166c-8.326-3.166-14.251-8.945-17.77-17.331c-5.102-12.082-7.798-25.922-8.092-41.519
		c-0.41-20.294,4.134-36.89,13.632-49.794c9.148-12.432,21.083-25.099,35.805-38c4.104-3.58,15.276-12.667,33.516-27.27
		c9.323-7.39,17.623-14.547,24.894-21.463c7.391-7.039,11.876-12.082,13.459-15.131c1.703-11.672,3.93-23.518,6.686-35.54
		c5.572-24.045,10.969-36.888,16.185-38.528c5.22-1.586,12.903,0.089,23.047,5.013c5.045,2.521,9.561,5.159,13.548,7.916l5.98-2.11
		c5.278-1.584,11.054-2.932,17.33-4.045c20.057-3.46,41.346-3.666,63.865-0.617c3.397-3.636,10.907-7.158,22.521-10.557
		C361.924,85.736,368.931,84.709,371.747,85.941"/>
	<path fill="#68A198" d="M387.669,120.953l1.757,13.809l-9.06-13.458c0.938-3.93,1.349-9.235,1.23-15.921l-0.529-8.796
		C383.77,102.392,385.966,110.515,387.669,120.953"/>
	<path fill="#68A198" d="M186.224,136.521c4.751-21.813,9.413-34.424,13.989-37.825c-1.113,12.667-1.494,25.188-1.144,37.561
		c0.233,7.271,1,18.355,2.289,33.252c0.762,8.855-0.148,16.715-2.729,23.575c-2.287,5.981-5.276,10.057-8.972,12.227
		c-3.637,2.113-6.627,1.642-8.971-1.409c-2.524-3.345-3.374-9.09-2.553-17.241C179.775,170.419,182.471,153.705,186.224,136.521"/>
	<path fill="#68A198" d="M345.004,360.134c4.515,8.442,9.911,13.724,16.186,15.835l-3.34,6.684
		c-8.854,1.763-16.683-0.555-23.486-6.946c-8.153-7.796-15.365-21.962-21.639-42.489c-10.146,6.158-21.405,10.762-33.781,13.812
		c-12.197,3.052-26.856,4.898-43.981,5.543c-2.696,0.88-4.664,2.759-5.893,5.629c-1.233,2.756-1.264,5.25-0.092,7.477l-4.927,5.807
		l-10.556-6.419c0.296-1.997,1.938-7.946,4.927-17.856c2.932-9.502,4.779-17.742,5.543-24.722
		c2.229-20.878-3.579-39.762-17.416-56.651c12.314,12.372,33.892,20.145,64.744,23.311c32.958,3.344,60.964,0.355,84.01-8.969
		c-7.39,4.751-12.668,12.139-15.837,22.169c-2.813,9.025-3.667,19.027-2.551,29.994C338.025,342.89,340.725,352.158,345.004,360.134
		"/>
	<path fill="#68A198" d="M59.376,309.639c2.522,20.588,13.782,33.811,33.779,39.675c7.683,2.227,15.774,3.05,24.279,2.465
		c7.742-0.528,14.104-2.053,19.088-4.571l6.42,21.637c-4.573,4.453-10.729,7.943-18.475,10.469
		c-15.479,5.041-31.054,2.843-46.712-6.6c-7.565-4.573-12.988-16.186-16.272-34.835c-1.057-6.275-1.761-12.639-2.111-19.089
		C59.085,313.395,59.085,310.344,59.376,309.639"/>
	<path fill="#FFFFFF" d="M247.713,166.256c2.289-0.41,4.718-0.032,7.307,1.143c-8.858,6.802-13.49,17.242-13.903,31.317
		c-0.408,12.845,2.522,24.897,8.796,36.156c-12.314-1.349-20.991-4.166-26.039-8.447c-1.465-1.289-2.079-4.892-1.848-10.817
		c0.235-6.156,1.32-12.608,3.254-19.353C230.324,178.304,237.803,168.31,247.713,166.256"/>
	<path fill="#D60040" d="M278.148,199.771c2.76,7.386,4.461,14.045,5.104,19.97c0.702,6.334,0,10.552-2.11,12.664
		c-1.409,1.409-5.189,2.376-11.349,2.905c-6.271,0.47-12.902,0.319-19.88-0.438c-6.271-11.263-9.206-23.312-8.798-36.156
		c0.413-14.074,5.045-24.514,13.905-31.315C263.752,171.447,271.466,182.236,278.148,199.771"/>
	<path fill="#D60040" d="M381.156,161.855c7.331,5.983,11.702,14.924,13.109,26.833c0.879,7.448,0.525,17.916-1.056,31.403
		c-2.582,1-5.076,1.672-7.48,2.023c-2.461,0.41-4.309,0.41-5.539,0c-3.46-1.114-5.188-9.972-5.188-26.565
		C374.946,178.6,376.993,167.369,381.156,161.855"/>
	<path fill="#FFFFFF" d="M381.156,161.855c1.06-1.464,2.173-2.315,3.342-2.549c5.688-1.23,11.203,5.716,16.538,20.847
		c5.223,15.014,6.247,25.746,3.081,32.196c-1.467,3.051-5.105,5.631-10.909,7.743c1.581-13.489,1.933-23.958,1.056-31.407
		C392.858,176.781,388.487,167.839,381.156,161.855"/>
	<path fill="#006359" d="M329.522,152.883c-1.7,0.646-6.127-1.141-13.28-5.363c-7.508-4.341-11.114-7.886-10.822-10.645
		c0.412-3.636,6.48-8.65,18.212-15.042c11.907-6.452,19.821-8.828,23.752-7.125c2.522,1.056,1.2,7.273-3.961,18.65
		C338.202,144.792,333.568,151.303,329.522,152.883"/>
	<path fill="#006359" d="M290.378,160.448c-0.176-0.762,0.705-2.198,2.639-4.309c1.992-2.167,3.78-3.459,5.367-3.871l1.935,2.725
		c1.646,2.757,3.284,6.627,4.93,11.613l-1.15,2.725c-1.114,1.994-2.489,3.372-4.131,4.137l-4.224-4.047
		C292.812,166.197,291.023,163.205,290.378,160.448"/>
	<path fill="#006359" d="M358.378,179.625c1.816,10.38,1.963,16.187,0.438,17.419c-1.35,1.113-5.455,0.674-12.316-1.319
		c-6.923-1.994-10.853-3.932-11.787-5.806c0.292-4.339,2.522-9.763,6.684-16.274c4.279-6.509,7.741-9.763,10.382-9.763
		C354.359,163.879,356.555,169.13,358.378,179.625"/>
	<path fill="#006359" d="M363.652,332.6c-0.236-3.342,1.82-8.122,6.158-14.339c4.221-6.1,7.27-9.03,9.15-8.796
		c2.812,0.296,4.747,6.189,5.805,17.685c0.999,11.549,0.091,17.8-2.726,18.735c-3.11,1.058-6.831,0.474-11.17-1.757
		C365.887,341.483,363.476,337.645,363.652,332.6"/>
	<path fill="#006359" d="M84.799,283.163l14.514,0.617c6.511,1.289,10.265,2.726,11.26,4.312c1.642,2.637,0.56,8.207-3.255,16.71
		c-3.753,8.444-6.919,12.786-9.5,13.021c-2.229,0.179-6.745-2.052-13.545-6.686c-6.863-4.631-10.264-7.856-10.205-9.676
		c0.058-2.347,1.2-5.688,3.43-10.03C79.961,286.565,82.394,283.81,84.799,283.163"/>
	<path fill="#006359" d="M168.457,207.776c1.523,2.637-0.942,9.971-7.391,21.991c-6.452,12.021-11.407,18.416-14.865,19.178
		c-3.169,0.762-8.328-0.616-15.484-4.134c-6.744-3.225-11.229-6.188-13.459-8.882c-0.702-0.884-0.236-3.462,1.407-7.745l2.642-6.245
		l11.785-9.32c7.977-6.276,12.434-9.533,13.373-9.766l10.996,0.967C163.912,204.931,167.574,206.252,168.457,207.776"/>
	<path fill="#FFFFFF" d="M257.743,176.285c1.876,0,3.516,1.847,4.927,5.543c1.409,3.928,2.082,8.825,2.023,14.691
		c-0.117,5.569-0.882,9.971-2.288,13.195c-1.29,2.93-2.873,4.397-4.749,4.397c-1.76,0-3.284-1.583-4.573-4.752
		c-1.407-3.34-2.173-7.564-2.289-12.665c-0.231-6.158,0.412-11.17,1.937-15.041C254.075,178.069,255.75,176.285,257.743,176.285"/>
	<path fill="#FFFFFF" d="M377.023,178.219l1.76-7.916c0.705-0.938,1.375-1.379,2.025-1.32c1.056,0.059,2.049,1.201,2.988,3.431
		c1.35,2.989,2.082,7.212,2.199,12.667c0.057,5.163-0.411,9.177-1.406,12.051c-0.942,2.579-2.115,3.872-3.522,3.872
		c-0.878,0-1.761-0.642-2.637-1.934c-0.938-1.408-1.585-3.257-1.935-5.542C375.793,189.479,375.966,184.377,377.023,178.219"/>
	<path fill="#0D131A" d="M339.551,103.624c-16.068-3.11-32.341-4.311-48.819-3.607c-17.711,0.706-33.984,3.577-48.821,8.62
		c-0.529,0.178-1.26-0.41-2.202-1.758c-0.999-1.349-1.227-2.14-0.701-2.375c16.83-5.688,35.071-8.738,54.718-9.149
		c17.239-0.41,32.988,1.203,47.238,4.839c7.271,1.875,10.731,3.252,10.377,4.134L339.551,103.624"/>
	<path fill="#0D131A" d="M387.054,128.165c11.905,17.242,20.586,37.241,26.038,59.994c4.749,19.826,5.923,35.155,3.514,46.008
		c-2.637,12.022-15.772,24.335-39.406,36.943c-23.457,12.55-46.125,19.501-67.997,20.848c-23.402,1.409-45.421-0.529-66.062-5.805
		c-20.64-5.28-33.956-12.405-39.937-21.376c-1.937-2.932-2.551-4.72-1.848-5.363c0.762-0.646,2.492,0.497,5.191,3.429
		c7.914,8.681,22.021,15.307,42.309,19.882c19.294,4.342,39.438,5.863,60.435,4.571c21.931-1.347,44.072-8.242,66.415-20.672
		c21.462-11.965,33.367-23.28,35.716-33.954c2.465-11.087,1.435-26.038-3.081-44.866c-5.039-21.053-13.104-39.996-24.187-56.826
		c-4.574-6.979-6.364-10.85-5.367-11.612C379.723,118.605,382.479,121.538,387.054,128.165"/>
	<path fill="#0D131A" d="M183.233,168.456c-3.871,7.271-11.701,15.923-23.486,25.95c-7.037,5.921-18.886,15.308-35.538,28.15
		c-15.191,12.08-26.917,22.726-35.185,31.936c-11.379,12.662-18.945,25.124-22.696,37.383c-4.517,14.721-4.749,31.261-0.7,49.613
		c3.752,17.304,9.086,27.976,16.009,32.019c7.448,4.342,17.479,6.249,30.084,5.722c13.02-0.53,22.021-3.58,27.005-9.152
		c7.683-8.621,10.674-22.576,8.971-41.871c-1.758-19.706-7.739-35.422-17.944-47.153c-3.988-4.631-5.689-7.443-5.103-8.438
		c0.586-1.001,3.08,0.845,7.478,5.537c12.843,13.782,19.999,30.645,21.464,50.585c1.348,18.94-2.612,33.597-11.878,43.981
		c-5.573,6.271-15.598,9.794-30.085,10.553c-14.016,0.766-25.129-1.26-33.339-6.069c-8.325-4.866-14.425-16.361-18.294-34.48
		c-3.932-18.651-3.547-35.891,1.141-51.725c3.581-11.961,10.647-23.954,21.2-35.981c7.683-8.794,18.794-19.087,33.339-30.874
		l36.067-29.208c13.02-11.2,22.724-21.494,29.12-30.876c0.292-0.411,0.821,0.09,1.582,1.497
		C183.264,167.016,183.527,167.983,183.233,168.456"/>
	<path fill="#0D131A" d="M204.787,90.781c3.636-1.172,9.762,0,18.386,3.52c8.681,3.577,15.801,7.945,21.374,13.107
		c4.399,4.104,6.098,6.42,5.101,6.949c-0.938,0.588-3.636-0.85-8.093-4.311c-5.749-4.341-12.402-8.006-19.966-10.996
		c-7.391-2.991-12.345-4.047-14.867-3.166c-4.105,1.349-8.854,11.759-14.25,31.227c-5.688,20.585-9.386,42.166-11.085,64.745
		c-0.467,6.509-1.288,9.501-2.46,8.973c-1.231-0.529-1.729-3.606-1.494-9.235c0.761-19.532,3.695-39.967,8.796-61.315
		C192.029,106.114,198.218,92.948,204.787,90.781"/>
	<path fill="#0D131A" d="M325.389,98.344c5.103-3.871,12.929-7.565,23.488-11.083c11.903-3.988,20.17-4.926,24.805-2.816
		c4.569,2.052,8.737,8.942,12.493,20.67c3.46,10.909,5.396,21.875,5.807,32.9c0,0.527-0.733-0.03-2.197-1.671
		c-1.527-1.643-2.287-2.756-2.287-3.342c-0.352-8.915-2.409-18.296-6.161-28.15c-3.577-9.384-6.888-14.778-9.938-16.186
		c-2.87-1.29-9.442-0.47-19.703,2.462c-10.382,2.932-17.771,6.071-22.169,9.413c-0.408,0.354-1.316,0.177-2.724-0.527
		C325.446,99.254,324.979,98.697,325.389,98.344"/>
	<path fill="#0D131A" d="M328.644,150.421c2.872-0.059,6.891-5.542,12.049-16.449c5.102-10.732,7.009-16.421,5.72-17.065
		c-2.876-1.467-10.001,0.673-21.378,6.42c-11.433,5.748-17.181,10.175-17.239,13.281c-0.058,1.937,2.461,4.663,7.567,8.183
		C320.581,148.311,325.008,150.187,328.644,150.421 M321.605,120.953c12.492-6.746,21.405-9.617,26.742-8.621
		c1.819,0.351,2.345,2.755,1.583,7.214c-0.704,4.106-2.287,8.912-4.749,14.427c-6.156,13.724-11.673,20.467-16.536,20.232
		c-3.869-0.235-9.032-2.463-15.482-6.687c-6.746-4.4-10.119-8.123-10.119-11.172C303.044,132.767,309.231,127.636,321.605,120.953"
		/>
	<path fill="#0D131A" d="M303.484,167.133c0.174-0.468-0.467-2.638-1.937-6.508c-1.467-3.932-2.524-5.925-3.164-5.981
		c-0.53-0.061-1.703,0.731-3.521,2.375c-1.815,1.642-2.724,2.873-2.724,3.695c0.058,0.763,1.291,2.756,3.694,5.982
		c2.404,3.11,3.812,4.662,4.224,4.662c0.352,0,0.968-0.586,1.848-1.76L303.484,167.133 M303.658,157.897
		c1.819,4.341,2.759,7.302,2.816,8.886c0.059,1.29-0.879,3.049-2.816,5.276c-1.99,2.29-3.486,3.197-4.484,2.728
		c-1.175-0.528-3.198-2.697-6.071-6.511c-3.112-4.045-4.546-6.831-4.311-8.356c0.232-1.585,1.61-3.577,4.133-5.981
		c2.522-2.29,4.426-3.401,5.716-3.342C299.994,150.715,301.668,153.148,303.658,157.897"/>
	<path fill="#0D131A" d="M351.162,166.432c-1.817-0.118-4.808,3.312-8.969,10.292c-4.048,6.92-5.838,11.057-5.367,12.403
		c0.469,1.231,3.78,2.727,9.94,4.487c6.212,1.758,9.761,2.229,10.641,1.407c1.351-1.29,1.086-6.363-0.788-15.219
		C354.739,171.005,352.92,166.548,351.162,166.432 M339.197,173.821c5.104-8.797,9.119-13.05,12.052-12.754
		c3.697,0.352,6.654,6.45,8.886,18.296c2.172,11.787,1.994,18.298-0.528,19.527c-2.169,1.113-6.944,0.44-14.336-2.024
		c-7.271-2.404-11.262-4.457-11.967-6.157C332.19,188.189,334.156,182.559,339.197,173.821"/>
	<path fill="#0D131A" d="M227.394,183.937c6.862-13.899,14.22-20.411,22.082-19.528c11.086,1.29,20.612,10.644,28.593,28.061
		c3.341,7.387,5.537,14.69,6.594,21.901c1.116,7.51,0.733,13.488-1.145,17.947c-0.999,2.461-4.751,4.102-11.259,4.923
		c-5.98,0.706-12.933,0.644-20.848-0.174c-7.979-0.823-14.779-2.258-20.408-4.311c-6.218-2.171-9.59-4.66-10.118-7.477
		C218.246,211.909,220.415,198.128,227.394,183.937 M268.739,185.166c-6.158-10.438-12.73-16.037-19.704-16.804
		c-2.757-0.295-5.747,1.232-8.973,4.575c-4.865,5.043-8.795,12.314-11.788,21.814c-3.166,10.322-4.102,20.203-2.812,29.646
		c0.471,3.638,9.234,6.394,26.3,8.272c17.065,1.934,26.332,1.202,27.799-2.203c1.521-3.694,1.26-10.142-0.793-19.347
		C276.597,201.5,273.254,192.849,268.739,185.166"/>
	<path fill="#0D131A" d="M398.312,178.128c-4.396-10.907-8.823-16.361-13.282-16.361c-3.928,0-6.336,9.292-7.216,27.883
		c-0.878,18.474,0.235,28.616,3.342,30.437c2.055,1.173,5.924,0.525,11.615-1.936c5.687-2.464,8.768-4.78,9.237-6.952
		C404.295,200.825,403.066,189.799,398.312,178.128 M373.682,188.159c0.998-20.292,4.78-30.434,11.347-30.434
		c5.687,0,11.198,6.07,16.535,18.208c5.573,12.785,7.127,24.718,4.665,35.806c-0.88,3.747-5.22,7.094-13.019,10.026
		c-7.567,2.87-12.376,3.429-14.429,1.67c-1.936-1.581-3.372-5.921-4.312-13.019C373.535,203.611,373.271,196.192,373.682,188.159"/>
	<path fill="#0D131A" d="M145.496,201.18l15.394,0.967c5.982,1.054,9.415,2.434,10.292,4.133c1.583,3.225-1.29,11.493-8.621,24.81
		c-7.33,13.43-12.93,20.145-16.799,20.145c-3.697,0-9.737-1.85-18.124-5.544c-8.854-3.869-13.282-7.037-13.282-9.502
		c0-1.405,0.642-3.516,1.936-6.332l4.221-8.268c0.294-0.472,1.086-0.764,2.375-0.881c1.349-0.059,1.876,0.146,1.584,0.614
		c-1.584,2.932-2.843,5.777-3.783,8.532c-0.819,2.406-1.231,4.137-1.231,5.191c0.235,1.583,4.019,4.019,11.347,7.303
		c7.155,3.226,12.111,4.867,14.868,4.927c2.58-0.821,6.802-6.802,12.666-17.946c5.866-11.144,8.387-17.943,7.566-20.408
		c-0.468-0.999-2.99-1.935-7.566-2.812l-13.633-0.967c-0.586,0.056-0.734-0.588-0.44-1.938
		C144.559,201.91,144.97,201.235,145.496,201.18"/>
	<path fill="#0D131A" d="M85.591,284.749c-1.819,0.875-3.897,3.312-6.244,7.3c-2.344,3.931-3.432,6.658-3.254,8.181
		c0.235,1.583,3.342,4.486,9.326,8.71c5.98,4.224,9.851,6.214,11.611,5.98c1.76-0.232,4.487-4.28,8.18-12.135
		c3.696-7.859,5.077-12.288,4.136-13.287c-1.054-1.056-4.896-2.286-11.525-3.694C91.074,284.391,86.997,284.043,85.591,284.749
		 M75.828,289.761c2.756-4.575,5.366-7.51,7.828-8.797l15.219,0.706c8.444,1.583,13.37,3.491,14.776,5.717
		c1.29,2.053-0.176,7.8-4.398,17.244c-4.222,9.385-7.681,14.572-10.378,15.567c-2.053,0.823-6.891-1.437-14.514-6.773
		c-7.741-5.394-11.817-9.62-12.227-12.666C71.84,298.116,73.072,294.452,75.828,289.761"/>
	<path fill="#0D131A" d="M365.587,332.424v0.089c0.116,4.869,2.495,8.416,7.127,10.645c4.163,1.995,6.979,2.32,8.44,0.966
		c1.527-1.404,2.055-6.741,1.587-16.006c-0.472-9.442-1.85-14.692-4.132-15.743c-1.233-0.529-3.725,2.109-7.479,7.913
		C367.435,326.096,365.587,330.137,365.587,332.424 M368.141,317.295c4.515-7.214,8.004-10.794,10.469-10.731
		c3.987,0.058,6.479,6.421,7.476,19.087c0.998,12.436,0.177,19.619-2.462,21.555c-2.173,1.641-6.127,1.349-11.876-0.882
		c-6.57-2.58-9.941-6.889-10.119-12.932C361.572,329.756,363.743,324.391,368.141,317.295"/>
	<path fill="#0D131A" d="M406.754,230.03c-0.057,2.29-0.381,4.165-0.965,5.63l-1.757,2.906c-2.874,3.397-9.738,7.683-20.589,12.842
		c-11.197,5.334-20.904,8.825-29.115,10.469c-14.957,3.048-37.912,3.314-68.877,0.792c-30.964-2.465-50.522-6.158-58.673-11.087
		c-1.349-0.877-2.58-2.316-3.697-4.307c-0.998-1.705-1.729-3.582-2.198-5.633c-0.88-3.691-0.937-5.775-0.179-6.249
		c0.765-0.468,1.967,1.235,3.605,5.104c0.998,2.289,2.055,4.046,3.168,5.279l3.521,2.641c6.569,3.576,24.128,6.741,52.692,9.498
		c30.905,2.99,54.188,2.907,69.844-0.265c7.037-1.463,15.396-4.307,25.071-8.529c8.971-3.931,15.686-7.508,20.144-10.732
		c1.645-1.23,2.847-2.491,3.604-3.782c0.825-1.347,1.349-2.992,1.585-4.927c0.412-3.516,1.002-5.157,1.757-4.928
		C406.464,225.047,406.816,226.808,406.754,230.03"/>
	<path fill="#0D131A" d="M273.399,157.81c2.053,1.876,4.047,4.163,5.981,6.862c2.053,2.816,3.517,5.368,4.4,7.652
		c1.289,3.285,1.347,5.131,0.171,5.542c-1.227,0.351-2.606-0.939-4.132-3.872c-2.521-4.985-5.6-9.5-9.231-13.545
		c-3.403-3.93-4.756-6.216-4.048-6.862C267.301,152.944,269.587,154.349,273.399,157.81"/>
	<path fill="#0D131A" d="M372.538,158.427c-1.113,3.226-1.815,6.686-2.109,10.379c-0.233,3.226-0.97,4.81-2.199,4.751
		c-1.233,0-1.759-1.583-1.587-4.751c0.176-3.871,1.171-7.681,2.992-11.434c1.641-3.342,2.845-4.925,3.604-4.751
		C373.947,152.855,373.713,154.793,372.538,158.427"/>
	<path fill="#0D131A" d="M333.922,250.618c-1.289-0.645-2.317-1.468-3.081-2.465c-0.762-0.938-1.026-1.612-0.79-2.024l2.725,0.09
		c1.701,0.35,2.964,0.91,3.781,1.672c1.058,1.057,1.264,1.966,0.618,2.725C336.529,251.377,335.447,251.377,333.922,250.618"/>
	<path fill="#0D131A" d="M363.917,246.219c-1.231,1.522-2.345,2.05-3.344,1.582c-0.995-0.469-1.056-1.438-0.177-2.905
		c0.646-1.055,1.673-1.99,3.08-2.814c1.293-0.818,2.114-1.081,2.466-0.788c0.236,0.232,0.174,0.851-0.178,1.849L363.917,246.219"/>
	<path fill="#0D131A" d="M258.182,167.839c0.529,0.177,0.766,1.026,0.705,2.549c-0.062,1.525-0.325,2.14-0.792,1.849
		c-2.992-1.876-5.81-0.44-8.447,4.309c-2.463,4.341-4.161,10.352-5.101,18.034c-0.998,7.918-0.88,15.307,0.352,22.167
		c1.468,7.797,4.192,13.369,8.182,16.712c0.468,0.357,0.177,0.883-0.882,1.587c-1.059,0.644-1.816,0.793-2.286,0.438
		c-4.809-3.577-8.124-9.502-9.94-17.769c-1.583-7.447-1.757-15.419-0.526-23.926c1.229-8.387,3.489-15.068,6.775-20.057
		C249.797,168.395,253.781,166.432,258.182,167.839"/>
	<path fill="#0D131A" d="M379.662,162.561c2.055-1.584,4.433-0.91,7.125,2.022c2.702,2.873,5.016,7.155,6.948,12.841
		c4.81,14.25,5.014,28.268,0.615,42.05c-0.174,0.523-0.849,0.908-2.02,1.142c-1.174,0.176-1.701,0-1.59-0.525
		c3.582-11.146,3.698-23.782,0.354-37.915c-1.349-5.69-3.019-10.176-5.012-13.46c-1.992-3.344-3.815-4.573-5.456-3.695
		c-0.471,0.294-0.851,0.028-1.145-0.792C379.194,163.47,379.252,162.914,379.662,162.561"/>
	<path fill="#0D131A" d="M373.158,271.817c-0.296-0.474,0.318-1.175,1.844-2.115c1.465-0.997,2.315-1.26,2.552-0.788
		c16.654,26.916,24.072,58.319,22.256,94.21c-0.177,3.344-2.728,6.802-7.655,10.38c-4.693,3.401-10.499,6.247-17.417,8.533
		c-16.773,5.515-29.382,5.306-37.822-0.616c-5.573-3.928-11.346-11.439-17.331-22.521c-5.749-10.615-8.681-18.68-8.797-24.194
		c0-0.525,0.82-1.113,2.463-1.757l2.376-0.263c0.115,5.454,2.843,13.171,8.177,23.137c5.688,10.611,11.408,17.943,17.157,21.993
		c7.325,5.101,18.382,5.245,33.16,0.437c5.979-1.933,11.026-4.34,15.131-7.212c4.282-2.932,6.479-5.633,6.598-8.096
		C397.552,329.404,389.982,299.021,373.158,271.817"/>
	<path fill="#0D131A" d="M323.979,327.585c-15.189,11.907-33.31,19.967-54.365,24.193c-19.528,3.869-36.973,3.664-52.339-0.619
		c-0.527-0.174-0.617-1.085-0.264-2.724c0.296-1.585,0.706-2.321,1.232-2.199c15.069,4.22,31.933,4.488,50.581,0.79
		c18.942-3.751,36.125-10.874,51.548-21.376c5.865-3.987,9.119-5.57,9.764-4.746C330.723,321.663,328.672,323.894,323.979,327.585"
		/>
	<path fill="#0D131A" d="M282.901,345.357c0.292-0.471,1.643-0.882,4.046-1.233l3.166,0.263
		c-4.573,7.509-10.235,14.046-16.977,19.617c-7.742,6.396-15.334,10.059-22.783,10.998l-26.388-0.79
		c-6.922-1.701-10.998-4.281-12.225-7.744c-0.178-0.525,0.262-1.405,1.318-2.634c0.998-1.291,1.584-1.674,1.76-1.148
		c1.17,3.284,4.777,5.748,10.818,7.389c6.57,1.817,14.631,2.14,24.194,0.971c5.568-0.705,11.462-3.493,17.68-8.359
		C273.664,357.874,278.796,352.095,282.901,345.357"/>
	<path fill="#0D131A" d="M78.202,57.265c0.469-0.352,1.615-0.352,3.432,0c2.814,0.527,5.278,1.788,7.389,3.782
		c0.471,0.353,0.499,0.912,0.087,1.673c-0.352,0.704-0.76,0.882-1.23,0.527c-1.229-1.056-2.436-1.76-3.605-2.109l-1.672-0.091
		l0.352,2.814l0.528,5.28c0.178,7.977-2.435,18.416-7.827,31.314c-4.222,10.265-9.649,20.878-16.274,31.846
		c-20.881,34.66-25.482,64.568-13.809,89.725c4.398,9.506,10.702,17.274,18.913,23.311c7.273,5.281,14.249,8.155,20.938,8.625
		c0.523,0.056,0.44,0.734-0.266,2.025c-0.645,1.346-1.261,1.993-1.847,1.934c-7.8-0.528-15.6-3.607-23.402-9.236
		c-8.679-6.334-15.276-14.547-19.79-24.63c-11.73-26.156-6.655-57.326,15.218-93.51c10.321-17.124,17.331-31.199,21.025-42.226
		c3.931-11.668,4.574-21.141,1.935-28.413C77.762,58.555,77.733,57.675,78.202,57.265"/>
	<path fill="#0D131A" d="M123.769,54.187c0.408,0.41,0.408,1.054,0,1.933c-0.41,0.938-0.821,1.202-1.231,0.792
		c-4.4-4.574-10.118-8.241-17.152-10.998c-6.627-2.522-12.58-3.636-17.857-3.342c-2.462,0.176-3.784,0.499-3.958,0.967
		c-0.178,0.41,0.41,1.671,1.758,3.782c6.392,10.088,6.57,24.983,0.528,44.686c-3.285,10.556-8.417,23.693-15.396,39.409
		c-10.321,27.153-11.141,51.373-2.462,72.662c3.578,8.797,8.533,16.244,14.866,22.343c5.866,5.687,12.197,9.533,19,11.523
		c0.468,0.116,0.118,0.704-1.057,1.76c-1.173,0.999-2.023,1.436-2.55,1.317c-18.004-5.28-30.349-18.706-37.034-40.287
		c-6.979-22.344-5.279-46.155,5.101-71.433l7.742-17.505c3.694-8.562,6.48-16.039,8.356-22.43
		c5.747-19.234,5.075-33.398-2.024-42.488c-2.404-3.11-3.518-5.104-3.344-5.981c0.177-0.996,1.935-1.701,5.278-2.111
		c6.275-0.821,13.314,0.148,21.114,2.903C111.716,44.626,118.491,48.789,123.769,54.187"/>
	<path fill="#0D131A" d="M117.611,37.207l3.255,2.64c0.352,0.412,0.265,1.261-0.262,2.551c-0.527,1.23-0.965,1.644-1.32,1.23
		l-1.847-2.198c-1.056-1.054-1.848-1.466-2.376-1.231c-0.468,0.235-0.643,0.996-0.525,2.288l0.792,5.013
		c0.119,0.47-0.353,0.706-1.407,0.706c-1.057-0.061-1.614-0.352-1.671-0.882l-0.882-5.453c-0.233-2.991,0.235-4.958,1.409-5.895
		C113.769,35.214,115.382,35.625,117.611,37.207"/>
	<path fill="#0D131A" d="M252.553,62.016c12.608,10.144,19.236,22.401,19.88,36.772c0.06,0.583-0.705,1.023-2.286,1.319
		c-1.586,0.35-2.376,0.236-2.376-0.352c-0.585-13.136-6.512-24.485-17.769-34.043c-13.544-11.493-32.489-17.681-56.826-18.56
		c-20.818-0.764-35.713-3.08-44.688-6.951c-7.271-3.109-12.519-8.354-15.743-15.745c-0.704-1.584-1.292-2.432-1.76-2.551
		c-0.528-0.175-1.379,0.411-2.553,1.758c-3.928,4.341-6.246,9.647-6.951,15.921c-0.704,6.45,0.646,11.465,4.045,15.044
		c6.862,7.036,12.288,15.333,16.274,24.894c2.461,5.922,5.453,15.805,8.971,29.643c4.282,16.832,9.002,29.353,14.163,37.565
		c4.166,6.626,10.263,12.607,18.298,17.944c0.353,0.177,0.117,1.026-0.701,2.551c-0.764,1.466-1.379,2.054-1.847,1.758
		c-10.323-6.803-17.739-14.017-22.254-21.64c-4.167-7.036-8.183-18.474-12.051-34.308c-4.165-17.181-7.271-28.354-9.325-33.514
		c-3.165-8.151-7.945-15.541-14.338-22.169c-4.572-4.751-6.041-11.757-4.398-21.023c1.584-8.738,4.78-14.983,9.588-18.738
		c2.169-1.702,3.696-2.461,4.576-2.288c0.88,0.175,1.732,1.407,2.551,3.693c3.52,9.148,8.564,15.189,15.132,18.123
		c7.387,3.224,21.756,5.249,43.103,6.071C218.363,44.069,238.128,50.344,252.553,62.016"/>
	<path fill="#0D131A" d="M278.239,66.412c11.203,9.619,16.042,20.028,14.515,31.229c-0.056,0.525-0.938,0.762-2.637,0.704
		c-1.701-0.061-2.524-0.351-2.467-0.88c1.293-9.618-2.522-18.648-11.433-27.092c-10.266-9.677-24.542-15.189-42.842-16.538
		c-0.585-0.059-2.29-0.76-5.104-2.108c-2.87-1.407-4.045-2.111-3.515-2.111C247.392,49.613,265.221,55.209,278.239,66.412"/>
	<path fill="#7CBEB3" d="M139.336,293.104c3.165-12.374,7.597-21.639,13.283-27.797l65.182,19
		c5.689,21.699,6.244,42.372,1.671,62.016c-2.753,11.669-7.062,22.082-12.928,31.226c-3.168,4.989-9.62,8.273-19.355,9.853
		c-10.263,1.705-20.145,0.679-29.646-3.077c-6.92-2.701-12.344-9.294-16.272-19.793c-3.638-9.559-5.601-21.024-5.895-34.393
		C135.086,317.057,136.404,304.716,139.336,293.104"/>
	<path fill="#006359" d="M153.324,317.295c0.352-3.578,4.661-8.418,12.932-14.514c8.269-6.101,13.517-8.301,15.745-6.6
		c2.289,1.699,2.726,10.966,1.319,27.799c-1.409,16.828-3.547,25.362-6.42,25.598c-1.702,0.116-6.1-4.573-13.197-14.078
		C156.55,325.883,153.091,319.813,153.324,317.295"/>
	<path fill="#68A198" d="M137.667,296.798c0.294,25.157,5.953,46.123,16.976,62.897c10.554,16.242,23.75,25.184,39.586,26.826
		c-6.448,1.646-13.428,2.171-20.936,1.585c-15.012-1.171-25.13-7.389-30.349-18.646c-5.22-11.203-7.652-26.688-7.3-46.449
		L137.667,296.798"/>
	<path fill="#0D131A" d="M148.841,274.983c-7.623,13.078-11.085,31.816-10.38,56.213c0.763,25.391,6.099,41.726,16.01,48.997
		c6.743,4.926,15.774,6.89,27.092,5.894c10.909-0.997,18.122-3.987,21.64-8.97c7.977-11.317,13.196-24.983,15.655-40.995
		c2.231-14.428,1.939-28.147-0.875-41.17c-1.409-6.507-1.586-9.998-0.527-10.466c1.054-0.472,2.461,2.463,4.221,8.796
		c3.637,13.196,4.37,27.477,2.199,42.84c-2.345,16.714-7.711,31.054-16.098,43.013c-4.341,6.16-13.312,9.763-26.917,10.822
		c-13.313,0.999-23.343-0.966-30.085-5.896c-4.866-3.58-8.886-9.91-12.051-18.999c-3.05-8.685-4.897-18.654-5.542-29.911
		c-1.585-25.571,2.461-46.241,12.138-62.018c3.403-5.57,5.749-8.236,7.036-8.006C153.706,265.308,152.532,268.589,148.841,274.983"
		/>
	<path fill="#0D131A" d="M155.437,316.415c-0.117,2.051,2.903,7.798,9.061,17.24c6.276,9.618,10.292,14.311,12.05,14.075
		c1.937-0.292,3.518-8.24,4.749-23.837c1.23-15.66,0.935-24.136-0.881-25.425c-1.699-1.17-6.274,1.03-13.725,6.601
		C159.307,310.64,155.554,314.419,155.437,316.415 M151.392,315.533c0.175-4.28,5.074-9.676,14.689-16.184
		c9.443-6.334,15.104-8.621,16.979-6.866c3.106,2.994,3.986,13.167,2.638,30.527c-1.408,17.359-3.899,27.063-7.48,29.119
		c-2.459,1.465-7.591-3.166-15.392-13.897C155.024,327.557,151.216,319.991,151.392,315.533"/>
	<path fill="#FFFFFF" d="M85.064,377.728c-0.295-0.882,0.819-2.378,3.34-4.486c2.583-2.113,4.518-3.082,5.808-2.904
		c2.347,0.295,3.958,2.846,4.837,7.65c0.821,4.457,0.882,7.009,0.175,7.654c-0.819,0.762-3.106,0.292-6.861-1.409
		C88.317,382.418,85.885,380.247,85.064,377.728"/>
	<path fill="#FFFFFF" d="M111.279,384.322c-4.108-1.875-6.16-3.75-6.16-5.629c0-1.641,1.2-3.636,3.607-5.98
		c2.346-2.344,4.134-3.228,5.366-2.638c1.935,0.937,3.517,3.695,4.75,8.271c1.174,4.397,1.231,6.949,0.176,7.65
		C117.905,386.758,115.324,386.201,111.279,384.322"/>
	<path fill="#FFFFFF" d="M125.087,378.958c-0.41-3.052,0.704-5.866,3.342-8.444l4.136-2.992c2.167,0.939,3.869,3.753,5.103,8.447
		c1.115,4.219,1.378,6.684,0.792,7.387l-6.95-0.178C127.405,382.183,125.265,380.777,125.087,378.958"/>
	<path fill="#FFFFFF" d="M159.661,386.348c-0.119-1.524,0.41-3.166,1.584-4.925c1.407-2.11,3.194-3.137,5.366-3.081
		c2.169,0.062,3.84,0.886,5.015,2.467c0.937,1.465,1.346,3.253,1.23,5.363c-0.116,1.937-0.793,4.105-2.022,6.511
		c-1.173,2.406-2.113,3.606-2.816,3.606c-0.766,0-2.289-1.261-4.574-3.78C161.038,389.865,159.776,387.814,159.661,386.348"/>
	<path fill="#FFFFFF" d="M177.165,388.282c-0.178-2.87,0.614-5.247,2.376-7.127c1.409-1.582,2.815-2.373,4.224-2.373
		c1.054,0,2.287,0.791,3.694,2.373c1.407,1.644,2.288,3.286,2.638,4.928c0.235,1.058-0.028,2.874-0.792,5.455
		c-0.765,2.758-1.671,4.398-2.727,4.927c-1.055,0.585-2.812-0.062-5.277-1.938C178.659,392.596,177.282,390.512,177.165,388.282"/>
	<path fill="#FFFFFF" d="M194.493,387.755c-1.642-1.759-1.494-4.428,0.442-8.004c1.935-3.578,3.84-5.101,5.716-4.575
		c1.76,0.588,3.461,3.055,5.103,7.39c1.525,4.165,1.905,6.832,1.144,8.002c-0.706,1.058-2.521,1.291-5.455,0.707
		C198.452,390.627,196.137,389.458,194.493,387.755"/>
	<path fill="#FFFFFF" d="M224.404,371.749c-0.236-1.233,0.908-2.759,3.429-4.575c2.464-1.759,4.25-2.404,5.368-1.935
		c1.934,0.881,3.197,3.34,3.781,7.387c0.585,3.928,0.35,6.125-0.704,6.6c-1.058,0.466-3.139-0.092-6.249-1.674
		C226.69,375.79,224.813,373.854,224.404,371.749"/>
	<path fill="#FFFFFF" d="M248.242,377.728c-3.58-1.233-5.661-2.639-6.249-4.224c-0.525-1.348,0.383-3.284,2.727-5.807
		c2.347-2.465,4.044-3.456,5.105-2.99c2.046,0.88,3.487,3.139,4.307,6.775c0.703,3.165,0.763,5.336,0.178,6.508L248.242,377.728"/>
	<path fill="#FFFFFF" d="M257.829,370.427c-0.707-1.409,0.29-3.431,2.988-6.071c2.639-2.581,4.549-3.637,5.718-3.164
		c1.349,0.583,2.669,2.725,3.96,6.417c1.231,3.642,1.555,5.87,0.967,6.689l-6.687-0.176
		C260.908,373.183,258.593,371.949,257.829,370.427"/>
	<path fill="#FFFFFF" d="M357.583,383.973c-0.822-0.819-0.176-2.931,1.935-6.335c2.11-3.457,3.898-5.158,5.367-5.099
		c1.934,0.114,4.104,2.227,6.509,6.332c2.288,3.872,3.166,6.161,2.638,6.864c-0.644,0.821-3.139,1.085-7.477,0.79
		C362.038,386.226,359.05,385.379,357.583,383.973"/>
	<path fill="#FFFFFF" d="M376.757,379.134c-0.819-0.881-0.292-3.081,1.588-6.597c1.814-3.52,3.399-5.224,4.748-5.103
		c1.292,0.117,3.108,2.171,5.455,6.158c2.231,3.927,3.14,6.332,2.728,7.213c-0.53,0.88-2.667,1.2-6.421,0.967
		C380.866,381.539,378.168,380.659,376.757,379.134"/>
	<path fill="#FFFFFF" d="M391.451,371.041c-0.938-1.173-0.646-3.401,0.882-6.686c1.467-3.168,2.643-4.693,3.516-4.571
		c1.527,0.174,3.401,2.108,5.63,5.803c2.169,3.64,2.99,5.926,2.463,6.865c-0.407,0.998-2.258,1.377-5.539,1.147
		C394.938,373.358,392.625,372.504,391.451,371.041"/>
	<path fill="#DBDCDC" d="M88.846,372.713l3.871,4.839c2.58,3.577,4.017,6.364,4.312,8.355l-6.158-3.164
		c-4.047-2.287-5.956-3.932-5.716-4.927c0.231-1.002,0.938-2.14,2.108-3.432L88.846,372.713"/>
	<path fill="#DBDCDC" d="M108.638,373.064l3.342,4.133c2.345,3.284,3.902,6.247,4.662,8.886c-7.211-2.522-10.907-5.012-11.082-7.477
		c-0.119-1.523,0.353-2.905,1.407-4.133L108.638,373.064"/>
	<path fill="#DBDCDC" d="M136.258,383.973c-3.751-0.819-6.449-1.642-8.091-2.459c-1.878-0.884-2.934-1.968-3.166-3.257
		c-0.235-1.113,0-2.409,0.7-3.871l1.147-1.847c1.584,0.762,3.519,2.637,5.806,5.629C134.589,380.746,135.79,382.683,136.258,383.973
		"/>
	<path fill="#DBDCDC" d="M163.177,380.189l0.882,5.365c0.76,4.048,1.699,7.216,2.812,9.501l-3.34-2.901
		c-2.17-2.406-3.196-4.869-3.078-7.39c0.116-1.757,0.556-3.05,1.318-3.869C162.356,380.247,162.825,380.018,163.177,380.189"/>
	<path fill="#DBDCDC" d="M179.01,383.006l3.342,5.453l4.397,8.097c-1.642-0.529-3.284-1.291-4.927-2.288
		c-3.283-1.991-4.808-4.133-4.573-6.421c0.233-2.229,0.586-3.694,1.057-4.399L179.01,383.006"/>
	<path fill="#DBDCDC" d="M194.934,379.838l4.132,3.963c2.93,2.988,4.722,5.483,5.366,7.477l-5.455-1.761
		c-3.636-1.405-5.395-2.783-5.276-4.133l0.703-3.959L194.934,379.838"/>
	<path fill="#DBDCDC" d="M227.305,367.788c0.527,0.35,1.642,1.672,3.342,3.961c2.114,2.87,3.285,5.188,3.52,6.944l-6.336-2.988
		c-1.641-1.001-2.49-2.262-2.551-3.784c-0.058-1.113,0.265-2.14,0.97-3.077L227.305,367.788"/>
	<path fill="#DBDCDC" d="M243.756,368.313l2.906,2.026c2.227,2.051,4.161,4.749,5.807,8.093l-4.752-1.317
		c-3.228-1.172-5.014-2.523-5.367-4.05c-0.353-1.521-0.232-2.753,0.354-3.692L243.756,368.313"/>
	<path fill="#DBDCDC" d="M260.294,364.796l3.604,2.639c2.581,2.288,4.34,4.664,5.277,7.126l-5.012-0.703
		c-3.519-0.879-5.603-2.199-6.246-3.959c-0.354-0.821-0.204-1.848,0.438-3.079C258.945,365.646,259.591,364.972,260.294,364.796"/>
	<path fill="#DBDCDC" d="M359.871,377.199c4.925,2.347,8.884,5.279,11.876,8.797l-6.599,0.087c-4.397-0.229-6.687-1.109-6.864-2.639
		c-0.172-1.522,0.035-3.019,0.619-4.486L359.871,377.199"/>
	<path fill="#DBDCDC" d="M378.255,373.417c1,0.294,2.67,1.176,5.017,2.636c3.168,1.938,5.132,3.785,5.896,5.544l-6.158-0.263
		c-4.163-0.47-6.272-1.376-6.335-2.724c-0.115-1.291,0.118-2.554,0.704-3.78L378.255,373.417"/>
	<path fill="#DBDCDC" d="M392.154,364.796l3.875,2.376c2.871,1.992,4.862,4.104,5.979,6.332l-4.575-0.35
		c-3.164-0.466-5.13-1.259-5.896-2.376c-0.76-1.113-0.88-2.463-0.35-4.046L392.154,364.796"/>
	<path fill="#0D131A" d="M355.911,384.498c-0.468-1.695,0.47-4.424,2.816-8.176c2.346-3.818,4.366-5.749,6.069-5.809
		c1.702-0.058,4.078,2.171,7.127,6.686c2.985,4.397,4.28,7.388,3.869,8.971c-0.352,1.409-3.638,1.848-9.851,1.318
		C359.725,386.963,356.381,385.967,355.911,384.498 M361.631,377.638c-1.465,2.343-2.049,4.048-1.757,5.105
		c0.585,0.821,2.665,1.492,6.245,2.021c3.457,0.528,5.337,0.497,5.63-0.091c0.295-0.642-0.496-2.522-2.373-5.629
		c-1.995-3.164-3.551-4.78-4.664-4.836C364.064,374.149,363.037,375.293,361.631,377.638"/>
	<path fill="#0D131A" d="M389.426,380.103c0.355-0.527-0.41-2.407-2.285-5.629c-1.819-3.224-3.197-4.925-4.135-5.104
		c-0.703-0.056-1.7,1.173-2.99,3.695c-1.349,2.525-1.907,4.284-1.671,5.281c0.173,0.884,2.021,1.523,5.537,1.935L389.426,380.103
		 M383.442,365.412c1.882,0.232,4.11,2.844,6.688,7.829c2.463,4.749,3.432,7.683,2.903,8.796c-0.529,1.176-3.311,1.527-8.355,1.061
		c-5.161-0.528-8.27-1.523-9.322-2.99c-0.939-1.292-0.325-4.077,1.848-8.354C379.368,367.289,381.45,365.177,383.442,365.412"/>
	<path fill="#0D131A" d="M393.476,365.323c-0.882,1.993-1.056,3.637-0.53,4.926c0.238,0.707,1.79,1.26,4.666,1.672l4.66-0.264
		c0.353-0.583-0.261-2.288-1.848-5.1c-1.583-2.99-2.963-4.456-4.135-4.4C395.292,362.275,394.351,363.331,393.476,365.323
		 M391.536,363.124c1.819-3.344,3.379-5.012,4.668-5.012c2.167,0,4.455,2.434,6.862,7.301c2.342,4.69,3.162,7.625,2.461,8.796
		l-7.831,0.265c-4.81-0.585-7.418-1.411-7.83-2.464C388.988,369.723,389.545,366.76,391.536,363.124"/>
	<path fill="#0D131A" d="M186.576,382.39c-0.998-1.172-1.963-1.701-2.903-1.584c-1.346,0.059-2.55,0.909-3.607,2.552
		c-1.056,1.583-1.494,3.108-1.319,4.573c0.177,1.347,1.319,2.87,3.432,4.571c2.052,1.583,3.432,2.23,4.134,1.937
		c0.469-0.178,0.968-1.024,1.495-2.552c0.704-1.759,0.94-3.399,0.704-4.927C188.335,385.146,187.689,383.623,186.576,382.39
		 M177.428,381.247c1.995-2.933,4.163-4.311,6.508-4.132c1.702,0.117,3.226,0.997,4.575,2.64c1.347,1.642,2.2,3.663,2.555,6.067
		c0.41,2.345,0.231,4.898-0.528,7.652c-0.764,2.698-1.703,4.25-2.815,4.664c-1.406,0.525-3.667-0.235-6.774-2.288
		c-3.343-2.284-5.248-4.78-5.716-7.479C174.877,386.319,175.613,383.943,177.428,381.247"/>
	<path fill="#0D131A" d="M169.775,382.214c-0.764-1.056-1.616-1.639-2.553-1.755c-1.115-0.118-2.289,0.35-3.52,1.405
		c-1.288,1.058-1.936,2.201-1.936,3.433c0.059,1.527,0.908,3.344,2.553,5.455c1.466,1.994,2.551,2.99,3.254,2.99
		c0.647-0.059,1.349-0.909,2.111-2.552c0.821-1.642,1.26-3.286,1.319-4.925C171.064,384.733,170.656,383.387,169.775,382.214
		 M160.714,379.312c2.169-1.938,4.428-2.759,6.772-2.467c1.936,0.237,3.607,1.291,5.014,3.17c1.349,1.875,1.965,3.957,1.848,6.247
		c-0.059,1.873-0.791,4.277-2.198,7.21c-1.523,3.052-2.845,4.631-3.958,4.751c-1.29,0.176-3.313-1.32-6.072-4.486
		c-2.932-3.284-4.459-6.071-4.573-8.358C157.431,383.209,158.486,381.188,160.714,379.312"/>
	<path fill="#0D131A" d="M203.642,380.454c-1.346-1.879-2.579-2.816-3.694-2.816c-1.113-0.117-2.229,0.701-3.343,2.463
		c-1.173,1.818-1.609,3.52-1.317,5.103c0.294,1.405,1.936,2.637,4.925,3.694c2.873,0.939,4.544,1.2,5.016,0.792
		c0.41-0.354,0.498-1.583,0.262-3.697C205.258,383.707,204.639,381.859,203.642,380.454 M200.563,373.767
		c2.874,0.411,5.133,3.433,6.775,9.062c1.525,5.281,1.817,8.446,0.88,9.5l-8.269-0.525c-4.928-1.35-7.593-3.106-8.006-5.281
		c-0.468-2.404,0.206-5.159,2.024-8.27C195.96,374.911,198.16,373.417,200.563,373.767"/>
	<path fill="#0D131A" d="M139.25,375.265c1.466,5.628,1.612,8.794,0.438,9.498c-1.523,0.879-4.514,0.705-8.971-0.527
		c-4.633-1.29-7.212-2.842-7.739-4.662c-0.706-2.171,0.115-4.956,2.463-8.356c2.405-3.516,4.808-5.188,7.211-5.014
		C135.468,366.381,137.667,369.4,139.25,375.265 M126.67,378.168c0.177,1.229,1.791,2.345,4.839,3.342
		c2.932,0.938,4.722,1.113,5.367,0.527c0.469-0.411,0.205-2.378-0.792-5.897c-1.057-3.752-2.288-5.747-3.697-5.98
		c-1.171-0.174-2.463,0.619-3.869,2.378C126.936,374.414,126.32,376.289,126.67,378.168"/>
	<path fill="#0D131A" d="M107.229,378.693c0,1.352,1.614,2.757,4.839,4.224c3.165,1.409,4.985,1.79,5.454,1.145
		c0.525-0.644,0.381-2.548-0.44-5.72c-0.878-3.396-2.024-5.243-3.431-5.542c-1.348-0.292-2.757,0.327-4.221,1.854
		c-1.351,1.402-2.083,2.692-2.203,3.868v0.171 M107.144,371.749c2.521-2.347,4.751-3.344,6.684-2.995
		c2.932,0.532,5.045,3.607,6.333,9.236c1.232,5.341,1.261,8.505,0.087,9.506c-1.113,1.056-4.222,0.468-9.323-1.761
		c-5.339-2.23-7.886-4.753-7.65-7.563C103.448,376.175,104.737,374.038,107.144,371.749"/>
	<path fill="#0D131A" d="M259.591,369.195c0.174,1.173,1.875,2.287,5.103,3.344c3.106,0.998,4.865,1.228,5.279,0.702
		c0.411-0.528,0.149-2.345-0.793-5.453c-0.997-3.284-2.081-4.985-3.251-5.105c-1.001-0.115-2.347,0.646-4.045,2.287
		C260.176,366.673,259.412,368.08,259.591,369.195 M259.678,363.298c3.052-2.93,5.454-4.102,7.213-3.518
		c2.229,0.825,4.046,3.608,5.455,8.357c1.347,4.516,1.583,7.185,0.701,8.006c-0.881,0.764-3.754,0.497-8.623-0.794
		c-4.982-1.346-7.768-2.842-8.355-4.488C255.367,368.812,256.567,366.292,259.678,363.298"/>
	<path fill="#0D131A" d="M248.416,376.233c2.581,0.882,4.074,1.111,4.488,0.703c0.412-0.411,0.323-2.081-0.261-5.014
		c-0.647-3.108-1.558-4.812-2.729-5.103c-1.172-0.297-2.552,0.354-4.133,1.935c-1.585,1.645-2.227,3.081-1.935,4.311
		C244.194,374.296,245.72,375.35,248.416,376.233 M250.614,363.567c1.935,0.469,3.553,3.017,4.84,7.652
		c1.169,4.515,1.291,7.476,0.352,8.886c-0.585,0.877-3.197,0.498-7.83-1.145c-4.81-1.704-7.388-3.489-7.739-5.364
		c-0.412-1.881,0.699-4.137,3.344-6.776C246.276,364.123,248.625,363.037,250.614,363.567"/>
	<path fill="#0D131A" d="M230.647,376.057c2.582,1.408,4.134,1.934,4.662,1.583c0.47-0.295,0.529-1.996,0.178-5.101
		c-0.412-3.284-1.233-5.132-2.467-5.543c-1.169-0.408-2.576,0-4.219,1.23c-1.585,1.172-2.348,2.343-2.287,3.519
		C226.573,373.154,227.95,374.593,230.647,376.057 M233.995,363.74c2.459,0.528,3.924,3.432,4.396,8.708
		c0.409,4.985,0.113,7.832-0.882,8.532c-1.113,0.705-3.872-0.116-8.271-2.465c-4.457-2.463-6.774-4.603-6.951-6.419
		c-0.177-1.697,1.084-3.638,3.785-5.807C228.947,364.065,231.586,363.215,233.995,363.74"/>
	<path fill="#0D131A" d="M92.011,381.597c3.108,1.585,4.898,2.082,5.367,1.498c0.527-0.585,0.44-2.433-0.263-5.543
		c-0.763-3.223-1.671-4.981-2.726-5.281c-1.232-0.406-2.727,0.062-4.489,1.409c-1.76,1.351-2.638,2.669-2.638,3.96
		C87.321,378.634,88.903,379.956,92.011,381.597 M95.179,368.313c2.522,0.53,4.311,3.607,5.365,9.238
		c0.999,5.396,0.969,8.417-0.087,9.061c-1.819,1.231-5.104,0.588-9.853-1.935c-4.692-2.464-7.125-4.66-7.299-6.599
		c-0.236-2.231,1.144-4.545,4.136-6.949C90.371,368.781,92.952,367.846,95.179,368.313"/>
</g>
</svg>
