<?xml version="1.0" encoding="utf-8"?>
<!-- Generator: Adobe Illustrator 16.0.0, SVG Export Plug-In . SVG Version: 6.00 Build 0)  -->
<!DOCTYPE svg PUBLIC "-//W3C//DTD SVG 1.1//EN" "http://www.w3.org/Graphics/SVG/1.1/DTD/svg11.dtd">
<svg version="1.1" id="Layer_1" xmlns="http://www.w3.org/2000/svg" xmlns:xlink="http://www.w3.org/1999/xlink" x="0px" y="0px"
	 width="456px" height="415px" viewBox="0 0 456 415" enable-background="new 0 0 456 415" xml:space="preserve">
<g>
	<path fill="#68AE28" d="M262.639,150.467l-115.013,89.037c-1.185,0.13-2.947-0.164-5.284-0.888
		c-2.931-0.923-5.711-2.288-8.345-4.101c-7.506-5.135-12.049-12.512-13.629-22.124c-1.548-9.217-0.132-19.111,4.247-29.678
		c1.447-3.489,3.226-7.095,5.333-10.814l3.853-6.469c3.127-5.563,5.712-11.061,7.753-16.493c3.391-9.086,4.311-15.803,2.765-20.148
		l1.58,0.198c1.186,0.231,2.141,0.658,2.865,1.284c-0.1-1.053-0.377-2.289-0.84-3.704c-0.954-2.896-2.32-5.334-4.098-7.309
		l5.333-0.74c4.511,0.032,9.086,1.316,13.729,3.852l-0.346-2.715c-0.132-1.844,0.05-2.864,0.542-3.062
		c0.757-0.295,1.844,0.428,3.26,2.173c0.034-1.449,0.345-3.095,0.938-4.939c1.151-3.621,3.096-6.354,5.827-8.198l2.715,4.988
		c2.536,3.589,5.63,6.074,9.285,7.457c3.192,1.251,10.435,2.205,21.728,2.864c10.93,0.658,18.634,2.008,23.112,4.049l4.739,0.396
		c3.852,0.495,7.408,1.4,10.668,2.716C255.858,132.344,261.618,139.799,262.639,150.467"/>
	<path fill="#56931F" d="M123.776,222.071c-7.441-14.025-5.664-30.139,5.333-48.346c-5.563,14.716-3.687,26.486,5.628,35.308
		c4.05,3.82,9.153,6.618,15.309,8.396c6.025,1.712,12.411,2.271,19.161,1.678l-23.013,20.791c-3.358-0.296-7.095-1.927-11.209-4.889
		C130.277,231.553,126.54,227.24,123.776,222.071"/>
	<path fill="#7CBEB3" d="M307.774,143.948c2.931,1.284,5.481,5.646,7.655,13.087c1.94,6.748,2.599,11.522,1.974,14.321
		c3.886,4.51,7.67,13.317,11.357,26.42c4.182,14.684,4.89,25.365,2.123,32.049c-0.888,2.141-3.488,5.053-7.803,8.74
		c-4.478,3.886-8.904,6.881-13.283,8.987l2.221,3.604c1.779,3.16,3.377,6.569,4.791,10.223c4.511,11.788,6.387,24.001,5.631,36.641
		c-0.231,4.018-3.559,7.31-9.978,9.877c-6.286,2.47-12.985,3.294-20.097,2.47c-2.403-0.328-5.58-3.144-9.531-8.443
		c-4.511-6.159-7.19-12.544-8.049-19.162c-6.023,3.489-11.109,5.845-15.259,7.062l-1.284,2.173c-1.119,1.778-2.436,3.422-3.95,4.938
		c-4.773,4.872-10.419,7.589-16.938,8.148c-6.485,0.561-11.521,0.05-15.111-1.529c-1.12-0.496-2.042-1.069-2.765-1.729l-0.692-0.84
		l-39.456,1.334l-4.05,3.556c-3.622,2.404-7.803,3.669-12.543,3.802c-6.486,0.199-11.588-0.396-15.309-1.777
		c-4.674-1.777-8-5.021-9.976-9.729c-2.864-6.782-4.378-14.552-4.543-23.308c-0.23-11.393,2.321-20.709,7.653-27.953
		c5.136-6.979,11.836-14.09,20.1-21.332c2.304-2.009,8.576-7.111,18.815-15.309c5.234-4.148,9.893-8.166,13.975-12.049
		c4.149-3.951,6.667-6.782,7.556-8.494c0.956-6.552,2.206-13.202,3.753-19.951c3.128-13.498,6.158-20.708,9.086-21.629
		c2.931-0.89,7.244,0.05,12.938,2.814c2.832,1.415,5.367,2.896,7.606,4.444l3.357-1.185c2.963-0.889,6.205-1.646,9.729-2.271
		c11.26-1.942,23.21-2.058,35.852-0.346c1.908-2.041,6.123-4.018,12.643-5.926C302.26,143.833,306.193,143.257,307.774,143.948"/>
	<path fill="#68A198" d="M316.713,163.603l0.986,7.752l-5.086-7.555c0.527-2.206,0.757-5.185,0.691-8.938l-0.297-4.938
		C314.523,153.183,315.757,157.743,316.713,163.603"/>
	<path fill="#68A198" d="M203.626,172.343c2.667-12.246,5.284-19.325,7.853-21.234c-0.625,7.111-0.839,14.14-0.642,21.086
		c0.131,4.082,0.561,10.304,1.285,18.667c0.428,4.971-0.083,9.383-1.532,13.234c-1.284,3.358-2.962,5.646-5.037,6.864
		c-2.042,1.186-3.72,0.922-5.036-0.791c-1.417-1.878-1.894-5.103-1.433-9.679C200.006,191.372,201.519,181.989,203.626,172.343"/>
	<path fill="#68A198" d="M292.762,297.874c2.534,4.74,5.563,7.704,9.085,8.89l-1.874,3.752c-4.971,0.989-9.366-0.312-13.185-3.9
		c-4.577-4.377-8.626-12.329-12.147-23.852c-5.696,3.456-12.017,6.041-18.964,7.754c-6.848,1.712-15.078,2.749-24.691,3.111
		c-1.514,0.494-2.618,1.548-3.308,3.16c-0.692,1.547-0.709,2.947-0.051,4.198l-2.766,3.259l-5.926-3.604
		c0.166-1.12,1.088-4.461,2.766-10.024c1.646-5.334,2.683-9.96,3.112-13.878c1.251-11.72-2.009-22.321-9.777-31.802
		c6.913,6.945,19.027,11.308,36.346,13.086c18.502,1.877,34.223,0.198,47.161-5.036c-4.148,2.667-7.111,6.815-8.89,12.445
		c-1.58,5.067-2.059,10.682-1.433,16.838C288.844,288.194,290.359,293.396,292.762,297.874"/>
	<path fill="#68A198" d="M132.416,269.528c1.416,11.557,7.737,18.98,18.963,22.272c4.313,1.25,8.855,1.712,13.63,1.384
		c4.346-0.298,7.918-1.153,10.715-2.567l3.604,12.146c-2.567,2.5-6.023,4.46-10.371,5.877c-8.69,2.831-17.433,1.596-26.223-3.704
		c-4.247-2.568-7.291-9.087-9.135-19.556c-0.593-3.522-0.988-7.095-1.185-10.716C132.253,271.636,132.253,269.923,132.416,269.528"
		/>
	<path fill="#FFFFFF" d="M238.145,189.035c1.284-0.23,2.648-0.018,4.101,0.642c-4.972,3.818-7.573,9.679-7.805,17.581
		c-0.229,7.211,1.416,13.976,4.938,20.297c-6.913-0.757-11.784-2.339-14.618-4.742c-0.822-0.724-1.167-2.747-1.037-6.073
		c0.132-3.456,0.741-7.078,1.827-10.864C228.383,195.799,232.581,190.188,238.145,189.035"/>
	<path fill="#D60040" d="M255.231,207.85c1.549,4.146,2.503,7.885,2.865,11.21c0.394,3.556,0,5.925-1.185,7.11
		c-0.791,0.791-2.913,1.334-6.371,1.631c-3.521,0.264-7.243,0.18-11.16-0.247c-3.521-6.321-5.168-13.086-4.938-20.296
		c0.231-7.901,2.832-13.762,7.805-17.58C247.149,191.949,251.478,198.006,255.231,207.85"/>
	<path fill="#D60040" d="M313.057,186.565c4.115,3.359,6.569,8.378,7.359,15.063c0.493,4.181,0.295,10.057-0.593,17.629
		c-1.449,0.561-2.849,0.939-4.199,1.135c-1.382,0.231-2.419,0.231-3.109,0c-1.943-0.625-2.913-5.597-2.913-14.912
		C309.57,195.965,310.72,189.66,313.057,186.565"/>
	<path fill="#FFFFFF" d="M313.057,186.565c0.594-0.822,1.219-1.3,1.876-1.431c3.193-0.691,6.289,3.209,9.284,11.703
		c2.931,8.428,3.507,14.453,1.729,18.074c-0.823,1.713-2.866,3.161-6.124,4.347c0.888-7.573,1.085-13.45,0.593-17.631
		C319.626,194.944,317.172,189.924,313.057,186.565"/>
	<path fill="#006359" d="M284.071,181.528c-0.955,0.362-3.44-0.641-7.456-3.011c-4.215-2.437-6.239-4.427-6.075-5.976
		c0.231-2.041,3.638-4.856,10.224-8.444c6.684-3.622,11.127-4.956,13.333-4c1.416,0.593,0.674,4.083-2.223,10.47
		C288.943,176.986,286.342,180.641,284.071,181.528"/>
	<path fill="#006359" d="M262.095,185.775c-0.098-0.428,0.396-1.234,1.482-2.419c1.119-1.217,2.122-1.942,3.013-2.173l1.086,1.53
		c0.923,1.548,1.844,3.72,2.767,6.519l-0.645,1.53c-0.626,1.119-1.397,1.893-2.319,2.322l-2.372-2.272
		C263.462,189.002,262.458,187.322,262.095,185.775"/>
	<path fill="#006359" d="M300.269,196.54c1.02,5.827,1.102,9.087,0.246,9.779c-0.757,0.625-3.062,0.378-6.914-0.741
		c-3.886-1.119-6.092-2.207-6.617-3.259c0.165-2.436,1.416-5.481,3.753-9.136c2.402-3.654,4.345-5.481,5.827-5.481
		C298.013,187.701,299.246,190.649,300.269,196.54"/>
	<path fill="#006359" d="M303.231,282.417c-0.133-1.876,1.021-4.559,3.457-8.05c2.369-3.423,4.081-5.069,5.136-4.938
		c1.579,0.166,2.665,3.475,3.259,9.928c0.561,6.484,0.051,9.992-1.53,10.518c-1.746,0.594-3.835,0.265-6.271-0.986
		C304.484,287.404,303.131,285.249,303.231,282.417"/>
	<path fill="#006359" d="M146.688,254.664l8.148,0.347c3.655,0.724,5.762,1.53,6.321,2.42c0.922,1.481,0.314,4.608-1.827,9.382
		c-2.107,4.74-3.884,7.177-5.333,7.309c-1.251,0.1-3.786-1.151-7.604-3.753c-3.853-2.6-5.762-4.41-5.729-5.432
		c0.033-1.317,0.674-3.193,1.926-5.631C143.972,256.574,145.338,255.027,146.688,254.664"/>
	<path fill="#006359" d="M193.652,212.344c0.855,1.48-0.529,5.597-4.149,12.345c-3.622,6.749-6.404,10.339-8.345,10.766
		c-1.779,0.428-4.675-0.346-8.692-2.32c-3.786-1.811-6.304-3.474-7.556-4.987c-0.394-0.496-0.132-1.943,0.79-4.347l1.483-3.506
		l6.616-5.233c4.478-3.523,6.98-5.351,7.507-5.482l6.173,0.543C191.1,210.746,193.156,211.488,193.652,212.344"/>
	<path fill="#FFFFFF" d="M243.775,194.665c1.053,0,1.974,1.037,2.766,3.112c0.791,2.205,1.169,4.954,1.136,8.247
		c-0.065,3.127-0.495,5.597-1.284,7.407c-0.725,1.645-1.614,2.47-2.666,2.47c-0.988,0-1.844-0.889-2.568-2.668
		c-0.79-1.876-1.219-4.246-1.285-7.11c-0.13-3.457,0.231-6.271,1.087-8.444C241.716,195.667,242.656,194.665,243.775,194.665"/>
	<path fill="#FFFFFF" d="M310.736,195.751l0.989-4.444c0.395-0.527,0.771-0.774,1.136-0.741c0.593,0.033,1.151,0.674,1.678,1.926
		c0.758,1.678,1.169,4.049,1.234,7.111c0.033,2.898-0.23,5.152-0.789,6.765c-0.529,1.448-1.187,2.174-1.977,2.174
		c-0.493,0-0.988-0.361-1.481-1.086c-0.526-0.79-0.889-1.828-1.086-3.111C310.046,202.072,310.143,199.208,310.736,195.751"/>
	<path fill="#0D131A" d="M289.7,153.875c-9.021-1.746-18.155-2.42-27.406-2.025c-9.943,0.396-19.078,2.008-27.408,4.839
		c-0.296,0.1-0.707-0.23-1.235-0.987c-0.561-0.757-0.689-1.201-0.394-1.333c9.448-3.193,19.688-4.905,30.717-5.136
		c9.678-0.23,18.519,0.675,26.519,2.716c4.081,1.053,6.024,1.826,5.826,2.321L289.7,153.875"/>
	<path fill="#0D131A" d="M316.367,167.652c6.684,9.679,11.557,20.906,14.617,33.679c2.666,11.13,3.326,19.736,1.973,25.828
		c-1.48,6.749-8.854,13.661-22.122,20.74c-13.168,7.045-25.893,10.947-38.172,11.703c-13.137,0.79-25.498-0.297-37.086-3.259
		c-11.587-2.964-19.062-6.964-22.42-12c-1.087-1.646-1.432-2.65-1.037-3.011c0.428-0.362,1.399,0.279,2.914,1.925
		c4.443,4.873,12.362,8.592,23.751,11.161c10.831,2.437,22.14,3.292,33.927,2.567c12.312-0.756,24.741-4.627,37.284-11.605
		c12.048-6.717,18.732-13.069,20.05-19.062c1.384-6.223,0.806-14.617-1.73-25.186c-2.829-11.819-7.356-22.453-13.578-31.901
		c-2.567-3.918-3.572-6.091-3.012-6.519C312.252,162.285,313.799,163.931,316.367,167.652"/>
	<path fill="#0D131A" d="M201.947,190.27c-2.173,4.082-6.569,8.939-13.185,14.568c-3.95,3.324-10.602,8.593-19.95,15.803
		c-8.528,6.781-15.111,12.757-19.752,17.927c-6.388,7.109-10.635,14.105-12.741,20.986c-2.536,8.265-2.666,17.549-0.393,27.852
		c2.106,9.714,5.101,15.705,8.987,17.975c4.181,2.437,9.812,3.508,16.889,3.212c7.309-0.298,12.362-2.01,15.16-5.138
		c4.313-4.84,5.992-12.674,5.036-23.506c-0.987-11.062-4.344-19.885-10.073-26.47c-2.239-2.6-3.194-4.179-2.865-4.738
		c0.329-0.561,1.729,0.475,4.198,3.108c7.21,7.738,11.227,17.204,12.049,28.398c0.757,10.633-1.466,18.861-6.668,24.69
		c-3.128,3.521-8.756,5.498-16.889,5.925c-7.868,0.429-14.107-0.707-18.716-3.408c-4.673-2.731-8.098-9.185-10.27-19.357
		c-2.207-10.47-1.991-20.148,0.641-29.037c2.01-6.715,5.977-13.447,11.901-20.198c4.313-4.937,10.551-10.715,18.716-17.333
		l20.247-16.396c7.309-6.288,12.757-12.066,16.347-17.333c0.164-0.231,0.461,0.05,0.888,0.84
		C201.964,189.462,202.112,190.005,201.947,190.27"/>
	<path fill="#0D131A" d="M214.047,146.665c2.041-0.658,5.48,0,10.321,1.976c4.873,2.008,8.871,4.46,11.999,7.358
		c2.47,2.304,3.423,3.604,2.864,3.901c-0.527,0.33-2.042-0.477-4.544-2.42c-3.227-2.437-6.962-4.494-11.208-6.173
		c-4.149-1.679-6.93-2.272-8.346-1.777c-2.305,0.757-4.971,6.601-8,17.53c-3.193,11.556-5.269,23.671-6.223,36.346
		c-0.262,3.654-0.723,5.334-1.381,5.038c-0.691-0.297-0.971-2.025-0.839-5.185c0.427-10.965,2.074-22.437,4.938-34.421
		C206.885,155.273,210.359,147.882,214.047,146.665"/>
	<path fill="#0D131A" d="M281.75,150.911c2.864-2.173,7.258-4.247,13.185-6.222c6.683-2.239,11.324-2.765,13.925-1.581
		c2.566,1.152,4.906,5.02,7.014,11.604c1.942,6.124,3.029,12.28,3.26,18.469c0,0.296-0.412-0.017-1.234-0.938
		c-0.857-0.922-1.284-1.547-1.284-1.876c-0.197-5.004-1.352-10.271-3.459-15.803c-2.008-5.268-3.866-8.296-5.579-9.086
		c-1.611-0.724-5.301-0.264-11.061,1.382c-5.828,1.646-9.976,3.408-12.445,5.284c-0.229,0.199-0.739,0.099-1.529-0.296
		C281.782,151.422,281.519,151.109,281.75,150.911"/>
	<path fill="#0D131A" d="M283.577,180.146c1.612-0.033,3.868-3.111,6.764-9.234c2.864-6.025,3.935-9.218,3.211-9.58
		c-1.614-0.823-5.614,0.378-12.001,3.604c-6.418,3.227-9.645,5.712-9.678,7.456c-0.032,1.087,1.382,2.618,4.248,4.594
		C279.051,178.961,281.536,180.014,283.577,180.146 M279.626,163.603c7.013-3.787,12.017-5.399,15.012-4.84
		c1.022,0.197,1.317,1.547,0.89,4.05c-0.396,2.305-1.285,5.003-2.667,8.099c-3.456,7.704-6.552,11.49-9.283,11.358
		c-2.172-0.132-5.07-1.383-8.691-3.754c-3.787-2.47-5.681-4.56-5.681-6.272C269.206,170.235,272.68,167.355,279.626,163.603"/>
	<path fill="#0D131A" d="M269.453,189.528c0.098-0.263-0.262-1.481-1.087-3.654c-0.823-2.207-1.417-3.326-1.776-3.358
		c-0.298-0.034-0.956,0.411-1.976,1.333s-1.53,1.613-1.53,2.075c0.032,0.428,0.725,1.547,2.074,3.358
		c1.35,1.746,2.14,2.617,2.371,2.617c0.197,0,0.543-0.329,1.038-0.988L269.453,189.528 M269.551,184.343
		c1.021,2.437,1.548,4.099,1.581,4.988c0.033,0.724-0.494,1.712-1.581,2.962c-1.117,1.285-1.957,1.795-2.518,1.531
		c-0.659-0.296-1.794-1.514-3.408-3.655c-1.747-2.271-2.552-3.835-2.42-4.691c0.131-0.89,0.905-2.008,2.32-3.358
		c1.416-1.285,2.485-1.909,3.209-1.876C267.494,180.311,268.434,181.677,269.551,184.343"/>
	<path fill="#0D131A" d="M296.219,189.134c-1.021-0.066-2.7,1.859-5.036,5.777c-2.272,3.885-3.277,6.207-3.012,6.963
		c0.263,0.691,2.122,1.531,5.58,2.519c3.488,0.987,5.48,1.251,5.974,0.79c0.758-0.724,0.609-3.572-0.443-8.544
		C298.227,191.701,297.205,189.199,296.219,189.134 M289.502,193.282c2.865-4.938,5.119-7.326,6.766-7.16
		c2.075,0.198,3.735,3.621,4.988,10.271c1.218,6.617,1.119,10.272-0.297,10.962c-1.218,0.625-3.899,0.247-8.048-1.136
		c-4.082-1.35-6.322-2.502-6.717-3.457C285.569,201.348,286.672,198.187,289.502,193.282"/>
	<path fill="#0D131A" d="M226.738,198.961c3.852-7.803,7.982-11.458,12.396-10.963c6.223,0.724,11.571,5.975,16.051,15.753
		c1.875,4.147,3.109,8.247,3.702,12.295c0.627,4.216,0.412,7.572-0.643,10.075c-0.561,1.382-2.667,2.303-6.32,2.764
		c-3.358,0.396-7.26,0.361-11.704-0.098c-4.479-0.462-8.296-1.268-11.457-2.42c-3.49-1.219-5.383-2.616-5.679-4.197
		C221.602,214.664,222.82,206.928,226.738,198.961 M249.948,199.651c-3.457-5.86-7.146-9.003-11.062-9.433
		c-1.547-0.166-3.226,0.691-5.036,2.568c-2.732,2.831-4.938,6.913-6.618,12.246c-1.777,5.795-2.303,11.342-1.578,16.643
		c0.264,2.042,5.184,3.588,14.764,4.643c9.58,1.086,14.782,0.675,15.605-1.236c0.855-2.074,0.708-5.694-0.445-10.861
		C254.359,208.82,252.482,203.964,249.948,199.651"/>
	<path fill="#0D131A" d="M322.688,195.7c-2.468-6.123-4.954-9.185-7.457-9.185c-2.205,0-3.556,5.217-4.05,15.653
		c-0.493,10.371,0.132,16.065,1.876,17.087c1.153,0.658,3.325,0.295,6.52-1.087c3.193-1.383,4.922-2.683,5.186-3.902
		C326.046,208.441,325.356,202.252,322.688,195.7 M308.86,201.331c0.561-11.391,2.684-17.085,6.37-17.085
		c3.193,0,6.287,3.408,9.283,10.222c3.129,7.177,4.001,13.876,2.619,20.1c-0.494,2.104-2.931,3.983-7.309,5.629
		c-4.248,1.612-6.947,1.925-8.099,0.938c-1.087-0.888-1.894-3.324-2.421-7.309C308.778,210.006,308.63,205.841,308.86,201.331"/>
	<path fill="#0D131A" d="M180.762,208.64l8.642,0.543c3.358,0.593,5.285,1.367,5.777,2.321c0.889,1.811-0.724,6.452-4.839,13.928
		c-4.115,7.539-7.259,11.308-9.431,11.308c-2.075,0-5.466-1.038-10.174-3.112c-4.971-2.172-7.456-3.95-7.456-5.334
		c0-0.789,0.36-1.974,1.086-3.555l2.37-4.641c0.165-0.265,0.609-0.429,1.333-0.494c0.757-0.034,1.053,0.082,0.889,0.344
		c-0.889,1.646-1.596,3.243-2.124,4.79c-0.46,1.351-0.691,2.322-0.691,2.914c0.132,0.889,2.256,2.256,6.37,4.1
		c4.017,1.811,6.799,2.733,8.347,2.765c1.448-0.461,3.818-3.818,7.11-10.074c3.293-6.255,4.708-10.073,4.248-11.456
		c-0.263-0.561-1.679-1.087-4.248-1.579l-7.653-0.543c-0.329,0.032-0.412-0.33-0.247-1.088
		C180.236,209.051,180.467,208.672,180.762,208.64"/>
	<path fill="#0D131A" d="M147.133,255.554c-1.021,0.492-2.188,1.86-3.505,4.099c-1.316,2.206-1.927,3.737-1.827,4.592
		c0.132,0.889,1.876,2.519,5.235,4.89c3.357,2.371,5.53,3.488,6.518,3.357c0.988-0.131,2.519-2.403,4.592-6.812
		c2.075-4.412,2.85-6.899,2.322-7.459c-0.592-0.593-2.749-1.284-6.47-2.074C150.211,255.354,147.922,255.158,147.133,255.554
		 M141.652,258.368c1.547-2.568,3.012-4.215,4.394-4.938l8.544,0.396c4.74,0.889,7.505,1.96,8.295,3.209
		c0.724,1.152-0.099,4.379-2.469,9.681c-2.37,5.268-4.312,8.18-5.826,8.739c-1.153,0.462-3.869-0.807-8.148-3.803
		c-4.346-3.027-6.634-5.4-6.864-7.11C139.413,263.059,140.105,261.002,141.652,258.368"/>
	<path fill="#0D131A" d="M304.317,282.318v0.05c0.065,2.733,1.4,4.725,4,5.976c2.337,1.12,3.918,1.302,4.739,0.542
		c0.857-0.789,1.153-3.784,0.89-8.985c-0.264-5.301-1.038-8.248-2.319-8.839c-0.692-0.297-2.091,1.185-4.198,4.443
		C305.353,278.765,304.317,281.034,304.317,282.318 M305.75,273.825c2.534-4.05,4.493-6.059,5.877-6.024
		c2.238,0.032,3.637,3.604,4.196,10.715c0.561,6.981,0.1,11.013-1.382,12.1c-1.219,0.921-3.439,0.757-6.667-0.495
		c-3.688-1.448-5.58-3.867-5.68-7.259C302.063,280.82,303.281,277.809,305.75,273.825"/>
	<path fill="#0D131A" d="M327.427,224.837c-0.032,1.285-0.214,2.338-0.542,3.16l-0.987,1.632c-1.613,1.907-5.466,4.312-11.557,7.209
		c-6.286,2.994-11.735,4.954-16.345,5.877c-8.396,1.711-21.283,1.86-38.666,0.444c-17.383-1.383-28.362-3.457-32.938-6.223
		c-0.757-0.493-1.448-1.301-2.075-2.419c-0.56-0.956-0.971-2.01-1.234-3.161c-0.494-2.073-0.526-3.243-0.1-3.508
		c0.429-0.263,1.104,0.693,2.024,2.865c0.56,1.285,1.153,2.271,1.778,2.964l1.976,1.482c3.688,2.008,13.546,3.784,29.581,5.332
		c17.349,1.679,30.42,1.632,39.209-0.148c3.95-0.822,8.642-2.418,14.074-4.788c5.036-2.207,8.806-4.215,11.309-6.026
		c0.922-0.69,1.597-1.398,2.023-2.123c0.463-0.756,0.757-1.679,0.89-2.765c0.231-1.974,0.562-2.896,0.986-2.767
		C327.264,222.039,327.462,223.027,327.427,224.837"/>
	<path fill="#0D131A" d="M252.565,184.294c1.152,1.053,2.271,2.337,3.357,3.852c1.152,1.581,1.975,3.013,2.47,4.296
		c0.724,1.844,0.756,2.88,0.097,3.111c-0.689,0.197-1.463-0.527-2.32-2.173c-1.415-2.799-3.143-5.333-5.183-7.604
		c-1.91-2.206-2.669-3.49-2.272-3.852C249.141,181.562,250.424,182.351,252.565,184.294"/>
	<path fill="#0D131A" d="M308.219,184.64c-0.625,1.811-1.02,3.753-1.185,5.827c-0.131,1.811-0.544,2.7-1.234,2.667
		c-0.693,0-0.988-0.889-0.891-2.667c0.099-2.173,0.658-4.312,1.68-6.419c0.921-1.876,1.597-2.765,2.023-2.667
		C309.01,181.512,308.878,182.6,308.219,184.64"/>
	<path fill="#0D131A" d="M286.54,236.394c-0.724-0.362-1.301-0.824-1.729-1.383c-0.428-0.526-0.576-0.905-0.444-1.137l1.529,0.051
		c0.955,0.196,1.664,0.51,2.123,0.938c0.595,0.593,0.709,1.104,0.347,1.53C288.004,236.821,287.396,236.82,286.54,236.394"/>
	<path fill="#0D131A" d="M303.379,233.925c-0.692,0.854-1.317,1.15-1.877,0.888c-0.559-0.263-0.593-0.807-0.099-1.631
		c0.363-0.592,0.939-1.118,1.729-1.58c0.725-0.46,1.186-0.607,1.384-0.443c0.132,0.131,0.098,0.477-0.1,1.038L303.379,233.925"/>
	<path fill="#0D131A" d="M244.021,189.924c0.298,0.099,0.43,0.576,0.396,1.431c-0.034,0.856-0.183,1.201-0.445,1.038
		c-1.679-1.053-3.261-0.247-4.741,2.419c-1.383,2.437-2.336,5.811-2.864,10.124c-0.56,4.445-0.494,8.593,0.198,12.444
		c0.823,4.377,2.353,7.505,4.592,9.382c0.263,0.2,0.1,0.495-0.495,0.89c-0.593,0.361-1.02,0.445-1.283,0.247
		c-2.699-2.009-4.56-5.334-5.58-9.975c-0.889-4.181-0.987-8.657-0.296-13.432c0.69-4.708,1.959-8.459,3.803-11.259
		C239.314,190.236,241.551,189.134,244.021,189.924"/>
	<path fill="#0D131A" d="M312.218,186.961c1.153-0.889,2.488-0.511,4,1.135c1.516,1.613,2.815,4.017,3.9,7.209
		c2.7,8,2.815,15.869,0.346,23.606c-0.098,0.294-0.477,0.51-1.134,0.641c-0.659,0.098-0.955,0-0.892-0.295
		c2.01-6.257,2.076-13.351,0.198-21.285c-0.757-3.194-1.695-5.712-2.814-7.556c-1.118-1.877-2.141-2.567-3.062-2.074
		c-0.265,0.165-0.478,0.016-0.643-0.445C311.955,187.471,311.987,187.159,312.218,186.961"/>
	<path fill="#0D131A" d="M308.566,248.295c-0.166-0.265,0.179-0.659,1.036-1.187c0.822-0.56,1.299-0.707,1.432-0.443
		c9.35,15.11,13.514,32.74,12.494,52.888c-0.099,1.877-1.531,3.818-4.298,5.827c-2.634,1.909-5.893,3.507-9.777,4.79
		c-9.416,3.095-16.494,2.979-21.233-0.346c-3.128-2.205-6.369-6.421-9.729-12.643c-3.227-5.959-4.873-10.485-4.938-13.581
		c0-0.296,0.461-0.625,1.382-0.987l1.334-0.147c0.065,3.061,1.596,7.393,4.591,12.988c3.193,5.957,6.403,10.074,9.631,12.347
		c4.113,2.863,10.319,2.944,18.615,0.245c3.357-1.085,6.191-2.437,8.495-4.049c2.404-1.646,3.637-3.162,3.704-4.545
		C322.261,280.623,318.012,263.567,308.566,248.295"/>
	<path fill="#0D131A" d="M280.959,279.602c-8.527,6.684-18.699,11.209-30.52,13.581c-10.963,2.172-20.756,2.057-29.382-0.347
		c-0.296-0.098-0.346-0.609-0.148-1.53c0.166-0.889,0.396-1.302,0.692-1.234c8.46,2.37,17.926,2.52,28.395,0.444
		c10.634-2.106,20.28-6.105,28.938-12c3.292-2.238,5.119-3.127,5.481-2.665C284.744,276.277,283.593,277.529,280.959,279.602"/>
	<path fill="#0D131A" d="M257.898,289.579c0.165-0.265,0.923-0.495,2.272-0.693l1.777,0.148c-2.567,4.215-5.746,7.885-9.53,11.013
		c-4.346,3.589-8.609,5.647-12.79,6.174l-14.814-0.443c-3.886-0.956-6.174-2.404-6.863-4.348c-0.1-0.296,0.147-0.789,0.74-1.479
		c0.56-0.724,0.889-0.94,0.988-0.644c0.657,1.843,2.682,3.226,6.073,4.147c3.688,1.02,8.214,1.201,13.582,0.545
		c3.126-0.396,6.435-1.961,9.925-4.693C252.713,296.606,255.594,293.362,257.898,289.579"/>
	<path fill="#0D131A" d="M142.985,127.85c0.263-0.197,0.906-0.197,1.926,0c1.58,0.296,2.963,1.004,4.148,2.123
		c0.264,0.198,0.28,0.512,0.049,0.939c-0.198,0.395-0.427,0.495-0.691,0.296c-0.69-0.593-1.367-0.988-2.024-1.184l-0.939-0.051
		l0.198,1.58l0.296,2.964c0.1,4.478-1.367,10.338-4.394,17.579c-2.37,5.763-5.417,11.721-9.136,17.878
		c-11.722,19.457-14.305,36.247-7.752,50.37c2.469,5.335,6.008,9.697,10.617,13.086c4.083,2.965,7.999,4.578,11.754,4.842
		c0.294,0.031,0.247,0.412-0.149,1.136c-0.362,0.756-0.708,1.119-1.037,1.086c-4.379-0.297-8.757-2.025-13.137-5.186
		c-4.872-3.555-8.576-8.165-11.11-13.825c-6.585-14.684-3.736-32.182,8.543-52.495c5.794-9.613,9.729-17.515,11.803-23.705
		c2.207-6.55,2.568-11.868,1.086-15.95C142.738,128.574,142.721,128.08,142.985,127.85"/>
	<path fill="#0D131A" d="M168.565,126.122c0.229,0.23,0.229,0.592,0,1.085c-0.23,0.527-0.461,0.675-0.691,0.445
		c-2.47-2.568-5.68-4.626-9.629-6.174c-3.72-1.416-7.062-2.041-10.025-1.876c-1.382,0.099-2.124,0.28-2.222,0.543
		c-0.1,0.23,0.23,0.938,0.987,2.123c3.588,5.663,3.688,14.025,0.296,25.086c-1.844,5.926-4.725,13.301-8.643,22.123
		c-5.794,15.243-6.254,28.84-1.382,40.79c2.008,4.939,4.79,9.12,8.345,12.543c3.293,3.193,6.847,5.352,10.666,6.469
		c0.263,0.066,0.066,0.396-0.593,0.988c-0.659,0.561-1.136,0.806-1.432,0.74c-10.107-2.964-17.037-10.501-20.79-22.617
		c-3.918-12.543-2.963-25.91,2.864-40.1l4.346-9.827c2.074-4.807,3.638-9.004,4.691-12.592c3.226-10.798,2.849-18.749-1.136-23.852
		c-1.35-1.746-1.975-2.865-1.877-3.358c0.099-0.559,1.086-0.955,2.963-1.185c3.522-0.461,7.474,0.083,11.853,1.63
		C161.799,120.755,165.602,123.092,168.565,126.122"/>
	<path fill="#0D131A" d="M165.108,116.59l1.827,1.482c0.198,0.231,0.149,0.708-0.147,1.432c-0.296,0.691-0.542,0.923-0.741,0.691
		l-1.037-1.234c-0.593-0.592-1.038-0.823-1.334-0.691c-0.263,0.132-0.361,0.559-0.295,1.284l0.444,2.814
		c0.067,0.264-0.198,0.396-0.79,0.396c-0.593-0.034-0.906-0.197-0.938-0.495l-0.495-3.061c-0.131-1.679,0.132-2.783,0.791-3.309
		C162.951,115.471,163.857,115.702,165.108,116.59"/>
	<path fill="#0D131A" d="M240.861,130.517c7.078,5.695,10.799,12.576,11.16,20.643c0.034,0.328-0.395,0.575-1.283,0.741
		c-0.89,0.196-1.333,0.132-1.333-0.198c-0.329-7.374-3.656-13.745-9.975-19.111c-7.604-6.452-18.239-9.926-31.901-10.419
		c-11.687-0.429-20.049-1.729-25.087-3.902c-4.082-1.745-7.028-4.69-8.838-8.839c-0.395-0.889-0.725-1.365-0.988-1.432
		c-0.296-0.098-0.774,0.231-1.433,0.987c-2.205,2.437-3.506,5.416-3.902,8.938c-0.395,3.621,0.362,6.436,2.271,8.445
		c3.852,3.95,6.898,8.608,9.136,13.975c1.382,3.325,3.061,8.873,5.036,16.641c2.404,9.449,5.054,16.478,7.951,21.088
		c2.338,3.72,5.761,7.078,10.272,10.074c0.198,0.099,0.065,0.576-0.394,1.432c-0.429,0.823-0.774,1.153-1.037,0.987
		c-5.795-3.819-9.958-7.869-12.493-12.148c-2.339-3.95-4.594-10.371-6.765-19.26c-2.338-9.645-4.082-15.917-5.235-18.814
		c-1.777-4.576-4.46-8.724-8.049-12.445c-2.567-2.667-3.391-6.6-2.469-11.802c0.889-4.905,2.683-8.411,5.382-10.519
		c1.218-0.955,2.075-1.382,2.569-1.284s0.972,0.79,1.432,2.073c1.976,5.136,4.808,8.527,8.495,10.174
		c4.147,1.81,12.213,2.946,24.197,3.408C221.668,120.442,232.763,123.965,240.861,130.517"/>
	<path fill="#0D131A" d="M255.281,132.985c6.289,5.4,9.006,11.243,8.149,17.531c-0.032,0.295-0.527,0.428-1.481,0.395
		c-0.955-0.034-1.417-0.197-1.384-0.494c0.725-5.399-1.416-10.469-6.418-15.209c-5.763-5.432-13.778-8.527-24.051-9.284
		c-0.329-0.033-1.285-0.427-2.865-1.184c-1.611-0.79-2.271-1.185-1.973-1.185C237.964,123.554,247.972,126.696,255.281,132.985"/>
	<path fill="#7CBEB3" d="M177.304,260.245c1.777-6.946,4.265-12.147,7.457-15.605l36.592,10.667
		c3.194,12.181,3.505,23.787,0.938,34.814c-1.546,6.551-3.965,12.396-7.258,17.53c-1.778,2.8-5.4,4.644-10.865,5.531
		c-5.762,0.956-11.309,0.38-16.643-1.728c-3.885-1.516-6.93-5.218-9.135-11.111c-2.042-5.366-3.144-11.803-3.309-19.308
		C174.918,273.692,175.658,266.763,177.304,260.245"/>
	<path fill="#006359" d="M185.156,273.825c0.198-2.008,2.617-4.725,7.26-8.147c4.642-3.425,7.588-4.66,8.839-3.706
		c1.285,0.955,1.53,6.157,0.74,15.606c-0.791,9.447-1.991,14.238-3.604,14.37c-0.955,0.065-3.424-2.567-7.408-7.903
		C186.968,278.647,185.026,275.239,185.156,273.825"/>
	<path fill="#68A198" d="M176.367,262.318c0.165,14.123,3.342,25.893,9.53,35.31c5.925,9.118,13.333,14.138,22.223,15.06
		c-3.62,0.923-7.538,1.218-11.753,0.889c-8.427-0.657-14.107-4.148-17.037-10.468c-2.93-6.289-4.296-14.981-4.098-26.075
		L176.367,262.318"/>
	<path fill="#0D131A" d="M182.64,250.072c-4.279,7.342-6.223,17.861-5.827,31.557c0.428,14.254,3.424,23.424,8.988,27.506
		c3.785,2.765,8.855,3.868,15.209,3.309c6.124-0.56,10.173-2.239,12.148-5.036c4.478-6.354,7.408-14.025,8.789-23.014
		c1.252-8.099,1.088-15.801-0.492-23.112c-0.791-3.652-0.89-5.612-0.296-5.875c0.592-0.264,1.382,1.383,2.37,4.938
		c2.042,7.408,2.453,15.425,1.234,24.05c-1.316,9.383-4.329,17.432-9.037,24.146c-2.437,3.458-7.473,5.481-15.111,6.075
		c-7.474,0.561-13.104-0.542-16.889-3.309c-2.732-2.01-4.988-5.564-6.765-10.667c-1.712-4.874-2.749-10.471-3.111-16.79
		c-0.89-14.356,1.382-25.96,6.814-34.816c1.91-3.127,3.227-4.624,3.95-4.494C185.371,244.64,184.712,246.483,182.64,250.072"/>
	<path fill="#0D131A" d="M186.343,273.331c-0.066,1.152,1.629,4.378,5.086,9.679c3.523,5.399,5.778,8.033,6.765,7.901
		c1.087-0.164,1.975-4.626,2.666-13.382c0.691-8.791,0.525-13.548-0.495-14.272c-0.954-0.657-3.522,0.578-7.705,3.705
		C188.515,270.089,186.408,272.211,186.343,273.331 M184.072,272.836c0.098-2.402,2.848-5.432,8.246-9.085
		c5.301-3.556,8.479-4.84,9.531-3.854c1.744,1.68,2.238,7.391,1.481,17.137c-0.79,9.745-2.189,15.192-4.199,16.347
		c-1.381,0.822-4.262-1.778-8.641-7.802C186.111,279.586,183.973,275.339,184.072,272.836"/>
	<path fill="#FFFFFF" d="M146.837,307.751c-0.166-0.495,0.46-1.335,1.875-2.519c1.45-1.186,2.536-1.73,3.26-1.631
		c1.318,0.166,2.222,1.598,2.716,4.295c0.461,2.503,0.495,3.935,0.098,4.298c-0.46,0.427-1.744,0.163-3.852-0.792
		C148.663,310.384,147.298,309.165,146.837,307.751"/>
	<path fill="#FFFFFF" d="M161.553,311.453c-2.306-1.052-3.458-2.106-3.458-3.16c0-0.921,0.674-2.041,2.025-3.357
		c1.317-1.316,2.321-1.812,3.013-1.481c1.086,0.526,1.974,2.074,2.666,4.642c0.659,2.47,0.691,3.902,0.099,4.296
		C165.273,312.82,163.824,312.508,161.553,311.453"/>
	<path fill="#FFFFFF" d="M169.305,308.442c-0.23-1.714,0.395-3.293,1.876-4.741l2.322-1.679c1.216,0.527,2.172,2.106,2.864,4.741
		c0.626,2.369,0.774,3.752,0.445,4.147l-3.902-0.099C170.606,310.252,169.405,309.463,169.305,308.442"/>
	<path fill="#FFFFFF" d="M188.714,312.59c-0.067-0.855,0.23-1.777,0.889-2.765c0.79-1.185,1.793-1.761,3.012-1.729
		c1.218,0.035,2.156,0.497,2.815,1.384c0.526,0.823,0.756,1.827,0.691,3.011c-0.065,1.087-0.445,2.305-1.135,3.656
		c-0.659,1.35-1.186,2.024-1.581,2.024c-0.43,0-1.285-0.708-2.568-2.122C189.487,314.565,188.779,313.413,188.714,312.59"/>
	<path fill="#FFFFFF" d="M198.54,313.676c-0.1-1.612,0.345-2.945,1.334-4.001c0.791-0.888,1.58-1.332,2.371-1.332
		c0.592,0,1.284,0.444,2.074,1.332c0.79,0.923,1.284,1.844,1.481,2.767c0.132,0.593-0.016,1.613-0.445,3.062
		c-0.429,1.548-0.938,2.469-1.531,2.765c-0.592,0.328-1.579-0.035-2.962-1.087C199.379,316.097,198.606,314.928,198.54,313.676"/>
	<path fill="#FFFFFF" d="M208.268,313.38c-0.922-0.987-0.839-2.486,0.248-4.493c1.086-2.009,2.156-2.864,3.209-2.568
		c0.988,0.329,1.943,1.714,2.865,4.148c0.856,2.337,1.069,3.835,0.642,4.492c-0.396,0.594-1.415,0.725-3.062,0.396
		C210.49,314.992,209.191,314.336,208.268,313.38"/>
	<path fill="#FFFFFF" d="M225.059,304.394c-0.132-0.692,0.51-1.548,1.925-2.568c1.383-0.987,2.386-1.35,3.013-1.086
		c1.086,0.495,1.795,1.875,2.123,4.147c0.328,2.205,0.197,3.438-0.395,3.705c-0.594,0.261-1.762-0.052-3.508-0.94
		C226.343,306.663,225.289,305.576,225.059,304.394"/>
	<path fill="#FFFFFF" d="M238.441,307.751c-2.009-0.692-3.178-1.482-3.508-2.371c-0.294-0.757,0.216-1.844,1.531-3.26
		c1.317-1.383,2.271-1.941,2.866-1.678c1.149,0.493,1.958,1.761,2.418,3.803c0.395,1.777,0.428,2.995,0.1,3.653L238.441,307.751"/>
	<path fill="#FFFFFF" d="M243.823,303.652c-0.396-0.791,0.163-1.926,1.678-3.408c1.482-1.449,2.553-2.042,3.21-1.776
		c0.757,0.327,1.498,1.529,2.223,3.603c0.691,2.043,0.872,3.294,0.542,3.754l-3.753-0.099
		C245.552,305.199,244.252,304.507,243.823,303.652"/>
	<path fill="#FFFFFF" d="M299.823,311.257c-0.461-0.46-0.099-1.646,1.086-3.557c1.185-1.94,2.188-2.896,3.013-2.862
		c1.086,0.064,2.304,1.25,3.654,3.555c1.284,2.174,1.778,3.458,1.481,3.853c-0.362,0.461-1.762,0.609-4.197,0.444
		C302.324,312.522,300.647,312.046,299.823,311.257"/>
	<path fill="#FFFFFF" d="M310.587,308.54c-0.46-0.494-0.164-1.729,0.892-3.703c1.018-1.976,1.908-2.933,2.665-2.865
		c0.725,0.066,1.745,1.219,3.062,3.458c1.253,2.204,1.763,3.555,1.531,4.048c-0.298,0.495-1.497,0.675-3.604,0.543
		C312.894,309.891,311.379,309.396,310.587,308.54"/>
	<path fill="#FFFFFF" d="M318.836,303.997c-0.526-0.658-0.362-1.909,0.495-3.753c0.823-1.778,1.483-2.635,1.974-2.567
		c0.857,0.098,1.909,1.185,3.16,3.259c1.218,2.042,1.679,3.326,1.383,3.853c-0.229,0.561-1.268,0.774-3.11,0.644
		C320.793,305.298,319.495,304.818,318.836,303.997"/>
	<path fill="#DBDCDC" d="M148.96,304.936l2.173,2.716c1.448,2.008,2.255,3.572,2.42,4.691l-3.457-1.777
		c-2.272-1.284-3.343-2.207-3.209-2.765c0.13-0.562,0.527-1.202,1.184-1.927L148.96,304.936"/>
	<path fill="#DBDCDC" d="M160.071,305.133l1.876,2.32c1.316,1.844,2.19,3.507,2.617,4.988c-4.048-1.416-6.123-2.813-6.221-4.197
		c-0.067-0.855,0.198-1.631,0.79-2.32L160.071,305.133"/>
	<path fill="#DBDCDC" d="M175.576,311.257c-2.106-0.46-3.62-0.922-4.542-1.381c-1.054-0.496-1.647-1.104-1.777-1.828
		c-0.132-0.625,0-1.352,0.393-2.173l0.644-1.037c0.889,0.428,1.975,1.48,3.259,3.16
		C174.639,309.446,175.313,310.532,175.576,311.257"/>
	<path fill="#DBDCDC" d="M190.688,309.133l0.495,3.012c0.427,2.272,0.954,4.05,1.579,5.333l-1.875-1.628
		c-1.218-1.351-1.794-2.734-1.728-4.149c0.065-0.986,0.312-1.712,0.74-2.172C190.227,309.165,190.49,309.036,190.688,309.133"/>
	<path fill="#DBDCDC" d="M199.576,310.714l1.876,3.062l2.469,4.544c-0.922-0.296-1.844-0.724-2.766-1.284
		c-1.843-1.118-2.699-2.32-2.567-3.605c0.131-1.251,0.329-2.073,0.593-2.469L199.576,310.714"/>
	<path fill="#DBDCDC" d="M208.515,308.936l2.32,2.224c1.645,1.678,2.651,3.078,3.012,4.197l-3.062-0.988
		c-2.041-0.789-3.028-1.563-2.962-2.32l0.395-2.223L208.515,308.936"/>
	<path fill="#DBDCDC" d="M226.688,302.171c0.296,0.196,0.922,0.938,1.877,2.223c1.186,1.612,1.843,2.913,1.975,3.899l-3.557-1.678
		c-0.921-0.561-1.398-1.269-1.432-2.124c-0.033-0.625,0.148-1.201,0.544-1.728L226.688,302.171"/>
	<path fill="#DBDCDC" d="M235.923,302.466l1.631,1.138c1.25,1.151,2.337,2.666,3.26,4.542l-2.667-0.739
		c-1.812-0.658-2.815-1.417-3.013-2.273c-0.198-0.854-0.131-1.546,0.198-2.074L235.923,302.466"/>
	<path fill="#DBDCDC" d="M245.207,300.491l2.024,1.482c1.448,1.284,2.436,2.618,2.962,3.999l-2.813-0.394
		c-1.976-0.493-3.145-1.234-3.507-2.222c-0.198-0.461-0.114-1.037,0.246-1.729C244.45,300.969,244.812,300.59,245.207,300.491"/>
	<path fill="#DBDCDC" d="M301.107,307.454c2.765,1.317,4.988,2.964,6.667,4.938l-3.704,0.049c-2.469-0.129-3.753-0.623-3.853-1.481
		c-0.097-0.854,0.019-1.695,0.347-2.518L301.107,307.454"/>
	<path fill="#DBDCDC" d="M311.428,305.331c0.561,0.165,1.499,0.66,2.816,1.48c1.778,1.087,2.881,2.124,3.31,3.112l-3.457-0.148
		c-2.337-0.263-3.522-0.772-3.557-1.529c-0.064-0.724,0.066-1.433,0.396-2.122L311.428,305.331"/>
	<path fill="#DBDCDC" d="M319.23,300.491l2.176,1.334c1.612,1.119,2.73,2.304,3.357,3.555l-2.569-0.197
		c-1.776-0.261-2.88-0.707-3.309-1.334c-0.427-0.624-0.494-1.382-0.197-2.271L319.23,300.491"/>
	<path fill="#0D131A" d="M298.885,311.552c-0.263-0.952,0.263-2.484,1.581-4.59c1.316-2.143,2.451-3.227,3.407-3.261
		c0.955-0.032,2.289,1.219,4.001,3.753c1.676,2.469,2.402,4.147,2.172,5.036c-0.197,0.791-2.042,1.037-5.531,0.741
		S299.148,312.376,298.885,311.552 M302.095,307.7c-0.822,1.316-1.15,2.272-0.986,2.866c0.328,0.461,1.497,0.839,3.506,1.135
		c1.941,0.297,2.996,0.28,3.16-0.05c0.166-0.361-0.278-1.416-1.332-3.161c-1.12-1.776-1.993-2.683-2.618-2.715
		C303.462,305.742,302.885,306.384,302.095,307.7"/>
	<path fill="#0D131A" d="M317.699,309.084c0.199-0.296-0.23-1.351-1.283-3.16c-1.021-1.81-1.795-2.765-2.321-2.865
		c-0.395-0.032-0.954,0.658-1.679,2.074c-0.757,1.418-1.07,2.405-0.938,2.965c0.097,0.496,1.135,0.855,3.109,1.086L317.699,309.084
		 M314.34,300.837c1.056,0.131,2.307,1.597,3.755,4.396c1.383,2.666,1.926,4.312,1.63,4.937c-0.297,0.66-1.859,0.858-4.691,0.595
		c-2.897-0.296-4.642-0.855-5.233-1.678c-0.528-0.726-0.183-2.289,1.037-4.691C312.053,301.891,313.222,300.705,314.34,300.837"/>
	<path fill="#0D131A" d="M319.973,300.787c-0.495,1.119-0.593,2.042-0.298,2.766c0.134,0.396,1.005,0.707,2.619,0.938l2.616-0.148
		c0.198-0.328-0.146-1.284-1.037-2.862c-0.889-1.679-1.663-2.502-2.321-2.471C320.992,299.076,320.464,299.669,319.973,300.787
		 M318.884,299.553c1.021-1.877,1.896-2.814,2.62-2.814c1.217,0,2.501,1.366,3.852,4.099c1.315,2.633,1.776,4.28,1.382,4.938
		l-4.396,0.148c-2.7-0.328-4.164-0.792-4.396-1.383C317.453,303.257,317.766,301.594,318.884,299.553"/>
	<path fill="#0D131A" d="M203.823,310.368c-0.56-0.658-1.102-0.955-1.629-0.889c-0.756,0.032-1.432,0.51-2.025,1.432
		c-0.593,0.889-0.839,1.745-0.741,2.567c0.1,0.757,0.741,1.612,1.927,2.567c1.152,0.889,1.926,1.252,2.321,1.087
		c0.263-0.1,0.543-0.576,0.839-1.433c0.395-0.987,0.528-1.908,0.395-2.765C204.811,311.915,204.448,311.06,203.823,310.368
		 M198.688,309.726c1.12-1.646,2.337-2.419,3.654-2.319c0.955,0.065,1.811,0.56,2.568,1.481c0.756,0.922,1.235,2.058,1.434,3.407
		c0.23,1.317,0.13,2.75-0.296,4.296c-0.429,1.515-0.956,2.386-1.58,2.618c-0.79,0.295-2.059-0.132-3.803-1.284
		c-1.877-1.282-2.946-2.684-3.209-4.198C197.256,312.574,197.669,311.24,198.688,309.726"/>
	<path fill="#0D131A" d="M194.392,310.27c-0.429-0.593-0.907-0.921-1.433-0.986c-0.626-0.066-1.285,0.197-1.976,0.789
		c-0.723,0.594-1.087,1.236-1.087,1.927c0.033,0.857,0.51,1.877,1.433,3.062c0.823,1.119,1.432,1.679,1.827,1.679
		c0.363-0.033,0.757-0.511,1.185-1.433c0.461-0.921,0.707-1.844,0.74-2.764C195.115,311.684,194.886,310.928,194.392,310.27
		 M189.305,308.64c1.218-1.087,2.486-1.548,3.802-1.384c1.087,0.133,2.025,0.725,2.815,1.779c0.757,1.053,1.103,2.222,1.037,3.507
		c-0.033,1.052-0.444,2.401-1.234,4.048c-0.855,1.713-1.597,2.6-2.222,2.667c-0.724,0.099-1.86-0.741-3.409-2.518
		c-1.646-1.844-2.503-3.409-2.567-4.693C187.462,310.828,188.054,309.693,189.305,308.64"/>
	<path fill="#0D131A" d="M213.404,309.281c-0.756-1.054-1.448-1.581-2.074-1.581c-0.625-0.065-1.251,0.394-1.877,1.383
		c-0.658,1.02-0.903,1.976-0.739,2.864c0.165,0.79,1.087,1.481,2.765,2.074c1.613,0.528,2.551,0.675,2.816,0.445
		c0.23-0.198,0.279-0.889,0.147-2.075C214.311,311.108,213.964,310.071,213.404,309.281 M211.676,305.528
		c1.613,0.23,2.881,1.926,3.803,5.086c0.856,2.965,1.02,4.742,0.494,5.333l-4.642-0.295c-2.766-0.757-4.262-1.744-4.494-2.964
		c-0.263-1.35,0.115-2.897,1.136-4.643C209.092,306.17,210.326,305.331,211.676,305.528"/>
	<path fill="#0D131A" d="M177.256,306.368c0.823,3.16,0.905,4.937,0.246,5.332c-0.855,0.494-2.534,0.396-5.036-0.295
		c-2.601-0.725-4.049-1.597-4.345-2.618c-0.396-1.219,0.065-2.782,1.383-4.691c1.35-1.974,2.699-2.913,4.048-2.815
		C175.133,301.381,176.367,303.076,177.256,306.368 M170.194,307.998c0.099,0.69,1.005,1.317,2.716,1.876
		c1.646,0.527,2.651,0.625,3.013,0.296c0.263-0.23,0.115-1.335-0.445-3.31c-0.593-2.107-1.284-3.227-2.075-3.358
		c-0.658-0.097-1.383,0.347-2.172,1.335C170.343,305.89,169.997,306.944,170.194,307.998"/>
	<path fill="#0D131A" d="M159.28,308.293c0,0.759,0.906,1.548,2.716,2.371c1.777,0.791,2.799,1.005,3.062,0.643
		c0.295-0.361,0.214-1.431-0.247-3.211c-0.493-1.906-1.136-2.944-1.926-3.111c-0.757-0.165-1.548,0.183-2.37,1.04
		c-0.758,0.787-1.169,1.512-1.236,2.172V308.293 M159.232,304.394c1.415-1.317,2.667-1.877,3.752-1.681
		c1.646,0.298,2.832,2.025,3.555,5.186c0.692,2.997,0.708,4.774,0.049,5.335c-0.625,0.593-2.37,0.263-5.234-0.988
		c-2.997-1.252-4.427-2.668-4.295-4.246C157.157,306.879,157.881,305.679,159.232,304.394"/>
	<path fill="#0D131A" d="M244.812,302.961c0.098,0.658,1.053,1.284,2.865,1.877c1.744,0.561,2.731,0.69,2.963,0.395
		c0.231-0.297,0.084-1.317-0.445-3.062c-0.559-1.844-1.168-2.799-1.825-2.866c-0.561-0.065-1.317,0.363-2.271,1.284
		C245.141,301.545,244.712,302.335,244.812,302.961 M244.861,299.651c1.713-1.645,3.062-2.304,4.049-1.975
		c1.251,0.463,2.272,2.025,3.062,4.691c0.756,2.535,0.89,4.034,0.394,4.494c-0.494,0.429-2.107,0.279-4.84-0.445
		c-2.797-0.756-4.361-1.596-4.691-2.519C242.442,302.746,243.115,301.331,244.861,299.651"/>
	<path fill="#0D131A" d="M238.539,306.912c1.45,0.495,2.287,0.624,2.52,0.395c0.231-0.231,0.181-1.169-0.147-2.815
		c-0.363-1.745-0.874-2.701-1.531-2.864c-0.658-0.167-1.433,0.198-2.32,1.086c-0.89,0.923-1.251,1.729-1.087,2.42
		C236.169,305.824,237.026,306.416,238.539,306.912 M239.774,299.802c1.086,0.263,1.993,1.693,2.716,4.295
		c0.657,2.535,0.725,4.197,0.198,4.989c-0.329,0.492-1.795,0.279-4.396-0.643c-2.7-0.956-4.147-1.959-4.345-3.011
		c-0.231-1.056,0.393-2.322,1.877-3.804C237.338,300.113,238.656,299.504,239.774,299.802"/>
	<path fill="#0D131A" d="M228.565,306.812c1.448,0.791,2.32,1.086,2.616,0.889c0.265-0.165,0.298-1.12,0.1-2.863
		c-0.231-1.844-0.692-2.881-1.384-3.112c-0.657-0.229-1.447,0-2.369,0.691c-0.89,0.658-1.318,1.316-1.284,1.976
		C226.277,305.183,227.05,305.991,228.565,306.812 M230.443,299.898c1.381,0.298,2.203,1.927,2.468,4.889
		c0.23,2.799,0.063,4.396-0.495,4.79c-0.625,0.396-2.174-0.065-4.643-1.383c-2.502-1.383-3.803-2.585-3.902-3.604
		c-0.099-0.954,0.609-2.042,2.125-3.26C227.61,300.081,229.091,299.603,230.443,299.898"/>
	<path fill="#0D131A" d="M150.737,309.923c1.745,0.89,2.75,1.169,3.013,0.841c0.296-0.329,0.247-1.366-0.148-3.112
		c-0.428-1.809-0.938-2.797-1.53-2.964c-0.692-0.229-1.531,0.034-2.52,0.79c-0.988,0.759-1.481,1.498-1.481,2.223
		C148.104,308.26,148.992,309.002,150.737,309.923 M152.515,302.466c1.416,0.298,2.42,2.025,3.012,5.186
		c0.561,3.029,0.544,4.725-0.049,5.086c-1.021,0.691-2.865,0.33-5.531-1.086c-2.634-1.382-4-2.616-4.098-3.704
		c-0.132-1.253,0.642-2.551,2.322-3.901C149.816,302.729,151.265,302.203,152.515,302.466"/>
</g>
</svg>
