<?xml version="1.0" encoding="utf-8"?>
<!-- Generator: Adobe Illustrator 16.0.0, SVG Export Plug-In . SVG Version: 6.00 Build 0)  -->
<!DOCTYPE svg PUBLIC "-//W3C//DTD SVG 1.1//EN" "http://www.w3.org/Graphics/SVG/1.1/DTD/svg11.dtd">
<svg version="1.1" id="Layer_1" xmlns="http://www.w3.org/2000/svg" xmlns:xlink="http://www.w3.org/1999/xlink" x="0px" y="0px"
	 width="456px" height="415px" viewBox="0 0 456 415" enable-background="new 0 0 456 415" xml:space="preserve">
<g>
	<g>
		<path fill="#0D131A" d="M311.434,239.678c1.633-0.545,2.779-0.312,3.44,0.699l1.224-3.032c2.839,4.081,4.004,13.273,3.499,27.58
			c-0.584,16.285-3.596,30.824-9.038,43.612c-7.074,16.483-13.41,24.859-19.007,25.131l-2.683,0.293l-11.603-0.701
			c-5.987-0.736-9.719-1.573-11.197-2.506l-14.051-21.399c-0.078-1.904,2.546-6.608,7.871-14.111
			c4.704-6.688,10.398-14.013,17.086-21.98c6.995-8.356,13.468-15.511,19.416-21.458
			C303.388,244.769,308.402,240.728,311.434,239.678"/>
		<path fill="#5DC1CF" d="M263.213,321.425c5.676-7.076,13.314-13.023,22.915-17.844c10.106-5.053,18.367-6.705,24.781-4.955
			c-1.127,4.314-2.469,8.416-4.023,12.302c-3.46,8.785-6.784,14.693-9.971,17.726c-1.866,1.749-4.101,2.682-6.705,2.799
			l-1.284,0.118l-11.427-0.877c-5.83-0.893-9.387-1.729-10.67-2.507c-0.584-0.351-1.652-2.293-3.208-5.83L263.213,321.425h-0.058
			v-0.059L263.213,321.425"/>
		<path fill="#50A8B4" d="M313.531,241.311c1.905,2.757,2.76,9.716,2.565,20.873c-0.232,12.517-1.962,24.664-5.188,36.442
			c-6.414-1.75-14.675-0.098-24.781,4.955c-9.601,4.82-17.258,10.768-22.974,17.844v-0.059c-1.594-3.421-2.954-5.948-4.081-7.581
			c-1.749-2.525-3.556-4.043-5.422-4.548v-0.116c0-1.36,2.021-4.957,6.062-10.786c4.394-6.414,10.012-13.76,16.852-22.041
			c7.502-9.058,14.382-16.732,20.64-23.03c6.222-6.26,10.826-10.128,13.82-11.604C312.386,240.922,313.222,240.803,313.531,241.311"
			/>
		<path fill="#0D131A" d="M312.249,258.394c1.557,1.828,2.333,3.306,2.333,4.431l-0.058,0.467
			c-1.477,6.374-3.771,12.108-6.88,17.201c-2.643,4.314-6.648,9.271-12.012,14.87c-3.381,3.536-8.744,7.054-16.092,10.553
			c-8.164,3.888-16.521,6.609-25.072,8.162l2.04,15.277c0.816,7.541,1.225,13.157,1.225,16.85c0,1.05-0.31,2.177-0.933,3.382
			c-0.39,1.361-1.128,2.333-2.215,2.916c-2.917,1.595-8.301,2.837-16.152,3.733c-7.773,0.854-12.496,0.795-14.168-0.176
			c-6.764-4.005-14.188-12.05-22.273-24.14c-8.242-12.283-13.664-23.595-16.269-33.935c-3.926-1.555-8.085-3.692-12.479-6.414
			c-4.275-2.643-7.618-5.111-10.028-7.405c-1.049,4.471-2.974,8.57-5.773,12.303c-1.36,1.827-2.644,3.227-3.848,4.199
			c-1.594,1.944-7.269,2.836-17.026,2.681l-14.169-0.874c-2.722-0.468-4.762-1.342-6.122-2.624
			c-1.477-1.439-2.352-3.558-2.624-6.355c-0.467-4.51-0.33-8.962,0.409-13.354l0.991-7.172l0.642-5.189
			c0.234-1.242,0.214-3.07-0.057-5.481l-0.467-3.264c-1.438-11.079-1.729-19.282-0.875-24.606
			c1.05-6.452,4.393-14.692,10.028-24.722c6.414-11.39,15.879-19.67,28.396-24.84c7.463-3.07,15.219-4.82,23.265-5.248
			c6.102-0.311,17.978,3.964,35.626,12.828c10.651,5.325,22.194,11.681,34.634,19.066c15.665,9.29,29.64,18.31,41.923,27.055
			C300.453,247.314,308.48,253.924,312.249,258.394"/>
		<path fill="#5DC1CF" d="M154.296,186.617c7.23-3.188,14.48-4.975,21.749-5.364c8.901-0.466,34.208,13.022,75.916,40.466
			c20.874,13.759,40.836,27.599,59.881,41.516c-1.708,5.676-3.886,10.768-6.529,15.276c-3.188,5.403-7.307,10.495-12.359,15.275
			c-5.676,5.326-13.646,9.776-23.907,13.354c-7.385,2.603-12.303,3.908-14.752,3.908c-0.545,0-0.953-0.936-1.225-2.801l-0.585-5.073
			c-0.114-1.595-0.601-2.118-1.457-1.574c-0.815,0.545-1.067,1.808-0.757,3.791c0.971,5.207,2.1,12.866,3.383,22.973
			c1.516,12.167,2.039,19.104,1.572,20.816c0,0.271-0.446,0.66-1.34,1.165c-2.76,1.478-7.795,2.702-15.102,3.675l-12.885,0.524
			c-1.207-0.35-3.559-2.273-7.057-5.772c-4.275-4.197-8.358-9.019-12.245-14.46c-11.312-15.742-17.784-31.817-19.416-48.22
			c-0.351-3.576-0.817-5.986-1.4-7.229c-0.623-1.168-1.049-0.739-1.283,1.281c-0.35,2.645-0.098,7.502,0.757,14.578
			c-8.24-3.148-16.85-9.215-25.831-18.193c-13.293-13.256-20.737-28.144-22.332-44.663c-0.195-2.061-0.486-3.498-0.875-4.314
			c-0.389-0.778-0.719-0.739-0.992,0.116c-0.7,2.294-0.388,7.192,0.933,14.694c0.972,5.285,2.565,10.164,4.781,14.633
			c4.159,8.241,10.826,16.755,19.999,25.54c-0.388,2.292-1.205,4.761-2.449,7.405c-1.36,2.915-2.993,5.5-4.897,7.754
			c-0.739,0.974-2.41,1.828-5.015,2.566c-5.169,1.517-12.439,1.768-21.807,0.759l-2.45-0.468c-2.72-0.467-4.761-1.399-6.123-2.799
			c-1.243-1.282-1.981-3.069-2.215-5.365c-0.233-2.837-0.04-6.198,0.583-10.086l1.341-8.921c0.389-3.382,0.486-6.122,0.291-8.222
			c-1.165-12.05-1.613-19.96-1.34-23.731c0.738-10.184,4.14-20.368,10.203-30.552C133.557,199.872,142.634,191.788,154.296,186.617"
			/>
		<path fill="#50A8B4" d="M168.056,274.896c6.103,2.798,11.584,4.546,16.442,5.247c-0.35,2.645-0.098,7.502,0.758,14.579
			c-6.259-2.413-13.255-6.98-20.991-13.703c-11.157-9.68-18.97-20.583-23.439-32.712
			C146.774,260.396,155.85,269.258,168.056,274.896"/>
		<path fill="#50A8B4" d="M160.943,282.533c-0.388,2.293-1.205,4.762-2.448,7.405c-1.361,2.916-2.994,5.501-4.897,7.755
			l-2.566,1.691c-2.603,1.165-6.161,1.865-10.669,2.099c5.791-2.294,8.357-8.357,7.696-18.191c-0.583-8.163-3.109-17.26-7.58-27.287
			C144.598,264.634,151.419,273.476,160.943,282.533"/>
		<path fill="#50A8B4" d="M148.056,189.533c5.092-2.916,10.632-5.112,16.617-6.589c3.965-0.933,7.755-1.498,11.37-1.691
			c8.901-0.466,34.208,13.022,75.916,40.466c20.874,13.759,40.836,27.599,59.881,41.516c-1.708,5.676-3.886,10.768-6.529,15.276
			c-3.188,5.403-7.307,10.495-12.359,15.275c-5.676,5.326-13.646,9.776-23.906,13.354c-7.386,2.603-12.305,3.908-14.752,3.908
			c-0.545,0-0.953-0.936-1.226-2.801l-0.585-5.073c-0.115-1.595-0.602-2.118-1.457-1.574c-0.814,0.545-1.068,1.808-0.757,3.791
			c0.972,5.207,2.101,12.866,3.383,22.973c1.516,12.167,2.038,19.104,1.573,20.816c0,0.271-0.447,0.66-1.341,1.165l-2.45,0.992
			c0.195-11.079-1.088-20.39-3.848-27.931c-4.508-12.358-12.905-20.99-25.188-25.887c-2.564-25.034-7.269-44.86-14.11-59.475
			C195.927,211.768,175.85,195.597,148.056,189.533"/>
		<path fill="#0D131A" d="M127.766,295.011c0.738,0.077,1.748,0.875,3.031,2.389c1.361,1.597,2.003,3.014,1.925,4.258
			c-0.077,1.321-0.642,2.76-1.69,4.314c-1.05,1.556-1.925,2.333-2.625,2.333c-0.701,0-1.847-1.011-3.441-3.032
			c-1.594-1.981-2.391-3.342-2.391-4.081c-0.039-0.7,0.662-1.906,2.1-3.614C126.113,295.828,127.143,294.974,127.766,295.011"/>
		<path fill="#FFFFFF" d="M130.506,299.033c0.699,1.089,1.03,1.905,0.991,2.449c0,0.584-0.409,1.574-1.224,2.974
			c-0.854,1.361-1.438,2.041-1.749,2.041c-0.389,0-1.225-0.659-2.508-1.983c-1.322-1.36-1.943-2.35-1.866-2.972
			c0.039-0.585,0.836-1.964,2.391-4.143c0.426-0.62,0.797-0.97,1.107-1.05c0.271-0.037,0.642,0.138,1.108,0.526L130.506,299.033"/>
		<path fill="#0D131A" d="M137.153,302.94c-0.078-0.623,0.545-1.963,1.866-4.023c1.36-2.138,2.392-3.246,3.091-3.323
			c0.738-0.04,1.807,0.856,3.207,2.683c1.399,1.865,2.002,3.206,1.808,4.022l-1.05,3.441c-0.661,1.516-1.38,2.487-2.157,2.914
			c-0.778,0.428-2.1-0.272-3.965-2.099C138.203,304.846,137.271,303.642,137.153,302.94"/>
		<path fill="#FFFFFF" d="M142.11,297.285c0.349-0.117,1.048,0.523,2.099,1.923c1.049,1.439,1.633,2.566,1.75,3.384l-0.933,2.564
			c-0.662,1.359-1.167,2.1-1.516,2.214c-0.389,0.119-1.322-0.465-2.798-1.748c-1.439-1.281-2.196-2.176-2.275-2.682
			c-0.039-0.505,0.486-1.555,1.575-3.148C141.06,298.276,141.76,297.44,142.11,297.285"/>
		<path fill="#0D131A" d="M149.69,301.191c0-0.894,0.369-2.138,1.107-3.731c0.933-1.943,1.982-3.188,3.148-3.731
			c1.244-0.622,2.527,0.622,3.849,3.731c1.281,3.031,1.69,5.423,1.224,7.172c-0.233,0.972-1.866,0.815-4.898-0.468
			C151.127,302.844,149.651,301.852,149.69,301.191"/>
		<path fill="#FFFFFF" d="M153.829,295.069c0.544-0.195,1.341,1.05,2.39,3.731c1.049,2.605,1.516,4.082,1.399,4.432
			c-0.077,0.233-1.089-0.02-3.032-0.758c-2.021-0.738-3.108-1.342-3.265-1.808c-0.154-0.546,0.079-1.557,0.701-3.033
			C152.682,296.157,153.285,295.302,153.829,295.069"/>
		<path fill="#0D131A" d="M224.906,355.009c0.156-1.127,0.758-2.313,1.807-3.558c1.051-1.204,1.945-1.847,2.684-1.922
			c0.933-0.04,1.962,0.525,3.09,1.689c1.011,1.09,1.652,2.158,1.923,3.208c0.156,0.622-0.253,2.158-1.224,4.607
			c-1.012,2.487-1.768,3.673-2.274,3.557c-0.661-0.156-1.826-1.283-3.499-3.383C225.664,357.07,224.828,355.671,224.906,355.009"/>
		<path fill="#FFFFFF" d="M226.655,355.358c0.078-0.776,0.369-1.594,0.876-2.449c0.546-0.97,1.107-1.535,1.69-1.69
			c0.623-0.195,1.439,0.272,2.449,1.401c0.934,1.009,1.418,1.807,1.457,2.388l-0.875,2.916c-0.583,1.398-1.029,2.178-1.341,2.333
			c-0.35,0.155-1.147-0.447-2.39-1.809C227.239,357.011,226.616,355.981,226.655,355.358"/>
		<path fill="#0D131A" d="M242.281,347.837c0.814-0.077,2.098,0.467,3.848,1.634c1.906,1.242,2.839,2.371,2.801,3.382l-0.761,4.84
			c-0.505,2.137-1.01,3.264-1.515,3.38c-0.894,0.234-2.507-0.466-4.84-2.099c-2.37-1.633-3.635-2.955-3.791-3.965
			c-0.076-0.739,0.447-2.1,1.574-4.08C240.766,348.906,241.658,347.876,242.281,347.837"/>
		<path fill="#FFFFFF" d="M242.922,349.646c0.35-0.078,1.128,0.292,2.331,1.109c1.245,0.814,1.906,1.438,1.985,1.865l-0.293,3.439
			c-0.311,1.865-0.603,2.875-0.875,3.032c-0.35,0.194-1.479-0.409-3.383-1.807c-1.904-1.44-2.855-2.43-2.855-2.975
			s0.428-1.457,1.282-2.741C241.971,350.363,242.573,349.723,242.922,349.646"/>
		<path fill="#0D131A" d="M254.061,343.698c1.398-0.545,3.108,0.99,5.129,4.605c2.021,3.615,2.604,6.045,1.75,7.289
			c-0.233,0.35-1.652,0.176-4.256-0.524l-5.074-1.691l-1.398-0.99c-0.194-0.351-0.194-0.992,0-1.924
			c0.195-1.049,0.719-2.354,1.574-3.907C252.68,344.883,253.438,343.931,254.061,343.698"/>
		<path fill="#FFFFFF" d="M254.759,345.391c1.36,0.775,2.565,2.29,3.615,4.546c0.894,1.982,1.263,3.264,1.107,3.849
			c-0.116,0.349-1.322,0.135-3.615-0.642c-2.253-0.778-3.517-1.322-3.79-1.632c-0.271-0.35-0.037-1.537,0.7-3.558
			C253.515,345.895,254.176,345.039,254.759,345.391"/>
		<path fill="#0D131A" d="M263.389,326.148c0.077-0.351,0.757-0.837,2.041-1.458c1.399-0.698,2.429-0.894,3.09-0.584
			c0.776,0.352,1.555,1.342,2.332,2.974c0.816,1.634,1.05,2.703,0.699,3.207l-2.741,2.626c-1.555,1.203-2.681,1.749-3.381,1.63
			c-0.699-0.153-1.265-1.417-1.691-3.787C263.311,328.577,263.194,327.041,263.389,326.148"/>
		<path fill="#FFFFFF" d="M267.821,325.155c0.388,0.078,0.876,0.7,1.456,1.867c0.545,1.165,0.72,1.924,0.525,2.274l-1.924,2.157
			c-1.127,1.088-1.847,1.632-2.157,1.632c-0.271,0-0.525-0.932-0.759-2.799l-0.232-3.264c0.038-0.312,0.465-0.72,1.281-1.226
			C266.867,325.292,267.471,325.078,267.821,325.155"/>
		<path fill="#0D131A" d="M278.141,328.714c1.282-1.128,2.332-1.75,3.148-1.866c0.854-0.156,1.942,0.544,3.266,2.099
			c1.244,1.479,1.864,2.527,1.864,3.148c0,0.545-0.757,1.787-2.273,3.731c-1.633,2.099-2.895,3.109-3.79,3.032
			c-0.933-0.079-1.982-1.282-3.147-3.615c-1.128-2.255-1.498-3.692-1.108-4.315C276.41,330.423,277.09,329.685,278.141,328.714"/>
		<path fill="#FFFFFF" d="M281.463,328.072c0.468,0.156,1.108,0.66,1.925,1.515c0.973,0.973,1.398,1.711,1.282,2.218l-2.039,3.381
			c-1.285,1.671-2.081,2.487-2.392,2.448c-0.389,0-0.972-0.914-1.749-2.741c-0.816-1.827-1.107-3.032-0.875-3.613
			c0.233-0.623,0.855-1.342,1.865-2.158C280.491,328.267,281.155,327.915,281.463,328.072"/>
		<path fill="#0D131A" d="M293.184,328.946c1.438-1.709,2.663-2.526,3.674-2.449c1.283,0.116,2.04,1.557,2.274,4.316
			c0.272,2.798-0.311,4.994-1.75,6.587c-0.894,0.972-2.156,0.506-3.789-1.4c-1.516-1.787-2.274-3.226-2.274-4.313
			C291.318,331.375,291.94,330.462,293.184,328.946"/>
		<path fill="#FFFFFF" d="M294.758,329.354c1.01-1.012,1.672-1.382,1.982-1.107c0.312,0.271,0.623,0.854,0.933,1.747l0.409,2.217
			l-0.525,1.866c-0.35,1.126-0.698,1.846-1.05,2.156c-0.349,0.312-1.029-0.271-2.039-1.748c-0.896-1.322-1.399-2.274-1.516-2.856
			C293.301,331.007,293.903,330.246,294.758,329.354"/>
		<path fill="#0D131A" d="M169.572,107.901l13.468,7.639l32.128,35.101l-46.179,7.757l-18.309-6.998
			c-12.167-4.742-18.172-7.288-18.016-7.638c0.155-0.272,2.526-1.614,7.114-4.023l11.427-6.298
			c-2.993,1.011-7.133,2.722-12.419,5.132l-6.997,3.089c-0.428-0.039-2.644-1.69-6.647-4.956c-4.042-3.303-5.929-5.072-5.656-5.305
			l6.355-3.439c4.354-2.41,7.444-4.471,9.271-6.182c-3.381,0.933-7.542,2.468-12.478,4.606l-6.589,2.799
			c-0.467-0.039-2.332-1.458-5.597-4.257c-3.265-2.837-4.781-4.394-4.548-4.665c0.194-0.233,1.866-1.069,5.015-2.507l8.455-3.964
			l-10.671,1.982l-7.347,1.166c-0.661-0.038-1.691-0.505-3.089-1.399c-1.361-0.933-2.061-1.574-2.099-1.923
			c-0.039-0.271,1.283-1.069,3.964-2.39l6.531-3.208l-7.755-0.058c-3.265-0.156-4.742-0.525-4.43-1.108
			c0.311-0.544,1.846-1.808,4.606-3.791l4.257-2.915l3.032,0.642l-2.099-0.7c-1.127-0.427-1.536-0.718-1.224-0.875l4.722-1.575
			c2.76-0.855,4.276-1.263,4.548-1.225l8.688,4.898l-2.856-3.324l-2.158-2.798c-0.272-0.622,2.041-1.108,6.938-1.458l7.931,0.292
			l4.489,7.696l-0.816-4.374c-0.272-1.593-0.332-2.467-0.176-2.623l2.917,0.233c1.709,0.349,2.739,0.642,3.09,0.875
			c0.271,0.233,1.399,2.08,3.381,5.539l-1.632-4.198c-0.623-1.554-0.856-2.448-0.699-2.682c0.155-0.272,3.013,0.758,8.571,3.09
			c5.481,2.332,8.338,3.693,8.572,4.082l2.216,5.831l-0.583-2.683l-0.292-1.75C160.01,102.907,163.236,104.52,169.572,107.901"/>
		<path fill="#00A63C" d="M212.311,149.65l-43.147,7.229l-33.06-13.293c11.194-6.063,17.804-9.893,19.824-11.486l2.39-1.866
			l-2.974,0.583c-1.982,0.504-6.103,2.001-12.36,4.488c-5.676,2.294-9.331,3.849-10.963,4.665l-9.911-8.279l7.813-4.374
			c3.965-2.449,6.842-4.606,8.629-6.472l1.982-1.924c0.039-0.195-1.107,0.078-3.44,0.816l-11.545,4.081l-9.271,3.615l-7.755-6.763
			l7.872-3.79l7.988-4.024l2.215-1.107c0.971-0.623,0.078-0.7-2.682-0.233l-22.274,3.906l-2.624-1.691l11.079-5.832l1.808-0.699
			c0.777-0.505,0.04-0.739-2.216-0.7l-7.055,0.174l-6.122-0.058c1.593-1.632,4.003-3.303,7.229-5.014l10.438,2.741l2.973,1.166
			c1.516,0.427,1.03-0.117-1.458-1.632c-2.449-1.516-4.314-2.565-5.598-3.148l-2.974-1.225l5.015-1.515l11.778,6.589
			c0.311,0.077,0.234-0.292-0.233-1.108c-1.671-2.956-3.381-5.501-5.131-7.639l11.837-0.409c2.255,4.471,4.159,7.911,5.714,10.321
			c0.855,1.283,1.361,1.711,1.516,1.283v-0.991c-0.933-4.976-1.496-8.241-1.691-9.796l3.675,0.875l7.987,13.644
			c0.739,0.856,0.739-0.039,0-2.683l-2.215-6.938l-1.575-4.023l13.585,5.656l5.715,14.984l0.583-2.449l-1.866-10.146
			c1.982,0.856,5.267,2.585,9.853,5.189c4.393,2.526,7.892,4.646,10.495,6.355L212.311,149.65"/>
		<path fill="#0D131A" d="M177.852,147.784l-5.073-11.078l22.333,10.146l52.826,19.707l-0.699,0.875
			c-4.16,5.13-8.534,10.185-13.12,15.16c-9.058,9.834-15.625,15.588-19.708,17.259l-0.29,0.117l-0.292-0.117
			c-4.121-1.516-13.158-2.216-27.113-2.1h-19.767c-0.35-0.543-0.991-2.099-1.924-4.664l-2.74-8.047l1.049,12.828l-0.116,1.691
			c-0.117,0.35-0.41,0.583-0.875,0.699c-15.355,2.021-23.148,2.76-23.381,2.215c-0.156-0.35-0.213-2.294-0.175-5.831l0.175-8.104
			c-0.895,2.176-1.477,5.365-1.75,9.562l-0.35,6.123c-0.233,0.388-4.276,1.691-12.128,3.906c-7.852,2.176-11.856,3.149-12.012,2.916
			c-0.116-0.234-0.194-1.847-0.233-4.839l0.116-5.948l-2.916,8.279c-0.971,2.837-1.594,4.334-1.865,4.49l-9.504,1.98l-9.038,1.228
			l3.149-6.122l4.84-9.156c-1.283,0.855-5.442,4.51-12.479,10.963c-6.492,5.946-9.874,8.88-10.145,8.803
			c-0.39-0.116-0.428-2.138-0.117-6.063c0.272-3.85,0.544-5.967,0.817-6.355c0.387-0.544,4.547-3.459,12.477-8.746
			c-1.399,0.427-4.392,1.554-8.979,3.38c-3.809,1.519-5.772,2.198-5.889,2.042c-0.156-0.272,1.148-2.896,3.907-7.872
			c2.72-5.015,4.334-7.697,4.839-8.046c0.351-0.271,2.235-0.972,5.656-2.1l9.387-3.148l-7.754,0.699l-4.315,0.116
			c-0.156-0.388,1.186-2.604,4.022-6.647c2.994-4.313,5.15-6.705,6.472-7.17c1.633-0.661,8.299-1.439,20-2.333
			c-0.971-0.389-3.479-1.108-7.521-2.158c-3.265-0.816-4.898-1.36-4.898-1.632c0-0.35,2.449-2.43,7.347-6.239
			c4.86-3.771,7.56-5.695,8.105-5.772l4.547,0.583l7.873,1.516l-5.54-2.215c-1.982-0.777-2.837-1.206-2.565-1.283l7.93-4.199
			c5.054-2.722,7.775-4.14,8.164-4.257c0.388-0.155,2.273,0.371,5.655,1.575l9.737,3.44l-5.307-2.683
			c-1.982-0.972-2.721-1.594-2.216-1.866c0.623-0.349,3.908-1.069,9.854-2.157l9.679-1.516
			C166.754,139.738,170.699,142.458,177.852,147.784"/>
		<path fill="#00A63C" d="M176.044,139.971l18.425,8.396l50.784,18.89c-4.779,5.793-9.405,11.08-13.874,15.861
			c-7.969,8.475-13.762,13.507-17.377,15.102c-4.432-1.516-12.866-2.333-25.305-2.449c-7.152-0.078-14.227,0.039-21.226,0.349
			l-5.888-18.366c-0.544-1.672-0.971-2.487-1.283-2.449c-0.35,0-0.447,0.915-0.292,2.741c0.855,8.046,1.342,14.927,1.458,20.641
			l-20.933,1.982c0.583-8.825,0.583-14.616,0-17.376c-0.35-1.827-1.361,0.564-3.032,7.172c-1.632,6.374-2.469,10.457-2.508,12.245
			l-20.99,5.946l-0.059-2.274c0-1.671,0.136-3.633,0.41-5.889c0.31-2.333,0.466-4.432,0.466-6.297
			c0.038-2.682-0.039-4.003-0.233-3.964c-0.117,0.038-0.562,1.223-1.341,3.556l-6.588,17.785l-14.344,2.508l7.463-14.695
			l1.691-1.924c0.66-0.972-0.233-0.699-2.682,0.817c-2.722,1.709-5.481,3.751-8.281,6.123l-9.854,8.862l-4.373,4.023
			c0.078-1.904,0.291-4.724,0.64-8.455l16.093-10.845l1.75-1.167c0.7-0.7-0.098-0.797-2.391-0.291
			c-4.51,0.972-9.99,2.721-16.442,5.248c1.632-3.188,3.907-6.959,6.821-11.313c10.611-3.848,17.318-6.199,20.116-7.054
			c2.175-0.661,3.285-1.108,3.323-1.341l-3.674-0.233l-14.869,0.991c1.479-2.487,2.917-4.684,4.315-6.589
			c1.709-2.294,2.955-3.595,3.732-3.907l11.311-1.458l11.72-0.991l2.624-0.35c0.156-0.117-0.642-0.525-2.391-1.224
			c-5.869-2.45-10.185-4.023-12.944-4.724l7.114-5.422l5.714-3.964l7.988,1.575l10.611,1.923l3.44,0.233
			c0.117-0.156-0.875-0.739-2.974-1.749l-11.661-5.073l12.478-6.531l24.898,7.93c1.555,0.272,0.641-0.525-2.741-2.391l-7.056-4.082
			l-2.915-1.923l14.751-2.799l16.035,11.136L176.044,139.971"/>
		<path fill="#009233" d="M181.7,152.448l-5.656-12.477l18.425,8.396l50.784,18.89c-4.779,5.793-9.405,11.08-13.874,15.861
			c-7.969,8.475-13.762,13.507-17.377,15.102c-2.799-0.973-7.211-1.652-13.237-2.041c0.428-7.62-0.544-13.8-2.915-18.542
			c-2.954-6.026-8.241-10.204-15.859-12.536c0-3.304-1.031-6.725-3.091-10.262c-1.516-2.526-3.946-5.656-7.289-9.388L181.7,152.448"
			/>
		<path fill="#0D131A" d="M381.985,119.155c4.471,2.294,6.745,3.596,6.821,3.908c0.081,0.232-2.137,1.185-6.646,2.857l-10.67,3.907
			l10.262-0.058l5.131,0.466c0.117,0.194-1.478,1.923-4.781,5.189l-5.539,5.131l-7.173-0.933l-11.545-1.866l10.146,4.198
			c3.889,1.594,5.851,2.468,5.89,2.624l-7.581,6.298c-5.131,3.964-7.871,5.908-8.22,5.83l-8.222-5.189
			c-5.714-3.538-9.971-5.792-12.771-6.764c10.264,6.919,15.297,10.632,15.103,11.137c-0.117,0.35-2.896,1.71-8.339,4.082
			c-5.325,2.294-8.221,3.46-8.688,3.498l-8.921-5.772c-6.413-4.159-11.195-6.745-14.345-7.754
			c2.256,1.905,5.676,5.307,10.264,10.205c4.548,4.859,6.725,7.425,6.529,7.696c-0.232,0.272-1.399,0.778-3.498,1.517l-3.731,0.99
			l-4.081-3.79c-2.76-2.604-4.839-4.217-6.239-4.839l4.956,5.714c2.372,2.683,3.52,4.102,3.441,4.256
			c-0.157,0.312-1.905,1.555-5.248,3.732c-3.459,2.254-5.345,3.304-5.656,3.148l-4.723-4.548c-3.266-3.07-5.945-5.053-8.046-5.947
			l5.364,6.938c2.954,3.537,4.354,5.364,4.196,5.48l-22.39,7.172l-41.34-13.876l16.093-39.066l0.117-0.117
			c2.138-2.138,7.562-5.636,16.27-10.495c8.474-4.703,12.903-6.861,13.292-6.472c0.272,0.272-0.193,2.138-1.398,5.598l-2.682,7.813
			l4.14-9.329c1.245-2.955,2.021-4.548,2.334-4.783c0.582-0.388,3.809-1.418,9.677-3.089c5.907-1.672,8.883-2.333,8.921-1.982
			l-2.272,4.898c-1.829,3.498-2.996,5.947-3.5,7.346l5.189-7.93c1.906-2.876,3.014-4.413,3.323-4.606
			c0.427-0.272,2.585-0.681,6.473-1.225l5.947-0.583l-4.546,10.437l5.652-6.472l3.733-4.022l7.054-0.408
			c4.356-0.155,6.609-0.136,6.763,0.059c0.156,0.195-0.116,1.38-0.814,3.556l-2.042,5.307c6.453-5.364,10.671-8.532,12.653-9.504
			l0.117-0.058h0.175c1.67,0,5.093,0.66,10.262,1.982c4.975,1.244,7.463,2.002,7.463,2.273l-2.856,3.617l-4.781,5.479l7.173-3.906
			c2.875-1.554,4.507-2.352,4.896-2.391C375.027,115.677,377.516,116.823,381.985,119.155"/>
		<path fill="#00A63C" d="M363.561,118.747c-2.254,2.799-3.791,4.529-4.606,5.189c-1.09,0.895-1.633,1.438-1.633,1.632
			c0.04,0.272,0.895,0.098,2.565-0.524c2.332-0.933,7.211-3.498,14.635-7.697l10.729,5.54l-8.512,3.381
			c-4.703,1.827-7.774,2.916-9.214,3.265l-4.022,0.875c-0.661,0.194-0.118,0.35,1.633,0.467l18.483,0.583l-7.521,7.114l-9.504-1.167
			l-14.11-1.923c-2.799-0.351-3.712-0.234-2.74,0.35l2.331,0.991c12.322,5.052,18.602,7.754,18.834,8.104
			c0.156,0.233-1.885,1.905-6.122,5.015l-6.646,4.49c-14.578-7.93-22.914-11.992-25.015-12.186l-2.741-0.175
			c-0.116,0.117,0.66,0.622,2.333,1.516l9.562,6.297c4.548,3.188,6.841,4.976,6.881,5.364c0.039,0.272-1.982,1.321-6.064,3.149
			l-7.812,3.38c-11.895-8.629-20.485-13.294-25.773-13.994c-3.422-0.428-4.801-0.428-4.14,0l3.383,1.517
			c1.05,0.661,3.517,2.895,7.404,6.705c4.354,4.276,7.658,7.872,9.912,10.787c-1.282,0.35-2.7,0.914-4.257,1.691
			c-0.814-0.895-2.7-2.391-5.654-4.489c-2.993-2.138-5.189-3.557-6.588-4.256c-1.284-0.622-1.904-0.836-1.865-0.642l1.106,1.633
			l3.907,5.072l4.606,5.597l-8.397,5.306l-6.006-5.189c-3.344-2.644-5.967-4.412-7.872-5.307c-1.319-0.621-2-0.815-2.039-0.582
			l0.875,1.924c0.466,0.971,1.729,2.876,3.788,5.714l5.189,6.53l-19.824,6.357l-39.415-13.236l15.394-37.375
			c2.759-2.682,11.447-7.716,26.064-15.102l-2.333,8.513l-2.215,7.58c-0.623,1.75-0.877,2.781-0.759,3.091
			c0.156,0.35,0.854-0.564,2.1-2.741l5.364-10.554l3.847-8.512l14.403-4.14c-1.632,2.955-3.615,8.007-5.948,15.16
			c-0.815,2.37-1.185,3.634-1.105,3.79l2.389-3.208c2.021-3.227,5.773-8.727,11.254-16.501l9.853-1.399
			c-1.904,2.683-3.771,6.647-5.598,11.896c-0.583,1.71-0.796,2.584-0.642,2.624l1.867-1.866l11.604-13.002l11.719-0.35l-1.866,4.373
			l-2.624,5.598l-1.05,2.625l2.158-1.691l7.229-5.889c3.731-3.032,6.336-4.937,7.813-5.714c2.061,0.078,7.055,1.263,14.984,3.557
			L363.561,118.747"/>
		<path fill="#009233" d="M268.753,129.068c4.47,6.918,7.638,12.73,9.503,17.434c12.362,0.39,21.983,2.76,28.864,7.114
			c2.253,1.399,5.033,3.556,8.338,6.473l8.805,7.346l-2.45,1.05c-0.815-0.895-2.7-2.391-5.654-4.489
			c-2.993-2.139-5.189-3.558-6.588-4.257c-1.284-0.621-1.904-0.835-1.865-0.641l1.106,1.633l3.907,5.072l4.605,5.597l-8.396,5.306
			l-6.006-5.189c-3.344-2.644-5.967-4.412-7.872-5.307c-1.32-0.621-2-0.815-2.039-0.582l0.875,1.924
			c0.466,0.971,1.729,2.875,3.788,5.713l5.189,6.53l-19.824,6.356l-39.416-13.236l15.395-37.375
			C260.337,134.295,263.583,132.139,268.753,129.068"/>
		<path fill="#0D131A" d="M206.073,174.372l-11.662-0.232c-6.608-0.156-9.66-0.448-9.154-0.875l11.194-8.571l-17.958-5.656
			l-2.449-0.991l2.682-0.467l27.346,1.458l24.897,14.925l-16.443,4.898c-10.882,3.15-16.15,4.451-15.8,3.908l3.673-4.14
			L206.073,174.372"/>
		<path fill="#00A63C" d="M198.434,164.985l1.458-0.875l-1.458-0.933c-0.816-0.389-3.421-1.108-7.812-2.157l-6.239-1.633
			l10.495,0.35l10.787,0.757l21.574,12.945c-14.265,4.315-21.729,6.278-22.391,5.889c-0.31-0.193,0.253-1.204,1.69-3.031
			c1.479-1.905,2.139-2.994,1.984-3.266l-9.622-0.699l-9.621-0.349c-0.194-0.118,1.069-1.186,3.79-3.208L198.434,164.985"/>
		<path fill="#0D131A" d="M241.582,45.571c2.176-0.856,3.42-0.875,3.73-0.059c0.117,0.388-0.059,1.244-0.523,2.566
			c-0.816,2.642-1.244,4.819-1.283,6.531l3.613-3.5c1.479-1.399,2.605-2.234,3.385-2.506l2.273-0.118
			c0.467,0.312,0.467,0.973,0,1.983c-1.011,2.178-1.574,5.093-1.69,8.747c-0.156,5.364,1.185,9.757,4.023,13.178l0.581,0.757
			l-0.814,0.468c-5.053,2.798-10.223,5.266-15.511,7.405l-6.471,2.332l-0.642,0.176L219.6,60.383l3.615-7.172
			c2.644-5.054,4.489-8.339,5.539-9.854c1.283-1.788,2.313-2.662,3.091-2.624c0.778,0.077,1.068,0.992,0.874,2.741
			c-0.311,3.655-0.369,6.123-0.175,7.406l3.849-2.566C238.258,47.107,239.989,46.193,241.582,45.571"/>
		<path fill="#C94772" d="M249.161,59.04c0,5.364,1.36,9.912,4.083,13.644c-7.23,4.003-13.955,6.978-20.176,8.92l-11.604-21.166
			c5.715-10.689,8.592-15.529,8.629-14.519l-0.057,3.499c0,1.71,0.118,2.837,0.35,3.382l0.524,1.166l1.456-1.107
			c0.935-0.816,2.838-1.983,5.716-3.499c2.954-1.554,4.392-2.099,4.315-1.633l-0.642,3.731l-0.468,4.431
			c0,2.255,0.643,2.643,1.927,1.167c0.736-0.856,2.136-2.139,4.196-3.849c2.061-1.711,2.973-2.352,2.74-1.924
			c-0.234,0.467-0.447,1.477-0.641,3.032C249.279,55.989,249.161,57.563,249.161,59.04"/>
		<path fill="#0D131A" d="M221.349,59.507c0.894-0.311,1.536-0.175,1.925,0.408l3.15,4.314c1.941,3.46,2.914,7.075,2.914,10.846
			c0,3.188-0.662,6.278-1.982,9.271c-0.932,2.139-2.021,5.987-3.265,11.545l-3.559,17.201c-2.915,15.004-5.208,25.539-6.88,31.602
			c-2.76,10.03-5.52,15.762-8.279,17.201l-3.09,0.059l-2.799-1.283c-6.803-3.07-11.604-6.103-14.402-9.095
			c-4.626-5.092-7.386-12.575-8.279-22.449c-0.895-9.99,5.363-24.119,18.774-42.389c5.054-6.919,10.185-13.1,15.394-18.541
			C215.947,63.026,219.406,60.128,221.349,59.507"/>
		<path fill="#0D131A" d="M222.573,95.191l-3.614,17.609c-2.76,14.071-4.936,24.159-6.53,30.262
			c-2.76,10.34-5.364,16.132-7.813,17.375c-0.544,0.271-1.089,0.271-1.633,0l-2.856-1.283c-6.531-2.876-11.117-5.773-13.761-8.688
			c-4.431-4.859-7.074-12.03-7.929-21.515l-0.06-1.633c0-7.969,4.394-18.677,13.179-32.127c7.191-10.962,14.83-20.389,22.915-28.278
			c2.1-2.061,3.888-3.616,5.364-4.665l2.217-1.283l0.057,0.058l2.917,3.965c1.825,3.148,2.739,6.472,2.739,9.97
			c0,2.877-0.643,5.792-1.925,8.747C224.867,85.881,223.78,89.71,222.573,95.191"/>
		<path fill="#0D131A" d="M270.326,88.31c17.299,24.529,16.017,47.405-3.847,68.629c-5.248,5.635-11.837,9.641-19.768,12.011
			c-6.53,1.983-13.196,2.703-19.999,2.158c-6.063-0.505-12.303-2.022-18.717-4.548c-5.403-2.099-8.785-3.906-10.146-5.422
			c-10.573-4.431-19.047-10.786-25.421-19.067c-5.441-7.074-8.572-14.324-9.387-21.749c-1.323-11.7,3.771-23.674,15.276-35.917
			c6.375-6.88,13.488-12.75,21.341-17.609c3.849-2.371,6.822-4.974,8.919-7.813c1.828-2.526,2.742-4.878,2.742-7.055l-0.117-3.207
			c-0.156-0.739-0.506-1.478-1.05-2.216c-0.622-0.855-0.738-1.418-0.35-1.69c0.427-0.272,1.303-0.098,2.624,0.524
			c1.943,0.894,3.518,2.214,4.723,3.964l2.449,4.431l0.932-3.557c0.545-1.554,1.166-1.962,1.866-1.224
			c1.243,1.322,2.604,6.375,4.081,15.16l0.875-3.907c0.194-0.544,0.951,0.214,2.275,2.274c2.369,3.77,3.964,6.589,4.779,8.454
			c1.049-3.11,2.723-6.492,5.016-10.145c0.933-1.478,1.69-2.255,2.273-2.333c0.545-0.039,0.777,0.602,0.7,1.925
			c-0.079,1.982,0.31,4.392,1.165,7.229c0.621-1.671,1.67-3.537,3.148-5.597c1.399-1.943,2.78-3.518,4.142-4.724
			c1.358-1.205,2.642-1.866,3.848-1.981c1.203-0.156,1.554,0.31,1.05,1.399l-1.4,3.382c-0.428,1.438-0.699,3.168-0.816,5.189
			c1.322-1.827,2.45-3.167,3.383-4.023c0.661-0.622,1.769-1.458,3.322-2.506c3.538-2.412,4.782-2.353,3.733,0.174
			c-2.411,5.52-3.362,9.718-2.856,12.594C261.775,74.977,264.846,80.575,270.326,88.31"/>
		<path fill="#E85382" d="M215.285,78.69c-7.814,7.23-13.119,12.225-15.918,14.984c-11.544,11.312-17.201,23.517-16.966,36.618
			c0.116,6.841,1.516,12.808,4.197,17.9c1.204,2.178,3.109,4.724,5.714,7.638c-17.376-11.389-26.123-24.003-26.239-37.841v-0.233
			c0-10.262,4.762-20.815,14.286-31.661c6.763-7.697,14.033-13.839,21.807-18.426c6.841-4.042,10.69-8.667,11.546-13.876
			l0.115-4.024c0-0.971,0.156-1.283,0.468-0.933c1.517,1.711,2.759,3.402,3.729,5.074c0.391,0.622,0.816,1.749,1.283,3.381
			c0.273,0.972,0.505,1.187,0.7,0.643l0.7-3.616c0.311-1.555,0.623-2.177,0.932-1.865c0.895,0.893,1.925,3.964,3.09,9.212
			l0.176,1.808C224.906,67.086,221.699,72.16,215.285,78.69"/>
		<path fill="#C94772" d="M216.043,86.212c-9.174,9.718-14.868,16.151-17.085,19.3c-6.53,9.251-9.794,18.542-9.794,27.872
			c0,5.635,2.099,13.312,6.297,23.03c-2.722-1.982-5.443-6.2-8.164-12.652c-1.554-3.693-2.254-7.697-2.099-12.012
			c0.271-6.607,1.709-12.925,4.315-18.95c2.409-5.597,5.694-10.69,9.853-15.277c2.682-2.914,7.697-7.813,15.044-14.693
			c6.297-6.452,10.125-12.07,11.486-16.85c0.35,1.515,0.193,3.401-0.467,5.655C224.109,76.105,220.98,80.964,216.043,86.212"/>
		<path fill="#E85382" d="M264.613,155.657c-4.976,5.286-11.312,8.881-19.008,10.786c-5.831,1.477-12.245,1.924-19.241,1.341
			c-6.529-0.544-12.846-1.827-18.949-3.849c-4.937-1.671-7.736-2.974-8.396-3.907l0.175,0.059l-1.109-2.042
			c-4.236-7.812-6.355-15.568-6.355-23.265c0-9.252,3.051-18.581,9.154-27.987c3.421-5.287,8.862-11.779,16.326-19.476
			c2.021-2.138,4.488-5.597,7.404-10.379c3.461-5.791,4.84-9.601,4.141-11.428c0.66,0.661,1.477,1.848,2.449,3.558
			c1.088,1.905,2.061,3.343,2.915,4.314c1.128,1.284,1.808,1.73,2.04,1.341l0.176-2.507c0.039-1.049,0.564-2.526,1.574-4.431
			c0.855-1.749,1.885-3.459,3.09-5.131c0.35,3.422,1.03,6.044,2.041,7.873l0.99,1.224l0.525-1.633
			c0.583-1.516,1.457-3.304,2.624-5.364c1.708-2.915,3.285-4.995,4.724-6.239l1.515-1.049c-0.467,1.089-0.835,2.604-1.108,4.548
			c-0.311,1.827-0.466,3.558-0.466,5.189c0.038,1.438,0.195,2.119,0.466,2.04l0.935-1.457c0.388-0.777,1.573-2.021,3.557-3.732
			c1.982-1.709,2.876-2.233,2.681-1.573c-0.737,2.955-1.107,5.169-1.107,6.647c0,2.371,0.699,5.015,2.1,7.93
			c1.438,2.916,3.984,6.939,7.638,12.069c3.187,4.47,5.675,9.407,7.464,14.81c1.864,5.675,2.798,11.428,2.798,17.26
			c0,6.141-1.068,12.03-3.208,17.666C272.834,145.005,269.318,150.603,264.613,155.657"/>
		<path fill="#C94772" d="M192.312,155.83c-6.918-4.586-12.458-9.329-16.618-14.227c1.983,0.7,4.995,1.477,9.039,2.332
			c1.049,2.877,2.428,5.5,4.14,7.873L192.312,155.83"/>
		<path fill="#C94772" d="M277.09,109.709c0.855,3.926,1.283,7.756,1.283,11.487c0,6.141-1.068,12.03-3.208,17.666
			c-2.332,6.143-5.849,11.74-10.554,16.793c-4.976,5.287-11.311,8.881-19.008,10.786c-5.83,1.478-12.244,1.924-19.241,1.342
			c-6.529-0.544-12.847-1.827-18.949-3.849c-4.937-1.671-7.736-2.974-8.396-3.907l0.175,0.059l-1.109-2.042
			c-2.216-4.119-3.829-8.105-4.839-11.953c17.687,4.897,34.751,4.14,51.194-2.274C261.971,136.939,272.853,125.568,277.09,109.709"
			/>
		<path fill="#5DC1CF" d="M322.045,191.456c0.896,0.623,0.854,4.917-0.116,12.887c-1.05,8.512-2.779,17.395-5.189,26.646
			c0.855,4.276,0.777,10.204-0.233,17.784c-1.05,7.696-2.682,14.168-4.897,19.416c-2.1,5.015-5.249,9.504-9.446,13.47
			c-3.459,3.305-8.979,7.423-16.559,12.361c-7.735,5.013-18.445,7.716-32.127,8.104c-15.355,0.427-29.018-2.586-40.99-9.038
			c-15.742-8.474-25.227-19.591-28.454-33.354c-1.827-2.486-2.488-5.072-1.982-7.754c0.389-1.942,1.361-3.788,2.916-5.538
			c-0.583-2.917-0.097-7.328,1.457-13.237l2.449-7.986l-1.458-2.626c-0.972-2.02-1.361-3.691-1.165-5.014
			c-0.855-2.137-1.73-6.607-2.624-13.41c-0.971-7.348-1.088-11.837-0.35-13.47c1.71-1.283,6.589-1.866,14.635-1.749l14.577,1.05
			c1.09-0.932,4.062-2.41,8.921-4.432c5.753-2.41,10.419-3.829,13.995-4.255c8.513-1.011,16.228-0.603,23.147,1.223
			c6.451,1.749,12.418,4.801,17.9,9.155c9.212-3.499,19.317-4.724,30.318-3.674C314.893,188.795,319.987,189.941,322.045,191.456"/>
		<path fill="#50A8B4" d="M221.406,185.566c5.754-2.41,10.419-3.828,13.995-4.255c13.644-1.594,25.305,0.485,34.985,6.239
			c-5.444,3.42-10.691,7.56-15.744,12.42c-3.305,3.148-7.832,7.986-13.584,14.518c-12.052-15.16-24.82-20.291-38.309-15.393
			c-0.156-2.565-1.049-4.84-2.682-6.823c-1.632-1.982-3.499-3.07-5.598-3.265l10.904,0.292l7.114,0.699
			C213.574,189.066,216.549,187.589,221.406,185.566"/>
		<path fill="#0D131A" d="M187.064,262.942c0-0.312,1.477-0.312,4.432,0c3.032,0.311,5.072,0.834,6.122,1.573l-0.699,3.849
			l-1.167,3.615c-0.504,1.36-1.049,2.08-1.633,2.156c-0.971,0.118-2.351-1.185-4.14-3.906
			C188.192,267.394,187.221,264.963,187.064,262.942"/>
		<path fill="#FFFFFF" d="M196.336,265.158l-1.049,2.741c-0.778,2.292-1.342,3.459-1.691,3.498c-0.271,0-0.719-0.369-1.342-1.106
			l-2.215-3.091c-1.166-1.943-1.749-3.344-1.749-4.2v-0.175l3.322,0.352C193.439,263.721,195.013,264.38,196.336,265.158"/>
		<path fill="#50A8B4" d="M322.045,191.456c0.896,0.623,0.854,4.917-0.116,12.887c-1.05,8.512-2.779,17.395-5.189,26.646
			c0.855,4.276,0.777,10.204-0.233,17.784c-1.05,7.696-2.682,14.168-4.897,19.416c-2.216,5.247-6.121,10.63-11.719,16.152
			c-5.521,5.44-10.282,8.667-14.286,9.679c4.626-2.41,8.707-6.124,12.244-11.137c3.771-5.288,6.454-11.353,8.047-18.193
			c3.81-16.287,0.953-33.12-8.57-50.494c-2.605-4.821-3.907-7.599-3.907-8.339c0-0.427,1.09-1.398,3.266-2.917
			c5.676-4.002,11.486-7.13,17.435-9.387C318.858,191.729,321.501,191.029,322.045,191.456"/>
		<path fill="#0D131A" d="M288.112,277.462l-1.983,2.215c-0.738,0.815-1.379,1.127-1.924,0.933
			c-0.428-0.156-0.973-0.739-1.632-1.748l-3.615-6.007l0.698-0.935l12.887-1.049L288.112,277.462"/>
		<path fill="#FFFFFF" d="M280.764,272.912c4.159-1.089,7.27-1.535,9.33-1.343c-3.227,4.899-5.034,7.271-5.424,7.115l-1.749-2.391
			L280.764,272.912"/>
		<path fill="#0D131A" d="M323.794,189.474c1.052,0.777,1.147,5.521,0.293,14.227c-1.05,10.106-3.227,19.611-6.531,28.512
			c2.099,8.629,1.826,17.687-0.816,27.172c-2.642,9.524-6.977,16.909-13.003,22.156c4.119-7.735,7.095-14.17,8.922-19.3
			c2.098-5.946,3.245-11.661,3.438-17.143c0.078-2.876-0.174-6.16-0.757-9.853c-0.506-3.072-0.973-5.113-1.399-6.122
			c-0.312-0.777-0.37-1.283-0.175-1.517c0.194-0.232,0.544-0.136,1.049,0.291l1.575,1.634c2.526-9.719,4.218-18.426,5.072-26.123
			c0.738-6.453,0.758-10.243,0.058-11.37c-2.294-1.399-7.249-2.469-14.868-3.208c-10.846-1.049-20.814,0.155-29.912,3.615
			l-0.465,0.116l-0.35-0.233c-5.482-4.353-11.545-7.21-18.193-8.572c-6.296-1.283-13.644-1.321-22.039-0.116
			c-5.208,0.777-10.806,2.624-16.793,5.54c-4.081,1.982-7.639,4.082-10.671,6.296c-1.788,1.283-2.838,1.808-3.148,1.574
			c-0.311-0.155-0.02-0.738,0.875-1.749l3.031-2.915l1.867-1.633l-13.761-1.049c-7.308-0.155-11.797,0.311-13.469,1.399
			c-0.699,0.661-0.836,3.051-0.409,7.171c0.505,4.82,1.691,10.378,3.557,16.676l0.582-0.523c-1.826-10.847-2.661-17.55-2.507-20.116
			c0.04-0.661,0.35-1.07,0.934-1.225c1.127-0.039,2.973,2.158,5.54,6.588c2.487,4.315,3.886,7.601,4.198,9.856l0.642-0.35
			l2.332-0.351c1.128,0,1.671,0.254,1.632,0.758c-0.078,0.505-0.681,0.895-1.807,1.166c-1.206,0.312-3.031,1.167-5.481,2.566
			c-2.799,1.594-4.781,3.07-5.948,4.431c-0.737,0.895-0.797,2.78-0.174,5.655l1.166,4.023c-1.361,2.916-2.216,7.055-2.565,12.421
			c-0.195,2.642-0.252,5.013-0.175,7.112c-2.254,2.799-2.935,5.794-2.041,8.981c0.894,3.187,2.896,5.013,6.006,5.479
			c2.448,0.35,6.278,1.556,11.486,3.614c6.608,2.566,11.856,5.327,15.743,8.279l0.176,0.117l0.059,0.118
			c1.281,2.292,3.283,4.47,6.004,6.53c2.838,2.138,5.15,3.109,6.939,2.916c2.1-0.195,6.627-1.866,13.585-5.015h0.058
			c10.769-2.839,23.944-5.17,39.533-6.996l9.212-1.168c1.32-0.116,2.625-0.601,3.907-1.456l2.508-1.982
			c0.698-0.545,1.185-0.68,1.456-0.408c0.31,0.271,0.214,0.796-0.291,1.573l-1.866,2.157c-0.972,0.777-2.448,1.438-4.432,1.983
			l-2.916,0.408l-5.363,0.583c-17.882,2.1-31.253,4.316-40.115,6.647c-7.736,3.965-12.731,6.065-14.984,6.296
			c-2.138,0.233-4.822-1.009-8.047-3.73c-2.877-2.371-5.035-4.821-6.473-7.346c-3.73-2.76-8.649-5.248-14.752-7.464
			c-4.47-1.632-8.007-2.643-10.612-3.031c-1.788-0.312-3.207-0.798-4.257-1.458c3.731,12.128,12.79,22.06,27.172,29.795
			c10.844,5.831,22.369,8.689,34.574,8.572c11.429-0.118,24.18-2.859,38.251-8.224c2.253-0.854,3.596-1.164,4.023-0.932
			c0.429,0.233-0.759,1.012-3.558,2.332c-13.061,6.142-25.889,9.251-38.482,9.329s-24.432-2.857-35.509-8.804
			c-15.743-8.475-25.266-19.67-28.571-33.587c-2.332-1.242-3.498-3.479-3.498-6.705c-0.039-3.109,1.011-5.849,3.148-8.222
			c-0.116-7.229,0.855-13.408,2.916-18.54c-1.049-1.671-1.652-3.597-1.807-5.772c-0.194-2.138,0.116-3.789,0.933-4.957
			c-2.487-6.725-3.945-13.119-4.374-19.184c-0.35-5.247,0.059-8.26,1.225-9.038c2.293-1.437,7.463-1.866,15.51-1.282l14.693,1.749
			c1.749-1.205,4.937-2.74,9.562-4.606c5.519-2.254,10.01-3.596,13.47-4.024c8.434-1.01,15.976-0.738,22.622,0.817
			c6.803,1.593,13.041,4.605,18.716,9.038c9.252-3.421,19.515-4.762,30.787-4.023C316.176,186.909,321.618,187.958,323.794,189.474"
			/>
		<path fill="#431E37" d="M186.074,194.838v-0.291c0.932,0.934,2.332,3.285,4.197,7.055c1.982,3.965,3.188,7.035,3.615,9.212
			c-1.672,0.506-3.441,1.535-5.306,3.09l-1.516-9.386C186.404,199.775,186.074,196.549,186.074,194.838"/>
		<path fill="#0D131A" d="M192.604,223.526c1.05,0.388,1.828,0.775,2.333,1.166c2.993,2.332,6.529,7.367,10.611,15.101
			c3.615,6.997,6.162,13.022,7.639,18.076l0.758,3.032c0.038,0.737-0.136,1.089-0.524,1.05l-0.934-0.64l-0.291-0.585
			c-2.76,0.7-6.977-0.427-12.653-3.382c-4.586-2.333-8.396-4.801-11.428-7.404c-0.7-0.234-1.127-0.643-1.283-1.227
			c-0.078-0.35,0.021-0.659,0.292-0.932l0.467-0.292c-0.777-4.43-0.642-8.92,0.409-13.47c1.011-4.158,2.312-6.822,3.906-7.988
			l-1.517-1.573c-0.271-0.545-0.271-0.933,0-1.166L192.604,223.526"/>
		<path fill="#FFFFFF" d="M188.872,243.526c0-3.81,0.603-7.561,1.807-11.254c1.05-3.187,1.982-4.995,2.799-5.423
			c1.865,0.584,4.84,4.723,8.92,12.42c4.004,7.502,6.861,14.169,8.572,20.001c-2.488,0.193-6.162-0.973-11.021-3.499
			c-4.121-2.177-7.658-4.47-10.611-6.881C189.028,246.945,188.872,245.158,188.872,243.526"/>
		<path fill="#0D131A" d="M198.958,232.214l1.05-0.059c2.411,3.811,4.859,8.437,7.347,13.878c2.487,5.481,4.237,10.067,5.247,13.76
			l0.176,0.583l-5.364-0.583c-4.043-0.699-7.192-1.865-9.446-3.498l-0.174-0.058l-0.118-0.232c-1.788-4.898-2.702-8.98-2.739-12.245
			C194.858,239.404,196.199,235.558,198.958,232.214"/>
		<path fill="#91308C" d="M196.919,245.041c0-4.081,0.875-7.833,2.624-11.252c2.254,3.653,4.509,7.949,6.764,12.887
			c2.255,4.974,3.888,9.229,4.897,12.768c-2.761,0.311-6.899-1.05-12.42-4.081C197.541,252.02,196.919,248.579,196.919,245.041"/>
		<path fill="#0D131A" d="M295.282,224.459c1.128-0.157,1.672,0.078,1.633,0.699c-0.039,0.584-0.35,1.03-0.935,1.342l-2.33,0.99
			c2.409,1.79,3.827,5.852,4.256,12.188c0.35,5.752-0.117,10.165-1.4,13.234c1.633,0.079,2.371,0.389,2.215,0.934l-0.989,0.876
			l-3.092,0.757l-35.451,7.406l-1.342,0.524c-0.814,0.077-1.089-0.506-0.814-1.748c1.011-4.898,2.876-9.466,5.598-13.704
			c2.603-4.158,6.316-8.454,11.137-12.886C280.297,229.124,287.469,225.587,295.282,224.459"/>
		<path fill="#FFFFFF" d="M274.642,238.395c3.187-2.917,6.394-5.363,9.62-7.347c2.955-1.788,5.442-2.896,7.464-3.324
			c1.166,1.4,2.08,3.984,2.741,7.754c0.622,3.383,0.933,6.941,0.933,10.672c0,3.344-0.253,5.773-0.759,7.289
			c-4.118,0.582-14.344,2.799-30.668,6.646l-4.198,0.991c0.387-3.147,1.885-6.705,4.489-10.671
			C266.867,246.401,270.326,242.399,274.642,238.395"/>
		<path fill="#0D131A" d="M282.105,230.639l0.699-0.464l0.233,0.814c3.654,7.93,4.354,16.386,2.099,25.365l-0.115,0.406l-0.351,0.06
			l-20.35,4.664l-6.122,1.399v-0.758c0.195-4.938,3.012-10.709,8.455-17.317C271.28,239.212,276.43,234.488,282.105,230.639"/>
		<path fill="#91308C" d="M282.105,232.154c1.749,6.61,2.625,12.207,2.625,16.794c0,2.449-0.253,4.703-0.76,6.763l-19.939,4.607
			l-4.49,1.05c0.427-4.625,3.147-9.951,8.162-15.978C271.98,240.26,276.78,235.849,282.105,232.154"/>
		<path fill="#0D131A" d="M319.539,195.013l-0.877,0.875l-0.467,0.293c1.013,1.477,0.837,6.005-0.522,13.586
			c-1.166,6.411-2.176,10.746-3.032,13.003l-0.933,2.04l-0.641-0.991c-0.39-0.972-2.08-3.091-5.074-6.355
			c-3.42-3.654-6.512-6.413-9.271-8.277l-1.282,0.872c-0.504,0.351-0.836,0.351-0.991,0c-0.154-0.388,0.118-0.99,0.817-1.806
			c1.051-1.245,3.926-3.655,8.628-7.231c5.21-4.004,8.668-6.181,10.379-6.531l3.324-0.35
			C319.869,194.255,319.849,194.547,319.539,195.013"/>
		<path fill="#431E37" d="M315.573,209.998c-0.699,4.782-1.438,8.747-2.215,11.895c-1.283-2.137-2.976-4.412-5.075-6.822
			c-2.525-2.953-5.032-5.305-7.521-7.055c2.49-2.448,5.056-4.664,7.697-6.647c3.304-2.527,6.007-4.101,8.105-4.723l0.174,1.632
			C316.74,200.883,316.352,204.791,315.573,209.998"/>
		<path fill="#0D131A" d="M212.369,230.523c-0.621-1.322-0.777-2.138-0.466-2.449c0.312-0.311,0.874,0.252,1.69,1.69
			c1.167,1.943,2.196,4.062,3.091,6.355c1.166,3.072,1.827,5.87,1.981,8.397c0.156,2.526,0.059,3.401-0.291,2.622l-1.224-3.964
			l-2.099-6.238L212.369,230.523"/>
		<path fill="#0D131A" d="M264.672,226.268c0.815-0.585,1.321-0.738,1.516-0.469c0.194,0.312-0.02,0.739-0.642,1.284
			c-1.672,1.516-3.245,3.926-4.723,7.229c-1.594,3.575-2.839,7.697-3.732,12.362c-0.271,1.555-0.583,2.449-0.932,2.681
			c-0.349,0.272-0.486-0.522-0.409-2.39C256.217,236.937,259.19,230.037,264.672,226.268"/>
		<path fill="#0D131A" d="M218.784,270.755l1.282,0.059c0.699,0.466,1.264,1.069,1.691,1.807l0.934,2.217
			c0.232,0.699,0.232,1.049,0,1.049l-1.05-0.699l-2.39-2.855C218.784,271.708,218.628,271.182,218.784,270.755"/>
		<path fill="#0D131A" d="M233.127,276.586c0.35-1.204,1.73-2.352,4.141-3.439c0.699-0.35,1.165-0.292,1.398,0.173
			c0.271,0.468,0.099,0.915-0.524,1.342l-3.964,2.566l-1.4,0.584L233.127,276.586"/>
		<path fill="#0D131A" d="M203.333,239.969l2.1,4.199l1.982,4.314c-0.156,1.787-0.467,3.266-0.934,4.43
			c-0.504,1.205-1.069,1.81-1.69,1.81c-0.738,0-1.381-0.777-1.925-2.333c-0.504-1.595-0.758-3.499-0.758-5.713
			C202.108,243.76,202.515,241.523,203.333,239.969"/>
		<path fill="#0D131A" d="M271.26,251.515c-0.31,2.021-0.895,3.711-1.749,5.071c-0.814,1.322-1.651,1.906-2.506,1.749
			c-0.816-0.115-1.419-0.932-1.81-2.449c-0.349-1.554-0.368-3.343-0.057-5.364c0.312-2.021,0.893-3.691,1.748-5.013
			c0.816-1.359,1.652-1.964,2.508-1.808c0.854,0.156,1.457,0.99,1.809,2.506C271.551,247.724,271.571,249.493,271.26,251.515"/>
		<path fill="#0D131A" d="M269.686,151.283c5.714-2.761,13.936-6.103,24.665-10.029c11.039-4.082,19.3-6.726,24.78-7.929
			l1.573,0.116c0.077,0.311-0.369,0.583-1.341,0.817c-4.936,1.243-13.352,4.179-25.246,8.804
			c-11.274,4.392-20.038,8.065-26.297,11.02L269.686,151.283"/>
		<path fill="#0D131A" d="M343.154,131.458c-8.784,2.061-21.361,6.005-37.727,11.837c-18.578,6.607-32.902,12.536-42.972,17.784
			l0.642-2.041c9.757-5.131,23.499-10.825,41.225-17.084c16.869-5.908,29.735-9.719,38.599-11.428
			c0.974-0.156,1.497-0.098,1.574,0.175C344.573,131.011,344.126,131.265,343.154,131.458"/>
		<path fill="#0D131A" d="M302.921,138.805c0.583-3.849,1.536-7.445,2.856-10.787c0.194-0.584,0.41-0.836,0.642-0.758
			c0.272,0.078,0.311,0.408,0.116,0.991c-0.894,2.76-1.671,6.181-2.332,10.261L302.921,138.805"/>
		<path fill="#0D131A" d="M286.536,145.044c0.816-4.198,1.672-7.794,2.565-10.786c0.194-0.584,0.409-0.817,0.642-0.7
			c0.233,0.116,0.271,0.467,0.118,1.049c-0.701,2.604-1.306,5.831-1.81,9.679L286.536,145.044"/>
		<path fill="#0D131A" d="M306.945,137.172c0.271-2.06,0.641-3.887,1.108-5.48c0.115-0.467,0.31-0.662,0.581-0.583
			c0.233,0.079,0.312,0.35,0.233,0.817l-0.814,4.956L306.945,137.172"/>
		<path fill="#0D131A" d="M317.381,138.63l4.198,3.673c0.35,0.311,0.429,0.563,0.232,0.757l-0.814-0.175l-5.073-3.964
			L317.381,138.63"/>
		<path fill="#0D131A" d="M286.946,149.476l1.224-0.642c1.36,0.895,3.091,2.275,5.188,4.14l4.723,4.782
			c0.351,0.428,0.428,0.739,0.234,0.933c-0.234,0.194-0.525,0.078-0.876-0.35l-5.188-4.665L286.946,149.476"/>
		<path fill="#0D131A" d="M295.982,145.919l1.343-0.583c3.147,2.372,5.929,5.015,8.339,7.929c0.388,0.428,0.465,0.719,0.233,0.875
			c-0.233,0.156-0.545,0.019-0.934-0.408C302.162,150.855,299.17,148.25,295.982,145.919"/>
		<path fill="#0D131A" d="M186.831,153.849l2.448,1.515c-7.074,1.516-15.917,3.635-26.529,6.356
			c-12.556,3.265-21.069,5.772-25.539,7.522l-1.575,0.058c-0.116-0.271,0.292-0.602,1.225-0.99
			c4.937-2.022,13.177-4.684,24.722-7.988C171.924,157.405,180.339,155.248,186.831,153.849"/>
		<path fill="#0D131A" d="M116.162,180.669l-1.516,0.117c-0.116-0.272,0.272-0.603,1.167-0.992
			c7.619-3.381,18.21-7.054,31.777-11.02c13.449-3.965,25.479-6.939,36.092-8.921l3.265,1.107
			c-10.379,2.021-23.012,5.111-37.899,9.271C134.433,174.314,123.47,177.793,116.162,180.669"/>
		<path fill="#0D131A" d="M149.048,155.539c-0.505-0.349-0.681-0.621-0.525-0.816l0.991,0.174c2.877,1.905,5.715,4.295,8.513,7.172
			l-1.225,0.524C154.043,159.718,151.458,157.366,149.048,155.539"/>
		<path fill="#0D131A" d="M162.342,160.554l-1.107,0.408l-3.499-3.557c-0.466-0.428-0.621-0.739-0.466-0.933
			c0.155-0.195,0.486-0.097,0.992,0.29L162.342,160.554"/>
		<path fill="#0D131A" d="M126.075,176.414l1.106-0.408c-0.31,1.75-0.504,3.519-0.583,5.307c-0.038,0.583-0.194,0.894-0.467,0.932
			c-0.233,0-0.369-0.292-0.407-0.875C125.686,180.087,125.802,178.435,126.075,176.414"/>
		<path fill="#0D131A" d="M152.197,168.366c-0.118,2.022-0.175,4.315-0.175,6.881c0.038,3.11,0.155,5.326,0.35,6.647
			c0.078,0.544-0.02,0.836-0.292,0.875c-0.271,0.077-0.466-0.156-0.582-0.699c-0.311-1.672-0.544-3.908-0.7-6.706
			c-0.117-2.876-0.076-5.112,0.117-6.706L152.197,168.366"/>
		<path fill="#0D131A" d="M146.949,169.824c-0.544,4.083-0.738,8.008-0.583,11.779c0.04,0.583-0.077,0.914-0.35,0.991
			c-0.233,0.038-0.389-0.214-0.467-0.758c-0.428-3.654-0.408-7.501,0.058-11.545L146.949,169.824"/>
		<path fill="#008982" d="M234.352,197.638c2.332-2.255,9.27-2.081,20.815,0.524c11.623,2.604,17.551,5.5,17.783,8.688
			c0.195,2.838-3.614,7.852-11.428,15.044c-7.852,7.23-13.334,10.631-16.442,10.205c-2.994-0.428-6.045-5.792-9.156-16.093
			C232.856,205.742,232.33,199.62,234.352,197.638"/>
		<path fill="#00736D" d="M233.769,206.618c-0.739-4.859-0.545-7.854,0.585-8.981c1.126-1.088,3.906-1.516,8.336-1.281
			c4.121,0.194,8.65,0.893,13.586,2.098c-3.576,3.305-8.648,8.648-15.217,16.035C238.336,211.184,235.906,208.561,233.769,206.618"
			/>
		<path fill="#008982" d="M233.127,230.697c0.894,1.595,0.777,4.704-0.35,9.329c-1.09,4.472-2.158,6.744-3.208,6.823
			c-0.775,0.077-2.157-1.691-4.139-5.307c-2.021-3.731-2.839-6.259-2.448-7.579c0.388-1.322,2.098-2.352,5.131-3.091
			L233.127,230.697"/>
		<path fill="#008982" d="M165.724,250.698l-5.249-0.177c-0.661-0.387-1.671-1.632-3.031-3.731c-1.439-2.292-2.1-3.866-1.983-4.722
			c0.117-1.05,0.836-2.953,2.157-5.713c1.361-2.956,2.547-4.976,3.557-6.064c1.088-1.128,3.401-1.924,6.938-2.392
			c3.459-0.466,5.345-0.31,5.656,0.466c0.544,1.323,0.544,4.802,0,10.439c-0.505,5.829-1.225,9.191-2.158,10.085
			C170.719,249.783,168.756,250.386,165.724,250.698"/>
		<path fill="#008982" d="M155.987,222.185c-0.117,0.817-1.01,1.749-2.681,2.799c-1.595,0.972-2.703,1.418-3.324,1.342
			c-0.662-0.117-1.593-1.283-2.798-3.498c-1.245-2.334-1.555-3.772-0.933-4.315c0.739-0.661,2.565-0.467,5.481,0.584
			C154.723,220.185,156.142,221.215,155.987,222.185"/>
		<path fill="#008982" d="M118.145,270.989l0.057-5.831l-0.933-8.454c-0.351-3.459-0.544-6.491-0.583-9.097
			c3.148-0.893,5.189-1.281,6.122-1.165c0.622,0.077,2.04,2.079,4.256,6.005c2.216,3.964,3.324,6.569,3.324,7.814
			c0,1.281-0.836,3.497-2.507,6.646c-1.672,3.11-2.896,4.821-3.673,5.133C123.275,272.467,121.255,272.115,118.145,270.989"/>
		<path fill="#008982" d="M223.914,306.032c0.777-0.157,3.537,1.709,8.279,5.596c4.742,3.85,7.251,6.279,7.521,7.29
			c0.272,1.009-0.137,3.012-1.225,6.004c-1.05,2.995-1.886,4.646-2.509,4.956c-0.581,0.235-2.038,0.235-4.372,0l-4.255-0.813
			c-0.584-0.312-1.595-1.479-3.032-3.5c-1.439-2.061-2.294-3.556-2.564-4.488c-0.312-1.012-0.176-3.714,0.408-8.105
			C222.709,308.461,223.292,306.147,223.914,306.032"/>
		<path fill="#008982" d="M220.766,332.912c0.662-0.234,2.197,0.193,4.607,1.281c2.449,1.089,3.752,2.021,3.906,2.799
			c0.155,0.776-0.467,2.041-1.867,3.79c-1.32,1.71-2.292,2.643-2.914,2.799l-2.74-0.35c-1.244-0.39-1.982-0.876-2.216-1.459
			c-0.351-0.932-0.351-2.603,0-5.014C219.892,334.35,220.301,333.065,220.766,332.912"/>
		<path fill="#008982" d="M296.566,314.253c-0.35,0.698-2.061,1.244-5.131,1.633c-3.07,0.388-4.703,0.214-4.898-0.523
			c-0.194-0.779,0.486-2.334,2.041-4.665c1.556-2.334,2.701-3.479,3.439-3.44c0.738,0.077,1.77,1.107,3.091,3.091
			C296.391,312.368,296.877,313.67,296.566,314.253"/>
		<path fill="#008982" d="M306.886,310.928l-0.175,0.468l-4.664-0.175c-0.698-0.699-1.146-2.683-1.341-5.948
			c-0.195-3.031-0.117-5.149,0.232-6.355l0.117-0.466c3.81-0.622,7.094-0.563,9.854,0.175
			C309.783,302.94,308.441,307.043,306.886,310.928"/>
		<path fill="#00736D" d="M312.891,290.462l-1.981,8.164c-2.761-0.739-6.045-0.798-9.854-0.175c0.468-1.321,1.205-2.839,2.216-4.547
			c1.127-1.905,1.982-2.975,2.565-3.207l3.031-0.351L312.891,290.462"/>
		<path fill="#0D131A" d="M254.759,199.445c-11.505-2.488-17.996-2.741-19.474-0.758c-1.398,1.943-0.76,7.58,1.924,16.909
			c2.682,9.445,5.305,14.537,7.871,15.276c2.644,0.815,7.734-2.528,15.275-10.03c7.153-7.073,10.887-11.642,11.195-13.701
			C271.941,204.498,266.343,201.933,254.759,199.445 M274.234,207.375c-0.35,2.799-4.412,7.969-12.186,15.51
			c-8.202,7.968-14.033,11.427-17.491,10.379c-3.771-1.09-7.114-6.938-10.029-17.551c-2.84-10.34-3.283-16.714-1.342-19.125
			c1.049-1.282,3.849-1.866,8.396-1.75c4.238,0.118,8.96,0.778,14.17,1.983C268.616,199.853,274.778,203.373,274.234,207.375"/>
		<path fill="#0D131A" d="M223.857,234.021c-0.194,0.934,0.544,3.109,2.216,6.532c1.672,3.42,2.799,5.052,3.382,4.896
			c0.739-0.194,1.535-2.409,2.39-6.646c0.854-4.238,0.951-6.688,0.291-7.349c-0.543-0.542-2.041-0.426-4.488,0.351
			C225.237,232.621,223.973,233.359,223.857,234.021 M233.652,229.707c1.323,1.206,1.458,4.394,0.408,9.562
			c-1.05,5.131-2.409,7.989-4.08,8.571c-1.478,0.544-3.383-1.36-5.714-5.715c-2.255-4.197-3.227-7.055-2.916-8.57
			c0.272-1.283,2.118-2.488,5.539-3.614L233.652,229.707"/>
		<path fill="#0D131A" d="M153.13,224.225c1.477-0.893,2.119-1.554,1.924-1.983c-0.271-0.699-1.535-1.476-3.789-2.33
			c-2.255-0.815-3.674-1.068-4.257-0.759c-0.467,0.232-0.213,1.282,0.758,3.149c0.972,1.826,1.75,2.835,2.333,3.031
			C150.681,225.488,151.692,225.119,153.13,224.225 M149.69,227.258c-1.011-0.311-2.158-1.748-3.441-4.314
			c-1.282-2.683-1.535-4.432-0.757-5.249c0.816-0.894,2.896-0.718,6.238,0.524c3.342,1.245,5.073,2.507,5.189,3.791
			c0.117,1.01-0.815,2.215-2.798,3.614S150.661,227.568,149.69,227.258"/>
		<path fill="#0D131A" d="M156.919,235.478c1.943-3.925,3.188-6.063,3.731-6.413c1.283-0.815,3.577-1.515,6.881-2.098
			c3.537-0.662,5.752-0.623,6.647,0.116c1.011,0.815,1.245,4.431,0.7,10.846c-0.504,6.221-1.224,10.009-2.157,11.369
			c-0.738,1.089-2.741,1.848-6.007,2.274c-2.798,0.351-4.858,0.37-6.18,0.058c-0.895-0.194-2.138-1.516-3.731-3.965
			c-1.594-2.409-2.468-4.235-2.624-5.48C154.101,241.602,155.015,239.365,156.919,235.478 M158.727,236.295
			c-1.556,3.344-2.313,5.248-2.275,5.715c0.039,0.933,0.641,2.37,1.808,4.316c1.204,1.98,2.175,3.107,2.915,3.38
			c0.778,0.272,2.469,0.253,5.073-0.057c2.76-0.35,4.374-0.875,4.84-1.572c0.739-1.091,1.341-4.435,1.808-10.031
			c0.428-5.597,0.369-8.611-0.175-9.037l-4.665-0.175c-2.644,0.389-4.782,1.069-6.414,2.041
			C161.254,231.145,160.282,232.952,158.727,236.295"/>
		<path fill="#0D131A" d="M119.66,247.9c-1.399,0.309-2.584,0.698-3.556,1.164l-0.117-2.331c1.05-0.428,2.352-0.816,3.907-1.166
			l3.382-0.409c1.049,0.232,2.741,2.643,5.073,7.23c2.294,4.431,3.382,7.152,3.265,8.161c-0.155,1.439-1.049,3.771-2.682,6.998
			c-1.866,3.615-3.421,5.501-4.665,5.656l-3.79-0.409c-1.594-0.389-2.78-0.815-3.558-1.281v-2.51c0.7,0.586,1.75,1.09,3.148,1.518
			l3.441,0.468c0.778-0.118,1.905-1.653,3.382-4.606c1.399-2.878,2.099-4.802,2.099-5.772c0-1.049-0.914-3.423-2.741-7.115
			c-1.866-3.691-3.129-5.655-3.789-5.89L119.66,247.9"/>
		<path fill="#0D131A" d="M224.264,307.256c-0.583,0.233-1.01,2.1-1.281,5.597c-0.234,2.839-0.312,5.56-0.234,8.163
			c0.039,0.467,0.758,1.671,2.158,3.615c1.398,1.865,2.313,2.934,2.74,3.205l4.023,0.934c2.295,0.312,3.633,0.332,4.023,0.059
			c0.582-0.428,1.301-1.942,2.158-4.547c0.854-2.721,1.088-4.47,0.699-5.249c-0.623-1.244-2.994-3.575-7.115-6.997
			C227.278,308.577,224.887,306.982,224.264,307.256 M221.115,312.387c0.467-4.469,1.187-6.9,2.158-7.289
			c1.203-0.466,4.217,1.243,9.037,5.131c4.588,3.732,7.287,6.395,8.104,7.988c0.584,1.205,0.351,3.382-0.699,6.532
			c-0.932,2.837-1.827,4.683-2.682,5.538c-0.583,0.621-2.256,0.815-5.015,0.583c-2.488-0.195-4.255-0.524-5.306-0.992
			c-0.545-0.193-1.671-1.554-3.381-4.08c-1.711-2.527-2.586-4.12-2.625-4.782C220.592,318.723,220.728,315.848,221.115,312.387"/>
		<path fill="#0D131A" d="M227.064,339.615c0.776-1.358,1.089-2.196,0.933-2.508c-0.271-0.504-1.321-1.185-3.147-2.038
			c-1.866-0.856-3.091-1.265-3.675-1.226c-0.311,0-0.582,0.934-0.815,2.799c-0.272,1.944-0.254,3.441,0.058,4.49
			c0.115,0.388,0.738,0.776,1.866,1.166l2.273,0.29C225.373,342.084,226.208,341.095,227.064,339.615 M230.213,336.643
			c-0.039,1.128-0.663,2.584-1.866,4.373c-1.128,1.672-2.099,2.76-2.916,3.265l-3.731-0.231c-1.866-0.586-2.877-1.227-3.033-1.926
			c-0.387-1.32-0.407-3.305-0.057-5.947c0.311-2.798,0.855-4.315,1.632-4.547c0.933-0.312,2.838,0.233,5.716,1.633
			C228.832,334.661,230.25,335.788,230.213,336.643"/>
		<path fill="#0D131A" d="M292.017,308.188c-0.388,0-1.282,1.029-2.682,3.091c-1.397,2.1-1.982,3.303-1.748,3.614l4.024-0.116
			c2.447-0.429,3.749-0.876,3.904-1.342c0.156-0.35-0.291-1.302-1.341-2.857C293.125,309.024,292.407,308.228,292.017,308.188
			 M292.193,306.264c0.933,0.157,2.176,1.4,3.731,3.734c1.516,2.33,2.119,3.847,1.809,4.546c-0.428,0.972-2.392,1.729-5.891,2.275
			c-3.536,0.542-5.675,0.408-6.412-0.408c-0.623-0.7,0.097-2.605,2.157-5.715C289.647,307.587,291.182,306.108,292.193,306.264"/>
		<path fill="#0D131A" d="M310.267,289.239l4.607,0.522l-0.7,2.392l-3.848-0.584c-1.826-0.115-3.188-0.115-4.082,0
			c-0.506,0.04-1.341,1.166-2.507,3.383c-1.088,2.139-1.748,3.75-1.982,4.839c-0.312,1.478-0.369,3.519-0.175,6.122
			c0.233,2.683,0.584,4.159,1.051,4.432l1.865,0.29l4.314-0.814l-1.106,2.506c-3.149,0.777-5.307,0.777-6.473,0
			c-0.895-0.583-1.458-2.76-1.692-6.529c-0.233-3.111-0.233-5.248,0-6.414c0.156-0.972,0.894-2.741,2.216-5.308
			c1.517-3.068,2.78-4.663,3.791-4.78C306.556,289.18,308.13,289.161,310.267,289.239"/>
		<path fill="#0D131A" d="M292.951,167.551l1.339,2.157l1.576,2.682c0.661,1.243,0.874,1.943,0.641,2.099l-1.81,0.058l-2.446-0.292
			l2.389,0.875c0.738,0.272,1.226,0.564,1.457,0.875c0.429,0.544,0.642,2.351,0.642,5.422c0.039,3.11-0.33,4.47-1.107,4.082
			l-7.288-2.74l-7.463-2.566c4.159,2.799,7.561,5.307,10.203,7.522l1.808,1.574c0.544,0.584,0.681,1.108,0.41,1.574
			c-5.481,10.067-8.494,15.122-9.039,15.159c-0.311,0-1.497-1.184-3.557-3.557l-4.78-5.713l3.556,12.42
			c0.389,1.749,0.155,3.264-0.699,4.547c-0.505,0.777-2.662,2.76-6.471,5.947c-3.811,3.187-5.793,4.684-5.948,4.491l-0.524-5.716
			l-0.468-7.988l-2.273,4.607c-0.894,1.825-1.535,2.779-1.924,2.855c-0.506,0.117-3.265-1.049-8.28-3.497
			c-5.012-2.45-7.481-3.927-7.404-4.433c0.078-0.426,1.399-2.429,3.964-6.006l4.548-6.238c-0.661,0.699-2.137,2.507-4.432,5.423
			l-3.146,3.673l-5.074-2.916l-4.781-3.265c0-0.351,1.361-2.002,4.081-4.956c2.876-3.149,5.423-5.695,7.64-7.639
			c-1.595,0.739-4.064,2.682-7.406,5.83l-4.957,4.375c-0.467,0.039-2.721-1.653-6.763-5.074c-4.003-3.381-6.024-5.325-6.063-5.83
			c-0.039-0.466,1.302-2.294,4.021-5.481c2.605-3.109,5.095-5.831,7.463-8.163c-1.594,0.895-4.897,3.771-9.911,8.629
			c-4.664,4.548-7.152,6.822-7.462,6.822c-0.545,0-1.634-1.419-3.266-4.257c-1.594-2.798-2.352-4.509-2.275-5.131
			c0.078-0.622,1.069-2.157,2.975-4.606c2.448-3.187,5.208-5.909,8.279-8.163c9.484-7.036,19.514-8.163,30.086-3.382l1.052-0.408
			c14.188-6.336,27.094-4.937,38.715,4.198L292.951,167.551"/>
		<path fill="#00A63C" d="M287.237,181.312l-10.554-3.674c-2.449-0.661-3.674-0.875-3.674-0.642c0,0.195,1.089,0.855,3.267,1.983
			c2.061,1.087,4.8,2.914,8.221,5.48l7.288,6.123l-4.256,7.58c-2.022,3.576-3.188,5.383-3.498,5.422
			c-0.429,0-3.439-3.342-9.039-10.028l-1.631-1.633l0.408,2.332l2.508,9.329c1.476,5.133,2.156,7.834,2.04,8.105l-4.548,4.2
			l-6.181,5.246l-0.116-8.163c-0.04-4.354-0.176-6.724-0.41-7.114c-0.389-0.623-2.527,2.741-6.413,10.088
			c-6.335-3.771-10.494-6.064-12.479-6.881l5.189-7.23l5.132-7.171l1.633-2.1c0.194-0.543-0.622-0.33-2.448,0.642
			c-2.955,1.555-6.822,5.462-11.604,11.72l-7.288-4.607l6.355-6.938c3.381-3.498,5.656-5.559,6.821-6.182l2.333-1.282l-2.565-0.058
			c-4.276,0.271-9.581,3.75-15.917,10.437l-10.729-9.096c1.361-1.827,3.4-4.315,6.123-7.463c3.342-3.888,5.518-6.181,6.529-6.88
			l1.924-1.399l-2.158,0.117c-3.693,0.582-7.677,2.798-11.951,6.647c-2.295,2.1-5.017,4.957-8.164,8.571l-4.258-6.647
			c3.383-5.83,7.795-10.417,13.236-13.76c8.475-5.248,17.629-5.753,27.463-1.516l0.759-0.292c5.286-2.099,10.146-3.265,14.576-3.498
			c8.24-0.39,15.781,2.08,22.623,7.405l2.157,4.431l-1.633-0.175l-3.848-0.118l-2.974,0.35c0.116,0.195,0.99,0.544,2.624,1.049
			c1.865,0.583,4.159,1.614,6.879,3.09l0.233,3.208c0.077,1.982,0.019,3.227-0.175,3.732L287.237,181.312"/>
		<path fill="#0D131A" d="M164.907,121.254l0.117,1.458c-8.202-3.382-14.771-5.752-19.707-7.114
			c-0.972-0.272-1.399-0.564-1.283-0.874l1.574-0.118C150.894,116.084,157.328,118.3,164.907,121.254"/>
		<path fill="#0D131A" d="M165.665,125.627l0.292,1.632c-13.06-6.375-24.722-11.059-34.984-14.052
			c-0.932-0.271-1.341-0.563-1.223-0.875l1.515-0.059C141.565,115.19,153.033,119.642,165.665,125.627"/>
		<path fill="#0D131A" d="M158.378,119.33l-1.284-0.35c-0.388-4.042-0.972-7.482-1.749-10.32c-0.155-0.584-0.116-0.914,0.117-0.991
			c0.233-0.078,0.447,0.174,0.642,0.757C157.192,111.808,157.949,115.444,158.378,119.33"/>
		<path fill="#0D131A" d="M154.704,117.99l-1.167-0.351c0-2.021-0.214-3.945-0.641-5.771c-0.078-0.467,0-0.739,0.233-0.817
			l0.583,0.583C154.373,113.345,154.704,115.463,154.704,117.99"/>
		<path fill="#0D131A" d="M154.296,121.254l1.225,0.525l-4.665,4.082l-5.188,3.499c-0.505,0.233-0.817,0.233-0.934,0
			c-0.156-0.233,0.019-0.486,0.525-0.759C147.046,127.552,150.059,125.103,154.296,121.254"/>
		<path fill="#0D131A" d="M264.322,179.912c-2.021-7.153-5.521-12.167-10.495-15.043l1.398-0.992
			c5.211,3.148,8.786,8.533,10.729,16.151c1.788,6.958,1.925,14.421,0.409,22.39c-0.233,1.127-0.506,1.653-0.816,1.573
			c-0.312-0.076-0.389-0.679-0.233-1.806C266.557,194.022,266.226,186.598,264.322,179.912"/>
		<path fill="#0D131A" d="M268.461,192.974c1.012-13.723-2.799-23.809-11.428-30.263l1.633-0.524
			c8.902,6.608,12.498,16.928,10.787,30.961c-0.156,1.166-0.368,1.73-0.642,1.69C268.501,194.761,268.384,194.139,268.461,192.974"
			/>
		<path fill="#0D131A" d="M261.581,171.983l1.342,1.749c-2.956-0.156-5.772,0.272-8.454,1.283c-2.605,1.011-5.308,2.662-8.106,4.956
			c-0.737,0.583-1.204,0.776-1.398,0.583c-0.233-0.156-0.019-0.563,0.641-1.225C250.386,174.509,255.71,172.06,261.581,171.983"/>
	</g>
</g>
</svg>
