<?xml version="1.0" encoding="utf-8"?>
<!-- Generator: Adobe Illustrator 16.0.0, SVG Export Plug-In . SVG Version: 6.00 Build 0)  -->
<!DOCTYPE svg PUBLIC "-//W3C//DTD SVG 1.1//EN" "http://www.w3.org/Graphics/SVG/1.1/DTD/svg11.dtd">
<svg version="1.1" id="Layer_1" xmlns="http://www.w3.org/2000/svg" xmlns:xlink="http://www.w3.org/1999/xlink" x="0px" y="0px"
	 width="456px" height="415px" viewBox="0 0 456 415" enable-background="new 0 0 456 415" xml:space="preserve">
<g>
	<g>
		<path fill="#0D131A" d="M326.39,248.052c1.897-0.632,3.228-0.362,3.996,0.812l1.421-3.521c3.297,4.739,4.65,15.415,4.064,32.03
			c-0.679,18.914-4.176,35.799-10.497,50.651c-8.216,19.143-15.575,28.87-22.074,29.186l-3.116,0.34l-13.475-0.813
			c-6.953-0.856-11.287-1.828-13.004-2.911l-16.318-24.853c-0.091-2.211,2.956-7.675,9.141-16.388
			c5.463-7.766,12.077-16.275,19.843-25.529c8.124-9.705,15.642-18.013,22.549-24.92
			C317.045,253.965,322.869,249.271,326.39,248.052"/>
		<path fill="#5DC1CF" d="M270.388,342.991c6.592-8.217,15.463-15.125,26.612-20.723c11.739-5.867,21.332-7.787,28.781-5.755
			c-1.309,5.011-2.867,9.774-4.673,14.287c-4.018,10.203-7.878,17.065-11.579,20.587c-2.168,2.031-4.763,3.114-7.788,3.25
			l-1.491,0.136l-13.271-1.017c-6.771-1.037-10.902-2.008-12.392-2.912c-0.678-0.406-1.919-2.662-3.725-6.771L270.388,342.991
			h-0.067v-0.068L270.388,342.991"/>
		<path fill="#50A8B4" d="M328.827,249.948c2.212,3.203,3.205,11.285,2.979,24.242c-0.27,14.537-2.279,28.644-6.025,42.323
			c-7.449-2.032-17.042-0.112-28.781,5.755c-11.149,5.598-20.043,12.506-26.68,20.723v-0.068c-1.851-3.973-3.431-6.907-4.74-8.804
			c-2.031-2.934-4.13-4.695-6.297-5.282v-0.135c0-1.58,2.347-5.756,7.041-12.526c5.103-7.45,11.627-15.981,19.571-25.599
			c8.713-10.519,16.703-19.433,23.971-26.747c7.225-7.27,12.573-11.761,16.05-13.477
			C327.497,249.497,328.467,249.36,328.827,249.948"/>
		<path fill="#0D131A" d="M327.337,269.788c1.808,2.123,2.709,3.839,2.709,5.146l-0.066,0.542c-1.715,7.403-4.38,14.063-7.99,19.977
			c-3.07,5.011-7.722,10.767-13.95,17.27c-3.927,4.106-10.156,8.192-18.689,12.255c-9.482,4.516-19.187,7.676-29.118,9.48
			l2.369,17.742c0.948,8.758,1.422,15.281,1.422,19.569c0,1.22-0.36,2.529-1.082,3.928c-0.453,1.581-1.311,2.709-2.574,3.386
			c-3.387,1.853-9.639,3.295-18.758,4.336c-9.028,0.992-14.513,0.924-16.455-0.204c-7.855-4.65-16.478-13.994-25.868-28.035
			c-9.571-14.265-15.868-27.402-18.893-39.411c-4.56-1.805-9.391-4.288-14.492-7.448c-4.965-3.07-8.848-5.937-11.647-8.601
			c-1.219,5.192-3.454,9.953-6.704,14.288c-1.58,2.122-3.07,3.747-4.469,4.877c-1.851,2.257-8.442,3.294-19.773,3.113l-16.456-1.015
			c-3.161-0.543-5.53-1.558-7.11-3.048c-1.715-1.671-2.731-4.131-3.046-7.38c-0.542-5.238-0.384-10.408,0.474-15.509l1.151-8.329
			l0.745-6.027c0.271-1.443,0.249-3.566-0.067-6.366l-0.542-3.791c-1.67-12.866-2.009-22.393-1.015-28.577
			c1.219-7.493,5.101-17.063,11.646-28.711c7.449-13.228,18.442-22.844,32.979-28.848c8.668-3.566,17.674-5.598,27.019-6.095
			c7.087-0.361,20.879,4.604,41.375,14.898c12.37,6.185,25.777,13.566,40.223,22.143c18.193,10.79,34.423,21.265,48.688,31.421
			C313.638,256.922,322.959,264.598,327.337,269.788"/>
		<path fill="#5DC1CF" d="M143.894,186.429c8.396-3.702,16.816-5.778,25.258-6.23c10.338-0.541,39.728,15.124,88.167,46.996
			c24.243,15.98,47.425,32.053,69.544,48.215c-1.984,6.592-4.513,12.505-7.583,17.742c-3.702,6.275-8.486,12.189-14.354,17.74
			c-6.592,6.186-15.848,11.354-27.765,15.509c-8.577,3.023-14.289,4.538-17.132,4.538c-0.633,0-1.107-1.085-1.423-3.251
			l-0.679-5.893c-0.134-1.851-0.698-2.46-1.692-1.828c-0.947,0.633-1.241,2.099-0.879,4.402c1.128,6.048,2.438,14.943,3.928,26.68
			c1.76,14.131,2.368,22.188,1.827,24.175c0,0.316-0.519,0.768-1.557,1.354c-3.204,1.716-9.052,3.139-17.538,4.268l-14.965,0.609
			c-1.401-0.406-4.132-2.641-8.195-6.704c-4.965-4.875-9.707-10.473-14.221-16.794c-13.137-18.282-20.653-36.951-22.549-56.001
			c-0.407-4.153-0.949-6.952-1.626-8.396c-0.723-1.356-1.219-0.859-1.49,1.488c-0.406,3.071-0.113,8.713,0.88,16.931
			c-9.57-3.657-19.57-10.701-29.999-21.129c-15.439-15.395-24.084-32.686-25.936-51.872c-0.226-2.392-0.564-4.061-1.015-5.01
			c-0.452-0.903-0.835-0.858-1.152,0.136c-0.812,2.663-0.451,8.352,1.083,17.065c1.129,6.138,2.98,11.804,5.553,16.994
			c4.83,9.571,12.573,19.459,23.227,29.661c-0.452,2.663-1.4,5.53-2.844,8.601c-1.58,3.386-3.477,6.388-5.688,9.005
			c-0.858,1.13-2.799,2.123-5.824,2.98c-6.004,1.762-14.446,2.054-25.326,0.882l-2.845-0.543c-3.159-0.542-5.529-1.626-7.11-3.251
			c-1.444-1.489-2.302-3.565-2.573-6.23c-0.271-3.295-0.046-7.2,0.677-11.714l1.558-10.36c0.452-3.928,0.564-7.111,0.338-9.549
			c-1.354-13.994-1.874-23.181-1.557-27.561c0.857-11.827,4.808-23.655,11.85-35.483
			C119.809,201.823,130.35,192.434,143.894,186.429"/>
		<path fill="#50A8B4" d="M159.875,288.953c7.088,3.249,13.453,5.28,19.096,6.094c-0.406,3.071-0.113,8.713,0.88,16.931
			c-7.269-2.801-15.394-8.106-24.378-15.914c-12.957-11.241-22.031-23.904-27.222-37.99
			C135.158,272.114,145.699,282.406,159.875,288.953"/>
		<path fill="#50A8B4" d="M151.614,297.823c-0.452,2.663-1.4,5.53-2.844,8.601c-1.58,3.386-3.477,6.388-5.688,9.005l-2.98,1.965
			c-3.024,1.354-7.155,2.167-12.391,2.438c6.726-2.664,9.706-9.706,8.938-21.127c-0.677-9.48-3.612-20.045-8.803-31.691
			C132.631,277.035,140.553,287.305,151.614,297.823"/>
		<path fill="#50A8B4" d="M136.648,189.815c5.914-3.386,12.347-5.937,19.299-7.652c4.604-1.083,9.006-1.739,13.204-1.964
			c10.338-0.541,39.728,15.124,88.167,46.996c24.243,15.98,47.425,32.053,69.544,48.215c-1.984,6.592-4.513,12.505-7.583,17.742
			c-3.702,6.275-8.486,12.189-14.354,17.74c-6.592,6.186-15.848,11.354-27.765,15.509c-8.577,3.023-14.289,4.538-17.132,4.538
			c-0.633,0-1.107-1.085-1.423-3.251l-0.679-5.893c-0.134-1.851-0.698-2.46-1.692-1.828c-0.947,0.633-1.241,2.099-0.879,4.402
			c1.128,6.048,2.438,14.943,3.928,26.68c1.76,14.131,2.368,22.188,1.827,24.175c0,0.316-0.519,0.768-1.557,1.354l-2.845,1.152
			c0.226-12.866-1.264-23.68-4.469-32.437c-5.236-14.354-14.988-24.378-29.253-30.065c-2.979-29.073-8.442-52.099-16.388-69.072
			C192.243,215.638,168.926,196.858,136.648,189.815"/>
		<path fill="#0D131A" d="M113.083,312.315c0.858,0.09,2.031,1.016,3.521,2.774c1.581,1.854,2.326,3.5,2.235,4.944
			c-0.09,1.535-0.745,3.205-1.963,5.011c-1.219,1.807-2.235,2.71-3.048,2.71c-0.813,0-2.144-1.174-3.996-3.522
			c-1.851-2.301-2.776-3.881-2.776-4.739c-0.045-0.813,0.768-2.213,2.438-4.198C111.163,313.263,112.36,312.271,113.083,312.315"/>
		<path fill="#FFFFFF" d="M116.265,316.987c0.812,1.264,1.196,2.212,1.151,2.844c0,0.678-0.474,1.828-1.422,3.453
			c-0.992,1.581-1.67,2.371-2.031,2.371c-0.451,0-1.422-0.767-2.912-2.303c-1.535-1.581-2.257-2.73-2.167-3.452
			c0.045-0.679,0.971-2.281,2.776-4.811c0.496-0.721,0.926-1.126,1.287-1.219c0.315-0.044,0.745,0.159,1.287,0.61L116.265,316.987"
			/>
		<path fill="#0D131A" d="M123.985,321.524c-0.09-0.723,0.632-2.28,2.167-4.673c1.58-2.482,2.777-3.77,3.589-3.859
			c0.858-0.046,2.099,0.994,3.725,3.115c1.625,2.166,2.325,3.724,2.1,4.672l-1.22,3.996c-0.768,1.761-1.603,2.889-2.505,3.385
			c-0.903,0.496-2.438-0.316-4.604-2.438C125.204,323.736,124.121,322.338,123.985,321.524"/>
		<path fill="#FFFFFF" d="M129.741,314.956c0.406-0.136,1.218,0.609,2.438,2.234c1.219,1.671,1.896,2.98,2.032,3.929l-1.083,2.979
			c-0.768,1.578-1.354,2.438-1.761,2.571c-0.451,0.137-1.535-0.54-3.25-2.031c-1.67-1.488-2.55-2.527-2.641-3.114
			c-0.045-0.587,0.564-1.805,1.829-3.657C128.522,316.107,129.335,315.137,129.741,314.956"/>
		<path fill="#0D131A" d="M138.545,319.493c0-1.038,0.428-2.483,1.286-4.334c1.083-2.257,2.302-3.702,3.657-4.334
			c1.444-0.722,2.934,0.723,4.469,4.334c1.489,3.521,1.963,6.298,1.422,8.33c-0.271,1.127-2.167,0.946-5.688-0.543
			C140.214,321.412,138.499,320.26,138.545,319.493"/>
		<path fill="#FFFFFF" d="M143.352,312.383c0.632-0.227,1.557,1.219,2.775,4.334c1.219,3.025,1.761,4.74,1.625,5.146
			c-0.09,0.271-1.264-0.022-3.521-0.88c-2.347-0.857-3.611-1.558-3.792-2.099c-0.18-0.634,0.091-1.808,0.813-3.522
			C142.02,313.646,142.72,312.653,143.352,312.383"/>
		<path fill="#0D131A" d="M225.899,381.995c0.181-1.309,0.881-2.686,2.099-4.131c1.22-1.399,2.258-2.145,3.116-2.233
			c1.084-0.046,2.279,0.61,3.589,1.963c1.173,1.265,1.918,2.506,2.233,3.725c0.181,0.722-0.293,2.506-1.422,5.351
			c-1.174,2.889-2.053,4.265-2.641,4.131c-0.768-0.182-2.121-1.49-4.063-3.929C226.78,384.388,225.809,382.763,225.899,381.995"/>
		<path fill="#FFFFFF" d="M227.93,382.4c0.091-0.901,0.429-1.85,1.017-2.843c0.633-1.128,1.286-1.783,1.963-1.964
			c0.723-0.227,1.671,0.316,2.844,1.627c1.085,1.172,1.648,2.098,1.693,2.774l-1.016,3.387c-0.678,1.623-1.195,2.528-1.558,2.709
			c-0.406,0.179-1.332-0.52-2.775-2.101C228.608,384.32,227.885,383.124,227.93,382.4"/>
		<path fill="#0D131A" d="M246.077,373.666c0.948-0.09,2.438,0.542,4.47,1.896c2.213,1.444,3.297,2.754,3.252,3.928l-0.883,5.621
			c-0.586,2.482-1.173,3.791-1.759,3.926c-1.038,0.272-2.912-0.541-5.621-2.438c-2.753-1.896-4.221-3.431-4.402-4.604
			c-0.089-0.858,0.52-2.438,1.827-4.739C244.318,374.907,245.355,373.711,246.077,373.666"/>
		<path fill="#FFFFFF" d="M246.823,375.766c0.406-0.091,1.309,0.339,2.707,1.288c1.446,0.946,2.213,1.67,2.305,2.167l-0.34,3.994
			c-0.361,2.167-0.7,3.339-1.016,3.521c-0.406,0.226-1.717-0.474-3.929-2.098c-2.211-1.672-3.316-2.822-3.316-3.455
			c0-0.632,0.496-1.692,1.489-3.183C245.717,376.6,246.417,375.856,246.823,375.766"/>
		<path fill="#0D131A" d="M259.758,368.859c1.624-0.633,3.61,1.15,5.957,5.349c2.348,4.198,3.024,7.021,2.032,8.465
			c-0.271,0.406-1.919,0.204-4.943-0.609l-5.892-1.964l-1.625-1.151c-0.225-0.406-0.225-1.151,0-2.233
			c0.227-1.219,0.835-2.733,1.829-4.538C258.155,370.235,259.034,369.129,259.758,368.859"/>
		<path fill="#FFFFFF" d="M260.57,370.824c1.58,0.901,2.979,2.661,4.198,5.28c1.038,2.302,1.467,3.791,1.286,4.469
			c-0.135,0.406-1.535,0.158-4.198-0.744c-2.617-0.904-4.085-1.536-4.402-1.896c-0.315-0.406-0.044-1.784,0.813-4.131
			C259.124,371.409,259.892,370.416,260.57,370.824"/>
		<path fill="#0D131A" d="M270.592,348.477c0.089-0.406,0.879-0.972,2.37-1.693c1.625-0.812,2.821-1.038,3.589-0.678
			c0.901,0.407,1.806,1.558,2.708,3.453c0.948,1.897,1.22,3.139,0.812,3.725l-3.183,3.049c-1.806,1.398-3.113,2.031-3.927,1.894
			c-0.812-0.178-1.469-1.646-1.965-4.399C270.501,351.298,270.365,349.514,270.592,348.477"/>
		<path fill="#FFFFFF" d="M275.739,347.324c0.45,0.09,1.017,0.812,1.691,2.168c0.633,1.353,0.836,2.234,0.61,2.642l-2.234,2.504
			c-1.31,1.265-2.146,1.896-2.506,1.896c-0.315,0-0.61-1.082-0.881-3.25l-0.27-3.791c0.045-0.362,0.54-0.836,1.488-1.422
			C274.632,347.482,275.332,347.234,275.739,347.324"/>
		<path fill="#0D131A" d="M287.724,351.456c1.489-1.31,2.709-2.032,3.657-2.167c0.992-0.182,2.256,0.632,3.792,2.438
			c1.445,1.716,2.166,2.935,2.166,3.656c0,0.632-0.88,2.076-2.64,4.334c-1.897,2.438-3.363,3.611-4.403,3.521
			c-1.083-0.091-2.302-1.489-3.655-4.198c-1.31-2.619-1.739-4.289-1.287-5.013C285.715,353.442,286.504,352.584,287.724,351.456"/>
		<path fill="#FFFFFF" d="M291.583,350.711c0.543,0.182,1.287,0.768,2.235,1.76c1.13,1.129,1.625,1.987,1.489,2.575l-2.368,3.926
			c-1.492,1.941-2.416,2.89-2.778,2.844c-0.451,0-1.128-1.061-2.031-3.183c-0.948-2.122-1.286-3.521-1.015-4.198
			c0.27-0.723,0.993-1.557,2.166-2.505C290.454,350.937,291.224,350.53,291.583,350.711"/>
		<path fill="#0D131A" d="M305.195,351.727c1.67-1.986,3.094-2.935,4.266-2.845c1.491,0.136,2.37,1.807,2.642,5.012
			c0.316,3.25-0.36,5.801-2.032,7.651c-1.038,1.129-2.504,0.587-4.401-1.626c-1.76-2.076-2.641-3.746-2.641-5.01
			C303.028,354.547,303.75,353.487,305.195,351.727"/>
		<path fill="#FFFFFF" d="M307.024,352.2c1.172-1.174,1.941-1.604,2.302-1.286c0.362,0.314,0.723,0.993,1.083,2.03l0.475,2.574
			l-0.61,2.167c-0.406,1.308-0.812,2.144-1.219,2.505c-0.405,0.361-1.195-0.315-2.369-2.031c-1.039-1.535-1.625-2.641-1.76-3.317
			C305.331,354.119,306.03,353.237,307.024,352.2"/>
		<path fill="#0D131A" d="M161.635,95.011l15.642,8.871l37.313,40.765l-53.632,9.008l-21.263-8.127
			c-14.13-5.507-21.105-8.464-20.924-8.871c0.18-0.316,2.934-1.874,8.261-4.672l13.272-7.314c-3.476,1.174-8.284,3.161-14.423,5.96
			l-8.126,3.588c-0.497-0.045-3.07-1.963-7.72-5.756c-4.695-3.836-6.885-5.891-6.569-6.161l7.381-3.995
			c5.056-2.799,8.645-5.192,10.767-7.179c-3.927,1.083-8.759,2.866-14.492,5.35l-7.652,3.25c-0.542-0.045-2.708-1.693-6.5-4.944
			c-3.792-3.295-5.553-5.102-5.282-5.417c0.225-0.271,2.167-1.241,5.824-2.912l9.819-4.604l-12.393,2.302l-8.532,1.354
			c-0.768-0.044-1.964-0.586-3.588-1.625c-1.581-1.083-2.394-1.828-2.438-2.234c-0.045-0.315,1.49-1.242,4.604-2.776l7.585-3.725
			l-9.007-0.067c-3.792-0.181-5.507-0.609-5.146-1.287c0.362-0.632,2.145-2.1,5.35-4.402l4.943-3.385l3.522,0.745l-2.438-0.813
			c-1.309-0.496-1.783-0.834-1.422-1.016l5.485-1.829c3.205-0.993,4.966-1.467,5.282-1.422l10.09,5.688l-3.318-3.86l-2.505-3.25
			c-0.317-0.722,2.37-1.287,8.058-1.693l9.21,0.339l5.214,8.938l-0.948-5.079c-0.316-1.85-0.385-2.866-0.204-3.046l3.387,0.271
			c1.986,0.406,3.182,0.745,3.589,1.016c0.315,0.271,1.625,2.416,3.927,6.433l-1.896-4.876c-0.723-1.805-0.994-2.843-0.812-3.115
			c0.181-0.316,3.499,0.881,9.954,3.589c6.365,2.708,9.684,4.289,9.955,4.74l2.573,6.772l-0.676-3.115l-0.339-2.032
			C150.53,89.21,154.277,91.083,161.635,95.011"/>
		<path fill="#00A63C" d="M211.272,143.497l-50.111,8.396l-38.395-15.439c13.001-7.042,20.677-11.489,23.023-13.34l2.776-2.167
			l-3.454,0.678c-2.302,0.586-7.088,2.324-14.355,5.213c-6.592,2.664-10.836,4.47-12.732,5.418l-11.511-9.616l9.074-5.079
			c4.605-2.844,7.945-5.349,10.022-7.516l2.302-2.235c0.045-0.226-1.286,0.09-3.995,0.948l-13.408,4.739l-10.768,4.199l-9.006-7.854
			l9.142-4.402l9.277-4.673l2.573-1.286c1.128-0.723,0.09-0.813-3.115-0.271l-25.869,4.537l-3.046-1.964l12.866-6.772l2.099-0.812
			c0.903-0.587,0.046-0.858-2.574-0.813l-8.193,0.202l-7.11-0.067c1.851-1.896,4.65-3.836,8.396-5.823l12.122,3.183l3.453,1.354
			c1.761,0.496,1.196-0.136-1.693-1.896c-2.844-1.761-5.011-2.979-6.501-3.657l-3.454-1.422l5.824-1.76l13.679,7.652
			c0.361,0.089,0.271-0.339-0.271-1.287c-1.94-3.432-3.927-6.389-5.959-8.872l13.747-0.474c2.619,5.192,4.83,9.187,6.637,11.986
			c0.993,1.49,1.58,1.987,1.761,1.49v-1.15c-1.084-5.779-1.738-9.571-1.964-11.377l4.267,1.016l9.277,15.845
			c0.858,0.994,0.858-0.045,0-3.115l-2.573-8.058l-1.829-4.672l15.778,6.569l6.636,17.402l0.678-2.844l-2.167-11.783
			c2.302,0.994,6.117,3.002,11.444,6.027c5.101,2.934,9.165,5.395,12.188,7.381L211.272,143.497"/>
		<path fill="#0D131A" d="M171.251,141.329l-5.891-12.866l25.936,11.783l61.351,22.888l-0.812,1.016
			c-4.831,5.958-9.911,11.828-15.237,17.606c-10.519,11.421-18.147,18.103-22.888,20.044l-0.338,0.136l-0.339-0.136
			c-4.786-1.761-15.281-2.573-31.488-2.438h-22.957c-0.406-0.632-1.15-2.438-2.234-5.417l-3.183-9.346l1.219,14.898l-0.135,1.964
			c-0.136,0.406-0.475,0.677-1.016,0.812c-17.833,2.348-26.884,3.206-27.155,2.573c-0.181-0.406-0.248-2.664-0.203-6.772
			l0.203-9.412c-1.039,2.528-1.715,6.23-2.032,11.105l-0.406,7.111c-0.271,0.45-4.966,1.964-14.085,4.536
			c-9.119,2.528-13.77,3.658-13.95,3.387c-0.135-0.271-0.226-2.145-0.271-5.62l0.135-6.908l-3.387,9.616
			c-1.128,3.295-1.85,5.033-2.166,5.215l-11.038,2.301l-10.496,1.424l3.657-7.11l5.621-10.633c-1.49,0.993-6.32,5.238-14.492,12.732
			c-7.539,6.906-11.467,10.314-11.782,10.224c-0.452-0.135-0.497-2.483-0.136-7.042c0.316-4.47,0.632-6.929,0.948-7.382
			c0.451-0.632,5.282-4.016,14.491-10.157c-1.625,0.496-5.101,1.805-10.429,3.926c-4.424,1.763-6.703,2.553-6.839,2.371
			c-0.181-0.316,1.333-3.364,4.538-9.142c3.159-5.824,5.033-8.939,5.62-9.345c0.407-0.315,2.596-1.128,6.569-2.438l10.901-3.656
			l-9.006,0.812l-5.012,0.135c-0.18-0.451,1.377-3.024,4.672-7.72c3.477-5.01,5.982-7.787,7.517-8.328
			c1.896-0.768,9.639-1.671,23.227-2.709c-1.128-0.452-4.04-1.287-8.735-2.506c-3.792-0.948-5.688-1.58-5.688-1.896
			c0-0.406,2.843-2.822,8.532-7.246c5.644-4.379,8.78-6.614,9.413-6.704l5.281,0.677l9.143,1.76l-6.434-2.572
			c-2.302-0.903-3.295-1.4-2.979-1.49l9.21-4.876c5.869-3.161,9.029-4.808,9.48-4.944c0.451-0.18,2.641,0.43,6.568,1.829
			l11.309,3.995l-6.163-3.115c-2.302-1.129-3.16-1.851-2.573-2.167c0.723-0.406,4.538-1.242,11.444-2.505l11.241-1.76
			C158.363,131.985,162.945,135.144,171.251,141.329"/>
		<path fill="#00A63C" d="M169.152,132.256l21.398,9.751l58.98,21.939c-5.551,6.728-10.923,12.867-16.114,18.42
			c-9.255,9.842-15.982,15.687-20.181,17.539c-5.146-1.761-14.942-2.709-29.388-2.845c-8.307-0.09-16.523,0.046-24.65,0.406
			l-6.839-21.33c-0.632-1.942-1.128-2.889-1.49-2.845c-0.406,0-0.519,1.062-0.339,3.183c0.993,9.345,1.558,17.336,1.693,23.972
			l-24.311,2.302c0.677-10.249,0.677-16.975,0-20.18c-0.406-2.122-1.581,0.655-3.521,8.329c-1.896,7.403-2.867,12.144-2.912,14.221
			l-24.378,6.905l-0.068-2.64c0-1.941,0.158-4.22,0.475-6.839c0.36-2.709,0.542-5.147,0.542-7.313
			c0.044-3.115-0.045-4.65-0.271-4.604c-0.136,0.044-0.654,1.421-1.558,4.13l-7.651,20.654l-16.66,2.912l8.668-17.065l1.964-2.234
			c0.767-1.129-0.271-0.812-3.115,0.948c-3.161,1.986-6.366,4.357-9.617,7.111l-11.443,10.292l-5.079,4.674
			c0.09-2.213,0.338-5.486,0.744-9.82l18.69-12.595l2.032-1.355c0.813-0.812-0.113-0.925-2.776-0.337
			c-5.238,1.128-11.602,3.16-19.096,6.094c1.896-3.702,4.537-8.082,7.922-13.138c12.324-4.469,20.113-7.2,23.362-8.193
			c2.527-0.768,3.815-1.287,3.86-1.557l-4.267-0.271l-17.268,1.151c1.716-2.889,3.387-5.44,5.011-7.652
			c1.986-2.664,3.432-4.176,4.334-4.537l13.137-1.693l13.611-1.151l3.047-0.406c0.181-0.136-0.745-0.61-2.776-1.422
			c-6.817-2.845-11.828-4.673-15.033-5.486l8.261-6.297l6.637-4.604l9.277,1.829l12.324,2.234l3.996,0.271
			c0.135-0.181-1.016-0.858-3.454-2.031l-13.543-5.891l14.491-7.585l28.916,9.21c1.806,0.316,0.744-0.61-3.183-2.777l-8.194-4.74
			l-3.386-2.234l17.132-3.25l18.623,12.933L169.152,132.256"/>
		<path fill="#009233" d="M175.721,146.746l-6.569-14.49l21.398,9.751l58.98,21.939c-5.551,6.728-10.923,12.867-16.114,18.42
			c-9.255,9.842-15.982,15.687-20.181,17.539c-3.25-1.129-8.373-1.919-15.372-2.37c0.497-8.849-0.632-16.026-3.386-21.534
			c-3.431-6.998-9.57-11.85-18.418-14.559c0-3.837-1.197-7.81-3.59-11.918c-1.76-2.934-4.582-6.569-8.465-10.903L175.721,146.746"/>
		<path fill="#0D131A" d="M408.326,108.08c5.192,2.664,7.834,4.176,7.923,4.538c0.093,0.27-2.482,1.376-7.719,3.318l-12.392,4.537
			l11.918-0.067l5.959,0.541c0.136,0.226-1.716,2.234-5.553,6.027l-6.433,5.959l-8.33-1.083l-13.408-2.167l11.783,4.876
			c4.516,1.851,6.795,2.867,6.84,3.047l-8.805,7.314c-5.958,4.604-9.141,6.861-9.546,6.771l-9.548-6.027
			c-6.637-4.109-11.58-6.727-14.832-7.855c11.92,8.036,17.766,12.347,17.54,12.934c-0.137,0.406-3.364,1.986-9.684,4.74
			c-6.185,2.664-9.548,4.019-10.09,4.063l-10.361-6.704c-7.448-4.831-13.002-7.833-16.659-9.006
			c2.619,2.212,6.592,6.163,11.92,11.851c5.281,5.643,7.81,8.623,7.583,8.938c-0.27,0.316-1.625,0.903-4.062,1.761l-4.334,1.15
			l-4.74-4.401c-3.205-3.024-5.62-4.898-7.246-5.621l5.756,6.637c2.755,3.115,4.087,4.763,3.996,4.943
			c-0.182,0.362-2.212,1.806-6.095,4.334c-4.017,2.618-6.207,3.837-6.569,3.657l-5.484-5.282c-3.793-3.566-6.906-5.869-9.344-6.907
			l6.229,8.058c3.431,4.108,5.056,6.23,4.874,6.365l-26.003,8.33l-48.011-16.116l18.689-45.371l0.137-0.135
			c2.482-2.483,8.781-6.546,18.894-12.189c9.841-5.462,14.986-7.968,15.438-7.517c0.316,0.316-0.225,2.483-1.624,6.501l-3.115,9.074
			l4.808-10.834c1.445-3.431,2.348-5.282,2.71-5.554c0.676-0.451,4.424-1.647,11.239-3.588c6.861-1.942,10.316-2.709,10.361-2.302
			l-2.64,5.688c-2.124,4.063-3.479,6.907-4.064,8.532l6.026-9.209c2.214-3.341,3.5-5.125,3.86-5.35
			c0.496-0.316,3.003-0.79,7.517-1.422l6.907-0.677l-5.28,12.121l6.565-7.516l4.336-4.672l8.192-0.474
			c5.059-0.18,7.676-0.158,7.854,0.068c0.182,0.227-0.135,1.603-0.946,4.13l-2.371,6.163c7.494-6.23,12.393-9.909,14.694-11.038
			l0.137-0.067h0.203c1.94,0,5.914,0.767,11.918,2.302c5.778,1.445,8.667,2.326,8.667,2.641l-3.317,4.2l-5.553,6.364l8.33-4.537
			c3.339-1.805,5.235-2.731,5.687-2.776C400.246,104.041,403.136,105.372,408.326,108.08"/>
		<path fill="#00A63C" d="M386.929,107.606c-2.617,3.251-4.402,5.259-5.349,6.027c-1.266,1.039-1.897,1.67-1.897,1.896
			c0.046,0.316,1.039,0.113,2.98-0.609c2.708-1.083,8.374-4.062,16.996-8.939l12.46,6.434l-9.885,3.927
			c-5.463,2.122-9.029,3.386-10.701,3.792l-4.672,1.016c-0.768,0.225-0.137,0.406,1.896,0.542l21.467,0.677l-8.736,8.262
			l-11.037-1.355l-16.388-2.234c-3.25-0.407-4.311-0.272-3.183,0.406l2.708,1.151c14.311,5.868,21.604,9.006,21.873,9.412
			c0.182,0.271-2.189,2.212-7.11,5.824l-7.719,5.214c-16.93-9.209-26.612-13.927-29.051-14.152l-3.184-0.203
			c-0.135,0.136,0.768,0.722,2.71,1.761l11.104,7.313c5.283,3.702,7.945,5.779,7.992,6.23c0.046,0.316-2.303,1.534-7.043,3.657
			l-9.073,3.926c-13.813-10.022-23.791-15.439-29.932-16.252c-3.974-0.497-5.575-0.497-4.808,0l3.929,1.762
			c1.219,0.767,4.084,3.362,8.599,7.787c5.057,4.966,8.894,9.142,11.511,12.527c-1.488,0.406-3.135,1.062-4.943,1.964
			c-0.946-1.039-3.136-2.776-6.567-5.214c-3.476-2.483-6.027-4.131-7.651-4.943c-1.491-0.722-2.212-0.971-2.166-0.745l1.285,1.896
			l4.537,5.891l5.35,6.5l-9.752,6.162l-6.975-6.027c-3.883-3.07-6.929-5.124-9.142-6.163c-1.534-0.721-2.324-0.947-2.369-0.676
			l1.016,2.234c0.541,1.128,2.009,3.34,4.4,6.636l6.027,7.584l-23.024,7.382l-45.776-15.372l17.878-43.406
			c3.204-3.115,13.295-8.961,30.27-17.539l-2.709,9.886l-2.572,8.803c-0.723,2.032-1.018,3.229-0.881,3.59
			c0.181,0.406,0.992-0.655,2.438-3.183l6.23-12.257l4.468-9.886l16.728-4.808c-1.896,3.431-4.199,9.299-6.908,17.606
			c-0.948,2.753-1.376,4.221-1.285,4.402l2.775-3.725c2.348-3.747,6.705-10.135,13.069-19.164l11.444-1.625
			c-2.212,3.116-4.38,7.72-6.501,13.815c-0.678,1.986-0.925,3.001-0.745,3.047l2.167-2.167l13.476-15.101l13.61-0.406l-2.167,5.078
			l-3.047,6.501l-1.219,3.048l2.506-1.964l8.396-6.84c4.334-3.521,7.359-5.733,9.074-6.636c2.394,0.09,8.194,1.467,17.403,4.131
			L386.929,107.606"/>
		<path fill="#009233" d="M276.822,119.593c5.191,8.035,8.87,14.784,11.037,20.247c14.356,0.452,25.53,3.205,33.521,8.262
			c2.618,1.625,5.846,4.13,9.684,7.517l10.226,8.532l-2.846,1.219c-0.946-1.039-3.136-2.776-6.567-5.214
			c-3.476-2.483-6.027-4.131-7.651-4.943c-1.491-0.722-2.212-0.971-2.166-0.745l1.285,1.896l4.537,5.891l5.35,6.5l-9.752,6.162
			l-6.975-6.027c-3.883-3.07-6.929-5.124-9.142-6.163c-1.534-0.721-2.324-0.947-2.369-0.676l1.016,2.234
			c0.541,1.128,2.009,3.34,4.4,6.636l6.027,7.584l-23.024,7.382l-45.776-15.372l17.878-43.406
			C267.047,125.664,270.818,123.159,276.822,119.593"/>
		<path fill="#0D131A" d="M204.026,172.208l-13.543-0.27c-7.675-0.181-11.219-0.52-10.632-1.016l13.001-9.954l-20.857-6.569
			l-2.844-1.151l3.115-0.542l31.759,1.693l28.916,17.334l-19.097,5.689c-12.639,3.658-18.757,5.169-18.351,4.538l4.266-4.808
			L204.026,172.208"/>
		<path fill="#00A63C" d="M195.155,161.306l1.693-1.015l-1.693-1.084c-0.948-0.451-3.973-1.287-9.074-2.505l-7.246-1.896
			l12.189,0.406l12.527,0.88l25.056,15.034c-16.568,5.011-25.236,7.291-26.004,6.839c-0.361-0.225,0.294-1.398,1.964-3.52
			c1.715-2.212,2.482-3.477,2.303-3.793l-11.174-0.812l-11.173-0.406c-0.226-0.136,1.241-1.377,4.401-3.725L195.155,161.306"/>
		<path fill="#0D131A" d="M245.266,22.622c2.527-0.994,3.973-1.016,4.333-0.068c0.136,0.451-0.068,1.445-0.608,2.98
			c-0.948,3.069-1.445,5.598-1.491,7.585l4.198-4.064c1.717-1.625,3.025-2.595,3.929-2.911l2.641-0.137
			c0.543,0.362,0.543,1.13,0,2.303c-1.174,2.529-1.828,5.915-1.963,10.158c-0.182,6.229,1.376,11.332,4.673,15.304l0.675,0.88
			l-0.946,0.543c-5.869,3.25-11.873,6.116-18.014,8.6l-7.515,2.708l-0.746,0.204l-14.695-26.883l4.198-8.33
			c3.07-5.869,5.214-9.684,6.433-11.444c1.49-2.077,2.687-3.092,3.589-3.048c0.904,0.09,1.242,1.152,1.016,3.183
			c-0.36,4.245-0.429,7.111-0.203,8.601l4.47-2.98C241.406,24.405,243.415,23.344,245.266,22.622"/>
		<path fill="#C94772" d="M254.069,38.264c0,6.23,1.58,11.512,4.741,15.846c-8.397,4.65-16.207,8.104-23.431,10.36l-13.476-24.582
			c6.636-12.414,9.977-18.035,10.021-16.861l-0.066,4.063c0,1.986,0.137,3.295,0.406,3.928l0.609,1.354l1.691-1.286
			c1.086-0.948,3.297-2.303,6.638-4.063c3.431-1.805,5.101-2.438,5.012-1.896l-0.745,4.333l-0.543,5.146
			c0,2.619,0.746,3.07,2.237,1.355c0.856-0.994,2.482-2.484,4.873-4.47c2.394-1.987,3.454-2.731,3.184-2.234
			c-0.272,0.542-0.52,1.715-0.745,3.521C254.204,34.721,254.069,36.549,254.069,38.264"/>
		<path fill="#0D131A" d="M221.768,38.806c1.038-0.36,1.783-0.203,2.235,0.474l3.658,5.011c2.256,4.019,3.385,8.217,3.385,12.596
			c0,3.702-0.768,7.291-2.303,10.767c-1.082,2.483-2.347,6.953-3.791,13.408l-4.132,19.977c-3.385,17.426-6.049,29.66-7.991,36.702
			c-3.205,11.648-6.41,18.306-9.615,19.977l-3.589,0.068l-3.25-1.49c-7.901-3.566-13.476-7.088-16.726-10.563
			c-5.373-5.914-8.578-14.604-9.616-26.072c-1.039-11.602,6.229-28.011,21.804-49.229c5.869-8.036,11.828-15.213,17.877-21.533
			C215.493,42.893,219.511,39.528,221.768,38.806"/>
		<path fill="#0D131A" d="M223.19,80.249l-4.198,20.45c-3.205,16.342-5.732,28.058-7.584,35.146
			c-3.205,12.008-6.229,18.735-9.074,20.179c-0.632,0.315-1.264,0.315-1.896,0l-3.318-1.49c-7.585-3.34-12.911-6.704-15.981-10.09
			c-5.147-5.643-8.216-13.972-9.209-24.987l-0.069-1.896c0-9.255,5.102-21.691,15.305-37.312
			c8.352-12.731,17.223-23.679,26.613-32.842c2.438-2.393,4.515-4.199,6.23-5.418l2.573-1.49l0.068,0.067l3.386,4.605
			c2.12,3.656,3.182,7.517,3.182,11.579c0,3.341-0.746,6.727-2.235,10.158C225.854,69.437,224.59,73.884,223.19,80.249"/>
		<path fill="#0D131A" d="M278.649,72.258c20.091,28.487,18.601,55.055-4.468,79.704c-6.095,6.545-13.746,11.196-22.957,13.949
			c-7.584,2.303-15.326,3.139-23.227,2.506c-7.042-0.587-14.288-2.348-21.736-5.282c-6.275-2.438-10.203-4.537-11.784-6.297
			c-12.279-5.146-22.12-12.527-29.524-22.144c-6.319-8.216-9.955-16.636-10.902-25.258c-1.536-13.588,4.379-27.494,17.741-41.714
			c7.404-7.99,15.665-14.807,24.785-20.451c4.47-2.753,7.922-5.777,10.36-9.074c2.123-2.934,3.183-5.665,3.183-8.193l-0.135-3.724
			c-0.181-0.858-0.587-1.716-1.219-2.574c-0.723-0.993-0.858-1.647-0.406-1.963c0.496-0.316,1.512-0.114,3.047,0.609
			c2.257,1.038,4.085,2.572,5.485,4.604l2.844,5.146l1.083-4.131c0.632-1.805,1.354-2.279,2.167-1.421
			c1.444,1.535,3.024,7.403,4.74,17.606l1.015-4.537c0.226-0.632,1.106,0.248,2.643,2.641c2.752,4.378,4.604,7.652,5.551,9.818
			c1.219-3.612,3.161-7.54,5.824-11.782c1.084-1.716,1.964-2.619,2.641-2.709c0.633-0.045,0.902,0.699,0.813,2.235
			c-0.092,2.303,0.36,5.101,1.354,8.396c0.721-1.941,1.939-4.108,3.655-6.5c1.626-2.257,3.229-4.086,4.81-5.486
			c1.579-1.399,3.068-2.167,4.469-2.301c1.398-0.181,1.805,0.36,1.219,1.625l-1.626,3.928c-0.496,1.67-0.812,3.679-0.947,6.027
			c1.534-2.122,2.844-3.679,3.927-4.672c0.768-0.723,2.055-1.693,3.859-2.911c4.109-2.8,5.555-2.732,4.336,0.203
			c-2.8,6.41-3.905,11.286-3.318,14.626C268.717,56.773,272.284,63.275,278.649,72.258"/>
		<path fill="#E85382" d="M214.726,61.085c-9.075,8.397-15.236,14.198-18.487,17.403c-13.408,13.137-19.977,27.312-19.705,42.526
			c0.135,7.946,1.761,14.875,4.875,20.789c1.399,2.529,3.611,5.486,6.636,8.871c-20.18-13.227-30.338-27.877-30.473-43.948v-0.271
			c0-11.918,5.53-24.174,16.59-36.77c7.855-8.939,16.298-16.072,25.327-21.4c7.944-4.694,12.415-10.066,13.408-16.116l0.135-4.673
			c0-1.128,0.18-1.49,0.542-1.083c1.761,1.987,3.205,3.951,4.333,5.892c0.452,0.723,0.948,2.031,1.49,3.927
			c0.316,1.129,0.586,1.378,0.812,0.746l0.813-4.199c0.361-1.806,0.723-2.528,1.083-2.166c1.039,1.037,2.235,4.604,3.588,10.699
			l0.204,2.099C225.899,47.609,222.174,53.501,214.726,61.085"/>
		<path fill="#C94772" d="M215.606,69.821c-10.655,11.286-17.268,18.757-19.842,22.415c-7.584,10.744-11.375,21.534-11.375,32.369
			c0,6.545,2.437,15.461,7.313,26.747c-3.161-2.302-6.321-7.2-9.481-14.694c-1.805-4.289-2.618-8.938-2.438-13.95
			c0.316-7.674,1.986-15.011,5.012-22.008c2.798-6.5,6.613-12.415,11.443-17.742c3.115-3.385,8.939-9.074,17.471-17.065
			c7.313-7.493,11.76-14.017,13.341-19.569c0.405,1.76,0.225,3.95-0.543,6.568C224.973,58.083,221.339,63.726,215.606,69.821"/>
		<path fill="#E85382" d="M272.013,150.472c-5.778,6.14-13.137,10.315-22.075,12.527c-6.772,1.716-14.221,2.235-22.347,1.558
			c-7.583-0.632-14.919-2.122-22.007-4.47c-5.733-1.941-8.984-3.453-9.751-4.537l0.203,0.068l-1.288-2.371
			c-4.92-9.073-7.381-18.08-7.381-27.019c0-10.745,3.544-21.579,10.632-32.504c3.973-6.14,10.292-13.679,18.96-22.618
			c2.348-2.483,5.214-6.5,8.601-12.054c4.019-6.726,5.62-11.15,4.807-13.273c0.768,0.768,1.716,2.146,2.846,4.132
			c1.263,2.212,2.393,3.882,3.385,5.01c1.309,1.491,2.099,2.009,2.369,1.558l0.204-2.912c0.045-1.219,0.655-2.934,1.829-5.146
			c0.993-2.032,2.188-4.018,3.588-5.96c0.406,3.974,1.196,7.02,2.37,9.143l1.15,1.421l0.61-1.896
			c0.678-1.761,1.693-3.837,3.048-6.23c1.984-3.385,3.815-5.801,5.485-7.246l1.76-1.218c-0.542,1.264-0.97,3.024-1.287,5.282
			c-0.36,2.122-0.541,4.131-0.541,6.026c0.045,1.671,0.226,2.461,0.541,2.37l1.085-1.692c0.451-0.903,1.827-2.348,4.131-4.335
			c2.301-1.985,3.34-2.594,3.113-1.827c-0.856,3.431-1.286,6.003-1.286,7.72c0,2.753,0.812,5.824,2.438,9.209
			c1.67,3.386,4.627,8.059,8.87,14.017c3.702,5.191,6.591,10.925,8.668,17.2c2.166,6.591,3.25,13.273,3.25,20.045
			c0,7.132-1.241,13.972-3.725,20.517C281.562,138.102,277.477,144.603,272.013,150.472"/>
		<path fill="#C94772" d="M188.045,150.674c-8.035-5.327-14.469-10.835-19.3-16.523c2.303,0.813,5.801,1.715,10.497,2.708
			c1.219,3.341,2.821,6.388,4.808,9.143L188.045,150.674"/>
		<path fill="#C94772" d="M286.504,97.11c0.993,4.56,1.49,9.007,1.49,13.341c0,7.132-1.241,13.972-3.725,20.517
			c-2.708,7.134-6.793,13.634-12.257,19.503c-5.778,6.14-13.137,10.315-22.075,12.527c-6.772,1.716-14.221,2.235-22.347,1.558
			c-7.583-0.632-14.919-2.122-22.007-4.47c-5.733-1.941-8.984-3.453-9.751-4.537l0.203,0.068l-1.288-2.371
			c-2.573-4.784-4.446-9.413-5.62-13.882c20.541,5.688,40.36,4.809,59.455-2.641C268.945,128.734,281.583,115.529,286.504,97.11"/>
		<path fill="#5DC1CF" d="M338.714,192.049c1.039,0.723,0.993,5.711-0.135,14.966c-1.219,9.887-3.228,20.203-6.027,30.947
			c0.993,4.966,0.903,11.851-0.271,20.654c-1.219,8.938-3.114,16.455-5.688,22.549c-2.438,5.824-6.095,11.037-10.97,15.643
			c-4.018,3.838-10.429,8.622-19.231,14.356c-8.984,5.823-21.422,8.962-37.312,9.413c-17.833,0.495-33.7-3.004-47.604-10.497
			c-18.283-9.841-29.299-22.752-33.046-38.735c-2.122-2.888-2.89-5.891-2.302-9.006c0.451-2.256,1.58-4.4,3.386-6.432
			c-0.677-3.387-0.112-8.51,1.692-15.373l2.844-9.275l-1.692-3.05c-1.129-2.345-1.581-4.287-1.354-5.822
			c-0.993-2.483-2.009-7.675-3.047-15.575c-1.128-8.533-1.263-13.747-0.406-15.643c1.986-1.49,7.652-2.167,16.997-2.031l16.93,1.219
			c1.264-1.083,4.718-2.799,10.36-5.147c6.682-2.799,12.1-4.446,16.253-4.942c9.887-1.174,18.847-0.7,26.883,1.421
			c7.493,2.031,14.423,5.576,20.789,10.632c10.699-4.063,22.436-5.486,35.212-4.267
			C330.408,188.958,336.323,190.289,338.714,192.049"/>
		<path fill="#50A8B4" d="M221.835,185.209c6.682-2.799,12.1-4.446,16.253-4.942c15.845-1.851,29.388,0.564,40.631,7.246
			c-6.322,3.973-12.416,8.78-18.284,14.424c-3.838,3.657-9.097,9.276-15.778,16.861c-13.996-17.607-28.825-23.565-44.49-17.877
			c-0.181-2.979-1.219-5.621-3.115-7.924c-1.896-2.302-4.063-3.566-6.501-3.792l12.664,0.339l8.262,0.812
			C212.739,189.273,216.193,187.558,221.835,185.209"/>
		<path fill="#0D131A" d="M181.95,275.071c0-0.362,1.715-0.362,5.147,0c3.521,0.36,5.891,0.969,7.11,1.828l-0.812,4.469
			l-1.355,4.198c-0.586,1.581-1.218,2.416-1.896,2.505c-1.128,0.137-2.731-1.376-4.808-4.537
			C183.26,280.24,182.132,277.418,181.95,275.071"/>
		<path fill="#FFFFFF" d="M192.718,277.644l-1.219,3.184c-0.903,2.662-1.558,4.018-1.964,4.062c-0.315,0-0.835-0.428-1.558-1.285
			l-2.573-3.589c-1.354-2.257-2.031-3.883-2.031-4.877v-0.203l3.859,0.408C189.354,275.974,191.182,276.74,192.718,277.644"/>
		<path fill="#50A8B4" d="M338.714,192.049c1.039,0.723,0.993,5.711-0.135,14.966c-1.219,9.887-3.228,20.203-6.027,30.947
			c0.993,4.966,0.903,11.851-0.271,20.654c-1.219,8.938-3.114,16.455-5.688,22.549c-2.573,6.094-7.109,12.346-13.61,18.759
			c-6.411,6.318-11.942,10.065-16.591,11.24c5.372-2.799,10.112-7.111,14.22-12.934c4.38-6.141,7.495-13.184,9.346-21.129
			c4.423-18.915,1.106-38.464-9.954-58.642c-3.026-5.599-4.538-8.825-4.538-9.685c0-0.497,1.266-1.624,3.793-3.387
			c6.591-4.649,13.34-8.282,20.248-10.902C335.012,192.365,338.083,191.553,338.714,192.049"/>
		<path fill="#0D131A" d="M299.304,291.933L297,294.506c-0.857,0.947-1.601,1.309-2.233,1.083c-0.497-0.181-1.13-0.858-1.896-2.03
			l-4.199-6.976l0.812-1.085l14.965-1.219L299.304,291.933"/>
		<path fill="#FFFFFF" d="M290.771,286.65c4.83-1.265,8.442-1.783,10.836-1.559c-3.747,5.689-5.847,8.444-6.299,8.263l-2.031-2.777
			L290.771,286.65"/>
		<path fill="#0D131A" d="M340.746,189.747c1.22,0.903,1.332,6.411,0.339,16.523c-1.219,11.737-3.747,22.775-7.585,33.113
			c2.438,10.021,2.121,20.541-0.948,31.556c-3.068,11.062-8.102,19.638-15.101,25.732c4.784-8.984,8.24-16.456,10.361-22.414
			c2.437-6.906,3.77-13.543,3.994-19.909c0.091-3.34-0.202-7.154-0.879-11.443c-0.588-3.567-1.13-5.938-1.626-7.109
			c-0.361-0.904-0.429-1.491-0.203-1.762s0.632-0.158,1.219,0.338l1.829,1.897c2.935-11.287,4.898-21.399,5.891-30.337
			c0.857-7.495,0.88-11.896,0.067-13.205c-2.664-1.625-8.419-2.867-17.268-3.725c-12.595-1.219-24.174,0.18-34.739,4.198
			l-0.54,0.135l-0.406-0.271c-6.366-5.055-13.408-8.374-21.129-9.955c-7.313-1.49-15.845-1.535-25.596-0.135
			c-6.049,0.902-12.55,3.047-19.503,6.434c-4.74,2.302-8.871,4.74-12.393,7.313c-2.077,1.489-3.296,2.099-3.656,1.828
			c-0.361-0.181-0.023-0.858,1.016-2.031l3.521-3.386l2.167-1.896l-15.981-1.219c-8.487-0.18-13.701,0.361-15.643,1.625
			c-0.812,0.768-0.971,3.543-0.475,8.329c0.587,5.598,1.964,12.052,4.131,19.367l0.676-0.608
			c-2.121-12.597-3.091-20.383-2.912-23.363c0.046-0.768,0.407-1.242,1.084-1.422c1.309-0.045,3.454,2.505,6.434,7.651
			c2.889,5.011,4.513,8.827,4.875,11.446l0.745-0.406l2.708-0.408c1.31,0,1.941,0.295,1.896,0.882
			c-0.091,0.586-0.791,1.038-2.099,1.354c-1.4,0.362-3.521,1.355-6.366,2.979c-3.251,1.852-5.553,3.566-6.907,5.146
			c-0.857,1.039-0.926,3.229-0.203,6.568l1.354,4.673c-1.58,3.387-2.573,8.194-2.979,14.425c-0.226,3.068-0.293,5.822-0.203,8.26
			c-2.618,3.25-3.408,6.729-2.37,10.431c1.038,3.7,3.363,5.822,6.975,6.363c2.844,0.406,7.291,1.806,13.34,4.198
			c7.674,2.98,13.77,6.186,18.283,9.615l0.204,0.136l0.068,0.137c1.49,2.662,3.814,5.191,6.974,7.584
			c3.296,2.483,5.981,3.611,8.059,3.386c2.438-0.226,7.696-2.167,15.777-5.823h0.067c12.506-3.297,27.809-6.004,45.913-8.125
			l10.699-1.356c1.533-0.136,3.048-0.698,4.537-1.692l2.913-2.302c0.811-0.633,1.376-0.79,1.691-0.474
			c0.36,0.314,0.248,0.925-0.338,1.827l-2.167,2.505c-1.129,0.903-2.844,1.671-5.147,2.304l-3.387,0.474l-6.229,0.677
			c-20.767,2.438-36.296,5.012-46.589,7.72c-8.985,4.605-14.785,7.044-17.402,7.312c-2.483,0.272-5.6-1.172-9.346-4.333
			c-3.341-2.753-5.847-5.598-7.517-8.531c-4.333-3.205-10.045-6.095-17.133-8.668c-5.191-1.896-9.3-3.07-12.325-3.521
			c-2.076-0.361-3.724-0.926-4.943-1.693c4.333,14.086,14.853,25.62,31.556,34.603c12.594,6.772,25.98,10.092,40.155,9.955
			c13.272-0.136,28.081-3.319,44.423-9.549c2.617-0.992,4.176-1.353,4.673-1.082c0.497,0.27-0.882,1.175-4.132,2.708
			c-15.168,7.133-30.066,10.744-44.693,10.835c-14.626,0.091-28.373-3.319-41.238-10.225c-18.284-9.843-29.344-22.844-33.182-39.006
			c-2.708-1.444-4.062-4.041-4.062-7.788c-0.045-3.611,1.174-6.793,3.656-9.548c-0.135-8.396,0.993-15.573,3.387-21.533
			c-1.219-1.94-1.919-4.176-2.099-6.704c-0.226-2.482,0.135-4.401,1.083-5.757c-2.889-7.809-4.582-15.235-5.079-22.279
			c-0.406-6.094,0.068-9.593,1.423-10.496c2.663-1.669,8.667-2.167,18.012-1.489l17.065,2.031c2.031-1.4,5.733-3.183,11.105-5.35
			c6.41-2.618,11.625-4.176,15.643-4.673c9.796-1.173,18.555-0.857,26.273,0.949c7.901,1.85,15.146,5.349,21.737,10.496
			c10.745-3.973,22.664-5.53,35.755-4.672C331.898,186.768,338.218,187.987,340.746,189.747"/>
		<path fill="#431E37" d="M180.8,195.977v-0.338c1.083,1.084,2.708,3.814,4.875,8.193c2.302,4.606,3.702,8.17,4.198,10.699
			c-1.941,0.588-3.996,1.784-6.162,3.589l-1.761-10.901C181.183,201.71,180.8,197.964,180.8,195.977"/>
		<path fill="#0D131A" d="M188.384,229.295c1.219,0.45,2.122,0.901,2.709,1.354c3.476,2.708,7.583,8.556,12.324,17.537
			c4.198,8.127,7.156,15.125,8.871,20.994l0.88,3.521c0.044,0.856-0.158,1.265-0.609,1.219l-1.083-0.743l-0.339-0.679
			c-3.205,0.812-8.103-0.496-14.694-3.928c-5.327-2.708-9.751-5.575-13.273-8.599c-0.812-0.272-1.309-0.746-1.49-1.424
			c-0.091-0.406,0.023-0.766,0.339-1.082l0.542-0.339c-0.903-5.146-0.745-10.361,0.474-15.644c1.174-4.829,2.686-7.923,4.537-9.277
			l-1.761-1.827c-0.316-0.633-0.316-1.083,0-1.355L188.384,229.295"/>
		<path fill="#FFFFFF" d="M184.05,252.521c0-4.424,0.7-8.78,2.099-13.069c1.219-3.701,2.302-5.801,3.251-6.298
			c2.166,0.678,5.621,5.484,10.36,14.424c4.65,8.713,7.968,16.456,9.954,23.228c-2.889,0.225-7.155-1.129-12.798-4.063
			c-4.786-2.528-8.894-5.191-12.324-7.991C184.231,256.493,184.05,254.417,184.05,252.521"/>
		<path fill="#0D131A" d="M195.764,239.384l1.219-0.068c2.799,4.425,5.643,9.797,8.532,16.118c2.889,6.365,4.921,11.691,6.095,15.98
			l0.203,0.677l-6.23-0.677c-4.695-0.813-8.352-2.167-10.97-4.062l-0.203-0.068l-0.136-0.271c-2.077-5.688-3.138-10.428-3.182-14.22
			C191.002,247.734,192.56,243.267,195.764,239.384"/>
		<path fill="#91308C" d="M193.395,254.281c0-4.74,1.016-9.098,3.047-13.068c2.618,4.243,5.237,9.232,7.855,14.966
			c2.618,5.777,4.515,10.72,5.688,14.829c-3.206,0.36-8.013-1.22-14.424-4.74C194.117,262.386,193.395,258.391,193.395,254.281"/>
		<path fill="#0D131A" d="M307.632,230.378c1.31-0.182,1.942,0.09,1.897,0.812c-0.045,0.678-0.406,1.196-1.085,1.558l-2.707,1.151
			c2.798,2.077,4.445,6.794,4.943,14.153c0.405,6.681-0.137,11.806-1.627,15.371c1.897,0.091,2.754,0.451,2.573,1.084l-1.149,1.016
			l-3.591,0.88l-41.172,8.601l-1.558,0.609c-0.947,0.09-1.265-0.587-0.947-2.03c1.174-5.689,3.341-10.993,6.501-15.915
			c3.024-4.83,7.336-9.818,12.935-14.966C290.229,235.796,298.558,231.687,307.632,230.378"/>
		<path fill="#FFFFFF" d="M283.66,246.562c3.702-3.388,7.426-6.229,11.173-8.533c3.432-2.076,6.321-3.363,8.669-3.86
			c1.354,1.627,2.415,4.627,3.183,9.006c0.723,3.929,1.083,8.061,1.083,12.393c0,3.884-0.293,6.705-0.881,8.466
			c-4.783,0.676-16.658,3.25-35.617,7.719l-4.876,1.151c0.45-3.656,2.189-7.788,5.214-12.393
			C274.632,255.862,278.649,251.213,283.66,246.562"/>
		<path fill="#0D131A" d="M292.328,237.555l0.812-0.54l0.271,0.947c4.244,9.209,5.057,19.029,2.438,29.458l-0.135,0.473
			l-0.407,0.068l-23.633,5.417l-7.11,1.625v-0.88c0.226-5.734,3.498-12.438,9.819-20.112
			C279.756,247.511,285.738,242.025,292.328,237.555"/>
		<path fill="#91308C" d="M292.328,239.315c2.031,7.677,3.048,14.176,3.048,19.504c0,2.844-0.294,5.462-0.882,7.854l-23.157,5.351
			l-5.215,1.219c0.495-5.372,3.656-11.558,9.48-18.555C280.569,248.729,286.144,243.605,292.328,239.315"/>
		<path fill="#0D131A" d="M335.803,196.18l-1.017,1.016l-0.542,0.339c1.175,1.715,0.971,6.975-0.608,15.779
			c-1.354,7.447-2.527,12.481-3.521,15.101l-1.083,2.37l-0.744-1.151c-0.453-1.129-2.416-3.59-5.893-7.381
			c-3.973-4.244-7.562-7.449-10.768-9.615l-1.489,1.015c-0.586,0.406-0.971,0.406-1.151,0c-0.18-0.452,0.137-1.151,0.949-2.099
			c1.22-1.444,4.56-4.244,10.021-8.397c6.049-4.65,10.066-7.179,12.053-7.585l3.861-0.406
			C336.187,195.3,336.164,195.639,335.803,196.18"/>
		<path fill="#431E37" d="M331.198,213.583c-0.812,5.554-1.671,10.158-2.573,13.814c-1.49-2.482-3.455-5.123-5.893-7.922
			c-2.934-3.431-5.845-6.162-8.735-8.194c2.891-2.843,5.871-5.417,8.939-7.72c3.837-2.935,6.976-4.763,9.413-5.486l0.202,1.896
			C332.552,202.997,332.102,207.535,331.198,213.583"/>
		<path fill="#0D131A" d="M211.339,237.421c-0.722-1.536-0.902-2.483-0.541-2.845c0.361-0.36,1.016,0.293,1.964,1.963
			c1.354,2.257,2.55,4.719,3.589,7.382c1.354,3.567,2.122,6.817,2.302,9.752c0.181,2.935,0.068,3.95-0.338,3.046l-1.422-4.604
			l-2.438-7.245L211.339,237.421"/>
		<path fill="#0D131A" d="M272.082,232.478c0.947-0.679,1.534-0.857,1.76-0.544c0.226,0.362-0.022,0.858-0.745,1.491
			c-1.941,1.761-3.769,4.56-5.484,8.396c-1.852,4.152-3.297,8.939-4.335,14.357c-0.314,1.805-0.677,2.843-1.082,3.113
			c-0.406,0.317-0.565-0.608-0.475-2.776C262.263,244.869,265.715,236.855,272.082,232.478"/>
		<path fill="#0D131A" d="M218.789,284.145l1.49,0.068c0.812,0.541,1.467,1.241,1.964,2.098l1.083,2.574
			c0.271,0.812,0.271,1.219,0,1.219l-1.218-0.813l-2.776-3.317C218.789,285.251,218.608,284.641,218.789,284.145"/>
		<path fill="#0D131A" d="M235.447,290.916c0.406-1.399,2.009-2.73,4.808-3.994c0.813-0.407,1.354-0.339,1.625,0.201
			c0.316,0.543,0.114,1.062-0.609,1.559l-4.604,2.979l-1.626,0.679L235.447,290.916"/>
		<path fill="#0D131A" d="M200.844,248.391l2.438,4.876l2.302,5.01c-0.18,2.077-0.542,3.793-1.084,5.146
			c-0.586,1.399-1.242,2.1-1.963,2.1c-0.857,0-1.603-0.902-2.235-2.708c-0.586-1.853-0.88-4.064-0.88-6.636
			C199.421,252.793,199.895,250.195,200.844,248.391"/>
		<path fill="#0D131A" d="M279.734,261.799c-0.361,2.347-1.039,4.311-2.032,5.891c-0.946,1.535-1.918,2.213-2.911,2.031
			c-0.948-0.135-1.647-1.082-2.101-2.845c-0.405-1.805-0.428-3.882-0.066-6.229s1.037-4.288,2.031-5.823
			c0.948-1.579,1.919-2.28,2.912-2.1c0.993,0.182,1.692,1.151,2.1,2.912C280.072,257.397,280.094,259.451,279.734,261.799"/>
		<path fill="#0D131A" d="M277.905,145.393c6.636-3.206,16.184-7.088,28.645-11.647c12.821-4.741,22.414-7.811,28.78-9.209
			l1.827,0.135c0.09,0.361-0.429,0.677-1.558,0.949c-5.731,1.444-15.506,4.853-29.319,10.225
			c-13.094,5.101-23.273,9.367-30.541,12.798L277.905,145.393"/>
		<path fill="#0D131A" d="M363.229,122.369c-10.202,2.393-24.809,6.975-43.814,13.747c-21.578,7.674-38.214,14.559-49.907,20.654
			l0.745-2.37c11.331-5.959,27.291-12.572,47.877-19.841c19.592-6.862,34.535-11.287,44.828-13.272
			c1.13-0.181,1.738-0.113,1.828,0.203C364.876,121.849,364.358,122.144,363.229,122.369"/>
		<path fill="#0D131A" d="M316.503,130.901c0.678-4.47,1.785-8.646,3.318-12.528c0.226-0.678,0.476-0.971,0.745-0.88
			c0.316,0.09,0.361,0.474,0.136,1.151c-1.038,3.205-1.941,7.178-2.709,11.917L316.503,130.901"/>
		<path fill="#0D131A" d="M297.475,138.147c0.948-4.875,1.941-9.052,2.979-12.527c0.226-0.678,0.475-0.949,0.745-0.813
			c0.271,0.135,0.315,0.542,0.137,1.219c-0.813,3.024-1.515,6.771-2.101,11.241L297.475,138.147"/>
		<path fill="#0D131A" d="M321.176,129.005c0.315-2.392,0.744-4.514,1.287-6.365c0.135-0.542,0.361-0.768,0.676-0.677
			c0.271,0.091,0.362,0.406,0.271,0.949l-0.947,5.755L321.176,129.005"/>
		<path fill="#0D131A" d="M333.297,130.698l4.876,4.266c0.406,0.361,0.497,0.654,0.27,0.88l-0.946-0.204l-5.892-4.604
			L333.297,130.698"/>
		<path fill="#0D131A" d="M297.949,143.294l1.422-0.746c1.58,1.039,3.589,2.642,6.026,4.808l5.485,5.553
			c0.407,0.497,0.496,0.858,0.272,1.083c-0.272,0.226-0.611,0.091-1.018-0.406l-6.025-5.417L297.949,143.294"/>
		<path fill="#0D131A" d="M308.445,139.163l1.559-0.677c3.656,2.754,6.885,5.824,9.684,9.209c0.451,0.497,0.54,0.835,0.271,1.016
			c-0.271,0.181-0.632,0.022-1.083-0.474C315.623,144.896,312.148,141.871,308.445,139.163"/>
		<path fill="#0D131A" d="M181.679,148.373l2.844,1.76c-8.216,1.76-18.487,4.221-30.811,7.381
			c-14.582,3.792-24.469,6.704-29.66,8.736l-1.829,0.067c-0.135-0.315,0.339-0.699,1.422-1.15c5.733-2.348,15.304-5.44,28.712-9.277
			C164.366,152.503,174.14,149.998,181.679,148.373"/>
		<path fill="#0D131A" d="M99.607,179.521l-1.761,0.136c-0.135-0.316,0.316-0.7,1.355-1.152c8.848-3.927,21.149-8.193,36.905-12.798
			c15.62-4.605,29.592-8.059,41.917-10.361l3.792,1.287c-12.054,2.347-26.726,5.936-44.016,10.767
			C120.825,172.141,108.094,176.181,99.607,179.521"/>
		<path fill="#0D131A" d="M137.799,150.336c-0.586-0.406-0.79-0.722-0.609-0.948l1.151,0.203c3.341,2.212,6.637,4.988,9.887,8.329
			l-1.422,0.609C143.6,155.189,140.598,152.458,137.799,150.336"/>
		<path fill="#0D131A" d="M153.239,156.16l-1.287,0.474l-4.063-4.131c-0.542-0.497-0.722-0.858-0.542-1.083
			c0.181-0.226,0.564-0.113,1.152,0.337L153.239,156.16"/>
		<path fill="#0D131A" d="M111.119,174.579l1.286-0.474c-0.361,2.032-0.586,4.086-0.677,6.163c-0.044,0.677-0.226,1.038-0.542,1.083
			c-0.271,0-0.429-0.339-0.473-1.016C110.667,178.845,110.802,176.927,111.119,174.579"/>
		<path fill="#0D131A" d="M141.456,165.233c-0.136,2.348-0.203,5.011-0.203,7.991c0.044,3.612,0.18,6.185,0.406,7.72
			c0.09,0.632-0.023,0.971-0.339,1.016c-0.315,0.09-0.541-0.181-0.676-0.812c-0.362-1.942-0.632-4.538-0.813-7.788
			c-0.135-3.341-0.089-5.937,0.136-7.788L141.456,165.233"/>
		<path fill="#0D131A" d="M135.362,166.926c-0.632,4.741-0.858,9.3-0.678,13.68c0.046,0.677-0.09,1.061-0.406,1.151
			c-0.271,0.044-0.452-0.249-0.542-0.881c-0.497-4.243-0.474-8.712,0.067-13.408L135.362,166.926"/>
		<path fill="#008982" d="M236.869,199.228c2.708-2.618,10.766-2.416,24.174,0.609c13.499,3.024,20.383,6.388,20.654,10.09
			c0.226,3.295-4.198,9.119-13.272,17.471c-9.119,8.398-15.486,12.347-19.097,11.852c-3.477-0.497-7.02-6.727-10.632-18.69
			C235.131,208.641,234.521,201.53,236.869,199.228"/>
		<path fill="#00736D" d="M236.192,209.657c-0.859-5.644-0.633-9.121,0.678-10.43c1.309-1.264,4.537-1.761,9.682-1.489
			c4.787,0.226,10.046,1.038,15.778,2.437c-4.152,3.838-10.044,10.044-17.673,18.623
			C241.496,214.96,238.674,211.913,236.192,209.657"/>
		<path fill="#008982" d="M235.447,237.623c1.038,1.851,0.903,5.463-0.407,10.834c-1.265,5.193-2.506,7.833-3.725,7.925
			c-0.901,0.089-2.505-1.965-4.807-6.163c-2.347-4.334-3.296-7.269-2.844-8.803c0.451-1.535,2.438-2.731,5.959-3.589
			L235.447,237.623"/>
		<path fill="#008982" d="M157.166,260.851l-6.095-0.204c-0.768-0.451-1.941-1.896-3.521-4.334
			c-1.671-2.662-2.438-4.491-2.303-5.484c0.136-1.219,0.971-3.431,2.505-6.636c1.58-3.432,2.958-5.778,4.131-7.043
			c1.264-1.309,3.95-2.233,8.059-2.777c4.017-0.541,6.207-0.36,6.568,0.541c0.632,1.537,0.632,5.577,0,12.124
			c-0.587,6.771-1.423,10.675-2.507,11.713C162.968,259.789,160.688,260.488,157.166,260.851"/>
		<path fill="#008982" d="M145.858,227.736c-0.136,0.949-1.173,2.031-3.115,3.25c-1.852,1.129-3.138,1.648-3.86,1.559
			c-0.768-0.136-1.851-1.49-3.25-4.063c-1.445-2.71-1.806-4.38-1.083-5.011c0.858-0.768,2.979-0.542,6.365,0.678
			C144.39,225.413,146.038,226.609,145.858,227.736"/>
		<path fill="#008982" d="M101.909,284.417l0.067-6.773l-1.083-9.818c-0.407-4.018-0.632-7.538-0.677-10.564
			c3.656-1.037,6.026-1.488,7.11-1.354c0.722,0.09,2.37,2.415,4.943,6.975c2.573,4.604,3.86,7.629,3.86,9.075
			c0,1.488-0.971,4.061-2.912,7.718c-1.941,3.612-3.363,5.599-4.266,5.961C107.867,286.133,105.521,285.725,101.909,284.417"/>
		<path fill="#008982" d="M224.747,325.114c0.903-0.182,4.108,1.985,9.616,6.499c5.507,4.471,8.42,7.293,8.735,8.467
			c0.316,1.171-0.159,3.497-1.423,6.973c-1.219,3.478-2.189,5.396-2.913,5.756c-0.675,0.273-2.367,0.273-5.077,0l-4.943-0.946
			c-0.677-0.361-1.851-1.716-3.521-4.064c-1.671-2.393-2.664-4.13-2.979-5.213c-0.361-1.175-0.203-4.313,0.474-9.413
			C223.348,327.935,224.025,325.248,224.747,325.114"/>
		<path fill="#008982" d="M221.091,356.332c0.768-0.271,2.551,0.225,5.351,1.488c2.843,1.265,4.356,2.348,4.537,3.251
			c0.179,0.902-0.543,2.371-2.169,4.402c-1.534,1.985-2.662,3.068-3.385,3.249l-3.182-0.406c-1.445-0.452-2.302-1.016-2.574-1.694
			c-0.407-1.082-0.407-3.023,0-5.822C220.075,358.002,220.55,356.511,221.091,356.332"/>
		<path fill="#008982" d="M309.123,334.662c-0.406,0.811-2.393,1.445-5.96,1.896c-3.565,0.451-5.462,0.248-5.688-0.608
			c-0.226-0.905,0.564-2.71,2.37-5.418c1.807-2.709,3.138-4.041,3.995-3.995c0.858,0.089,2.055,1.286,3.589,3.589
			C308.919,332.473,309.485,333.984,309.123,334.662"/>
		<path fill="#008982" d="M321.109,330.801l-0.203,0.543l-5.417-0.204c-0.812-0.812-1.332-3.114-1.558-6.907
			c-0.226-3.521-0.136-5.981,0.271-7.381l0.135-0.541c4.425-0.723,8.239-0.655,11.445,0.203
			C324.473,321.524,322.914,326.288,321.109,330.801"/>
		<path fill="#00736D" d="M328.083,307.032l-2.302,9.481c-3.206-0.858-7.021-0.926-11.445-0.203c0.543-1.534,1.4-3.296,2.574-5.281
			c1.309-2.213,2.302-3.454,2.979-3.724l3.521-0.407L328.083,307.032"/>
		<path fill="#0D131A" d="M260.57,201.327c-13.362-2.89-20.901-3.183-22.618-0.88c-1.624,2.257-0.88,8.803,2.235,19.638
			c3.114,10.97,6.162,16.883,9.142,17.742c3.07,0.947,8.983-2.936,17.741-11.649c8.307-8.215,12.643-13.52,13.002-15.912
			C280.524,207.196,274.023,204.217,260.57,201.327 M283.187,210.536c-0.406,3.251-5.124,9.255-14.153,18.013
			c-9.525,9.254-16.297,13.272-20.314,12.055c-4.379-1.266-8.262-8.059-11.647-20.383c-3.297-12.01-3.813-19.413-1.558-22.212
			c1.218-1.49,4.47-2.167,9.752-2.032c4.921,0.136,10.405,0.903,16.455,2.302C276.663,201.801,283.819,205.888,283.187,210.536"/>
		<path fill="#0D131A" d="M224.68,241.482c-0.226,1.084,0.632,3.612,2.573,7.586c1.942,3.972,3.251,5.868,3.928,5.687
			c0.858-0.226,1.783-2.798,2.775-7.718c0.993-4.922,1.105-7.767,0.339-8.534c-0.632-0.63-2.371-0.495-5.214,0.407
			C226.282,239.857,224.815,240.715,224.68,241.482 M236.056,236.472c1.536,1.401,1.692,5.103,0.474,11.105
			c-1.219,5.959-2.798,9.278-4.739,9.954c-1.717,0.632-3.928-1.58-6.636-6.636c-2.619-4.875-3.747-8.194-3.386-9.954
			c0.316-1.49,2.46-2.89,6.433-4.198L236.056,236.472"/>
		<path fill="#0D131A" d="M142.539,230.106c1.716-1.038,2.461-1.805,2.235-2.304c-0.315-0.812-1.783-1.714-4.401-2.706
			c-2.619-0.948-4.267-1.241-4.944-0.881c-0.542,0.27-0.248,1.489,0.88,3.657c1.129,2.121,2.032,3.293,2.709,3.52
			C139.696,231.573,140.869,231.145,142.539,230.106 M138.545,233.628c-1.174-0.36-2.506-2.03-3.996-5.011
			c-1.489-3.115-1.783-5.146-0.88-6.095c0.948-1.038,3.363-0.835,7.245,0.609c3.882,1.445,5.892,2.911,6.027,4.402
			c0.135,1.173-0.948,2.572-3.25,4.198C141.388,233.356,139.673,233.988,138.545,233.628"/>
		<path fill="#0D131A" d="M146.941,243.175c2.257-4.559,3.702-7.042,4.333-7.448c1.49-0.948,4.154-1.76,7.991-2.437
			c4.107-0.768,6.681-0.723,7.72,0.135c1.173,0.947,1.445,5.146,0.812,12.596c-0.586,7.224-1.422,11.624-2.505,13.204
			c-0.857,1.264-3.183,2.146-6.976,2.641c-3.25,0.407-5.643,0.43-7.177,0.068c-1.039-0.227-2.483-1.761-4.334-4.606
			c-1.851-2.798-2.866-4.918-3.047-6.364C143.668,250.286,144.729,247.689,146.941,243.175 M149.04,244.124
			c-1.806,3.883-2.686,6.095-2.641,6.637c0.045,1.083,0.744,2.753,2.099,5.012c1.399,2.301,2.527,3.61,3.385,3.926
			c0.903,0.316,2.867,0.294,5.892-0.066c3.205-0.407,5.079-1.016,5.621-1.827c0.858-1.266,1.557-5.149,2.099-11.649
			c0.497-6.5,0.429-10.001-0.203-10.496l-5.417-0.202c-3.07,0.451-5.553,1.241-7.449,2.37
			C151.975,238.143,150.846,240.241,149.04,244.124"/>
		<path fill="#0D131A" d="M103.669,257.601c-1.625,0.359-3.001,0.812-4.13,1.353l-0.135-2.708c1.219-0.496,2.731-0.947,4.537-1.354
			l3.927-0.475c1.219,0.271,3.184,3.069,5.892,8.397c2.664,5.146,3.928,8.307,3.792,9.479c-0.18,1.672-1.219,4.38-3.115,8.127
			c-2.167,4.198-3.973,6.388-5.417,6.569l-4.402-0.475c-1.851-0.451-3.228-0.948-4.131-1.489v-2.913
			c0.813,0.679,2.032,1.265,3.656,1.761l3.996,0.544c0.903-0.138,2.212-1.92,3.928-5.351c1.625-3.342,2.437-5.576,2.437-6.703
			c0-1.219-1.061-3.975-3.182-8.263c-2.167-4.288-3.634-6.569-4.401-6.84L103.669,257.601"/>
		<path fill="#0D131A" d="M225.154,326.536c-0.678,0.271-1.174,2.438-1.49,6.5c-0.271,3.297-0.361,6.456-0.271,9.479
			c0.046,0.544,0.88,1.941,2.506,4.2c1.625,2.166,2.687,3.407,3.183,3.723l4.672,1.084c2.665,0.362,4.22,0.385,4.674,0.067
			c0.676-0.496,1.511-2.256,2.505-5.28c0.992-3.161,1.264-5.192,0.812-6.096c-0.722-1.445-3.477-4.153-8.262-8.126
			C228.653,328.07,225.877,326.219,225.154,326.536 M221.497,332.495c0.542-5.191,1.377-8.015,2.505-8.466
			c1.399-0.54,4.899,1.444,10.496,5.96c5.328,4.334,8.463,7.426,9.412,9.277c0.678,1.399,0.407,3.927-0.812,7.585
			c-1.083,3.295-2.122,5.439-3.115,6.432c-0.677,0.722-2.619,0.948-5.824,0.678c-2.889-0.227-4.942-0.61-6.162-1.152
			c-0.632-0.225-1.94-1.805-3.926-4.738c-1.987-2.936-3.003-4.786-3.048-5.555C220.888,339.853,221.046,336.513,221.497,332.495"/>
		<path fill="#0D131A" d="M228.405,364.117c0.902-1.578,1.264-2.55,1.084-2.912c-0.317-0.586-1.536-1.376-3.657-2.367
			c-2.167-0.995-3.589-1.469-4.267-1.424c-0.361,0-0.677,1.084-0.948,3.251c-0.316,2.258-0.294,3.996,0.067,5.215
			c0.135,0.45,0.858,0.901,2.168,1.354l2.64,0.337C226.442,366.984,227.411,365.835,228.405,364.117 M232.062,360.665
			c-0.045,1.309-0.77,3.001-2.167,5.078c-1.31,1.942-2.438,3.206-3.387,3.792l-4.334-0.27c-2.167-0.679-3.341-1.423-3.521-2.236
			c-0.451-1.533-0.474-3.838-0.067-6.906c0.362-3.25,0.993-5.011,1.896-5.281c1.083-0.362,3.296,0.271,6.637,1.896
			C230.458,358.363,232.106,359.672,232.062,360.665"/>
		<path fill="#0D131A" d="M303.84,327.619c-0.451,0-1.489,1.195-3.115,3.589c-1.623,2.438-2.302,3.836-2.029,4.198l4.672-0.135
			c2.843-0.497,4.355-1.017,4.536-1.558c0.181-0.407-0.338-1.512-1.558-3.319C305.127,328.59,304.293,327.664,303.84,327.619
			 M304.043,325.384c1.084,0.182,2.528,1.626,4.334,4.336c1.761,2.707,2.461,4.468,2.101,5.28c-0.497,1.129-2.777,2.009-6.841,2.642
			c-4.107,0.63-6.591,0.475-7.447-0.474c-0.724-0.812,0.112-3.026,2.506-6.637C301.087,326.92,302.87,325.203,304.043,325.384"/>
		<path fill="#0D131A" d="M325.035,305.611l5.351,0.608l-0.813,2.777l-4.469-0.677c-2.121-0.136-3.702-0.136-4.74,0
			c-0.588,0.045-1.558,1.353-2.912,3.928c-1.264,2.483-2.031,4.355-2.302,5.619c-0.362,1.716-0.429,4.086-0.203,7.11
			c0.27,3.116,0.677,4.831,1.219,5.147l2.167,0.337l5.011-0.946l-1.285,2.911c-3.658,0.902-6.163,0.902-7.518,0
			c-1.039-0.678-1.693-3.206-1.965-7.584c-0.271-3.612-0.271-6.095,0-7.449c0.181-1.129,1.038-3.183,2.574-6.163
			c1.761-3.565,3.228-5.417,4.402-5.552C320.725,305.543,322.553,305.521,325.035,305.611"/>
		<path fill="#0D131A" d="M304.925,164.286l1.555,2.505l1.831,3.115c0.768,1.444,1.015,2.257,0.743,2.438l-2.1,0.067l-2.842-0.339
			l2.774,1.016c0.858,0.316,1.424,0.655,1.693,1.016c0.498,0.632,0.745,2.731,0.745,6.297c0.045,3.612-0.384,5.191-1.286,4.74
			l-8.465-3.182l-8.667-2.98c4.83,3.251,8.78,6.163,11.849,8.736l2.1,1.828c0.632,0.678,0.79,1.287,0.476,1.828
			c-6.366,11.692-9.865,17.562-10.498,17.606c-0.36,0-1.738-1.375-4.131-4.131l-5.551-6.636l4.13,14.425
			c0.451,2.031,0.18,3.79-0.813,5.281c-0.586,0.902-3.091,3.204-7.515,6.906c-4.425,3.701-6.727,5.439-6.908,5.216l-0.609-6.638
			l-0.543-9.277l-2.641,5.351c-1.037,2.12-1.782,3.228-2.233,3.316c-0.588,0.137-3.792-1.219-9.616-4.062
			c-5.822-2.844-8.69-4.56-8.6-5.147c0.09-0.495,1.625-2.821,4.604-6.975l5.281-7.245c-0.768,0.812-2.482,2.912-5.147,6.298
			l-3.654,4.266l-5.893-3.386l-5.553-3.792c0-0.407,1.581-2.325,4.74-5.756c3.34-3.657,6.298-6.614,8.872-8.871
			c-1.852,0.858-4.72,3.115-8.601,6.771l-5.757,5.079c-0.542,0.045-3.16-1.919-7.854-5.892c-4.649-3.927-6.997-6.185-7.043-6.771
			c-0.044-0.542,1.513-2.664,4.672-6.366c3.025-3.611,5.916-6.772,8.667-9.48c-1.851,1.039-5.688,4.379-11.511,10.022
			c-5.417,5.282-8.306,7.923-8.667,7.923c-0.632,0-1.896-1.648-3.792-4.944c-1.851-3.25-2.731-5.237-2.642-5.959
			c0.091-0.722,1.242-2.505,3.454-5.35c2.844-3.701,6.049-6.862,9.616-9.48c11.015-8.171,22.662-9.48,34.941-3.928l1.221-0.473
			c16.478-7.359,31.466-5.734,44.963,4.875L304.925,164.286"/>
		<path fill="#00A63C" d="M298.288,180.267L286.031,176c-2.844-0.767-4.266-1.016-4.266-0.745c0,0.226,1.264,0.993,3.793,2.303
			c2.393,1.263,5.574,3.385,9.548,6.365l8.464,7.11l-4.943,8.803c-2.348,4.153-3.702,6.252-4.062,6.297
			c-0.498,0-3.995-3.882-10.498-11.647l-1.894-1.896l0.474,2.708l2.912,10.834c1.714,5.961,2.505,9.098,2.37,9.414l-5.282,4.877
			l-7.178,6.092l-0.136-9.479c-0.046-5.057-0.203-7.809-0.475-8.262c-0.451-0.723-2.936,3.183-7.449,11.716
			c-7.357-4.38-12.188-7.043-14.492-7.991l6.027-8.397l5.96-8.329l1.896-2.438c0.226-0.631-0.723-0.383-2.843,0.745
			c-3.432,1.806-7.923,6.344-13.477,13.612l-8.464-5.351l7.381-8.058c3.926-4.062,6.568-6.456,7.922-7.179l2.71-1.489l-2.98-0.067
			c-4.967,0.315-11.127,4.356-18.486,12.121l-12.46-10.564c1.581-2.122,3.949-5.011,7.111-8.667
			c3.881-4.515,6.409-7.178,7.583-7.991l2.235-1.625l-2.506,0.136c-4.289,0.676-8.916,3.25-13.881,7.72
			c-2.664,2.438-5.825,5.756-9.481,9.954l-4.944-7.72c3.928-6.771,9.052-12.098,15.371-15.981c9.842-6.094,20.474-6.682,31.895-1.76
			l0.881-0.339c6.139-2.438,11.783-3.792,16.929-4.063c9.57-0.452,18.328,2.416,26.274,8.6l2.505,5.146l-1.896-0.203l-4.469-0.136
			l-3.454,0.406c0.136,0.226,1.151,0.632,3.048,1.219c2.166,0.677,4.831,1.874,7.99,3.588l0.271,3.725
			c0.089,2.302,0.021,3.748-0.204,4.334L298.288,180.267"/>
		<path fill="#0D131A" d="M156.218,110.518l0.136,1.693c-9.526-3.928-17.155-6.681-22.888-8.262
			c-1.129-0.316-1.625-0.655-1.49-1.015l1.828-0.136C139.944,104.514,147.415,107.087,156.218,110.518"/>
		<path fill="#0D131A" d="M157.098,115.597l0.339,1.896c-15.168-7.403-28.712-12.843-40.63-16.32
			c-1.083-0.315-1.558-0.654-1.421-1.016l1.76-0.068C129.109,103.476,142.427,108.645,157.098,115.597"/>
		<path fill="#0D131A" d="M148.635,108.283l-1.491-0.406c-0.451-4.695-1.129-8.69-2.031-11.985
			c-0.181-0.678-0.135-1.062,0.135-1.151c0.271-0.09,0.52,0.203,0.745,0.879C147.257,99.548,148.137,103.77,148.635,108.283"/>
		<path fill="#0D131A" d="M144.368,106.727l-1.355-0.407c0-2.348-0.248-4.582-0.744-6.703c-0.091-0.542,0-0.858,0.27-0.949
			l0.677,0.677C143.984,101.332,144.368,103.792,144.368,106.727"/>
		<path fill="#0D131A" d="M143.894,110.518l1.422,0.61l-5.417,4.74l-6.026,4.063c-0.587,0.271-0.949,0.271-1.084,0
			c-0.181-0.271,0.022-0.564,0.61-0.881C135.474,117.832,138.973,114.988,143.894,110.518"/>
		<path fill="#0D131A" d="M271.675,178.642c-2.347-8.307-6.411-14.131-12.189-17.471l1.625-1.152
			c6.051,3.657,10.203,9.91,12.461,18.758c2.076,8.081,2.235,16.749,0.474,26.003c-0.27,1.309-0.587,1.92-0.948,1.828
			c-0.361-0.089-0.451-0.789-0.271-2.098C274.271,195.029,273.887,186.406,271.675,178.642"/>
		<path fill="#0D131A" d="M276.483,193.811c1.174-15.937-3.251-27.651-13.272-35.146l1.896-0.609
			c10.339,7.675,14.515,19.66,12.528,35.958c-0.182,1.354-0.428,2.009-0.745,1.963C276.529,195.887,276.393,195.164,276.483,193.811
			"/>
		<path fill="#0D131A" d="M268.492,169.433l1.559,2.031c-3.434-0.181-6.704,0.316-9.819,1.49c-3.025,1.174-6.163,3.092-9.414,5.756
			c-0.856,0.677-1.398,0.902-1.624,0.677c-0.271-0.181-0.022-0.654,0.744-1.422C255.49,172.367,261.674,169.522,268.492,169.433"/>
	</g>
</g>
</svg>
