<?xml version="1.0" encoding="utf-8"?>
<!-- Generator: Adobe Illustrator 16.0.0, SVG Export Plug-In . SVG Version: 6.00 Build 0)  -->
<!DOCTYPE svg PUBLIC "-//W3C//DTD SVG 1.1//EN" "http://www.w3.org/Graphics/SVG/1.1/DTD/svg11.dtd">
<svg version="1.1" id="Layer_1" xmlns="http://www.w3.org/2000/svg" xmlns:xlink="http://www.w3.org/1999/xlink" x="0px" y="0px"
	 width="456px" height="415px" viewBox="0 0 456 415" enable-background="new 0 0 456 415" xml:space="preserve">
<g>
	<path fill="#0D131A" d="M392.194,199.607c13.699,10.983,24.154,23.173,31.365,36.57c5.794,10.741,8.69,20.307,8.69,28.695
		c0,10.953-4.209,22.117-12.627,33.493c-8.117,10.982-18.376,19.869-30.777,26.658c2.806,2.986,4.812,5.37,6.02,7.15
		c1.629,2.415,2.443,4.526,2.444,6.337c-0.001,0.604-0.271,1.357-0.815,2.264l-1.312,2.081
		c-3.139,6.246-13.774,10.108-31.909,11.587c-14.333,1.177-28.001,0.83-41.006-1.041c-9.504-1.389-17.636-3.636-24.396-6.744
		c-1.509-0.663-5.838-3.138-12.989-7.423c-3.138-1.9-5.401-3.092-6.789-3.575c-2.143-0.784-4.33-0.936-6.562-0.453
		c-30.929,6.608-54.524,8.842-70.788,6.699c-8.388-1.117-16.249-3.41-23.58-6.88c-6.669-3.168-13.729-7.739-21.182-13.713
		c-22.842-15.781-38.954-32.77-48.338-50.964c-9.414-18.225-11.27-36.013-5.567-53.362c3.168-9.655,8.584-18.617,16.249-26.884
		c7.664-8.297,17.093-15.374,28.288-21.227c11.677-6.125,24.577-10.651,38.698-13.578c14.182-2.957,29.058-4.209,44.626-3.757
		c37.989,1.086,71.451,6.352,100.388,15.796C354.764,175.332,375.388,186.089,392.194,199.607"/>
	<path fill="#5DC1CF" d="M386.672,326.834c1.689,1.025,3.334,3.228,4.934,6.607c1.75,3.621,2.157,6.366,1.222,8.237
		c-2.685,5.372-12.235,8.66-28.649,9.867c-13.397,0.966-26.463,0.527-39.195-1.313c-9.535-1.357-17.803-3.425-24.803-6.2
		c-4.073-1.599-8.705-3.968-13.896-7.105c-3.409-2.021-5.884-3.305-7.422-3.847c-2.565-0.876-5.19-1.042-7.876-0.499
		c-27.396,5.643-49.273,7.499-65.627,5.567c-16.385-1.961-32.347-8.312-47.885-19.055c-22.298-15.418-38.049-31.953-47.252-49.604
		c-9.233-17.683-11.104-34.911-5.612-51.688c6.427-19.613,21.303-35.333,44.627-47.162c23.324-11.828,50.208-17.304,80.654-16.43
		c53.92,1.569,96.253,9.837,127,24.803c30.747,14.996,53.241,38.335,67.483,70.018c6.548,14.514,3.682,30.309-8.601,47.388
		c-4.495,6.246-9.851,12.068-16.066,17.471c-5.22,4.525-9.746,7.724-13.578,9.595c-5.371,2.654-7.303,4.088-5.794,4.3
		C381.332,327.936,383.444,327.618,386.672,326.834"/>
	<path fill="#50A8B4" d="M157.474,319.094l-5.794-4.163c16.717,0.029,35.937-2.067,57.662-6.292l57.164-12.809
		c3.139,12.522,7.182,24.923,12.13,37.204c-2.504-0.845-5.054-0.996-7.649-0.453c-27.396,5.643-49.273,7.499-65.627,5.567
		C188.975,336.188,173.013,329.836,157.474,319.094"/>
	<path fill="#50A8B4" d="M391.333,283.203c1.027-4.678-0.015-9.671-3.123-14.981c-2.806-4.797-6.743-8.992-11.812-12.583
		c-5.009-3.59-9.776-5.643-14.303-6.155c-4.919-0.573-8.494,0.859-10.727,4.301c0.634-1.057,0.362-2.776-0.815-5.16
		c-1.237-2.505-3.258-5.221-6.064-8.147c-7.03-7.271-15.991-13.05-26.885-17.334c-13.729-5.431-28.348-7.378-43.856-5.839
		c-18.979,1.9-38.261,8.992-57.843,21.272c-7.815,4.888-16.037,6.23-24.667,4.028c-6.94-1.811-14.831-6.201-23.671-13.171
		c-2.504-1.991-10.244-8.811-23.218-20.458c-9.414-8.479-17.184-14.453-23.31-17.923c11.496-12.009,26.779-21.287,45.849-27.835
		c19.402-6.639,40.402-9.641,63.002-9.007c53.92,1.569,96.253,9.837,127,24.803c30.747,14.996,53.241,38.335,67.483,70.018
		c6.548,14.514,3.682,30.309-8.601,47.388c-4.495,6.246-9.851,12.068-16.066,17.471c-5.22,4.525-9.746,7.724-13.578,9.595
		c-5.371,2.654-7.303,4.088-5.794,4.3c0.997,0.151,3.108-0.166,6.337-0.95c1.689,1.025,3.334,3.228,4.934,6.607
		c1.75,3.621,2.157,6.366,1.222,8.237c-1.357,2.746-4.646,4.964-9.866,6.653c-4.587,1.51-10.471,2.55-17.652,3.124
		c-0.15-5.069-1.297-9.581-3.439-13.533c-1.779-3.229-3.787-5.477-6.02-6.744C376.609,312.35,388.437,296.358,391.333,283.203"/>
	<path fill="#0D131A" d="M378.117,343.399c2.988,3.5,4.33,6.004,4.028,7.513c-0.452,2.082-1.191,4.299-2.218,6.653
		c-1.357,3.018-2.594,4.512-3.711,4.481c-2.986-0.062-6.246-0.847-9.776-2.354c-3.168-1.327-6.2-3.077-9.097-5.25
		c-0.453-0.302-0.725-0.648-0.815-1.041c-0.181-0.725,0.257-1.795,1.313-3.213c7.09-9.233,11.602-13.488,13.532-12.765
		C373.033,338.059,375.281,340.05,378.117,343.399"/>
	<path fill="#FFFFFF" d="M377.167,345.345c2.354,2.927,3.425,4.949,3.214,6.064c-0.271,1.389-0.951,2.942-2.037,4.662
		c-1.146,1.721-2.066,2.581-2.761,2.581c-1.418,0-4.164-0.62-8.237-1.857c-4.436-1.387-7.091-2.594-7.966-3.62
		c0.151-0.875,1.313-2.7,3.485-5.477c2.413-3.047,4.616-5.234,6.608-6.562c1.025-0.694,1.719-0.995,2.081-0.905
		C372.974,340.774,374.844,342.479,377.167,345.345"/>
	<path fill="#DBDCDC" d="M371.6,340.276c1.419,0.572,3.29,2.277,5.612,5.114c2.324,2.927,3.38,4.934,3.169,6.019
		c-0.271,1.237-0.859,2.611-1.765,4.119C377.288,350.369,374.949,345.285,371.6,340.276"/>
	<path fill="#0D131A" d="M400.702,335.297c4.255,4.225,6.081,7.092,5.478,8.6c-1.178,2.897-4.813,4.798-10.908,5.702
		c-2.384,0.363-4.436,0.408-6.156,0.137c-1.779-0.271-2.609-0.8-2.489-1.584c0.302-2.021,1.117-5.553,2.444-10.591
		c1.298-5.009,2.067-7.559,2.309-7.649C393.311,329.187,396.418,330.982,400.702,335.297"/>
	<path fill="#DBDCDC" d="M389.433,346.296l-0.091-0.815c0-1.478,0.528-3.922,1.585-7.332c0.935-3.078,1.705-5.145,2.308-6.2
		c1.117,0.663,2.928,2.474,5.432,5.432c2.625,3.107,3.938,5.144,3.938,6.109v0.045c-0.061,0.604-0.996,1.328-2.807,2.173
		c-1.961,0.936-3.982,1.523-6.064,1.766C391.198,347.774,389.765,347.381,389.433,346.296"/>
	<path fill="#0D131A" d="M352.23,329.277l18.466-1.538c1.78-0.242,2.64-0.061,2.58,0.543c-0.061,0.544-0.74,1.101-2.037,1.675
		c-1.659,0.754-7.604,1.282-17.833,1.584c-11.255,0.361-18.691-0.181-22.313-1.63l0.407-1.222
		C334.427,329.655,341.336,329.851,352.23,329.277"/>
	<path fill="#0D131A" d="M353.677,232.828c0.332-2.022,0.755-3.032,1.268-3.032c0.543,0,0.785,1.01,0.725,3.032
		c-0.573,14.333-3.787,26.13-9.641,35.394c-6.246,9.866-15.946,17.546-29.103,23.037l-0.77-1.855
		c11.798-4.919,20.91-13.171,27.338-24.758C348.201,256.167,351.596,245.561,353.677,232.828"/>
	<path fill="#0D131A" d="M209.659,139.456l0.951,0.859l-42.409,29.736c-0.724,0.453-8.087,2.927-22.086,7.423
		c-14.152,4.496-21.544,6.683-22.178,6.563c-0.543-0.121-1.931-4.119-4.165-11.994l-4.57-16.339l-5.386,32.361
		c-12.673,3.832-19.281,5.537-19.824,5.114c-0.302-0.241-0.453-3.047-0.453-8.418l-0.09-14.528l-5.839,26.794l-6.336,2.037
		c-4.315,1.297-6.714,1.75-7.196,1.357c-0.483-0.392-1.132-2.866-1.946-7.422l-1.901-10.546l-5.838,20.593
		c-5.492,2.746-8.585,3.848-9.278,3.304c-0.392-0.302-0.694-1.991-0.906-5.069l-0.588-7.785l-4.164,14.801
		c-7.694,1.779-11.692,2.397-11.994,1.854c-0.211-0.362,0.799-3.409,3.032-9.143l4.979-12.854L23.73,205.898
		c-1.117,1.056-1.735,1.207-1.856,0.453l0.181-1.494l8.374-24.305l16.43-8.735l-13.714,3.711l11.632-15.253l19.779-8.78
		l-10.817,2.173c-4.135,0.844-6.307,1.116-6.518,0.814c-0.242-0.332,3.243-3.531,10.455-9.595c7.182-6.005,11.18-9.143,11.994-9.414
		l8.374-0.634l12.175-0.588c-3.47-1.207-6.367-2.429-8.69-3.667l-1.629-0.679c-0.06-0.09,0.514-0.453,1.721-1.086
		c23.746-12.341,46.769-17.772,69.066-16.294C174.01,114.065,193.667,123.042,209.659,139.456"/>
	<path fill="#00A63C" d="M84.333,129.815c24.109-10.983,46.588-15.6,67.438-13.85c20.879,1.72,39.406,9.761,55.579,24.124
		l-42.092,28.333c-26.04,8.992-39.376,13.352-40.01,13.081c-0.453-0.211-2.082-4.813-4.888-13.805
		c-2.806-9.021-4.314-14.559-4.526-16.61c-0.242-2.112-0.573-2.882-0.996-2.309c-0.483,0.573-1.147,2.731-1.992,6.473
		c-1.176,5.099-2.776,15.494-4.797,31.184l-16.112,4.209l-0.68-28.831c-0.09-2.414-0.241-3.681-0.452-3.802
		c-0.242-0.181-0.754,1.026-1.539,3.621c-1.117,3.65-3.56,14.905-7.332,33.764l-10.365,2.58c-2.264-9.143-3.681-15.781-4.255-19.915
		c-0.392-2.746-0.739-3.953-1.041-3.621l-0.905,3.576l-6.563,23.309l-5.839,1.177l-0.95-5.839c-0.543-3.439-0.92-6.125-1.132-8.056
		c-0.241-2.323-0.453-3.485-0.634-3.485c-0.181,0.03-0.619,1.146-1.312,3.349c-0.875,2.897-2.564,8.917-5.069,18.059l-7.378,1.131
		l8.374-23.083c0.785-2.021,0.755-2.806-0.09-2.354l-1.539,1.313L25.36,201.417l6.698-19.462
		c12.462-6.879,20.307-11.043,23.536-12.491c5.16-2.354,4.918-2.972-0.724-1.856c-2.444,0.483-5.431,1.237-8.961,2.263l-7.604,2.218
		l7.74-10.184l11.768-5.205l14.89-6.653c2.475-1.116,3.727-1.766,3.757-1.946c0.03-0.272-1.403-0.257-4.3,0.045l-9.414,1.494
		l-8.644,1.629l16.384-13.85l11.542-0.633l13.488-0.815c1.599-0.15,2.414-0.332,2.444-0.543c0-0.211-0.725-0.679-2.173-1.403
		c-0.905-0.452-2.641-1.086-5.205-1.901C87.894,131.279,85.812,130.509,84.333,129.815"/>
	<path fill="#009233" d="M118.641,140.406c-0.815,0-2.022-0.89-3.621-2.67l-5.159-5.657c-5.25-5.281-10.531-7.408-15.841-6.382
		c22.117-8.63,42.756-11.723,61.916-9.278c19.19,2.414,36.329,10.304,51.416,23.671l-40.734,27.428
		c-5.099-7.181-12.1-13.336-21.001-18.466C136.413,143.71,127.422,140.829,118.641,140.406"/>
	<path fill="#0D131A" d="M187.074,130.584l8.464,7.423l-3.304,0.859c-2.534-0.845-5.974-1.629-10.319-2.354
		c-8.6-1.388-17.682-1.78-27.247-1.176c-30.385,1.901-59.789,13.352-88.213,34.353l-2.308,1.674
		c-1.117,0.634-0.619-0.256,1.494-2.67c13.095-15.057,30.022-26.13,50.782-33.221C138.903,127.809,162.453,126.179,187.074,130.584"
		/>
	<path fill="#00A63C" d="M191.057,136.786c-17.35-3.621-32.935-4.526-46.754-2.715c-21.634,2.836-44.4,11.994-68.297,27.473
		c13.094-12.25,29.208-20.971,48.337-26.161c19.824-5.401,40.734-6.397,62.73-2.987l0.77,1.448
		C188.568,134.93,189.639,135.91,191.057,136.786"/>
	<path fill="#009233" d="M187.074,132.396l0.77,1.448c0.724,1.086,1.795,2.066,3.213,2.942c-11.587-2.444-21.831-3.682-30.732-3.711
		c-13.276-0.09-26.733,2.127-40.372,6.653l-2.851-2.172c10.5-3.531,21.589-5.749,33.266-6.654
		C162.377,129.966,174.613,130.464,187.074,132.396"/>
	<path fill="#00A63C" d="M287.281,105.375l0.316,0.136l0.182,0.316c2.293,3.38,3.5,6.956,3.621,10.727
		c0.15,3.802-0.8,7.468-2.852,10.998c-4.104,7.061-11.692,12.583-22.766,16.565c-13.186,4.707-29.404,6.336-48.655,4.888
		c-2.565-0.211-4.179-1.312-4.843-3.304c-0.875-2.625,0.181-6.367,3.168-11.225c2.987-4.828,7.226-9.67,12.718-14.529
		c7.09-6.276,14.664-11.058,22.72-14.347C264.137,100.17,276.267,100.095,287.281,105.375"/>
	<path fill="#009233" d="M285.787,107.638c1.991,3.048,2.987,6.246,2.987,9.595c0,3.078-0.846,6.065-2.535,8.961
		c-3.861,6.668-11.134,11.874-21.815,15.615c-12.703,4.405-28.408,5.914-47.116,4.526c-1.388-0.091-2.218-0.588-2.489-1.493
		c-0.664-1.871,0.347-4.934,3.033-9.188c2.896-4.556,6.925-9.128,12.084-13.714c6.729-5.944,13.91-10.515,21.544-13.713
		C264.031,103.006,275.468,102.81,285.787,107.638"/>
	<path fill="#0D131A" d="M248.493,70.389c4.072,2.112,6.758,4.797,8.056,8.056c4.677,11.888,7.241,22.6,7.694,32.135
		c0.513,10.35-1.282,21.815-5.386,34.397c-0.966,2.987-3.274,5.763-6.926,8.328c-3.802,2.716-8.479,4.752-14.03,6.11
		c-7.754,1.901-15.268,2.293-22.539,1.177c-8.811-1.358-15.51-4.888-20.096-10.591c-8.841-11.073-11.873-25.511-9.098-43.314
		c0.966-6.216,2.596-12.386,4.889-18.511c1.72-4.708,3.35-8.268,4.888-10.682c2.655-4.254,7.845-7.407,15.569-9.459
		c6.94-1.841,14.152-2.414,21.635-1.72C239.305,66.919,244.419,68.276,248.493,70.389"/>
	<path fill="#C28600" d="M254.06,79.441c4.496,11.375,6.939,22.102,7.332,32.18c0.452,10.531-1.267,21.454-5.16,32.769
		c-0.844,2.444-2.926,4.797-6.246,7.061c-3.5,2.354-7.754,4.148-12.763,5.386c-7.513,1.871-14.649,2.323-21.408,1.358
		c-8.449-1.177-14.62-4.481-18.512-9.913c-7.603-10.621-10.199-24.456-7.785-41.503c0.875-6.004,2.309-11.918,4.3-17.742
		c1.569-4.617,3.018-7.996,4.345-10.139c2.413-3.832,7.211-6.653,14.393-8.464c6.518-1.629,13.306-2.112,20.367-1.448
		c5.553,0.513,10.184,1.69,13.895,3.531C250.56,74.387,252.974,76.695,254.06,79.441"/>
	<path fill="#986A00" d="M254.06,79.441c3.802,9.686,6.141,18.843,7.016,27.473c0.874,9.022,0.24,18.149-1.901,27.383
		c-11.888-9.022-23.973-16.852-36.253-23.49c-16.052-8.629-26.87-11.798-32.452-9.505c0.995-4.918,2.339-9.655,4.028-14.212
		c1.357-3.681,2.58-6.412,3.666-8.192c2.413-3.832,7.211-6.653,14.393-8.464c6.518-1.629,13.306-2.112,20.367-1.448
		c5.553,0.513,10.184,1.69,13.895,3.531C250.56,74.387,252.974,76.695,254.06,79.441"/>
	<path fill="#0D131A" d="M243.107,93.2c0.361-0.121,1.811,1.373,4.345,4.48l4.346,5.386c2.866-3.953,5.311-7.045,7.331-9.279
		l0.905-0.996l0.227,1.358c0.846,4.677,1.735,8.766,2.671,12.266c0.362,2.112,0.181,5.521-0.543,10.229l0.227,4.3l-1.177,1.765
		l-2.399,5.703l-3.667,8.374l-0.724,1.403l-5.567-16.429l-7.875,15.705l-6.743-12.129l-7.875,11.857l-7.921-10.545l-6.788,13.579
		l-6.834-14.937l-7.288,8.509l-1.268,1.222l-1.221-1.494l-7.876-11.541v-0.227c-0.15-9.263,1.102-18.979,3.757-29.148l0.363-1.312
		l5.883,7.83l3.531-3.847c2.021-2.172,3.273-3.199,3.756-3.078c0.482,0.121,1.343,2.746,2.58,7.875l2.173,9.188l5.114-8.463
		c2.836-4.768,4.436-7.167,4.797-7.197c0.363-0.03,1.449,1.766,3.259,5.386l3.213,6.427l3.485-6.201
		c1.931-3.5,3.078-5.281,3.439-5.341c0.393-0.061,1.435,1.976,3.123,6.11l3.214,7.875l1.946-8.147
		C242.021,95.493,242.714,93.32,243.107,93.2"/>
	<path fill="#C28600" d="M259.174,95.78c1.268,7.151,1.901,12.824,1.901,17.018l-0.137,3.666l-0.679,4.3
		c-0.181,0.271-0.936,2.293-2.263,6.064l-3.078,7.921l-2.896-9.912c-1.569-5.371-2.444-8.042-2.626-8.011
		c-0.211,0-1.523,2.716-3.938,8.146l-4.3,9.641l-3.575-7.649c-1.9-4.194-2.957-6.231-3.168-6.11
		c-0.182,0.121-1.449,2.323-3.803,6.608l-4.119,7.423l-4.48-7.016c-2.595-3.982-3.998-5.899-4.208-5.748
		c-0.212,0.151-1.132,2.459-2.761,6.925l-3.123,8.102l-3.35-8.735c-1.841-4.827-2.881-7.317-3.123-7.468s-1.569,1.569-3.983,5.16
		l-4.209,6.201l-8.509-10.772l-0.045-1.177c0-8.147,1.131-16.822,3.394-26.024l2.127,3.394l1.811,2.988l0.905,1.176
		c0.181,0.121,0.528-0.075,1.041-0.588c2.716-2.715,4.602-4.48,5.657-5.295l2.444,8.463c1.479,4.918,2.459,7.483,2.941,7.694
		c0.453,0.211,2.204-1.946,5.25-6.473l5.205-7.92l3.123,5.612c1.75,3.017,2.806,4.511,3.168,4.48
		c0.362-0.03,1.463-1.448,3.303-4.254l3.35-5.341l3.847,7.061l3.123,5.974l4.346-14.347l8.191,8.147l0.453-0.634l2.354-3.123
		L259.174,95.78"/>
	<path fill="#986A00" d="M199.024,100.306c2.353-2.323,3.892-3.757,4.616-4.299l1.72,6.109L199.024,100.306"/>
	<path fill="#986A00" d="M192.098,94.332c0.665,0.905,1.706,2.64,3.123,5.205l-4.164-0.588L192.098,94.332"/>
	<path fill="#986A00" d="M243.74,96.957l8.191,8.147l0.453-0.634l2.354-3.123l4.436-5.567c1.268,7.151,1.901,12.824,1.901,17.018
		l-0.137,3.666l-0.679,4.3l-1.766,4.616l-2.624,7.196l-2.036-1.403c-2.746-9.595-4.226-14.378-4.437-14.348
		c-0.211,0-1.554,2.761-4.027,8.283c-6.518-4.707-11.542-8.207-15.072-10.5c-5.703-3.681-11.029-6.668-15.978-8.961l5.16-7.875
		l3.123,5.612c1.75,3.017,2.806,4.511,3.168,4.48c0.362-0.03,1.463-1.448,3.303-4.254l3.35-5.341l3.847,7.061l3.123,5.974
		L243.74,96.957"/>
	<path fill="#C28600" d="M254.919,134.749l-1.085-3.576l2.036,1.403L254.919,134.749"/>
	<path fill="#0D131A" d="M328.829,51.968l1.357,1.811L229.846,69.076l-97.265-24.214l7.604-8.418
		c5.371-5.28,9.263-7.739,11.677-7.377c0.724,0.121,2.067,0.604,4.028,1.448l5.159,2.172l-3.123-3.439
		c-1.056-1.237-1.267-1.992-0.634-2.263c3.168-1.509,7.62-3.002,13.353-4.481c9.384-2.475,17.5-3.274,24.35-2.399
		c9.021,1.177,21,10.304,35.936,27.383c3.924-6.639,6.76-11.21,8.51-13.714c4.768-6.759,8.901-10.787,12.401-12.084
		c4.194-1.569,10.032-2.323,17.516-2.263c6.759,0.061,10.364,0.453,10.817,1.177c0.241,0.422-0.347,1.855-1.766,4.299l-3.032,5.25
		c8.057-4.556,12.99-6.789,14.801-6.699c5.551,0.422,13.548,5.175,23.987,14.257C321.437,44.017,326.325,48.77,328.829,51.968"/>
	<path fill="#E85382" d="M308.055,36.443c8.268,6.427,14,11.557,17.198,15.388L229.981,66.36l-93.372-22.585
		c1.901-2.444,3.893-4.602,5.974-6.472c3.108-2.836,5.944-4.602,8.509-5.295c2.354,0.664,6.804,2.278,13.352,4.843l4.436,1.765
		l-8.147-10.727c4.707-1.629,9.384-2.912,14.031-3.847c7.695-1.599,14.318-2.037,19.87-1.312c6.034,0.784,13.653,5.401,22.855,13.85
		c4.617,4.225,8.66,8.418,12.13,12.583l1.267,1.494l0.95-1.675l7.242-11.27c5.492-7.664,10.063-12.175,13.714-13.533
		c3.621-1.388,8.071-2.188,13.353-2.399c4.465-0.181,8.146,0.045,11.043,0.679c-1.6,1.931-3.062,4.225-4.391,6.88l-1.584,3.575
		l-1.177,3.439l3.123-1.81l7.016-4.299c4.827-2.837,7.785-4.315,8.871-4.436C292.214,25.505,298.55,29.051,308.055,36.443"/>
	<path fill="#C94772" d="M316.565,43.459c4.224,3.711,7.12,6.502,8.688,8.373L229.981,66.36l-87.442-21.137
		c13.669-0.271,24.335-0.151,31.999,0.363c11.798,0.724,22.479,2.458,32.045,5.205c-2.716-7.604-6.382-14.031-10.998-19.281
		c-4.013-4.587-8.011-7.528-11.995-8.826c4.043-0.392,7.725-0.377,11.044,0.045c6.034,0.784,13.653,5.401,22.855,13.85
		c4.617,4.225,8.66,8.418,12.13,12.583l1.267,1.494l0.045-0.091c1.631,2.263,3.274,3.667,4.934,4.209
		c4.737,1.328,9.46,1.177,14.167-0.453c2.927-0.996,7.407-3.334,13.442-7.016c6.669-4.043,12.16-6.97,16.475-8.78
		c7.271-3.047,15.012-4.963,23.219-5.748C307.452,35.825,311.917,39.385,316.565,43.459"/>
	<path fill="#0D131A" d="M247.135,34.633c1.539,0.845,2.896,1.961,4.073,3.349c0.815,0.905,1.464,1.825,1.946,2.761
		c0.513,1.026,0.68,1.78,0.498,2.263c-0.242,0.604-1.629,1.312-4.164,2.127c-2.866,0.875-5.688,1.297-8.464,1.267
		c-3.289-0.061-5.943-0.77-7.966-2.127l-0.407-0.271l0.271-0.407c2.052-3.319,4.3-6.563,6.743-9.731l0.137-0.136l0.136-0.046
		C242.382,33.079,244.781,33.396,247.135,34.633"/>
	<path fill="#FCEEF4" d="M249.669,37.756c0.936,0.935,1.705,1.916,2.309,2.941c0.482,0.875,0.725,1.494,0.725,1.856v0.045
		c-0.151,0.242-0.755,0.573-1.812,0.996l-4.163,1.176l-5.703,0.589c-2.836-0.061-5.16-0.619-6.971-1.675
		c2.234-3.47,4.33-6.487,6.291-9.052c1.902-0.453,3.788-0.257,5.659,0.588C247.331,35.795,248.553,36.64,249.669,37.756"/>
	<path fill="#0D131A" d="M284.927,35.719c0.514-0.302,1.614-0.045,3.304,0.769c3.289,1.569,6.624,3.938,10.003,7.106
		c4.314,4.134,7,8.283,8.057,12.446l0.135,0.498l-17.152,2.625l-0.182-0.045c-3.59-1.72-6.366-3.953-8.327-6.699
		c-1.479-1.931-1.826-4.556-1.042-7.875c0.514-1.961,1.344-3.877,2.489-5.748C283.268,37.107,284.172,36.082,284.927,35.719"/>
	<path fill="#D9CED4" d="M285.334,36.625c0.362-0.181,1.419,0.181,3.168,1.086c3.319,1.72,6.503,4.074,9.551,7.061
		c3.681,3.651,6.05,7.302,7.105,10.953l-15.751,2.444c-3.409-1.69-6.034-3.802-7.875-6.337c-0.814-1.086-1.222-2.458-1.222-4.118
		c0-0.905,0.136-1.871,0.407-2.897c0.482-1.901,1.267-3.741,2.354-5.521C284.007,37.756,284.761,36.866,285.334,36.625"/>
	<path fill="#0D131A" d="M279.632,28.93l-0.136,1.041c-0.333,1.931-1.012,3.787-2.037,5.567c-1.207,2.082-2.609,3.5-4.209,4.254
		l-7.016,0.181c-2.383-0.573-4.285-1.373-5.703-2.399c-0.754-0.573-1.116-1.116-1.086-1.629c0.181-1.358,0.482-2.701,0.905-4.028
		c0.784-2.655,1.72-4.013,2.806-4.074l2.626-0.226l8.961-0.543h0.86l-0.452,0.77c-1.057,1.72-1.933,3.44-2.626,5.16L279.632,28.93"
		/>
	<path fill="#FCEEF4" d="M263.201,28.839l2.671-0.226l7.559-0.498c-0.573,1.056-1.101,2.157-1.584,3.304l-0.634,1.494l-1.177,3.439
		l7.966-4.842c-0.453,1.539-1.116,2.912-1.991,4.119c-0.936,1.357-2.007,2.308-3.214,2.851c-1.479,0.694-3.439,0.83-5.884,0.408
		c-2.232-0.362-4.059-1.011-5.476-1.946l-0.996-0.906c0.15-1.387,0.497-2.881,1.041-4.48
		C262.116,29.775,262.69,28.87,263.201,28.839"/>
	<path fill="#0D131A" d="M208.302,27.753l0.588,0.407l-0.543,0.453c-2.353,1.78-5.703,3.877-10.047,6.291
		c-5.16,2.897-8.252,4.134-9.278,3.711c-1.057-0.422-1.962-1.705-2.716-3.847c-0.845-2.414-0.755-4.45,0.272-6.11
		c0.875-1.388,2.142-2.686,3.802-3.893c1.931-1.388,3.998-2.308,6.201-2.761l0.09-0.045l0.135,0.045
		C200.185,22.941,204.016,24.857,208.302,27.753"/>
	<path fill="#FCEEF4" d="M189.564,36.986c-0.664-0.241-1.268-1.131-1.81-2.67c-0.333-1.117-0.498-2.097-0.498-2.942
		c0-0.845,0.166-1.569,0.498-2.173c0.754-1.237,1.916-2.398,3.485-3.485c1.72-1.207,3.53-2.021,5.431-2.444
		c2.988,0.815,6.366,2.475,10.138,4.979c-2.383,1.72-5.658,3.651-9.821,5.793C192.672,36.277,190.197,37.258,189.564,36.986"/>
	<path fill="#D9CED4" d="M201.015,31.872c-3.38-2.323-6.759-4.285-10.138-5.884c1.87-1.388,3.802-2.293,5.793-2.716
		c2.988,0.815,6.366,2.475,10.138,4.979C205.239,29.398,203.308,30.605,201.015,31.872"/>
	<path fill="#0D131A" d="M169.333,28.206c3.65-0.241,5.959,0.061,6.925,0.905c0.784,0.694,1.041,1.991,0.769,3.892
		c-0.272,1.841-0.966,3.697-2.082,5.567c-2.806,4.767-6.111,6.517-9.913,5.25c-3.56-0.905-6.201-4.42-7.92-10.545l0.317-1.041
		l6.064,2.308l-2.896-3.802l0.407-0.317C162.725,29.156,165.5,28.417,169.333,28.206"/>
	<path fill="#FCEEF4" d="M170.373,29.202c2.896-0.061,4.647,0.166,5.25,0.679c0.302,0.332,0.21,1.418-0.271,3.259
		c-0.543,2.082-1.373,3.967-2.49,5.657c-2.172,3.289-4.646,4.466-7.423,3.53h-0.045c-2.685-0.664-4.722-3.153-6.11-7.468
		l9.595,3.756l-6.064-8.011C164.686,29.76,167.205,29.292,170.373,29.202"/>
	<path fill="#0D131A" d="M223.056,60.567l0.725,0.363v18.149l-1.584-0.317c-14.846-1.328-32.09-0.966-51.733,1.086
		c-39.165,4.134-71.586,14.544-97.264,31.23l-4.3,2.806c-0.875,0.362-1.177-0.393-0.905-2.263
		c1.117-7.422,3.305-16.098,6.563-26.024c2.896-8.811,4.782-13.593,5.657-14.348c0.513-0.422,2.475-1.448,5.884-3.078l10.455-5.069
		L85.6,65.908c-3.922,0.996-5.792,1.267-5.612,0.814c0.423-1.025,2.444-4.058,6.065-9.097c4.013-5.582,6.653-8.689,7.92-9.323
		c18.708-9.656,43.193-11.647,73.458-5.975c11.073,2.082,22.192,5.069,33.356,8.962C209.69,54.397,217.112,57.49,223.056,60.567"/>
	<path fill="#E85382" d="M221.11,62.559v13.307c-16.022-2.655-34.021-2.927-53.995-0.814c-35.545,3.802-67.544,15.132-95.998,33.99
		c0.996-5.009,3.003-12.039,6.02-21.091c1.901-5.793,3.636-10.711,5.205-14.755l10.229-5.567l12.627-7.105l3.53-2.309
		c0.211-0.271-0.574-0.271-2.353,0l-9.958,2.082L85.692,62.74c3.892-5.854,7.166-9.927,9.821-12.22
		c24.531-7.906,50.073-9.429,76.626-4.571C189.428,49.146,205.752,54.684,221.11,62.559"/>
	<path fill="#C94772" d="M195.312,51.922c9.112,2.957,17.711,6.502,25.798,10.636v13.307c-11.165-1.811-23.882-2.459-38.155-1.946
		c-2.112-6.367-5.552-12.206-10.319-17.516c-4.556-5.099-9.911-9.278-16.067-12.537C169.543,45.043,182.458,47.729,195.312,51.922"
		/>
	<path fill="#0D131A" d="M157.927,42.327l0.227,0.045l0.135,0.136l5.749,7.287c1.387,1.961,2.021,3.274,1.9,3.938l-0.316,0.588
		c-20.669,6.97-31.894,10.123-33.674,9.459c-1.417-0.483-4.586-2.535-9.504-6.156c-5.522-4.013-8.117-6.653-7.785-7.92
		c0.181-0.633,1.041-1.328,2.58-2.082l4.843-2.082c3.41-1.358,5.838-2.534,7.287-3.53l0.09-0.091h0.136
		C138.918,41.226,148.362,41.361,157.927,42.327"/>
	<path fill="#FCEEF4" d="M157.293,43.912c4.557,5.521,6.834,8.705,6.834,9.55c-1.116,0.634-6.366,2.263-15.75,4.888
		c-9.565,2.715-14.77,3.952-15.615,3.711c-1.509-0.574-4.465-2.49-8.871-5.749c-4.557-3.379-6.834-5.477-6.834-6.291v-0.045
		c0.09-0.423,0.754-0.951,1.991-1.584l3.893-1.72c2.775-1.176,4.812-2.142,6.109-2.896
		C138.193,42.991,147.607,43.036,157.293,43.912"/>
	<path fill="#0D131A" d="M118.822,69.257c3.048,0.694,5.387,1.297,7.016,1.81c1.509,0.453,2.519,1.479,3.032,3.078
		c0.211,0.664,0.317,1.448,0.317,2.354c0,1.327-0.241,2.7-0.725,4.118c-0.452,1.358-1.056,2.505-1.811,3.44l-0.09,0.136
		l-0.181,0.045c-6.819,2.052-13.412,4.39-19.779,7.015l-0.905,0.498l-6.336-7.106c-4.164-4.858-6.109-7.543-5.838-8.056
		c0.542-0.935,3.153-2.64,7.83-5.114c4.948-2.625,8.267-3.848,9.957-3.667L118.822,69.257"/>
	<path fill="#FCEEF4" d="M125.611,83.469c-6.668,2.052-12.929,4.27-18.783,6.653l-4.752-5.295c-4.133-4.436-6.201-7-6.201-7.694
		v-0.045c0.422-0.754,2.701-2.233,6.834-4.436c4.345-2.323,7.227-3.41,8.645-3.258l7.15,1.357c2.928,0.694,5.175,1.283,6.744,1.766
		c1.147,0.362,1.901,1.146,2.263,2.353c0.211,0.604,0.316,1.268,0.316,1.992c0,1.146-0.211,2.338-0.633,3.576
		C126.773,81.613,126.244,82.624,125.611,83.469"/>
	<path fill="#0D131A" d="M366.214,73.874c1.389,7.815,1.766,12.447,1.132,13.895c-0.271,0.634-1.9,0.166-4.889-1.403l-8.191-4.3
		l9.821,9.641c3.862,3.802,5.944,6.141,6.246,7.016c0.362,1.025-0.046,3.742-1.223,8.147c-1.116,4.314-1.976,6.713-2.579,7.196
		c-0.784,0.664-3.938-0.83-9.46-4.481l4.979,6.653c1.689,2.263,2.549,3.576,2.579,3.938c0,0.574-2.398,2.324-7.196,5.25
		c-10.862-11.104-24.169-21.333-39.919-30.687c-31.41-18.647-59.985-24.229-85.724-16.746l-1.131,0.317l-0.453-1.086
		c-0.995-2.293-1.448-5.311-1.357-9.052l0.497-5.16l0.092-0.453l0.361-0.317c4.194-3.741,10.38-7.543,18.557-11.406
		c10.108-4.768,20.594-8.207,31.456-10.319c30.022-5.883,56.53-0.679,79.522,15.615C362.323,59.028,364.615,64.942,366.214,73.874"
		/>
	<path fill="#E85382" d="M350.736,105.33l10.41,14.529l-2.762,2.761c-12.884-12.673-27.563-23.581-44.037-32.724
		c-29.842-16.625-57.18-21.559-82.012-14.8c-0.544-1.841-0.815-3.787-0.815-5.838c0-1.932,0.121-3.696,0.362-5.295
		c4.255-3.651,10.471-7.317,18.647-10.998c9.987-4.526,20.307-7.74,30.958-9.641c29.268-5.25,54.584,0.226,75.946,16.429
		c1.931,2.444,3.562,6.472,4.889,12.084c0.845,3.561,1.509,7.453,1.991,11.677l-15.117-6.562c-2.504-1.056-3.802-1.373-3.893-0.951
		c-0.061,0.332,0.739,1.373,2.399,3.123l19.643,20.367l-3.032,11.677c-0.966-0.634-2.716-1.584-5.251-2.851l-5.747-2.896
		c-1.932-1.207-3.093-1.901-3.485-2.083C349.257,103.067,349.559,103.73,350.736,105.33"/>
	<path fill="#C94772" d="M302.035,41.467c-6.186,3.591-11.602,8.313-16.248,14.167c-4.587,5.793-7.966,12.13-10.139,19.009
		c-15.328-3.379-29.767-3.229-43.313,0.453c-0.544-1.841-0.815-3.787-0.815-5.838c0-1.932,0.121-3.696,0.362-5.295
		c5.884-5.069,14.649-9.792,26.296-14.167C272.964,44.213,287.582,41.437,302.035,41.467"/>
	<path fill="#C94772" d="M349.197,76.952c-2.504-1.056-3.802-1.373-3.893-0.951c-0.061,0.332,0.739,1.373,2.399,3.123l4.797,4.979
		c-9.293-7.061-18.436-13.276-27.427-18.647c12.521-1.025,24.712,0.227,36.57,3.757c1.146,4.134,2.036,8.901,2.67,14.302
		L349.197,76.952"/>
	<path fill="#0D131A" d="M335.981,46.265l0.271,0.09l0.046,0.271c0.422,1.66,0.195,4.285-0.679,7.875l-1.539,5.115
		c-0.363,1.026-3.123,2.158-8.283,3.395c-5.793,1.388-10.5,1.433-14.121,0.136c-1.357-0.483-3.44-2.067-6.246-4.752
		c-2.836-2.715-4.375-4.616-4.617-5.703c-0.09-0.453-0.135-0.905-0.135-1.358c0-3.289,2.534-6.879,7.604-10.772l0.136-0.09h0.226
		C318.239,41.105,327.351,43.036,335.981,46.265"/>
	<path fill="#FCEEF4" d="M325.253,61.427c-5.279,1.116-9.594,1.086-12.943-0.091c-1.268-0.453-3.214-1.855-5.839-4.209
		c-2.595-2.324-3.982-3.877-4.164-4.662l-0.09-1.086c0-2.866,2.263-6.049,6.789-9.549c9.082,0.634,17.696,2.444,25.843,5.431
		l0.137,1.403c0,1.418-0.271,3.244-0.815,5.477l-1.493,4.888C331.831,59.752,329.358,60.552,325.253,61.427"/>
	<path fill="#0D131A" d="M338.334,85.144c3.289-0.362,5.355-0.211,6.2,0.453c0.966,0.785,2.083,3.229,3.35,7.332
		c1.328,4.375,1.991,8.162,1.991,11.36v0.633l-0.634-0.135c-3.741-0.724-7.679,0.03-11.812,2.263l-0.271,0.136l-7.514-5.432
		l0.046-0.317c0.241-1.086,0.195-3.017-0.136-5.793c-0.242-1.9-0.348-3.259-0.317-4.073c0.061-1.358,0.423-2.398,1.087-3.123
		C331.922,86.667,334.592,85.566,338.334,85.144"/>
	<path fill="#FCEEF4" d="M331.183,99.4l-0.362-3.847l-0.271-3.35c0-1.297,0.257-2.248,0.77-2.852
		c1.388-1.539,3.712-2.429,6.971-2.67c2.746-0.211,4.465-0.061,5.16,0.452c0.813,0.634,1.81,2.686,2.986,6.155
		c1.297,3.833,1.991,7.242,2.082,10.229c-3.591-0.574-7.317,0.166-11.18,2.218l-6.336-4.572L331.183,99.4"/>
	<path fill="#0D131A" d="M288.548,54.502c0.845,0.725,2.172,2.414,3.982,5.069c2.112,3.047,3.063,5.069,2.852,6.065
		c-0.241,1.236-2.323,2.232-6.246,2.987c-3.771,0.754-7.648,0.996-11.632,0.724h-0.227l-5.521-5.884
		c-3.651-4.043-5.401-6.412-5.251-7.106c0.061-0.422,0.302-0.709,0.724-0.86l10.501-1.086
		C284.309,53.959,287.914,53.989,288.548,54.502"/>
	<path fill="#FCEEF4" d="M291.4,60.25c1.84,2.746,2.7,4.451,2.58,5.114c-0.121,0.664-1.78,1.297-4.979,1.901l-11.135,0.679
		l-2.807-2.761l-4.615-4.662c-1.721-1.871-2.581-3.108-2.581-3.711l0.046-0.09L268,56.584l9.911-0.996
		c5.944-0.362,9.219-0.392,9.822-0.09C288.488,56.162,289.709,57.746,291.4,60.25"/>
	<path fill="#D9CED4" d="M286.783,55.362l-4.21,6.291c-1.871,2.655-3.229,4.752-4.073,6.291h-0.634l-2.807-2.761l-4.615-4.662
		c-1.721-1.871-2.581-3.108-2.581-3.711l0.046-0.09L268,56.584l8.373-0.905L286.783,55.362"/>
	<path fill="#0D131A" d="M267.456,37.213l-0.95,4.028c-3.168,11.617-6.155,21.891-8.962,30.822
		c-0.995,3.198-5.099,5.627-12.311,7.287c-4.979,1.116-11.843,1.916-20.593,2.399l-21.725-0.679
		c-7.785-1.146-12.387-3.364-13.805-6.653c-2.594-5.944-4.948-12.839-7.061-20.684c-2.081-7.875-2.594-11.708-1.539-11.496
		l8.373,1.086l8.6,1.176c0.422-2.504,0.996-5.446,1.72-8.826c0.995-4.828,1.705-7.619,2.127-8.373
		c0.422-0.724,2.565,0.89,6.427,4.843l7.061,7.467c0.815-1.086,2.746-3.409,5.793-6.97l5.25-5.929
		c0.332-0.242,1.358,1.162,3.077,4.209l3.485,6.291l5.839-6.155c3.017-3.138,4.646-4.677,4.888-4.617
		c0.271,0.061,0.967,1.826,2.082,5.295l2.399,7.332l4.843-5.884c2.323-2.746,3.711-4.043,4.164-3.893
		c0.452,0.181,1.056,1.72,1.81,4.617l1.449,5.884l3.168-1.312c1.539-0.604,2.625-1.086,3.258-1.448
		C267.079,36.609,267.456,36.669,267.456,37.213"/>
	<path fill="#D7A400" d="M262.251,41.694l-8.191,27.88c-0.754,2.323-3.907,4.39-9.46,6.2c-5.552,1.781-12.25,2.882-20.095,3.304
		c-8.086,0.453-15.086,0.045-21-1.222c-5.914-1.237-9.399-3.048-10.456-5.432c-3.198-7.242-6.457-16.671-9.776-28.288l16.339,3.53
		l1.222-7.559c0.845-5.159,1.374-8.011,1.584-8.554c0.211-0.573,1.721,0.589,4.527,3.485l5.792,6.382l1.766,2.218l1.539-1.222
		c1.207-1.297,4.285-5.265,9.232-11.903c0.242-0.362,1.434,1.222,3.576,4.752l3.123,5.386l10.093-9.324
		c0.212-0.211,1.025,1.856,2.444,6.201l2.081,6.608l4.12-4.707c2.806-3.168,4.39-4.813,4.752-4.933
		c0.361-0.121,0.936,1.327,1.72,4.344l1.041,4.572L262.251,41.694"/>
	<path fill="#0D131A" d="M263.248,40.879l1.765-1.674l-0.68,2.354l-8.373,28.604c-0.966,3.048-4.677,5.582-11.134,7.604
		c-5.702,1.78-12.432,2.881-20.186,3.304c-7.996,0.452-15.027,0.06-21.091-1.177c-6.879-1.388-10.998-3.606-12.355-6.653
		c-3.048-6.97-6.337-16.52-9.867-28.65l1.946-1.177c1.66,1.84,4.043,4.104,7.151,6.789l5.884,4.752l5.069-6.065
		c3.078-3.711,4.767-5.612,5.069-5.703c0.302-0.06,2.671,2.309,7.106,7.106l7.423,8.192l3.258-8.147
		c1.931-4.677,3.138-7.061,3.621-7.151c0.482-0.06,1.569,1.569,3.258,4.888l3.53,6.925l5.069-6.79
		c2.987-3.893,4.723-5.763,5.205-5.612c0.483,0.151,1.479,2.082,2.987,5.793l2.715,6.562
		C256.413,48.105,260.622,43.414,263.248,40.879"/>
	<path fill="#F9BE00" d="M251.028,56.539c1.75-1.509,5.673-5.431,11.768-11.768l-3.757,11.813L254.693,69.8
		c-0.905,2.836-4.028,5.642-9.368,8.418c-6.064,3.168-12.839,4.949-20.322,5.341c-7.784,0.422-15.026-0.634-21.725-3.168
		c-6.004-2.293-9.625-4.858-10.863-7.694c-2.836-6.488-5.853-15.147-9.051-25.979c3.168,2.957,7.135,6.23,11.903,9.821
		c0.664,0.573,1.206,0.815,1.629,0.724c0.362-0.06,0.799-0.498,1.312-1.312c0.422-0.664,1.886-2.369,4.39-5.115l4.3-4.571
		l7.105,7.604c4.436,4.617,6.895,6.91,7.378,6.879c0.482-0.03,1.614-2.142,3.395-6.336l3.213-7.694l3.214,5.883
		c1.72,3.078,2.806,4.632,3.259,4.662c0.422,0.03,2.036-1.675,4.843-5.115l4.843-6.11l2.535,4.797l2.353,4.934
		c0.332,0.875,0.573,1.343,0.725,1.403C249.971,57.293,250.394,57.082,251.028,56.539"/>
	<path fill="#0D131A" d="M315.976,133.074c14.423,4.134,23.565,7.045,27.427,8.735c2.264,0.965,3.199,1.644,2.807,2.037
		l-3.259,1.041l-14.121,4.299l14.031-2.308l8.327-1.041c1.087,0.12,4.059,2.172,8.917,6.155c4.737,3.862,7.075,6.004,7.015,6.427
		c-0.03,0.302-2.202,1.192-6.518,2.67l-10.771,3.711l13.533,0.181l9.278,0.453c0.573,0.271,1.9,2.082,3.982,5.431
		c2.052,3.319,3.032,5.205,2.942,5.658c-0.091,0.332-1.69,0.754-4.798,1.267l-9.278,1.493l10.184,0.046l5.477,0.181
		c0.543,0.181,2.248,1.946,5.114,5.295c2.927,3.379,4.3,5.326,4.118,5.839c-0.12,0.422-1.447,0.754-3.982,0.995l-7.241,0.77
		l8.645,0.679l4.707,0.634c0.423,0.332,0.92,3.258,1.493,8.78c7.394,13.216,10.953,20.081,10.682,20.594
		c-0.15,0.301-3.229-0.74-9.232-3.124l-11.813-4.752l8.057,14.619c4.284,7.845,6.291,11.873,6.02,12.085l-7.559-0.544
		c-4.798-0.693-7.468-1.342-8.012-1.945c-0.452-0.483-1.523-3.108-3.213-7.876l-3.847-10.817l1.312,9.777
		c0.452,3.59,0.558,5.551,0.316,5.883c-0.271,0.423-3.198-0.181-8.78-1.811c-5.522-1.599-8.464-2.67-8.826-3.213l-1.991-5.114
		l-3.214-8.962l1.132,8.146c0.423,2.837,0.482,4.346,0.181,4.526c-0.482,0.331-6.774-2.73-18.873-9.188l-0.091-0.452l-4.48-17.606
		l0.407,11.587c0.15,4.376,0.016,6.639-0.407,6.789c-0.482,0.121-2.264-0.739-5.341-2.58l-4.843-2.987l-6.021,0.046
		c-3.861-0.121-6.05-0.528-6.562-1.222c-0.453-0.665-1.207-3.894-2.264-9.686l-2.852-15.389l0.045,14.71
		c0,5.371-0.21,8.086-0.634,8.146c-0.24,0.031-3.635-1.071-10.183-3.304l-18.919-6.382l-0.091-1.177l-7.559-2.851l-6.789-2.354
		c-1.086-0.242-1.734-0.709-1.946-1.403c-0.271-0.845-0.302-2.761-0.09-5.749c0.182-2.564,0.227-5.25,0.136-8.056l-0.317-7.785
		l-3.892,11.677c-1.539,4.375-2.625,6.548-3.259,6.518c-1.026-0.03-7.845-3.425-20.458-10.184l3.848-18.828
		c-5.733,5.311-10.667,9.505-14.801,12.583c-6.064,4.435-9.911,6.08-11.542,4.933c-6.366-4.224-10.53-8.524-12.491-12.899
		c-1.479-3.319-1.63-6.563-0.453-9.731c2.414-6.487,9.369-11.813,20.865-15.977c10.591-3.832,20.352-5.25,29.283-4.254l4.164-2.489
		c2.745-1.599,5.477-2.987,8.192-4.164c8.599-3.742,16.836-5.371,24.712-4.888C287.96,125.772,299.38,128.337,315.976,133.074"/>
	<path fill="#00A63C" d="M350.646,147.965l12.445,9.821c-9.384,3.289-15.645,5.598-18.783,6.925
		c-2.353,0.996-3.515,1.554-3.484,1.675l3.802,0.271c3.38,0.03,12.342,0.287,26.885,0.77l4.797,7.694l-10.048,1.765
		c-5.732,0.996-9.217,1.75-10.454,2.263l-2.941,1.313c-0.242,0.302,0.799,0.528,3.123,0.679c3.439,0.242,11.51,0.362,24.214,0.362
		l6.426,7.694l-15.523,2.489c-2.112,0.453-3.229,0.814-3.35,1.086c-0.15,0.302,0.996,0.603,3.439,0.905l19.599,1.855l1.312,7.649
		l-7.875-1.132c-5.221-0.664-7.665-0.679-7.333-0.045c0.302,0.604,3.078,1.283,8.328,2.037l7.92,1.086l7.378,14.302l-21.092-7.875
		l14.665,27.789l-10.455-1.674c-4.225-11.466-6.985-18.618-8.283-21.453c-0.905-2.022-1.674-2.958-2.308-2.808
		c-0.212,0.062-0.091,2.958,0.361,8.69l1.042,11.588l-13.806-3.938c-3.892-10.832-6.426-17.697-7.604-20.594
		c-0.965-2.353-1.584-3.56-1.855-3.62c-0.361-0.091-0.392,1.267-0.09,4.073l1.766,17.018l-14.801-7.241
		c-4.888-19.703-7.362-27.805-7.423-24.305l-0.453,11.134l-0.452,11.405l-8.283-4.797c-0.604-11.708-1.312-17.652-2.127-17.833
		c-0.482-0.09-0.634,2.836-0.452,8.781l0.182,8.961l-8.374-0.316l-2.398-13.488c-1.659-8.992-3.048-15.192-4.164-18.602
		c-1.237-3.772-2.067-5.401-2.489-4.888c-0.271,0.362-0.468,2.308-0.589,5.838c-0.09,2.384-0.045,7.483,0.137,15.298l0.226,12.674
		l-26.115-10.094l-0.498-10.636c-0.301-7.302-0.648-11.39-1.04-12.266c-0.393-0.875-0.529,2.55-0.407,10.274l0.045,11.903
		l-13.353-5.16c-0.512-12.583-0.754-21.544-0.724-26.885v-0.271h-0.045c-0.151-1.237-0.347-2.052-0.589-2.444
		c-0.392-0.694-0.845,0.135-1.357,2.489v0.181c0,1.116-0.905,4.133-2.716,9.052c-1.448,3.923-3.198,8.313-5.25,13.171l-17.154-8.6
		l4.798-23.49l-13.578,11.315c-9.173,7.422-14.121,10.877-14.845,10.364c-10.531-6.97-14.589-13.729-12.175-20.276
		c1.961-5.341,10.667-10.093,26.116-14.257c7.693-2.083,15.207-3.636,22.539-4.662l13.216-6.11
		c9.927-3.983,17.712-5.809,23.354-5.477c6.216,0.392,15.796,2.459,28.74,6.201c11.979,3.47,21.785,6.849,29.419,10.138
		c-11.798,3.41-19.416,5.839-22.856,7.287c-2.354,0.965-3.425,1.614-3.213,1.946c0.181,0.302,1.402,0.302,3.665,0L350.646,147.965"
		/>
	<path fill="#009233" d="M339.782,143.71c-11.798,3.41-19.416,5.839-22.856,7.287c-2.354,0.965-3.425,1.614-3.213,1.946
		c0.181,0.302,1.402,0.302,3.665,0l33.268-4.979l5.068,3.983c-8.448,0.573-14.801,1.237-19.055,1.992
		c-7.513,1.297-13.352,4.134-17.516,8.509c-32.497-12.703-59.652-5.944-81.469,20.276l-5.477-2.761l4.798-23.49l-13.578,11.315
		c-9.173,7.422-14.121,10.877-14.845,10.364c-10.531-6.97-14.589-13.729-12.175-20.276c1.961-5.341,10.667-10.093,26.116-14.257
		c7.693-2.083,15.207-3.636,22.539-4.662l13.216-6.11c9.927-3.983,17.712-5.809,23.354-5.477c6.216,0.392,15.796,2.459,28.74,6.201
		C322.342,137.042,332.149,140.421,339.782,143.71"/>
	<path fill="#0D131A" d="M362.051,195.397c2.534,3.048,3.454,4.662,2.761,4.843c-0.634,0.181-2.037-0.754-4.21-2.806
		c-26.251-24.893-54.945-41.292-86.084-49.198c-9.807-2.474-19.267-3.953-28.379-4.436l-10.998,0.045l-0.316-1.267l2.172-2.354
		c2.082-1.629,4.662-2.52,7.74-2.67l4.797-0.363l-0.181-0.045c20.367,0.543,39.89,5.432,58.566,14.665
		C328.166,161.799,346.209,176.328,362.051,195.397"/>
	<path fill="#00A63C" d="M235.005,140.768c2.233-1.418,5.914-2.052,11.044-1.901c20.548,0.665,39.949,5.205,58.204,13.624
		c17.924,8.268,33.749,19.779,47.479,34.534c-20.247-18.315-43.496-31.245-69.747-38.788c-9.143-2.625-18.104-4.42-26.884-5.386
		l-15.298-0.588l-4.979-0.181C234.1,141.779,234.16,141.342,235.005,140.768"/>
	<path fill="#009233" d="M318.555,160.049l-1.99,0.272c-0.785,0.091-1.329,0.453-1.631,1.086
		c-15.297-7.936-31.259-13.503-47.884-16.701c-11.437-2.203-20.519-3.018-27.247-2.444l-4.979-0.181
		c-0.725-0.302-0.664-0.739,0.181-1.313c2.233-1.418,5.914-2.052,11.044-1.901c13.096,0.423,25.812,2.459,38.154,6.11
		C296.303,148.538,307.754,153.562,318.555,160.049"/>
	<path fill="#0D131A" d="M28.709,283.52c3.379-4.496,6.713-7.83,10.003-10.003c4.948-3.318,12.567-3.017,22.856,0.906
		c12.189,4.646,24.848,12.627,37.973,23.942c13.125,11.284,20.669,20.684,22.63,28.196l2.037,2.535l2.67,10.953
		c0.573,2.926,0.619,5.204,0.136,6.834c-0.483,1.721-1.705,3.244-3.667,4.572c-1.72,1.177-4.646,2.624-8.78,4.345
		c-3.5,1.447-9.204,2.368-17.109,2.76c-7.755,0.362-15.917,0.151-24.485-0.633c-20.941-1.962-33.402-5.93-37.385-11.904
		c-0.725-1.116-1.087-2.263-1.087-3.439c0.634-1.84,1.087-3.575,1.357-5.204c0.543-3.139-0.075-6.156-1.854-9.054
		c-4.165-6.185-7.016-10.65-8.555-13.396c-2.564-4.587-3.847-9.112-3.847-13.579C21.603,295.679,23.972,289.735,28.709,283.52"/>
	<path fill="#5DC1CF" d="M40.204,275.735c4.195-2.807,10.998-2.415,20.413,1.176c11.677,4.466,23.973,12.205,36.887,23.219
		c12.884,11.014,20.247,20.05,22.087,27.11l0.497,2.083c2.354,9.021,3.229,14.543,2.626,16.565c-0.423,1.357-1.434,2.595-3.033,3.71
		c-1.086,0.755-3.38,2.008-6.88,3.758c-2.655,1.327-7.755,2.128-15.298,2.398l-23.625-0.77
		c-20.699-1.932-32.724-5.416-36.072-10.455c-1.358-1.961-0.514-4.254,2.534-6.88c0.875-0.754,0.936-2.006,0.181-3.756
		c-0.512-1.146-1.946-3.501-4.299-7.061c-4.466-6.698-7.709-12.327-9.73-16.883c-2.475-5.552-1.374-12.537,3.303-20.955
		c1.659-3.048,3.621-5.93,5.884-8.645C37.58,278.027,39.089,276.489,40.204,275.735"/>
	<path fill="#50A8B4" d="M46.994,273.97c3.711-0.03,8.252,0.95,13.624,2.941c11.677,4.466,23.973,12.205,36.887,23.219
		c12.884,11.014,20.247,20.05,22.087,27.11l0.497,2.083c2.354,9.021,3.229,14.543,2.626,16.565c-0.423,1.357-1.434,2.595-3.033,3.71
		c-1.086,0.755-3.38,2.008-6.88,3.758c-2.232,1.116-6.321,1.871-12.265,2.263c-5.643,0.362-12.054,0.347-19.235-0.045
		c-5.1-0.363-9.173-1.871-12.22-4.526c-4.406-3.862-3.033-8.826,4.119-14.892c7.09-6.003,6.336-16.157-2.264-30.46
		c-2.927-4.857-7.03-10.635-12.311-17.334L46.994,273.97"/>
	<path fill="#0D131A" d="M58.988,332.944c-0.302-0.544,0.181-0.634,1.449-0.272c2.957,0.845,8.162,1.856,15.615,3.032
		c9.656,1.509,16.716,2.053,21.181,1.63c1.75-0.15,2.339,0.029,1.766,0.543l-1.403,0.77c-4.134,1.086-11.029,0.86-20.684-0.68
		c-8.479-1.357-14.167-2.715-17.063-4.072L58.988,332.944"/>
	<path fill="#0D131A" d="M46.858,346.023c0.181,2.234-0.091,4.104-0.815,5.612l-7.196,2.083c-4.345,1.176-7.468,1.81-9.369,1.9
		c-2.353,0.091-3.802-0.165-4.345-0.769c-0.574-0.634-0.664-2.188-0.272-4.662c0.423-2.534,1.796-5.462,4.119-8.78
		c2.324-3.381,4.602-5.688,6.834-6.926c0.785-0.422,1.599-0.664,2.444-0.724l1.629,0.316
		C44.233,337.575,46.556,341.559,46.858,346.023"/>
	<path fill="#FFFFFF" d="M27.396,352.406c-0.936-0.906-0.166-3.531,2.309-7.876c2.444-4.376,4.677-7.105,6.698-8.191
		c0.905-0.453,1.629-0.529,2.173-0.227c2.203,1.931,3.847,4.586,4.934,7.966c0.935,2.956,1.116,4.857,0.543,5.702
		c-0.513,0.755-3.168,1.585-7.966,2.489C31.167,353.205,28.271,353.25,27.396,352.406"/>
	<path fill="#DBDCDC" d="M40.204,337.832c1.66,2.021,2.852,4.42,3.576,7.196c0.664,2.475,0.754,4.059,0.271,4.752
		c-0.332,0.482-1.947,1.086-4.843,1.811c-2.987,0.755-5.642,1.192-7.965,1.312c1.146-2.836,2.489-5.582,4.028-8.237
		C37.021,341.679,38.665,339.4,40.204,337.832"/>
	<path fill="#0D131A" d="M57.857,366.256c-2.565-1.569-3.168-4.979-1.811-10.229c1.267-4.827,3.349-8.78,6.246-11.858
		c2.083-2.202,3.862-3.484,5.341-3.847c1.509-0.362,2.972,0.15,4.39,1.539c4.104,4.013,6.819,7.965,8.147,11.858
		c0.694,1.931,0.965,3.47,0.815,4.616c-1.057,1.177-4.798,2.957-11.225,5.34C63.061,366.18,59.094,367.039,57.857,366.256"/>
	<path fill="#FFFFFF" d="M69.081,342.629c1.237,0.242,3.077,2.082,5.521,5.522c2.565,3.591,3.908,6.442,4.028,8.554
		c-1.025,0.967-4.208,2.521-9.549,4.662c-5.552,2.202-8.842,3.123-9.867,2.761c-0.574-0.211-0.8-1.418-0.679-3.621
		c0.12-2.263,0.573-4.662,1.357-7.196C62.005,346.491,65.068,342.932,69.081,342.629"/>
	<path fill="#DBDCDC" d="M69.262,342.675c1.327,0.452,3.168,2.354,5.522,5.703c2.444,3.5,3.727,6.276,3.847,8.327
		c-0.724,0.664-2.866,1.766-6.426,3.305c-3.651,1.599-6.759,2.775-9.324,3.529c0.181-4.073,0.679-7.618,1.494-10.636
		C65.4,349.252,67.029,345.844,69.262,342.675"/>
	<path fill="#0D131A" d="M100.808,343.942c0.694-0.634,1.479-1.057,2.353-1.268c0.725-0.181,1.404-0.181,2.037,0
		c1.931,0.574,4.466,2.188,7.604,4.843c3.259,2.715,5.039,4.858,5.341,6.427c0.302,1.54-0.634,4.209-2.806,8.011
		c-1.901,3.41-3.65,5.899-5.25,7.469c-0.815,0.813-1.63,1.252-2.444,1.312c-0.755,0.029-1.78-0.242-3.078-0.815
		c-3.832-1.689-6.97-4.209-9.414-7.558l-2.49-4.481c-0.211-1.207,0.649-3.439,2.58-6.699
		C97.142,347.984,98.998,345.571,100.808,343.942"/>
	<path fill="#FFFFFF" d="M101.804,346.023c1.117-1.025,2.006-1.447,2.671-1.267c1.75,0.513,3.937,1.991,6.562,4.435
		c2.655,2.415,4.104,4.271,4.344,5.567c0.211,1.116-0.829,3.44-3.123,6.971c-2.171,3.289-3.741,5.25-4.707,5.884
		c-0.482,0.12-1.659-0.362-3.53-1.448c-2.051-1.207-3.952-2.61-5.703-4.21c-1.901-1.719-2.941-3.062-3.123-4.027
		c-0.182-0.906,0.437-2.7,1.856-5.387C98.561,349.735,100.145,347.562,101.804,346.023"/>
	<path fill="#DBDCDC" d="M115.382,354.759c0.211,1.056-0.708,3.184-2.76,6.382c-1.84,2.897-3.395,4.948-4.662,6.155
		c-0.121-4.284-0.423-8.04-0.905-11.27c-0.574-4.043-1.464-7.8-2.671-11.27h0.091c1.75,0.513,3.937,1.991,6.562,4.435
		C113.692,351.606,115.141,353.462,115.382,354.759"/>
	<path fill="#0D131A" d="M45.32,307.914c0,0.243-0.393,0.755-1.177,1.54c-1.449,1.478-2.263,2.685-2.444,3.62
		c-0.392,1.901,1.011,3.591,4.21,5.069c0.936,0.422,1.206,0.769,0.814,1.041c-0.18,0.151-0.467,0.241-0.86,0.271
		c-3.711-0.15-5.808-1.464-6.291-3.938c-0.241-1.389,0.061-2.822,0.905-4.3c0.845-1.448,1.886-2.444,3.123-2.987
		C44.746,307.749,45.32,307.644,45.32,307.914"/>
	<path fill="#0D131A" d="M322.99,337.515c0.272-0.331,0.544-0.452,0.815-0.361c2.444,0.483,4.827,1.811,7.151,3.982
		c2.896,2.716,5.189,6.396,6.88,11.044c-2.535,1.811-5.221,3.439-8.057,4.889c-5.673,2.926-9.249,3.545-10.727,1.854
		c-0.876-0.995-0.604-4.662,0.813-10.998C321.196,342.012,322.237,338.541,322.99,337.515"/>
	<path fill="#DBDCDC" d="M320.546,357.928c-0.09-0.182,0.438-3.094,1.585-8.736c1.207-5.792,2.037-9.202,2.489-10.228l5.16,4.072
		c2.624,2.565,4.179,5.281,4.661,8.146c0.181,0.877-2.052,2.294-6.698,4.255C323.127,357.369,320.728,358.199,320.546,357.928"/>
	<path fill="#5DC1CF" d="M330.731,268.402c2.625,7.574,4.254,14.937,4.889,22.087c1.719,19.915-3.894,41.519-16.838,64.813
		c-0.331,0.603-0.8,2.851-1.403,6.744c-0.542,3.438-1.704,6.246-3.484,8.417c-5.703,6.91-19.749,10.818-42.137,11.724
		c-13.338,0.542-24.306-1.614-32.904-6.473c-8.057-4.557-12.281-10.364-12.674-17.426c-0.15-2.595-1.01-6.427-2.58-11.495
		c-2.232-7.272-3.575-11.858-4.028-13.76c-2.896-11.979-1.931-21.981,2.896-30.008c2.928-4.888,9.52-11.284,19.78-19.189
		c10.018-7.695,20.864-14.816,32.541-21.363c12.583-7.091,23.158-11.768,31.729-14.031c9.836-2.595,15.675-1.584,17.515,3.032
		L330.731,268.402"/>
	<path fill="#50A8B4" d="M324.031,251.475l6.699,16.928c2.625,7.574,4.254,14.937,4.889,22.087
		c1.719,19.915-3.894,41.519-16.838,64.813c-0.423,0.785-0.845,2.746-1.267,5.884c-0.423,3.078-1.207,5.566-2.354,7.467
		c-3.771,6.307-13.245,10.426-28.423,12.356l-4.934-0.136c-2.745,0.725-4.225,0.71-4.435-0.045
		c0.633-4.646,0.829-8.916,0.588-12.809c-0.271-4.134-1.057-8.102-2.354-11.903c19.975-2.233,32.134-14.483,36.479-36.752
		c3.319-17.077,1.962-37.656-4.074-61.734c-2.624-10.562-0.965-15.269,4.979-14.121c2.143,0.422,4.42,1.539,6.834,3.349
		C322.085,248.578,323.489,250.117,324.031,251.475"/>
	<path fill="#0D131A" d="M322.856,252.108c-1.419-3.017-1.721-4.646-0.905-4.888c0.754-0.211,1.841,0.996,3.258,3.621
		c7.997,14.905,11.858,31.274,11.587,49.107c-0.332,19.914-5.944,38.577-16.836,55.987c-0.665,1.085-0.997,2.549-0.997,4.39
		c-0.029,3.229-0.422,5.823-1.176,7.785c-1.057,2.806-2.987,5.174-5.794,7.105c-6.939,4.737-20.337,7.513-40.19,8.328
		c-14.815,0.573-26.508-1.464-35.077-6.11c-8.448-4.586-12.401-10.938-11.858-19.055c0.09-1.568-0.499-3.938-1.766-7.105
		l-3.032-7.695c-2.626-8.417-3.908-15.583-3.848-21.498c0.061-6.518,1.72-13.02,4.979-19.507l2.489,0.904
		c-2.926,7.847-4.058,15.57-3.395,23.174c0.393,4.466,1.766,10.501,4.119,18.104l1.991,6.879c0.634,2.475,0.996,4.662,1.086,6.563
		c0.363,6.548,4.3,11.979,11.813,16.293c8.298,4.798,19.1,6.925,32.406,6.382c18.437-0.754,31.018-3.5,37.747-8.237
		c2.534-1.779,4.345-3.923,5.431-6.428c0.604-1.447,1.087-3.528,1.449-6.245c0.302-2.505,0.738-4.27,1.312-5.295
		c12.07-21.755,16.883-44.507,14.438-68.253C330.79,274.105,327.713,262.67,322.856,252.108"/>
	<path fill="#0D131A" d="M249.76,350.143c-1.6-0.935-2.414-1.555-2.444-1.855c0-0.362,1.026-0.136,3.078,0.678
		c3.139,1.237,7.936,2.521,14.393,3.849c8.268,1.689,15.509,2.489,21.725,2.397c5.612-0.09,7.71,0.212,6.292,0.906
		c-1.419,0.694-3.938,1.011-7.559,0.951c-8.419-0.092-16.384-1.057-23.897-2.897C255.946,352.843,252.083,351.5,249.76,350.143"/>
	<path fill="#0D131A" d="M225.274,354.171l1.177-0.136c3.622,2.293,6.276,6.155,7.966,11.587c1.056,3.349,1.584,6.216,1.584,8.599
		c0,1.056-1.344,1.811-4.028,2.263l-10.501,1.087c-7.09,0.393-11.013-0.15-11.767-1.629c-0.725-1.449,0.799-4.964,4.571-10.546
		c3.621-5.311,6.593-8.796,8.917-10.455C223.705,354.578,224.4,354.321,225.274,354.171"/>
	<path fill="#FFFFFF" d="M212.873,374.538c0-1.479,1.372-4.314,4.118-8.509c2.806-4.346,5.266-7.257,7.377-8.735
		c0.665-0.482,1.072-0.649,1.222-0.499c2.022,1.57,3.938,4.512,5.749,8.827c1.418,3.349,2.218,5.869,2.398,7.559
		c-1.116,0.542-4.616,1.025-10.5,1.448c-5.914,0.422-9.369,0.438-10.364,0.044V374.538"/>
	<path fill="#DBDCDC" d="M229.393,361.594c1.146,2.021,2.172,4.345,3.077,6.97c0.755,2.143,1.177,3.682,1.268,4.617
		c-1.116,0.542-4.616,1.025-10.5,1.448c-5.914,0.422-9.369,0.438-10.364,0.044v-0.135c0-0.423,0.105-0.905,0.316-1.449
		C216.84,368.624,222.242,364.792,229.393,361.594"/>
	<path fill="#0D131A" d="M267.322,374.312c3.802-4.497,6.246-6.744,7.332-6.744s3.591,1.825,7.513,5.477
		c3.983,3.681,6.02,6.154,6.11,7.422c0.091,1.298-1.237,3.953-3.982,7.967c-2.776,4.073-4.782,6.17-6.02,6.291
		c-0.905,0.09-3.108-0.876-6.608-2.897c-3.38-1.931-5.884-3.636-7.513-5.114c-1.601-1.448-2.399-2.866-2.399-4.254
		C261.754,381.463,263.61,378.747,267.322,374.312"/>
	<path fill="#FFFFFF" d="M274.879,371.008c0.814,0.06,2.716,1.464,5.703,4.209c3.018,2.776,4.557,4.616,4.617,5.521
		c0.09,1.087-0.966,3.198-3.169,6.337c-2.142,3.077-3.591,4.646-4.345,4.707c-0.573,0.061-2.067-0.664-4.481-2.173
		c-2.564-1.569-4.692-3.123-6.381-4.662l-1.72-1.854l-0.271-0.589c0.09-0.814,1.599-2.897,4.525-6.246
		C272.284,372.908,274.125,371.158,274.879,371.008"/>
	<path fill="#0D131A" d="M319.28,367.024c3.107,4.737,4.285,8.132,3.53,10.185c-0.241,0.633-0.784,1.206-1.63,1.719
		c-0.995,0.573-2.202,0.921-3.62,1.042c-3.018,0.24-6.261,0.195-9.73-0.137c-4.527-0.452-7.031-1.327-7.514-2.624l-0.77-1.992
		c0-1.991,1.72-5.084,5.16-9.278c2.624-3.229,4.661-5.401,6.109-6.518c0.514-0.422,0.98-0.589,1.403-0.498l0.814,0.498
		C314.573,360.507,316.655,363.041,319.28,367.024"/>
	<path fill="#FFFFFF" d="M320.501,377.117l-9.459,0.317c-5.069-0.452-7.98-1.116-8.735-1.991c-0.693-0.814,0.498-3.244,3.576-7.287
		c2.986-3.983,4.978-6.05,5.975-6.201c0.965-0.15,2.926,2.173,5.883,6.971C320.728,373.754,321.649,376.483,320.501,377.117"/>
	<path fill="#DBDCDC" d="M314.889,370.012c0.815,1.056,2.279,3.53,4.391,7.423c-2.173,0.362-5.355,0.316-9.55-0.136
		c-4.314-0.452-6.789-1.071-7.423-1.855c-0.452-0.514-0.015-1.871,1.312-4.074c1.177-1.931,2.655-3.906,4.436-5.929
		C310.68,366.044,312.958,367.568,314.889,370.012"/>
	<path fill="#0D131A" d="M309.548,310.178c1.419-0.029,2.731,0.527,3.938,1.675c1.237,1.177,1.916,2.55,2.036,4.118
		c0.091,1.298-0.422,2.581-1.539,3.848c-1.447,1.659-3.5,2.384-6.154,2.172l-0.951-0.634c-0.453-0.422-0.181-0.647,0.814-0.679
		c1.66-0.06,3.048-1.222,4.165-3.484c1.206-2.443,0.452-4.33-2.264-5.658c-1.026-0.513-1.343-0.89-0.951-1.131L309.548,310.178"/>
	<path fill="#0D131A" d="M366.893,273.199c0.182-0.15,0.453-0.24,0.815-0.271c1.297-0.061,2.489,0.573,3.575,1.901
		c1.117,1.357,1.735,2.956,1.855,4.797c0.061,1.539-0.407,3.033-1.402,4.48c-1.327,1.9-3.184,2.746-5.567,2.534l-0.86-0.724
		c-0.422-0.514-0.181-0.784,0.725-0.814c1.479-0.06,2.73-1.403,3.757-4.028c1.116-2.867,0.438-5.068-2.037-6.608
		C366.818,273.895,366.531,273.472,366.893,273.199"/>
	<path fill="#0D131A" d="M402.784,241.473c1.268-0.061,2.444,0.498,3.53,1.674c1.087,1.177,1.69,2.565,1.811,4.165
		c0.091,1.327-0.361,2.641-1.357,3.938c-1.297,1.659-3.138,2.398-5.521,2.218l-0.86-0.634c-0.393-0.453-0.15-0.693,0.725-0.725
		c1.478-0.06,2.715-1.252,3.712-3.575c1.085-2.475,0.422-4.39-1.992-5.748c-0.905-0.482-1.178-0.845-0.814-1.086
		C402.166,241.578,402.423,241.502,402.784,241.473"/>
	<path fill="#0D131A" d="M401.156,279.491c1.418-0.06,2.73,0.679,3.938,2.218c1.237,1.538,1.917,3.349,2.037,5.432
		c0.09,1.719-0.422,3.409-1.539,5.069c-1.448,2.202-3.5,3.168-6.155,2.896l-0.951-0.814c-0.452-0.573-0.181-0.89,0.815-0.95
		c0.634-0.03,1.357-0.483,2.173-1.357c0.845-0.937,1.509-2.022,1.99-3.259c1.208-3.229,0.453-5.718-2.263-7.469
		c-1.025-0.663-1.342-1.161-0.95-1.493L401.156,279.491"/>
	<path fill="#0D131A" d="M280.311,309.68c1.087,0.996,1.479,2.64,1.177,4.934c-0.182,1.478-0.966,2.715-2.354,3.712
		c-1.388,0.995-3.002,1.493-4.843,1.493l-0.86-0.407c-0.392-0.332-0.105-0.634,0.86-0.905c2.383-0.634,3.832-1.932,4.345-3.893
		c0.573-2.173-0.739-3.878-3.938-5.115l-1.584-0.904c0-0.241,0.634-0.362,1.9-0.362C277.52,308.201,279.285,308.685,280.311,309.68"
		/>
	<path fill="#0D131A" d="M309.277,272.159c0.815,0.784,1.298,1.825,1.449,3.123c0.12,1.146-0.362,2.263-1.449,3.35
		c-1.146,1.146-2.458,1.734-3.937,1.764c-0.755,0.031-1.192-0.09-1.312-0.36c-0.122-0.272,0.24-0.59,1.086-0.951
		c2.926-1.207,4.027-2.625,3.304-4.254c-0.604-1.328-1.841-2.248-3.711-2.762c-1.087-0.271-1.419-0.573-0.996-0.905l0.95-0.407
		C306.682,270.665,308.221,271.133,309.277,272.159"/>
	<path fill="#0D131A" d="M223.238,193.315c16.112-1.871,26.778-1.463,31.999,1.222c1.599,0.845,2.609,2.384,3.032,4.617l0.226,4.888
		c0,7.875-2.806,19.372-8.417,34.489c8.357,7.604,14.347,13.895,17.968,18.873c4.255,5.854,6.382,11.285,6.382,16.294
		c0,1.599-0.166,3.499-0.498,5.703c-0.393,2.504-0.845,4.345-1.358,5.521c-3.439,7.905-6.849,13.563-10.228,16.972
		c-3.802,3.862-9.143,6.653-16.022,8.374c-5.854,1.478-18.361,6.789-37.521,15.932l-18.194,8.87
		c-6.578,3.17-11.768,5.522-15.57,7.062c-8.237,3.349-20.986,4.118-38.245,2.308c-17.833-1.9-29.842-5.657-36.027-11.27
		c-2.052-1.901-11.21-7.257-27.474-16.067c-12.824-6.971-22.087-11.888-27.79-14.755c-3.62-1.811-6.864-7.227-9.73-16.248
		c-2.896-9.082-3.319-15.283-1.268-18.603c2.716-4.375,6.819-9.852,12.311-16.429c5.764-6.91,10.411-11.813,13.941-14.71
		c-2.113-3.017-4.255-8.025-6.428-15.026c-2.293-7.393-3.439-13.428-3.439-18.104c0-0.936,0.046-1.765,0.136-2.489
		c0.392-2.716,1.297-4.36,2.716-4.933c5.431-2.324,15.237-2.324,29.419,0c7.362,1.207,15.418,2.881,24.169,5.024
		c8.147-3.078,20.669-4.345,37.566-3.802c14.393,0.453,28.016,1.961,40.87,4.526C195.478,197.812,207.969,195.065,223.238,193.315"
		/>
	<path fill="#5DC1CF" d="M252.883,197.344c1.056,0.453,1.705,0.966,1.946,1.539c2.263,6.276-0.151,18.829-7.241,37.657
		c-0.634-0.514-1.856-0.906-3.667-1.178c-1.116-0.15-0.95,0.544,0.498,2.082l2.535,2.309c10.832,9.746,17.862,18.616,21.091,26.613
		c2.444,6.095,2.64,11.511,0.589,16.247c-3.139,7.183-6.367,12.448-9.687,15.797c-3.319,3.319-7.905,5.898-13.759,7.739
		c-2.896,0.905-7.815,2.942-14.755,6.11l-21.182,9.957c-16.927,8.146-28.634,13.533-35.122,16.158
		c-8.992,3.681-21.981,4.36-38.969,2.036c-6.971-0.965-13.367-2.308-19.191-4.028c-5.793-1.719-9.867-3.484-12.221-5.295
		c-2.353-1.811-11.375-6.924-27.065-15.344c-16.958-9.111-26.372-14.256-28.242-15.434c-3.078-1.9-5.794-6.548-8.147-13.939
		c-2.233-6.939-2.973-12.1-2.218-15.479c0.603-2.745,4.284-8.523,11.043-17.334c6.547-8.54,10.998-13.609,13.351-15.207
		c3.108-2.083,4.617-3.697,4.526-4.844c-0.06-1.146-1.403-0.755-4.028,1.176c-2.986-4.947-5.401-10.575-7.241-16.881
		c-1.991-6.789-2.686-12.356-2.083-16.701c0.272-1.6,0.74-2.595,1.404-2.987c2.081-1.177,9.037-1.041,20.864,0.407
		c9.596,1.147,20.02,2.806,31.275,4.979l0.362,0.045l0.363-0.135c7.875-3.078,20.231-4.33,37.068-3.757
		c14.303,0.483,27.835,2.006,40.599,4.571l0.407,0.09l0.362-0.136c9.384-3.681,21.589-6.291,36.616-7.83
		C237.992,194.809,247.965,195.141,252.883,197.344"/>
	<path fill="#50A8B4" d="M69.398,303.842c-4.074-0.514-7.303-2.821-9.686-6.926l-3.123-5.476c-1.117-1.751-2.309-3.244-3.576-4.481
		c2.324,1.811,6.096,3.184,11.315,4.119l5.07,0.77c1.779,0,6.683,3.228,14.709,9.686l11.496,9.686l-9.641-3.213
		C78.812,305.772,73.29,304.385,69.398,303.842"/>
	<path fill="#50A8B4" d="M107.19,203.499l0.362,0.045l0.363-0.135c7.875-3.078,20.231-4.33,37.068-3.757
		c14.303,0.483,27.835,2.006,40.599,4.571l0.407,0.09l0.362-0.136c5.311-2.082,11.994-3.892,20.05-5.431
		c7.665-1.479,15.268-2.459,22.812-2.942c-13.246,2.112-24.803,6.623-34.67,13.533c-6.668,4.707-11.542,9.564-14.619,14.573
		c-11.949,4.014-25.105,9.852-39.468,17.516c-19.069,10.169-31.214,19.433-36.434,27.79c-0.482,0-2.429-0.995-5.839-2.987
		c-4.375-2.595-7.317-4.269-8.826-5.022c1.72-2.294,3.183-5.281,4.39-8.962l2.625-9.822c2.082-8.117,5.069-13.396,8.961-15.841
		c-5.129-6.155-11.466-11.783-19.009-16.882c-6.126-4.134-13.549-8.223-22.268-12.266c5.25,0.242,12.189,0.996,20.819,2.263
		C92.42,200.814,99.858,202.081,107.19,203.499"/>
	<path fill="#50A8B4" d="M135.523,310.404c7.03-1.87,14.438-5.1,22.223-9.687c8.418-4.948,14.061-7.905,16.927-8.87l18.33-3.35
		c8.872-1.72,16.173-2.73,21.906-3.032c3.771,0,7.785-1.72,12.04-5.16c4.314-3.561,6.292-6.925,5.929-10.093
		c-1.419-3.681-5.326-7.739-11.723-12.175c-4.526-3.169-9.083-7.785-13.668-13.85c-4.496-5.944-9.505-10.757-15.026-14.438
		c3.349-1.086,7.92-3.561,13.713-7.423c7.574-5.009,11.873-7.8,12.9-8.373l17.922-9.866c6.457-3.168,12.296-5.054,17.517-5.658
		l0.316,0.453c2.263,6.276-0.151,18.829-7.241,37.657c-0.634-0.514-1.856-0.906-3.667-1.178c-1.116-0.15-0.95,0.544,0.498,2.082
		l2.535,2.309c10.832,9.746,17.862,18.616,21.091,26.613c2.444,6.095,2.64,11.511,0.589,16.247
		c-3.139,7.183-6.367,12.448-9.687,15.797c-3.319,3.319-7.905,5.898-13.759,7.739c-2.896,0.905-7.815,2.942-14.755,6.11
		l-21.182,9.957c-16.927,8.146-28.634,13.533-35.122,16.158c-8.992,3.681-21.981,4.36-38.969,2.036
		c-6.971-0.965-13.367-2.308-19.191-4.028c-5.793-1.719-9.867-3.484-12.221-5.295c4.466,0.03,10.758-3.078,18.875-9.324
		C127.09,318.325,131.389,314.537,135.523,310.404"/>
	<path fill="#0D131A" d="M249.579,202.685c0.783,0.271,1.177,0.845,1.177,1.72c0,2.203-1.132,6.578-3.395,13.126l-4.119,11.18
		c-0.453,1.388-1.102,2.142-1.945,2.263c-0.876,0.15-2.294-0.287-4.255-1.312c-10.078-5.401-16.339-8.646-18.783-9.731
		c-1.177-0.513-1.856-0.95-2.037-1.312c-0.241-0.393-0.03-0.935,0.633-1.63c2.565-2.716,7.529-5.943,14.891-9.686
		C240.225,202.956,246.169,201.417,249.579,202.685"/>
	<path fill="#C6000B" d="M249.398,204.404c0,3.108-2.866,11.27-8.6,24.486l-9.233-5.069c-5.159-2.716-9.021-4.542-11.586-5.477
		c3.803-3.591,9.204-7.091,16.204-10.5c6.85-3.35,11.149-4.662,12.898-3.938C249.292,203.997,249.398,204.163,249.398,204.404"/>
	<path fill="#A30000" d="M249.08,203.907c0.212,0.09,0.317,0.256,0.317,0.498c0,2.052-1.327,6.487-3.982,13.308
		c-3.38-0.937-6.353-1.299-8.917-1.087c-3.318,0.302-7.227,1.568-11.722,3.802c-1.781-0.875-3.38-1.569-4.798-2.082
		c3.803-3.591,9.204-7.091,16.204-10.5C243.031,204.495,247.331,203.183,249.08,203.907"/>
	<path fill="#0D131A" d="M87.185,219.431c0.091,0.242-0.392,0.709-1.448,1.403l-13.85,9.957c-1.811,1.297-2.958,1.674-3.44,1.132
		l-2.264-4.345c-1.689-2.896-3.093-6.187-4.209-9.866c-1.388-4.618-1.494-7.71-0.316-9.279c0.482-0.604,2.761-0.302,6.834,0.905
		c5.28,1.568,10.771,4.359,16.474,8.374L87.185,219.431"/>
	<path fill="#C6000B" d="M75.236,214.679c4.345,2.143,7.393,3.938,9.143,5.386c-2.504,1.176-5.129,2.73-7.875,4.662
		c-1.629,1.146-3.711,2.746-6.246,4.797l-0.769,0.589c-1.087-1.509-2.384-4.193-3.893-8.056c-1.689-4.285-2.535-7.409-2.535-9.37
		c0-0.693,0.121-1.177,0.362-1.447c0.181-0.212,0.573-0.302,1.177-0.272C66.772,211.027,70.319,212.265,75.236,214.679"/>
	<path fill="#A30000" d="M64.6,210.967c2.022,0.03,5.462,1.223,10.319,3.576c-2.323,1.357-3.877,3.621-4.662,6.789
		c-0.422,1.811-0.784,4.57-1.085,8.282c-1.177-1.932-2.444-4.662-3.802-8.192c-1.539-3.983-2.309-6.895-2.309-8.735
		c0-0.693,0.121-1.177,0.362-1.447C63.604,211.027,63.996,210.938,64.6,210.967"/>
	<path fill="#0D131A" d="M64.781,290.807c6.668-0.393,15.253,0.558,25.752,2.852l26.342,6.652c5.22,1.328,10.154,2.385,14.8,3.168
		c4.768,0.815,7.815,1.087,9.143,0.815l3.213-0.679c41.248-8.54,69.384-12.809,84.41-12.809h1.63l-0.771,1.447
		c-3.379,6.699-13.653,15.148-30.822,25.347c-7.091,4.194-13.88,7.754-20.367,10.682c-6.638,2.986-11.542,4.662-14.709,5.023
		c-6.336,0.755-15.45,0.589-27.338-0.498c-11.857-1.116-19.175-2.474-21.951-4.073l-10.183-6.744l-17.063-11.405
		c-10.983-7.151-18.27-12.099-21.86-14.846c-2.444-1.871-3.591-3.122-3.439-3.756c0.06-0.151,0.467-0.377,1.221-0.68L64.781,290.807
		"/>
	<path fill="#922F00" d="M92.39,295.514c4.707,0.936,13.412,3.032,26.115,6.291l14.439,3.575c4.104,0.845,6.864,1.132,8.282,0.86
		l3.213-0.679l51.37-10.637c15.63-3.048,26.719-4.646,33.266-4.798c-4.405,6.519-15.523,14.922-33.356,25.21
		c-16.927,9.747-28.544,14.997-34.85,15.751c-6.186,0.725-14.801,0.407-25.844-0.951c-10.53-1.267-17.078-2.624-19.644-4.072
		c-5.34-3.048-13.849-8.493-25.526-16.34c-13.427-8.991-21.091-14.663-22.993-17.018C73.471,292.436,81.98,293.371,92.39,295.514"/>
	<path fill="#0D131A" d="M87.049,301.442c-0.845-1.539-1.147-3.183-0.905-4.934c0.151-1.207,0.528-2.308,1.132-3.304
		c33.885,7.755,50.661,11.753,50.329,11.994l69.384-11.994c1.509,1.328,1.75,3.138,0.724,5.432c-0.845,1.9-2.535,4.059-5.069,6.473
		c-6.095,5.793-14.996,10.727-26.703,14.8c-12.704,4.405-24.849,6.306-36.435,5.702l-1.312-0.09
		c-11.405-0.604-22.328-3.575-32.768-8.917C96.011,311.808,89.885,306.753,87.049,301.442"/>
	<path fill="#ED8599" d="M88.815,294.88c6.306,1.206,15.463,3.363,27.472,6.472l16.022,3.893c4.497,0.966,7.468,1.298,8.917,0.996
		l4.752-0.996c25.466-5.4,45.216-9.112,59.246-11.133c-0.452,3.017-2.489,6.26-6.109,9.73c-6.004,5.702-14.333,10.47-24.984,14.302
		c-11.798,4.224-23.309,6.05-34.534,5.477c-10.863-0.604-21.514-3.651-31.954-9.143c-9.354-4.949-15.373-9.942-18.059-14.98
		c-0.694-1.268-1.041-2.414-1.041-3.441L88.815,294.88"/>
	<path fill="#0D131A" d="M102.574,266.003c2.293,2.687,2.957,3.923,1.991,3.712l-2.173-1.086c-0.724,2.836-2.821,5.295-6.291,7.378
		c-3.5,2.111-6.91,2.941-10.229,2.488c-3.682-0.513-6.91-2.368-9.686-5.566c-4.224-4.919-6.486-12.312-6.788-22.178
		c-2.716-0.543-4.3-1.192-4.753-1.946c-0.482-0.814,1.539-0.935,6.065-0.362c6.095,0.814,11.36,2.323,15.796,4.526
		C92.178,255.805,97.534,260.15,102.574,266.003"/>
	<path fill="#FFFFFF" d="M95.286,273.064c-2.987,1.841-6.064,2.579-9.233,2.218c-4.194-0.423-7.528-2.716-10.002-6.88
		c-2.535-4.194-4.013-9.957-4.436-17.289c11.919,2.716,21.604,7.98,29.057,15.796C99.858,269.322,98.062,271.375,95.286,273.064"/>
	<path fill="#0D131A" d="M96.915,261.161l0.363,0.316l0.09,1.041c-0.935,2.414-2.384,4.27-4.345,5.567
		c-1.961,1.298-3.923,1.705-5.884,1.222c-2.172-0.483-3.982-2.098-5.431-4.843c-1.69-3.229-2.339-7.242-1.946-12.039l0.679-0.77
		l0.814,0.317C86.929,254.266,92.148,257.329,96.915,261.161"/>
	<path fill="#C6000B" d="M87.683,267.271c-2.021-0.452-3.591-2.142-4.707-5.069c-0.965-2.474-1.418-5.129-1.357-7.965
		c5.039,2.021,9.655,4.677,13.849,7.965c-0.875,1.871-2.007,3.274-3.395,4.21C90.655,267.347,89.192,267.633,87.683,267.271"/>
	<path fill="#FFFFFF" d="M92.118,259.757c-0.724,1.902-1.72,2.838-2.987,2.808c-1.569-0.03-2.611-2.158-3.123-6.383
		C88.09,257.209,90.127,258.399,92.118,259.757"/>
	<path fill="#0D131A" d="M74.874,242.513c1.297-1.297,3.666-2.911,7.106-4.842c3.742-2.082,6.533-3.229,8.373-3.44
		c4.043-0.422,4.18,0.016,0.408,1.312c-1.599,0.514-3.953,1.811-7.061,3.894l-6.788,4.57c-1.69,1.087-2.746,1.403-3.169,0.95
		C73.29,244.505,73.667,243.69,74.874,242.513"/>
	<path fill="#0D131A" d="M102.166,242.739c-0.21-2.774-0.075-3.906,0.408-3.395c0.482,0.483,0.965,1.932,1.448,4.346
		c0.483,2.203,0.86,4.798,1.132,7.784c0.271,2.988,0.347,5.341,0.226,7.062c-0.12,1.659-0.573,2.504-1.357,2.534
		c-0.784,0.03-1.192-0.693-1.222-2.173l-0.181-6.924L102.166,242.739"/>
	<path fill="#0D131A" d="M190.785,229.343c1.328-0.814,2.988-1.102,4.979-0.859c0.935,0.12,1.434,0.407,1.494,0.859
		c0.09,0.453-0.332,0.784-1.267,0.996l-2.444,0.407c-0.875,0.091-1.509,0.257-1.901,0.498c-1.991,1.177-4.059,5.325-6.201,12.446
		l-3.485,13.805c-0.543,2.081-0.92,2.957-1.132,2.625c-0.121-0.212-0.196-1.147-0.226-2.807c0-2.686,0.891-7.196,2.67-13.533
		C185.505,235.785,188.01,230.973,190.785,229.343"/>
	<path fill="#0D131A" d="M207.487,229.887c2.233,0.935,4.391,2.111,6.472,3.529c2.173,1.479,4.013,3.048,5.522,4.708
		c1.509,1.659,2.188,2.519,2.037,2.579l-3.123-1.855c-6.004-3.983-9.957-6.383-11.857-7.196c-1.329-0.544-2.007-1.192-2.037-1.946
		C204.469,228.98,205.465,229.041,207.487,229.887"/>
	<path fill="#0D131A" d="M220.612,242.332c1.78-0.09,3.018,0.212,3.711,0.906c0.664,0.724-0.196,1.161-2.58,1.312
		c0.513,10.411-0.996,18.588-4.526,24.531c-2.504,4.194-5.672,6.88-9.505,8.057c-3.742,1.116-7.785,0.693-12.129-1.268
		c-4.195-1.87-7.423-4.586-9.686-8.146c-2.022,2.294-3.108,3.168-3.259,2.625c-0.15-0.543,0.708-2.354,2.58-5.432
		c3.379-5.491,8.418-10.47,15.118-14.935C207.487,245.214,214.245,242.664,220.612,242.332"/>
	<path fill="#FFFFFF" d="M187.527,265.868c4.647-5.733,10.772-10.894,18.376-15.479c6.879-4.104,11.39-5.884,13.533-5.34v1.176
		c0,7.846-1.102,14.228-3.304,19.145c-2.203,4.949-5.326,8.027-9.369,9.234c-3.318,0.965-6.743,0.663-10.274-0.905
		C192.898,272.068,189.91,269.458,187.527,265.868"/>
	<path fill="#0D131A" d="M198.163,263.378c-2.444-1.357-3.953-3.364-4.526-6.019l1.042-1.765c4.164-3.351,8.674-6.172,13.533-8.464
		l0.634-0.317l0.814-0.091c1.6,3.833,1.947,7.438,1.042,10.816c-0.905,3.26-2.686,5.417-5.341,6.473
		C202.976,264.947,200.576,264.736,198.163,263.378"/>
	<path fill="#C6000B" d="M200.608,262.066c-0.875-0.242-1.735-0.8-2.581-1.675c-0.814-0.845-1.478-1.841-1.991-2.987
		c4.013-3.319,8.177-6.155,12.492-8.509c0.422,1.69,0.633,3.318,0.633,4.889c0,2.383-0.693,4.375-2.082,5.973
		c-0.844,0.967-1.856,1.66-3.032,2.083L200.608,262.066"/>
	<path fill="#FFFFFF" d="M203.866,251.656c0.302,3.59-0.287,5.612-1.766,6.064c-1.387,0.422-2.534-0.377-3.439-2.398
		L203.866,251.656"/>
	<path fill="#0D131A" d="M68.9,303.026c-0.815-0.271-2.504-2.398-5.069-6.381l-3.621-5.884l8.283,0.045
		c5.491,0.12,8.117,0.438,7.875,0.95l-3.304,6.562C71.133,301.76,69.745,303.328,68.9,303.026"/>
	<path fill="#FFFFFF" d="M63.061,292.074l6.111,0.18c3.168,0.092,4.692,0.257,4.571,0.499c-0.542,1.236-1.433,2.851-2.67,4.843
		c-1.328,2.142-2.143,3.152-2.444,3.032C68.054,300.447,66.199,297.596,63.061,292.074"/>
	<path fill="#0D131A" d="M233.919,290.083c0.12,1.177-0.77,3.545-2.671,7.104c-1.991,3.651-3.53,5.461-4.616,5.432
		c-0.965-0.03-2.52-2.021-4.662-5.974l-2.942-5.884l7.377-1.132C231.355,289.056,233.859,289.207,233.919,290.083"/>
	<path fill="#FFFFFF" d="M232.47,290.127c-0.542,1.932-1.554,4.074-3.031,6.428c-1.479,2.384-2.505,3.485-3.078,3.304
		s-1.434-1.177-2.58-2.987c-1.147-1.75-2.097-3.561-2.852-5.431L232.47,290.127"/>
	<path fill="#0D131A" d="M105.515,306.24c0.392,0.03,0.769,1.75,1.132,5.159c0.362,3.319,0.437,5.175,0.226,5.568
		c-0.21,0.512-0.859,0.889-1.946,1.131c-1.207,0.241-2.278,0.105-3.213-0.407c-0.543-0.333-1.011-1.026-1.403-2.082
		c-0.392-1.026-0.498-1.735-0.317-2.127c0.423-0.846,1.343-2.233,2.761-4.164C104.263,307.236,105.184,306.21,105.515,306.24"/>
	<path fill="#FFFFFF" d="M105.108,307.96c0.181,0.211,0.377,1.568,0.588,4.073c0.211,2.565,0.181,3.907-0.09,4.028
		c-0.392,0.211-0.905,0.362-1.539,0.453l-1.81-0.227c-0.635-0.332-0.981-1.222-1.042-2.671l1.946-3.032
		C104.339,308.714,104.987,307.839,105.108,307.96"/>
	<path fill="#0D131A" d="M116.876,311.626c0.362,0.12,0.785,2.112,1.267,5.975c0.453,3.772,0.588,5.793,0.408,6.065
		c-0.181,0.361-0.996,0.604-2.444,0.724c-1.599,0.121-2.836-0.136-3.711-0.77c-0.755-0.543-1.312-1.283-1.674-2.218
		c-0.363-0.906-0.408-1.66-0.137-2.264c0.272-0.543,1.252-1.9,2.942-4.072C115.397,312.652,116.513,311.506,116.876,311.626"/>
	<path fill="#FFFFFF" d="M116.152,313.663c0.121,0.15,0.302,1.674,0.543,4.571c0.21,2.927,0.226,4.466,0.045,4.616l-1.494,0.227
		c-0.905-0.03-1.599-0.212-2.082-0.544c-0.754-0.573-1.161-1.644-1.222-3.213l2.082-3.078
		C115.322,314.402,116.031,313.543,116.152,313.663"/>
	<path fill="#0D131A" d="M182.865,317.328c-0.182-0.512,0.015-2.338,0.588-5.476c0.543-3.198,1.011-4.812,1.402-4.843
		c0.483-0.06,1.464,0.996,2.943,3.168l2.398,3.802c0.393,0.544,0.362,1.282-0.09,2.218s-1.146,1.629-2.082,2.082
		c-0.966,0.482-2.051,0.573-3.258,0.272C183.71,318.249,183.077,317.842,182.865,317.328"/>
	<path fill="#FFFFFF" d="M188.795,314.433c-0.122,1.298-0.528,2.127-1.222,2.488l-1.811,0.137l-1.448-0.453
		c-0.271-0.15-0.226-1.494,0.136-4.028c0.332-2.504,0.588-3.847,0.769-4.028c0.121-0.12,0.74,0.785,1.855,2.716L188.795,314.433"/>
	<path fill="#0D131A" d="M171.777,323.711c-0.725-0.423-0.86-2.505-0.408-6.246c0.453-3.742,1.072-5.779,1.856-6.109
		c0.392-0.122,1.327,0.813,2.806,2.805c1.449,2.022,2.459,3.728,3.033,5.115c0.21,0.514,0.15,1.191-0.182,2.037
		c-0.392,0.965-1.011,1.734-1.855,2.308c-0.905,0.573-1.976,0.784-3.213,0.634C172.908,324.164,172.229,323.982,171.777,323.711"/>
	<path fill="#FFFFFF" d="M177.705,319.365c-0.121,1.418-0.634,2.414-1.538,2.988l-1.992,0.497l-1.494-0.271
		c-0.181-0.151-0.06-1.676,0.363-4.572c0.392-2.867,0.664-4.375,0.814-4.525c0.09-0.121,0.74,0.784,1.946,2.715L177.705,319.365"/>
	<path fill="#0D131A" d="M51.294,286.371c-0.362-0.937-0.528-1.887-0.498-2.852c0.06-1.569,0.332-2.309,0.815-2.218
		c0.422,0.091,0.769,0.694,1.041,1.811c0.211,0.725,0.513,1.463,0.905,2.218l0.86,1.268c1.659,1.658,3.65,2.73,5.974,3.212
		l12.084,0.59c7.393-0.091,14.906,0.693,22.54,2.354c4.617,0.995,10.803,2.761,18.558,5.295l12.084,3.712
		c4.497,1.206,8.283,1.855,11.361,1.945c1.478,0.03,5.341-0.588,11.587-1.855l21.77-4.526c23.233-4.676,43.164-7.634,59.789-8.871
		c5.522-0.392,10.168-1.388,13.939-2.986c3.41-1.448,5.719-3.184,6.926-5.205c1.056-1.78,1.946-2.369,2.67-1.766
		s0.648,1.54-0.227,2.807c-2.474,3.499-5.341,5.914-8.599,7.241c-2.837,1.116-7.649,1.977-14.438,2.58
		c-9.806,0.845-27.805,3.727-53.996,8.645c-24.139,4.496-37.143,6.699-39.014,6.608c-5.401-0.332-13.624-2.264-24.667-5.794
		c-7.755-2.504-13.819-4.239-18.195-5.204c-7.483-1.63-14.83-2.398-22.042-2.309c-6.849,0.091-11.617-0.241-14.302-0.995
		c-1.871-0.514-3.757-1.705-5.658-3.576C52.018,287.955,51.595,287.245,51.294,286.371"/>
	<path fill="#0D131A" d="M120.135,293.386c-0.785-0.422-1.087-0.995-0.905-1.719c0.21-0.726,0.844-0.98,1.9-0.771
		c1.056,0.212,1.886,0.544,2.49,0.997l2.398,2.443c0.875,0.995,0.966,1.629,0.272,1.9l-1.358,0.091
		C123.453,295.182,121.854,294.201,120.135,293.386"/>
	<path fill="#0D131A" d="M142.991,295.469c0.965-1.178,1.871-2.008,2.715-2.489c0.755-0.393,1.871-0.726,3.35-0.996
		c1.388-0.241,2.127,0.075,2.218,0.95c0.06,0.875-0.559,1.433-1.856,1.675c-1.086,0.241-2.203,0.648-3.35,1.222
		c-0.965,0.482-1.448,0.77-1.448,0.859l-1.539,0.317C142.206,297.007,142.176,296.494,142.991,295.469"/>
	<path fill="#0D131A" d="M219.436,135.247c9.625-0.211,16.928,1.011,21.906,3.667l0.724,0.407l-4.525,12.809
		c-5.674-0.966-11.044-1.509-16.113-1.629c3.56,1.357,6.321,2.866,8.283,4.526c0.603,0.543,1.282,0.981,2.036,1.312
		c0.452,0.362,0.573,1.177,0.362,2.444l-0.725,8.509c-0.392,4.405-0.814,7.182-1.267,8.328c-0.544,1.297-0.936,1.931-1.178,1.901
		c-0.12-0.03-0.331-0.528-0.633-1.493c-0.392-1.298-1.886-3.093-4.48-5.386c-3.289-2.926-6.864-4.949-10.727-6.064
		c4.798,4.133,9.882,8.886,15.253,14.256l-10.229,8.826c-6.971,5.823-10.863,8.66-11.678,8.509
		c-0.754-0.151-2.489-1.523-5.204-4.119l-7.243-6.925l5.659,9.595c2.171,3.711,3.228,5.869,3.168,6.472
		c-0.121,0.996-3.048,2.655-8.781,4.979l-6.879,5.522c-4.707,3.56-7.423,5.13-8.147,4.707c-0.725-0.422-2.354-2.263-4.888-5.522
		l-6.381-8.191l3.711,11.179c1.538,4.587,2.263,7.212,2.171,7.876c-0.09,0.694-1.433,1.976-4.027,3.847l-5.839,3.938
		c-1.388,0.905-2.369,1.404-2.941,1.494c-0.604,0.061-1.102-0.271-1.494-0.995l-5.296-10.32c0.664,2.716,1.734,6.457,3.213,11.226
		c-6.728,5.34-10.229,7.844-10.5,7.513c-0.151-0.182-0.8-1.917-1.947-5.205l-3.213-9.188l0.86,16.294c0,0.21-1.871,1.101-5.612,2.67
		c-3.832,1.599-5.959,2.248-6.381,1.945c-0.363-0.271-0.725-1.614-1.087-4.028l-1.086-7.196l0.588,8.917
		c0.181,2.836,0.136,4.33-0.136,4.481c-10.018,2.896-15.358,4.027-16.022,3.394c-0.392-0.392,0.242-3.907,1.901-10.546l3.53-13.668
		c-1.207,1.207-4.254,4.495-9.143,9.866c-4.435,4.708-6.97,6.956-7.604,6.744c-0.633-0.182-1.705-3.107-3.214-8.78l-2.036-8.464
		l6.201-6.337l-5.341,4.119c-3.531,2.625-5.462,3.757-5.793,3.394c-0.332-0.36-0.136-2.534,0.588-6.517l1.177-5.884l14.89-10.772
		l-10.636,4.797c-3.892,1.781-6.019,2.46-6.381,2.037c-0.362-0.423,0.679-3.44,3.123-9.052l3.757-8.283l13.08-11.406l-7.151,3.757
		c-2.836,1.479-4.33,2.083-4.48,1.811c-0.272-0.483,4.345-6.955,13.849-19.417l16.746-4.39l-5.793-0.815l-4.345-0.95
		c-0.633-0.182-0.89-0.513-0.769-0.996l0.407-0.679c3.651-3.349,7.362-6.382,11.133-9.097l0.227-0.181l6.653-0.588l11.089-1.131
		l-9.731-1.675l-0.679-0.453c-0.182-0.453,0.317-1.056,1.493-1.81l10.953-7.921c6.096-4.436,9.565-6.789,10.411-7.061
		c4.194-0.694,9.655-0.136,16.384,1.674c6.729,1.811,13.216,4.481,19.462,8.011C202.252,136.997,209.84,135.458,219.436,135.247"/>
	<path fill="#00A63C" d="M218.938,151.495c3.771,1.177,7.498,3.319,11.18,6.427l-0.589,6.382l-0.995,8.781
		c-1.781-2.173-4.3-4.315-7.559-6.427c-3.983-2.625-7.77-4.209-11.361-4.752l-2.715-0.181c-0.181,0.212,0.498,0.86,2.036,1.947
		c1.419,1.025,4.21,3.515,8.374,7.467l7.604,7.333l-6.879,5.657c-0.15,0.121-2.263-1.282-6.336-4.208
		c-4.104-2.927-6.412-4.27-6.925-4.028c-0.513,0.271,1.147,2.037,4.979,5.295l5.792,4.979l-9.052,7.377l-15.479-13.759
		c-1.961-1.72-3.078-2.535-3.35-2.444c-0.332,0.06,0.272,1.282,1.811,3.666c2.142,3.319,5.672,9.746,10.591,19.281l-6.699,3.258
		l-3.349-5.024c-2.324-3.289-3.681-4.843-4.073-4.662c-0.332,0.151,0.542,2.007,2.625,5.567l3.033,5.386l-12.266,8.872
		c-7.453-9.536-11.874-14.921-13.262-16.159l-2.263-1.901c-0.392-0.061-0.212,0.875,0.543,2.806
		c1.086,2.927,3.395,10.424,6.925,22.494l-10.546,7.242l-3.62-7.966l-4.662-9.821c-1.087-2.081-1.72-3.123-1.901-3.123
		c-0.211,0.03-0.242,1.071-0.091,3.123c0.122,1.9,0.725,5.189,1.811,9.867c0.995,4.284,1.871,7.588,2.625,9.911l-7.151,5.115
		l-2.942-8.6c-1.75-4.949-2.957-8.178-3.62-9.687c-0.966-2.112-1.554-3.228-1.766-3.35c-0.362-0.18-0.422,1.072-0.181,3.758
		l1.131,21.59l-8.373,3.212c-2.112-11.797-3.485-18.843-4.119-21.136c-0.452-1.751-0.905-2.641-1.357-2.671
		c-0.453,0-0.649,0.966-0.589,2.897l0.77,24.214l-11.361,2.444c4.466-17.651,6.548-26.931,6.246-27.836
		c-0.181-0.543-3.183,2.218-9.007,8.283l-10.228,10.817l-3.938-12.899l6.291-6.201l6.699-7.016c1.237-1.418,1.75-2.277,1.539-2.579
		c-0.181-0.272-0.996,0-2.444,0.814c-1.057,0.604-3.938,2.641-8.646,6.109l-8.102,5.886l1.087-7.74
		c12.009-8.358,18.948-13.367,20.819-15.027c1.358-1.207,1.946-1.931,1.765-2.172c-0.181-0.241-1.086-0.09-2.716,0.453
		c-1.297,0.422-4.632,1.735-10.002,3.938l-10.274,4.164l4.979-12.582c9.656-8.54,15.736-13.82,18.24-15.842l3.485-2.987
		c0.151-0.301-1.373,0.136-4.571,1.312c-2.836,1.056-5.099,2.037-6.79,2.942l-4.48,2.399l8.962-12.492l9.958-2.49l11.949-3.304
		c1.659-0.604,2.459-1.116,2.398-1.539c-0.03-0.392-0.904-0.528-2.625-0.407l-6.292-0.227l-7.648-1.358
		c3.44-3.017,6.562-5.537,9.368-7.558l13.081-1.222l10.319-1.267c1.599-0.211,2.399-0.528,2.399-0.951
		c0-0.422-0.785-0.754-2.354-0.996l-7.287-1.539l-5.024-1.222c1.449-0.905,4.949-3.44,10.501-7.604
		c4.948-3.742,7.708-5.703,8.282-5.884c6.548-0.724,14.483,0.679,23.807,4.209c4.647,1.78,8.646,3.621,11.994,5.521
		c5.13-2.775,12.25-4.314,21.363-4.616c9.083-0.302,16.142,0.739,21.181,3.123l-2.715,8.554l-10.591-0.588
		c-6.971-0.302-11.904-0.347-14.801-0.136c-3.138,0.241-4.466,0.604-3.982,1.086c0.392,0.392,1.704,0.694,3.937,0.905
		C214.759,150.515,217.248,150.952,218.938,151.495"/>
	<path fill="#009233" d="M211.515,148.191c-3.138,0.241-4.466,0.604-3.982,1.086c0.392,0.392,1.704,0.694,3.937,0.905
		c3.29,0.332,5.779,0.769,7.468,1.312c3.771,1.177,7.498,3.319,11.18,6.427l-0.589,6.382l-0.995,8.781
		c-1.781-2.173-4.3-4.315-7.559-6.427c-3.983-2.625-7.77-4.209-11.361-4.752l-2.715-0.181c-0.181,0.212,0.498,0.86,2.036,1.947
		c1.419,1.025,4.21,3.515,8.374,7.467l7.604,7.333l-6.879,5.657c-0.15,0.121-2.263-1.282-6.336-4.208
		c-4.104-2.927-6.412-4.27-6.925-4.028c-0.513,0.271,1.147,2.037,4.979,5.295l5.792,4.979l-6.788,5.567
		c-6.82-11.043-15.857-18.617-27.111-22.721c-12.25-4.435-24.034-3.319-35.349,3.349c-4.194-10.561-10.455-16.112-18.783-16.655
		l3.847-2.897l13.081-1.222l10.319-1.267c1.599-0.211,2.399-0.528,2.399-0.951c0-0.422-0.785-0.754-2.354-0.996l-7.287-1.539
		l-5.024-1.222c1.449-0.905,4.949-3.44,10.501-7.604c4.948-3.742,7.708-5.703,8.282-5.884c6.548-0.724,14.483,0.679,23.807,4.209
		c4.647,1.78,8.646,3.621,11.994,5.521c5.13-2.775,12.25-4.314,21.363-4.616c9.083-0.302,16.142,0.739,21.181,3.123l-2.715,8.554
		l-10.591-0.588C219.344,148.025,214.412,147.98,211.515,148.191"/>
	<path fill="#0D131A" d="M192.958,139.592h0.136l5.657,0.86l1.674-0.453c0.604,0-0.407,0.754-3.033,2.263
		c-9.323,3.802-18.481,8.826-27.472,15.071c-17.411,12.04-31.909,27.865-43.495,47.478l-0.951,1.72
		c-0.121,0.09-0.227-0.573-0.317-1.991c-0.241-3.833,1.191-8.961,4.299-15.389c3.319-6.879,7.815-13.593,13.487-20.141
		C157.459,152.265,174.13,142.458,192.958,139.592"/>
	<path fill="#00A63C" d="M195.176,141.673c-9.958,2.806-20.473,8.328-31.547,16.565c-15.267,11.346-27.382,25.406-36.344,42.183
		c1.057-4.526,3.304-9.731,6.744-15.615c3.802-6.487,8.388-12.598,13.759-18.33c13.638-14.454,28.71-22.962,45.215-25.527
		l1.901,0.182C195.901,141.251,195.991,141.433,195.176,141.673"/>
	<path fill="#009233" d="M193.003,140.949l1.901,0.182c0.997,0.12,1.087,0.302,0.272,0.542c-5.22,1.479-11.028,3.968-17.425,7.468
		c-8.087,4.465-15.706,9.882-22.856,16.249c-1.207-0.845-2.55-1.524-4.028-2.037c5.944-5.793,12.25-10.546,18.918-14.257
		C177.328,144.872,185.068,142.156,193.003,140.949"/>
	<path fill="#0D131A" d="M358.656,119.18c0.15,1.207-1.841,3.65-5.975,7.332c-4.104,3.651-6.503,5.13-7.196,4.436l-6.563-7.785
		l1.675,5.069c0.755,2.535,0.996,4.225,0.725,5.07c-0.332,1.025-2.701,2.354-7.106,3.982c-4.375,1.63-6.713,2.082-7.015,1.358
		c-0.212-0.543-1.071-1.765-2.58-3.666l-3.982-4.888l-0.092,6.879c-0.029,2.686-0.18,4.149-0.452,4.391
		c-0.633,0.573-5.113,0.844-13.442,0.814c-9.655-0.03-17.65-0.86-23.987-2.489c-1.63-0.392-2.596-0.709-2.897-0.951
		c-0.724-0.573-1.433-1.991-2.126-4.254c-1.66-5.311-4.707-11.058-9.144-17.244c-4.164-5.763-8.976-11.134-14.438-16.113
		c-5.432-4.979-10.606-8.735-15.524-11.27c-5.22-2.686-9.369-3.545-12.446-2.58l-1.539-0.227
		c-10.47-5.069-24.396,2.851-41.775,23.762c-8.69,10.44-16.34,21.393-22.948,32.859h-18.33l-1.358-8.871l-2.308,2.716l-1.494,2.761
		l-1.312,2.399c-0.634,0.302-2.293-0.076-4.979-1.132l-11.405-3.982l-9.007-2.852c-1.509-0.453-2.414-1.026-2.716-1.72
		c-0.362-0.845-0.15-2.324,0.633-4.436l1.766-5.295l1.72-5.658c-1.177,0.996-3.289,3.561-6.337,7.694
		c-2.806,3.802-4.541,5.869-5.205,6.201c-0.996,0.453-4.39-1.026-10.184-4.436c-5.793-3.38-8.931-5.672-9.415-6.88
		c-0.271-0.664,1.464-2.896,5.206-6.698c4.133-4.225,9.143-8.66,15.026-13.307c16.324-12.945,32.074-21.996,47.252-27.156
		c16.264-5.552,30.61-7.589,43.042-6.11c11.858,1.388,23.385,6.155,34.579,14.302c11.286-7.936,24.788-11.602,40.509-10.999
		c15.026,0.573,30.671,4.933,46.935,13.08c11.346,5.733,22.253,13.036,32.723,21.906
		C353.919,112.647,358.414,117.309,358.656,119.18"/>
	<path fill="#E85382" d="M345.35,128.095l-2.716-3.982c-1.721-2.384-3.637-4.556-5.748-6.518c-2.323-2.202-3.576-3.017-3.757-2.443
		c-0.121,0.422,0.378,1.674,1.493,3.756c0.785,1.479,1.509,3.289,2.173,5.431l2.127,7.378c-2.293,1.569-5.823,2.911-10.591,4.027
		l-5.114-7.467c-3.018-4.285-4.646-6.141-4.888-5.567c-0.272,0.574-0.468,3.214-0.589,7.921l-0.226,8.373l-14.937,0.679
		c-8.479-0.09-15.162-1.026-20.05-2.806c-1.569-5.733-4.511-11.843-8.826-18.33c-4.163-6.307-9.067-12.13-14.709-17.471
		c-5.824-5.492-11.632-9.716-17.426-12.673c-6.246-3.199-11.827-4.556-16.746-4.073c-12.04-4.707-26.191,2.414-42.455,21.362
		c-8.901,10.319-16.957,22.102-24.169,35.349H143.76c-0.754-3.289-1.222-6.004-1.403-8.147l-0.136-3.168
		c-0.15-0.332-0.845,0.09-2.083,1.267l-3.802,3.938c-1.207,1.448-2.021,2.852-2.443,4.209c-3.983-0.725-12.145-3.289-24.486-7.694
		c2.414-7.996,4.18-13.624,5.295-16.882c0.785-2.293,1.072-3.485,0.86-3.575l-2.671,1.72c-1.931,1.328-4.209,3.304-6.833,5.929
		c-3.199,3.229-5.672,6.291-7.423,9.188c-3.048-0.785-6.064-2.067-9.052-3.848c-2.172-1.267-4.013-2.58-5.522-3.938
		c6.699-6.759,14.272-13.367,22.721-19.824c14.845-11.315,28.891-19.235,42.138-23.761c16.444-5.582,30.354-7.951,41.729-7.106
		c11.617,0.875,22.72,5.235,33.312,13.08l1.403,0.634c10.198-5.944,21.333-9.158,33.402-9.641
		c15.901-0.664,32.738,3.47,50.51,12.401c10.562,5.311,20.82,11.934,30.777,19.869c6.729,5.371,12.055,10.199,15.978,14.483
		c-0.846,1.418-2.489,2.958-4.934,4.617L345.35,128.095"/>
	<path fill="#C94772" d="M271.395,73.874c-10.953,2.927-20.005,8.252-27.156,15.977c-7.302-4.254-13.774-6.095-19.417-5.521
		c-3.983-1.539-8.268-1.765-12.854-0.679c-2.958-5.099-6.759-9.324-11.406-12.673c7.876,1.931,15.675,5.748,23.4,11.451l1.403,0.634
		C239.155,75.036,254.497,71.973,271.395,73.874"/>
	<path fill="#C94772" d="M316.565,89.715c8.961,5.1,17.591,11.074,25.888,17.923c5.733,4.707,10.26,8.886,13.579,12.537
		c-0.846,1.448-2.505,3.002-4.979,4.662C342.031,112.918,330.534,101.211,316.565,89.715"/>
	<path fill="#C94772" d="M165.304,129.046c-2.716,4.315-5.084,8.313-7.106,11.994h-12.717c9.142-13.095,20.397-23.626,33.763-31.592
		C174.537,115.271,169.89,121.804,165.304,129.046"/>
	<path fill="#0D131A" d="M262.659,82.881c-3.802-2.565-5.702-4.27-5.702-5.115c-0.122-1.116,0-2.203,0.361-3.259
		c0.362-1.146,0.966-1.976,1.81-2.489l0.092-0.09h0.135c9.987-0.182,20.442,1.463,31.365,4.933l0.544,0.181l-0.634,1.494
		c-1.479,3.349-2.701,5.763-3.667,7.242c-2.141,3.229-4.51,5.22-7.104,5.974C277.866,92.325,272.134,89.368,262.659,82.881"/>
	<path fill="#FCEEF4" d="M259.989,73.195c9.294-0.121,19.1,1.418,29.419,4.616l-0.18,0.408c-1.237,2.806-2.385,4.964-3.44,6.472
		c-1.932,2.776-4.073,4.511-6.427,5.205c-0.514,0.151-1.614-0.12-3.304-0.814c-1.962-0.814-4.33-2.037-7.106-3.666
		c-2.928-1.72-5.447-3.364-7.559-4.934c-1.87-1.418-2.851-2.323-2.942-2.715l-0.045-0.679
		C258.405,75.247,258.933,73.949,259.989,73.195"/>
	<path fill="#D9CED4" d="M259.989,73.195l12.945,0.86l-6.789,1.358c-2.656,0.604-5.131,1.539-7.424,2.806l-0.271-0.453l-0.045-0.679
		C258.405,75.247,258.933,73.949,259.989,73.195"/>
	<path fill="#0D131A" d="M283.932,105.465c5.551-2.293,9.564-3.138,12.039-2.535c2.806,0.664,5.023,4.074,6.652,10.229
		c1.479,5.612,1.781,9.61,0.905,11.994c-0.754,2.112-3.604,3.787-8.554,5.024l-7.241,1.176c-2.384,0.513-6.668-1.735-12.854-6.744
		l-0.091-0.09l-4.661-9.188C273.024,111.35,277.625,108.06,283.932,105.465"/>
	<path fill="#FCEEF4" d="M285.199,106.506c5.068-2.051,8.629-2.836,10.681-2.353c0.544,0.15,1.418,1.327,2.625,3.53
		c1.086,1.992,1.946,4.073,2.58,6.246c0.725,2.383,1.086,4.556,1.086,6.518c0,1.448-0.196,2.715-0.588,3.802
		c-1.057,2.896-5.28,4.707-12.673,5.431l-0.996,0.136c-1.871,0.422-5.461-1.479-10.771-5.703l-3.848-6.201l-1.267-2.308
		C274.834,111.893,279.225,108.86,285.199,106.506"/>
	<path fill="#0D131A" d="M321.633,98.45c6.759,3.561,10.485,5.899,11.18,7.015c0.181,0.332,0.181,0.664,0,0.996
		c-0.604,1.086-3.439,2.701-8.51,4.843c-4.857,2.052-7.875,3.078-9.052,3.078c-1.206,0-3.409-1.645-6.608-4.934
		c-3.138-3.229-4.902-5.582-5.295-7.061c-0.393-1.629-0.03-3.364,1.086-5.205c0.482-0.784,1.253-1.569,2.309-2.354
		c1.026-0.754,1.886-1.207,2.58-1.358C310.651,93.169,314.754,94.829,321.633,98.45"/>
	<path fill="#FCEEF4" d="M330.686,106.008c-0.242,0.694-2.564,1.992-6.971,3.893c-4.345,1.84-7.091,2.761-8.237,2.761
		c-0.814,0-2.686-1.464-5.612-4.391c-2.957-2.957-4.616-5.114-4.979-6.473c-0.362-1.297-0.046-2.73,0.95-4.299
		c0.875-1.388,1.855-2.203,2.942-2.444c1.116-0.241,4.902,1.312,11.36,4.662C326.446,102.946,329.96,105.043,330.686,106.008"/>
	<path fill="#0D131A" d="M179.924,68.443l0.814-0.046l-0.272,0.725l-2.036,7.785c-1.117,4.164-1.946,6.396-2.489,6.698
		c-0.966,0.453-4.42,0.543-10.365,0.271c-6.065-0.302-9.656-0.814-10.772-1.539l-0.679-0.543l-0.407-0.498
		c0-0.513,1.312-2.338,3.938-5.476l3.938-4.572l1.312-0.86l8.825-1.358L179.924,68.443"/>
	<path fill="#FCEEF4" d="M178.973,69.483l-1.449,5.974l-0.996,4.165c-0.393,1.327-0.785,2.097-1.177,2.308
		c-0.845,0.422-3.999,0.468-9.459,0.135c-5.462-0.332-8.57-0.754-9.324-1.267c0.15-0.785,1.659-2.912,4.525-6.381l1.675-2.082
		C168.532,70.887,173.933,69.936,178.973,69.483"/>
	<path fill="#0D131A" d="M139.552,95.508c8.479-4.375,13.201-6.487,14.166-6.336c1.026,0.181,3.002,3.877,5.929,11.089
		c2.896,7.121,4.33,11.617,4.3,13.487c-0.031,2.142-4.497,4.043-13.397,5.703c-8.811,1.63-13.594,1.856-14.348,0.679l-5.567-7.242
		c-3.47-4.676-5.099-7.452-4.887-8.328C126.139,103.021,130.74,100.004,139.552,95.508"/>
	<path fill="#FCEEF4" d="M127.739,105.013c0.271-1.026,4.285-3.576,12.039-7.649c7.604-3.983,12.07-6.02,13.397-6.11
		c0.815,0.543,2.504,3.908,5.069,10.093c2.596,6.276,3.893,10.274,3.893,11.994v0.045l-0.679,0.86
		c-0.815,0.604-2.157,1.207-4.028,1.811c-3.682,1.207-7.845,2.052-12.492,2.534c-4.375,0.483-6.774,0.438-7.196-0.136l-2.988-3.53
		c-4.677-5.16-7.015-8.388-7.015-9.686V105.013"/>
	<path fill="#0D131A" d="M176.121,90.711c1.207-1.751,2.067-2.761,2.58-3.033c2.082-1.025,5.521-1.674,10.319-1.946
		c6.276-0.332,10.289,0.965,12.039,3.893l0.271,0.453l-0.407,0.271c-4.497,2.927-9.097,6.85-13.804,11.768l-0.182,0.182
		l-0.271-0.045l-7.151-0.951l-6.563-0.86c-1.176-0.241-1.841-0.558-1.991-0.95c-0.12-0.211-0.105-0.438,0.045-0.679l1.403-2.218
		L176.121,90.711"/>
	<path fill="#FCEEF4" d="M180.014,88.538c1.539-0.785,4.465-1.343,8.781-1.675c5.491-0.392,9.157,0.453,10.998,2.535
		c-4.043,2.776-8.374,6.547-12.989,11.315l-6.382-0.815l-7.377-1.132l1.221-1.946C177.404,91.631,179.32,88.87,180.014,88.538"/>
	<path fill="#DBDCDC" d="M275.965,371.551c1.569,0.966,3.455,2.52,5.658,4.662c2.354,2.263,3.546,3.771,3.576,4.525
		c0.09,0.875-0.649,2.52-2.218,4.934c-1.449,2.263-2.807,4.014-4.074,5.251c0.181-4.104,0.121-7.438-0.181-10.003
		C278.304,377.329,277.384,374.206,275.965,371.551"/>
</g>
</svg>
