<?xml version="1.0" encoding="utf-8"?>
<!-- Generator: Adobe Illustrator 16.0.0, SVG Export Plug-In . SVG Version: 6.00 Build 0)  -->
<!DOCTYPE svg PUBLIC "-//W3C//DTD SVG 1.1//EN" "http://www.w3.org/Graphics/SVG/1.1/DTD/svg11.dtd">
<svg version="1.1" id="Layer_1" xmlns="http://www.w3.org/2000/svg" xmlns:xlink="http://www.w3.org/1999/xlink" x="0px" y="0px"
	 width="456px" height="415px" viewBox="0 0 456 415" enable-background="new 0 0 456 415" xml:space="preserve">
<g>
	<path fill="#0D131A" d="M393.194,199.607c13.699,10.983,24.154,23.173,31.365,36.57c5.794,10.741,8.689,20.308,8.689,28.695
		c0,10.953-4.209,22.117-12.627,33.493c-8.116,10.982-18.376,19.869-30.776,26.658c2.806,2.985,4.812,5.369,6.02,7.149
		c1.629,2.415,2.443,4.526,2.444,6.337c-0.001,0.604-0.271,1.357-0.815,2.264l-1.312,2.082c-3.14,6.246-13.774,10.107-31.909,11.586
		c-14.333,1.178-28.001,0.83-41.006-1.041c-9.504-1.389-17.636-3.635-24.396-6.743c-1.51-0.663-5.839-3.138-12.989-7.423
		c-3.138-1.9-5.401-3.092-6.789-3.575c-2.144-0.784-4.33-0.937-6.562-0.453c-30.929,6.608-54.523,8.842-70.788,6.699
		c-8.388-1.117-16.248-3.41-23.579-6.88c-6.669-3.168-13.729-7.739-21.183-13.713c-22.842-15.781-38.954-32.771-48.338-50.965
		c-9.414-18.225-11.27-36.013-5.567-53.361c3.169-9.655,8.585-18.617,16.249-26.884c7.664-8.297,17.094-15.374,28.288-21.227
		c11.678-6.125,24.577-10.651,38.698-13.578c14.183-2.957,29.059-4.209,44.626-3.757c37.989,1.086,71.451,6.352,100.388,15.796
		C355.764,175.332,376.388,186.089,393.194,199.607"/>
	<path fill="#5DC1CF" d="M387.672,326.834c1.688,1.025,3.334,3.229,4.934,6.607c1.75,3.621,2.157,6.365,1.222,8.236
		c-2.685,5.372-12.234,8.66-28.648,9.867c-13.397,0.967-26.463,0.527-39.195-1.312c-9.535-1.357-17.803-3.426-24.803-6.2
		c-4.073-1.599-8.705-3.968-13.896-7.105c-3.409-2.021-5.885-3.305-7.423-3.847c-2.564-0.876-5.189-1.042-7.876-0.499
		c-27.396,5.644-49.272,7.499-65.627,5.567c-16.385-1.961-32.347-8.312-47.885-19.056c-22.298-15.418-38.049-31.952-47.252-49.604
		c-9.233-17.683-11.104-34.911-5.612-51.688c6.428-19.613,21.304-35.333,44.627-47.162c23.324-11.828,50.208-17.304,80.654-16.43
		c53.92,1.569,96.253,9.837,127,24.803c30.747,14.996,53.241,38.335,67.482,70.018c6.549,14.514,3.683,30.309-8.601,47.388
		c-4.495,6.246-9.851,12.068-16.066,17.471c-5.22,4.525-9.745,7.725-13.577,9.596c-5.371,2.654-7.304,4.088-5.794,4.3
		C382.331,327.936,384.444,327.618,387.672,326.834"/>
	<path fill="#50A8B4" d="M158.474,319.094l-5.794-4.162c16.717,0.028,35.938-2.067,57.662-6.293l57.164-12.809
		c3.139,12.521,7.182,24.923,12.13,37.204c-2.504-0.845-5.054-0.996-7.649-0.453c-27.396,5.644-49.272,7.499-65.627,5.567
		C189.975,336.188,174.013,329.836,158.474,319.094"/>
	<path fill="#50A8B4" d="M392.332,283.203c1.027-4.678-0.015-9.671-3.122-14.98c-2.807-4.798-6.743-8.992-11.812-12.584
		c-5.009-3.59-9.776-5.643-14.303-6.154c-4.919-0.573-8.494,0.858-10.728,4.301c0.635-1.057,0.362-2.776-0.814-5.16
		c-1.237-2.505-3.258-5.221-6.064-8.146c-7.029-7.271-15.991-13.051-26.885-17.334c-13.729-5.432-28.348-7.379-43.855-5.84
		c-18.979,1.9-38.262,8.992-57.844,21.272c-7.814,4.888-16.036,6.229-24.667,4.028c-6.939-1.812-14.83-6.201-23.671-13.172
		c-2.504-1.99-10.244-8.811-23.218-20.457c-9.414-8.479-17.184-14.454-23.31-17.924c11.496-12.009,26.778-21.287,45.849-27.835
		c19.402-6.639,40.402-9.641,63.002-9.007c53.92,1.569,96.253,9.837,127,24.803c30.747,14.996,53.241,38.335,67.482,70.018
		c6.549,14.514,3.683,30.309-8.601,47.388c-4.495,6.246-9.851,12.068-16.066,17.471c-5.22,4.525-9.745,7.725-13.577,9.596
		c-5.371,2.654-7.304,4.088-5.794,4.3c0.996,0.151,3.107-0.166,6.337-0.95c1.688,1.025,3.334,3.229,4.934,6.607
		c1.75,3.621,2.157,6.365,1.222,8.236c-1.356,2.746-4.646,4.965-9.865,6.653c-4.588,1.51-10.472,2.55-17.652,3.124
		c-0.15-5.069-1.297-9.581-3.439-13.533c-1.778-3.229-3.787-5.477-6.02-6.744C377.609,312.35,389.437,296.357,392.332,283.203"/>
	<path fill="#0D131A" d="M379.116,343.398c2.988,3.5,4.33,6.004,4.028,7.514c-0.452,2.082-1.191,4.299-2.218,6.652
		c-1.357,3.019-2.594,4.513-3.711,4.481c-2.986-0.062-6.246-0.847-9.776-2.354c-3.168-1.326-6.2-3.076-9.097-5.25
		c-0.453-0.301-0.726-0.647-0.815-1.041c-0.181-0.725,0.257-1.795,1.313-3.213c7.09-9.232,11.602-13.487,13.531-12.765
		C374.032,338.059,376.281,340.05,379.116,343.398"/>
	<path fill="#FFFFFF" d="M378.166,345.346c2.354,2.926,3.426,4.948,3.215,6.063c-0.271,1.389-0.951,2.942-2.037,4.661
		c-1.146,1.722-2.066,2.582-2.762,2.582c-1.418,0-4.163-0.62-8.236-1.857c-4.437-1.387-7.091-2.594-7.966-3.62
		c0.15-0.875,1.312-2.7,3.484-5.477c2.413-3.048,4.616-5.234,6.608-6.562c1.024-0.694,1.719-0.995,2.081-0.905
		C373.974,340.773,375.844,342.479,378.166,345.346"/>
	<path fill="#DBDCDC" d="M372.6,340.275c1.419,0.572,3.29,2.277,5.612,5.115c2.323,2.926,3.38,4.934,3.169,6.019
		c-0.271,1.237-0.859,2.61-1.766,4.118C378.287,350.369,375.948,345.285,372.6,340.275"/>
	<path fill="#0D131A" d="M401.701,335.297c4.255,4.225,6.081,7.092,5.479,8.6c-1.178,2.897-4.813,4.799-10.908,5.703
		c-2.384,0.362-4.436,0.407-6.156,0.137c-1.778-0.271-2.608-0.801-2.488-1.584c0.302-2.021,1.116-5.553,2.443-10.592
		c1.298-5.009,2.067-7.559,2.31-7.648C394.311,329.188,397.418,330.982,401.701,335.297"/>
	<path fill="#DBDCDC" d="M390.433,346.296l-0.091-0.815c0-1.478,0.527-3.922,1.585-7.332c0.935-3.078,1.705-5.145,2.308-6.199
		c1.117,0.662,2.928,2.474,5.433,5.432c2.625,3.107,3.938,5.145,3.938,6.109v0.045c-0.061,0.604-0.996,1.328-2.807,2.173
		c-1.961,0.937-3.982,1.522-6.064,1.767C392.198,347.773,390.765,347.381,390.433,346.296"/>
	<path fill="#0D131A" d="M353.23,329.277l18.466-1.538c1.78-0.242,2.641-0.062,2.58,0.543c-0.061,0.544-0.74,1.101-2.037,1.675
		c-1.659,0.754-7.604,1.282-17.833,1.584c-11.255,0.361-18.69-0.182-22.312-1.63l0.407-1.222
		C335.427,329.654,342.336,329.852,353.23,329.277"/>
	<path fill="#0D131A" d="M354.677,232.828c0.332-2.021,0.755-3.032,1.268-3.032c0.543,0,0.785,1.011,0.726,3.032
		c-0.573,14.333-3.787,26.13-9.642,35.395c-6.246,9.865-15.946,17.545-29.103,23.036l-0.771-1.854
		c11.798-4.92,20.91-13.172,27.338-24.758C349.2,256.167,352.596,245.561,354.677,232.828"/>
	<path fill="#0D131A" d="M210.659,139.456l0.95,0.859l-42.408,29.736c-0.725,0.453-8.088,2.927-22.086,7.423
		c-14.152,4.496-21.545,6.683-22.179,6.563c-0.543-0.121-1.931-4.119-4.165-11.994l-4.569-16.339l-5.387,32.361
		c-12.673,3.832-19.28,5.537-19.823,5.114c-0.303-0.241-0.453-3.047-0.453-8.418l-0.09-14.528l-5.84,26.794l-6.336,2.037
		c-4.314,1.297-6.714,1.75-7.195,1.357c-0.483-0.392-1.133-2.866-1.946-7.422l-1.901-10.546l-5.838,20.593
		c-5.492,2.746-8.585,3.848-9.277,3.304c-0.393-0.302-0.694-1.991-0.906-5.069l-0.588-7.785l-4.164,14.801
		c-7.694,1.779-11.692,2.396-11.994,1.854c-0.211-0.361,0.799-3.408,3.032-9.143l4.979-12.854L24.73,205.898
		c-1.117,1.056-1.734,1.207-1.855,0.453l0.181-1.494l8.374-24.305l16.43-8.735l-13.714,3.711l11.632-15.253l19.779-8.78
		l-10.817,2.173c-4.135,0.844-6.307,1.116-6.518,0.814c-0.242-0.332,3.243-3.531,10.455-9.595c7.182-6.005,11.18-9.143,11.994-9.414
		l8.374-0.634l12.175-0.588c-3.47-1.207-6.367-2.429-8.69-3.667l-1.629-0.679c-0.06-0.09,0.515-0.453,1.722-1.086
		c23.746-12.341,46.769-17.772,69.065-16.294C175.01,114.065,194.667,123.042,210.659,139.456"/>
	<path fill="#00A63C" d="M85.333,129.815c24.108-10.983,46.588-15.6,67.438-13.85c20.879,1.72,39.406,9.761,55.579,24.124
		l-42.092,28.333c-26.04,8.992-39.376,13.352-40.01,13.081c-0.453-0.211-2.082-4.813-4.889-13.805
		c-2.806-9.021-4.313-14.559-4.525-16.61c-0.242-2.112-0.573-2.882-0.996-2.309c-0.483,0.573-1.147,2.731-1.992,6.473
		c-1.176,5.099-2.776,15.494-4.797,31.184l-16.112,4.209l-0.68-28.831c-0.09-2.414-0.241-3.681-0.452-3.802
		c-0.242-0.181-0.754,1.026-1.539,3.621c-1.117,3.65-3.56,14.905-7.332,33.764l-10.365,2.58c-2.264-9.143-3.681-15.781-4.255-19.915
		c-0.392-2.746-0.738-3.953-1.041-3.621l-0.904,3.576l-6.563,23.309l-5.839,1.177l-0.95-5.839c-0.543-3.439-0.92-6.125-1.132-8.056
		c-0.241-2.323-0.453-3.485-0.634-3.485c-0.182,0.03-0.619,1.146-1.312,3.349c-0.875,2.897-2.563,8.917-5.068,18.059l-7.378,1.131
		l8.374-23.083c0.784-2.021,0.755-2.806-0.091-2.354l-1.539,1.313L26.36,201.417l6.698-19.462
		c12.462-6.879,20.308-11.043,23.536-12.491c5.16-2.354,4.918-2.972-0.724-1.856c-2.444,0.483-5.432,1.237-8.961,2.263l-7.604,2.218
		l7.74-10.184l11.768-5.205l14.891-6.653c2.475-1.116,3.727-1.766,3.757-1.946c0.029-0.272-1.403-0.257-4.3,0.045l-9.414,1.494
		l-8.645,1.629l16.384-13.85l11.542-0.633l13.488-0.815c1.599-0.15,2.414-0.332,2.444-0.543c0-0.211-0.726-0.679-2.173-1.403
		c-0.905-0.452-2.642-1.086-5.205-1.901C88.894,131.279,86.812,130.509,85.333,129.815"/>
	<path fill="#009233" d="M119.641,140.406c-0.814,0-2.021-0.89-3.621-2.67l-5.159-5.657c-5.25-5.281-10.53-7.408-15.841-6.382
		c22.117-8.63,42.756-11.723,61.916-9.278c19.19,2.414,36.329,10.304,51.416,23.671l-40.733,27.428
		c-5.1-7.181-12.101-13.336-21.001-18.466C137.413,143.71,128.422,140.829,119.641,140.406"/>
	<path fill="#0D131A" d="M188.074,130.584l8.464,7.423l-3.305,0.859c-2.533-0.845-5.974-1.629-10.318-2.354
		c-8.601-1.388-17.683-1.78-27.247-1.176c-30.385,1.901-59.789,13.352-88.213,34.353l-2.309,1.674
		c-1.117,0.634-0.619-0.256,1.494-2.67c13.095-15.057,30.022-26.13,50.782-33.221C139.903,127.809,163.453,126.179,188.074,130.584"
		/>
	<path fill="#00A63C" d="M192.057,136.786c-17.35-3.621-32.935-4.526-46.754-2.715c-21.634,2.836-44.4,11.994-68.297,27.473
		c13.094-12.25,29.208-20.971,48.337-26.161c19.824-5.401,40.734-6.397,62.73-2.987l0.77,1.448
		C189.568,134.93,190.639,135.91,192.057,136.786"/>
	<path fill="#009233" d="M188.074,132.396l0.77,1.448c0.724,1.086,1.795,2.066,3.213,2.942c-11.587-2.444-21.831-3.682-30.731-3.711
		c-13.276-0.09-26.733,2.127-40.372,6.653l-2.852-2.172c10.5-3.531,21.589-5.749,33.267-6.654
		C163.377,129.966,175.613,130.464,188.074,132.396"/>
	<path fill="#00A63C" d="M288.281,105.375l0.316,0.136l0.182,0.316c2.293,3.38,3.5,6.956,3.621,10.727
		c0.15,3.802-0.8,7.468-2.852,10.998c-4.104,7.062-11.692,12.583-22.766,16.565c-13.187,4.707-29.404,6.336-48.655,4.888
		c-2.565-0.211-4.179-1.312-4.843-3.304c-0.875-2.625,0.181-6.367,3.168-11.225c2.986-4.828,7.226-9.67,12.718-14.529
		c7.09-6.276,14.664-11.058,22.72-14.347C265.137,100.17,277.267,100.095,288.281,105.375"/>
	<path fill="#009233" d="M286.787,107.638c1.99,3.048,2.986,6.246,2.986,9.595c0,3.078-0.846,6.065-2.535,8.961
		c-3.86,6.668-11.134,11.874-21.814,15.615c-12.703,4.405-28.408,5.914-47.116,4.526c-1.388-0.091-2.218-0.588-2.489-1.493
		c-0.664-1.871,0.348-4.934,3.033-9.188c2.896-4.556,6.925-9.128,12.084-13.714c6.729-5.944,13.91-10.515,21.544-13.713
		C265.031,103.006,276.468,102.81,286.787,107.638"/>
	<path fill="#0D131A" d="M249.493,70.389c4.071,2.112,6.758,4.797,8.056,8.056c4.677,11.888,7.241,22.6,7.694,32.135
		c0.513,10.35-1.282,21.815-5.387,34.397c-0.966,2.987-3.273,5.763-6.926,8.328c-3.802,2.716-8.479,4.752-14.03,6.11
		c-7.754,1.901-15.268,2.293-22.539,1.177c-8.811-1.358-15.51-4.888-20.096-10.591c-8.841-11.073-11.873-25.511-9.098-43.314
		c0.966-6.216,2.596-12.386,4.889-18.511c1.72-4.708,3.351-8.268,4.888-10.682c2.655-4.254,7.846-7.407,15.569-9.459
		c6.94-1.841,14.152-2.414,21.635-1.72C240.305,66.919,245.419,68.276,249.493,70.389"/>
	<path fill="#C28600" d="M255.06,79.441c4.496,11.375,6.939,22.102,7.332,32.18c0.452,10.531-1.267,21.454-5.16,32.769
		c-0.844,2.444-2.926,4.797-6.246,7.061c-3.5,2.354-7.754,4.148-12.763,5.386c-7.513,1.871-14.648,2.323-21.408,1.358
		c-8.448-1.177-14.62-4.481-18.512-9.913c-7.603-10.621-10.199-24.456-7.785-41.503c0.875-6.004,2.31-11.918,4.3-17.742
		c1.569-4.617,3.019-7.996,4.346-10.139c2.413-3.832,7.211-6.653,14.393-8.464c6.519-1.629,13.306-2.112,20.367-1.448
		c5.553,0.513,10.184,1.69,13.895,3.531C251.56,74.387,253.974,76.695,255.06,79.441"/>
	<path fill="#986A00" d="M255.06,79.441c3.802,9.686,6.142,18.843,7.017,27.473c0.874,9.022,0.239,18.149-1.901,27.383
		c-11.888-9.022-23.973-16.852-36.253-23.49c-16.052-8.629-26.87-11.798-32.452-9.505c0.995-4.918,2.339-9.655,4.028-14.212
		c1.356-3.681,2.58-6.412,3.666-8.192c2.413-3.832,7.211-6.653,14.393-8.464c6.519-1.629,13.306-2.112,20.367-1.448
		c5.553,0.513,10.184,1.69,13.895,3.531C251.56,74.387,253.974,76.695,255.06,79.441"/>
	<path fill="#0D131A" d="M244.107,93.2c0.361-0.121,1.812,1.373,4.346,4.48l4.346,5.386c2.866-3.953,5.311-7.045,7.331-9.279
		l0.905-0.996l0.227,1.358c0.846,4.677,1.735,8.766,2.671,12.266c0.362,2.112,0.181,5.521-0.543,10.229l0.227,4.3l-1.177,1.765
		l-2.398,5.703l-3.667,8.374l-0.725,1.403l-5.566-16.429l-7.875,15.705l-6.743-12.129l-7.875,11.857l-7.921-10.545l-6.788,13.579
		l-6.834-14.937l-7.288,8.509l-1.269,1.222l-1.221-1.494l-7.876-11.541v-0.227c-0.149-9.263,1.103-18.979,3.757-29.148l0.363-1.312
		l5.883,7.83l3.531-3.847c2.021-2.172,3.273-3.199,3.756-3.078s1.343,2.746,2.58,7.875l2.173,9.188l5.114-8.463
		c2.836-4.768,4.436-7.167,4.797-7.197c0.363-0.03,1.449,1.766,3.259,5.386l3.213,6.427l3.485-6.201
		c1.931-3.5,3.078-5.281,3.439-5.341c0.393-0.061,1.435,1.976,3.123,6.11l3.214,7.875l1.945-8.147
		C243.021,95.493,243.714,93.32,244.107,93.2"/>
	<path fill="#C28600" d="M260.174,95.78c1.268,7.151,1.901,12.824,1.901,17.018l-0.138,3.666l-0.679,4.3
		c-0.181,0.271-0.936,2.293-2.263,6.064l-3.078,7.921l-2.896-9.912c-1.568-5.371-2.443-8.042-2.626-8.011
		c-0.211,0-1.522,2.716-3.938,8.146l-4.3,9.641l-3.575-7.649c-1.9-4.194-2.957-6.231-3.168-6.11
		c-0.183,0.121-1.449,2.323-3.804,6.608l-4.118,7.423l-4.48-7.016c-2.595-3.982-3.998-5.899-4.208-5.748
		c-0.212,0.151-1.132,2.459-2.761,6.925l-3.123,8.102l-3.351-8.735c-1.841-4.827-2.881-7.317-3.122-7.468
		c-0.242-0.151-1.569,1.569-3.983,5.16l-4.209,6.201l-8.509-10.772l-0.045-1.177c0-8.147,1.131-16.822,3.394-26.024l2.127,3.394
		l1.812,2.988l0.904,1.176c0.182,0.121,0.528-0.075,1.041-0.588c2.716-2.715,4.603-4.479,5.657-5.295l2.444,8.463
		c1.479,4.918,2.459,7.483,2.94,7.694c0.453,0.211,2.204-1.946,5.25-6.473l5.205-7.92l3.123,5.612
		c1.75,3.017,2.806,4.511,3.168,4.48c0.362-0.03,1.463-1.448,3.303-4.254l3.351-5.341l3.847,7.061l3.123,5.974l4.346-14.347
		l8.191,8.147l0.453-0.634l2.354-3.123L260.174,95.78"/>
	<path fill="#986A00" d="M200.024,100.306c2.354-2.323,3.893-3.757,4.616-4.299l1.72,6.109L200.024,100.306"/>
	<path fill="#986A00" d="M193.098,94.332c0.665,0.905,1.706,2.64,3.123,5.205l-4.164-0.588L193.098,94.332"/>
	<path fill="#986A00" d="M244.74,96.957l8.19,8.147l0.453-0.634l2.354-3.123l4.437-5.567c1.268,7.151,1.901,12.824,1.901,17.018
		l-0.138,3.666l-0.679,4.3l-1.766,4.616l-2.624,7.196l-2.036-1.403c-2.746-9.595-4.227-14.378-4.438-14.348
		c-0.211,0-1.554,2.761-4.026,8.283c-6.519-4.707-11.542-8.207-15.072-10.5c-5.703-3.681-11.029-6.668-15.979-8.961l5.16-7.875
		l3.123,5.612c1.75,3.017,2.807,4.511,3.168,4.48c0.362-0.03,1.463-1.448,3.304-4.254l3.35-5.341l3.847,7.061l3.123,5.974
		L244.74,96.957"/>
	<path fill="#C28600" d="M255.919,134.749l-1.085-3.576l2.036,1.403L255.919,134.749"/>
	<path fill="#0D131A" d="M329.828,51.968l1.357,1.811l-100.34,15.297l-97.265-24.214l7.604-8.418
		c5.371-5.28,9.263-7.739,11.677-7.377c0.725,0.121,2.067,0.604,4.028,1.448l5.159,2.172l-3.123-3.439
		c-1.056-1.237-1.267-1.992-0.634-2.263c3.168-1.509,7.62-3.002,13.353-4.481c9.384-2.475,17.5-3.274,24.351-2.399
		c9.021,1.177,21,10.304,35.936,27.383c3.924-6.639,6.76-11.21,8.51-13.714c4.769-6.759,8.901-10.787,12.401-12.084
		c4.194-1.569,10.032-2.323,17.516-2.263c6.76,0.061,10.364,0.453,10.817,1.177c0.241,0.422-0.347,1.855-1.766,4.299l-3.032,5.25
		c8.057-4.556,12.99-6.789,14.801-6.699c5.551,0.422,13.548,5.175,23.986,14.257C322.437,44.017,327.324,48.77,329.828,51.968"/>
	<path fill="#E85382" d="M309.055,36.443c8.268,6.427,14,11.557,17.198,15.388L230.981,66.36l-93.372-22.585
		c1.901-2.444,3.894-4.602,5.975-6.472c3.107-2.836,5.943-4.602,8.509-5.295c2.354,0.664,6.804,2.278,13.352,4.843l4.437,1.765
		l-8.147-10.727c4.707-1.629,9.385-2.912,14.031-3.847c7.695-1.599,14.318-2.037,19.87-1.312c6.034,0.784,13.653,5.401,22.854,13.85
		c4.617,4.225,8.66,8.418,12.131,12.583l1.267,1.494l0.95-1.675l7.242-11.27c5.491-7.664,10.062-12.175,13.714-13.533
		c3.621-1.388,8.07-2.188,13.353-2.399c4.465-0.181,8.146,0.045,11.043,0.679c-1.6,1.931-3.062,4.225-4.391,6.88l-1.584,3.575
		l-1.177,3.439l3.123-1.81l7.016-4.299c4.827-2.837,7.785-4.315,8.871-4.436C293.214,25.505,299.55,29.051,309.055,36.443"/>
	<path fill="#C94772" d="M317.565,43.459c4.224,3.711,7.12,6.502,8.688,8.373L230.981,66.36l-87.441-21.137
		c13.669-0.271,24.335-0.151,31.999,0.363c11.798,0.724,22.479,2.458,32.045,5.205c-2.716-7.604-6.382-14.031-10.998-19.281
		c-4.014-4.587-8.011-7.528-11.995-8.826c4.043-0.392,7.725-0.377,11.044,0.045c6.034,0.784,13.653,5.401,22.854,13.85
		c4.617,4.225,8.66,8.418,12.131,12.583l1.267,1.494l0.045-0.091c1.631,2.263,3.274,3.667,4.935,4.209
		c4.736,1.328,9.46,1.177,14.167-0.453c2.927-0.996,7.406-3.334,13.441-7.016c6.669-4.043,12.16-6.97,16.476-8.78
		c7.271-3.047,15.012-4.963,23.219-5.748C308.451,35.825,312.916,39.385,317.565,43.459"/>
	<path fill="#0D131A" d="M248.135,34.633c1.539,0.845,2.896,1.961,4.073,3.349c0.814,0.905,1.464,1.825,1.945,2.761
		c0.514,1.026,0.681,1.78,0.498,2.263c-0.241,0.604-1.629,1.312-4.164,2.127c-2.865,0.875-5.688,1.297-8.464,1.267
		c-3.289-0.061-5.942-0.77-7.966-2.127l-0.407-0.271l0.271-0.407c2.052-3.319,4.3-6.562,6.743-9.73l0.137-0.136l0.136-0.046
		C243.382,33.079,245.781,33.396,248.135,34.633"/>
	<path fill="#FCEEF4" d="M250.669,37.756c0.936,0.935,1.705,1.916,2.309,2.941c0.482,0.875,0.726,1.494,0.726,1.855v0.045
		c-0.151,0.242-0.755,0.573-1.812,0.996l-4.163,1.176l-5.703,0.589c-2.836-0.061-5.159-0.619-6.971-1.675
		c2.234-3.47,4.33-6.487,6.291-9.052c1.902-0.453,3.788-0.257,5.659,0.588C248.331,35.795,249.553,36.64,250.669,37.756"/>
	<path fill="#0D131A" d="M285.927,35.719c0.514-0.302,1.614-0.045,3.304,0.769c3.289,1.569,6.624,3.938,10.003,7.106
		c4.314,4.134,7,8.283,8.058,12.446l0.135,0.498l-17.152,2.625l-0.182-0.045c-3.59-1.72-6.366-3.953-8.327-6.699
		c-1.479-1.931-1.826-4.556-1.042-7.875c0.514-1.961,1.344-3.877,2.489-5.748C284.268,37.107,285.172,36.082,285.927,35.719"/>
	<path fill="#D9CED4" d="M286.334,36.625c0.361-0.181,1.419,0.181,3.168,1.086c3.318,1.72,6.503,4.074,9.551,7.061
		c3.681,3.651,6.05,7.302,7.105,10.953l-15.751,2.444c-3.409-1.69-6.034-3.802-7.875-6.337c-0.814-1.086-1.223-2.458-1.223-4.118
		c0-0.905,0.136-1.871,0.407-2.897c0.482-1.901,1.267-3.741,2.354-5.521C285.007,37.756,285.761,36.866,286.334,36.625"/>
	<path fill="#0D131A" d="M280.632,28.93l-0.136,1.041c-0.333,1.931-1.013,3.787-2.037,5.567c-1.207,2.082-2.609,3.5-4.209,4.254
		l-7.017,0.181c-2.383-0.573-4.284-1.373-5.703-2.399c-0.754-0.573-1.115-1.116-1.086-1.629c0.182-1.358,0.482-2.701,0.905-4.028
		c0.784-2.655,1.72-4.013,2.806-4.074l2.627-0.226l8.961-0.543h0.859l-0.452,0.77c-1.057,1.72-1.933,3.44-2.626,5.16L280.632,28.93"
		/>
	<path fill="#FCEEF4" d="M264.201,28.839l2.671-0.226l7.559-0.498c-0.573,1.056-1.101,2.157-1.584,3.304l-0.634,1.494l-1.177,3.439
		l7.966-4.842c-0.453,1.539-1.116,2.912-1.991,4.119c-0.937,1.357-2.007,2.308-3.214,2.851c-1.479,0.694-3.439,0.83-5.884,0.408
		c-2.232-0.362-4.06-1.011-5.477-1.946l-0.996-0.906c0.15-1.387,0.497-2.881,1.041-4.48C263.116,29.775,263.69,28.87,264.201,28.839
		"/>
	<path fill="#0D131A" d="M209.302,27.753l0.588,0.407l-0.543,0.453c-2.353,1.78-5.703,3.877-10.047,6.291
		c-5.16,2.897-8.252,4.134-9.278,3.711c-1.057-0.422-1.962-1.705-2.716-3.847c-0.845-2.414-0.755-4.45,0.272-6.11
		c0.875-1.388,2.142-2.686,3.802-3.893c1.931-1.388,3.998-2.308,6.201-2.761l0.09-0.045l0.135,0.045
		C201.185,22.941,205.016,24.857,209.302,27.753"/>
	<path fill="#FCEEF4" d="M190.564,36.986c-0.664-0.241-1.268-1.131-1.81-2.67c-0.333-1.117-0.498-2.097-0.498-2.942
		c0-0.845,0.166-1.569,0.498-2.173c0.754-1.237,1.916-2.398,3.484-3.485c1.721-1.207,3.53-2.021,5.432-2.444
		c2.988,0.815,6.366,2.475,10.138,4.979c-2.383,1.72-5.658,3.651-9.821,5.793C193.672,36.277,191.197,37.258,190.564,36.986"/>
	<path fill="#D9CED4" d="M202.015,31.872c-3.38-2.323-6.759-4.285-10.138-5.884c1.87-1.388,3.802-2.293,5.793-2.716
		c2.988,0.815,6.366,2.475,10.138,4.979C206.239,29.398,204.308,30.605,202.015,31.872"/>
	<path fill="#0D131A" d="M170.333,28.206c3.649-0.241,5.959,0.061,6.925,0.905c0.784,0.694,1.041,1.991,0.769,3.892
		c-0.271,1.841-0.966,3.697-2.082,5.567c-2.806,4.767-6.11,6.517-9.912,5.25c-3.561-0.905-6.201-4.42-7.921-10.545l0.317-1.041
		l6.064,2.308l-2.896-3.802l0.407-0.317C163.725,29.156,166.5,28.417,170.333,28.206"/>
	<path fill="#FCEEF4" d="M171.373,29.202c2.896-0.061,4.646,0.166,5.25,0.679c0.302,0.332,0.21,1.418-0.271,3.259
		c-0.543,2.082-1.373,3.967-2.49,5.657c-2.172,3.289-4.646,4.466-7.423,3.53h-0.045c-2.685-0.664-4.722-3.153-6.109-7.468
		l9.595,3.756l-6.064-8.011C165.686,29.76,168.205,29.292,171.373,29.202"/>
	<path fill="#0D131A" d="M224.056,60.567l0.725,0.363v18.149l-1.584-0.317c-14.846-1.328-32.09-0.966-51.732,1.086
		c-39.165,4.134-71.586,14.544-97.264,31.23l-4.301,2.806c-0.875,0.362-1.177-0.393-0.904-2.263
		c1.116-7.422,3.305-16.098,6.562-26.024c2.896-8.811,4.782-13.593,5.657-14.348c0.513-0.422,2.475-1.448,5.884-3.078l10.455-5.069
		L86.6,65.908c-3.922,0.996-5.792,1.267-5.612,0.814c0.424-1.025,2.444-4.058,6.065-9.097c4.013-5.582,6.653-8.689,7.92-9.323
		c18.708-9.656,43.193-11.646,73.458-5.975c11.073,2.082,22.192,5.069,33.356,8.962C210.69,54.397,218.112,57.49,224.056,60.567"/>
	<path fill="#E85382" d="M222.11,62.559v13.307c-16.021-2.655-34.021-2.927-53.994-0.814c-35.546,3.802-67.545,15.132-95.998,33.99
		c0.995-5.009,3.003-12.039,6.02-21.091c1.901-5.793,3.636-10.711,5.205-14.755l10.229-5.567l12.627-7.105l3.53-2.309
		c0.211-0.271-0.574-0.271-2.353,0l-9.958,2.082L86.692,62.74c3.893-5.854,7.166-9.927,9.821-12.22
		c24.531-7.906,50.073-9.429,76.626-4.571C190.428,49.146,206.752,54.684,222.11,62.559"/>
	<path fill="#C94772" d="M196.312,51.922c9.112,2.957,17.711,6.502,25.798,10.636v13.307c-11.165-1.811-23.882-2.459-38.154-1.946
		c-2.112-6.367-5.553-12.206-10.319-17.516c-4.556-5.099-9.911-9.278-16.067-12.537C170.543,45.043,183.458,47.729,196.312,51.922"
		/>
	<path fill="#0D131A" d="M158.927,42.327l0.227,0.045l0.136,0.136l5.749,7.287c1.387,1.961,2.021,3.274,1.899,3.938l-0.315,0.588
		c-20.669,6.97-31.895,10.123-33.675,9.459c-1.417-0.483-4.586-2.535-9.504-6.156c-5.521-4.013-8.116-6.653-7.784-7.92
		c0.181-0.633,1.041-1.328,2.579-2.082l4.844-2.082c3.41-1.358,5.838-2.534,7.287-3.53l0.09-0.091h0.136
		C139.918,41.226,149.362,41.361,158.927,42.327"/>
	<path fill="#FCEEF4" d="M158.293,43.912c4.557,5.521,6.834,8.705,6.834,9.55c-1.116,0.634-6.366,2.263-15.75,4.888
		c-9.565,2.715-14.771,3.952-15.615,3.711c-1.509-0.574-4.465-2.49-8.871-5.749c-4.557-3.379-6.834-5.477-6.834-6.291v-0.045
		c0.09-0.423,0.754-0.951,1.991-1.584l3.893-1.72c2.775-1.176,4.812-2.142,6.109-2.896
		C139.193,42.991,148.607,43.036,158.293,43.912"/>
	<path fill="#0D131A" d="M119.822,69.257c3.049,0.694,5.388,1.297,7.017,1.81c1.509,0.453,2.519,1.479,3.032,3.078
		c0.211,0.664,0.316,1.448,0.316,2.354c0,1.327-0.241,2.7-0.725,4.118c-0.452,1.358-1.057,2.505-1.812,3.44l-0.09,0.136
		l-0.181,0.045c-6.819,2.052-13.412,4.39-19.779,7.015l-0.905,0.498l-6.336-7.106c-4.164-4.858-6.108-7.543-5.838-8.056
		c0.542-0.935,3.153-2.64,7.83-5.114c4.948-2.625,8.268-3.848,9.957-3.667L119.822,69.257"/>
	<path fill="#FCEEF4" d="M126.611,83.469c-6.668,2.052-12.929,4.271-18.782,6.653l-4.752-5.295c-4.134-4.436-6.201-7-6.201-7.694
		v-0.045c0.422-0.754,2.701-2.233,6.834-4.436c4.345-2.323,7.227-3.41,8.645-3.258l7.15,1.357c2.928,0.694,5.175,1.283,6.744,1.766
		c1.146,0.362,1.9,1.146,2.263,2.353c0.211,0.604,0.316,1.268,0.316,1.992c0,1.146-0.211,2.338-0.634,3.576
		C127.773,81.613,127.244,82.624,126.611,83.469"/>
	<path fill="#0D131A" d="M367.214,73.874c1.389,7.815,1.766,12.447,1.132,13.895c-0.271,0.634-1.9,0.166-4.89-1.403l-8.19-4.3
		l9.821,9.641c3.861,3.802,5.943,6.141,6.245,7.016c0.362,1.025-0.046,3.742-1.223,8.147c-1.116,4.314-1.976,6.713-2.579,7.196
		c-0.784,0.664-3.938-0.83-9.46-4.481l4.979,6.653c1.688,2.263,2.549,3.576,2.579,3.938c0,0.574-2.398,2.324-7.196,5.25
		c-10.862-11.104-24.169-21.333-39.919-30.687c-31.41-18.647-59.985-24.229-85.724-16.746l-1.131,0.317l-0.453-1.086
		c-0.995-2.293-1.448-5.311-1.357-9.052l0.497-5.16l0.092-0.453l0.361-0.317c4.194-3.741,10.38-7.543,18.557-11.406
		c10.108-4.768,20.594-8.207,31.456-10.319c30.021-5.883,56.53-0.679,79.521,15.615C363.323,59.028,365.615,64.942,367.214,73.874"
		/>
	<path fill="#E85382" d="M351.736,105.33l10.41,14.529l-2.762,2.761c-12.884-12.673-27.563-23.581-44.037-32.724
		c-29.842-16.625-57.18-21.559-82.012-14.8c-0.544-1.841-0.815-3.787-0.815-5.838c0-1.932,0.121-3.696,0.362-5.295
		c4.255-3.651,10.471-7.317,18.646-10.998c9.987-4.526,20.308-7.74,30.958-9.641c29.269-5.25,54.584,0.226,75.946,16.429
		c1.931,2.444,3.562,6.472,4.889,12.084c0.846,3.561,1.509,7.453,1.991,11.677l-15.117-6.562c-2.504-1.056-3.802-1.373-3.893-0.951
		c-0.062,0.332,0.739,1.373,2.398,3.123l19.644,20.367l-3.032,11.677c-0.966-0.634-2.716-1.584-5.251-2.851l-5.747-2.896
		c-1.932-1.207-3.093-1.901-3.485-2.083C350.257,103.067,350.559,103.73,351.736,105.33"/>
	<path fill="#C94772" d="M303.035,41.467c-6.187,3.591-11.603,8.313-16.248,14.167c-4.587,5.793-7.967,12.13-10.14,19.009
		c-15.328-3.379-29.767-3.229-43.312,0.453c-0.544-1.841-0.815-3.787-0.815-5.838c0-1.932,0.121-3.696,0.362-5.295
		c5.884-5.069,14.648-9.792,26.296-14.167C273.964,44.213,288.582,41.437,303.035,41.467"/>
	<path fill="#C94772" d="M350.197,76.952c-2.504-1.056-3.802-1.373-3.893-0.951c-0.062,0.332,0.739,1.373,2.398,3.123l4.797,4.979
		c-9.293-7.061-18.436-13.276-27.427-18.647c12.521-1.025,24.712,0.227,36.57,3.757c1.146,4.134,2.036,8.901,2.67,14.302
		L350.197,76.952"/>
	<path fill="#0D131A" d="M336.981,46.265l0.271,0.09l0.046,0.271c0.422,1.66,0.194,4.285-0.68,7.875l-1.539,5.115
		c-0.362,1.026-3.123,2.158-8.282,3.395c-5.793,1.388-10.5,1.433-14.121,0.136c-1.357-0.483-3.44-2.067-6.246-4.752
		c-2.836-2.715-4.375-4.616-4.617-5.703c-0.09-0.453-0.135-0.905-0.135-1.358c0-3.289,2.534-6.879,7.604-10.772l0.137-0.09h0.226
		C319.239,41.105,328.351,43.036,336.981,46.265"/>
	<path fill="#FCEEF4" d="M326.253,61.427c-5.279,1.116-9.595,1.086-12.943-0.091c-1.269-0.453-3.214-1.855-5.839-4.209
		c-2.595-2.324-3.982-3.877-4.164-4.662l-0.09-1.086c0-2.866,2.263-6.049,6.789-9.549c9.082,0.634,17.695,2.444,25.843,5.431
		l0.137,1.403c0,1.418-0.271,3.244-0.814,5.477l-1.493,4.888C332.83,59.752,330.358,60.552,326.253,61.427"/>
	<path fill="#0D131A" d="M339.334,85.144c3.288-0.362,5.354-0.211,6.199,0.453c0.967,0.785,2.083,3.229,3.351,7.332
		c1.328,4.375,1.991,8.162,1.991,11.36v0.633l-0.635-0.135c-3.74-0.724-7.679,0.03-11.812,2.263l-0.271,0.136l-7.514-5.432
		l0.046-0.317c0.241-1.086,0.195-3.017-0.136-5.793c-0.242-1.9-0.349-3.259-0.317-4.073c0.062-1.358,0.423-2.398,1.087-3.123
		C332.922,86.667,335.592,85.566,339.334,85.144"/>
	<path fill="#FCEEF4" d="M332.183,99.4l-0.362-3.847l-0.271-3.35c0-1.297,0.257-2.248,0.77-2.852
		c1.388-1.539,3.712-2.429,6.972-2.67c2.745-0.211,4.465-0.061,5.159,0.452c0.813,0.634,1.811,2.686,2.986,6.155
		c1.297,3.833,1.991,7.242,2.082,10.229c-3.591-0.574-7.317,0.166-11.18,2.218l-6.336-4.572L332.183,99.4"/>
	<path fill="#0D131A" d="M289.548,54.502c0.845,0.725,2.172,2.414,3.981,5.069c2.112,3.047,3.063,5.069,2.853,6.065
		c-0.241,1.236-2.323,2.232-6.246,2.987c-3.771,0.754-7.648,0.996-11.632,0.724h-0.228l-5.521-5.884
		c-3.651-4.043-5.401-6.412-5.251-7.106c0.061-0.422,0.302-0.709,0.724-0.86l10.501-1.086
		C285.309,53.959,288.914,53.989,289.548,54.502"/>
	<path fill="#FCEEF4" d="M292.4,60.25c1.84,2.746,2.7,4.451,2.58,5.114c-0.121,0.664-1.779,1.297-4.979,1.901l-11.136,0.679
		l-2.807-2.761l-4.615-4.662c-1.721-1.871-2.581-3.108-2.581-3.711l0.047-0.09L269,56.584l9.911-0.996
		c5.943-0.362,9.219-0.392,9.821-0.09C289.488,56.162,290.709,57.746,292.4,60.25"/>
	<path fill="#D9CED4" d="M287.783,55.362l-4.211,6.291c-1.87,2.655-3.229,4.752-4.072,6.291h-0.634l-2.808-2.761l-4.615-4.662
		c-1.721-1.871-2.581-3.108-2.581-3.711l0.047-0.09L269,56.584l8.373-0.905L287.783,55.362"/>
	<path fill="#0D131A" d="M268.456,37.213l-0.95,4.028c-3.168,11.617-6.155,21.891-8.962,30.822c-0.995,3.198-5.1,5.627-12.312,7.287
		c-4.979,1.116-11.843,1.916-20.593,2.399l-21.725-0.679c-7.785-1.146-12.388-3.364-13.806-6.653
		c-2.594-5.944-4.947-12.839-7.061-20.684c-2.081-7.875-2.594-11.708-1.539-11.496l8.373,1.086l8.6,1.176
		c0.422-2.504,0.996-5.446,1.721-8.826c0.994-4.828,1.704-7.619,2.127-8.373c0.422-0.724,2.564,0.89,6.427,4.843l7.061,7.467
		c0.815-1.086,2.746-3.409,5.793-6.97l5.25-5.929c0.332-0.242,1.358,1.162,3.077,4.209l3.485,6.291l5.839-6.155
		c3.017-3.138,4.646-4.677,4.888-4.617c0.271,0.061,0.968,1.826,2.082,5.295l2.399,7.332l4.843-5.884
		c2.323-2.746,3.711-4.043,4.164-3.893c0.452,0.181,1.056,1.72,1.81,4.617l1.449,5.884l3.168-1.312
		c1.539-0.604,2.625-1.086,3.258-1.448C268.079,36.609,268.456,36.669,268.456,37.213"/>
	<path fill="#D7A400" d="M263.251,41.694l-8.191,27.88c-0.754,2.323-3.907,4.39-9.46,6.2c-5.552,1.781-12.25,2.882-20.095,3.304
		c-8.086,0.453-15.086,0.045-21-1.222c-5.914-1.237-9.399-3.048-10.456-5.432c-3.198-7.242-6.457-16.671-9.776-28.288l16.339,3.53
		l1.223-7.559c0.845-5.159,1.374-8.011,1.584-8.554c0.211-0.573,1.721,0.589,4.526,3.485l5.792,6.382l1.767,2.218l1.539-1.222
		c1.207-1.297,4.285-5.265,9.231-11.903c0.242-0.362,1.435,1.222,3.576,4.752l3.123,5.386l10.093-9.324
		c0.212-0.211,1.025,1.856,2.444,6.201l2.081,6.608l4.12-4.707c2.806-3.168,4.39-4.813,4.752-4.933
		c0.361-0.121,0.936,1.327,1.72,4.344l1.041,4.572L263.251,41.694"/>
	<path fill="#0D131A" d="M264.248,40.879l1.765-1.674l-0.68,2.354l-8.373,28.604c-0.966,3.048-4.677,5.582-11.134,7.604
		c-5.702,1.78-12.433,2.881-20.187,3.304c-7.996,0.452-15.027,0.06-21.091-1.177c-6.879-1.388-10.998-3.606-12.355-6.653
		c-3.048-6.97-6.337-16.52-9.866-28.65l1.945-1.177c1.66,1.84,4.043,4.104,7.151,6.789l5.884,4.752l5.069-6.065
		c3.078-3.711,4.767-5.612,5.068-5.703c0.303-0.06,2.672,2.309,7.106,7.106l7.423,8.192l3.258-8.147
		c1.932-4.677,3.139-7.061,3.621-7.151c0.482-0.06,1.569,1.569,3.258,4.888l3.53,6.925l5.069-6.79
		c2.986-3.893,4.723-5.763,5.205-5.612s1.479,2.082,2.986,5.793l2.716,6.562C257.413,48.105,261.622,43.414,264.248,40.879"/>
	<path fill="#F9BE00" d="M252.028,56.539c1.75-1.509,5.674-5.431,11.769-11.768l-3.757,11.813L255.693,69.8
		c-0.904,2.836-4.027,5.642-9.367,8.418c-6.064,3.168-12.84,4.949-20.322,5.341c-7.784,0.422-15.026-0.634-21.726-3.168
		c-6.004-2.293-9.625-4.858-10.862-7.694c-2.836-6.488-5.854-15.147-9.052-25.979c3.168,2.957,7.136,6.23,11.903,9.821
		c0.664,0.573,1.206,0.815,1.629,0.724c0.362-0.06,0.799-0.498,1.312-1.312c0.422-0.664,1.886-2.369,4.39-5.115l4.3-4.571
		l7.105,7.604c4.436,4.617,6.895,6.91,7.378,6.879c0.481-0.03,1.614-2.142,3.395-6.336l3.213-7.694l3.215,5.883
		c1.72,3.078,2.806,4.632,3.259,4.662c0.422,0.03,2.036-1.675,4.843-5.115l4.843-6.11l2.535,4.797l2.354,4.934
		c0.332,0.875,0.572,1.343,0.725,1.403C250.971,57.293,251.394,57.082,252.028,56.539"/>
	<path fill="#0D131A" d="M316.976,133.074c14.423,4.134,23.565,7.045,27.427,8.735c2.265,0.965,3.199,1.644,2.808,2.037l-3.26,1.041
		l-14.121,4.299l14.031-2.308l8.327-1.041c1.087,0.12,4.059,2.172,8.917,6.155c4.737,3.862,7.075,6.004,7.015,6.427
		c-0.029,0.302-2.201,1.192-6.518,2.67L350.83,164.8l13.533,0.181l9.278,0.453c0.573,0.271,1.9,2.082,3.981,5.431
		c2.053,3.319,3.032,5.205,2.942,5.658c-0.091,0.332-1.689,0.754-4.798,1.267l-9.278,1.493l10.185,0.046l5.477,0.181
		c0.543,0.181,2.248,1.946,5.114,5.295c2.927,3.379,4.3,5.326,4.118,5.839c-0.12,0.422-1.447,0.754-3.982,0.995l-7.241,0.77
		l8.646,0.679l4.707,0.634c0.423,0.332,0.92,3.258,1.493,8.78c7.394,13.216,10.952,20.081,10.682,20.594
		c-0.15,0.301-3.229-0.74-9.232-3.123l-11.812-4.752l8.057,14.618c4.284,7.845,6.291,11.873,6.021,12.085l-7.56-0.544
		c-4.798-0.692-7.468-1.342-8.012-1.944c-0.452-0.483-1.522-3.108-3.213-7.877l-3.847-10.816l1.312,9.777
		c0.452,3.59,0.559,5.551,0.316,5.883c-0.271,0.423-3.198-0.182-8.78-1.812c-5.521-1.599-8.464-2.67-8.826-3.213l-1.991-5.114
		l-3.214-8.962l1.132,8.146c0.424,2.837,0.482,4.346,0.182,4.526c-0.482,0.33-6.774-2.73-18.873-9.188l-0.091-0.452l-4.48-17.606
		l0.407,11.586c0.15,4.377,0.016,6.64-0.407,6.789c-0.481,0.121-2.264-0.738-5.341-2.58l-4.843-2.986l-6.021,0.046
		c-3.86-0.121-6.05-0.528-6.562-1.222c-0.453-0.665-1.207-3.895-2.265-9.687l-2.852-15.389l0.045,14.71
		c0,5.371-0.21,8.086-0.634,8.146c-0.24,0.03-3.635-1.071-10.183-3.305l-18.919-6.382l-0.092-1.177l-7.559-2.851l-6.789-2.354
		c-1.086-0.242-1.734-0.709-1.946-1.403c-0.271-0.845-0.302-2.761-0.09-5.749c0.183-2.564,0.228-5.25,0.136-8.056l-0.316-7.785
		l-3.893,11.677c-1.538,4.375-2.625,6.548-3.259,6.518c-1.025-0.03-7.845-3.425-20.458-10.184l3.849-18.828
		c-5.733,5.311-10.667,9.505-14.802,12.583c-6.063,4.435-9.91,6.08-11.542,4.933c-6.365-4.224-10.529-8.524-12.49-12.899
		c-1.479-3.319-1.631-6.563-0.453-9.731c2.414-6.487,9.369-11.813,20.864-15.977c10.592-3.832,20.353-5.25,29.283-4.254l4.164-2.489
		c2.745-1.599,5.478-2.987,8.192-4.164c8.599-3.742,16.836-5.371,24.712-4.888C288.96,125.772,300.38,128.337,316.976,133.074"/>
	<path fill="#00A63C" d="M351.646,147.965l12.445,9.821c-9.385,3.289-15.646,5.598-18.783,6.925
		c-2.354,0.996-3.515,1.554-3.484,1.675l3.803,0.271c3.38,0.03,12.342,0.287,26.885,0.77l4.797,7.694l-10.048,1.765
		c-5.732,0.996-9.217,1.75-10.454,2.263l-2.941,1.313c-0.242,0.302,0.799,0.528,3.123,0.679c3.439,0.242,11.51,0.362,24.214,0.362
		l6.427,7.694l-15.523,2.489c-2.112,0.453-3.229,0.814-3.35,1.086c-0.15,0.302,0.995,0.603,3.438,0.905l19.599,1.855l1.312,7.649
		l-7.875-1.132c-5.221-0.664-7.665-0.679-7.333-0.045c0.302,0.604,3.078,1.283,8.328,2.037l7.92,1.086l7.378,14.303l-21.092-7.875
		l14.665,27.788l-10.455-1.674c-4.226-11.466-6.985-18.618-8.283-21.453c-0.905-2.022-1.674-2.958-2.308-2.808
		c-0.212,0.062-0.092,2.958,0.36,8.689l1.042,11.588l-13.806-3.938c-3.892-10.832-6.426-17.697-7.604-20.594
		c-0.965-2.354-1.584-3.561-1.854-3.62c-0.361-0.091-0.392,1.267-0.09,4.073l1.766,17.018l-14.801-7.241
		c-4.888-19.703-7.362-27.805-7.423-24.305l-0.453,11.134l-0.452,11.405l-8.283-4.797c-0.604-11.708-1.312-17.652-2.127-17.833
		c-0.481-0.09-0.634,2.836-0.452,8.781l0.183,8.961l-8.374-0.316l-2.398-13.488c-1.659-8.992-3.048-15.192-4.163-18.602
		c-1.237-3.772-2.067-5.401-2.489-4.888c-0.271,0.362-0.468,2.308-0.589,5.838c-0.091,2.384-0.045,7.483,0.137,15.298l0.226,12.674
		l-26.114-10.094l-0.498-10.636c-0.302-7.302-0.648-11.39-1.04-12.266c-0.394-0.875-0.529,2.55-0.407,10.274l0.045,11.903
		l-13.353-5.16c-0.513-12.583-0.755-21.544-0.725-26.885v-0.271h-0.045c-0.151-1.237-0.347-2.052-0.589-2.444
		c-0.392-0.694-0.845,0.135-1.357,2.489v0.181c0,1.116-0.904,4.133-2.716,9.052c-1.448,3.923-3.198,8.313-5.25,13.171l-17.153-8.6
		l4.798-23.49l-13.578,11.315c-9.173,7.422-14.121,10.877-14.845,10.364c-10.531-6.97-14.59-13.729-12.176-20.276
		c1.961-5.341,10.667-10.093,26.116-14.257c7.693-2.083,15.207-3.636,22.539-4.662l13.216-6.11
		c9.927-3.983,17.712-5.809,23.354-5.477c6.216,0.392,15.796,2.459,28.739,6.201c11.979,3.47,21.785,6.849,29.419,10.138
		c-11.798,3.41-19.416,5.839-22.855,7.287c-2.354,0.965-3.425,1.614-3.213,1.946c0.181,0.302,1.401,0.302,3.665,0L351.646,147.965"
		/>
	<path fill="#009233" d="M340.781,143.71c-11.798,3.41-19.416,5.839-22.855,7.287c-2.354,0.965-3.425,1.614-3.213,1.946
		c0.181,0.302,1.401,0.302,3.665,0l33.268-4.979l5.068,3.983c-8.448,0.573-14.802,1.237-19.056,1.992
		c-7.513,1.297-13.352,4.134-17.516,8.509c-32.497-12.703-59.651-5.944-81.469,20.276l-5.477-2.761l4.798-23.49l-13.578,11.315
		c-9.173,7.422-14.121,10.877-14.845,10.364c-10.531-6.97-14.59-13.729-12.176-20.276c1.961-5.341,10.667-10.093,26.116-14.257
		c7.693-2.083,15.207-3.636,22.539-4.662l13.216-6.11c9.927-3.983,17.712-5.809,23.354-5.477c6.216,0.392,15.796,2.459,28.739,6.201
		C323.342,137.042,333.149,140.421,340.781,143.71"/>
	<path fill="#0D131A" d="M363.051,195.397c2.534,3.048,3.454,4.662,2.761,4.843c-0.634,0.181-2.037-0.754-4.21-2.806
		c-26.251-24.893-54.945-41.292-86.084-49.198c-9.807-2.474-19.267-3.953-28.379-4.436l-10.998,0.045l-0.315-1.267l2.172-2.354
		c2.082-1.629,4.662-2.52,7.739-2.67l4.798-0.363l-0.182-0.045c20.367,0.543,39.891,5.432,58.566,14.665
		C329.165,161.799,347.209,176.328,363.051,195.397"/>
	<path fill="#00A63C" d="M236.005,140.768c2.232-1.418,5.914-2.052,11.044-1.901c20.548,0.665,39.949,5.205,58.204,13.624
		c17.924,8.268,33.749,19.779,47.479,34.534c-20.247-18.315-43.496-31.245-69.747-38.788c-9.143-2.625-18.104-4.42-26.884-5.386
		l-15.298-0.588l-4.979-0.181C235.1,141.779,235.16,141.342,236.005,140.768"/>
	<path fill="#009233" d="M319.555,160.049l-1.99,0.272c-0.785,0.091-1.329,0.453-1.631,1.086
		c-15.297-7.936-31.259-13.503-47.884-16.701c-11.438-2.203-20.52-3.018-27.247-2.444l-4.979-0.181
		c-0.726-0.302-0.664-0.739,0.181-1.313c2.232-1.418,5.914-2.052,11.044-1.901c13.096,0.423,25.812,2.459,38.154,6.11
		C297.303,148.538,308.754,153.562,319.555,160.049"/>
	<path fill="#0D131A" d="M29.709,283.52c3.379-4.496,6.713-7.83,10.003-10.002c4.948-3.318,12.566-3.018,22.855,0.905
		c12.189,4.646,24.849,12.627,37.974,23.942c13.125,11.283,20.669,20.684,22.63,28.195l2.037,2.535l2.67,10.953
		c0.573,2.926,0.619,5.204,0.136,6.834c-0.483,1.721-1.705,3.244-3.667,4.572c-1.72,1.177-4.646,2.624-8.78,4.345
		c-3.5,1.447-9.204,2.368-17.108,2.761c-7.755,0.361-15.917,0.15-24.485-0.634c-20.94-1.962-33.402-5.93-37.385-11.903
		c-0.726-1.116-1.087-2.264-1.087-3.439c0.634-1.84,1.087-3.575,1.356-5.204c0.543-3.139-0.074-6.155-1.854-9.054
		c-4.165-6.186-7.017-10.65-8.555-13.396c-2.564-4.587-3.848-9.111-3.848-13.578C22.603,295.679,24.972,289.734,29.709,283.52"/>
	<path fill="#5DC1CF" d="M41.204,275.734c4.194-2.807,10.998-2.414,20.413,1.177c11.677,4.466,23.973,12.205,36.887,23.219
		c12.884,11.015,20.247,20.05,22.087,27.11l0.497,2.083c2.354,9.021,3.229,14.543,2.626,16.565
		c-0.423,1.356-1.435,2.594-3.033,3.709c-1.086,0.756-3.38,2.008-6.88,3.758c-2.655,1.328-7.755,2.129-15.298,2.398l-23.625-0.77
		c-20.699-1.933-32.725-5.416-36.072-10.455c-1.357-1.961-0.514-4.254,2.534-6.881c0.875-0.754,0.936-2.006,0.181-3.756
		c-0.512-1.146-1.945-3.5-4.299-7.061c-4.466-6.698-7.709-12.327-9.729-16.883c-2.476-5.553-1.374-12.537,3.303-20.955
		c1.659-3.048,3.621-5.93,5.884-8.645C38.58,278.027,40.089,276.489,41.204,275.734"/>
	<path fill="#50A8B4" d="M47.994,273.97c3.711-0.03,8.252,0.95,13.624,2.941c11.677,4.466,23.973,12.205,36.887,23.219
		c12.884,11.015,20.247,20.05,22.087,27.11l0.497,2.083c2.354,9.021,3.229,14.543,2.626,16.565
		c-0.423,1.356-1.435,2.594-3.033,3.709c-1.086,0.756-3.38,2.008-6.88,3.758c-2.232,1.117-6.321,1.871-12.265,2.264
		c-5.644,0.361-12.055,0.347-19.235-0.045c-5.1-0.363-9.173-1.871-12.22-4.526c-4.406-3.862-3.033-8.825,4.119-14.892
		c7.09-6.004,6.336-16.157-2.265-30.461c-2.927-4.856-7.029-10.635-12.311-17.334L47.994,273.97"/>
	<path fill="#0D131A" d="M59.988,332.943c-0.302-0.543,0.182-0.633,1.449-0.271c2.957,0.846,8.162,1.855,15.615,3.032
		c9.656,1.509,16.716,2.053,21.181,1.63c1.75-0.15,2.339,0.029,1.767,0.543l-1.403,0.77c-4.134,1.086-11.029,0.86-20.684-0.68
		c-8.479-1.357-14.167-2.715-17.063-4.072L59.988,332.943"/>
	<path fill="#0D131A" d="M47.858,346.023c0.182,2.233-0.091,4.104-0.814,5.611l-7.196,2.083c-4.345,1.177-7.468,1.81-9.369,1.9
		c-2.353,0.091-3.802-0.165-4.345-0.769c-0.574-0.635-0.664-2.188-0.272-4.662c0.424-2.535,1.797-5.463,4.119-8.78
		c2.324-3.382,4.603-5.688,6.834-6.927c0.785-0.422,1.6-0.664,2.444-0.724l1.629,0.316
		C45.233,337.575,47.556,341.559,47.858,346.023"/>
	<path fill="#FFFFFF" d="M28.396,352.406c-0.936-0.906-0.166-3.531,2.31-7.877c2.443-4.375,4.677-7.104,6.697-8.19
		c0.905-0.453,1.63-0.528,2.174-0.228c2.202,1.932,3.847,4.587,4.934,7.967c0.935,2.956,1.116,4.857,0.543,5.701
		c-0.513,0.756-3.168,1.586-7.966,2.49C32.167,353.205,29.271,353.25,28.396,352.406"/>
	<path fill="#DBDCDC" d="M41.204,337.832c1.659,2.021,2.852,4.42,3.575,7.195c0.664,2.476,0.755,4.06,0.271,4.753
		c-0.332,0.481-1.947,1.086-4.843,1.811c-2.987,0.755-5.643,1.192-7.965,1.312c1.146-2.836,2.488-5.581,4.027-8.236
		C38.021,341.68,39.665,339.4,41.204,337.832"/>
	<path fill="#0D131A" d="M58.857,366.256c-2.564-1.568-3.168-4.979-1.811-10.229c1.267-4.827,3.349-8.78,6.246-11.858
		c2.083-2.202,3.861-3.483,5.341-3.847c1.509-0.362,2.972,0.15,4.39,1.539c4.104,4.013,6.819,7.965,8.147,11.857
		c0.693,1.932,0.965,3.471,0.814,4.616c-1.057,1.177-4.798,2.957-11.225,5.34C64.061,366.18,60.094,367.039,58.857,366.256"/>
	<path fill="#FFFFFF" d="M70.081,342.629c1.236,0.242,3.077,2.082,5.521,5.521c2.565,3.592,3.908,6.442,4.028,8.555
		c-1.025,0.967-4.208,2.521-9.549,4.662c-5.553,2.201-8.843,3.123-9.867,2.761c-0.574-0.211-0.8-1.418-0.679-3.621
		c0.119-2.263,0.572-4.662,1.356-7.196C63.005,346.491,66.068,342.932,70.081,342.629"/>
	<path fill="#DBDCDC" d="M70.262,342.675c1.327,0.452,3.168,2.354,5.522,5.703c2.443,3.5,3.727,6.276,3.847,8.327
		c-0.724,0.664-2.866,1.766-6.426,3.305c-3.651,1.6-6.76,2.775-9.324,3.529c0.181-4.073,0.679-7.618,1.494-10.637
		C66.4,349.252,68.029,345.844,70.262,342.675"/>
	<path fill="#0D131A" d="M101.808,343.941c0.694-0.633,1.479-1.057,2.354-1.268c0.725-0.181,1.403-0.181,2.036,0
		c1.932,0.574,4.467,2.188,7.604,4.844c3.259,2.715,5.039,4.857,5.341,6.426c0.302,1.541-0.634,4.209-2.806,8.012
		c-1.901,3.41-3.65,5.898-5.25,7.469c-0.815,0.812-1.63,1.252-2.444,1.312c-0.755,0.029-1.78-0.242-3.078-0.815
		c-3.832-1.688-6.97-4.209-9.414-7.558l-2.489-4.481c-0.211-1.207,0.648-3.438,2.58-6.698
		C98.142,347.984,99.998,345.57,101.808,343.941"/>
	<path fill="#FFFFFF" d="M102.804,346.023c1.117-1.025,2.006-1.447,2.671-1.268c1.75,0.514,3.938,1.991,6.562,4.436
		c2.654,2.414,4.104,4.271,4.344,5.566c0.211,1.116-0.829,3.44-3.123,6.971c-2.171,3.289-3.741,5.25-4.707,5.885
		c-0.482,0.119-1.659-0.362-3.53-1.448c-2.051-1.207-3.952-2.61-5.703-4.21c-1.9-1.719-2.94-3.062-3.123-4.027
		c-0.182-0.906,0.438-2.699,1.856-5.387C99.561,349.734,101.145,347.562,102.804,346.023"/>
	<path fill="#DBDCDC" d="M116.382,354.759c0.211,1.056-0.708,3.185-2.76,6.382c-1.84,2.897-3.396,4.948-4.662,6.155
		c-0.121-4.284-0.423-8.04-0.905-11.271c-0.574-4.043-1.464-7.799-2.671-11.27h0.091c1.75,0.514,3.938,1.991,6.562,4.436
		C114.692,351.605,116.141,353.462,116.382,354.759"/>
	<path fill="#0D131A" d="M46.32,307.914c0,0.243-0.393,0.755-1.177,1.54c-1.449,1.478-2.263,2.685-2.443,3.62
		c-0.393,1.9,1.011,3.591,4.21,5.068c0.936,0.422,1.206,0.77,0.813,1.041c-0.18,0.151-0.467,0.241-0.86,0.271
		c-3.711-0.15-5.808-1.464-6.291-3.938c-0.24-1.39,0.062-2.822,0.905-4.301c0.845-1.447,1.886-2.443,3.123-2.986
		C45.746,307.749,46.32,307.645,46.32,307.914"/>
	<path fill="#0D131A" d="M323.99,337.516c0.272-0.332,0.544-0.453,0.815-0.361c2.443,0.482,4.827,1.811,7.15,3.982
		c2.896,2.715,5.189,6.396,6.881,11.043c-2.535,1.812-5.222,3.439-8.058,4.889c-5.673,2.927-9.249,3.546-10.727,1.854
		c-0.876-0.995-0.604-4.661,0.812-10.998C322.196,342.012,323.237,338.541,323.99,337.516"/>
	<path fill="#DBDCDC" d="M321.546,357.928c-0.091-0.182,0.438-3.094,1.585-8.736c1.207-5.791,2.037-9.201,2.488-10.228l5.16,4.072
		c2.624,2.565,4.18,5.28,4.661,8.146c0.181,0.877-2.052,2.295-6.698,4.256C324.127,357.369,321.728,358.199,321.546,357.928"/>
	<path fill="#5DC1CF" d="M331.731,268.402c2.625,7.574,4.254,14.937,4.889,22.087c1.72,19.915-3.894,41.519-16.838,64.812
		c-0.331,0.603-0.8,2.851-1.402,6.744c-0.542,3.438-1.704,6.246-3.484,8.417c-5.703,6.91-19.749,10.818-42.137,11.725
		c-13.338,0.541-24.306-1.615-32.904-6.474c-8.057-4.557-12.281-10.364-12.674-17.426c-0.15-2.595-1.01-6.427-2.58-11.495
		c-2.231-7.271-3.575-11.857-4.028-13.76c-2.896-11.979-1.931-21.981,2.896-30.008c2.928-4.889,9.52-11.284,19.78-19.189
		c10.018-7.695,20.863-14.816,32.541-21.363c12.583-7.091,23.157-11.768,31.729-14.031c9.836-2.594,15.675-1.584,17.515,3.033
		L331.731,268.402"/>
	<path fill="#50A8B4" d="M325.031,251.475l6.699,16.928c2.625,7.574,4.254,14.938,4.889,22.088
		c1.72,19.915-3.894,41.519-16.838,64.812c-0.423,0.785-0.845,2.746-1.267,5.885c-0.423,3.078-1.207,5.565-2.354,7.467
		c-3.771,6.307-13.244,10.426-28.423,12.355l-4.934-0.136c-2.745,0.726-4.225,0.71-4.435-0.045c0.633-4.646,0.828-8.916,0.588-12.81
		c-0.271-4.133-1.058-8.102-2.354-11.902c19.976-2.232,32.134-14.482,36.479-36.752c3.319-17.077,1.963-37.656-4.073-61.734
		c-2.624-10.562-0.965-15.269,4.979-14.121c2.144,0.422,4.42,1.539,6.834,3.35C323.085,248.578,324.489,250.117,325.031,251.475"/>
	<path fill="#0D131A" d="M323.856,252.107c-1.419-3.017-1.721-4.646-0.905-4.888c0.754-0.211,1.841,0.996,3.259,3.621
		c7.996,14.905,11.857,31.274,11.587,49.107c-0.332,19.913-5.944,38.577-16.836,55.987c-0.665,1.084-0.997,2.549-0.997,4.39
		c-0.029,3.229-0.423,5.823-1.177,7.784c-1.057,2.807-2.986,5.175-5.794,7.105c-6.938,4.737-20.337,7.514-40.189,8.328
		c-14.815,0.573-26.508-1.464-35.077-6.109c-8.448-4.586-12.4-10.938-11.857-19.056c0.09-1.567-0.499-3.938-1.767-7.104
		l-3.032-7.695c-2.626-8.417-3.907-15.583-3.848-21.498c0.062-6.518,1.72-13.02,4.979-19.507l2.488,0.903
		c-2.926,7.848-4.058,15.57-3.395,23.174c0.393,4.467,1.766,10.502,4.119,18.104l1.99,6.88c0.635,2.475,0.996,4.661,1.086,6.562
		c0.363,6.548,4.301,11.979,11.813,16.293c8.298,4.798,19.1,6.925,32.406,6.382c18.437-0.754,31.018-3.5,37.746-8.237
		c2.534-1.779,4.346-3.923,5.432-6.428c0.604-1.447,1.087-3.527,1.449-6.245c0.302-2.505,0.737-4.271,1.312-5.295
		c12.07-21.755,16.883-44.507,14.438-68.253C331.789,274.105,328.713,262.67,323.856,252.107"/>
	<path fill="#0D131A" d="M250.76,350.143c-1.6-0.935-2.414-1.555-2.444-1.854c0-0.362,1.026-0.136,3.078,0.678
		c3.14,1.237,7.937,2.521,14.394,3.849c8.268,1.689,15.509,2.49,21.725,2.397c5.612-0.09,7.71,0.212,6.292,0.906
		c-1.419,0.694-3.938,1.011-7.559,0.95c-8.419-0.092-16.385-1.057-23.897-2.896C256.946,352.843,253.083,351.5,250.76,350.143"/>
	<path fill="#0D131A" d="M226.274,354.171l1.178-0.136c3.621,2.293,6.275,6.154,7.966,11.587c1.056,3.349,1.584,6.216,1.584,8.599
		c0,1.057-1.344,1.812-4.028,2.264l-10.501,1.086c-7.09,0.394-11.013-0.149-11.767-1.629c-0.726-1.448,0.799-4.963,4.57-10.545
		c3.621-5.312,6.594-8.797,8.917-10.455C224.705,354.578,225.4,354.32,226.274,354.171"/>
	<path fill="#FFFFFF" d="M213.873,374.538c0-1.479,1.372-4.313,4.118-8.509c2.806-4.346,5.266-7.258,7.377-8.735
		c0.665-0.481,1.071-0.649,1.222-0.499c2.021,1.57,3.938,4.512,5.749,8.827c1.418,3.349,2.218,5.869,2.397,7.56
		c-1.115,0.541-4.615,1.024-10.5,1.447c-5.914,0.422-9.368,0.438-10.363,0.044V374.538"/>
	<path fill="#DBDCDC" d="M230.393,361.594c1.146,2.021,2.172,4.346,3.077,6.971c0.755,2.143,1.177,3.682,1.268,4.617
		c-1.115,0.541-4.615,1.024-10.5,1.447c-5.913,0.422-9.368,0.438-10.363,0.044v-0.135c0-0.423,0.104-0.905,0.315-1.449
		C217.84,368.624,223.242,364.792,230.393,361.594"/>
	<path fill="#0D131A" d="M268.322,374.312c3.803-4.498,6.246-6.744,7.332-6.744s3.592,1.824,7.514,5.477
		c3.982,3.682,6.02,6.154,6.109,7.422c0.092,1.299-1.236,3.953-3.981,7.967c-2.776,4.073-4.782,6.17-6.021,6.291
		c-0.904,0.09-3.107-0.875-6.607-2.896c-3.38-1.932-5.884-3.637-7.514-5.114c-1.601-1.448-2.398-2.866-2.398-4.254
		C262.754,381.463,264.61,378.747,268.322,374.312"/>
	<path fill="#FFFFFF" d="M275.879,371.008c0.813,0.061,2.716,1.465,5.703,4.209c3.018,2.776,4.557,4.616,4.617,5.521
		c0.09,1.087-0.967,3.197-3.17,6.337c-2.142,3.077-3.591,4.646-4.345,4.707c-0.573,0.061-2.066-0.664-4.48-2.173
		c-2.564-1.569-4.692-3.123-6.382-4.662l-1.72-1.854l-0.271-0.589c0.09-0.814,1.599-2.896,4.524-6.246
		C273.284,372.908,275.125,371.158,275.879,371.008"/>
	<path fill="#0D131A" d="M320.28,367.023c3.107,4.737,4.285,8.133,3.53,10.186c-0.241,0.633-0.784,1.206-1.63,1.719
		c-0.995,0.573-2.202,0.922-3.62,1.042c-3.019,0.24-6.261,0.195-9.73-0.137c-4.526-0.452-7.03-1.327-7.514-2.624l-0.77-1.992
		c0-1.99,1.72-5.084,5.16-9.277c2.623-3.229,4.66-5.401,6.108-6.519c0.514-0.422,0.98-0.589,1.403-0.498l0.813,0.498
		C315.573,360.507,317.655,363.041,320.28,367.023"/>
	<path fill="#FFFFFF" d="M321.501,377.117l-9.46,0.316c-5.068-0.451-7.979-1.115-8.734-1.99c-0.693-0.814,0.498-3.244,3.576-7.287
		c2.985-3.983,4.978-6.051,5.975-6.201c0.965-0.15,2.926,2.173,5.883,6.971C321.728,373.754,322.649,376.482,321.501,377.117"/>
	<path fill="#DBDCDC" d="M315.889,370.012c0.814,1.057,2.279,3.53,4.391,7.424c-2.173,0.361-5.354,0.315-9.55-0.137
		c-4.313-0.451-6.789-1.07-7.423-1.855c-0.452-0.514-0.015-1.87,1.312-4.073c1.177-1.931,2.654-3.906,4.436-5.929
		C311.68,366.044,313.957,367.568,315.889,370.012"/>
	<path fill="#0D131A" d="M310.548,310.178c1.419-0.029,2.73,0.527,3.938,1.676c1.237,1.176,1.916,2.549,2.036,4.117
		c0.091,1.299-0.422,2.581-1.539,3.848c-1.447,1.66-3.5,2.385-6.154,2.173l-0.95-0.634c-0.453-0.422-0.182-0.647,0.813-0.68
		c1.66-0.06,3.048-1.222,4.165-3.484c1.206-2.442,0.452-4.329-2.264-5.657c-1.026-0.513-1.343-0.89-0.951-1.132L310.548,310.178"/>
	<path fill="#0D131A" d="M367.893,273.199c0.182-0.15,0.453-0.24,0.814-0.271c1.298-0.061,2.489,0.573,3.575,1.901
		c1.117,1.356,1.735,2.956,1.855,4.797c0.061,1.539-0.407,3.033-1.402,4.479c-1.327,1.9-3.184,2.746-5.566,2.535l-0.86-0.725
		c-0.422-0.514-0.181-0.784,0.725-0.814c1.479-0.06,2.73-1.402,3.758-4.027c1.115-2.867,0.438-5.068-2.037-6.608
		C367.818,273.895,367.531,273.473,367.893,273.199"/>
	<path fill="#0D131A" d="M403.783,241.473c1.269-0.061,2.444,0.498,3.53,1.674c1.087,1.178,1.69,2.565,1.812,4.166
		c0.091,1.326-0.361,2.641-1.357,3.938c-1.297,1.659-3.138,2.398-5.521,2.218l-0.859-0.634c-0.394-0.453-0.15-0.693,0.725-0.725
		c1.479-0.061,2.715-1.252,3.712-3.575c1.085-2.476,0.422-4.39-1.991-5.748c-0.905-0.481-1.179-0.845-0.814-1.086
		C403.165,241.578,403.423,241.502,403.783,241.473"/>
	<path fill="#0D131A" d="M402.156,279.491c1.418-0.06,2.73,0.679,3.938,2.218c1.236,1.538,1.917,3.35,2.037,5.432
		c0.09,1.719-0.422,3.409-1.539,5.069c-1.448,2.202-3.5,3.168-6.155,2.896l-0.951-0.813c-0.452-0.573-0.181-0.89,0.815-0.95
		c0.634-0.029,1.356-0.482,2.173-1.357c0.845-0.937,1.509-2.021,1.99-3.258c1.208-3.229,0.452-5.719-2.264-7.47
		c-1.024-0.663-1.342-1.161-0.95-1.493L402.156,279.491"/>
	<path fill="#0D131A" d="M281.311,309.68c1.087,0.996,1.479,2.641,1.177,4.934c-0.182,1.479-0.966,2.716-2.354,3.713
		c-1.388,0.994-3.002,1.492-4.843,1.492l-0.86-0.406c-0.392-0.332-0.104-0.635,0.86-0.905c2.383-0.634,3.832-1.932,4.345-3.894
		c0.573-2.172-0.739-3.877-3.938-5.114l-1.585-0.903c0-0.242,0.635-0.363,1.9-0.363C278.52,308.201,280.285,308.686,281.311,309.68"
		/>
	<path fill="#0D131A" d="M310.277,272.159c0.815,0.784,1.298,1.825,1.449,3.123c0.12,1.146-0.362,2.263-1.449,3.35
		c-1.146,1.146-2.458,1.734-3.937,1.765c-0.755,0.03-1.192-0.09-1.312-0.36c-0.122-0.272,0.24-0.59,1.086-0.951
		c2.926-1.207,4.027-2.625,3.305-4.254c-0.604-1.328-1.842-2.248-3.711-2.763c-1.087-0.271-1.419-0.572-0.996-0.904l0.95-0.407
		C307.682,270.665,309.221,271.133,310.277,272.159"/>
	<path fill="#0D131A" d="M224.238,193.315c16.112-1.871,26.778-1.463,31.999,1.222c1.6,0.845,2.609,2.384,3.032,4.617l0.227,4.888
		c0,7.875-2.807,19.372-8.417,34.489c8.356,7.604,14.347,13.895,17.968,18.873c4.255,5.854,6.382,11.285,6.382,16.294
		c0,1.599-0.166,3.499-0.498,5.702c-0.393,2.505-0.845,4.346-1.358,5.521c-3.438,7.905-6.849,13.562-10.228,16.973
		c-3.802,3.861-9.143,6.652-16.022,8.373c-5.854,1.479-18.36,6.789-37.521,15.933l-18.194,8.87
		c-6.578,3.17-11.768,5.521-15.569,7.062c-8.237,3.349-20.986,4.118-38.245,2.308c-17.833-1.899-29.842-5.656-36.027-11.27
		c-2.052-1.9-11.21-7.257-27.474-16.066c-12.824-6.972-22.087-11.889-27.79-14.756c-3.62-1.811-6.864-7.227-9.73-16.248
		c-2.896-9.082-3.318-15.283-1.268-18.603c2.716-4.375,6.818-9.853,12.311-16.429c5.765-6.91,10.411-11.813,13.941-14.711
		c-2.113-3.017-4.255-8.024-6.428-15.025c-2.293-7.393-3.439-13.428-3.439-18.104c0-0.936,0.046-1.765,0.136-2.489
		c0.393-2.716,1.297-4.36,2.717-4.933c5.431-2.324,15.236-2.324,29.419,0c7.361,1.207,15.418,2.881,24.169,5.024
		c8.146-3.078,20.669-4.345,37.565-3.802c14.394,0.453,28.017,1.961,40.87,4.526C196.478,197.812,208.969,195.065,224.238,193.315"
		/>
	<path fill="#5DC1CF" d="M253.883,197.344c1.056,0.453,1.705,0.966,1.946,1.539c2.263,6.276-0.151,18.829-7.241,37.657
		c-0.634-0.515-1.856-0.906-3.667-1.179c-1.116-0.149-0.95,0.545,0.498,2.082l2.535,2.31c10.832,9.746,17.861,18.616,21.091,26.613
		c2.443,6.095,2.64,11.511,0.589,16.247c-3.139,7.183-6.367,12.447-9.688,15.797c-3.318,3.318-7.904,5.898-13.759,7.738
		c-2.896,0.906-7.814,2.942-14.755,6.11l-21.182,9.957c-16.928,8.146-28.635,13.533-35.122,16.158
		c-8.992,3.681-21.981,4.36-38.969,2.036c-6.972-0.965-13.367-2.309-19.191-4.028c-5.793-1.719-9.867-3.483-12.221-5.295
		s-11.375-6.924-27.065-15.344c-16.958-9.111-26.372-14.257-28.242-15.435c-3.078-1.899-5.794-6.548-8.146-13.938
		c-2.233-6.938-2.974-12.101-2.218-15.479c0.603-2.744,4.283-8.522,11.043-17.334c6.547-8.539,10.997-13.608,13.351-15.207
		c3.108-2.082,4.617-3.697,4.526-4.844c-0.061-1.146-1.403-0.755-4.028,1.176c-2.986-4.947-5.401-10.574-7.241-16.881
		c-1.991-6.789-2.686-12.356-2.083-16.701c0.272-1.6,0.74-2.595,1.404-2.987c2.081-1.177,9.037-1.041,20.864,0.407
		c9.596,1.147,20.02,2.806,31.274,4.979l0.362,0.045l0.363-0.135c7.875-3.078,20.23-4.33,37.067-3.757
		c14.303,0.483,27.835,2.006,40.6,4.571l0.406,0.09l0.362-0.136c9.384-3.681,21.589-6.291,36.616-7.83
		C238.992,194.809,248.965,195.141,253.883,197.344"/>
	<path fill="#50A8B4" d="M70.398,303.842c-4.073-0.514-7.303-2.82-9.686-6.926l-3.123-5.477c-1.117-1.75-2.31-3.243-3.576-4.48
		c2.324,1.811,6.096,3.184,11.315,4.119l5.069,0.77c1.779,0,6.684,3.229,14.709,9.687l11.496,9.687l-9.641-3.214
		C79.812,305.771,74.29,304.385,70.398,303.842"/>
	<path fill="#50A8B4" d="M108.19,203.499l0.362,0.045l0.363-0.135c7.875-3.078,20.23-4.33,37.067-3.757
		c14.304,0.483,27.835,2.006,40.6,4.571l0.406,0.09l0.362-0.136c5.312-2.082,11.994-3.892,20.05-5.431
		c7.665-1.479,15.269-2.459,22.812-2.942c-13.246,2.112-24.803,6.623-34.67,13.533c-6.668,4.707-11.542,9.563-14.619,14.573
		c-11.949,4.014-25.105,9.852-39.468,17.516c-19.069,10.169-31.214,19.434-36.435,27.79c-0.481,0-2.429-0.995-5.839-2.987
		c-4.375-2.595-7.316-4.269-8.826-5.021c1.721-2.294,3.184-5.281,4.391-8.962l2.625-9.822c2.082-8.116,5.068-13.396,8.961-15.841
		c-5.129-6.155-11.466-11.783-19.009-16.882c-6.127-4.134-13.55-8.223-22.269-12.266c5.25,0.242,12.189,0.996,20.819,2.263
		C93.42,200.814,100.858,202.081,108.19,203.499"/>
	<path fill="#50A8B4" d="M136.523,310.404c7.03-1.87,14.438-5.1,22.224-9.688c8.418-4.947,14.061-7.904,16.927-8.869l18.33-3.351
		c8.872-1.72,16.173-2.729,21.906-3.032c3.771,0,7.784-1.72,12.04-5.16c4.313-3.561,6.292-6.925,5.929-10.093
		c-1.419-3.681-5.326-7.739-11.724-12.175c-4.525-3.169-9.083-7.785-13.668-13.85c-4.495-5.944-9.505-10.758-15.025-14.438
		c3.349-1.086,7.92-3.562,13.713-7.423c7.574-5.01,11.873-7.801,12.9-8.373l17.922-9.866c6.457-3.168,12.296-5.054,17.517-5.658
		l0.316,0.453c2.263,6.276-0.151,18.829-7.241,37.657c-0.634-0.514-1.856-0.906-3.667-1.178c-1.116-0.15-0.95,0.543,0.498,2.082
		l2.535,2.309c10.832,9.746,17.861,18.616,21.091,26.613c2.443,6.095,2.64,11.511,0.589,16.246
		c-3.139,7.184-6.367,12.449-9.688,15.798c-3.318,3.319-7.904,5.897-13.759,7.739c-2.896,0.904-7.814,2.941-14.755,6.109
		l-21.182,9.957c-16.928,8.146-28.635,13.533-35.122,16.158c-8.992,3.682-21.981,4.359-38.969,2.036
		c-6.972-0.966-13.367-2.308-19.191-4.028c-5.793-1.719-9.867-3.484-12.221-5.295c4.466,0.03,10.758-3.078,18.875-9.324
		C128.09,318.325,132.389,314.537,136.523,310.404"/>
	<path fill="#0D131A" d="M250.579,202.685c0.782,0.271,1.177,0.845,1.177,1.72c0,2.203-1.132,6.577-3.396,13.126l-4.118,11.18
		c-0.453,1.389-1.103,2.143-1.945,2.264c-0.876,0.149-2.294-0.287-4.255-1.312c-10.078-5.401-16.339-8.646-18.783-9.73
		c-1.177-0.514-1.856-0.951-2.037-1.312c-0.241-0.393-0.03-0.936,0.633-1.63c2.565-2.716,7.529-5.943,14.892-9.687
		C241.225,202.956,247.169,201.417,250.579,202.685"/>
	<path fill="#C6000B" d="M250.398,204.404c0,3.108-2.865,11.27-8.6,24.487l-9.233-5.069c-5.159-2.716-9.021-4.542-11.586-5.478
		c3.803-3.591,9.204-7.091,16.204-10.5c6.851-3.35,11.149-4.662,12.898-3.938C250.292,203.997,250.398,204.163,250.398,204.404"/>
	<path fill="#A30000" d="M250.08,203.907c0.212,0.09,0.316,0.256,0.316,0.498c0,2.052-1.327,6.487-3.981,13.308
		c-3.38-0.938-6.354-1.299-8.917-1.087c-3.318,0.302-7.228,1.567-11.723,3.802c-1.78-0.875-3.38-1.568-4.798-2.082
		c3.803-3.591,9.204-7.091,16.204-10.5C244.031,204.495,248.331,203.183,250.08,203.907"/>
	<path fill="#0D131A" d="M88.185,219.432c0.091,0.241-0.392,0.709-1.448,1.402l-13.85,9.957c-1.811,1.297-2.958,1.674-3.44,1.132
		l-2.264-4.345c-1.688-2.896-3.093-6.188-4.209-9.866c-1.388-4.618-1.494-7.71-0.315-9.278c0.481-0.604,2.761-0.303,6.834,0.904
		c5.279,1.568,10.771,4.359,16.474,8.374L88.185,219.432"/>
	<path fill="#C6000B" d="M76.236,214.68c4.346,2.143,7.394,3.938,9.144,5.385c-2.504,1.177-5.129,2.73-7.875,4.662
		c-1.629,1.146-3.711,2.746-6.246,4.797l-0.77,0.59c-1.087-1.51-2.384-4.193-3.893-8.057c-1.688-4.285-2.535-7.408-2.535-9.369
		c0-0.693,0.121-1.178,0.362-1.447c0.181-0.213,0.573-0.303,1.177-0.272C67.772,211.027,71.319,212.266,76.236,214.68"/>
	<path fill="#A30000" d="M65.6,210.967c2.022,0.03,5.462,1.223,10.319,3.576c-2.323,1.357-3.877,3.621-4.662,6.789
		c-0.422,1.811-0.784,4.57-1.085,8.282c-1.177-1.933-2.444-4.662-3.802-8.192c-1.539-3.982-2.31-6.895-2.31-8.734
		c0-0.693,0.121-1.178,0.362-1.447C64.604,211.027,64.996,210.938,65.6,210.967"/>
	<path fill="#0D131A" d="M65.781,290.807c6.669-0.393,15.254,0.559,25.753,2.853l26.342,6.651c5.22,1.328,10.153,2.386,14.8,3.168
		c4.768,0.815,7.815,1.088,9.143,0.815l3.213-0.679c41.248-8.54,69.385-12.809,84.41-12.809h1.63l-0.771,1.446
		c-3.379,6.699-13.653,15.147-30.822,25.347c-7.091,4.194-13.88,7.754-20.367,10.683c-6.638,2.985-11.542,4.661-14.709,5.022
		c-6.336,0.756-15.449,0.59-27.338-0.498c-11.856-1.115-19.175-2.474-21.951-4.072l-10.183-6.744l-17.062-11.405
		c-10.983-7.151-18.271-12.099-21.86-14.846c-2.444-1.871-3.591-3.122-3.439-3.757c0.061-0.15,0.468-0.377,1.222-0.68
		L65.781,290.807"/>
	<path fill="#922F00" d="M93.39,295.514c4.707,0.937,13.412,3.032,26.115,6.291l14.438,3.575c4.104,0.845,6.864,1.132,8.282,0.86
		l3.213-0.68l51.37-10.637c15.63-3.048,26.719-4.646,33.267-4.798c-4.405,6.519-15.523,14.922-33.356,25.21
		c-16.927,9.747-28.544,14.997-34.85,15.751c-6.187,0.726-14.802,0.407-25.845-0.95c-10.529-1.268-17.078-2.625-19.644-4.072
		c-5.34-3.049-13.849-8.494-25.526-16.34c-13.427-8.992-21.091-14.664-22.993-17.019C74.471,292.436,82.98,293.371,93.39,295.514"/>
	<path fill="#0D131A" d="M88.049,301.441c-0.845-1.539-1.147-3.183-0.905-4.934c0.151-1.207,0.528-2.308,1.132-3.304
		c33.886,7.755,50.661,11.753,50.329,11.994l69.384-11.994c1.51,1.328,1.75,3.138,0.725,5.432c-0.845,1.9-2.535,4.06-5.069,6.474
		c-6.095,5.793-14.996,10.727-26.703,14.8c-12.704,4.405-24.849,6.306-36.435,5.702l-1.312-0.09
		c-11.404-0.604-22.327-3.576-32.768-8.918C97.011,311.809,90.885,306.753,88.049,301.441"/>
	<path fill="#ED8599" d="M89.815,294.88c6.307,1.206,15.463,3.363,27.473,6.472l16.021,3.894c4.497,0.966,7.468,1.298,8.917,0.996
		l4.752-0.996c25.466-5.4,45.216-9.112,59.246-11.134c-0.452,3.018-2.489,6.261-6.108,9.73
		c-6.005,5.702-14.333,10.471-24.984,14.303c-11.798,4.224-23.31,6.049-34.534,5.477c-10.863-0.604-21.514-3.65-31.954-9.143
		c-9.354-4.949-15.373-9.942-18.059-14.98c-0.694-1.268-1.041-2.414-1.041-3.441L89.815,294.88"/>
	<path fill="#0D131A" d="M103.574,266.003c2.293,2.687,2.956,3.923,1.99,3.712l-2.173-1.086c-0.724,2.836-2.821,5.295-6.291,7.378
		c-3.5,2.111-6.91,2.941-10.229,2.488c-3.683-0.513-6.91-2.368-9.687-5.566c-4.224-4.919-6.485-12.312-6.788-22.178
		c-2.716-0.543-4.3-1.192-4.753-1.946c-0.481-0.813,1.539-0.935,6.065-0.361c6.095,0.813,11.359,2.322,15.796,4.525
		C93.178,255.805,98.534,260.15,103.574,266.003"/>
	<path fill="#FFFFFF" d="M96.286,273.064c-2.987,1.841-6.064,2.578-9.233,2.218c-4.194-0.423-7.528-2.716-10.002-6.88
		c-2.535-4.194-4.013-9.957-4.436-17.289c11.919,2.716,21.604,7.979,29.057,15.796C100.858,269.322,99.062,271.375,96.286,273.064"
		/>
	<path fill="#0D131A" d="M97.915,261.161l0.362,0.315l0.091,1.041c-0.936,2.414-2.385,4.271-4.346,5.567
		c-1.961,1.298-3.923,1.705-5.884,1.222c-2.172-0.482-3.981-2.098-5.431-4.843c-1.69-3.229-2.339-7.241-1.946-12.039l0.679-0.771
		l0.814,0.318C87.929,254.266,93.148,257.329,97.915,261.161"/>
	<path fill="#C6000B" d="M88.683,267.271c-2.021-0.453-3.591-2.143-4.707-5.069c-0.965-2.474-1.418-5.129-1.356-7.966
		c5.039,2.021,9.654,4.678,13.849,7.966c-0.875,1.871-2.007,3.274-3.396,4.21C91.655,267.348,90.192,267.633,88.683,267.271"/>
	<path fill="#FFFFFF" d="M93.118,259.757c-0.725,1.902-1.721,2.838-2.987,2.808c-1.569-0.029-2.611-2.157-3.123-6.383
		C89.09,257.209,91.127,258.398,93.118,259.757"/>
	<path fill="#0D131A" d="M75.874,242.514c1.297-1.298,3.666-2.912,7.105-4.843c3.742-2.082,6.533-3.229,8.373-3.44
		c4.043-0.422,4.181,0.017,0.408,1.312c-1.599,0.514-3.953,1.811-7.061,3.895l-6.788,4.569c-1.69,1.087-2.746,1.403-3.169,0.95
		C74.29,244.505,74.667,243.689,75.874,242.514"/>
	<path fill="#0D131A" d="M103.166,242.739c-0.21-2.774-0.075-3.906,0.408-3.396c0.481,0.483,0.965,1.932,1.447,4.346
		c0.483,2.203,0.86,4.799,1.132,7.785c0.271,2.987,0.348,5.34,0.227,7.062c-0.12,1.659-0.573,2.504-1.357,2.534
		c-0.784,0.029-1.191-0.693-1.222-2.174l-0.181-6.924L103.166,242.739"/>
	<path fill="#0D131A" d="M191.785,229.343c1.327-0.813,2.987-1.102,4.979-0.858c0.936,0.119,1.435,0.406,1.494,0.858
		c0.09,0.453-0.332,0.784-1.267,0.996l-2.444,0.407c-0.875,0.091-1.509,0.257-1.901,0.498c-1.991,1.177-4.059,5.324-6.201,12.445
		l-3.484,13.806c-0.543,2.081-0.92,2.957-1.132,2.625c-0.121-0.212-0.196-1.147-0.227-2.808c0-2.686,0.892-7.195,2.67-13.533
		C186.505,235.785,189.01,230.973,191.785,229.343"/>
	<path fill="#0D131A" d="M208.487,229.887c2.233,0.936,4.392,2.111,6.473,3.529c2.173,1.479,4.013,3.048,5.521,4.708
		c1.51,1.659,2.188,2.519,2.037,2.579l-3.123-1.855c-6.004-3.982-9.957-6.383-11.856-7.195c-1.329-0.545-2.008-1.192-2.037-1.946
		C205.469,228.98,206.465,229.041,208.487,229.887"/>
	<path fill="#0D131A" d="M221.612,242.332c1.78-0.09,3.019,0.212,3.711,0.906c0.664,0.724-0.195,1.16-2.579,1.312
		c0.513,10.411-0.996,18.589-4.526,24.531c-2.504,4.194-5.672,6.88-9.505,8.058c-3.742,1.115-7.785,0.692-12.129-1.269
		c-4.195-1.87-7.423-4.586-9.687-8.146c-2.021,2.293-3.107,3.168-3.259,2.625c-0.15-0.543,0.708-2.354,2.58-5.433
		c3.379-5.491,8.418-10.47,15.118-14.935C208.487,245.214,215.245,242.664,221.612,242.332"/>
	<path fill="#FFFFFF" d="M188.527,265.868c4.647-5.733,10.772-10.894,18.376-15.479c6.879-4.104,11.391-5.884,13.533-5.34v1.176
		c0,7.846-1.102,14.229-3.304,19.146c-2.203,4.948-5.326,8.026-9.369,9.233c-3.318,0.965-6.743,0.664-10.274-0.904
		C193.898,272.068,190.91,269.458,188.527,265.868"/>
	<path fill="#0D131A" d="M199.163,263.378c-2.444-1.356-3.953-3.364-4.526-6.019l1.042-1.766c4.164-3.351,8.674-6.172,13.533-8.464
		l0.634-0.317l0.814-0.09c1.6,3.832,1.946,7.438,1.042,10.815c-0.905,3.26-2.687,5.417-5.342,6.473
		C203.976,264.947,201.576,264.736,199.163,263.378"/>
	<path fill="#C6000B" d="M201.608,262.066c-0.875-0.242-1.734-0.801-2.581-1.676c-0.813-0.845-1.478-1.841-1.99-2.986
		c4.013-3.319,8.177-6.155,12.491-8.51c0.423,1.69,0.634,3.318,0.634,4.89c0,2.383-0.693,4.375-2.082,5.973
		c-0.845,0.968-1.856,1.66-3.032,2.083L201.608,262.066"/>
	<path fill="#FFFFFF" d="M204.866,251.656c0.302,3.59-0.287,5.611-1.767,6.063c-1.387,0.423-2.534-0.377-3.438-2.397
		L204.866,251.656"/>
	<path fill="#0D131A" d="M69.9,303.025c-0.814-0.271-2.504-2.397-5.068-6.381l-3.621-5.884l8.283,0.046
		c5.49,0.119,8.116,0.438,7.875,0.949l-3.305,6.562C72.133,301.76,70.745,303.328,69.9,303.025"/>
	<path fill="#FFFFFF" d="M64.061,292.074l6.111,0.18c3.168,0.092,4.691,0.257,4.571,0.499c-0.542,1.236-1.434,2.851-2.671,4.843
		c-1.327,2.143-2.143,3.152-2.443,3.032C69.054,300.447,67.199,297.596,64.061,292.074"/>
	<path fill="#0D131A" d="M234.919,290.083c0.12,1.177-0.771,3.545-2.671,7.104c-1.991,3.65-3.53,5.461-4.616,5.432
		c-0.965-0.03-2.521-2.021-4.662-5.975l-2.942-5.884l7.377-1.132C232.355,289.057,234.859,289.207,234.919,290.083"/>
	<path fill="#FFFFFF" d="M233.47,290.127c-0.542,1.932-1.554,4.074-3.031,6.428c-1.479,2.385-2.505,3.485-3.078,3.305
		c-0.572-0.182-1.434-1.178-2.58-2.987c-1.146-1.75-2.097-3.562-2.852-5.431L233.47,290.127"/>
	<path fill="#0D131A" d="M106.515,306.24c0.393,0.029,0.77,1.75,1.132,5.158c0.362,3.319,0.438,5.176,0.227,5.568
		c-0.21,0.512-0.859,0.889-1.946,1.131c-1.207,0.241-2.278,0.105-3.213-0.406c-0.543-0.334-1.011-1.026-1.403-2.082
		c-0.392-1.026-0.498-1.735-0.316-2.127c0.423-0.847,1.343-2.233,2.761-4.164C105.263,307.236,106.184,306.21,106.515,306.24"/>
	<path fill="#FFFFFF" d="M106.108,307.96c0.182,0.211,0.377,1.567,0.588,4.073c0.212,2.564,0.182,3.906-0.09,4.027
		c-0.392,0.211-0.904,0.362-1.539,0.453l-1.81-0.227c-0.635-0.332-0.981-1.223-1.042-2.671l1.946-3.032
		C105.339,308.714,105.987,307.839,106.108,307.96"/>
	<path fill="#0D131A" d="M117.876,311.626c0.361,0.12,0.785,2.112,1.267,5.976c0.453,3.771,0.588,5.793,0.408,6.064
		c-0.181,0.361-0.996,0.604-2.444,0.725c-1.599,0.121-2.836-0.137-3.711-0.771c-0.755-0.543-1.312-1.283-1.674-2.218
		c-0.363-0.906-0.408-1.66-0.137-2.264c0.271-0.543,1.252-1.9,2.941-4.072C116.397,312.652,117.513,311.506,117.876,311.626"/>
	<path fill="#FFFFFF" d="M117.152,313.663c0.121,0.149,0.303,1.674,0.543,4.571c0.21,2.927,0.227,4.466,0.046,4.615l-1.494,0.228
		c-0.905-0.03-1.6-0.212-2.082-0.544c-0.754-0.573-1.161-1.645-1.223-3.213l2.082-3.078
		C116.322,314.402,117.031,313.543,117.152,313.663"/>
	<path fill="#0D131A" d="M183.865,317.328c-0.183-0.512,0.015-2.338,0.588-5.477c0.543-3.197,1.011-4.812,1.401-4.843
		c0.483-0.06,1.464,0.996,2.943,3.168l2.397,3.802c0.394,0.545,0.362,1.283-0.09,2.219s-1.146,1.629-2.082,2.082
		c-0.966,0.481-2.051,0.572-3.258,0.271C184.71,318.249,184.077,317.842,183.865,317.328"/>
	<path fill="#FFFFFF" d="M189.795,314.434c-0.122,1.297-0.528,2.127-1.223,2.487l-1.811,0.138l-1.448-0.453
		c-0.271-0.15-0.226-1.494,0.137-4.028c0.332-2.504,0.588-3.847,0.769-4.028c0.121-0.119,0.74,0.785,1.855,2.717L189.795,314.434"/>
	<path fill="#0D131A" d="M172.777,323.711c-0.725-0.423-0.859-2.505-0.407-6.246c0.452-3.742,1.071-5.779,1.855-6.109
		c0.393-0.121,1.327,0.813,2.806,2.806c1.449,2.022,2.459,3.728,3.033,5.114c0.21,0.515,0.15,1.191-0.182,2.037
		c-0.393,0.965-1.011,1.734-1.855,2.309c-0.904,0.572-1.976,0.783-3.213,0.634C173.908,324.164,173.229,323.982,172.777,323.711"/>
	<path fill="#FFFFFF" d="M178.705,319.365c-0.121,1.418-0.635,2.414-1.538,2.988l-1.992,0.496l-1.494-0.271
		c-0.181-0.151-0.06-1.677,0.363-4.572c0.392-2.866,0.664-4.375,0.813-4.524c0.09-0.121,0.74,0.783,1.946,2.715L178.705,319.365"/>
	<path fill="#0D131A" d="M52.294,286.371c-0.362-0.938-0.528-1.887-0.498-2.852c0.06-1.569,0.332-2.31,0.814-2.219
		c0.423,0.092,0.77,0.694,1.041,1.812c0.211,0.725,0.514,1.463,0.905,2.218l0.86,1.268c1.659,1.658,3.649,2.73,5.974,3.213
		l12.084,0.59c7.394-0.092,14.906,0.692,22.54,2.354c4.617,0.995,10.803,2.762,18.558,5.295l12.085,3.713
		c4.496,1.205,8.282,1.854,11.36,1.944c1.479,0.03,5.341-0.588,11.587-1.854l21.771-4.526c23.232-4.677,43.164-7.634,59.789-8.871
		c5.521-0.392,10.168-1.388,13.938-2.986c3.41-1.448,5.719-3.184,6.926-5.204c1.057-1.781,1.946-2.369,2.671-1.767
		c0.724,0.603,0.647,1.54-0.228,2.808c-2.474,3.498-5.341,5.914-8.599,7.24c-2.837,1.116-7.649,1.977-14.438,2.58
		c-9.806,0.846-27.805,3.727-53.996,8.645c-24.139,4.496-37.143,6.699-39.014,6.608c-5.401-0.332-13.624-2.264-24.667-5.794
		c-7.755-2.504-13.819-4.238-18.195-5.204c-7.482-1.63-14.83-2.397-22.042-2.309c-6.849,0.091-11.617-0.241-14.302-0.995
		c-1.871-0.514-3.757-1.705-5.658-3.576C53.018,287.955,52.595,287.245,52.294,286.371"/>
	<path fill="#0D131A" d="M121.135,293.386c-0.785-0.422-1.087-0.995-0.905-1.719c0.21-0.726,0.845-0.979,1.9-0.771
		c1.056,0.211,1.886,0.543,2.49,0.996l2.397,2.443c0.875,0.995,0.966,1.629,0.272,1.9l-1.358,0.091
		C124.453,295.182,122.854,294.201,121.135,293.386"/>
	<path fill="#0D131A" d="M143.991,295.469c0.965-1.178,1.87-2.008,2.715-2.488c0.755-0.394,1.871-0.727,3.35-0.996
		c1.388-0.241,2.127,0.074,2.218,0.949c0.061,0.875-0.559,1.434-1.855,1.676c-1.086,0.24-2.203,0.647-3.351,1.222
		c-0.965,0.481-1.447,0.771-1.447,0.858l-1.539,0.317C143.206,297.007,143.176,296.494,143.991,295.469"/>
	<path fill="#0D131A" d="M220.436,135.247c9.625-0.211,16.928,1.011,21.906,3.667l0.724,0.407l-4.524,12.809
		c-5.674-0.966-11.044-1.509-16.113-1.629c3.56,1.357,6.321,2.866,8.283,4.526c0.603,0.543,1.282,0.981,2.036,1.312
		c0.452,0.362,0.572,1.177,0.361,2.444l-0.725,8.509c-0.392,4.405-0.814,7.182-1.267,8.328c-0.545,1.297-0.937,1.931-1.179,1.901
		c-0.12-0.03-0.331-0.528-0.633-1.493c-0.392-1.298-1.886-3.093-4.479-5.386c-3.289-2.926-6.864-4.949-10.728-6.064
		c4.798,4.133,9.882,8.886,15.253,14.256l-10.229,8.826c-6.972,5.823-10.863,8.66-11.679,8.509
		c-0.754-0.151-2.488-1.523-5.203-4.119l-7.243-6.925l5.659,9.595c2.171,3.711,3.228,5.869,3.168,6.472
		c-0.121,0.996-3.049,2.655-8.781,4.979l-6.879,5.522c-4.707,3.56-7.423,5.13-8.147,4.707c-0.725-0.422-2.354-2.264-4.888-5.522
		l-6.381-8.191l3.711,11.179c1.538,4.587,2.263,7.212,2.171,7.876c-0.09,0.693-1.433,1.976-4.027,3.847l-5.839,3.938
		c-1.388,0.904-2.369,1.404-2.94,1.494c-0.604,0.061-1.103-0.271-1.494-0.996l-5.296-10.319c0.664,2.716,1.733,6.457,3.213,11.226
		c-6.729,5.34-10.229,7.844-10.5,7.514c-0.151-0.182-0.801-1.917-1.947-5.205l-3.213-9.188l0.859,16.293
		c0,0.211-1.87,1.102-5.611,2.67c-3.832,1.6-5.959,2.248-6.381,1.945c-0.363-0.271-0.726-1.613-1.087-4.027l-1.086-7.196
		l0.588,8.917c0.181,2.836,0.136,4.33-0.137,4.48c-10.018,2.896-15.357,4.027-16.021,3.395c-0.393-0.393,0.242-3.907,1.9-10.547
		l3.53-13.668c-1.207,1.207-4.254,4.496-9.143,9.867c-4.436,4.707-6.971,6.955-7.604,6.743c-0.633-0.182-1.705-3.106-3.214-8.78
		l-2.036-8.463l6.201-6.338l-5.341,4.119c-3.531,2.625-5.462,3.758-5.793,3.395c-0.332-0.36-0.136-2.534,0.588-6.518l1.177-5.884
		l14.891-10.772l-10.637,4.796c-3.892,1.781-6.019,2.461-6.381,2.037c-0.362-0.422,0.679-3.439,3.123-9.052l3.757-8.283
		l13.08-11.406l-7.15,3.757c-2.836,1.479-4.33,2.083-4.48,1.811c-0.271-0.483,4.345-6.955,13.849-19.417l16.746-4.39l-5.793-0.815
		l-4.345-0.95c-0.633-0.182-0.89-0.513-0.769-0.996l0.406-0.679c3.651-3.349,7.362-6.382,11.134-9.097l0.227-0.181l6.653-0.588
		l11.089-1.131l-9.731-1.675l-0.679-0.453c-0.182-0.453,0.317-1.056,1.493-1.81l10.953-7.921c6.096-4.436,9.564-6.789,10.411-7.061
		c4.193-0.694,9.654-0.136,16.384,1.674c6.729,1.811,13.216,4.481,19.462,8.011C203.252,136.997,210.84,135.458,220.436,135.247"/>
	<path fill="#00A63C" d="M219.938,151.495c3.771,1.177,7.498,3.319,11.181,6.427l-0.59,6.382l-0.994,8.781
		c-1.781-2.173-4.301-4.315-7.56-6.427c-3.982-2.625-7.77-4.209-11.361-4.752l-2.715-0.181c-0.181,0.212,0.498,0.86,2.036,1.947
		c1.419,1.025,4.21,3.515,8.374,7.467l7.604,7.333l-6.879,5.657c-0.15,0.121-2.264-1.282-6.336-4.208
		c-4.104-2.927-6.412-4.27-6.926-4.028c-0.513,0.271,1.147,2.037,4.979,5.295l5.792,4.979l-9.052,7.377l-15.479-13.759
		c-1.961-1.72-3.078-2.535-3.35-2.444c-0.332,0.06,0.271,1.282,1.811,3.666c2.143,3.319,5.672,9.746,10.591,19.281l-6.698,3.258
		l-3.35-5.024c-2.324-3.289-3.681-4.843-4.073-4.662c-0.332,0.151,0.542,2.007,2.625,5.567l3.033,5.386l-12.266,8.873
		c-7.453-9.537-11.874-14.921-13.262-16.16l-2.264-1.901c-0.392-0.061-0.212,0.875,0.543,2.806
		c1.086,2.927,3.396,10.424,6.925,22.494l-10.546,7.242l-3.62-7.966l-4.661-9.821c-1.088-2.081-1.721-3.123-1.901-3.123
		c-0.211,0.03-0.242,1.071-0.091,3.123c0.122,1.9,0.725,5.188,1.811,9.867c0.995,4.284,1.871,7.588,2.625,9.911l-7.15,5.115
		l-2.942-8.601c-1.75-4.948-2.957-8.178-3.62-9.687c-0.966-2.112-1.554-3.229-1.766-3.351c-0.362-0.18-0.422,1.072-0.182,3.759
		l1.132,21.59l-8.373,3.212c-2.112-11.798-3.485-18.843-4.119-21.136c-0.452-1.752-0.905-2.642-1.357-2.672
		c-0.453,0-0.648,0.967-0.589,2.897l0.77,24.214l-11.36,2.443c4.466-17.65,6.548-26.93,6.246-27.836
		c-0.182-0.543-3.184,2.219-9.007,8.283l-10.229,10.817l-3.938-12.899l6.291-6.201l6.698-7.016c1.237-1.418,1.75-2.277,1.539-2.578
		c-0.181-0.272-0.996,0-2.443,0.813c-1.058,0.604-3.938,2.641-8.646,6.108l-8.102,5.887l1.087-7.74
		c12.009-8.358,18.947-13.367,20.818-15.027c1.358-1.207,1.946-1.931,1.766-2.172c-0.182-0.241-1.086-0.09-2.716,0.453
		c-1.298,0.422-4.633,1.735-10.002,3.938l-10.274,4.164l4.979-12.582c9.656-8.54,15.736-13.82,18.24-15.842l3.485-2.987
		c0.15-0.301-1.373,0.136-4.571,1.312c-2.836,1.056-5.099,2.037-6.79,2.942l-4.479,2.399l8.962-12.492l9.958-2.49l11.949-3.304
		c1.658-0.604,2.459-1.116,2.397-1.539c-0.03-0.392-0.904-0.528-2.625-0.407l-6.292-0.227l-7.647-1.358
		c3.439-3.017,6.562-5.537,9.367-7.558l13.081-1.222l10.319-1.267c1.599-0.211,2.399-0.528,2.399-0.951
		c0-0.422-0.785-0.754-2.354-0.996l-7.287-1.539l-5.023-1.222c1.448-0.905,4.948-3.44,10.501-7.604
		c4.947-3.742,7.708-5.703,8.281-5.884c6.548-0.724,14.483,0.679,23.808,4.209c4.646,1.78,8.646,3.621,11.994,5.521
		c5.13-2.775,12.25-4.314,21.362-4.616c9.083-0.302,16.143,0.739,21.182,3.123l-2.716,8.554l-10.591-0.588
		c-6.971-0.302-11.903-0.347-14.801-0.136c-3.138,0.241-4.466,0.604-3.981,1.086c0.392,0.392,1.703,0.694,3.937,0.905
		C215.759,150.515,218.248,150.952,219.938,151.495"/>
	<path fill="#009233" d="M212.515,148.191c-3.138,0.241-4.466,0.604-3.981,1.086c0.392,0.392,1.703,0.694,3.937,0.905
		c3.29,0.332,5.779,0.769,7.468,1.312c3.771,1.177,7.498,3.319,11.181,6.427l-0.59,6.382l-0.994,8.781
		c-1.781-2.173-4.301-4.315-7.56-6.427c-3.982-2.625-7.77-4.209-11.361-4.752l-2.715-0.181c-0.181,0.212,0.498,0.86,2.036,1.947
		c1.419,1.025,4.21,3.515,8.374,7.467l7.604,7.333l-6.879,5.657c-0.15,0.121-2.264-1.282-6.336-4.208
		c-4.104-2.927-6.412-4.27-6.926-4.028c-0.513,0.271,1.147,2.037,4.979,5.295l5.792,4.979l-6.788,5.567
		c-6.82-11.043-15.857-18.617-27.111-22.721c-12.25-4.435-24.034-3.319-35.349,3.349c-4.194-10.561-10.455-16.112-18.783-16.655
		l3.847-2.897l13.081-1.222l10.319-1.267c1.599-0.211,2.399-0.528,2.399-0.951c0-0.422-0.785-0.754-2.354-0.996l-7.287-1.539
		l-5.023-1.222c1.448-0.905,4.948-3.44,10.501-7.604c4.947-3.742,7.708-5.703,8.281-5.884c6.549-0.724,14.483,0.679,23.808,4.209
		c4.646,1.78,8.646,3.621,11.994,5.521c5.13-2.775,12.25-4.314,21.362-4.616c9.083-0.302,16.143,0.739,21.182,3.123l-2.715,8.554
		l-10.592-0.588C220.344,148.025,215.412,147.98,212.515,148.191"/>
	<path fill="#0D131A" d="M193.958,139.592h0.136l5.657,0.86l1.674-0.453c0.604,0-0.407,0.754-3.033,2.263
		c-9.323,3.802-18.48,8.826-27.472,15.071c-17.411,12.04-31.909,27.865-43.495,47.478l-0.951,1.72
		c-0.121,0.09-0.227-0.573-0.316-1.991c-0.241-3.833,1.19-8.961,4.299-15.389c3.318-6.879,7.814-13.593,13.486-20.141
		C158.459,152.265,175.13,142.458,193.958,139.592"/>
	<path fill="#00A63C" d="M196.176,141.673c-9.958,2.806-20.473,8.328-31.547,16.565c-15.268,11.346-27.382,25.406-36.344,42.183
		c1.057-4.526,3.304-9.731,6.743-15.615c3.803-6.487,8.389-12.598,13.76-18.33c13.638-14.454,28.71-22.962,45.215-25.527l1.9,0.182
		C196.901,141.251,196.991,141.433,196.176,141.673"/>
	<path fill="#009233" d="M194.003,140.949l1.9,0.182c0.997,0.12,1.088,0.302,0.272,0.542c-5.22,1.479-11.028,3.968-17.425,7.468
		c-8.087,4.465-15.706,9.882-22.856,16.249c-1.207-0.845-2.55-1.524-4.027-2.037c5.943-5.793,12.25-10.546,18.918-14.257
		C178.328,144.872,186.068,142.156,194.003,140.949"/>
	<path fill="#0D131A" d="M359.656,119.18c0.15,1.207-1.841,3.65-5.975,7.332c-4.104,3.651-6.503,5.13-7.196,4.436l-6.562-7.785
		l1.675,5.069c0.755,2.535,0.996,4.225,0.725,5.07c-0.332,1.025-2.701,2.354-7.105,3.982c-4.375,1.63-6.713,2.082-7.016,1.358
		c-0.212-0.543-1.07-1.765-2.58-3.666l-3.981-4.888l-0.092,6.879c-0.029,2.686-0.181,4.149-0.452,4.391
		c-0.633,0.573-5.113,0.844-13.442,0.814c-9.654-0.03-17.649-0.86-23.986-2.489c-1.63-0.392-2.597-0.709-2.897-0.951
		c-0.724-0.573-1.433-1.991-2.126-4.254c-1.66-5.311-4.707-11.058-9.144-17.244c-4.164-5.763-8.977-11.134-14.438-16.113
		c-5.432-4.979-10.605-8.735-15.523-11.27c-5.221-2.686-9.369-3.545-12.446-2.58l-1.539-0.227
		c-10.47-5.069-24.396,2.851-41.775,23.762c-8.689,10.44-16.34,21.393-22.947,32.859h-18.33l-1.358-8.871l-2.308,2.716l-1.494,2.761
		l-1.312,2.399c-0.634,0.302-2.293-0.076-4.979-1.132l-11.405-3.982l-9.007-2.852c-1.509-0.453-2.414-1.026-2.716-1.72
		c-0.362-0.845-0.15-2.324,0.633-4.436l1.766-5.295l1.721-5.658c-1.178,0.996-3.289,3.561-6.337,7.694
		c-2.807,3.802-4.541,5.869-5.205,6.201c-0.996,0.453-4.391-1.026-10.185-4.436c-5.793-3.38-8.931-5.672-9.415-6.88
		c-0.271-0.664,1.464-2.896,5.206-6.698c4.133-4.225,9.144-8.66,15.026-13.307c16.324-12.945,32.074-21.996,47.252-27.156
		c16.264-5.552,30.61-7.589,43.042-6.11c11.857,1.388,23.385,6.155,34.579,14.302c11.286-7.936,24.788-11.602,40.509-10.999
		c15.026,0.573,30.671,4.933,46.935,13.08c11.347,5.733,22.253,13.036,32.724,21.906
		C354.919,112.647,359.413,117.309,359.656,119.18"/>
	<path fill="#E85382" d="M346.35,128.095l-2.716-3.982c-1.722-2.384-3.638-4.556-5.748-6.518c-2.323-2.202-3.576-3.017-3.757-2.443
		c-0.121,0.422,0.378,1.674,1.492,3.756c0.785,1.479,1.51,3.289,2.174,5.431l2.127,7.378c-2.293,1.569-5.823,2.911-10.592,4.027
		l-5.113-7.467c-3.019-4.285-4.646-6.141-4.889-5.567c-0.271,0.574-0.468,3.214-0.589,7.921l-0.226,8.373l-14.937,0.679
		c-8.479-0.09-15.162-1.026-20.051-2.806c-1.568-5.733-4.511-11.843-8.825-18.33c-4.163-6.307-9.067-12.13-14.709-17.471
		c-5.824-5.492-11.633-9.716-17.427-12.673c-6.246-3.199-11.826-4.556-16.746-4.073c-12.039-4.707-26.19,2.414-42.454,21.362
		c-8.901,10.319-16.957,22.102-24.169,35.349H144.76c-0.754-3.289-1.222-6.004-1.403-8.147l-0.136-3.168
		c-0.15-0.332-0.845,0.09-2.083,1.267l-3.802,3.938c-1.207,1.448-2.021,2.852-2.443,4.209c-3.982-0.725-12.145-3.289-24.485-7.694
		c2.413-7.996,4.18-13.624,5.295-16.882c0.784-2.293,1.071-3.485,0.859-3.575l-2.671,1.72c-1.931,1.328-4.209,3.304-6.833,5.929
		c-3.199,3.229-5.672,6.291-7.423,9.188c-3.048-0.785-6.064-2.067-9.052-3.848c-2.172-1.267-4.014-2.58-5.522-3.938
		c6.699-6.759,14.272-13.367,22.722-19.824c14.845-11.315,28.891-19.235,42.138-23.761c16.443-5.582,30.354-7.951,41.729-7.106
		c11.617,0.875,22.721,5.235,33.312,13.08l1.402,0.634c10.198-5.944,21.333-9.158,33.402-9.641
		c15.901-0.664,32.738,3.47,50.51,12.401c10.562,5.311,20.82,11.934,30.777,19.869c6.729,5.371,12.055,10.199,15.978,14.483
		c-0.846,1.418-2.488,2.958-4.934,4.617L346.35,128.095"/>
	<path fill="#C94772" d="M272.395,73.874c-10.953,2.927-20.005,8.252-27.156,15.977c-7.302-4.254-13.773-6.095-19.417-5.521
		c-3.982-1.539-8.268-1.765-12.854-0.679c-2.958-5.099-6.759-9.324-11.406-12.673c7.876,1.931,15.675,5.748,23.4,11.451l1.402,0.634
		C240.155,75.036,255.497,71.973,272.395,73.874"/>
	<path fill="#C94772" d="M317.565,89.715c8.961,5.1,17.591,11.074,25.888,17.923c5.733,4.707,10.261,8.886,13.579,12.537
		c-0.846,1.448-2.505,3.002-4.979,4.662C343.031,112.918,331.533,101.211,317.565,89.715"/>
	<path fill="#C94772" d="M166.304,129.046c-2.716,4.315-5.084,8.313-7.106,11.994h-12.717c9.143-13.095,20.397-23.626,33.764-31.592
		C175.537,115.271,170.89,121.804,166.304,129.046"/>
	<path fill="#0D131A" d="M263.659,82.881c-3.803-2.565-5.702-4.27-5.702-5.115c-0.122-1.116,0-2.203,0.36-3.259
		c0.362-1.146,0.967-1.976,1.811-2.489l0.092-0.09h0.135c9.987-0.182,20.442,1.463,31.365,4.933l0.544,0.181l-0.634,1.494
		c-1.479,3.349-2.701,5.763-3.667,7.242c-2.142,3.229-4.51,5.22-7.104,5.974C278.866,92.325,273.134,89.368,263.659,82.881"/>
	<path fill="#FCEEF4" d="M260.989,73.195c9.295-0.121,19.101,1.418,29.42,4.616l-0.181,0.408c-1.236,2.806-2.385,4.964-3.439,6.472
		c-1.933,2.776-4.073,4.511-6.428,5.205c-0.514,0.151-1.613-0.12-3.304-0.814c-1.962-0.814-4.33-2.037-7.105-3.666
		c-2.929-1.72-5.447-3.364-7.56-4.934c-1.87-1.418-2.851-2.323-2.941-2.715l-0.045-0.679
		C259.405,75.247,259.933,73.949,260.989,73.195"/>
	<path fill="#D9CED4" d="M260.989,73.195l12.945,0.86l-6.789,1.358c-2.656,0.604-5.131,1.539-7.424,2.806l-0.271-0.453l-0.046-0.679
		C259.405,75.247,259.933,73.949,260.989,73.195"/>
	<path fill="#0D131A" d="M284.932,105.465c5.551-2.293,9.564-3.138,12.039-2.535c2.806,0.664,5.023,4.074,6.652,10.229
		c1.479,5.612,1.78,9.61,0.904,11.994c-0.754,2.112-3.604,3.787-8.554,5.024l-7.241,1.176c-2.384,0.513-6.668-1.735-12.854-6.744
		l-0.091-0.09l-4.661-9.188C274.024,111.35,278.625,108.06,284.932,105.465"/>
	<path fill="#FCEEF4" d="M286.199,106.506c5.067-2.051,8.629-2.836,10.681-2.353c0.544,0.15,1.418,1.327,2.625,3.53
		c1.086,1.992,1.946,4.073,2.58,6.246c0.725,2.383,1.086,4.556,1.086,6.518c0,1.448-0.196,2.715-0.588,3.802
		c-1.058,2.896-5.28,4.707-12.673,5.431l-0.996,0.136c-1.871,0.422-5.461-1.479-10.771-5.703l-3.848-6.201l-1.268-2.308
		C275.834,111.893,280.225,108.86,286.199,106.506"/>
	<path fill="#0D131A" d="M322.633,98.45c6.759,3.561,10.484,5.899,11.18,7.015c0.181,0.332,0.181,0.664,0,0.996
		c-0.604,1.086-3.439,2.701-8.51,4.843c-4.857,2.052-7.875,3.078-9.053,3.078c-1.205,0-3.408-1.645-6.607-4.934
		c-3.138-3.229-4.902-5.582-5.295-7.061c-0.393-1.629-0.03-3.364,1.086-5.205c0.482-0.784,1.253-1.569,2.309-2.354
		c1.026-0.754,1.887-1.207,2.58-1.358C311.651,93.169,315.754,94.829,322.633,98.45"/>
	<path fill="#FCEEF4" d="M331.686,106.008c-0.242,0.694-2.564,1.992-6.971,3.893c-4.346,1.84-7.092,2.761-8.237,2.761
		c-0.814,0-2.687-1.464-5.612-4.391c-2.957-2.957-4.615-5.114-4.979-6.473c-0.362-1.297-0.046-2.73,0.95-4.299
		c0.875-1.388,1.854-2.203,2.941-2.444c1.116-0.241,4.902,1.312,11.36,4.662C327.446,102.946,330.96,105.043,331.686,106.008"/>
	<path fill="#0D131A" d="M180.924,68.443l0.813-0.046l-0.271,0.725l-2.036,7.785c-1.117,4.164-1.946,6.396-2.489,6.698
		c-0.966,0.453-4.42,0.543-10.364,0.271c-6.065-0.302-9.656-0.814-10.772-1.539l-0.679-0.543l-0.407-0.498
		c0-0.513,1.312-2.338,3.938-5.476l3.938-4.572l1.312-0.86l8.825-1.358L180.924,68.443"/>
	<path fill="#FCEEF4" d="M179.973,69.483l-1.449,5.974l-0.996,4.165c-0.393,1.327-0.784,2.097-1.177,2.308
		c-0.845,0.422-3.999,0.468-9.459,0.135c-5.462-0.332-8.57-0.754-9.324-1.267c0.15-0.785,1.659-2.912,4.525-6.381l1.675-2.082
		C169.532,70.887,174.933,69.936,179.973,69.483"/>
	<path fill="#0D131A" d="M140.552,95.508c8.479-4.375,13.201-6.487,14.166-6.336c1.026,0.181,3.002,3.877,5.929,11.089
		c2.896,7.121,4.33,11.617,4.3,13.487c-0.03,2.142-4.496,4.043-13.396,5.703c-8.812,1.63-13.594,1.856-14.348,0.679l-5.567-7.242
		c-3.47-4.676-5.099-7.452-4.887-8.328C127.139,103.021,131.74,100.004,140.552,95.508"/>
	<path fill="#FCEEF4" d="M128.739,105.013c0.271-1.026,4.285-3.576,12.039-7.649c7.604-3.983,12.07-6.021,13.397-6.11
		c0.815,0.543,2.504,3.908,5.069,10.093c2.596,6.276,3.893,10.274,3.893,11.994v0.045l-0.679,0.86
		c-0.815,0.604-2.157,1.207-4.028,1.811c-3.682,1.207-7.845,2.052-12.492,2.534c-4.375,0.483-6.773,0.438-7.195-0.136l-2.988-3.53
		c-4.677-5.16-7.016-8.388-7.016-9.686V105.013"/>
	<path fill="#0D131A" d="M177.121,90.711c1.207-1.751,2.066-2.761,2.58-3.033c2.082-1.025,5.521-1.674,10.318-1.946
		c6.276-0.332,10.289,0.965,12.039,3.893l0.271,0.453l-0.407,0.271c-4.497,2.927-9.097,6.85-13.804,11.768l-0.183,0.182
		l-0.271-0.045l-7.151-0.951l-6.562-0.86c-1.177-0.241-1.842-0.558-1.991-0.95c-0.12-0.211-0.105-0.438,0.045-0.679l1.403-2.218
		L177.121,90.711"/>
	<path fill="#FCEEF4" d="M181.014,88.538c1.539-0.785,4.465-1.343,8.781-1.675c5.491-0.392,9.157,0.453,10.998,2.535
		c-4.043,2.776-8.374,6.547-12.989,11.315l-6.382-0.815l-7.377-1.132l1.221-1.946C178.404,91.631,180.32,88.87,181.014,88.538"/>
	<path fill="#DBDCDC" d="M276.965,371.551c1.569,0.967,3.455,2.52,5.658,4.662c2.354,2.264,3.546,3.771,3.575,4.525
		c0.091,0.875-0.648,2.52-2.218,4.934c-1.449,2.264-2.807,4.014-4.074,5.251c0.182-4.104,0.121-7.438-0.181-10.003
		C279.304,377.329,278.384,374.206,276.965,371.551"/>
</g>
</svg>
