<?xml version="1.0" encoding="utf-8"?>
<!-- Generator: Adobe Illustrator 16.0.0, SVG Export Plug-In . SVG Version: 6.00 Build 0)  -->
<!DOCTYPE svg PUBLIC "-//W3C//DTD SVG 1.1//EN" "http://www.w3.org/Graphics/SVG/1.1/DTD/svg11.dtd">
<svg version="1.1" id="Layer_1" xmlns="http://www.w3.org/2000/svg" xmlns:xlink="http://www.w3.org/1999/xlink" x="0px" y="0px"
	 width="456px" height="415px" viewBox="0 0 456 415" enable-background="new 0 0 456 415" xml:space="preserve">
<g>
	<g>
		<path fill="#0D131A" d="M408.926,199.391c14.8,11.865,26.096,25.035,33.886,39.509c6.261,11.603,9.388,21.94,9.388,31.001
			c0,11.833-4.547,23.895-13.642,36.184c-8.768,11.865-19.852,21.466-33.249,28.801c3.03,3.224,5.199,5.801,6.504,7.723
			c1.76,2.61,2.64,4.891,2.64,6.847c0,0.652-0.291,1.467-0.88,2.446l-1.418,2.249c-3.391,6.748-14.881,10.92-34.473,12.517
			c-15.485,1.272-30.252,0.897-44.301-1.124c-10.268-1.5-19.055-3.927-26.357-7.284c-1.631-0.718-6.309-3.391-14.032-8.021
			c-3.391-2.053-5.836-3.34-7.334-3.861c-2.317-0.849-4.679-1.013-7.09-0.489c-33.415,7.138-58.905,9.552-76.477,7.237
			c-9.062-1.207-17.554-3.685-25.474-7.434c-7.205-3.423-14.832-8.36-22.885-14.815c-24.677-17.049-42.084-35.404-52.222-55.061
			c-10.171-19.688-12.176-38.907-6.014-57.648c3.423-10.431,9.274-20.113,17.554-29.044c8.28-8.963,18.468-16.609,30.561-22.933
			c12.617-6.617,26.552-11.507,41.808-14.669c15.323-3.195,31.395-4.547,48.212-4.059c41.042,1.173,77.194,6.862,108.455,17.065
			C368.488,173.165,390.771,184.786,408.926,199.391"/>
		<path fill="#5DC1CF" d="M402.961,336.841c1.822,1.107,3.602,3.49,5.33,7.138c1.891,3.912,2.331,6.877,1.32,8.898
			c-2.901,5.803-13.218,9.356-30.95,10.66c-14.474,1.045-28.59,0.57-42.346-1.418c-10.299-1.467-19.233-3.701-26.796-6.697
			c-4.399-1.729-9.404-4.288-15.011-7.677c-3.685-2.184-6.359-3.57-8.021-4.156c-2.771-0.945-5.606-1.125-8.51-0.538
			c-29.596,6.096-53.231,8.101-70.9,6.014c-17.702-2.119-34.947-8.98-51.733-20.588c-24.09-16.657-41.107-34.52-51.049-53.59
			c-9.975-19.104-11.996-37.716-6.063-55.842c6.945-21.188,23.016-38.172,48.213-50.951c25.199-12.779,54.243-18.695,87.136-17.75
			c58.253,1.695,103.987,10.627,137.206,26.796c33.217,16.201,57.519,41.417,72.905,75.644c7.075,15.68,3.978,32.744-9.293,51.197
			c-4.857,6.748-10.643,13.038-17.357,18.874c-5.64,4.89-10.527,8.346-14.667,10.367c-5.803,2.867-7.892,4.416-6.261,4.646
			C397.191,338.03,399.473,337.688,402.961,336.841"/>
		<path fill="#50A8B4" d="M155.344,328.479l-6.26-4.497c18.061,0.032,38.826-2.232,62.295-6.799l61.758-13.838
			c3.391,13.528,7.759,26.927,13.105,40.195c-2.705-0.914-5.461-1.076-8.265-0.489c-29.596,6.096-53.231,8.101-70.9,6.014
			C189.376,346.945,172.132,340.084,155.344,328.479"/>
		<path fill="#50A8B4" d="M407.995,289.703c1.11-5.054-0.017-10.446-3.372-16.184c-3.034-5.183-7.286-9.713-12.762-13.596
			c-5.412-3.878-10.561-6.096-15.452-6.646c-5.315-0.621-9.177,0.926-11.591,4.646c0.687-1.144,0.391-3.001-0.88-5.575
			c-1.335-2.707-3.52-5.641-6.552-8.801c-7.592-7.856-17.275-14.1-29.045-18.728c-14.832-5.868-30.626-7.971-47.378-6.309
			c-20.506,2.053-41.338,9.715-62.494,22.98c-8.442,5.281-17.324,6.731-26.649,4.354c-7.497-1.958-16.021-6.7-25.573-14.23
			c-2.705-2.15-11.067-9.521-25.083-22.102c-10.171-9.161-18.565-15.616-25.184-19.365c12.42-12.974,28.93-22.998,49.534-30.072
			c20.961-7.172,43.649-10.416,68.065-9.731c58.253,1.695,103.987,10.627,137.206,26.796c33.217,16.201,57.519,41.416,72.905,75.645
			c7.075,15.681,3.978,32.745-9.293,51.195c-4.857,6.748-10.643,13.038-17.357,18.875c-5.641,4.889-10.527,8.347-14.667,10.368
			c-5.803,2.866-7.892,4.417-6.261,4.645c1.076,0.162,3.357-0.18,6.848-1.025c1.822,1.107,3.602,3.488,5.33,7.139
			c1.891,3.912,2.329,6.874,1.32,8.896c-1.467,2.967-5.02,5.364-10.658,7.189c-4.956,1.631-11.313,2.754-19.07,3.374
			c-0.163-5.476-1.401-10.35-3.716-14.621c-1.921-3.487-4.092-5.916-6.504-7.286C392.09,321.192,404.868,303.915,407.995,289.703"/>
		<path fill="#0D131A" d="M393.719,354.736c3.226,3.781,4.676,6.486,4.351,8.117c-0.489,2.249-1.287,4.645-2.397,7.187
			c-1.466,3.263-2.802,4.877-4.009,4.841c-3.227-0.065-6.748-0.913-10.561-2.542c-3.423-1.434-6.7-3.324-9.829-5.673
			c-0.489-0.324-0.783-0.698-0.88-1.124c-0.196-0.783,0.278-1.939,1.418-3.472c7.659-9.974,12.534-14.569,14.618-13.791
			C388.226,348.967,390.654,351.119,393.719,354.736"/>
		<path fill="#FFFFFF" d="M392.69,356.84c2.543,3.163,3.701,5.347,3.474,6.552c-0.293,1.5-1.027,3.178-2.201,5.035
			c-1.236,1.86-2.232,2.789-2.983,2.789c-1.532,0-4.497-0.669-8.898-2.007c-4.792-1.498-7.659-2.802-8.604-3.91
			c0.16-0.945,1.416-2.918,3.765-5.916c2.605-3.294,4.985-5.655,7.138-7.09c1.105-0.749,1.857-1.076,2.247-0.978
			C388.162,351.9,390.182,353.742,392.69,356.84"/>
		<path fill="#DBDCDC" d="M386.677,351.362c1.534,0.618,3.556,2.46,6.064,5.526c2.509,3.16,3.65,5.33,3.423,6.503
			c-0.293,1.336-0.929,2.819-1.907,4.448C392.821,362.267,390.296,356.774,386.677,351.362"/>
		<path fill="#0D131A" d="M418.117,345.983c4.598,4.566,6.571,7.662,5.919,9.293c-1.272,3.129-5.199,5.185-11.785,6.159
			c-2.574,0.393-4.792,0.441-6.648,0.149c-1.923-0.293-2.819-0.867-2.688-1.711c0.325-2.184,1.205-6.001,2.638-11.445
			c1.403-5.41,2.234-8.166,2.496-8.261C410.133,339.383,413.49,341.322,418.117,345.983"/>
		<path fill="#DBDCDC" d="M405.944,357.867l-0.1-0.88c0-1.597,0.57-4.239,1.714-7.921c1.009-3.325,1.842-5.561,2.492-6.697
			c1.207,0.715,3.165,2.671,5.87,5.868c2.836,3.356,4.254,5.558,4.254,6.6v0.049c-0.065,0.652-1.076,1.435-3.032,2.347
			c-2.119,1.013-4.303,1.646-6.552,1.909C407.852,359.463,406.303,359.038,405.944,357.867"/>
		<path fill="#0D131A" d="M365.751,339.48l19.949-1.661c1.925-0.262,2.854-0.067,2.787,0.587c-0.065,0.587-0.798,1.188-2.198,1.809
			c-1.794,0.814-8.217,1.386-19.268,1.711c-12.16,0.391-20.191-0.196-24.105-1.76l0.441-1.321
			C346.518,339.888,353.981,340.101,365.751,339.48"/>
		<path fill="#0D131A" d="M367.314,235.28c0.359-2.182,0.815-3.274,1.37-3.274c0.587,0,0.848,1.093,0.785,3.274
			c-0.621,15.485-4.092,28.23-10.418,38.239c-6.748,10.657-17.227,18.954-31.442,24.888l-0.831-2.002
			c12.745-5.315,22.588-14.23,29.534-26.748C361.398,260.496,365.065,249.038,367.314,235.28"/>
		<path fill="#0D131A" d="M211.723,134.406l1.026,0.928l-45.816,32.125c-0.783,0.49-8.738,3.163-23.861,8.02
			c-15.29,4.857-23.276,7.22-23.961,7.09c-0.586-0.131-2.086-4.45-4.5-12.958l-4.936-17.652l-5.82,34.961
			c-13.691,4.14-20.829,5.982-21.416,5.525c-0.328-0.261-0.49-3.292-0.49-9.095l-0.097-15.695l-6.31,28.947l-6.845,2.201
			c-4.661,1.401-7.253,1.891-7.773,1.466c-0.521-0.423-1.224-3.096-2.103-8.018l-2.054-11.394l-6.307,22.248
			c-5.934,2.967-9.275,4.158-10.022,3.57c-0.425-0.326-0.75-2.151-0.979-5.476l-0.635-8.411l-4.499,15.99
			c-8.312,1.922-12.631,2.589-12.958,2.003c-0.228-0.39,0.864-3.681,3.276-9.877l5.379-13.887l-19.171,19.17
			c-1.207,1.141-1.873,1.304-2.004,0.489l0.196-1.614l9.047-26.259l17.75-9.437l-14.816,4.009l12.566-16.479l21.369-9.485
			l-11.687,2.348c-4.467,0.912-6.814,1.206-7.042,0.879c-0.262-0.359,3.503-3.814,11.294-10.366
			c7.759-6.488,12.079-9.878,12.958-10.171l9.047-0.685l13.153-0.635c-3.749-1.304-6.879-2.624-9.389-3.961l-1.76-0.734
			c-0.065-0.097,0.557-0.489,1.86-1.173c25.655-13.333,50.528-19.2,74.615-17.603C173.208,106.974,194.446,116.673,211.723,134.406"
			/>
		<path fill="#00A63C" d="M76.325,123.99c26.045-11.865,50.332-16.854,72.857-14.963c22.557,1.858,42.573,10.545,60.046,26.062
			l-45.475,30.61c-28.133,9.715-42.541,14.425-43.225,14.132c-0.489-0.228-2.249-5.2-5.282-14.914
			c-3.031-9.747-4.66-15.729-4.889-17.945c-0.262-2.281-0.619-3.113-1.076-2.495c-0.522,0.62-1.239,2.951-2.152,6.994
			c-1.271,5.509-3,16.739-5.183,33.69l-17.407,4.547l-0.735-31.148c-0.097-2.608-0.26-3.977-0.488-4.107
			c-0.262-0.196-0.815,1.108-1.663,3.912c-1.207,3.944-3.846,16.103-7.921,36.478l-11.198,2.787
			c-2.446-9.877-3.977-17.049-4.597-21.515c-0.423-2.967-0.797-4.271-1.125-3.912l-0.977,3.863l-7.09,25.182l-6.309,1.271
			l-1.026-6.308c-0.587-3.715-0.994-6.617-1.224-8.704c-0.26-2.509-0.489-3.765-0.685-3.765c-0.197,0.032-0.669,1.238-1.417,3.618
			c-0.945,3.13-2.769,9.634-5.475,19.51l-7.971,1.222l9.047-24.938c0.847-2.183,0.815-3.032-0.099-2.543l-1.663,1.418
			l-19.313,19.315l7.236-21.026c13.463-7.432,21.94-11.93,25.427-13.495c5.575-2.543,5.314-3.211-0.782-2.005
			c-2.641,0.522-5.869,1.337-9.681,2.445l-8.215,2.396l8.362-11.002l12.714-5.623l16.088-7.188c2.674-1.206,4.026-1.908,4.059-2.102
			c0.032-0.294-1.516-0.278-4.646,0.048l-10.17,1.614l-9.34,1.76l17.7-14.963l12.47-0.684l14.572-0.881
			c1.728-0.162,2.608-0.358,2.64-0.587c0-0.228-0.784-0.733-2.347-1.516c-0.978-0.488-2.854-1.173-5.624-2.054
			C80.172,125.571,77.923,124.739,76.325,123.99"/>
		<path fill="#009233" d="M113.391,135.432c-0.879,0-2.184-0.961-3.912-2.885l-5.574-6.111c-5.672-5.706-11.376-8.003-17.114-6.895
			c23.895-9.324,46.191-12.665,66.892-10.023c20.732,2.608,39.249,11.132,55.548,25.573l-44.006,29.632
			c-5.51-7.758-13.074-14.407-22.688-19.95C132.591,139.001,122.877,135.889,113.391,135.432"/>
		<path fill="#0D131A" d="M187.323,124.821l9.144,8.019l-3.57,0.929c-2.736-0.913-6.455-1.76-11.147-2.543
			c-9.292-1.5-19.104-1.923-29.437-1.271c-32.827,2.054-64.594,14.425-95.302,37.114l-2.495,1.808
			c-1.207,0.685-0.669-0.276,1.614-2.884c14.147-16.267,32.435-28.23,54.863-35.891C135.28,121.823,160.723,120.062,187.323,124.821
			"/>
		<path fill="#00A63C" d="M191.626,131.521c-18.744-3.912-35.582-4.89-50.511-2.934c-23.373,3.064-47.968,12.958-73.786,29.681
			c14.146-13.234,31.555-22.656,52.221-28.263c21.417-5.835,44.008-6.911,67.771-3.227l0.832,1.564
			C188.937,129.516,190.094,130.575,191.626,131.521"/>
		<path fill="#009233" d="M187.323,126.778l0.832,1.564c0.782,1.174,1.939,2.232,3.471,3.179
			c-12.518-2.641-23.585-3.979-33.201-4.009c-14.343-0.098-28.881,2.298-43.616,7.188l-3.081-2.347
			c11.344-3.815,23.324-6.211,35.94-7.189C160.641,124.153,173.86,124.691,187.323,126.778"/>
		<path fill="#00A63C" d="M295.583,97.586l0.342,0.146l0.196,0.342c2.477,3.652,3.781,7.515,3.912,11.589
			c0.162,4.107-0.865,8.068-3.081,11.881c-4.436,7.63-12.633,13.594-24.595,17.896c-14.248,5.085-31.769,6.845-52.566,5.28
			c-2.771-0.228-4.515-1.417-5.232-3.569c-0.945-2.836,0.195-6.879,3.422-12.127c3.226-5.216,7.807-10.447,13.739-15.697
			c7.66-6.78,15.843-11.946,24.547-15.5C270.578,91.962,283.684,91.882,295.583,97.586"/>
		<path fill="#009233" d="M293.969,100.031c2.15,3.293,3.227,6.748,3.227,10.366c0,3.326-0.914,6.553-2.739,9.681
			c-4.17,7.204-12.029,12.828-23.567,16.87c-13.725,4.759-30.69,6.389-50.902,4.89c-1.5-0.098-2.396-0.635-2.689-1.613
			c-0.718-2.021,0.376-5.33,3.277-9.926c3.129-4.922,7.481-9.861,13.055-14.816c7.271-6.421,15.027-11.36,23.276-14.815
			C270.465,95.026,282.821,94.815,293.969,100.031"/>
		<path fill="#0D131A" d="M253.679,59.789c4.397,2.282,7.301,5.182,8.702,8.703c5.054,12.843,7.824,24.416,8.313,34.717
			c0.553,11.182-1.387,23.568-5.821,37.162c-1.043,3.227-3.535,6.226-7.482,8.997c-4.106,2.934-9.16,5.134-15.157,6.601
			c-8.377,2.054-16.495,2.477-24.351,1.271c-9.519-1.467-16.756-5.28-21.71-11.442c-9.552-11.962-12.828-27.561-9.83-46.794
			c1.043-6.715,2.805-13.382,5.282-19.999c1.858-5.086,3.62-8.932,5.28-11.54c2.869-4.596,8.477-8.002,16.821-10.219
			c7.498-1.989,15.289-2.608,23.374-1.858C243.751,56.04,249.277,57.505,253.679,59.789"/>
		<path fill="#C28600" d="M259.692,69.568c4.857,12.289,7.497,23.878,7.921,34.766c0.488,11.377-1.369,23.178-5.574,35.402
			c-0.912,2.64-3.161,5.182-6.748,7.628c-3.781,2.543-8.377,4.481-13.789,5.818c-8.116,2.021-15.825,2.51-23.128,1.467
			c-9.127-1.271-15.795-4.841-20-10.709c-8.214-11.475-11.019-26.421-8.411-44.839c0.945-6.486,2.496-12.876,4.645-19.167
			c1.696-4.988,3.262-8.639,4.696-10.954c2.607-4.14,7.79-7.188,15.549-9.144c7.043-1.76,14.375-2.281,22.003-1.564
			c6,0.554,11.003,1.826,15.012,3.815C255.911,64.108,258.52,66.601,259.692,69.568"/>
		<path fill="#986A00" d="M259.692,69.568c4.106,10.464,6.637,20.357,7.582,29.681c0.942,9.747,0.257,19.607-2.056,29.583
			c-12.842-9.747-25.899-18.207-39.167-25.377c-17.341-9.322-29.029-12.747-35.059-10.269c1.074-5.313,2.526-10.431,4.351-15.354
			c1.465-3.976,2.788-6.927,3.961-8.85c2.607-4.14,7.791-7.188,15.55-9.144c7.043-1.76,14.375-2.281,22.003-1.564
			c6,0.554,11.003,1.826,15.012,3.815C255.911,64.108,258.52,66.601,259.692,69.568"/>
		<path fill="#0D131A" d="M247.859,84.433c0.39-0.131,1.958,1.483,4.694,4.84l4.695,5.819c3.098-4.271,5.737-7.611,7.921-10.024
			l0.978-1.076l0.244,1.467c0.914,5.053,1.876,9.471,2.887,13.252c0.391,2.282,0.194,5.965-0.586,11.051l0.244,4.645l-1.272,1.907
			l-2.589,6.161l-3.963,9.047l-0.782,1.515l-6.014-17.75l-8.509,16.967l-7.284-13.104l-8.508,12.81l-8.558-11.392l-7.334,14.67
			l-7.383-16.137l-7.874,9.192l-1.371,1.32L196.177,128l-8.509-12.468v-0.246c-0.161-10.007,1.192-20.504,4.059-31.49l0.393-1.417
			l6.355,8.459l3.815-4.156c2.183-2.347,3.536-3.457,4.058-3.326c0.521,0.131,1.451,2.967,2.787,8.508l2.348,9.926l5.525-9.143
			c3.063-5.151,4.792-7.743,5.183-7.776c0.392-0.032,1.565,1.908,3.521,5.819l3.472,6.943l3.765-6.699
			c2.086-3.781,3.325-5.705,3.715-5.77c0.425-0.066,1.552,2.135,3.374,6.601l3.474,8.508l2.1-8.802
			C246.686,86.91,247.435,84.562,247.859,84.433"/>
		<path fill="#C28600" d="M265.217,87.22c1.369,7.726,2.055,13.854,2.055,18.386l-0.149,3.96l-0.734,4.646
			c-0.194,0.292-1.011,2.477-2.443,6.551l-3.325,8.557l-3.13-10.708c-1.694-5.803-2.64-8.688-2.838-8.655
			c-0.228,0-1.644,2.935-4.254,8.801l-4.645,10.416l-3.863-8.264c-2.053-4.531-3.195-6.732-3.423-6.601
			c-0.197,0.131-1.565,2.51-4.109,7.139l-4.449,8.02l-4.839-7.58c-2.804-4.302-4.319-6.373-4.546-6.21
			c-0.229,0.163-1.223,2.657-2.983,7.481l-3.374,8.753l-3.621-9.437c-1.989-5.215-3.112-7.905-3.373-8.069
			c-0.262-0.163-1.695,1.696-4.303,5.575l-4.547,6.699l-9.192-11.638l-0.049-1.271c0-8.802,1.222-18.174,3.667-28.115l2.298,3.667
			l1.958,3.228l0.977,1.271c0.197,0.13,0.57-0.082,1.125-0.635c2.934-2.934,4.973-4.839,6.112-5.721l2.64,9.144
			c1.598,5.313,2.657,8.084,3.176,8.312c0.49,0.228,2.381-2.103,5.672-6.993l5.624-8.556l3.374,6.062
			c1.891,3.26,3.031,4.874,3.422,4.841c0.391-0.033,1.581-1.565,3.568-4.597l3.62-5.77l4.156,7.628l3.375,6.455l4.694-15.5
			l8.851,8.802l0.489-0.685l2.542-3.374L265.217,87.22"/>
		<path fill="#986A00" d="M200.233,92.11c2.543-2.51,4.206-4.06,4.987-4.645l1.858,6.601L200.233,92.11"/>
		<path fill="#986A00" d="M192.75,85.655c0.719,0.978,1.843,2.853,3.374,5.624l-4.499-0.635L192.75,85.655"/>
		<path fill="#986A00" d="M248.543,88.491l8.848,8.802l0.489-0.685l2.543-3.374l4.794-6.015c1.369,7.726,2.055,13.854,2.055,18.386
			l-0.149,3.96l-0.734,4.646l-1.907,4.986l-2.834,7.775l-2.201-1.516c-2.967-10.366-4.566-15.534-4.794-15.501
			c-0.228,0-1.68,2.983-4.349,8.948c-7.044-5.085-12.472-8.866-16.284-11.344c-6.162-3.977-11.916-7.204-17.264-9.681l5.575-8.508
			l3.374,6.062c1.891,3.26,3.033,4.874,3.422,4.841c0.392-0.033,1.581-1.565,3.569-4.597l3.619-5.77l4.156,7.628l3.375,6.455
			L248.543,88.491"/>
		<path fill="#C28600" d="M260.621,129.32l-1.174-3.863l2.201,1.516L260.621,129.32"/>
		<path fill="#0D131A" d="M340.469,39.887l1.466,1.957L233.531,58.37L128.45,32.21l8.215-9.095c5.803-5.704,10.007-8.36,12.615-7.97
			c0.783,0.131,2.233,0.652,4.352,1.564l5.573,2.347l-3.374-3.715c-1.141-1.337-1.368-2.152-0.685-2.445
			c3.422-1.63,8.232-3.243,14.426-4.841c10.138-2.674,18.907-3.537,26.308-2.592c9.746,1.272,22.688,11.132,38.824,29.583
			c4.239-7.172,7.304-12.111,9.194-14.816c5.153-7.302,9.615-11.654,13.396-13.055c4.533-1.695,10.84-2.509,18.924-2.445
			c7.305,0.066,11.198,0.489,11.688,1.271c0.26,0.456-0.376,2.004-1.907,4.645l-3.277,5.672c8.704-4.922,14.034-7.334,15.99-7.237
			c5.997,0.456,14.638,5.591,25.914,15.403C332.483,31.297,337.764,36.432,340.469,39.887"/>
		<path fill="#E85382" d="M318.025,23.114c8.935,6.944,15.125,12.486,18.582,16.625l-102.93,15.696l-100.875-24.4
			c2.054-2.64,4.207-4.972,6.455-6.992c3.357-3.064,6.42-4.972,9.193-5.721c2.543,0.717,7.351,2.461,14.425,5.232l4.793,1.907
			l-8.801-11.589c5.085-1.76,10.139-3.146,15.159-4.156c8.313-1.728,15.468-2.201,21.467-1.417
			c6.519,0.847,14.75,5.835,24.69,14.963c4.988,4.564,9.356,9.094,13.105,13.594l1.37,1.614l1.025-1.81l7.824-12.176
			c5.932-8.28,10.871-13.153,14.817-14.62c3.912-1.5,8.719-2.364,14.425-2.592c4.823-0.195,8.801,0.049,11.93,0.734
			c-1.728,2.086-3.307,4.564-4.743,7.433l-1.711,3.862l-1.271,3.715l3.374-1.956l7.579-4.644c5.214-3.065,8.411-4.662,9.584-4.792
			C300.913,11.297,307.758,15.128,318.025,23.114"/>
		<path fill="#C94772" d="M327.219,30.694c4.564,4.009,7.693,7.024,9.389,9.046l-102.93,15.695L139.21,32.6
			c14.768-0.292,26.291-0.164,34.57,0.392c12.746,0.782,24.286,2.655,34.62,5.623c-2.934-8.215-6.895-15.159-11.882-20.831
			c-4.336-4.956-8.654-8.133-12.959-9.535c4.368-0.424,8.346-0.407,11.932,0.048c6.519,0.847,14.75,5.835,24.691,14.963
			c4.988,4.564,9.356,9.094,13.106,13.594l1.369,1.614l0.048-0.099c1.763,2.445,3.538,3.962,5.331,4.547
			c5.118,1.435,10.222,1.272,15.308-0.49c3.161-1.075,7.999-3.602,14.52-7.579c7.206-4.368,13.137-7.53,17.801-9.486
			c7.855-3.292,16.218-5.362,25.084-6.21C317.374,22.447,322.197,26.292,327.219,30.694"/>
		<path fill="#0D131A" d="M252.21,21.159c1.663,0.913,3.129,2.119,4.401,3.618c0.878,0.978,1.581,1.972,2.1,2.983
			c0.558,1.108,0.736,1.923,0.538,2.444c-0.259,0.653-1.76,1.417-4.498,2.298c-3.094,0.945-6.145,1.402-9.144,1.369
			c-3.553-0.066-6.419-0.832-8.606-2.298l-0.439-0.293l0.293-0.439c2.217-3.586,4.646-7.089,7.284-10.512l0.148-0.147l0.147-0.049
			C247.076,19.48,249.667,19.823,252.21,21.159"/>
		<path fill="#FCEEF4" d="M254.949,24.533c1.011,1.01,1.842,2.07,2.494,3.177c0.521,0.945,0.785,1.614,0.785,2.004v0.049
			c-0.165,0.261-0.817,0.619-1.959,1.076l-4.498,1.271l-6.162,0.636c-3.063-0.066-5.573-0.669-7.53-1.809
			c2.413-3.749,4.678-7.009,6.796-9.78c2.056-0.489,4.094-0.277,6.115,0.635C252.423,22.414,253.742,23.327,254.949,24.533"/>
		<path fill="#0D131A" d="M293.04,22.332c0.555-0.326,1.743-0.049,3.568,0.831c3.554,1.696,7.157,4.255,10.808,7.677
			c4.661,4.466,7.562,8.949,8.706,13.446l0.146,0.538l-18.53,2.836l-0.196-0.048c-3.878-1.858-6.879-4.271-8.997-7.238
			c-1.598-2.086-1.974-4.922-1.125-8.508c0.555-2.118,1.452-4.188,2.688-6.21C291.246,23.832,292.224,22.725,293.04,22.332"/>
		<path fill="#D9CED4" d="M293.479,23.311c0.39-0.196,1.533,0.196,3.422,1.173c3.585,1.858,7.026,4.401,10.318,7.628
			c3.978,3.944,6.537,7.889,7.677,11.833l-17.016,2.64c-3.685-1.826-6.521-4.107-8.508-6.846c-0.88-1.173-1.323-2.656-1.323-4.449
			c0-0.978,0.147-2.021,0.441-3.13c0.521-2.054,1.367-4.041,2.542-5.964C292.046,24.533,292.86,23.572,293.479,23.311"/>
		<path fill="#0D131A" d="M287.319,14.998l-0.147,1.125c-0.358,2.086-1.095,4.091-2.201,6.014c-1.304,2.25-2.818,3.781-4.547,4.596
			l-7.581,0.196c-2.574-0.619-4.628-1.483-6.162-2.592c-0.814-0.619-1.202-1.206-1.173-1.76c0.198-1.467,0.521-2.917,0.979-4.352
			c0.846-2.868,1.856-4.335,3.029-4.401l2.841-0.244l9.681-0.586h0.927l-0.487,0.832c-1.142,1.858-2.09,3.717-2.839,5.575
			L287.319,14.998"/>
		<path fill="#FCEEF4" d="M269.567,14.899l2.887-0.245l8.166-0.538c-0.62,1.141-1.19,2.33-1.711,3.569l-0.687,1.614l-1.27,3.715
			l8.604-5.231c-0.489,1.663-1.205,3.146-2.15,4.45c-1.013,1.466-2.169,2.494-3.473,3.08c-1.598,0.75-3.716,0.897-6.355,0.441
			c-2.412-0.391-4.387-1.092-5.919-2.103l-1.076-0.979c0.162-1.499,0.538-3.113,1.125-4.84
			C268.396,15.911,269.015,14.933,269.567,14.899"/>
		<path fill="#0D131A" d="M210.256,13.726l0.636,0.44l-0.586,0.489c-2.542,1.923-6.162,4.189-10.855,6.797
			c-5.574,3.13-8.915,4.466-10.023,4.01c-1.142-0.457-2.12-1.842-2.934-4.157c-0.913-2.608-0.816-4.808,0.294-6.601
			c0.945-1.5,2.314-2.902,4.107-4.206c2.086-1.5,4.319-2.494,6.699-2.983l0.097-0.049l0.146,0.049
			C201.487,8.527,205.626,10.597,210.256,13.726"/>
		<path fill="#FCEEF4" d="M190.013,23.701c-0.717-0.26-1.37-1.222-1.956-2.884c-0.359-1.207-0.538-2.266-0.538-3.178
			c0-0.913,0.18-1.695,0.538-2.348c0.814-1.336,2.07-2.59,3.764-3.765c1.859-1.304,3.814-2.184,5.869-2.641
			c3.229,0.881,6.877,2.674,10.953,5.379c-2.575,1.858-6.113,3.944-10.61,6.258C193.371,22.935,190.696,23.995,190.013,23.701"/>
		<path fill="#D9CED4" d="M202.384,18.176c-3.652-2.51-7.303-4.629-10.953-6.357c2.021-1.499,4.108-2.477,6.259-2.934
			c3.229,0.881,6.877,2.674,10.953,5.379C206.947,15.503,204.861,16.807,202.384,18.176"/>
		<path fill="#0D131A" d="M168.156,14.215c3.942-0.26,6.438,0.066,7.481,0.978c0.847,0.75,1.125,2.151,0.831,4.205
			c-0.293,1.989-1.043,3.994-2.25,6.014c-3.031,5.15-6.601,7.041-10.708,5.672c-3.847-0.978-6.7-4.775-8.558-11.392l0.343-1.125
			l6.551,2.494l-3.129-4.107l0.439-0.343C161.017,15.242,164.015,14.443,168.156,14.215"/>
		<path fill="#FCEEF4" d="M169.28,15.292c3.128-0.066,5.019,0.18,5.672,0.733c0.326,0.359,0.227,1.532-0.293,3.521
			c-0.586,2.25-1.483,4.286-2.69,6.111c-2.346,3.554-5.019,4.826-8.019,3.814H163.9c-2.901-0.718-5.102-3.407-6.6-8.069
			l10.366,4.059l-6.551-8.655C163.136,15.894,165.857,15.389,169.28,15.292"/>
		<path fill="#0D131A" d="M226.196,49.177l0.784,0.393v19.607l-1.712-0.342c-16.039-1.435-34.668-1.044-55.889,1.173
			c-42.312,4.466-77.339,15.712-105.08,33.739l-4.647,3.031c-0.945,0.392-1.271-0.424-0.976-2.444
			c1.205-8.019,3.57-17.392,7.089-28.115c3.128-9.519,5.166-14.686,6.111-15.501c0.554-0.456,2.674-1.564,6.357-3.325l11.295-5.476
			l-11.834,3.031c-4.237,1.076-6.257,1.369-6.063,0.879c0.458-1.107,2.641-4.384,6.553-9.828c4.335-6.031,7.187-9.387,8.556-10.072
			c20.211-10.432,46.664-12.582,79.361-6.455c11.962,2.249,23.975,5.476,36.036,9.682C211.756,42.511,219.774,45.853,226.196,49.177
			"/>
		<path fill="#E85382" d="M224.094,51.329v14.376c-17.309-2.869-36.755-3.162-58.333-0.88
			c-38.403,4.108-72.974,16.349-103.712,36.722c1.074-5.411,3.244-13.006,6.503-22.786c2.054-6.258,3.928-11.572,5.623-15.941
			l11.051-6.014l13.643-7.676l3.813-2.495c0.228-0.292-0.62-0.292-2.542,0l-10.758,2.25l-11.588,2.64
			C82,45.2,85.535,40.8,88.404,38.323c26.502-8.541,54.097-10.187,82.784-4.938C189.866,36.838,207.501,42.821,224.094,51.329"/>
		<path fill="#C94772" d="M196.223,39.837c9.844,3.194,19.134,7.024,27.871,11.491v14.376c-12.062-1.957-25.801-2.657-41.22-2.103
			c-2.282-6.879-6-13.187-11.148-18.924c-4.922-5.508-10.708-10.023-17.358-13.544C168.383,32.405,182.336,35.308,196.223,39.837"/>
		<path fill="#0D131A" d="M155.833,29.472l0.246,0.048l0.147,0.146l6.211,7.873c1.499,2.119,2.184,3.537,2.052,4.255l-0.34,0.635
			c-22.33,7.531-34.458,10.937-36.381,10.219c-1.531-0.521-4.955-2.738-10.268-6.65c-5.965-4.335-8.768-7.188-8.409-8.556
			c0.195-0.685,1.125-1.435,2.786-2.25l5.233-2.25c3.685-1.467,6.307-2.738,7.873-3.814l0.097-0.098h0.147
			C135.297,28.282,145.5,28.427,155.833,29.472"/>
		<path fill="#FCEEF4" d="M155.148,31.184c4.923,5.965,7.383,9.405,7.383,10.317c-1.206,0.685-6.877,2.445-17.016,5.281
			c-10.333,2.933-15.958,4.269-16.87,4.009c-1.631-0.62-4.824-2.69-9.584-6.211c-4.923-3.65-7.383-5.917-7.383-6.796v-0.049
			c0.097-0.457,0.814-1.027,2.151-1.711l4.206-1.858c2.998-1.271,5.199-2.314,6.6-3.129
			C134.514,30.189,144.684,30.237,155.148,31.184"/>
		<path fill="#0D131A" d="M113.586,58.565c3.294,0.75,5.821,1.401,7.581,1.955c1.631,0.49,2.722,1.598,3.276,3.326
			c0.228,0.717,0.341,1.564,0.341,2.543c0,1.434-0.26,2.917-0.783,4.449c-0.488,1.467-1.142,2.707-1.958,3.716l-0.097,0.147
			l-0.196,0.048c-7.367,2.217-14.49,4.743-21.368,7.579l-0.978,0.538l-6.845-7.677c-4.499-5.248-6.599-8.149-6.307-8.704
			c0.585-1.01,3.406-2.852,8.459-5.524c5.346-2.836,8.933-4.158,10.757-3.962L113.586,58.565"/>
		<path fill="#FCEEF4" d="M120.92,73.919c-7.204,2.217-13.968,4.615-20.291,7.188l-5.134-5.721c-4.467-4.792-6.7-7.562-6.7-8.312
			v-0.049c0.456-0.814,2.918-2.412,7.383-4.792c4.694-2.509,7.808-3.684,9.34-3.52l7.724,1.466c3.164,0.75,5.591,1.387,7.286,1.908
			c1.238,0.391,2.053,1.238,2.445,2.542c0.228,0.653,0.341,1.37,0.341,2.152c0,1.238-0.228,2.526-0.686,3.864
			C122.176,71.914,121.604,73.007,120.92,73.919"/>
		<path fill="#0D131A" d="M380.859,63.553c1.5,8.443,1.908,13.447,1.222,15.012c-0.291,0.685-2.053,0.18-5.281-1.516l-8.85-4.646
			l10.611,10.416c4.17,4.107,6.419,6.635,6.746,7.58c0.391,1.107-0.049,4.042-1.321,8.802c-1.204,4.661-2.135,7.252-2.787,7.774
			c-0.846,0.717-4.254-0.896-10.219-4.841l5.378,7.188c1.823,2.445,2.754,3.863,2.788,4.254c0,0.62-2.592,2.511-7.776,5.672
			c-11.733-11.997-26.109-23.047-43.125-33.153c-33.935-20.146-64.808-26.176-92.614-18.092l-1.222,0.343l-0.49-1.173
			c-1.073-2.478-1.563-5.738-1.465-9.78l0.537-5.574l0.099-0.49l0.391-0.342c4.53-4.042,11.214-8.149,20.049-12.323
			c10.919-5.151,22.248-8.867,33.982-11.148c32.434-6.356,61.074-0.734,85.912,16.869C376.656,47.514,379.132,53.903,380.859,63.553
			"/>
		<path fill="#E85382" d="M364.137,97.537l11.247,15.697l-2.983,2.983c-13.92-13.691-29.779-25.476-47.576-35.354
			c-32.24-17.961-61.774-23.292-88.603-15.989c-0.589-1.989-0.881-4.092-0.881-6.308c0-2.087,0.131-3.993,0.392-5.721
			c4.597-3.944,11.312-7.905,20.143-11.882c10.791-4.89,21.94-8.362,33.447-10.415c31.621-5.672,58.971,0.244,82.048,17.749
			c2.087,2.641,3.85,6.993,5.282,13.055c0.915,3.847,1.631,8.052,2.152,12.616l-16.332-7.089c-2.705-1.141-4.108-1.483-4.206-1.027
			c-0.067,0.358,0.798,1.483,2.592,3.374l21.221,22.004l-3.274,12.615c-1.045-0.685-2.936-1.711-5.674-3.08l-6.208-3.129
			c-2.087-1.304-3.343-2.053-3.765-2.25C362.54,95.092,362.865,95.809,364.137,97.537"/>
		<path fill="#C94772" d="M311.522,28.542c-6.685,3.88-12.536,8.981-17.554,15.306c-4.955,6.258-8.607,13.105-10.956,20.537
			c-16.56-3.65-32.157-3.488-46.791,0.49c-0.589-1.989-0.881-4.092-0.881-6.308c0-2.087,0.131-3.993,0.392-5.721
			c6.355-5.476,15.823-10.579,28.408-15.305C280.116,31.509,295.908,28.51,311.522,28.542"/>
		<path fill="#C94772" d="M362.475,66.879c-2.705-1.141-4.108-1.483-4.205-1.027c-0.068,0.358,0.797,1.483,2.591,3.374l5.183,5.379
			c-10.04-7.628-19.92-14.343-29.632-20.146c13.527-1.107,26.698,0.245,39.509,4.059c1.238,4.467,2.198,9.617,2.885,15.452
			L362.475,66.879"/>
		<path fill="#0D131A" d="M348.195,33.726l0.294,0.097l0.05,0.293c0.456,1.793,0.209,4.629-0.734,8.508l-1.662,5.526
			c-0.393,1.108-3.374,2.331-8.949,3.667c-6.258,1.5-11.344,1.548-15.256,0.147c-1.467-0.522-3.716-2.233-6.748-5.134
			c-3.063-2.933-4.727-4.987-4.988-6.162c-0.097-0.489-0.146-0.978-0.146-1.467c0-3.554,2.739-7.432,8.215-11.638l0.149-0.097h0.243
			C329.029,28.151,338.873,30.237,348.195,33.726"/>
		<path fill="#FCEEF4" d="M336.607,50.106c-5.704,1.206-10.367,1.174-13.984-0.098c-1.371-0.49-3.473-2.004-6.309-4.547
			c-2.803-2.51-4.301-4.188-4.499-5.037l-0.097-1.173c0-3.096,2.445-6.535,7.334-10.316c9.812,0.685,19.118,2.64,27.921,5.867
			l0.147,1.516c0,1.532-0.293,3.505-0.88,5.917l-1.611,5.28C343.712,48.296,341.04,49.161,336.607,50.106"/>
		<path fill="#0D131A" d="M350.738,75.729c3.554-0.391,5.783-0.228,6.697,0.49c1.045,0.848,2.252,3.488,3.621,7.921
			c1.435,4.727,2.15,8.817,2.15,12.272v0.684l-0.687-0.146c-4.04-0.782-8.297,0.032-12.762,2.445l-0.291,0.147l-8.119-5.869
			l0.05-0.342c0.26-1.173,0.212-3.26-0.147-6.259c-0.262-2.052-0.375-3.521-0.342-4.4c0.067-1.467,0.458-2.591,1.176-3.374
			C343.811,77.375,346.695,76.185,350.738,75.729"/>
		<path fill="#FCEEF4" d="M343.014,91.131l-0.393-4.156l-0.292-3.619c0-1.401,0.276-2.429,0.832-3.081
			c1.5-1.663,4.011-2.625,7.532-2.885c2.965-0.228,4.824-0.066,5.573,0.488c0.878,0.685,1.956,2.902,3.227,6.65
			c1.4,4.141,2.149,7.823,2.249,11.051c-3.881-0.62-7.904,0.179-12.078,2.396l-6.845-4.939L343.014,91.131"/>
		<path fill="#0D131A" d="M296.952,42.625c0.911,0.784,2.347,2.608,4.301,5.476c2.28,3.292,3.309,5.477,3.082,6.553
			c-0.261,1.335-2.511,2.412-6.748,3.227c-4.074,0.814-8.263,1.076-12.567,0.782h-0.247l-5.963-6.357
			c-3.945-4.368-5.836-6.927-5.674-7.677c0.065-0.456,0.327-0.766,0.783-0.929l11.344-1.173
			C292.371,42.038,296.267,42.071,296.952,42.625"/>
		<path fill="#FCEEF4" d="M300.033,48.834c1.987,2.967,2.916,4.809,2.787,5.525c-0.131,0.717-1.922,1.401-5.379,2.054l-12.031,0.733
			l-3.032-2.982l-4.986-5.037c-1.858-2.021-2.789-3.358-2.789-4.009l0.053-0.097l0.097-0.147l10.709-1.076
			c6.419-0.391,9.959-0.424,10.609-0.097C296.887,44.418,298.206,46.129,300.033,48.834"/>
		<path fill="#D9CED4" d="M295.045,43.554l-4.55,6.796c-2.02,2.869-3.487,5.134-4.399,6.796h-0.684l-3.034-2.982l-4.986-5.037
			c-1.858-2.021-2.789-3.358-2.789-4.009l0.053-0.097l0.097-0.147l9.046-0.978L295.045,43.554"/>
		<path fill="#0D131A" d="M274.165,23.946l-1.027,4.352c-3.423,12.55-6.648,23.65-9.681,33.298
			c-1.076,3.455-5.512,6.079-13.302,7.873c-5.379,1.205-12.796,2.07-22.249,2.592l-23.471-0.734
			c-8.411-1.238-13.383-3.634-14.916-7.188c-2.802-6.421-5.344-13.871-7.628-22.346c-2.248-8.508-2.802-12.649-1.663-12.42
			l9.046,1.173l9.291,1.271c0.456-2.705,1.076-5.883,1.86-9.536c1.073-5.215,1.84-8.231,2.298-9.046
			c0.456-0.782,2.77,0.962,6.943,5.232l7.628,8.067c0.881-1.173,2.967-3.683,6.259-7.53l5.672-6.406
			c0.358-0.261,1.467,1.256,3.324,4.547l3.765,6.796l6.31-6.649c3.258-3.391,5.018-5.053,5.279-4.988
			c0.293,0.066,1.047,1.973,2.249,5.72l2.594,7.921l5.23-6.357c2.512-2.967,4.01-4.368,4.499-4.206
			c0.489,0.195,1.142,1.858,1.956,4.988l1.565,6.356l3.423-1.417c1.663-0.652,2.836-1.173,3.52-1.564
			C273.758,23.293,274.165,23.358,274.165,23.946"/>
		<path fill="#D7A400" d="M268.542,28.787l-8.85,30.121c-0.814,2.509-4.223,4.742-10.222,6.698
			c-5.996,1.924-13.233,3.114-21.709,3.57c-8.736,0.489-16.298,0.048-22.688-1.32c-6.39-1.336-10.154-3.293-11.296-5.869
			c-3.455-7.824-6.976-18.011-10.562-30.562l17.652,3.814l1.321-8.167c0.913-5.573,1.484-8.654,1.711-9.242
			c0.228-0.619,1.859,0.637,4.89,3.766l6.257,6.895l1.909,2.396l1.663-1.32c1.304-1.401,4.629-5.688,9.973-12.859
			c0.262-0.392,1.55,1.32,3.863,5.134l3.374,5.819l10.904-10.073c0.228-0.228,1.107,2.005,2.64,6.699l2.249,7.139l4.45-5.084
			c3.032-3.423,4.744-5.2,5.134-5.33c0.391-0.131,1.011,1.434,1.859,4.693l1.125,4.939L268.542,28.787"/>
		<path fill="#0D131A" d="M269.618,27.907l1.907-1.808l-0.734,2.543l-9.046,30.903c-1.044,3.292-5.054,6.03-12.029,8.215
			c-6.159,1.923-13.432,3.112-21.809,3.569c-8.639,0.488-16.235,0.065-22.786-1.271c-7.432-1.5-11.882-3.896-13.348-7.188
			c-3.292-7.53-6.846-17.848-10.658-30.953l2.101-1.271c1.793,1.988,4.368,4.434,7.726,7.335l6.357,5.134l5.476-6.552
			c3.326-4.009,5.15-6.063,5.475-6.162c0.328-0.065,2.887,2.495,7.677,7.677l8.02,8.851l3.52-8.802
			c2.087-5.053,3.392-7.628,3.912-7.726c0.52-0.065,1.695,1.695,3.52,5.281l3.813,7.481l5.477-7.335
			c3.227-4.206,5.103-6.227,5.623-6.063c0.521,0.163,1.598,2.25,3.227,6.258l2.936,7.089
			C262.235,35.713,266.782,30.646,269.618,27.907"/>
		<path fill="#F9BE00" d="M256.415,44.825c1.891-1.63,6.132-5.867,12.716-12.713l-4.058,12.762l-4.697,14.278
			c-0.977,3.064-4.351,6.095-10.12,9.094c-6.552,3.423-13.872,5.347-21.955,5.771c-8.409,0.456-16.233-0.685-23.472-3.422
			c-6.486-2.477-10.398-5.249-11.734-8.312c-3.064-7.01-6.325-16.365-9.78-28.067c3.423,3.195,7.709,6.731,12.86,10.61
			c0.717,0.619,1.303,0.881,1.76,0.783c0.391-0.065,0.863-0.538,1.417-1.417c0.456-0.718,2.037-2.56,4.743-5.526l4.646-4.938
			l7.676,8.215c4.792,4.988,7.449,7.465,7.971,7.432c0.52-0.033,1.744-2.314,3.667-6.845l3.471-8.312L235,40.571
			c1.856,3.326,3.03,5.004,3.52,5.037c0.456,0.032,2.2-1.81,5.233-5.526l5.23-6.601l2.739,5.183l2.545,5.331
			c0.358,0.945,0.616,1.451,0.782,1.516C255.273,45.64,255.731,45.412,256.415,44.825"/>
		<path fill="#0D131A" d="M326.584,127.511c15.581,4.466,25.458,7.611,29.63,9.437c2.447,1.042,3.456,1.776,3.034,2.201
			l-3.521,1.125l-15.256,4.644l15.158-2.494l8.996-1.125c1.175,0.13,4.387,2.347,9.634,6.65c5.117,4.172,7.644,6.486,7.58,6.943
			c-0.032,0.327-2.378,1.288-7.044,2.884l-11.637,4.009l14.621,0.196l10.022,0.489c0.62,0.293,2.053,2.25,4.303,5.868
			c2.218,3.585,3.274,5.623,3.178,6.112c-0.1,0.359-1.825,0.814-5.185,1.369l-10.023,1.613l11.005,0.049l5.916,0.195
			c0.587,0.196,2.429,2.103,5.524,5.721c3.163,3.651,4.646,5.754,4.45,6.308c-0.131,0.456-1.563,0.814-4.303,1.075l-7.822,0.832
			l9.34,0.733l5.085,0.685c0.458,0.359,0.994,3.52,1.614,9.485c7.986,14.277,11.831,21.695,11.54,22.25
			c-0.162,0.325-3.488-0.8-9.975-3.374l-12.762-5.134l8.706,15.792c4.628,8.477,6.797,12.827,6.504,13.055l-8.166-0.586
			c-5.185-0.747-8.069-1.45-8.658-2.1c-0.487-0.523-1.644-3.359-3.471-8.51l-4.155-11.686l1.416,10.562
			c0.49,3.879,0.605,5.997,0.342,6.355c-0.291,0.456-3.454-0.196-9.484-1.958c-5.965-1.729-9.146-2.885-9.535-3.471l-2.15-5.524
			l-3.474-9.683l1.225,8.801c0.457,3.063,0.519,4.694,0.196,4.889c-0.521,0.356-7.318-2.95-20.391-9.926l-0.099-0.489l-4.841-19.02
			l0.441,12.517c0.162,4.729,0.017,7.174-0.441,7.334c-0.519,0.131-2.445-0.798-5.769-2.787l-5.233-3.226l-6.503,0.049
			c-4.172-0.131-6.537-0.569-7.09-1.319c-0.489-0.719-1.305-4.209-2.448-10.466l-3.08-16.625l0.048,15.892
			c0,5.802-0.228,8.735-0.686,8.8c-0.26,0.032-3.927-1.157-11-3.571l-20.44-6.894l-0.099-1.272l-8.166-3.08l-7.335-2.542
			c-1.173-0.262-1.874-0.766-2.104-1.516c-0.291-0.913-0.325-2.983-0.097-6.211c0.198-2.77,0.246-5.672,0.147-8.703l-0.342-8.411
			l-4.206,12.615c-1.66,4.727-2.836,7.075-3.521,7.042c-1.105-0.032-8.474-3.7-22.102-11.002l4.159-20.341
			c-6.195,5.738-11.525,10.269-15.992,13.594c-6.55,4.792-10.707,6.568-12.47,5.329c-6.876-4.563-11.375-9.209-13.493-13.936
			c-1.598-3.585-1.763-7.09-0.49-10.513c2.608-7.008,10.122-12.763,22.541-17.261c11.443-4.14,21.989-5.672,31.637-4.596
			l4.499-2.689c2.965-1.728,5.919-3.227,8.85-4.499c9.291-4.043,18.188-5.803,26.699-5.281
			C296.317,119.622,308.654,122.393,326.584,127.511"/>
		<path fill="#00A63C" d="M364.04,143.598l13.445,10.611c-10.139,3.553-16.903,6.047-20.292,7.481
			c-2.543,1.076-3.799,1.679-3.765,1.81l4.108,0.293c3.652,0.032,13.333,0.31,29.045,0.831l5.183,8.313l-10.854,1.906
			c-6.193,1.076-9.957,1.891-11.295,2.445l-3.176,1.418c-0.262,0.326,0.863,0.571,3.372,0.733c3.716,0.261,12.437,0.391,26.16,0.391
			l6.944,8.312l-16.771,2.689c-2.281,0.489-3.488,0.879-3.619,1.173c-0.162,0.326,1.074,0.651,3.714,0.978l21.175,2.004l1.416,8.264
			l-8.508-1.224c-5.641-0.717-8.28-0.733-7.922-0.048c0.327,0.652,3.326,1.386,8.998,2.201l8.556,1.173l7.97,15.453l-22.786-8.508
			l15.845,30.021l-11.296-1.809c-4.566-12.388-7.545-20.114-8.948-23.178c-0.978-2.184-1.809-3.195-2.494-3.033
			c-0.229,0.068-0.1,3.196,0.39,9.388l1.125,12.52l-14.916-4.255c-4.203-11.702-6.942-19.119-8.215-22.249
			c-1.042-2.543-1.711-3.847-2.002-3.91c-0.391-0.099-0.425,1.368-0.098,4.4l1.908,18.385l-15.99-7.823
			c-5.282-21.285-7.953-30.039-8.021-26.257l-0.489,12.029l-0.488,12.321l-8.948-5.183c-0.652-12.649-1.418-19.07-2.298-19.266
			c-0.52-0.097-0.686,3.064-0.487,9.487l0.196,9.682l-9.046-0.342l-2.592-14.572c-1.791-9.714-3.294-16.413-4.496-20.096
			c-1.338-4.076-2.235-5.835-2.69-5.281c-0.294,0.391-0.505,2.494-0.636,6.307c-0.099,2.576-0.048,8.084,0.148,16.527l0.242,13.692
			l-28.212-10.905l-0.538-11.49c-0.324-7.889-0.7-12.306-1.122-13.252c-0.427-0.945-0.572,2.755-0.441,11.1l0.049,12.859
			l-14.425-5.574c-0.555-13.594-0.816-23.275-0.785-29.046v-0.292h-0.048c-0.163-1.336-0.374-2.217-0.636-2.641
			c-0.424-0.75-0.913,0.146-1.466,2.689v0.196c0,1.206-0.978,4.465-2.936,9.78c-1.563,4.238-3.454,8.981-5.672,14.229l-18.531-9.291
			l5.185-25.378l-14.67,12.225c-9.91,8.019-15.256,11.751-16.038,11.197c-11.377-7.53-15.763-14.833-13.155-21.905
			c2.119-5.77,11.524-10.904,28.215-15.403c8.311-2.25,16.429-3.928,24.35-5.037l14.279-6.602
			c10.726-4.303,19.134-6.275,25.23-5.917c6.716,0.423,17.066,2.657,31.05,6.699c12.94,3.749,23.533,7.399,31.781,10.953
			c-12.746,3.684-20.976,6.308-24.691,7.873c-2.543,1.042-3.699,1.743-3.472,2.102c0.196,0.327,1.516,0.327,3.961,0L364.04,143.598"
			/>
		<path fill="#009233" d="M352.302,139.001c-12.747,3.684-20.977,6.308-24.692,7.873c-2.542,1.042-3.699,1.744-3.471,2.103
			c0.196,0.326,1.513,0.326,3.961,0l35.94-5.379l5.476,4.304c-9.128,0.619-15.992,1.336-20.588,2.152
			c-8.117,1.401-14.425,4.466-18.923,9.193c-35.11-13.724-64.444-6.422-88.016,21.905l-5.919-2.983l5.184-25.377l-14.668,12.224
			c-9.91,8.018-15.256,11.751-16.039,11.196c-11.377-7.53-15.762-14.832-13.154-21.905c2.118-5.77,11.524-10.904,28.215-15.402
			c8.311-2.25,16.429-3.928,24.351-5.037l14.276-6.601c10.726-4.303,19.137-6.276,25.232-5.917
			c6.714,0.423,17.064,2.656,31.048,6.699C333.461,131.798,344.056,135.448,352.302,139.001"/>
		<path fill="#0D131A" d="M376.361,194.842c2.738,3.292,3.732,5.037,2.983,5.232c-0.686,0.195-2.201-0.815-4.55-3.032
			c-28.359-26.894-59.358-44.61-93.002-53.152c-10.595-2.672-20.813-4.271-30.659-4.792l-11.881,0.049l-0.341-1.369l2.346-2.543
			c2.25-1.76,5.038-2.722,8.361-2.884l5.185-0.393l-0.196-0.048c22.004,0.586,43.096,5.869,63.272,15.843
			C339.753,158.544,359.246,174.241,376.361,194.842"/>
		<path fill="#00A63C" d="M239.105,135.823c2.411-1.532,6.391-2.217,11.932-2.054c22.2,0.718,43.159,5.624,62.882,14.719
			c19.364,8.932,36.461,21.368,51.294,37.309c-21.875-19.787-46.991-33.756-75.353-41.905c-9.877-2.836-19.559-4.775-29.043-5.818
			l-16.528-0.635l-5.379-0.196C238.128,136.915,238.192,136.443,239.105,135.823"/>
		<path fill="#009233" d="M329.369,156.653l-2.15,0.294c-0.848,0.099-1.435,0.489-1.762,1.174
			c-16.525-8.574-33.77-14.589-51.73-18.043c-12.358-2.38-22.171-3.261-29.438-2.64l-5.379-0.196
			c-0.784-0.327-0.718-0.799,0.195-1.418c2.411-1.532,6.391-2.217,11.932-2.054c14.147,0.457,27.887,2.657,41.22,6.601
			C305.329,144.218,317.7,149.645,329.369,156.653"/>
		<path fill="#0D131A" d="M16.231,290.045c3.65-4.854,7.252-8.457,10.807-10.806c5.346-3.583,13.576-3.26,24.692,0.979
			c13.168,5.02,26.846,13.642,41.025,25.865c14.18,12.189,22.33,22.346,24.449,30.461l2.201,2.739l2.884,11.833
			c0.62,3.161,0.669,5.621,0.147,7.383c-0.522,1.859-1.842,3.505-3.962,4.94c-1.858,1.27-5.019,2.834-9.486,4.692
			c-3.781,1.563-9.944,2.56-18.482,2.983c-8.378,0.391-17.196,0.163-26.453-0.686c-22.623-2.118-36.086-6.406-40.39-12.858
			c-0.784-1.205-1.174-2.446-1.174-3.716c0.685-1.988,1.174-3.861,1.465-5.621c0.587-3.392-0.08-6.651-2.003-9.783
			c-4.5-6.683-7.581-11.506-9.242-14.473c-2.771-4.954-4.157-9.842-4.157-14.669C8.554,303.183,11.114,296.76,16.231,290.045"/>
		<path fill="#5DC1CF" d="M28.65,281.635c4.531-3.032,11.882-2.608,22.053,1.272c12.615,4.823,25.899,13.186,39.851,25.084
			c13.92,11.899,21.874,21.66,23.862,29.288l0.537,2.252c2.543,9.744,3.488,15.711,2.837,17.896
			c-0.457,1.464-1.55,2.802-3.276,4.007c-1.173,0.816-3.652,2.169-7.433,4.06c-2.868,1.435-8.378,2.3-16.527,2.591l-25.523-0.831
			c-22.362-2.089-35.355-5.852-38.971-11.295c-1.466-2.119-0.556-4.596,2.737-7.434c0.945-0.817,1.011-2.17,0.196-4.061
			c-0.553-1.236-2.101-3.781-4.645-7.628c-4.825-7.235-8.328-13.316-10.511-18.239c-2.675-5.999-1.484-13.545,3.568-22.639
			c1.792-3.292,3.912-6.406,6.357-9.34C25.815,284.111,27.445,282.451,28.65,281.635"/>
		<path fill="#50A8B4" d="M35.986,279.729c4.009-0.032,8.915,1.025,14.719,3.178c12.615,4.823,25.899,13.186,39.851,25.084
			c13.92,11.899,21.874,21.66,23.862,29.288l0.537,2.252c2.543,9.744,3.489,15.711,2.837,17.896
			c-0.457,1.464-1.55,2.802-3.276,4.007c-1.173,0.816-3.652,2.169-7.433,4.06c-2.412,1.207-6.829,2.021-13.25,2.445
			c-6.098,0.391-13.024,0.376-20.781-0.048c-5.51-0.393-9.91-2.021-13.202-4.89c-4.76-4.174-3.277-9.535,4.45-16.089
			c7.66-6.486,6.845-17.455-2.447-32.909c-3.163-5.245-7.594-11.489-13.301-18.727L35.986,279.729"/>
		<path fill="#0D131A" d="M48.943,343.44c-0.326-0.586,0.197-0.684,1.566-0.293c3.194,0.914,8.818,2.005,16.869,3.277
			c10.433,1.629,18.06,2.218,22.883,1.76c1.891-0.163,2.527,0.031,1.909,0.586l-1.516,0.834c-4.466,1.173-11.916,0.929-22.346-0.736
			c-9.16-1.465-15.305-2.934-18.434-4.399L48.943,343.44"/>
		<path fill="#0D131A" d="M35.839,357.572c0.197,2.411-0.098,4.433-0.879,6.062l-7.774,2.249c-4.695,1.272-8.069,1.956-10.122,2.053
			c-2.542,0.1-4.108-0.177-4.695-0.831c-0.62-0.686-0.717-2.363-0.293-5.037c0.458-2.736,1.941-5.901,4.45-9.484
			c2.511-3.652,4.973-6.145,7.383-7.484c0.849-0.456,1.729-0.716,2.641-0.781l1.76,0.342
			C33.003,348.446,35.513,352.748,35.839,357.572"/>
		<path fill="#FFFFFF" d="M14.813,364.468c-1.011-0.979-0.18-3.815,2.496-8.51c2.639-4.727,5.053-7.675,7.235-8.848
			c0.978-0.489,1.761-0.572,2.349-0.247c2.378,2.087,4.156,4.957,5.331,8.607c1.01,3.194,1.206,5.247,0.586,6.159
			c-0.554,0.816-3.422,1.713-8.606,2.69C18.887,365.331,15.758,365.379,14.813,364.468"/>
		<path fill="#DBDCDC" d="M28.65,348.723c1.792,2.184,3.081,4.774,3.862,7.773c0.717,2.676,0.816,4.387,0.293,5.136
			c-0.359,0.52-2.104,1.173-5.232,1.956c-3.227,0.814-6.097,1.287-8.605,1.418c1.238-3.063,2.688-6.03,4.35-8.898
			C25.211,352.879,26.987,350.417,28.65,348.723"/>
		<path fill="#0D131A" d="M47.722,379.431c-2.77-1.692-3.422-5.379-1.957-11.051c1.369-5.214,3.618-9.484,6.748-12.811
			c2.25-2.38,4.171-3.764,5.77-4.156c1.63-0.391,3.211,0.162,4.743,1.662c4.434,4.337,7.367,8.605,8.802,12.811
			c0.749,2.087,1.042,3.75,0.879,4.986c-1.142,1.272-5.183,3.194-12.127,5.769C53.344,379.348,49.058,380.276,47.722,379.431"/>
		<path fill="#FFFFFF" d="M59.848,353.904c1.335,0.262,3.325,2.25,5.965,5.966c2.771,3.88,4.222,6.959,4.352,9.242
			c-1.107,1.044-4.546,2.724-10.316,5.036c-6,2.379-9.554,3.374-10.66,2.984c-0.62-0.229-0.864-1.532-0.733-3.912
			c0.128-2.446,0.618-5.037,1.465-7.776C52.203,358.078,55.512,354.231,59.848,353.904"/>
		<path fill="#DBDCDC" d="M60.043,353.955c1.433,0.487,3.422,2.543,5.966,6.162c2.639,3.781,4.026,6.779,4.156,8.995
			c-0.782,0.717-3.096,1.907-6.942,3.57c-3.944,1.729-7.303,2.998-10.073,3.812c0.196-4.399,0.734-8.229,1.614-11.491
			C55.871,361.06,57.63,357.378,60.043,353.955"/>
		<path fill="#0D131A" d="M94.125,355.322c0.75-0.684,1.598-1.142,2.543-1.369c0.784-0.196,1.516-0.196,2.2,0
			c2.087,0.62,4.826,2.363,8.215,5.233c3.521,2.933,5.444,5.247,5.771,6.941c0.326,1.665-0.686,4.548-3.032,8.656
			c-2.054,3.684-3.943,6.372-5.672,8.068c-0.88,0.878-1.761,1.353-2.64,1.418c-0.815,0.032-1.923-0.262-3.326-0.88
			c-4.14-1.822-7.53-4.547-10.17-8.166l-2.689-4.84c-0.228-1.305,0.7-3.714,2.788-7.238
			C90.164,359.69,92.169,357.082,94.125,355.322"/>
		<path fill="#FFFFFF" d="M95.201,357.572c1.207-1.108,2.167-1.563,2.885-1.37c1.891,0.556,4.254,2.15,7.089,4.792
			c2.867,2.608,4.434,4.615,4.693,6.015c0.228,1.204-0.896,3.716-3.374,7.53c-2.345,3.554-4.041,5.672-5.085,6.357
			c-0.521,0.129-1.792-0.39-3.813-1.563c-2.216-1.304-4.27-2.821-6.162-4.549c-2.053-1.857-3.176-3.309-3.374-4.352
			c-0.196-0.977,0.473-2.914,2.005-5.819C91.697,361.581,93.408,359.234,95.201,357.572"/>
		<path fill="#DBDCDC" d="M109.869,367.011c0.228,1.142-0.765,3.441-2.981,6.894c-1.988,3.131-3.669,5.347-5.037,6.65
			c-0.131-4.629-0.457-8.687-0.978-12.177c-0.621-4.368-1.582-8.426-2.886-12.176h0.099c1.891,0.556,4.254,2.15,7.089,4.792
			C108.043,363.603,109.609,365.609,109.869,367.011"/>
		<path fill="#0D131A" d="M34.177,316.4c0,0.264-0.425,0.816-1.271,1.665c-1.566,1.595-2.445,2.898-2.639,3.909
			c-0.425,2.054,1.092,3.881,4.548,5.476c1.011,0.456,1.303,0.832,0.878,1.125c-0.195,0.162-0.505,0.26-0.93,0.293
			c-4.009-0.162-6.274-1.582-6.796-4.256c-0.259-1.5,0.067-3.047,0.978-4.646c0.913-1.563,2.037-2.638,3.374-3.226
			C33.557,316.223,34.177,316.109,34.177,316.4"/>
		<path fill="#0D131A" d="M334.161,348.381c0.294-0.359,0.589-0.49,0.88-0.389c2.64,0.52,5.217,1.956,7.726,4.301
			c3.129,2.933,5.606,6.91,7.434,11.93c-2.739,1.959-5.641,3.716-8.706,5.284c-6.128,3.161-9.991,3.83-11.589,2.002
			c-0.945-1.076-0.652-5.036,0.878-11.882C332.223,353.238,333.347,349.488,334.161,348.381"/>
		<path fill="#DBDCDC" d="M331.521,370.433c-0.099-0.196,0.473-3.342,1.712-9.436c1.304-6.257,2.2-9.941,2.688-11.051l5.575,4.399
			c2.834,2.771,4.516,5.703,5.034,8.799c0.196,0.947-2.215,2.479-7.235,4.601C334.309,369.829,331.718,370.727,331.521,370.433"/>
		<path fill="#5DC1CF" d="M342.523,273.713c2.836,8.184,4.596,16.139,5.284,23.863c1.856,21.515-4.208,44.854-18.191,70.019
			c-0.358,0.652-0.865,3.081-1.515,7.286c-0.587,3.716-1.843,6.748-3.765,9.095c-6.161,7.466-21.337,11.688-45.522,12.667
			c-14.41,0.584-26.261-1.745-35.549-6.995c-8.705-4.923-13.269-11.196-13.693-18.826c-0.162-2.802-1.091-6.942-2.787-12.418
			c-2.41-7.855-3.862-12.811-4.352-14.865c-3.129-12.943-2.086-23.749,3.129-32.42c3.164-5.283,10.285-12.191,21.371-20.731
			c10.823-8.313,22.538-16.007,35.156-23.08c13.593-7.661,25.017-12.713,34.278-15.158c10.626-2.803,16.934-1.712,18.923,3.276
			L342.523,273.713"/>
		<path fill="#50A8B4" d="M335.286,255.425l7.237,18.29c2.836,8.182,4.596,16.139,5.281,23.863
			c1.859,21.515-4.207,44.854-18.19,70.019c-0.458,0.849-0.914,2.967-1.369,6.36c-0.456,3.323-1.305,6.012-2.543,8.066
			c-4.074,6.813-14.309,11.264-30.708,13.347l-5.33-0.146c-2.965,0.782-4.564,0.766-4.79-0.049c0.684-5.02,0.893-9.633,0.635-13.84
			c-0.293-4.465-1.144-8.753-2.544-12.859c21.582-2.411,34.717-15.646,39.412-39.705c3.585-18.448,2.12-40.683-4.402-66.695
			c-2.834-11.409-1.042-16.494,5.379-15.254c2.316,0.456,4.777,1.661,7.386,3.619C333.185,252.296,334.701,253.959,335.286,255.425"
			/>
		<path fill="#0D131A" d="M334.016,256.108c-1.532-3.26-1.858-5.02-0.977-5.281c0.814-0.228,1.989,1.076,3.521,3.912
			c8.639,16.104,12.809,33.789,12.517,53.054c-0.358,21.515-6.421,41.679-18.188,60.485c-0.718,1.171-1.076,2.756-1.076,4.744
			c-0.031,3.487-0.458,6.292-1.272,8.41c-1.142,3.032-3.227,5.59-6.259,7.675c-7.497,5.119-21.972,8.117-43.419,8.997
			c-16.007,0.62-28.638-1.58-37.896-6.601c-9.127-4.954-13.396-11.816-12.81-20.586c0.097-1.694-0.539-4.254-1.909-7.674
			l-3.276-8.313c-2.837-9.095-4.221-16.837-4.157-23.227c0.067-7.043,1.858-14.067,5.379-21.075l2.688,0.975
			c-3.161,8.48-4.384,16.822-3.668,25.039c0.425,4.825,1.908,11.346,4.45,19.558l2.15,7.432c0.686,2.676,1.076,5.037,1.174,7.09
			c0.392,7.075,4.646,12.941,12.762,17.603c8.966,5.185,20.634,7.482,35.01,6.896c19.92-0.814,33.511-3.781,40.779-8.9
			c2.739-1.92,4.695-4.236,5.868-6.943c0.654-1.564,1.176-3.812,1.566-6.746c0.327-2.708,0.797-4.615,1.418-5.721
			c13.04-23.504,18.239-48.085,15.598-73.739C342.587,279.875,339.264,267.521,334.016,256.108"/>
		<path fill="#0D131A" d="M255.046,362.022c-1.728-1.009-2.608-1.68-2.64-2.003c0-0.391,1.107-0.146,3.325,0.732
			c3.394,1.338,8.576,2.724,15.552,4.159c8.932,1.825,16.754,2.69,23.471,2.589c6.062-0.097,8.328,0.229,6.796,0.979
			c-1.531,0.751-4.254,1.093-8.166,1.027c-9.094-0.102-17.701-1.144-25.816-3.13C261.729,364.94,257.557,363.488,255.046,362.022"/>
		<path fill="#0D131A" d="M228.593,366.375l1.272-0.147c3.913,2.478,6.779,6.648,8.605,12.52c1.142,3.616,1.711,6.714,1.711,9.288
			c0,1.144-1.451,1.958-4.351,2.448l-11.345,1.173c-7.66,0.424-11.898-0.162-12.713-1.76c-0.784-1.565,0.863-5.364,4.937-11.393
			c3.912-5.739,7.125-9.506,9.634-11.295C226.897,366.814,227.648,366.536,228.593,366.375"/>
		<path fill="#FFFFFF" d="M215.195,388.379c0-1.6,1.482-4.661,4.449-9.193c3.031-4.695,5.689-7.841,7.97-9.437
			c0.719-0.519,1.157-0.702,1.32-0.54c2.184,1.696,4.255,4.874,6.212,9.538c1.532,3.616,2.396,6.341,2.589,8.166
			c-1.205,0.584-4.986,1.107-11.344,1.563c-6.389,0.455-10.121,0.475-11.196,0.048V388.379"/>
		<path fill="#DBDCDC" d="M233.043,374.394c1.237,2.184,2.346,4.697,3.324,7.533c0.815,2.314,1.271,3.978,1.369,4.986
			c-1.205,0.584-4.986,1.107-11.344,1.563c-6.388,0.455-10.12,0.475-11.195,0.048v-0.146c0-0.458,0.112-0.979,0.34-1.565
			C219.48,381.99,225.317,377.85,233.043,374.394"/>
		<path fill="#0D131A" d="M274.02,388.135c4.108-4.859,6.748-7.286,7.922-7.286c1.173,0,3.88,1.971,8.117,5.916
			c4.303,3.978,6.503,6.649,6.601,8.019c0.099,1.403-1.336,4.271-4.301,8.607c-3,4.401-5.167,6.668-6.505,6.796
			c-0.978,0.1-3.357-0.945-7.139-3.127c-3.65-2.087-6.355-3.929-8.117-5.526c-1.73-1.563-2.592-3.096-2.592-4.596
			C268.004,395.859,270.009,392.927,274.02,388.135"/>
		<path fill="#FFFFFF" d="M282.184,384.564c0.878,0.067,2.936,1.582,6.161,4.547c3.261,3.001,4.923,4.988,4.988,5.965
			c0.098,1.176-1.044,3.455-3.424,6.848c-2.315,3.323-3.881,5.018-4.695,5.085c-0.618,0.065-2.23-0.717-4.839-2.349
			c-2.771-1.694-5.07-3.374-6.896-5.036l-1.858-2.003l-0.292-0.637c0.098-0.878,1.727-3.127,4.888-6.748
			C279.382,386.617,281.369,384.727,282.184,384.564"/>
		<path fill="#0D131A" d="M330.152,380.26c3.357,5.117,4.629,8.786,3.814,11.004c-0.261,0.684-0.848,1.304-1.762,1.856
			c-1.074,0.621-2.378,0.996-3.91,1.127c-3.262,0.26-6.765,0.211-10.512-0.147c-4.89-0.489-7.595-1.435-8.118-2.836l-0.831-2.152
			c0-2.15,1.857-5.492,5.575-10.021c2.834-3.49,5.034-5.837,6.598-7.044c0.556-0.455,1.06-0.637,1.516-0.538l0.878,0.538
			C325.069,373.221,327.316,375.957,330.152,380.26"/>
		<path fill="#FFFFFF" d="M331.473,391.164l-10.221,0.342c-5.476-0.487-8.62-1.204-9.437-2.149c-0.747-0.88,0.538-3.505,3.863-7.873
			c3.227-4.303,5.379-6.537,6.455-6.699c1.045-0.163,3.163,2.349,6.357,7.53C331.718,387.531,332.712,390.479,331.473,391.164"/>
		<path fill="#DBDCDC" d="M325.409,383.488c0.88,1.144,2.462,3.814,4.743,8.021c-2.347,0.39-5.784,0.342-10.316-0.148
			c-4.659-0.487-7.335-1.156-8.021-2.002c-0.487-0.558-0.015-2.021,1.418-4.401c1.272-2.085,2.868-4.221,4.792-6.404
			C320.861,379.202,323.322,380.849,325.409,383.488"/>
		<path fill="#0D131A" d="M319.64,318.846c1.532-0.029,2.948,0.569,4.254,1.811c1.336,1.272,2.07,2.756,2.199,4.448
			c0.099,1.403-0.456,2.789-1.663,4.159c-1.562,1.791-3.781,2.576-6.646,2.346l-1.028-0.684c-0.489-0.458-0.196-0.7,0.878-0.736
			c1.794-0.063,3.294-1.318,4.501-3.762c1.302-2.641,0.487-4.679-2.445-6.113c-1.11-0.553-1.452-0.962-1.027-1.222L319.64,318.846"
			/>
		<path fill="#0D131A" d="M381.592,278.896c0.198-0.162,0.489-0.26,0.88-0.293c1.403-0.065,2.688,0.62,3.863,2.055
			c1.205,1.465,1.874,3.192,2.003,5.183c0.067,1.663-0.439,3.277-1.516,4.839c-1.433,2.053-3.439,2.967-6.012,2.738l-0.93-0.782
			c-0.456-0.556-0.194-0.849,0.784-0.88c1.598-0.065,2.948-1.516,4.061-4.352c1.204-3.098,0.473-5.476-2.201-7.139
			C381.512,279.646,381.201,279.191,381.592,278.896"/>
		<path fill="#0D131A" d="M420.366,244.621c1.372-0.067,2.64,0.538,3.813,1.809c1.175,1.272,1.827,2.771,1.958,4.501
			c0.099,1.433-0.391,2.853-1.467,4.254c-1.4,1.792-3.389,2.591-5.963,2.395l-0.929-0.684c-0.426-0.489-0.162-0.749,0.783-0.782
			c1.598-0.067,2.933-1.353,4.012-3.864c1.171-2.673,0.455-4.741-2.152-6.21c-0.978-0.519-1.272-0.911-0.88-1.173
			C419.7,244.733,419.979,244.651,420.366,244.621"/>
		<path fill="#0D131A" d="M418.609,285.694c1.531-0.065,2.949,0.732,4.254,2.395c1.335,1.663,2.071,3.619,2.2,5.868
			c0.098,1.859-0.456,3.685-1.663,5.479c-1.563,2.378-3.781,3.422-6.648,3.129l-1.027-0.88c-0.487-0.618-0.196-0.96,0.88-1.025
			c0.686-0.032,1.467-0.521,2.349-1.467c0.911-1.013,1.629-2.184,2.15-3.52c1.304-3.488,0.487-6.179-2.446-8.071
			c-1.107-0.715-1.451-1.253-1.027-1.612L418.609,285.694"/>
		<path fill="#0D131A" d="M288.052,318.308c1.176,1.076,1.6,2.854,1.272,5.332c-0.196,1.598-1.045,2.934-2.543,4.012
			c-1.5,1.074-3.243,1.612-5.232,1.612l-0.929-0.439c-0.424-0.358-0.111-0.686,0.929-0.979c2.574-0.685,4.14-2.087,4.694-4.206
			c0.618-2.347-0.8-4.188-4.254-5.526l-1.713-0.975c0-0.262,0.686-0.393,2.053-0.393
			C285.036,316.71,286.944,317.233,288.052,318.308"/>
		<path fill="#0D131A" d="M319.347,277.773c0.88,0.846,1.403,1.971,1.565,3.374c0.129,1.236-0.391,2.443-1.565,3.618
			c-1.239,1.239-2.657,1.874-4.254,1.908c-0.814,0.031-1.287-0.1-1.418-0.391c-0.131-0.294,0.26-0.638,1.173-1.028
			c3.163-1.304,4.352-2.836,3.572-4.596c-0.654-1.435-1.989-2.429-4.009-2.983c-1.176-0.293-1.534-0.618-1.076-0.977l1.025-0.441
			C316.542,276.159,318.205,276.663,319.347,277.773"/>
		<path fill="#0D131A" d="M226.393,192.593c17.406-2.021,28.93-1.581,34.57,1.32c1.73,0.913,2.819,2.575,3.276,4.988l0.245,5.281
			c0,8.508-3.032,20.928-9.093,37.26c9.027,8.215,15.499,15.012,19.411,20.39c4.598,6.324,6.896,12.192,6.896,17.604
			c0,1.727-0.179,3.779-0.538,6.159c-0.424,2.708-0.913,4.695-1.466,5.966c-3.716,8.539-7.4,14.652-11.051,18.336
			c-4.108,4.172-9.878,7.188-17.31,9.046c-6.325,1.598-19.837,7.335-40.538,17.215l-19.656,9.581
			c-7.107,3.425-12.714,5.966-16.82,7.631c-8.899,3.618-22.672,4.447-41.319,2.494c-19.266-2.054-32.24-6.111-38.922-12.178
			c-2.217-2.053-12.111-7.839-29.682-17.357c-13.854-7.531-23.862-12.844-30.023-15.941c-3.911-1.956-7.416-7.808-10.512-17.554
			c-3.128-9.812-3.584-16.51-1.37-20.097c2.935-4.727,7.366-10.646,13.3-17.75c6.229-7.466,11.248-12.762,15.061-15.894
			c-2.282-3.26-4.597-8.668-6.944-16.232c-2.477-7.986-3.715-14.506-3.715-19.558c0-1.011,0.05-1.907,0.147-2.688
			c0.424-2.935,1.401-4.711,2.936-5.33c5.867-2.511,16.46-2.511,31.783,0c7.952,1.304,16.657,3.112,26.111,5.428
			c8.801-3.326,22.33-4.694,40.584-4.108c15.551,0.49,30.269,2.119,44.154,4.89C196.402,197.451,209.896,194.483,226.393,192.593"/>
		<path fill="#5DC1CF" d="M258.42,196.945c1.142,0.49,1.842,1.044,2.104,1.663c2.443,6.781-0.164,20.342-7.824,40.683
			c-0.684-0.557-2.004-0.979-3.96-1.274c-1.207-0.16-1.028,0.589,0.538,2.25l2.738,2.496c11.703,10.529,19.295,20.111,22.785,28.752
			c2.64,6.583,2.853,12.435,0.637,17.552c-3.391,7.761-6.879,13.447-10.468,17.066c-3.583,3.585-8.537,6.372-14.863,8.359
			c-3.129,0.979-8.443,3.179-15.941,6.601l-22.884,10.758c-18.289,8.801-30.937,14.62-37.944,17.456
			c-9.715,3.978-23.748,4.712-42.101,2.201c-7.532-1.043-14.441-2.496-20.733-4.354c-6.259-1.856-10.66-3.762-13.203-5.72
			c-2.543-1.956-12.29-7.48-29.24-16.577c-18.321-9.844-28.491-15.401-30.512-16.676c-3.325-2.051-6.259-7.073-8.801-15.058
			c-2.412-7.495-3.213-13.074-2.396-16.723c0.651-2.965,4.627-9.206,11.931-18.727c7.073-9.226,11.881-14.701,14.423-16.43
			c3.358-2.249,4.988-3.994,4.89-5.232c-0.066-1.239-1.516-0.816-4.352,1.27c-3.226-5.345-5.835-11.424-7.823-18.237
			c-2.151-7.335-2.902-13.349-2.25-18.042c0.293-1.729,0.799-2.804,1.517-3.228c2.248-1.271,9.763-1.125,22.541,0.44
			c10.367,1.239,21.629,3.032,33.788,5.379l0.391,0.048l0.393-0.146c8.508-3.325,21.855-4.678,40.045-4.059
			c15.452,0.521,30.072,2.167,43.863,4.938l0.438,0.097l0.392-0.147c10.138-3.976,23.324-6.796,39.558-8.458
			C242.333,194.207,253.106,194.566,258.42,196.945"/>
		<path fill="#50A8B4" d="M60.19,312.001c-4.4-0.556-7.889-3.045-10.464-7.482l-3.374-5.917c-1.207-1.891-2.496-3.503-3.863-4.841
			c2.51,1.956,6.585,3.439,12.224,4.45l5.476,0.832c1.922,0,7.221,3.489,15.891,10.466l12.42,10.466l-10.416-3.474
			C70.361,314.085,64.395,312.587,60.19,312.001"/>
		<path fill="#50A8B4" d="M101.019,203.595l0.391,0.048l0.393-0.146c8.508-3.325,21.855-4.678,40.045-4.059
			c15.454,0.521,30.072,2.167,43.863,4.938l0.438,0.097l0.391-0.147c5.739-2.249,12.958-4.205,21.661-5.867
			c8.281-1.598,16.496-2.657,24.646-3.178c-14.312,2.281-26.797,7.155-37.457,14.619c-7.204,5.086-12.47,10.332-15.794,15.744
			c-12.909,4.336-27.123,10.646-42.64,18.923c-20.601,10.987-33.722,20.998-39.363,30.024c-0.52,0-2.624-1.076-6.308-3.229
			c-4.727-2.802-7.904-4.61-9.536-5.423c1.859-2.479,3.44-5.705,4.744-9.683l2.836-10.611c2.249-8.768,5.475-14.472,9.681-17.113
			c-5.541-6.648-12.387-12.73-20.536-18.239c-6.62-4.466-14.639-8.883-24.059-13.251c5.672,0.261,13.168,1.076,22.492,2.445
			C85.062,200.694,93.098,202.063,101.019,203.595"/>
		<path fill="#50A8B4" d="M131.629,319.091c7.595-2.02,15.598-5.51,24.01-10.467c9.094-5.345,15.191-8.539,18.287-9.581
			l19.803-3.621c9.585-1.857,17.473-2.948,23.667-3.275c4.074,0,8.409-1.858,13.007-5.574c4.66-3.847,6.797-7.482,6.404-10.905
			c-1.531-3.976-5.753-8.36-12.666-13.152c-4.888-3.424-9.812-8.41-14.766-14.962c-4.856-6.424-10.269-11.623-16.232-15.601
			c3.618-1.173,8.557-3.847,14.815-8.018c8.183-5.413,12.827-8.429,13.937-9.047l19.362-10.658
			c6.977-3.423,13.284-5.46,18.924-6.113l0.342,0.49c2.446,6.781-0.162,20.341-7.821,40.683c-0.687-0.555-2.007-0.979-3.963-1.272
			c-1.205-0.162-1.025,0.587,0.538,2.25l2.738,2.494c11.703,10.529,19.297,20.111,22.787,28.752
			c2.638,6.583,2.851,12.435,0.635,17.552c-3.391,7.761-6.879,13.447-10.466,17.066c-3.585,3.585-8.539,6.37-14.865,8.361
			c-3.127,0.976-8.441,3.176-15.94,6.599l-22.884,10.757c-18.289,8.802-30.936,14.621-37.944,17.457
			c-9.715,3.978-23.748,4.71-42.1,2.201c-7.533-1.045-14.441-2.494-20.734-4.354c-6.258-1.856-10.66-3.765-13.203-5.721
			c4.825,0.034,11.622-3.325,20.392-10.073C122.518,327.649,127.163,323.556,131.629,319.091"/>
		<path fill="#0D131A" d="M254.852,202.716c0.845,0.293,1.271,0.913,1.271,1.858c0,2.38-1.222,7.106-3.669,14.181l-4.448,12.077
			c-0.489,1.503-1.192,2.317-2.102,2.448c-0.945,0.16-2.478-0.311-4.597-1.418c-10.889-5.835-17.652-9.342-20.293-10.513
			c-1.271-0.556-2.005-1.027-2.2-1.418c-0.261-0.424-0.033-1.011,0.684-1.761c2.771-2.934,8.134-6.421,16.089-10.465
			C244.744,203.009,251.168,201.346,254.852,202.716"/>
		<path fill="#C6000B" d="M254.655,204.573c0,3.358-3.095,12.175-9.29,26.456l-9.977-5.478c-5.573-2.934-9.746-4.906-12.517-5.917
			c4.109-3.881,9.943-7.662,17.506-11.344c7.403-3.62,12.045-5.037,13.936-4.255C254.542,204.133,254.655,204.312,254.655,204.573"
			/>
		<path fill="#A30000" d="M254.312,204.036c0.23,0.097,0.342,0.276,0.342,0.538c0,2.217-1.435,7.008-4.3,14.377
			c-3.653-1.013-6.866-1.403-9.636-1.175c-3.584,0.327-7.808,1.693-12.665,4.109c-1.923-0.946-3.651-1.695-5.183-2.25
			c4.108-3.881,9.943-7.662,17.506-11.344C247.776,204.671,252.423,203.254,254.312,204.036"/>
		<path fill="#0D131A" d="M79.407,220.809c0.098,0.26-0.424,0.767-1.565,1.514l-14.962,10.757c-1.957,1.401-3.196,1.809-3.717,1.225
			l-2.446-4.695c-1.824-3.127-3.342-6.685-4.547-10.658c-1.5-4.988-1.614-8.33-0.34-10.023c0.52-0.652,2.982-0.327,7.383,0.976
			c5.703,1.695,11.637,4.71,17.798,9.048L79.407,220.809"/>
		<path fill="#C6000B" d="M66.497,215.675c4.695,2.314,7.988,4.254,9.879,5.818c-2.705,1.271-5.541,2.947-8.508,5.036
			c-1.76,1.237-4.009,2.967-6.748,5.183l-0.832,0.638c-1.174-1.632-2.575-4.53-4.205-8.704c-1.824-4.63-2.739-8.004-2.739-10.123
			c0-0.749,0.131-1.273,0.391-1.563c0.196-0.229,0.619-0.327,1.272-0.294C57.353,211.729,61.185,213.066,66.497,215.675"/>
		<path fill="#A30000" d="M55.007,211.663c2.185,0.032,5.901,1.321,11.148,3.863c-2.509,1.466-4.188,3.912-5.037,7.334
			c-0.456,1.958-0.847,4.938-1.172,8.949c-1.271-2.09-2.64-5.037-4.107-8.853c-1.663-4.301-2.496-7.447-2.496-9.435
			c0-0.749,0.131-1.273,0.391-1.563C53.931,211.729,54.354,211.632,55.007,211.663"/>
		<path fill="#0D131A" d="M55.203,297.918c7.205-0.424,16.479,0.605,27.822,3.083l28.458,7.185
			c5.64,1.435,10.969,2.578,15.989,3.423c5.151,0.882,8.443,1.177,9.878,0.882l3.472-0.734c44.562-9.226,74.96-13.838,91.192-13.838
			h1.762l-0.834,1.562c-3.649,7.237-14.75,16.365-33.298,27.385c-7.661,4.53-14.996,8.377-22.004,11.542
			c-7.171,3.225-12.469,5.034-15.891,5.425c-6.845,0.816-16.69,0.638-29.535-0.538c-12.809-1.205-20.715-2.673-23.715-4.399
			l-11.001-7.286l-18.433-12.32c-11.866-7.726-19.739-13.072-23.617-16.039c-2.64-2.021-3.879-3.374-3.715-4.06
			c0.066-0.163,0.506-0.407,1.32-0.734L55.203,297.918"/>
		<path fill="#922F00" d="M85.03,303.003c5.085,1.013,14.49,3.277,28.213,6.797l15.599,3.863c4.434,0.912,7.416,1.222,8.948,0.929
			l3.471-0.734l55.499-11.491c16.886-3.294,28.866-5.021,35.941-5.185c-4.76,7.043-16.772,16.121-36.038,27.236
			c-18.287,10.53-30.838,16.202-37.65,17.017c-6.685,0.784-15.992,0.44-27.922-1.026c-11.375-1.369-18.451-2.836-21.223-4.399
			c-5.769-3.294-14.962-9.177-27.577-17.652c-14.506-9.715-22.786-15.843-24.841-18.388
			C64.591,299.678,73.783,300.688,85.03,303.003"/>
		<path fill="#0D131A" d="M79.259,309.407c-0.913-1.663-1.239-3.439-0.978-5.33c0.163-1.304,0.57-2.494,1.223-3.57
			c36.609,8.379,54.732,12.698,54.374,12.958l74.959-12.958c1.632,1.435,1.891,3.391,0.783,5.868
			c-0.913,2.054-2.738,4.387-5.476,6.995c-6.585,6.259-16.201,11.589-28.849,15.99c-13.725,4.758-26.846,6.812-39.363,6.159
			l-1.417-0.097c-12.32-0.652-24.121-3.864-35.401-9.635C88.942,320.607,82.323,315.146,79.259,309.407"/>
		<path fill="#ED8599" d="M81.167,302.319c6.814,1.302,16.706,3.634,29.681,6.991l17.308,4.207c4.858,1.045,8.068,1.403,9.634,1.076
			l5.134-1.076c27.512-5.834,48.849-9.844,64.007-12.027c-0.489,3.26-2.689,6.763-6.599,10.511
			c-6.488,6.161-15.485,11.313-26.992,15.452c-12.746,4.563-25.183,6.537-37.309,5.918c-11.736-0.653-23.243-3.943-34.522-9.879
			c-10.106-5.345-16.608-10.74-19.51-16.183c-0.75-1.369-1.125-2.607-1.125-3.718L81.167,302.319"/>
		<path fill="#0D131A" d="M96.033,271.122c2.477,2.903,3.193,4.237,2.149,4.009l-2.348-1.173c-0.782,3.063-3.048,5.721-6.796,7.972
			c-3.781,2.281-7.465,3.178-11.051,2.688c-3.979-0.555-7.466-2.56-10.466-6.014c-4.563-5.315-7.006-13.302-7.333-23.96
			c-2.934-0.587-4.646-1.289-5.135-2.102c-0.52-0.88,1.663-1.011,6.552-0.391c6.585,0.878,12.271,2.507,17.065,4.887
			C84.801,260.104,90.587,264.798,96.033,271.122"/>
		<path fill="#FFFFFF" d="M88.159,278.75c-3.228,1.99-6.551,2.785-9.975,2.397c-4.532-0.458-8.134-2.936-10.807-7.435
			c-2.738-4.53-4.335-10.757-4.792-18.678c12.877,2.935,23.34,8.619,31.392,17.066C93.098,274.707,91.158,276.925,88.159,278.75"/>
		<path fill="#0D131A" d="M89.918,265.892l0.391,0.339l0.099,1.125c-1.011,2.608-2.577,4.615-4.696,6.014
			c-2.118,1.403-4.238,1.842-6.356,1.321c-2.347-0.521-4.301-2.267-5.868-5.233c-1.826-3.488-2.527-7.822-2.102-13.007l0.733-0.831
			l0.879,0.342C79.13,258.44,84.769,261.751,89.918,265.892"/>
		<path fill="#C6000B" d="M79.945,272.491c-2.184-0.489-3.88-2.314-5.085-5.476c-1.042-2.673-1.532-5.541-1.465-8.606
			c5.444,2.184,10.43,5.054,14.961,8.606c-0.945,2.021-2.168,3.537-3.668,4.548C83.155,272.574,81.575,272.882,79.945,272.491"/>
		<path fill="#FFFFFF" d="M84.736,264.374c-0.784,2.056-1.86,3.066-3.228,3.034c-1.695-0.031-2.821-2.331-3.374-6.897
			C80.384,261.62,82.585,262.905,84.736,264.374"/>
		<path fill="#0D131A" d="M66.106,245.746c1.401-1.403,3.96-3.146,7.676-5.232c4.043-2.25,7.058-3.488,9.046-3.717
			c4.368-0.455,4.517,0.018,0.44,1.416c-1.727,0.558-4.27,1.959-7.628,4.21l-7.333,4.936c-1.826,1.175-2.967,1.515-3.424,1.025
			C64.395,247.896,64.802,247.015,66.106,245.746"/>
		<path fill="#0D131A" d="M95.591,245.989c-0.227-2.999-0.081-4.221,0.441-3.67c0.52,0.521,1.042,2.087,1.563,4.695
			c0.521,2.38,0.929,5.185,1.223,8.41c0.293,3.227,0.376,5.77,0.245,7.631c-0.129,1.791-0.619,2.705-1.466,2.736
			s-1.287-0.749-1.32-2.349l-0.195-7.48L95.591,245.989"/>
		<path fill="#0D131A" d="M191.332,231.516c1.434-0.878,3.227-1.189,5.379-0.926c1.011,0.128,1.55,0.438,1.614,0.926
			c0.097,0.49-0.359,0.847-1.369,1.076l-2.641,0.439c-0.945,0.099-1.63,0.278-2.054,0.538c-2.151,1.272-4.385,5.752-6.7,13.445
			l-3.764,14.916c-0.586,2.247-0.994,3.194-1.223,2.836c-0.131-0.23-0.212-1.241-0.246-3.034c0-2.901,0.964-7.773,2.885-14.621
			C185.627,238.475,188.333,233.277,191.332,231.516"/>
		<path fill="#0D131A" d="M209.376,232.104c2.413,1.011,4.745,2.279,6.993,3.811c2.348,1.6,4.336,3.294,5.965,5.088
			c1.632,1.791,2.364,2.722,2.201,2.785l-3.374-2.003c-6.486-4.302-10.757-6.897-12.809-7.773c-1.436-0.588-2.169-1.289-2.201-2.104
			C206.115,231.123,207.191,231.188,209.376,232.104"/>
		<path fill="#0D131A" d="M223.556,245.548c1.923-0.097,3.262,0.23,4.01,0.979c0.717,0.782-0.211,1.253-2.787,1.418
			c0.554,11.246-1.076,20.081-4.89,26.502c-2.705,4.53-6.127,7.432-10.269,8.704c-4.042,1.205-8.41,0.749-13.104-1.369
			c-4.532-2.021-8.02-4.954-10.465-8.801c-2.184,2.477-3.357,3.422-3.521,2.836c-0.162-0.587,0.765-2.543,2.787-5.871
			c3.651-5.931,9.095-11.31,16.333-16.133C209.376,248.662,216.677,245.906,223.556,245.548"/>
		<path fill="#FFFFFF" d="M187.812,270.977c5.021-6.195,11.638-11.771,19.853-16.725c7.432-4.434,12.307-6.355,14.621-5.769v1.272
			c0,8.476-1.191,15.371-3.57,20.683c-2.38,5.347-5.754,8.672-10.122,9.975c-3.585,1.044-7.285,0.717-11.1-0.976
			C193.615,277.674,190.387,274.854,187.812,270.977"/>
		<path fill="#0D131A" d="M199.303,268.286c-2.641-1.465-4.271-3.636-4.889-6.503l1.125-1.908c4.498-3.62,9.371-6.668,14.62-9.145
			l0.686-0.342l0.879-0.098c1.728,4.141,2.102,8.035,1.125,11.684c-0.978,3.521-2.903,5.854-5.771,6.993
			C204.503,269.98,201.91,269.753,199.303,268.286"/>
		<path fill="#C6000B" d="M201.944,266.868c-0.945-0.262-1.873-0.865-2.789-1.811c-0.878-0.914-1.597-1.989-2.149-3.227
			c4.335-3.585,8.833-6.648,13.494-9.193c0.458,1.825,0.686,3.585,0.686,5.284c0,2.574-0.749,4.727-2.25,6.452
			c-0.913,1.045-2.005,1.794-3.276,2.249L201.944,266.868"/>
		<path fill="#FFFFFF" d="M205.464,255.621c0.326,3.879-0.31,6.062-1.909,6.55c-1.499,0.458-2.738-0.407-3.714-2.589
			L205.464,255.621"/>
		<path fill="#0D131A" d="M59.652,311.118c-0.879-0.293-2.705-2.589-5.475-6.894l-3.912-6.357l8.949,0.051
			c5.931,0.129,8.768,0.473,8.508,1.025l-3.571,7.09C62.064,309.751,60.565,311.445,59.652,311.118"/>
		<path fill="#FFFFFF" d="M53.344,299.287l6.602,0.194c3.423,0.1,5.068,0.278,4.939,0.54c-0.586,1.336-1.55,3.079-2.886,5.231
			c-1.433,2.316-2.315,3.405-2.639,3.276C58.738,308.333,56.734,305.253,53.344,299.287"/>
		<path fill="#0D131A" d="M237.933,297.138c0.129,1.27-0.833,3.829-2.887,7.674c-2.15,3.943-3.812,5.899-4.986,5.868
			c-1.042-0.031-2.724-2.184-5.036-6.455l-3.179-6.357l7.97-1.222C235.162,296.027,237.867,296.189,237.933,297.138"/>
		<path fill="#FFFFFF" d="M236.367,297.184c-0.586,2.087-1.68,4.401-3.275,6.944c-1.597,2.578-2.706,3.767-3.325,3.572
			c-0.617-0.198-1.549-1.274-2.787-3.229c-1.238-1.891-2.265-3.849-3.081-5.866L236.367,297.184"/>
		<path fill="#0D131A" d="M99.21,314.592c0.424,0.031,0.832,1.891,1.223,5.572c0.391,3.586,0.473,5.592,0.245,6.017
			c-0.227,0.553-0.928,0.96-2.102,1.222c-1.304,0.26-2.461,0.113-3.472-0.439c-0.586-0.36-1.092-1.107-1.516-2.249
			c-0.423-1.107-0.538-1.874-0.341-2.298c0.457-0.916,1.451-2.412,2.983-4.499C97.857,315.668,98.852,314.561,99.21,314.592"/>
		<path fill="#FFFFFF" d="M98.77,316.451c0.196,0.228,0.407,1.692,0.635,4.399c0.229,2.771,0.197,4.22-0.097,4.351
			c-0.423,0.228-0.976,0.391-1.663,0.489l-1.956-0.244c-0.686-0.359-1.06-1.321-1.125-2.887l2.103-3.275
			C97.939,317.266,98.639,316.32,98.77,316.451"/>
		<path fill="#0D131A" d="M111.483,320.411c0.39,0.129,0.849,2.281,1.369,6.455c0.489,4.074,0.635,6.259,0.44,6.552
			c-0.195,0.391-1.076,0.652-2.64,0.783c-1.728,0.131-3.064-0.148-4.009-0.832c-0.815-0.586-1.417-1.386-1.808-2.396
			c-0.393-0.979-0.441-1.794-0.148-2.446c0.293-0.586,1.353-2.053,3.177-4.399C109.886,321.52,111.092,320.28,111.483,320.411"/>
		<path fill="#FFFFFF" d="M110.701,322.612c0.131,0.16,0.328,1.809,0.586,4.938c0.227,3.163,0.246,4.826,0.05,4.986l-1.614,0.247
			c-0.978-0.034-1.729-0.23-2.249-0.589c-0.815-0.618-1.255-1.777-1.322-3.472l2.25-3.325
			C109.805,323.41,110.571,322.481,110.701,322.612"/>
		<path fill="#0D131A" d="M182.776,326.57c-0.198-0.553,0.016-2.525,0.635-5.916c0.586-3.454,1.092-5.199,1.513-5.233
			c0.522-0.063,1.582,1.076,3.179,3.423l2.59,4.108c0.426,0.589,0.392,1.386-0.097,2.396c-0.488,1.011-1.238,1.76-2.25,2.25
			c-1.043,0.519-2.215,0.618-3.52,0.293C183.688,327.566,183.005,327.126,182.776,326.57"/>
		<path fill="#FFFFFF" d="M189.182,323.443c-0.132,1.403-0.57,2.298-1.322,2.688l-1.957,0.147l-1.564-0.487
			c-0.293-0.162-0.244-1.614,0.148-4.353c0.358-2.705,0.635-4.155,0.83-4.352c0.131-0.129,0.8,0.849,2.005,2.936L189.182,323.443"/>
		<path fill="#0D131A" d="M170.796,333.467c-0.783-0.456-0.928-2.705-0.439-6.748c0.488-4.043,1.157-6.244,2.004-6.599
			c0.425-0.131,1.434,0.878,3.031,3.03c1.565,2.184,2.657,4.028,3.277,5.526c0.227,0.555,0.162,1.285-0.197,2.198
			c-0.424,1.045-1.092,1.874-2.004,2.496c-0.977,0.619-2.135,0.847-3.471,0.685C172.019,333.956,171.285,333.76,170.796,333.467"/>
		<path fill="#FFFFFF" d="M177.201,328.771c-0.131,1.532-0.687,2.608-1.662,3.229l-2.152,0.536l-1.614-0.294
			c-0.196-0.162-0.065-1.81,0.392-4.939c0.424-3.096,0.718-4.727,0.878-4.887c0.097-0.131,0.8,0.846,2.103,2.933L177.201,328.771"/>
		<path fill="#0D131A" d="M40.631,293.126c-0.391-1.013-0.57-2.038-0.538-3.081c0.065-1.694,0.359-2.496,0.879-2.396
			c0.457,0.099,0.832,0.749,1.125,1.958c0.228,0.783,0.556,1.58,0.978,2.395l0.929,1.37c1.792,1.791,3.942,2.949,6.454,3.471
			l13.055,0.64c7.988-0.102,16.104,0.747,24.351,2.542c4.988,1.074,11.671,2.984,20.049,5.721l13.057,4.012
			c4.856,1.302,8.947,2.002,12.272,2.1c1.598,0.033,5.77-0.636,12.518-2.003l23.521-4.889c25.099-5.054,46.633-8.249,64.593-9.584
			c5.965-0.425,10.985-1.501,15.059-3.227c3.684-1.563,6.178-3.439,7.481-5.623c1.145-1.923,2.104-2.558,2.887-1.908
			c0.783,0.65,0.698,1.663-0.247,3.032c-2.671,3.779-5.769,6.39-9.288,7.822c-3.066,1.207-8.265,2.138-15.6,2.787
			c-10.594,0.914-30.04,4.028-58.335,9.342c-26.079,4.855-40.128,7.235-42.149,7.139c-5.835-0.359-14.719-2.446-26.649-6.261
			c-8.378-2.705-14.929-4.579-19.657-5.621c-8.083-1.763-16.022-2.59-23.813-2.494c-7.399,0.097-12.551-0.262-15.452-1.076
			c-2.021-0.556-4.059-1.843-6.112-3.864C41.414,294.837,40.957,294.071,40.631,293.126"/>
		<path fill="#0D131A" d="M115.004,300.705c-0.848-0.455-1.174-1.076-0.978-1.856c0.227-0.785,0.913-1.06,2.052-0.834
			c1.141,0.229,2.038,0.587,2.69,1.076l2.59,2.64c0.945,1.074,1.043,1.76,0.294,2.054l-1.467,0.097
			C118.589,302.645,116.862,301.585,115.004,300.705"/>
		<path fill="#0D131A" d="M139.697,302.955c1.042-1.272,2.02-2.17,2.933-2.687c0.815-0.426,2.021-0.787,3.62-1.076
			c1.499-0.262,2.298,0.078,2.396,1.023c0.066,0.945-0.604,1.551-2.004,1.812c-1.173,0.258-2.38,0.698-3.62,1.319
			c-1.042,0.519-1.563,0.833-1.563,0.928l-1.663,0.342C138.849,304.617,138.816,304.062,139.697,302.955"/>
		<path fill="#0D131A" d="M222.286,129.858c10.398-0.228,18.288,1.092,23.666,3.962l0.783,0.439l-4.888,13.838
			c-6.13-1.043-11.932-1.63-17.408-1.76c3.845,1.466,6.828,3.096,8.949,4.89c0.651,0.586,1.384,1.06,2.198,1.417
			c0.49,0.392,0.619,1.272,0.391,2.641l-0.782,9.192c-0.425,4.759-0.88,7.759-1.37,8.998c-0.589,1.401-1.012,2.086-1.273,2.054
			c-0.13-0.032-0.357-0.57-0.684-1.613c-0.423-1.402-2.038-3.341-4.839-5.819c-3.553-3.161-7.416-5.347-11.59-6.551
			c5.183,4.465,10.676,9.6,16.479,15.401l-11.051,9.535c-7.532,6.291-11.736,9.356-12.618,9.193
			c-0.814-0.163-2.688-1.646-5.621-4.45l-7.825-7.481l6.113,10.366c2.346,4.009,3.487,6.34,3.423,6.992
			c-0.131,1.076-3.294,2.869-9.487,5.379l-7.432,5.965c-5.085,3.846-8.019,5.542-8.802,5.086c-0.783-0.456-2.543-2.446-5.281-5.967
			l-6.894-8.849l4.009,12.077c1.662,4.956,2.445,7.791,2.345,8.509c-0.097,0.749-1.548,2.135-4.351,4.156l-6.308,4.254
			c-1.5,0.978-2.56,1.518-3.176,1.614c-0.652,0.065-1.191-0.293-1.614-1.076l-5.721-11.147c0.717,2.934,1.872,6.977,3.471,12.129
			c-7.27,5.769-11.051,8.474-11.344,8.117c-0.163-0.196-0.865-2.071-2.104-5.623l-3.471-9.926l0.928,17.603
			c0,0.228-2.02,1.189-6.062,2.884c-4.14,1.729-6.438,2.429-6.894,2.1c-0.393-0.291-0.785-1.74-1.174-4.349l-1.174-7.775
			l0.636,9.635c0.195,3.063,0.146,4.678-0.148,4.84c-10.823,3.128-16.591,4.35-17.309,3.668c-0.425-0.427,0.262-4.223,2.053-11.395
			l3.814-14.767c-1.304,1.304-4.597,4.857-9.878,10.66c-4.792,5.085-7.532,7.514-8.215,7.284c-0.684-0.196-1.842-3.355-3.472-9.485
			l-2.2-9.143l6.699-6.848l-5.77,4.448c-3.814,2.836-5.901,4.062-6.259,3.67c-0.358-0.391-0.146-2.739,0.635-7.044l1.272-6.355
			l16.088-11.637l-11.492,5.181c-4.205,1.924-6.503,2.658-6.894,2.201c-0.392-0.456,0.733-3.716,3.374-9.78l4.059-8.948
			l14.131-12.323l-7.725,4.059c-3.064,1.598-4.678,2.25-4.84,1.957c-0.293-0.521,4.694-7.514,14.961-20.977l18.092-4.743
			l-6.258-0.88l-4.695-1.026c-0.684-0.197-0.961-0.554-0.83-1.076l0.438-0.733c3.944-3.618,7.953-6.895,12.028-9.828l0.246-0.196
			l7.188-0.635l11.98-1.222l-10.513-1.81l-0.734-0.489c-0.196-0.49,0.343-1.141,1.613-1.956l11.833-8.558
			c6.585-4.792,10.333-7.334,11.247-7.628c4.53-0.75,10.43-0.147,17.701,1.809c7.27,1.957,14.278,4.841,21.026,8.655
			C203.72,131.749,211.918,130.086,222.286,129.858"/>
		<path fill="#00A63C" d="M221.748,147.412c4.074,1.271,8.1,3.586,12.079,6.943l-0.637,6.895l-1.074,9.487
			c-1.924-2.348-4.646-4.662-8.167-6.943c-4.302-2.836-8.395-4.547-12.274-5.134l-2.934-0.196c-0.196,0.229,0.538,0.929,2.2,2.103
			c1.533,1.108,4.548,3.798,9.047,8.067l8.215,7.922l-7.432,6.111c-0.163,0.131-2.446-1.385-6.845-4.546
			c-4.434-3.162-6.927-4.613-7.483-4.352c-0.554,0.292,1.239,2.201,5.379,5.72l6.257,5.379l-9.779,7.97l-16.723-14.865
			c-2.119-1.858-3.326-2.739-3.62-2.641c-0.358,0.065,0.293,1.385,1.957,3.96c2.315,3.586,6.128,10.529,11.442,20.831l-7.236,3.52
			l-3.619-5.428c-2.511-3.553-3.977-5.232-4.401-5.037c-0.358,0.164,0.586,2.168,2.836,6.014l3.277,5.819l-13.252,9.586
			c-8.052-10.303-12.828-16.12-14.328-17.458l-2.446-2.054c-0.424-0.066-0.229,0.945,0.586,3.032
			c1.173,3.162,3.669,11.262,7.481,24.302l-11.394,7.823l-3.911-8.606l-5.035-10.61c-1.176-2.247-1.859-3.373-2.054-3.373
			c-0.228,0.033-0.261,1.157-0.098,3.373c0.132,2.054,0.784,5.605,1.957,10.661c1.075,4.627,2.021,8.197,2.836,10.706l-7.724,5.526
			l-3.179-9.293c-1.891-5.345-3.194-8.834-3.911-10.464c-1.044-2.282-1.679-3.489-1.908-3.621c-0.391-0.194-0.456,1.158-0.197,4.062
			l1.223,23.326l-9.046,3.469c-2.282-12.745-3.765-20.356-4.45-22.833c-0.488-1.894-0.978-2.855-1.466-2.888
			c-0.49,0-0.7,1.045-0.636,3.13l0.832,26.159l-12.273,2.64c4.825-19.069,7.075-29.094,6.748-30.073
			c-0.197-0.586-3.44,2.397-9.73,8.949L95.788,242.17l-4.254-13.936l6.797-6.699l7.236-7.58c1.337-1.532,1.891-2.459,1.663-2.784
			c-0.196-0.294-1.076,0-2.639,0.878c-1.143,0.653-4.254,2.853-9.341,6.6l-8.753,6.36l1.174-8.363
			c12.974-9.029,20.47-14.441,22.491-16.234c1.467-1.304,2.103-2.086,1.908-2.347c-0.197-0.26-1.173-0.097-2.934,0.489
			c-1.403,0.456-5.006,1.875-10.806,4.254l-11.1,4.499l5.379-13.593c10.432-9.227,17.001-14.931,19.706-17.115l3.765-3.228
			c0.162-0.325-1.483,0.147-4.938,1.417c-3.064,1.141-5.509,2.201-7.335,3.178l-4.839,2.592l9.682-13.496l10.758-2.69l12.91-3.569
			c1.791-0.652,2.657-1.206,2.589-1.663c-0.033-0.423-0.977-0.57-2.836-0.44l-6.797-0.245l-8.262-1.467
			c3.715-3.259,7.089-5.981,10.12-8.165l14.132-1.32l11.148-1.369c1.728-0.228,2.592-0.57,2.592-1.028
			c0-0.456-0.848-0.814-2.543-1.076l-7.873-1.663l-5.426-1.32c1.564-0.978,5.345-3.716,11.345-8.215
			c5.344-4.042,8.327-6.161,8.946-6.356c7.074-0.782,15.646,0.733,25.721,4.547c5.02,1.923,9.341,3.912,12.958,5.964
			c5.542-2.998,13.234-4.661,23.079-4.987c9.813-0.326,17.441,0.798,22.885,3.374l-2.936,9.242l-11.442-0.636
			c-7.53-0.326-12.859-0.375-15.99-0.147c-3.391,0.26-4.825,0.653-4.301,1.173c0.423,0.424,1.839,0.75,4.253,0.978
			C217.232,146.354,219.922,146.826,221.748,147.412"/>
		<path fill="#009233" d="M213.728,143.843c-3.39,0.26-4.825,0.652-4.301,1.173c0.423,0.424,1.839,0.75,4.253,0.978
			c3.554,0.359,6.243,0.831,8.068,1.417c4.074,1.271,8.1,3.585,12.081,6.943l-0.639,6.895l-1.073,9.487
			c-1.925-2.347-4.647-4.662-8.168-6.943c-4.302-2.836-8.395-4.547-12.274-5.134l-2.934-0.195c-0.195,0.229,0.538,0.929,2.2,2.103
			c1.533,1.107,4.548,3.798,9.047,8.067l8.215,7.922l-7.432,6.111c-0.163,0.131-2.446-1.385-6.845-4.546
			c-4.434-3.162-6.927-4.613-7.483-4.351c-0.554,0.292,1.239,2.201,5.379,5.72l6.257,5.379l-7.333,6.015
			c-7.368-11.931-17.131-20.113-29.29-24.547c-13.234-4.792-25.966-3.586-38.19,3.618c-4.531-11.41-11.295-17.406-20.292-17.993
			l4.156-3.129l14.132-1.321l11.148-1.369c1.728-0.228,2.592-0.57,2.592-1.027c0-0.456-0.848-0.814-2.543-1.076l-7.873-1.663
			l-5.426-1.32c1.564-0.978,5.345-3.716,11.345-8.215c5.344-4.042,8.328-6.161,8.946-6.357c7.076-0.782,15.647,0.734,25.721,4.547
			c5.02,1.923,9.341,3.912,12.958,5.965c5.542-2.998,13.234-4.661,23.079-4.987c9.813-0.326,17.44,0.798,22.884,3.374l-2.934,9.242
			l-11.443-0.635C222.186,143.663,216.858,143.615,213.728,143.843"/>
		<path fill="#0D131A" d="M193.68,134.552h0.146l6.112,0.93l1.809-0.49c0.652,0-0.439,0.814-3.276,2.445
			c-10.073,4.107-19.965,9.535-29.68,16.282c-18.81,13.008-34.473,30.104-46.99,51.293l-1.027,1.858
			c-0.131,0.098-0.245-0.619-0.341-2.151c-0.26-4.141,1.286-9.681,4.645-16.625c3.584-7.432,8.442-14.685,14.569-21.76
			C155.328,148.244,173.338,137.649,193.68,134.552"/>
		<path fill="#00A63C" d="M196.076,136.801c-10.758,3.032-22.118,8.997-34.082,17.896c-16.495,12.258-29.583,27.448-39.265,45.573
			c1.142-4.889,3.569-10.513,7.285-16.869c4.109-7.009,9.063-13.611,14.866-19.803c14.733-15.616,31.017-24.807,48.848-27.578
			l2.053,0.196C196.859,136.345,196.957,136.542,196.076,136.801"/>
		<path fill="#009233" d="M193.728,136.019l2.053,0.196c1.077,0.129,1.176,0.326,0.294,0.585
			c-5.639,1.598-11.914,4.287-18.825,8.068c-8.737,4.824-16.968,10.676-24.693,17.555c-1.304-0.913-2.755-1.646-4.35-2.201
			c6.42-6.259,13.234-11.394,20.438-15.403C176.793,140.257,185.155,137.323,193.728,136.019"/>
		<path fill="#0D131A" d="M372.693,112.5c0.163,1.304-1.989,3.943-6.454,7.921c-4.434,3.944-7.027,5.542-7.776,4.792l-7.088-8.411
			l1.809,5.477c0.816,2.739,1.076,4.564,0.783,5.477c-0.356,1.108-2.916,2.544-7.675,4.302c-4.727,1.761-7.252,2.25-7.579,1.467
			c-0.23-0.586-1.156-1.907-2.787-3.96l-4.303-5.281l-0.1,7.432c-0.031,2.902-0.193,4.483-0.487,4.744
			c-0.684,0.619-5.524,0.912-14.523,0.879c-10.428-0.032-19.066-0.929-25.912-2.689c-1.762-0.423-2.806-0.766-3.131-1.027
			c-0.781-0.619-1.547-2.151-2.296-4.596c-1.794-5.738-5.085-11.947-9.88-18.63c-4.498-6.226-9.697-12.029-15.598-17.408
			c-5.868-5.379-11.457-9.438-16.771-12.176c-5.641-2.902-10.123-3.83-13.446-2.788l-1.663-0.245
			c-11.312-5.476-26.356,3.08-45.132,25.672c-9.387,11.279-17.653,23.112-24.791,35.5h-19.803l-1.467-9.584l-2.494,2.934
			l-1.614,2.983l-1.417,2.592c-0.685,0.327-2.477-0.083-5.379-1.223l-12.321-4.302l-9.73-3.081c-1.631-0.49-2.608-1.108-2.935-1.858
			c-0.391-0.913-0.162-2.511,0.684-4.792l1.907-5.721l1.86-6.112c-1.272,1.076-3.554,3.847-6.846,8.312
			c-3.033,4.107-4.906,6.341-5.624,6.7c-1.076,0.489-4.744-1.109-11.003-4.792c-6.259-3.652-9.649-6.128-10.172-7.434
			c-0.292-0.717,1.582-3.128,5.625-7.236c4.465-4.564,9.879-9.356,16.233-14.376c17.636-13.985,34.652-23.764,51.049-29.338
			c17.571-5.999,33.07-8.199,46.501-6.602c12.81,1.5,25.264,6.65,37.358,15.452c12.194-8.574,26.781-12.534,43.765-11.883
			c16.232,0.619,33.135,5.33,50.707,14.131c12.258,6.194,24.04,14.084,35.353,23.667C367.576,105.442,372.432,110.479,372.693,112.5
			"/>
		<path fill="#E85382" d="M358.317,122.132l-2.933-4.302c-1.861-2.576-3.932-4.922-6.21-7.042c-2.511-2.379-3.864-3.26-4.06-2.64
			c-0.131,0.456,0.409,1.809,1.611,4.058c0.849,1.598,1.632,3.553,2.349,5.867l2.298,7.971c-2.477,1.696-6.29,3.145-11.442,4.351
			l-5.524-8.067c-3.26-4.629-5.018-6.635-5.281-6.014c-0.294,0.62-0.507,3.472-0.636,8.557l-0.244,9.046l-16.139,0.734
			c-9.159-0.098-16.38-1.108-21.662-3.032c-1.694-6.193-4.874-12.794-9.533-19.803c-4.498-6.813-9.797-13.105-15.891-18.875
			c-6.292-5.934-12.57-10.497-18.828-13.691c-6.749-3.456-12.777-4.922-18.093-4.4c-13.006-5.085-28.294,2.608-45.865,23.079
			c-9.617,11.148-18.319,23.878-26.111,38.19h-15.595c-0.814-3.554-1.32-6.486-1.516-8.802l-0.146-3.422
			c-0.163-0.359-0.914,0.097-2.25,1.369l-4.108,4.254c-1.304,1.564-2.184,3.082-2.639,4.547c-4.302-0.783-13.121-3.553-26.453-8.312
			c2.606-8.638,4.516-14.719,5.721-18.239c0.847-2.477,1.157-3.765,0.928-3.862l-2.886,1.858c-2.086,1.435-4.547,3.57-7.382,6.406
			c-3.457,3.488-6.128,6.796-8.02,9.926c-3.292-0.848-6.551-2.233-9.779-4.157c-2.346-1.369-4.336-2.788-5.965-4.255
			c7.237-7.302,15.419-14.441,24.548-21.417c16.038-12.224,31.212-20.781,45.524-25.67c17.765-6.03,32.793-8.59,45.083-7.677
			c12.551,0.945,24.547,5.655,35.989,14.131l1.515,0.685c11.018-6.421,23.048-9.894,36.086-10.416
			c17.181-0.717,35.369,3.749,54.569,13.398c11.411,5.737,22.493,12.893,33.25,21.465c7.271,5.803,13.023,11.019,17.263,15.647
			c-0.913,1.532-2.688,3.195-5.33,4.988L358.317,122.132"/>
		<path fill="#C94772" d="M278.419,63.553c-11.833,3.162-21.611,8.916-29.338,17.261c-7.889-4.596-14.879-6.585-20.977-5.965
			c-4.302-1.663-8.932-1.907-13.887-0.733c-3.195-5.509-7.302-10.073-12.322-13.691c8.509,2.086,16.935,6.21,25.28,12.371
			l1.515,0.685C243.588,64.809,260.165,61.5,278.419,63.553"/>
		<path fill="#C94772" d="M327.219,80.667c9.682,5.51,19.006,11.964,27.97,19.364c6.193,5.085,11.086,9.6,14.671,13.544
			c-0.915,1.564-2.707,3.243-5.381,5.037C354.732,105.735,342.311,93.087,327.219,80.667"/>
		<path fill="#C94772" d="M163.804,123.159c-2.935,4.662-5.493,8.981-7.677,12.958h-13.739
			c9.878-14.148,22.036-25.525,36.478-34.131C173.778,108.277,168.758,115.335,163.804,123.159"/>
		<path fill="#0D131A" d="M268.983,73.284c-4.11-2.771-6.162-4.613-6.162-5.526c-0.131-1.206,0-2.38,0.389-3.521
			c0.393-1.238,1.047-2.135,1.958-2.689l0.1-0.097h0.146c10.789-0.197,22.084,1.581,33.886,5.329l0.586,0.196l-0.684,1.614
			c-1.599,3.618-2.918,6.226-3.962,7.824c-2.315,3.488-4.873,5.64-7.675,6.454C285.412,83.487,279.219,80.293,268.983,73.284"/>
		<path fill="#FCEEF4" d="M266.099,62.82c10.042-0.13,20.635,1.532,31.784,4.987l-0.196,0.44c-1.336,3.032-2.576,5.364-3.716,6.993
			c-2.089,2.999-4.399,4.874-6.944,5.623c-0.555,0.163-1.743-0.129-3.57-0.879c-2.118-0.879-4.678-2.201-7.674-3.96
			c-3.166-1.858-5.886-3.635-8.169-5.331c-2.021-1.532-3.08-2.509-3.178-2.933l-0.048-0.734
			C264.385,65.037,264.957,63.635,266.099,62.82"/>
		<path fill="#D9CED4" d="M266.099,62.82l13.983,0.929l-7.335,1.467c-2.867,0.652-5.543,1.663-8.02,3.031l-0.292-0.489l-0.051-0.734
			C264.385,65.037,264.957,63.635,266.099,62.82"/>
		<path fill="#0D131A" d="M291.964,97.683c5.997-2.478,10.333-3.39,13.007-2.739c3.032,0.717,5.427,4.401,7.187,11.051
			c1.598,6.063,1.923,10.382,0.978,12.958c-0.814,2.282-3.894,4.091-9.242,5.428l-7.822,1.271
			c-2.576,0.555-7.204-1.874-13.887-7.286l-0.099-0.097l-5.035-9.927C280.18,104.041,285.15,100.487,291.964,97.683"/>
		<path fill="#FCEEF4" d="M293.333,98.808c5.474-2.216,9.323-3.064,11.54-2.542c0.587,0.162,1.532,1.434,2.836,3.814
			c1.174,2.152,2.103,4.4,2.788,6.748c0.782,2.574,1.173,4.921,1.173,7.041c0,1.565-0.213,2.934-0.635,4.108
			c-1.144,3.129-5.706,5.085-13.692,5.868l-1.076,0.146c-2.021,0.456-5.9-1.598-11.638-6.161l-4.156-6.699l-1.369-2.494
			C282.135,104.628,286.879,101.351,293.333,98.808"/>
		<path fill="#0D131A" d="M332.695,90.104c7.303,3.847,11.326,6.373,12.078,7.579c0.195,0.358,0.195,0.717,0,1.076
			c-0.652,1.173-3.714,2.918-9.194,5.232c-5.247,2.216-8.508,3.325-9.78,3.325c-1.302,0-3.682-1.777-7.138-5.33
			c-3.39-3.489-5.295-6.03-5.721-7.628c-0.424-1.76-0.032-3.635,1.173-5.624c0.521-0.847,1.354-1.695,2.496-2.543
			c1.108-0.814,2.039-1.304,2.786-1.467C320.83,84.399,325.263,86.192,332.695,90.104"/>
		<path fill="#FCEEF4" d="M342.475,98.27c-0.261,0.75-2.768,2.152-7.53,4.206c-4.695,1.988-7.662,2.983-8.898,2.983
			c-0.88,0-2.903-1.582-6.062-4.744c-3.194-3.195-4.985-5.525-5.38-6.994c-0.391-1.401-0.049-2.949,1.027-4.644
			c0.945-1.5,2.002-2.38,3.176-2.641c1.207-0.26,5.296,1.417,12.274,5.037C337.895,94.961,341.692,97.227,342.475,98.27"/>
		<path fill="#0D131A" d="M179.598,57.686l0.878-0.05l-0.292,0.783l-2.199,8.411c-1.207,4.498-2.103,6.909-2.689,7.236
			c-1.043,0.49-4.775,0.586-11.196,0.293c-6.553-0.326-10.433-0.879-11.638-1.663l-0.734-0.586l-0.439-0.538
			c0-0.554,1.417-2.526,4.254-5.916l4.254-4.939l1.417-0.929l9.534-1.468L179.598,57.686"/>
		<path fill="#FCEEF4" d="M178.571,58.81l-1.565,6.454l-1.076,4.5c-0.425,1.434-0.847,2.266-1.271,2.494
			c-0.913,0.456-4.32,0.505-10.219,0.146c-5.901-0.358-9.259-0.814-10.073-1.369c0.162-0.848,1.792-3.146,4.888-6.894l1.81-2.25
			C167.291,60.327,173.126,59.299,178.571,58.81"/>
		<path fill="#0D131A" d="M135.981,86.926c9.161-4.727,14.262-7.008,15.305-6.845c1.109,0.196,3.244,4.188,6.406,11.98
			c3.128,7.693,4.678,12.551,4.645,14.571c-0.032,2.314-4.857,4.368-14.473,6.161c-9.52,1.761-14.686,2.005-15.5,0.733l-6.014-7.824
			c-3.749-5.052-5.509-8.051-5.28-8.997C121.491,95.042,126.462,91.783,135.981,86.926"/>
		<path fill="#FCEEF4" d="M123.219,97.195c0.293-1.109,4.629-3.863,13.006-8.264c8.215-4.303,13.041-6.505,14.474-6.601
			c0.881,0.586,2.706,4.222,5.477,10.904c2.804,6.78,4.206,11.1,4.206,12.958v0.048l-0.733,0.93
			c-0.881,0.652-2.331,1.304-4.352,1.957c-3.978,1.304-8.476,2.217-13.496,2.737c-4.727,0.522-7.317,0.473-7.773-0.146l-3.229-3.814
			c-5.053-5.575-7.58-9.062-7.58-10.464V97.195"/>
		<path fill="#0D131A" d="M175.49,81.743c1.304-1.892,2.232-2.982,2.787-3.276c2.25-1.107,5.965-1.809,11.147-2.103
			c6.78-0.359,11.116,1.042,13.006,4.206l0.293,0.489l-0.44,0.293c-4.859,3.162-9.828,7.4-14.913,12.714l-0.198,0.196l-0.293-0.049
			l-7.726-1.027l-7.089-0.93c-1.272-0.26-1.99-0.603-2.151-1.026c-0.129-0.228-0.113-0.473,0.049-0.734l1.516-2.396L175.49,81.743"
			/>
		<path fill="#FCEEF4" d="M179.696,79.396c1.663-0.848,4.823-1.451,9.486-1.81c5.932-0.423,9.893,0.49,11.882,2.739
			c-4.368,2.999-9.047,7.073-14.033,12.225l-6.895-0.881l-7.97-1.223l1.319-2.103C176.875,82.737,178.945,79.755,179.696,79.396"/>
		<path fill="#DBDCDC" d="M283.357,385.15c1.696,1.045,3.732,2.725,6.112,5.037c2.543,2.445,3.832,4.074,3.863,4.889
			c0.098,0.945-0.7,2.723-2.396,5.33c-1.565,2.446-3.032,4.337-4.401,5.675c0.196-4.434,0.131-8.035-0.196-10.809
			C285.885,391.395,284.891,388.021,283.357,385.15"/>
	</g>
</g>
</svg>
