<?xml version="1.0" encoding="utf-8"?>
<!-- Generator: Adobe Illustrator 16.0.0, SVG Export Plug-In . SVG Version: 6.00 Build 0)  -->
<!DOCTYPE svg PUBLIC "-//W3C//DTD SVG 1.1//EN" "http://www.w3.org/Graphics/SVG/1.1/DTD/svg11.dtd">
<svg version="1.1" id="Layer_1" xmlns="http://www.w3.org/2000/svg" xmlns:xlink="http://www.w3.org/1999/xlink" x="0px" y="0px"
	 width="456px" height="415px" viewBox="0 0 456 415" enable-background="new 0 0 456 415" xml:space="preserve">
<g>
	<g>
		<path fill="#EF8200" d="M366.083,254.234c-0.993,16.962-6.803,31.199-17.432,42.711c-9.362,10.131-21.451,17.265-36.266,21.396
			c-13.715,3.854-27.207,4.543-40.479,2.065c-13.384-2.479-23.351-7.602-29.904-15.365c1.155-2.698,2.396-6.582,3.717-11.649
			c1.927-7.38,2.726-13.19,2.396-17.431c6.442,6.995,14.43,12.364,23.956,16.108c10.078,3.967,20.239,5.426,30.483,4.379
			c25.059-2.533,43.949-18.229,56.67-47.088l1.486,2.479C362.144,253.437,363.935,254.234,366.083,254.234"/>
		<path fill="#DDD583" d="M242.003,305.289c14.593,13.106,32.41,18.641,53.448,16.603c19.219-1.872,36.815-9.361,52.788-22.468
			c-16.248,18.889-36.9,28.61-61.957,29.16c-9.97,0.165-19.359-1.239-28.173-4.214c-8.262-2.863-14.427-6.552-18.503-11.068
			L242.003,305.289"/>
		<path fill="#CF7100" d="M244.481,297.192c11.346,12.062,27.427,17.954,48.244,17.68c19.661-0.277,37.835-5.756,54.523-16.44
			c-13.77,13.768-31.063,21.533-51.882,23.296c-21.477,1.819-39.266-3.663-53.363-16.438L244.481,297.192"/>
		<path fill="#EF8200" d="M219.367,108.923c-0.662,3.525-2.533,10.188-5.618,19.992c-2.809,8.977-4.268,14.237-4.378,15.779
			c-0.165,2.148,0.386,7.297,1.653,15.448c0.992,6.664,1.955,12.363,2.892,17.1c4.736,24.838,10.051,41.994,15.943,51.466
			c6.994,11.181,11.73,19.853,14.208,26.021c4.572,11.401,5.728,21.781,3.472,31.146l-6.363,22.222
			c-1.651,5.397-2.532,9.858-2.644,13.383l4.791,10.243c2.864,7.271,3.608,12.088,2.231,14.457
			c-1.928,3.195-4.267,5.811-7.022,7.849c-3.358,2.479-7.076,3.911-11.151,4.295c-4.792,0.44-9.859-0.33-15.202-2.312
			c-5.781-2.093-8.701-4.599-8.755-7.519l0.247-13.052c-0.054-6.278-0.716-10.821-1.982-13.63l-5.205-5.452
			c-3.635-4.297-5.838-7.959-6.608-10.988l-12.474-2.23l-3.882,2.892c-2.7,2.258-4.187,4.241-4.462,5.948l2.727,5.453
			c1.707,3.965,2.203,6.608,1.487,7.93c-0.992,1.817-5.453,4.159-13.383,7.021c-8.592,3.085-15.917,4.626-21.975,4.626
			c-6.608,0-12.777-1.928-18.505-5.783c-5.783-3.855-6.774-6.828-2.973-8.921l10.325-5.782c-4.461-2.92-7.572-7.077-9.334-12.475
			c-3.415-10.739,1.734-22.196,15.449-34.367c-2.755-4.514-4.792-12.144-6.114-22.882c-1.597-12.337-1.348-23.819,0.744-34.448
			l-5.122,5.452c-2.588,2.533-4.543,3.606-5.865,3.222c-0.937-0.275-1.68-1.707-2.23-4.295l-0.496-3.883
			c-5.783,1.928-8.895,2.147-9.335,0.66c-0.495-1.707-0.523-3.36-0.082-4.956c0.771-2.754,2.892-5.976,6.361-9.666
			c2.148-4.846,5.149-10.271,9.004-16.274c7.71-11.896,15.89-20.625,24.536-26.188c-3.69-0.715-6.636-2.01-8.839-3.882
			c-3.91-3.249-8.757-9.004-14.54-17.265c-8.041-11.345-11.979-20.736-11.814-28.17c0.055-3.746,1.68-7.931,4.874-12.557
			c2.864-4.296,5.123-6.554,6.774-6.774l8.84-22.388c-0.385-0.716-0.633-1.569-0.743-2.56c-0.275-1.928,0.193-3.553,1.404-4.874
			c5.067-5.508,10.023-9.583,14.87-12.227c11.235-6.169,24.343-8.151,39.323-5.949c10.848,1.543,20.075,9.28,27.674,23.214
			C220.027,77.587,222.451,92.897,219.367,108.923"/>
		<path fill="#CF7100" d="M109.33,208.716c3.579-2.643,6.417-4.075,8.508-4.295c1.652-0.166,2.314,0.331,1.983,1.487
			c-0.385,1.103-1.625,2.066-3.718,2.892l-4.956,0.579L109.33,208.716"/>
		<path fill="#CF7100" d="M116.269,221.522c4.185-6.609,8.289-12.174,12.309-16.688l-0.579,6.855
			C121.502,218.41,117.592,221.686,116.269,221.522"/>
		<path fill="#CF7100" d="M156.17,154.773c7.82-1.377,13.989-3.14,18.504-5.288l4.709-0.083c0.275,1.267-0.551,3.167-2.478,5.7
			c-5.012,6.774-10.409,10.134-16.192,10.078c-4.407-0.055-7.766-0.88-10.079-2.479c-1.928-1.321-3.553-3.497-4.874-6.525
			L156.17,154.773"/>
		<path fill="#CF7100" d="M191.361,309.172c-6.333-10.574-7.819-20.9-4.46-30.98c-0.606,6.225,1.873,11.676,7.436,16.357
			c5.122,4.24,11.62,6.939,19.496,8.094c7.93,1.214,14.925,0.414,20.982-2.396c6.334-2.918,10.3-7.57,11.896-13.961l-1.734,7.85
			l-3.139,12.474c-0.772,2.202-1.488,5.04-2.148,8.51c-0.716,3.523-1.047,5.81-0.992,6.855c0.109,1.486,2.011,6.554,5.701,15.201
			c-3.305-5.837-10.52-8.51-21.645-8.014c-11.235,0.496-17.761,4.021-19.579,10.575c0-10.134-0.414-16.054-1.239-17.763
			C198.082,318.727,194.558,314.457,191.361,309.172"/>
		<path fill="#CF7100" d="M138.574,303.14c3.415-2.147,5.315-5.148,5.7-9.004c0.385-3.744-0.771-7.628-3.47-11.648
			c5.342,6.775,12.888,12.145,22.636,16.11c5.397,2.146,10.244,3.522,14.54,4.129c-2.094,0.826-4.213,2.644-6.361,5.453
			l-2.644,3.882c1.321,1.763,2.34,3.911,3.056,6.443c0.661,2.368,0.936,4.488,0.827,6.361c-0.111,1.653-2.203,3.332-6.279,5.04
			c-2.534,1.101-7.792,2.892-15.778,5.369l-10.575,1.734l-6.36-0.247c5.672-1.487,7.709-4.077,6.113-7.766
			c-1.432-3.415-5.701-7.296-12.805-11.647c-3.689-2.259-6.582-6.169-8.674-11.732l-2.064-7.681
			c2.862,4.02,6.526,6.443,10.986,7.271C131.497,305.976,135.215,305.289,138.574,303.14"/>
		<path fill="#FFF697" d="M163.606,168.32c4.681,6.113,9.059,13.604,13.135,22.47c11.18,24.012,15.999,48.492,14.457,73.44
			l-4.378,13.217c-2.204,10.355-1.459,19.305,2.23,26.851c-8.812-0.332-18.01-2.646-27.591-6.94
			c-19.11-8.647-30.428-22.938-33.954-42.874c-2.808-15.752-2.092-33.542,2.148-53.367c2.423-11.069,5.617-21.617,9.582-31.64
			c1.322-1.596,2.947-3.222,4.875-4.874c3.855-3.194,7.269-4.736,10.244-4.626C156.336,160.032,159.419,162.813,163.606,168.32"/>
		<path fill="#DDD583" d="M161.87,165.099l-7.353-0.413c-1.982-0.551-3.799-1.652-5.452-3.304l2.066-0.826l4.212,0.082
			C157.327,161.409,159.502,162.895,161.87,165.099"/>
		<path fill="#DDD583" d="M157.327,275.052c11.73,2.424,21.864,1.653,30.4-2.312c-1.156,0.826-1.9,4.681-2.23,11.565
			c-0.386,8.372,0.798,15.091,3.552,20.157c-8.702,0.551-18.285-1.873-28.748-7.27c-16.302-8.37-27.124-22.194-32.466-41.472
			C134.058,265.854,143.889,272.3,157.327,275.052"/>
		<path fill="#922F00" d="M118.005,114.128l3.882,3.387c3.194,2.478,6.361,4.351,9.5,5.617l4.049,0.992
			c-4.076,1.211-7.573,3.166-10.492,5.864C122.025,125.142,119.711,119.855,118.005,114.128"/>
		<path fill="#ED8599" d="M135.435,124.125l26.352,2.561c11.346,0.715,18.477,0.908,21.396,0.578
			c-1.983,4.13-7.765,8.481-17.348,13.053c-10.574,5.122-19.578,6.911-27.014,5.369c-1.157-0.275-2.973-1.734-5.451-4.378
			c-3.03-3.139-5.838-6.912-8.427-11.318C127.862,127.291,131.359,125.335,135.435,124.125"/>
		<path fill="#CE7486" d="M125.439,130.154c-0.386-0.606,1.184-1.818,4.708-3.635l5.369-2.478l30.567,2.561l17.1,0.661
			c-2.037,2.864-5.149,5.645-9.334,8.343c-2.038,1.377-3.91,2.452-5.618,3.222c-4.186-3.69-10.932-6.526-20.24-8.508
			C138.519,128.282,131.002,128.227,125.439,130.154"/>
		<path fill="#FFFFFF" d="M185.414,76.953c-2.698,5.784-4.434,11.73-5.205,17.845c-0.88,6.663-0.495,12.832,1.157,18.504
			c-3.084-0.166-4.765-0.551-5.04-1.156c-1.432-3.746-1.266-9.528,0.496-17.348C178.696,86.426,181.559,80.479,185.414,76.953"/>
		<path fill="#0D131A" d="M192.436,74.144c5.012,0.441,7.6,6.224,7.766,17.348c0.165,9.143-0.551,15.614-2.148,19.414
			c-0.441,1.047-2.589,1.791-6.444,2.231c-3.304,0.331-6.719,0.386-10.243,0.166c-1.652-5.672-2.038-11.841-1.157-18.504
			c0.771-6.114,2.507-12.061,5.205-17.845C187.617,74.86,189.957,73.925,192.436,74.144"/>
		<path fill="#0D131A" d="M120.896,87.61c1.046-4.516,2.368-8.922,3.965-13.218c3.194-8.646,6.196-12.392,9.005-11.235
			c2.587,1.102,2.45,7.38-0.414,18.835c-2.919,11.455-5.507,16.824-7.765,16.108c-1.598-0.55-2.864-2.45-3.801-5.699L120.896,87.61"
			/>
		<path fill="#FFFFFF" d="M114.617,111.32c0.606,1.376,2.975,3.276,7.104,5.7c-2.147,1.983-3.663,2.836-4.543,2.561
			C116.352,119.305,115.499,116.551,114.617,111.32"/>
		<path fill="#FFFFFF" d="M125.274,130.484l1.983-0.496l2.313,0.249c0.33,0.55,0.028,2.203-0.909,4.957L125.274,130.484"/>
		<path fill="#FFFFFF" d="M154.022,144.776l0.578-2.643c0.496-1.763,1.048-2.699,1.653-2.809c0.991-0.11,2.121,0.937,3.387,3.139
			L154.022,144.776"/>
		<path fill="#FFFFFF" d="M155.923,126.024l10.078,0.743c-2.974,3.58-5.039,5.37-6.196,5.37
			C158.594,132.137,157.3,130.1,155.923,126.024"/>
		<path fill="#FFFFFF" d="M131.883,332.549c0.661-0.936,1.845-1.899,3.553-2.891l2.313-1.238c1.817,0.329,3.276,1.706,4.379,4.129
			l1.073,3.636c-1.763,1.651-5.04,2.864-9.83,3.635l-7.436,0.249c-0.331-0.331-0.027-1.02,0.91-2.067l1.403-1.569l-8.757,1.239
			l-4.874-0.495c-0.33-0.331,0.083-1.129,1.239-2.396l1.818-1.735l-6.526,0.578c-4.461,0.166-6.801-0.247-7.022-1.239
			c-0.275-0.936,1.569-2.891,5.535-5.864c4.075-3.03,6.746-4.104,8.013-3.223c1.376,0.882,2.45,2.892,3.222,6.03l1.817-1.816
			c1.431-1.212,2.836-1.763,4.213-1.654c1.377,0.11,2.617,1.269,3.717,3.471L131.883,332.549"/>
		<path fill="#EFE908" d="M346.916,178.646l0.909,3.47c0.165,1.652-0.026,3.112-0.577,4.378c-0.386,0.991-0.441,2.092-0.167,3.304
			c0.276,1.322,0.882,2.534,1.818,3.635l0.66-2.726l5.369,5.369l-0.082,4.544l1.571,2.808c0.604,1.046,0.963,2.837,1.073,5.37
			l4.543,2.808l-3.139,5.288c-0.606,0.991-0.937,2.589-0.991,4.791c-0.055,1.103-0.027,2.093,0.082,2.976l7.353-4.462l0.165,1.651
			v2.562c-0.605,3.304-0.496,5.425,0.33,6.362c1.873,2.201,3.001,3.965,3.387,5.286c0.496,1.706,0.193,3.689-0.908,5.948
			c-1.156,2.367-1.762,4.847-1.817,7.434c0,2.26,0.358,3.746,1.075,4.463l-3.719-0.248c-1.432-0.661-2.893-2.01-4.378-4.048
			c-1.322-1.928-3.69-3.332-7.104-4.214l-6.443-1.156c-1.377-0.275-2.892-1.599-4.545-3.966c-1.816-2.589-2.532-4.984-2.146-7.187
			c0.275-1.708,1.127-3.994,2.56-6.856c1.213-2.589,1.817-4.241,1.817-4.958c-0.054-0.714-0.66-2.146-1.817-4.295
			c-1.156-2.038-1.732-3.47-1.732-4.296c0-0.77,0.576-2.561,1.732-5.37c1.157-2.698,1.68-4.351,1.571-4.956l-1.075-3.139
			c-0.605-1.542-0.909-2.754-0.909-3.635s0.44-2.092,1.322-3.635l1.405-2.891c0.108-1.488-0.138-3.443-0.743-5.866
			c-0.883-3.744,0.083-6.967,2.891-9.666l0.082,1.982C346.394,176.995,346.587,178.041,346.916,178.646"/>
		<path fill="#E50020" d="M372.609,181.703c1.651,1.267,2.532,2.892,2.644,4.875c0.166,3.359-0.138,7.076-0.909,11.152l2.81-2.396
			c2.038-1.541,3.304-2.147,3.799-1.816c0.826,0.606,0.469,5.59-1.073,14.952l1.487-1.157c1.047-0.716,1.68-0.909,1.899-0.579
			c0.331,0.496,0.138,4.765-0.577,12.805l6.691-10.986l-0.083,3.305c-0.056,2.368-0.029,3.798,0.083,4.296l0.165,3.553l-0.743,4.377
			c-1.267,3.524-1.708,5.755-1.323,6.692c0.221,0.604,0.166,1.432-0.166,2.477c-0.384,1.212-0.99,2.176-1.815,2.893l-3.719,3.139
			c-1.595,1.486-2.504,2.698-2.727,3.635l-1.32,2.726l-3.305,2.644l-6.939,5.535c-0.661-0.771-0.991-2.257-0.991-4.461
			c0.056-2.588,0.661-5.039,1.817-7.352c1.102-2.259,1.404-4.242,0.908-5.948c-0.386-1.321-1.514-3.085-3.387-5.286
			c-0.826-0.938-0.936-3.059-0.33-6.362v-2.562l-0.165-1.651l-7.353,4.462c-0.109-0.883-0.137-1.873-0.082-2.976
			c0.055-2.202,0.385-3.8,0.991-4.791l3.139-5.288l-4.543-2.808c-0.11-2.533-0.469-4.324-1.073-5.37l-1.571-2.808l0.082-4.544
			l-5.286-5.287c2.204-3.47,3.36-5.755,3.471-6.857l-0.25-4.874c-0.108-2.644,0.387-4.765,1.487-6.361
			c1.047-1.542,3.03-3.8,5.949-6.774l4.543-4.709c0.55-0.826,1.129-2.533,1.736-5.122c0.659-2.919,0.907-5.204,0.742-6.856
			l2.064,4.543c1.378,3.524,1.9,6.554,1.57,9.087l-2.065,9.17c-0.825,3.359-0.88,5.535-0.165,6.526L372.609,181.703"/>
		<path fill="#DBDCDC" d="M119.987,326.932l0.743,2.644l-3.469,3.47l-7.27,0.413l-5.287-0.413c0.716-0.882,3.469-2.175,8.261-3.883
			C115.387,328.335,117.729,327.594,119.987,326.932"/>
		<path fill="#DBDCDC" d="M115.361,338.001c6.113-4.406,11.18-7.131,15.2-8.179l0.744,2.727l-2.974,3.966L115.361,338.001"/>
		<path fill="#DBDCDC" d="M126.513,340.729c1.762-1.212,3.718-2.479,5.865-3.802c4.241-2.642,7.242-4.213,9.005-4.709l0.991,1.819
			c0.55,1.375,0.55,2.395,0,3.056c-0.882,1.157-3.553,2.066-8.013,2.727L126.513,340.729"/>
		<path fill="#EFE908" d="M349.231,190.873l0.909-1.404c0.66,1.432,2.311,3.277,4.955,5.535c0.661,0.551,0.908,1.68,0.742,3.387
			c-0.163,1.708-0.054,2.726,0.332,3.057c0.881,0.771,1.432,1.623,1.652,2.56l0.165,2.974c0,1.321,1.046,2.311,3.139,2.974
			c2.698,0.824,2.81,2.67,0.331,5.534c-0.991,1.047-1.708,2.369-2.146,3.965c-0.331,1.322-0.414,2.479-0.249,3.472l4.709-2.811
			c1.377-1.102,2.147-1.624,2.313-1.569c0.274,0.057,0.468,0.962,0.579,2.726l-0.497,5.123c-0.222,1.928,0.137,3.359,1.073,4.296
			c1.819,1.815,2.892,3.579,3.223,5.286c0.495,2.148-0.084,4.653-1.735,7.518c-0.495,0.938-0.826,2.147-0.991,3.637
			c-0.22,1.87-0.138,3.771,0.247,5.699c0.111,0.716-0.165,1.238-0.825,1.57c-0.717,0.328-1.073,0.274-1.073-0.167l-0.827-4.874
			c-0.221-1.872,0.248-4.074,1.406-6.609c0.99-2.202,1.431-4.02,1.319-5.452c-0.165-1.706-0.991-3.305-2.478-4.792
			c-1.377-1.377-1.9-2.918-1.569-4.624c0.495-2.533,0.578-4.405,0.249-5.618l-3.554,2.313c-1.651,0.991-2.698,1.35-3.139,1.074
			c-0.331-0.275-0.496-1.433-0.496-3.47c-0.109-3.47,0.742-6.252,2.561-8.344c0.605-0.663,0.8-1.213,0.577-1.653
			c-0.219-0.439-1.045-1.073-2.478-1.9c-0.66-0.385-1.073-0.825-1.237-1.32l-0.166-1.9c0-1.599-0.661-3.113-1.983-4.544
			c-0.604-0.605-0.827-1.652-0.661-3.139l-0.166-3.221l-2.063-2.479L349.231,190.873"/>
		<path fill="#FFFFFF" d="M193.427,76.375c1.267,0.22,2.229,1.403,2.892,3.552c0.604,2.203,0.716,4.846,0.33,7.931
			c-0.496,3.689-1.516,6.498-3.057,8.426c-1.267,1.542-2.478,2.203-3.635,1.982c-1.322-0.33-2.312-1.79-2.974-4.378
			c-0.55-2.423-0.633-4.984-0.248-7.683c0.551-3.304,1.514-5.865,2.892-7.683C190.838,76.871,192.105,76.155,193.427,76.375"/>
		<path fill="#FFFFFF" d="M133.534,64.728c0.441,0.055,0.716,1.183,0.827,3.387c0.055,2.147-0.11,4.186-0.495,6.113
			c-0.716,3.304-1.57,5.81-2.561,7.518c-0.882,1.486-1.708,2.148-2.479,1.982c-0.661-0.165-1.074-1.019-1.239-2.561
			c-0.22-1.927,0.11-4.516,0.991-7.765c0.771-2.809,1.652-5.012,2.644-6.609C132.102,65.36,132.875,64.671,133.534,64.728"/>
		<path fill="#007F78" d="M179.714,96.78c1.211-2.093,2.534-3.222,3.965-3.387c-0.496,3.965-0.386,7.188,0.331,9.666
			c0.771,2.478,2.12,3.855,4.048,4.13c1.486,0.221,3-0.44,4.542-1.982c1.817-1.763,3.112-4.351,3.883-7.766
			c1.599,2.038,2.452,4.709,2.561,8.013l-1.817,5.866c-2.368,1.321-5.646,2.065-9.831,2.229l-5.617-0.247
			c-1.322-2.754-2.065-6.334-2.231-10.739L179.714,96.78"/>
		<path fill="#007F78" d="M131.305,83.48c0.605,1.102,0.908,2.203,0.908,3.305l-1.817,5.535c-1.487,3.633-2.947,5.479-4.379,5.534
			c-1.486,0.056-2.726-1.266-3.717-3.965l-1.404-5.452c-0.166-0.772,0.027-2.341,0.578-4.71l0.826-3.304l0.992-0.991l2.148-1.24
			c-0.991,3.085-1.377,5.811-1.156,8.179c0.22,2.093,0.854,3.305,1.9,3.635c0.88,0.33,1.816-0.083,2.808-1.239
			C130.093,87.5,130.864,85.737,131.305,83.48"/>
		<path fill="#0D131A" d="M177.649,37.63c19.44,1.928,32.687,13.246,39.735,33.954c2.919,8.646,4.269,17.926,4.048,27.839
			c-0.166,9.639-1.762,18.422-4.791,26.353c-2.478,6.499-3.993,10.629-4.544,12.392c-1.597,4.791-2.506,8.729-2.727,11.813
			c-0.385,5.948-1.046,8.866-1.981,8.756c-0.882-0.109-1.075-3.111-0.579-9.004c0.496-6.94,2.726-15.173,6.692-24.7
			c2.919-7.05,4.487-15.174,4.708-24.371c0.22-9.417-1.046-18.339-3.799-26.766c-6.609-20.432-18.946-31.557-37.01-33.375
			c-8.041-0.771-16.247,0.386-24.618,3.47c-8.427,3.139-15.091,7.49-19.992,13.053c-1.266,1.432-2.092,2.753-2.478,3.965
			c-0.44,1.376-0.358,2.864,0.248,4.46c0.11,0.332-0.165,0.633-0.825,0.909l-1.157-0.082c-1.432-4.075-0.633-7.793,2.396-11.153
			c5.288-5.948,12.254-10.547,20.901-13.795C160.576,38.044,169.168,36.805,177.649,37.63"/>
		<path fill="#0D131A" d="M196.401,110.163c2.369-6.058,3.14-13.162,2.313-21.313c-0.825-8.427-2.945-12.833-6.36-13.218
			c-3.745-0.44-7.38,2.864-10.905,9.914c-3.799,7.654-5.176,16.19-4.13,25.608c0.606,0.992,3.746,1.35,9.417,1.074
			C192.463,111.953,195.685,111.264,196.401,110.163 M175.088,111.815c-1.487-8.756-0.33-17.485,3.469-26.187
			c3.911-8.868,8.592-13.025,14.043-12.475c5.784,0.55,8.674,6.526,8.674,17.926c0,9.693-1.101,16.495-3.303,20.405
			c-0.936,1.708-4.901,2.671-11.896,2.892C179.081,114.596,175.418,113.743,175.088,111.815"/>
		<path fill="#0D131A" d="M133.039,64.231c-1.652,0-3.91,3.112-6.773,9.335c-2.864,6.279-4.296,11.234-4.296,14.871v0.082
			c0,1.982,0.524,3.91,1.57,5.783c0.937,1.762,1.708,2.561,2.313,2.396c2.258-0.605,4.543-6.168,6.856-16.687
			C135.021,69.491,135.132,64.231,133.039,64.231 M124.778,71.997c3.306-7.16,6.169-10.574,8.593-10.244
			c3.635,0.44,4.157,6.636,1.569,18.587c-2.534,11.896-5.508,18.147-8.923,18.753c-1.211,0.219-2.505-0.992-3.882-3.635
			c-1.322-2.534-2.011-4.902-2.065-7.104C120.014,84.278,121.584,78.826,124.778,71.997"/>
		<path fill="#0D131A" d="M125.521,109.915c-0.495-1.266-0.44-2.12,0.166-2.56c0.605-0.386,1.184,0.082,1.734,1.404l0.414,2.479
			c0.055,0.991-0.056,1.569-0.331,1.734C127.063,113.247,126.403,112.228,125.521,109.915"/>
		<path fill="#0D131A" d="M147.083,114.293c1.377-0.606,2.148-0.496,2.313,0.331c0.166,0.771-0.44,1.514-1.818,2.23
			c-1.928,0.936-3.028,1.266-3.304,0.991c-0.165-0.22,0.056-0.771,0.661-1.652C145.596,115.312,146.312,114.679,147.083,114.293"/>
		<path fill="#0D131A" d="M120.73,85.958c0.275-0.221,0.496,0.083,0.662,0.909c0.165,0.826,0.111,1.349-0.166,1.57
			c-6.443,5.893-9.996,11.455-10.657,16.686c-0.881,6.555,2.534,15.917,10.244,28.088c7.655,12.116,14.456,19.027,20.404,20.734
			c2.644,0.716,6.636,0.716,11.979,0c5.287-0.771,10.739-2.092,16.356-3.965c3.8-1.267,5.783-1.542,5.948-0.826
			c0.221,0.66-1.597,1.708-5.452,3.14c-5.727,2.146-11.593,3.606-17.597,4.377c-5.342,0.606-9.307,0.55-11.895-0.166
			c-6.279-1.762-13.494-8.895-21.644-21.396c-8.427-12.833-12.172-23.076-11.235-30.731c0.44-3.029,1.845-6.196,4.213-9.5
			C114.204,91.52,117.151,88.547,120.73,85.958"/>
		<path fill="#0D131A" d="M186.406,70.509c-1.817,1.377-3.112,2.479-3.882,3.305c-0.937,1.046-1.763,2.341-2.478,3.882
			c-0.772,1.818-1.543,2.644-2.314,2.478c-0.771-0.22-0.798-1.294-0.082-3.222c1.266-3.25,3.579-5.783,6.939-7.6
			c1.652-0.827,2.671-1.074,3.057-0.743C187.975,68.995,187.562,69.629,186.406,70.509"/>
		<path fill="#0D131A" d="M136.261,60.018c-0.496-1.157-0.551-1.845-0.166-2.064c0.385-0.221,0.936,0.165,1.652,1.156
			c1.872,2.368,2.644,5.535,2.312,9.5c-0.165,1.872-0.66,2.753-1.487,2.643c-0.826-0.055-1.156-0.991-0.992-2.808
			C137.803,65.305,137.362,62.496,136.261,60.018"/>
		<path fill="#0D131A" d="M111.148,104.71c0.385-2.093,0.771-3.139,1.156-3.139c0.441,0.055,0.634,1.156,0.579,3.304
			c0,1.763,0.496,3.222,1.487,4.379c1.761,1.982,4.652,4.488,8.674,7.517c3.965,2.974,6.774,4.763,8.426,5.369
			c2.644,0.937,10.685,1.928,24.122,2.974l25.031,1.156c1.432-0.055,2.561-0.302,3.387-0.743l2.644-2.313
			c1.267-1.321,2.038-1.79,2.312-1.404c0.332,0.33,0.028,1.267-0.908,2.809c-0.772,1.267-1.68,2.203-2.727,2.809
			c-1.101,0.605-2.506,0.936-4.213,0.991l-24.534-1.156c-14.1-0.992-22.746-2.065-25.941-3.222
			c-1.817-0.606-4.956-2.588-9.417-5.949c-4.461-3.359-7.379-5.919-8.757-7.682c-0.496-0.661-0.88-1.542-1.156-2.644
			C111.037,106.611,110.982,105.591,111.148,104.71"/>
		<path fill="#0D131A" d="M119.408,118.424l1.321,0.083c2.148,5.947,5.398,11.73,9.749,17.348c4.02,5.176,7.242,8.096,9.666,8.756
			c4.956,1.322,11.896,0.192,20.817-3.387c9.252-3.745,16.412-8.564,21.479-14.457l1.57-0.082c0.771,0.165,1.046,0.358,0.826,0.578
			c-5.067,6.444-12.612,11.786-22.635,16.026c-9.692,4.076-17.266,5.37-22.717,3.883c-2.864-0.772-6.471-3.966-10.822-9.583
			c-4.571-5.838-8.013-11.924-10.327-18.257C118.28,119.002,118.638,118.699,119.408,118.424"/>
		<path fill="#0D131A" d="M113.874,111.733c0-0.332,0.386-0.496,1.157-0.496c0.716,0,1.073,0.164,1.073,0.496
			c0,0.66,0.193,1.927,0.579,3.8c0.386,2.037,0.716,3.083,0.992,3.138c0.331,0.056,0.853-0.192,1.569-0.744l1.404-1.487l1.569,1.57
			l-2.726,1.9l-2.312,0.744c-0.606-0.22-1.322-1.488-2.148-3.8C114.26,114.651,113.874,112.944,113.874,111.733"/>
		<path fill="#0D131A" d="M165.918,126.52c0.606,0.385,0.827,0.716,0.661,0.991l-3.386,3.553c-1.652,1.266-2.864,1.899-3.635,1.899
			c-0.661,0-1.543-0.771-2.644-2.312c-1.157-1.542-1.901-2.919-2.23-4.131c-0.056-0.33,0.275-0.579,0.991-0.743
			c0.771-0.166,1.184-0.082,1.239,0.248l1.321,3.222c0.662,1.212,1.129,1.818,1.405,1.818c0.44,0.055,1.295-0.496,2.561-1.652
			l2.561-3.057L165.918,126.52"/>
		<path fill="#0D131A" d="M125.108,130.65c-0.275-0.496-0.248-0.799,0.083-0.909l2.561-0.496c1.267-0.055,2.065,0.082,2.396,0.413
			c0.331,0.33,0.358,1.267,0.083,2.809c-0.22,1.487-0.524,2.533-0.909,3.139c-0.275,0.386-0.798,0.083-1.57-0.908l1.074-2.644
			l0.165-1.404c-0.275-0.275-1.267-0.083-2.974,0.578C125.687,131.339,125.384,131.146,125.108,130.65"/>
		<path fill="#0D131A" d="M155.923,138.498c0.441-0.11,1.101,0.249,1.982,1.074l2.478,2.727c0.22,0.275,0.083,0.578-0.413,0.908
			c-0.441,0.275-0.771,0.275-0.992,0c-1.322-2.093-2.23-3.083-2.726-2.973c-0.275,0.054-0.55,0.633-0.826,1.734l-0.331,2.644
			c0,0.33-0.303,0.496-0.909,0.496c-0.605,0-0.908-0.193-0.908-0.579c0-0.881,0.275-2.037,0.825-3.469
			C154.766,139.461,155.372,138.608,155.923,138.498"/>
		<path fill="#0D131A" d="M143.118,155.516c0.275-0.166,0.605,0.193,0.991,1.073l0.248,1.487
			c-6.664,4.792-12.171,9.969-16.521,15.531c-4.187,5.342-9.501,13.851-15.944,25.526c-2.975,3.305-4.958,6.389-5.948,9.251
			c-0.826,2.259-0.854,3.665-0.083,4.214c1.047,0.827,3.772,0.523,8.179-0.909l1.156-0.083l0.166,1.569
			c0,3.91,0.579,6.032,1.734,6.362c0.827,0.221,2.286-0.688,4.378-2.726c2.148-1.982,4.021-4.214,5.618-6.691
			c0.33,0.219,0.55,0.604,0.661,1.155l-0.165,1.488c-0.936,1.871-2.616,3.938-5.039,6.196c-2.754,2.533-4.765,3.58-6.031,3.139
			c-2.203-0.605-3.277-3.305-3.222-8.097c-2.203,0.882-4.296,1.351-6.279,1.405c-1.873,0.055-3.111-0.249-3.718-0.909
			c-0.88-0.937-0.936-2.727-0.164-5.369c0.991-3.415,3.276-7.187,6.856-11.317c6.113-11.731,11.813-20.818,17.101-27.262
			C131.497,165.099,136.839,160.087,143.118,155.516"/>
		<path fill="#0D131A" d="M112.552,203.1c-1.763,2.587-2.368,4.185-1.817,4.791c0.55,0.495,2.285,0.249,5.205-0.743
			c1.652-0.717,2.587-0.826,2.808-0.331c0.166,0.551-0.55,1.186-2.148,1.9c-3.965,1.818-6.691,2.313-8.178,1.487
			c-1.708-0.992-0.826-3.745,2.643-8.26c1.157-1.488,1.956-2.065,2.396-1.735C113.956,200.484,113.654,201.448,112.552,203.1"/>
		<path fill="#0D131A" d="M143.448,155.681l1.322,0.165c0.716,0.44,0.992,0.799,0.826,1.074
			c-14.814,33.705-20.68,63.389-17.597,89.053c4.021,33.98,24.371,53.256,61.05,57.827c0.33,0.056,0.605,0.497,0.826,1.32
			c0.275,0.883,0.22,1.295-0.165,1.24c-39.102-4.405-60.746-24.177-64.932-59.314C121.694,220.833,127.917,190.377,143.448,155.681"
			/>
		<path fill="#0D131A" d="M136.426,173.359c2.093-4.515,4.653-8.068,7.683-10.657c2.974-2.533,6.003-3.799,9.087-3.799
			c4.13,0,8.784,3.717,13.961,11.152c4.902,6.995,9.5,16.109,13.796,27.344c9.968,26.159,13.604,48.464,10.904,66.914l-1.403,2.313
			l-1.24,1.237c2.81-20.101-0.936-43.26-11.234-69.474c-4.131-10.574-8.537-19.331-13.218-26.27
			c-4.736-6.995-8.591-10.492-11.565-10.492c-2.148,0-4.655,1.157-7.518,3.47c-3.47,2.809-6.306,6.609-8.509,11.4
			c-0.164,0.33-0.357-0.028-0.578-1.074C136.316,174.323,136.261,173.635,136.426,173.359"/>
		<path fill="#0D131A" d="M207.471,149.072c-0.056-0.386,0.302-1.735,1.074-4.048c0.825-2.257,1.267-3.221,1.322-2.891
			c3.359,24.012,6.554,41.883,9.583,53.613c4.021,15.917,9.5,29.464,16.439,40.644c11.29,18.175,15.503,35.083,12.64,50.723
			c-0.606,3.195-2.313,9.253-5.121,18.176c-2.313,7.213-3.553,13.161-3.718,17.843c-0.166,4.405-0.689,6.498-1.569,6.278
			c-0.827-0.221-1.13-2.589-0.908-7.104c0.329-5.177,1.568-11.428,3.716-18.753c2.534-8.479,4.049-14.318,4.543-17.513
			c2.204-14.375-2.229-30.869-13.299-49.483c-6.884-11.566-12.061-24.507-15.531-38.827
			C215.815,194.425,212.758,178.207,207.471,149.072"/>
		<path fill="#0D131A" d="M201.028,320.901c0.991,0.496,1.542,0.909,1.652,1.239c1.487,3.799,2.175,9.362,2.064,16.687
			c-0.055,6.829,0.303,10.822,1.074,11.979c1.323,1.982,3.91,3.552,7.765,4.709c3.855,1.156,7.903,1.598,12.144,1.32
			c10.85-0.66,17.183-5.094,19.001-13.3c0.44-2.038-0.577-5.976-3.058-11.813c-2.644-6.278-3.992-9.721-4.047-10.325
			c-0.056-0.332,0.191-0.991,0.742-1.983c0.497-0.99,0.772-1.295,0.826-0.909c0.167,1.928,1.735,6.087,4.709,12.475
			c2.644,5.783,3.773,10.078,3.388,12.889c-1.268,9.031-8.122,14.043-20.57,15.034c-4.957,0.384-9.693-0.057-14.208-1.322
			c-4.517-1.268-7.574-3.027-9.171-5.286c-1.266-1.872-1.679-6.609-1.239-14.209c0.442-7.876-0.33-13.687-2.312-17.431
			L201.028,320.901"/>
		<path fill="#0D131A" d="M191.197,261.586c2.038-3.688,3.361-5.342,3.965-4.956c0.551,0.441-0.109,2.59-1.983,6.445
			c-5.176,10.739-6.939,21.147-5.287,31.226c1.652,10.134,6.719,19.193,15.2,27.179c3.028,2.864,4.296,4.6,3.8,5.205
			c-0.439,0.604-2.203-0.469-5.286-3.224c-9.363-8.261-15.035-17.512-17.018-27.756C182.495,284.8,184.698,273.429,191.197,261.586"
			/>
		<path fill="#0D131A" d="M132.13,268.526c0.276-0.166,0.688,0.192,1.24,1.073c0.496,0.828,0.605,1.351,0.33,1.569
			c-4.021,2.863-7.684,7.188-10.987,12.972c-3.525,6.058-5.122,11.316-4.792,15.778c0.275,3.469,1.817,6.939,4.626,10.407
			c2.698,3.415,6.03,6.06,9.995,7.933c3.415,1.651,4.958,2.752,4.626,3.303c-0.275,0.606-2.285,0.14-6.03-1.403
			c-4.46-1.871-8.207-4.682-11.235-8.426c-3.084-3.747-4.764-7.629-5.039-11.649c-0.441-5.673,1.404-11.839,5.535-18.504
			C123.869,275.961,127.779,271.611,132.13,268.526"/>
		<path fill="#0D131A" d="M167.9,313.053c-0.22-0.275,0.028-0.66,0.744-1.157c0.662-0.495,1.102-0.604,1.322-0.328
			c1.873,2.643,3.194,5.259,3.965,7.847c0.771,2.7,0.827,4.901,0.166,6.61c-0.661,1.87-4.212,4.073-10.657,6.607
			c-6.884,2.754-13.741,4.46-20.57,5.122c-0.385,0.056-0.606-0.33-0.661-1.157c-0.11-0.824,0.027-1.265,0.414-1.321
			c6.664-0.661,13.025-2.23,19.083-4.709c5.453-2.258,8.674-4.324,9.666-6.196c0.496-0.99,0.44-2.532-0.166-4.625
			C170.544,317.486,169.443,315.256,167.9,313.053"/>
		<path fill="#0D131A" d="M126.1,315.614c0.33-0.11,0.771,0.221,1.321,0.991c0.551,0.771,0.662,1.185,0.331,1.239
			c-1.487,0.551-3.36,1.433-5.617,2.644c-2.258,1.267-3.993,2.368-5.205,3.305l-1.57-0.25c-0.771-0.383-1.019-0.687-0.744-0.906
			c1.432-1.157,3.25-2.451,5.453-3.883C122.548,317.211,124.558,316.165,126.1,315.614"/>
		<path fill="#0D131A" d="M168.148,316.358c-1.156,2.643-2.01,3.855-2.56,3.634c-0.552-0.22-0.441-1.705,0.33-4.461
			c0.882-2.973,2.478-5.782,4.791-8.426c2.204-2.699,4.269-4.269,6.197-4.709c0.33-0.054,0.935,0.221,1.816,0.825
			c0.882,0.607,1.157,0.937,0.826,0.992c-1.431,0.33-3.331,1.68-5.699,4.048C171.26,310.905,169.36,313.604,168.148,316.358"/>
		<path fill="#0D131A" d="M120.317,324.453c0.826,1.377,1.376,2.945,1.652,4.709c0.056,0.331-0.275,0.55-0.991,0.66
			c-0.716,0.057-1.128-0.082-1.239-0.412l-1.239-3.305c-0.716-1.101-1.294-1.652-1.735-1.652c-1.652-0.055-3.882,0.991-6.691,3.141
			c-2.753,2.036-4.02,3.413-3.8,4.129c0.22,0.552,1.625,0.799,4.213,0.745l6.939-0.745c0.33-0.056,0.579,0.276,0.743,0.991
			c0.165,0.717,0.083,1.103-0.248,1.157l-11.069,0.578c-2.479-0.275-3.773-0.743-3.883-1.404c-0.22-1.432,1.598-3.661,5.452-6.691
			c3.8-3.029,6.664-4.516,8.592-4.462C118.225,321.948,119.326,322.802,120.317,324.453"/>
		<path fill="#0D131A" d="M130.313,332.88c-0.055-1.432-0.414-2.754-1.073-3.965c-0.772-1.267-1.57-1.845-2.396-1.735
			c-1.488,0.219-3.691,1.707-6.61,4.46c-2.864,2.646-4.185,4.27-3.965,4.875c0.166,0.495,1.817,0.495,4.957,0l7.353-1.569
			c0.33-0.11,0.496,0.191,0.496,0.909c0,0.771-0.166,1.184-0.496,1.238c-2.699,0.881-5.783,1.46-9.252,1.734
			c-3.58,0.275-5.562,0.028-5.948-0.742c-0.55-1.158,0.909-3.554,4.378-7.187c3.47-3.747,6.388-5.783,8.757-6.114
			c1.486-0.221,2.809,0.495,3.966,2.147c1.211,1.652,1.844,3.635,1.899,5.948c0,0.328-0.331,0.496-0.992,0.496
			C130.671,333.376,130.313,333.208,130.313,332.88"/>
		<path fill="#0D131A" d="M124.613,341.223c-0.606-0.991,0.826-3.469,4.295-7.434c3.525-4.021,6.333-6.114,8.427-6.278
			c1.542-0.166,3.139,0.991,4.792,3.469c1.652,2.369,2.257,4.353,1.816,5.947c-0.386,1.487-3.635,2.755-9.748,3.802L124.613,341.223
			 M127.422,339.487l6.774-0.742c4.405-0.936,6.746-1.818,7.021-2.645c0.331-0.935,0.055-2.201-0.826-3.799
			c-0.882-1.598-1.818-2.368-2.81-2.313c-1.376,0.109-3.496,1.625-6.36,4.543C128.468,337.285,127.201,338.937,127.422,339.487"/>
		<path fill="#0D131A" d="M357.822,249.113c0.11-0.33,0.552-0.33,1.32,0c0.772,0.329,1.103,0.66,0.991,0.991
			c-6.057,14.374-14.317,25.72-24.782,34.036c-9.416,7.434-19.99,11.951-31.724,13.547c-10.848,1.487-21.422,0.331-31.72-3.469
			c-10.188-3.745-18.532-9.474-25.03-17.185c-0.222-0.274-0.14-1.046,0.247-2.311c0.44-1.268,0.771-1.764,0.991-1.488
			c7.049,8.371,15.695,14.429,25.938,18.173c10.079,3.746,20.406,4.766,30.979,3.057c11.014-1.815,20.983-6.36,29.904-13.63
			C344.686,272.906,352.313,262.33,357.822,249.113"/>
		<path fill="#0D131A" d="M365.093,254.316c0.054-0.33,0.494-0.44,1.319-0.33c0.826,0.111,1.213,0.33,1.158,0.662
			c-2.314,19.109-9.089,34.998-20.322,47.666c-9.805,11.013-22.223,18.834-37.258,23.461c-13.492,4.076-27.013,5.066-40.562,2.974
			c-13.163-2.038-23.242-6.525-30.236-13.467c-0.219-0.219-0.11-0.879,0.331-1.98c0.44-1.103,0.771-1.544,0.991-1.322
			c6.554,6.554,16.19,10.932,28.914,13.136c13.162,2.312,26.269,1.65,39.321-1.983c14.648-4.076,26.766-11.399,36.349-21.975
			C356.115,288.985,362.779,273.372,365.093,254.316"/>
		<path fill="#0D131A" d="M363.274,269.188l-0.248,4.131c-5.288,14.374-13.74,25.856-25.36,34.447
			c-10.189,7.601-22.03,12.448-35.524,14.54c-12.28,1.928-24.094,1.35-35.439-1.735c-11.179-2.975-19.549-7.737-25.112-14.291
			c-0.221-0.275-0.11-0.854,0.33-1.735c0.441-0.824,0.771-1.101,0.991-0.824c5.508,6.443,13.824,11.179,24.949,14.207
			c11.345,3.03,23.13,3.553,35.356,1.569c13.438-2.146,25.196-7.104,35.276-14.87C349.946,295.76,358.206,283.948,363.274,269.188"
			/>
		<path fill="#0D131A" d="M380.208,197.729v-2.561c-0.166-0.331-0.744-0.111-1.735,0.662c-2.697,2.257-4.241,3.221-4.624,2.89
			c-0.332-0.275-0.332-2.01,0-5.204c0.659-6.829-0.772-11.07-4.297-12.722c-1.486-0.661-2.286-1.68-2.396-3.056
			c-0.109-1.047,0.22-3.359,0.992-6.939c0.881-4.241,1.321-7.435,1.321-9.583c0-2.258-0.44-5.122-1.321-8.591
			c-0.441,3.029-0.964,5.342-1.569,6.939c-0.607,1.597-1.433,2.835-2.481,3.717c-4.073,3.525-6.883,6.526-8.424,9.004
			c-1.323,2.148-1.9,4.378-1.735,6.692c0.22,2.202,0.193,3.883-0.083,5.039l-1.486,3.221l-1.405,2.231
			c-0.44,0.825-0.743,1.873-0.909,3.139c-0.274,1.872-0.578,2.836-0.906,2.891c-0.277,0.055-0.938-0.716-1.985-2.313
			c-1.101-1.597-1.237-4.103-0.41-7.518c0.439-1.651,0.301-3.442-0.415-5.369c-0.717-1.872-0.88-3.387-0.494-4.543
			c-0.772,0.716-1.351,2.01-1.735,3.882c-0.386,2.038-0.248,3.801,0.412,5.288c0.606,1.322,0.715,2.974,0.332,4.957l-0.992,2.974
			c-0.717,1.377-1.075,2.616-1.075,3.717l0.663,2.975c0.66,2.093,0.797,3.689,0.412,4.791c-1.598,3.801-2.396,6.442-2.396,7.93
			c0,1.213,0.578,2.7,1.733,4.463c1.158,1.706,1.682,3.275,1.57,4.708l-1.403,4.377l-1.652,3.223
			c-0.497,1.213-0.771,2.506-0.827,3.884c-0.11,2.258,0.524,4.459,1.899,6.608c1.378,2.313,3.059,3.688,5.04,4.13l7.766,2.23
			c2.146,0.882,3.992,2.204,5.534,3.965c1.653,1.764,3.085,2.727,4.296,2.893c1.322,0.221,2.754-0.469,4.296-2.065
			c1.487-1.597,3.113-2.836,4.874-3.718c1.321-0.605,2.396-1.982,3.222-4.13c0.826-2.204,1.651-3.524,2.479-3.967
			c2.146-1.211,3.69-2.339,4.624-3.386c1.323-1.488,1.873-3.222,1.652-5.204c-0.163-1.212,0.111-3.085,0.828-5.617
			c0.716-2.534,1.019-4.408,0.906-5.619v-4.625c0.167-1.764,0.414-3.168,0.744-4.214l-1.981,3.882l-2.561,4.628
			c-1.267,2.478-2.149,3.688-2.644,3.634c-0.496,0-0.634-1.265-0.415-3.8l0.663-5.121l0.412-4.957
			c-1.652,1.321-2.726,1.871-3.222,1.652c-0.44-0.221-0.577-1.185-0.412-2.892L380.208,197.729 M371.368,157.829l0.413,5.37
			c-0.054,1.487-0.742,4.709-2.064,9.666c-0.882,3.14-0.605,5.04,0.826,5.7c2.974,1.322,4.792,3.442,5.452,6.361
			c0.66,2.533,0.496,6.141-0.495,10.821c3.524-3.525,5.646-4.571,6.361-3.139c0.826,1.487,0.467,6.306-1.075,14.457
			c1.707-1.432,2.782-1.736,3.224-0.91c0.605,1.047,0.495,4.075-0.331,9.088l2.561-3.637l1.652-3.222
			c0.88-2.256,1.487-3.414,1.815-3.468c0.441,0,0.691,1.293,0.745,3.882l-0.33,4.627c-0.11,2.092,0.026,3.8,0.413,5.121
			c0.495,1.543,0.221,3.662-0.828,6.362c-1.101,2.752-1.458,4.733-1.072,5.946c0.717,2.479-0.138,4.655-2.561,6.525
			c-3.359,2.535-5.315,4.407-5.866,5.619l-1.485,3.306c-0.827,1.376-1.764,2.284-2.811,2.724c-2.092,0.882-3.69,1.929-4.791,3.141
			c-2.643,2.699-4.682,3.965-6.113,3.801c-1.21-0.11-3.111-1.598-5.698-4.462c-3.141-3.525-7.409-5.618-12.806-6.278
			c-2.202-0.275-4.159-1.652-5.866-4.131c-1.596-2.313-2.478-4.709-2.644-7.187c-0.165-1.707,0.552-4.076,2.148-7.104
			c1.597-2.975,2.368-4.846,2.314-5.618c-0.056-0.991-0.441-1.899-1.158-2.727l-1.652-2.064c-1.101-2.093-0.468-6.142,1.9-12.145
			c0.66-1.541,0.632-3.027-0.082-4.459c-0.827-1.708-1.24-3.084-1.24-4.131c0.056-0.936,0.523-2.258,1.404-3.966l1.156-2.809
			c0.222-1.156,0.166-2.506-0.165-4.048c-0.604-2.698-0.577-5.039,0.083-7.021c0.386-1.046,1.268-2.617,2.644-4.709
			c0.825-1.267,1.349-1.873,1.569-1.817c0.276,0.055,0.441,0.854,0.497,2.396l-0.083,2.313c0.055,1.376,0.386,2.835,0.991,4.378
			c0.661,1.762,0.605,3.855-0.164,6.279c-0.498,1.432-0.415,2.973,0.247,4.626l2.642-5.122c0.717-1.268,1.049-2.562,0.992-3.883
			l-0.329-3.552c0-4.186,1.154-7.517,3.468-9.997c1.378-1.542,4.021-3.91,7.931-7.104c1.543-1.873,2.508-4.983,2.892-9.334
			c0.44-3.911,0.826-5.895,1.157-5.949c0.44-0.11,1.404,1.873,2.892,5.949C370.599,153.781,371.039,155.626,371.368,157.829"/>
		<path fill="#0D131A" d="M185.414,76.788l1.569-0.249c0.716,0.056,0.963,0.22,0.743,0.496c-3.58,3.911-5.783,10.134-6.609,18.671
			c-0.771,7.876-0.165,13.658,1.818,17.348c0.165,0.332-0.083,0.606-0.744,0.827l-1.239-0.165
			c-2.313-4.46-3.001-10.766-2.065-18.917C179.825,86.537,182,80.534,185.414,76.788"/>
		<path fill="#0D131A" d="M136.51,123.546c0.385,0,0.964,0.275,1.734,0.826s0.991,0.826,0.66,0.827
			c-2.257,0.165-4.681,0.798-7.27,1.899c-2.312,1.047-4.323,2.258-6.031,3.635c-0.22,0.221-0.523,0.055-0.908-0.495
			c-0.386-0.551-0.469-0.937-0.248-1.156C128.524,125.721,132.543,123.876,136.51,123.546"/>
		<path fill="#FFFFFF" d="M205.405,352.54c0.333-1.155,1.048-2.202,2.148-3.138c1.322-1.047,2.617-1.379,3.884-0.992
			c1.708,0.551,3.002,1.733,3.881,3.553c0.772,1.598,0.992,2.973,0.662,4.131c-0.551,1.873-1.956,4.241-4.213,7.104
			c-2.203,2.699-3.662,4.075-4.378,4.132c-0.882,0.054-1.57-1.955-2.065-6.031C204.828,357.276,204.855,354.358,205.405,352.54"/>
		<path fill="#FFFFFF" d="M222.175,355.516c-0.219-1.598-0.082-3.002,0.414-4.214c0.606-1.486,1.679-2.396,3.223-2.726
			c2.973-0.553,5.066,0.576,6.276,3.387c0.717,1.707,0.882,4.682,0.497,8.922c-0.386,4.185-0.964,6.444-1.735,6.773
			c-0.771,0.331-2.23-0.743-4.378-3.222C224.104,361.683,222.672,358.708,222.175,355.516"/>
		<path fill="#FFFFFF" d="M238.037,353.78c0.386-3.579,1.486-6.223,3.304-7.93c1.707-1.599,3.167-1.708,4.379-0.331
			c1.103,1.267,2.12,4.46,3.057,9.583c0.99,5.01,1.184,7.656,0.578,7.931c-0.716,0.33-2.81-0.937-6.278-3.801
			C239.607,356.368,237.927,354.553,238.037,353.78"/>
		<path fill="#EF8200" d="M193.096,156.589l18.753,29.162c-2.423,8.647-7.765,17.292-16.026,25.938
			c-2.919,3.031-7.353,6.914-13.3,11.648l-6.774,5.948c-2.809,2.312-4.681,3.304-5.617,2.975c-0.826-0.222-1.542-1.899-2.148-5.039
			l-0.661-4.627l-4.212,2.643c-2.975,1.599-4.847,2.01-5.619,1.241c-0.716-0.717-0.853-2.424-0.412-5.122l0.825-3.801
			c-4.076,0-6.086-0.633-6.03-1.901c0.054-0.879,1.102-2.174,3.138-3.882c2.534-2.146,4.269-3.911,5.205-5.286
			c2.258-10.96,8.426-22.553,18.504-34.779C183.735,165.594,188.526,160.556,193.096,156.589"/>
		<path fill="#CF7100" d="M170.544,232.095c3.139-5.839,5.507-9.721,7.105-11.648l15.696-14.291
			c8.426-7.545,14.291-14.153,17.594-19.826c-0.66,5.673-4.267,12.667-10.82,20.983c-6.06,7.709-11.483,12.778-16.275,15.201
			C176.795,228.185,172.363,231.379,170.544,232.095"/>
		<path fill="#DBDCDC" d="M214.08,350.144c2.092,3.14,2.038,6.747-0.165,10.823c-1.874,3.47-3.801,5.508-5.784,6.112l4.213-9.168
			C213.611,354.44,214.19,351.854,214.08,350.144"/>
		<path fill="#DBDCDC" d="M223.663,350.062l2.064,8.015c0.881,3.193,1.901,6.084,3.057,8.674c-0.99,0.22-2.285-0.99-3.882-3.636
			c-1.652-2.697-2.59-5.232-2.809-7.599c-0.164-2.039,0.055-3.553,0.661-4.545L223.663,350.062"/>
		<path fill="#DBDCDC" d="M239.36,349.567l4.294,5.7c2.92,4.019,4.462,6.691,4.628,8.014l-4.874-3.554
			c-3.25-2.697-4.876-4.734-4.876-6.112c0-1.377,0.139-2.451,0.414-3.222L239.36,349.567"/>
		<path fill="#0D131A" d="M210.94,349.733c-2.092-0.166-3.468,0.632-4.13,2.396c-0.662,1.651-0.799,4.351-0.413,8.095
			c0.275,3.525,0.688,5.396,1.239,5.617c0.551,0.221,1.762-0.964,3.636-3.551c1.872-2.645,2.974-4.792,3.304-6.446
			c0.219-1.319-0.028-2.614-0.744-3.881C213.116,350.642,212.153,349.897,210.94,349.733 M211.437,347.666
			c1.817,0.441,3.25,1.571,4.295,3.388c0.937,1.598,1.322,3.276,1.157,5.04c-0.22,1.651-1.652,4.184-4.296,7.599
			c-2.643,3.416-4.46,5.067-5.451,4.957c-1.211-0.054-2.12-2.505-2.727-7.352c-0.551-4.791-0.469-8.151,0.248-10.078
			c0.44-1.158,1.349-2.121,2.727-2.892C208.82,347.558,210.17,347.337,211.437,347.666"/>
		<path fill="#0D131A" d="M230.768,352.129c-0.387-0.881-1.02-1.544-1.901-1.985c-0.826-0.438-1.679-0.576-2.56-0.41
			c-0.771,0.164-1.46,0.632-2.065,1.404c-0.716,0.879-1.047,1.87-0.992,2.974c0.055,2.643,1.13,5.479,3.222,8.508
			c1.873,2.699,3.112,3.938,3.717,3.719c0.551-0.166,0.991-2.038,1.321-5.619C231.95,356.863,231.703,354,230.768,352.129
			 M229.777,347.998c1.266,0.66,2.229,1.681,2.89,3.056c0.938,2.039,1.158,5.48,0.662,10.327c-0.497,4.736-1.266,7.242-2.313,7.518
			c-1.432,0.385-3.497-1.378-6.195-5.288c-2.754-3.965-4.077-7.188-3.967-9.665c0.111-1.488,0.579-2.837,1.406-4.048
			c0.935-1.377,2.148-2.203,3.633-2.478C227.271,347.144,228.564,347.337,229.777,347.998"/>
		<path fill="#0D131A" d="M239.607,353.366c0.055,1.269,1.459,3.002,4.213,5.205c2.589,2.147,4.049,3.111,4.378,2.893
			c0.441-0.386,0.221-2.781-0.659-7.188c-0.938-4.683-2.067-7.435-3.387-8.261c-1.268-0.109-2.37,0.717-3.307,2.478
			C239.908,350.09,239.496,351.714,239.607,353.366 M237.293,353.532c-0.165-2.147,0.551-4.38,2.148-6.691
			c1.652-2.479,3.387-3.553,5.204-3.223c1.983,0.441,3.608,3.939,4.874,10.493c1.266,6.442,1.348,9.939,0.247,10.49
			c-0.716,0.386-2.918-0.937-6.608-3.965C239.36,357.498,237.405,355.13,237.293,353.532"/>
		<path fill="#0D131A" d="M187.81,159.646c2.863-2.203,4.516-3.14,4.957-2.809c0.497,0.385-0.55,1.817-3.139,4.295
			c-6.388,6.169-12.005,12.998-16.853,20.488c-5.452,8.372-9.198,16.439-11.234,24.205c-0.386,1.322-1.239,2.727-2.562,4.212
			l-3.635,3.307c-1.321,1.101-1.762,1.872-1.321,2.311c0.44,0.442,1.846,0.662,4.212,0.662c0.332,0,0.468,0.387,0.414,1.156
			c-0.055,0.771-0.248,1.157-0.579,1.157c-3.084,0-5.314-0.44-6.692-1.321c-1.872-1.269-1.239-3.195,1.901-5.783l4.048-3.469
			c0.936-0.938,1.514-1.901,1.735-2.893c2.312-8.592,6.002-16.962,11.069-25.114C175.418,171.515,181.311,164.713,187.81,159.646"/>
		<path fill="#0D131A" d="M207.967,190.873c1.541-3.855,2.562-5.644,3.057-5.369c0.551,0.275,0.165,2.451-1.157,6.526
			c-1.982,6.279-5.315,12.253-9.996,17.926c-4.351,5.342-9.198,9.638-14.54,12.886c-1.046,0.662-3.579,2.811-7.6,6.444
			c-3.91,3.195-6.664,4.544-8.261,4.048c-0.88-0.275-1.652-1.321-2.312-3.138c-0.661-1.819-0.964-3.718-0.91-5.701
			c-2.146,1.542-4.24,2.533-6.277,2.974l-3.552-0.164c-0.716-0.607-0.937-1.984-0.662-4.131c0.275-2.092,0.937-4.159,1.983-6.196
			c1.487-2.864,2.534-4.185,3.139-3.966c0.606,0.164,0.248,1.791-1.074,4.874c-1.598,3.746-2.01,6.004-1.239,6.775l3.056-0.497
			c1.652-0.605,3.25-1.404,4.792-2.396c0.771-0.496,1.266-0.687,1.486-0.578c0.276,0.056,0.441,0.523,0.496,1.404
			c0.331,4.847,1.047,7.435,2.148,7.767c0.937,0.274,2.946-0.909,6.03-3.553l7.765-6.362c4.352-2.697,8.757-6.773,13.219-12.226
			C202.184,202.548,205.653,196.765,207.967,190.873"/>
	</g>
</g>
</svg>
