<?xml version="1.0" encoding="utf-8"?>
<!-- Generator: Adobe Illustrator 16.0.0, SVG Export Plug-In . SVG Version: 6.00 Build 0)  -->
<!DOCTYPE svg PUBLIC "-//W3C//DTD SVG 1.1//EN" "http://www.w3.org/Graphics/SVG/1.1/DTD/svg11.dtd">
<svg version="1.1" id="Layer_1" xmlns="http://www.w3.org/2000/svg" xmlns:xlink="http://www.w3.org/1999/xlink" x="0px" y="0px"
	 width="456px" height="415px" viewBox="0 0 456 415" enable-background="new 0 0 456 415" xml:space="preserve">
<g>
	<path fill="#0D131A" d="M246.913,124.638c0.942,2.443,1.413,4.782,1.413,7.015l-0.053,0.995c-0.174,1.431-0.609,2.304-1.309,2.618
		c-0.628,0.245-1.325,0.07-2.094-0.523c-1.745-1.431-3.089-4.293-4.031-8.585c-0.906-4.084-0.978-6.649-0.21-7.696l1.1-0.052
		l1.205,0.524C244.54,119.943,245.865,121.846,246.913,124.638"/>
	<path fill="#3D62AC" d="M245.761,133.694c-1.116-0.942-1.988-2.687-2.617-5.235c-0.523-2.059-0.784-4.118-0.784-6.177l0.208-1.937
		c1.292,1.047,2.374,2.757,3.247,5.131c0.768,2.199,1.15,4.258,1.15,6.177l-0.052,0.838c-0.07,0.907-0.226,1.413-0.471,1.518
		L245.761,133.694"/>
	<path fill="#0D131A" d="M245.29,127.831l0.158,1.937c-0.069,0.594-0.21,0.925-0.421,0.995c-0.243,0.07-0.487-0.14-0.731-0.628
		c-0.245-0.489-0.437-1.1-0.577-1.833l-0.156-1.937c0.07-0.593,0.21-0.925,0.418-0.995c0.245-0.035,0.49,0.175,0.734,0.628
		L245.29,127.831"/>
	<path fill="#0D131A" d="M368.947,267.769l1.571-0.628c0.558-0.174,0.978-0.017,1.255,0.471h0.576
		c1.745,3.247,1.71,8.202-0.104,14.868c-1.604,5.934-3.525,10.139-5.758,12.618c-0.559,0.628-1.1,0.837-1.624,0.628
		c-0.593-0.21-0.993-1.135-1.203-2.774c-0.105-0.804-0.227-3.002-0.367-6.597l-0.314-5.863c-0.174-2.234,0.401-4.799,1.729-7.696
		C366.067,269.862,367.48,268.188,368.947,267.769"/>
	<path fill="#FFF3C2" d="M369.314,269.078c0.417-0.104,0.75,0.105,0.994,0.627c0.731,1.327,1.099,3.072,1.099,5.235
		c0,3.246-0.75,7.017-2.251,11.309c-1.291,3.734-2.479,6.195-3.561,7.381l-0.156,0.158c-0.349-0.56-0.61-3.054-0.784-7.485
		l-0.314-6.598c0-1.989,0.576-4.188,1.727-6.596C367.219,270.7,368.302,269.357,369.314,269.078"/>
	<path fill="#DBD2A9" d="M370.308,269.705l0.785,2.096l-1.779,2.041c-1.676,2.617-2.827,9.109-3.455,19.476l-0.42,0.471
		c-0.349-0.56-0.61-3.054-0.784-7.485l-0.314-6.598c0-1.989,0.576-4.188,1.727-6.596c1.152-2.409,2.235-3.752,3.247-4.031
		C369.731,268.974,370.064,269.184,370.308,269.705"/>
	<path fill="#0D131A" d="M299.318,195.261c1.397,2.792,3.734,5.236,7.016,7.33c2.443,1.605,6.301,3.472,11.569,5.601l10.575,4.188
		c2.758,1.223,4.974,2.652,6.648,4.293c4.992,4.957,11.482,11.849,19.476,20.679c8.168,9.006,13.229,14.902,15.183,17.696
		c1.988,2.826,3.263,5.776,3.822,8.847c0.522,3.038,0.261,5.76-0.786,8.167c-1.325,3.071-4.781,4.956-10.365,5.654l-19.58,0.575
		c-4.119-0.977-7.119-3.856-9.004-8.637c-3.7-9.529-7.471-18.43-11.308-26.7c-5.83-12.529-10.089-19.614-12.775-21.255
		c-3.664-2.199-7.957-4.224-12.879-6.073l-15.077-5.025c-2.757-0.908-4.467-3.404-5.131-7.486
		c-0.523-3.316-0.332-6.911,0.575-10.785c0.595-2.547,1.536-4.484,2.828-5.811c1.257-1.256,2.758-1.85,4.503-1.78
		C291.03,184.982,295.932,188.49,299.318,195.261"/>
	<path fill="#E73820" d="M317.223,209.92c4.152,1.711,7.136,2.984,8.952,3.821c3.036,1.465,5.13,2.792,6.282,3.979
		c5.479,5.444,12.023,12.251,19.632,20.417c8.411,9.005,13.541,14.799,15.391,17.382c1.815,2.548,2.984,5.148,3.509,7.8
		c0.488,2.618,0.279,4.974-0.628,7.068c-1.396,3.141-4.102,4.99-8.116,5.549c-8.969,1.116-15.285,0.995-18.95-0.366
		c-3.245-1.221-5.741-4.065-7.486-8.532c-2.863-7.156-6.021-14.433-9.477-21.832c-6.945-14.764-12.163-23.123-15.653-25.076
		c-6.91-3.979-15.897-7.749-26.961-11.309c-2.163-0.732-3.699-2.81-4.606-6.23c-0.804-3.211-0.82-6.509-0.054-9.895
		c0.351-1.501,0.838-2.775,1.467-3.822c1.081-1.746,2.355-2.513,3.822-2.304c3,0.419,5.549,1.588,7.644,3.508
		c1.29,1.187,3.175,3.577,5.653,7.172l1.99,2.827c1.151,1.64,3.438,3.333,6.857,5.079C308.48,206.203,312.058,207.79,317.223,209.92
		"/>
	<path fill="#C82E19" d="M355.91,274.731c7.016-1.081,12.06-3.21,15.129-6.386l-0.679,2.041c-1.396,3.141-4.102,4.99-8.116,5.549
		l-15.181,0.523c-3.421-0.453-6.038-1.64-7.853-3.56C346.261,274.749,351.828,275.36,355.91,274.731"/>
	<path fill="#C82E19" d="M284.346,186.57c2.269,0.314,4.223,1.03,5.862,2.146c1.396,0.908,2.828,2.286,4.293,4.136
		c0.21,7.259,1.867,14.501,4.974,21.725c-4.468-1.884-9.72-3.804-15.758-5.758c-2.163-0.732-3.699-2.81-4.606-6.23
		c-0.804-3.211-0.82-6.509-0.054-9.895c0.351-1.501,0.838-2.775,1.467-3.822C281.605,187.128,282.879,186.361,284.346,186.57"/>
	<path fill="#0D131A" d="M364.601,264.314c1.188,2.059,1.746,5.514,1.676,10.365c-0.07,5.619-1.063,10.959-2.984,16.021
		l-1.675,3.246c-0.802,1.221-1.432,1.814-1.886,1.779c-0.452-0.035-1.062-0.926-1.831-2.671l-3.037-8.795
		c-1.57-4.921-2.391-8.046-2.46-9.37c-0.035-1.396,1.186-3.474,3.664-6.231c2.443-2.722,4.485-4.328,6.126-4.815
		C363.414,263.493,364.217,263.651,364.601,264.314"/>
	<path fill="#FFF3C2" d="M363.187,265.675c0.979,1.71,1.309,5.689,0.996,11.937c-0.278,6.527-1.17,11.046-2.67,13.56l-1.152,1.466
		l-0.419,0.21l-0.575-0.734l-2.828-8.742c-1.465-4.852-2.216-7.922-2.251-9.215c-0.069-0.941,0.892-2.495,2.881-4.659
		c2.023-2.198,3.752-3.507,5.182-3.927L363.187,265.675"/>
	<path fill="#DBD2A9" d="M354.287,274.155c-0.034-0.662,0.611-1.849,1.938-3.559c0.312,2.792,0.977,6.525,1.988,11.203
		c0.942,4.432,1.798,7.904,2.565,10.417l-0.628,0.576l-0.21,0.054l-0.575-0.734l-2.828-8.742
		C355.073,278.519,354.323,275.448,354.287,274.155"/>
	<path fill="#0D131A" d="M344.655,260.544c1.642-0.278,2.741,0.105,3.298,1.153c1.082,1.954,1.379,5.618,0.892,10.992
		c-0.63,6.632-2.548,12.461-5.76,17.485c-0.279,0.455-0.681,0.542-1.203,0.262c-1.082-0.487-2.462-3.942-4.137-10.365
		c-1.571-6.004-2.285-9.579-2.146-10.731c0.14-1.048,1.258-2.653,3.351-4.816C341.182,262.184,343.084,260.859,344.655,260.544"/>
	<path fill="#FFF3C2" d="M346.539,263.424c0.351,0.628,0.524,2.146,0.524,4.555c0,3.352-0.366,6.666-1.101,9.946
		c-0.907,4.119-2.233,7.277-3.978,9.478c-0.698-1.013-1.658-3.98-2.879-8.901c-1.223-4.781-1.834-7.904-1.834-9.371l0.054-0.313
		c0.104-0.698,0.958-1.814,2.564-3.352c1.779-1.709,3.334-2.687,4.659-2.931C345.492,262.395,346.156,262.69,346.539,263.424"/>
	<path fill="#DBD2A9" d="M337.326,268.816c0.069-0.56,0.802-1.571,2.197-3.037c0.49,3.665,1.065,7.276,1.729,10.837
		c0.802,4.434,1.5,7.312,2.093,8.64l-1.36,2.146c-0.698-1.013-1.658-3.98-2.879-8.901c-1.223-4.781-1.834-7.904-1.834-9.371
		L337.326,268.816"/>
	<path fill="#0D131A" d="M283.613,333.367c0.208-1.222,1.517-2.724,3.926-4.503c2.271-1.711,3.787-2.515,4.556-2.408
		c0.803,0.14,3.142,1.274,7.015,3.403c4.224,2.338,6.525,4.013,6.911,5.024c0.174,0.385,0.14,0.717-0.105,0.995
		c-0.662,0.803-3.821,1.064-9.476,0.786l-11.204-1.257c-0.767-0.174-1.273-0.524-1.518-1.047
		C283.543,334.012,283.508,333.681,283.613,333.367"/>
	<path fill="#FFF3C2" d="M284.921,333.681c0.034-0.769,1.081-1.92,3.142-3.455c1.92-1.466,3.229-2.251,3.927-2.356
		c0.767,0.176,2.878,1.222,6.334,3.142c3.525,1.955,5.287,3.107,5.287,3.455l-7.329,0.471l-10.731-0.889
		C285.129,333.977,284.921,333.854,284.921,333.681"/>
	<path fill="#DBD2A9" d="M285.55,334.048c-0.421-0.071-0.629-0.193-0.629-0.367c0.034-0.838,1.169-2.06,3.402-3.665
		c4.713,1.57,9.79,3.037,15.235,4.397l0.052,0.053l-7.329,0.471L285.55,334.048"/>
	<path fill="#0D131A" d="M267.54,256.617l2.88-0.365c0.663-0.035,1.064,0.139,1.204,0.522l4.659,12.931
		c1.71,3.98,4.013,7.626,6.91,10.942c5.933,6.701,9.422,11.971,10.47,15.811c1.78,6.353,0.191,14.222-4.764,23.611
		c-0.174,0.349-0.052,0.819,0.366,1.413l1.78,1.989c2.723,2.723,4.346,4.643,4.869,5.759c0.523,1.151,0.593,2.251,0.209,3.299
		l-1.989,2.932c-2.129,2.652-6.195,4.555-12.198,5.706l-12.773,0.419l-14.607-2.67c-9.771-1.989-15.077-3.578-15.915-4.764
		c-0.906-1.293-0.802-3.544,0.314-6.755c0.838-2.407,1.85-4.554,3.037-6.438c0.803-1.257,1.291-2.356,1.466-3.299
		c0.175-1.047,0.035-2.111-0.419-3.193c-0.803-1.745-3.298-3.577-7.486-5.497c-2.583-1.151-7.574-3.018-14.973-5.602l0.418-0.942
		l0.681-1.78c0.384-3.524,6.753-11.482,19.108-23.872C253.562,263.964,262.479,257.246,267.54,256.617"/>
	<path fill="#E73820" d="M269.53,259.288c1.955,5.549,3.786,10.017,5.496,13.401c2.025,4.015,4.363,7.592,7.016,10.732
		c5.131,6.038,8.149,11.012,9.058,14.922c1.256,5.444-0.018,12.441-3.822,20.992c-0.383,0.872-0.278,1.815,0.314,2.827
		c0.314,0.558,1.029,1.413,2.146,2.565c1.535,1.536,2.496,2.739,2.878,3.611c0.909,1.955,0.699,3.735-0.626,5.341
		c-1.886,2.338-5.497,4.118-10.837,5.34c-4.853,1.116-8.726,1.378-11.623,0.785l-17.642-3.665
		c-6.458-1.465-9.948-2.635-10.471-3.508c-0.489-0.803,0-3.524,1.464-8.166l2.409-7.854c0-0.941-0.193-1.901-0.575-2.88
		c-1.989-4.467-9.058-8.795-21.204-12.982c0.105-2.724,6.003-9.999,17.696-21.83c12.145-12.286,20.784-19.075,25.915-20.366
		C268.378,258.242,269.181,258.485,269.53,259.288"/>
	<path fill="#C82E19" d="M267.122,258.555c1.256-0.312,2.059-0.069,2.407,0.733c1.569,4.468,3.037,8.166,4.397,11.099
		c1.569,3.386,3.264,6.422,5.079,9.108c-6.178,3.7-11.483,8.324-15.916,13.874c-5.479,6.91-7.382,13.001-5.706,18.271
		c0.837,2.582,0.89,4.851,0.156,6.806c-0.523,1.431-1.641,3.02-3.351,4.765c-1.954,1.988-2.861,3.733-2.723,5.234
		c0.104,1.467,1.222,2.653,3.352,3.561l6.648,2.251l4.868,1.1l4.085,0.837c0.907,0.279,1.988,0.854,3.246,1.728l1.413,2.042
		l-5.55-0.157l-11.57-2.407l-10.785-2.409l-0.994-0.313h-0.053c-2.791-0.804-4.362-1.484-4.71-2.043
		c-0.489-0.803,0-3.524,1.464-8.166l2.409-7.854c0-0.941-0.193-1.901-0.575-2.88c-1.989-4.467-9.058-8.795-21.204-12.982
		c0.105-2.724,6.003-9.999,17.696-21.83C253.352,266.635,261.991,259.846,267.122,258.555"/>
	<path fill="#0D131A" d="M282.775,335.147c0.803-1.467,2.27-3.106,4.397-4.922c2.304-1.92,3.892-2.67,4.765-2.251
		c0.732,0.348,2.635,1.902,5.706,4.658c3.56,3.211,5.566,5.532,6.02,6.964c0.176,0.559,0.088,0.942-0.261,1.151
		c-0.942,0.593-3.927,0.646-8.952,0.157c-5.305-0.523-8.899-1.36-10.785-2.513l-0.785-0.367c-0.383-0.209-0.575-0.452-0.575-0.732
		C282.304,336.456,282.461,335.739,282.775,335.147"/>
	<path fill="#FFF3C2" d="M284.398,337.083c0-0.348,0.245-0.96,0.731-1.832c0.873-1.361,2.025-2.722,3.456-4.083
		c1.362-1.291,2.286-1.938,2.775-1.938c0.733,0.384,2.582,2.007,5.549,4.869c3.072,2.931,4.555,4.572,4.45,4.921l-7.225,0.209
		c-4.852-0.348-8.098-1.012-9.737-1.989V337.083"/>
	<path fill="#DBD2A9" d="M293.559,339.229c-4.537-0.383-7.591-1.047-9.161-1.989v-0.157c0-0.348,0.245-0.96,0.731-1.832l0.734-0.994
		c4.887,1.884,9.999,3.508,15.339,4.868C300.329,339.51,297.781,339.545,293.559,339.229"/>
	<path fill="#0D131A" d="M279.581,330.486c2.374,0.979,4.571,2.671,6.596,5.079c1.641,1.954,2.845,3.944,3.613,5.968l0.471,1.78
		c0,0.313-0.14,0.524-0.418,0.629c-1.188,0.522-4.783,0.261-10.786-0.786c-5.409-0.942-8.69-1.657-9.841-2.146
		c-0.804-0.383-1.205-0.769-1.205-1.151c0.035-0.977,1.413-2.688,4.136-5.131c2.479-2.233,4.223-3.578,5.235-4.031l1.466-0.471
		L279.581,330.486"/>
	<path fill="#FFF3C2" d="M284.502,336.508l2.827,3.769c0.663,1.117,0.854,1.764,0.576,1.938l-8.378-0.681
		c-4.71-0.802-7.799-1.466-9.266-1.988c0.245-0.698,1.379-2.077,3.404-4.137c2.023-2.024,3.402-3.158,4.135-3.402
		c0.594-0.211,1.537,0.122,2.827,0.995C281.85,333.838,283.141,335.006,284.502,336.508"/>
	<path fill="#DBD2A9" d="M270.262,339.545c0.104-0.351,0.541-0.979,1.309-1.886c8.133,1.989,13.508,3.107,16.126,3.351
		c0.313,0.664,0.383,1.065,0.209,1.204l-8.378-0.681C274.818,340.731,271.729,340.067,270.262,339.545"/>
	<path fill="#0D131A" d="M311.83,57.993c0.523-0.837,2.077-1.134,4.659-0.89c2.548,0.209,4.677,0.802,6.387,1.78
		c2.933,1.605,4.397,3.734,4.397,6.387c0,1.047-0.488,2.478-1.465,4.293l-8.011,14.135l-5.863,9.946
		c4.259,5.55,7.835,11.745,10.732,18.585c3.246,7.644,4.868,14.467,4.868,20.47c0,4.258-1.431,8.499-4.293,12.722
		c-2.651,3.909-7.398,9.021-14.239,15.339c-15.427,14.275-23.14,26.7-23.14,37.274v0.472c-0.383,2.443-0.559,5.34-0.524,8.69
		l-0.104,8.115c-0.418,6.213-1.657,13.77-3.716,22.669c-1.886,8.132-3.997,15.443-6.335,21.936
		c-4.887,13.473-11.605,23.82-20.156,31.046c-11.552,9.737-27.171,14.727-46.855,14.973l-38.636-1.204
		c-9.772-1.606-21.308-5.985-34.605-13.142c-30.504-16.404-46.454-38.234-47.85-65.492c-0.558-10.646,0.523-21.57,3.246-32.772
		c2.338-9.772,6.16-20.662,11.465-32.668l0.313-0.681l0.734,0.157c2.547,0.559,4.205,1.379,4.973,2.461l3.56-1.937l-0.68,2.146
		c-1.361,4.537-1.762,10.837-1.204,18.899c0.768,11.762,3.961,21.656,9.581,29.684c4.537,6.456,10.086,11.325,16.647,14.606
		c6.807,3.42,15.165,5.375,25.077,5.863c1.605,0.104,4.153-1.029,7.644-3.403c2.547-1.71,6.003-4.415,10.366-8.114
		c7.923-6.666,19.091-14.1,33.505-22.303c2.234-1.326,6.16-3.036,11.779-5.13c7.958-3.002,13.665-5.777,17.12-8.324
		c5.758-4.328,9.789-10.314,12.094-17.957c-0.49,0.418-1.204,0.576-2.146,0.47c-1.012-0.069-2.025-0.4-3.038-0.994
		c-4.082-2.374-7.363-5.131-9.842-8.272c-2.722-3.456-4.084-6.98-4.084-10.575c0-3.176,1.082-6.248,3.246-9.214
		c2.06-2.792,5.009-5.375,8.849-7.748c-3.525-5.062-5.951-9.511-7.276-13.35c-1.082-3.141-1.362-5.549-0.839-7.225
		c0.908-2.966,3.177-5.201,6.807-6.702c1.116-0.488,1.901-0.977,2.355-1.465l0.838-1.727c1.325-3.805,3.471-6.807,6.439-9.005
		c3.629-2.687,11.115-6.474,22.459-11.36c7.189-3.106,14.902-7.365,23.139-12.774C307.224,62.076,311.097,59.18,311.83,57.993"/>
	<path fill="#E73820" d="M322.51,61.92c1.222,1.082,1.833,2.32,1.833,3.717c0,0.977-0.28,1.972-0.838,2.984l-8.377,14.92
		l-4.869,8.167l-3.088-3.036l-1.205,0.052c-0.069,0.663,0.176,1.343,0.733,2.042c1.222,1.466,3.508,5.008,6.858,10.627
		c4.292,7.225,7.226,13.141,8.796,17.747c1.675,4.921,2.512,9.005,2.512,12.251c0,4.188-1.309,8.341-3.927,12.459
		c-2.617,4.188-7.119,9.231-13.506,15.129c-6.073,5.62-11.064,11.256-14.973,16.91c-5.62,8.062-8.43,15.444-8.43,22.145l0.053,0.262
		c-0.732,4.572-1.344,10.557-1.832,17.957c-0.559,8.411-1.274,14.886-2.146,19.423c-1.466,7.435-4.014,14.869-7.643,22.302
		l-1.624,3.456c-5.341,11.69-11.062,20.399-17.171,26.123c-10.96,10.262-25.636,15.497-44.029,15.705
		c-33.366,0.421-58.408-4.745-75.125-15.495l-0.89-0.576c-11.971-7.679-20.923-14.938-26.856-21.778
		c-10.68-12.25-16.439-26.508-17.277-42.771l-0.156-5.759c0-9.004,1.256-18.149,3.769-27.433
		c2.094-7.818,5.514-17.102,10.261-27.852c1.814,1.71,3.734,2.112,5.758,1.205c-1.291,6.143-1.936,11.255-1.936,15.339
		c0,6.213,0.646,12.128,1.936,17.748c1.641,7.12,4.241,13.209,7.801,18.271c4.537,6.457,11.396,11.692,20.575,15.706
		c8.969,3.908,17.206,5.428,24.71,4.555c2.06-0.21,4.45-1.187,7.172-2.933c2.409-1.499,5.62-3.943,9.633-7.329
		c5.584-4.711,10.295-8.517,14.135-11.412c6.492-4.816,13.176-9.197,20.051-13.141c2.268-1.326,6.125-3.001,11.569-5.025
		c7.924-2.932,13.716-5.742,17.382-8.429c6.072-4.503,10.329-10.697,12.772-18.585c0.105-0.244,0.07-0.663-0.104-1.256l-0.158-1.309
		l1.52-1.885l-1.99,1.257c-1.15,0.733-2.704,0.733-4.659,0c-3.21-1.222-6.124-3.525-8.743-6.911c-2.721-3.49-4.083-6.823-4.083-10
		c0-3.001,0.82-5.793,2.461-8.376c1.886-3.002,4.711-5.497,8.48-7.486c1.71-0.943,2.652-1.658,2.827-2.146
		c0.141-0.488-0.122-0.593-0.785-0.314l-1.832,0.471l-2.199-3.403c-2.023-3.211-3.438-5.794-4.239-7.748
		c-1.362-3.281-1.694-6.02-0.996-8.219c0.838-2.583,2.601-4.434,5.288-5.55c1.431-0.594,2.461-1.274,3.089-2.042
		c0.418-0.489,0.785-1.222,1.099-2.199c0.769-2.199,2.392-4.311,4.869-6.334c4.362-3.561,12.059-7.888,23.088-12.984
		c7.294-3.386,15.077-7.678,23.349-12.879c7.608-4.781,11.779-7.818,12.513-9.109l-0.052,0.105l3.611,0.157
		C319.475,59.93,321.219,60.768,322.51,61.92"/>
	<path fill="#C82E19" d="M324.343,65.637c0,0.977-0.28,1.972-0.838,2.984l-8.377,14.92l-4.869,8.167l-3.088-3.036l-1.205,0.052
		c-0.069,0.663,0.176,1.343,0.733,2.042c1.222,1.466,3.508,5.008,6.858,10.627c4.292,7.225,7.226,13.141,8.796,17.747
		c1.675,4.921,2.512,9.005,2.512,12.251c0,4.188-1.309,8.341-3.927,12.459c-2.617,4.188-7.119,9.231-13.506,15.129
		c-6.073,5.62-11.064,11.256-14.973,16.91c-5.62,8.062-8.43,15.444-8.43,22.145l0.053,0.262l-0.209,1.361
		c-1.501-1.954-3.038-4.589-4.607-7.905l-3.821-8.01c-3.281-6.143-7.853-10.174-13.716-12.094c0.487-0.314,1.883-0.628,4.188-0.942
		c2.477-0.314,4.31-0.75,5.496-1.309l4.816-2.827c2.757-1.78,4.922-2.793,6.491-3.037l9.894-0.628
		c5.271-0.733,9.914-2.827,13.927-6.283c4.327-3.664,7.155-9.231,8.481-16.7c0.978-5.444,1.135-11.709,0.471-18.794
		c-0.313-3.456-2.984-10.209-8.009-20.26c-4.294-8.586-5.794-13.56-4.503-14.921l8.743-10.47c4.259-5.724,7.172-10.697,8.742-14.92
		c0.803,0.419,1.483,0.873,2.042,1.361C323.732,63.002,324.343,64.24,324.343,65.637"/>
	<path fill="#0D131A" d="M261.572,204.213c4.922-2.338,9.092-3.159,12.513-2.46c2.582,0.523,4.711,1.902,6.387,4.135
		c2.095,2.792,3.124,6.58,3.089,11.361c-0.069,4.711-1.238,11.622-3.507,20.731c-1.85,7.33-3.893,14.223-6.126,20.679l-0.838,1.885
		c-5.024,12.041-10.715,21.133-17.066,27.275c-11.412,11.134-26.874,16.823-46.384,17.068c-33.68,0.417-59.019-4.834-76.016-15.76
		l-0.89-0.574c-12.146-7.819-21.238-15.2-27.276-22.146c-10.854-12.493-16.718-27.049-17.59-43.661
		c-0.244-4.643,0.209-11.081,1.361-19.318c0.698-4.886,1.483-9.493,2.355-13.821l1.361,0.262
		c-1.78,10.191-0.575,21.081,3.613,32.668c4.188,11.552,10.488,21.377,18.899,29.474c7.958,7.679,16.247,12.967,24.868,15.864
		c9.179,3.139,18.899,3.611,29.159,1.412c15.078-3.211,29.702-10.244,43.872-21.099c9.389-7.188,18.777-16.316,28.167-27.38
		C248.222,212.921,254.906,207.389,261.572,204.213"/>
	<path fill="#FFF3C2" d="M280.628,209.605c1.431,2.722,2.042,5.601,1.833,8.639c-0.244,3.386-1.223,8.882-2.934,16.49
		c-2.093,9.18-4.379,16.979-6.856,23.402l-0.838,1.885c-4.957,11.83-10.523,20.748-16.701,26.752
		c-11.203,10.924-26.367,16.508-45.494,16.751c-33.436,0.351-58.53-4.833-75.283-15.547l-0.89-0.575
		c-11.971-7.68-20.941-14.956-26.909-21.833c-10.715-12.284-16.491-26.595-17.329-42.928l-0.053-2.408
		c0-4.643,0.594-10.977,1.78-19.004c-0.14,9.389,1.885,18.847,6.073,28.375c4.119,9.319,9.738,17.415,16.857,24.292
		c7.993,7.679,16.875,13.053,26.647,16.126c10.086,3.104,20.47,3.541,31.149,1.309c15.007-3.212,29.719-10.576,44.133-22.094
		c7.434-5.968,16.98-15.306,28.636-28.008c5.306-5.795,8.813-9.337,10.523-10.628c6.701-5.061,12.738-7.225,18.113-6.492
		C276.369,204.527,278.883,206.36,280.628,209.605"/>
	<path fill="#DBD2A9" d="M134.356,287.978l-0.89-0.575l-9.946-6.703c-4.189-3-7.923-6.055-11.204-9.161
		c6.108,4.537,13.822,8.812,23.14,12.826c11.727,5.096,23.785,8.674,36.175,10.733c33.611,5.688,64.115-0.351,91.513-18.115
		c-11.518,17.416-29.353,26.265-53.504,26.542C176.203,303.875,151.109,298.691,134.356,287.978"/>
	<path fill="#0D131A" d="M294.292,157.515l-13.507-0.575l-12.564-0.681c-1.466,0.313-3.438,1.326-5.917,3.036
		c-2.408,1.64-4.589,3.438-6.544,5.393c-0.628,0.627-0.574,1.553,0.158,2.774c0.663,1.117,1.483,1.885,2.46,2.303
		c1.641,0.733,3.909,0.925,6.807,0.576c2.617-0.313,5.112-0.977,7.486-1.989c1.431-0.628,2.146-0.75,2.146-0.367
		c0,0.349-0.56,0.785-1.676,1.309c-2.896,1.361-5.898,2.251-9.004,2.669l-6.544-0.314c-1.537-0.733-2.724-1.85-3.561-3.35
		l-0.786-2.146l-2.303-0.838c-1.291-0.523-1.379-0.663-0.261-0.419c1.5,0.315,2.913-0.104,4.238-1.256l5.027-4.764
		c2.826-2.373,5.514-3.769,8.062-4.188l13.717,0.732l12.093,0.732c2.339-0.732,4.241-1.728,5.707-2.983
		c1.012-0.838,1.64-1.135,1.885-0.891c0.209,0.21-0.105,0.786-0.942,1.728C298.76,155.892,296.7,157.061,294.292,157.515"/>
	<path fill="#0D131A" d="M267.958,170.446l0.786-0.262l0.942-0.104l3.192,2.303c0.734,0.489,1.065,0.82,0.996,0.995l-1.152-0.104
		c-0.593-0.209-1.413-0.628-2.461-1.256L267.958,170.446"/>
	<path fill="#0D131A" d="M247.123,117.204c-0.28-0.559-0.297-0.995-0.054-1.309c0.245-0.349,0.611-0.21,1.101,0.419
		c1.431,1.675,2.162,3.734,2.198,6.177c0.035,1.222-0.14,1.78-0.522,1.675c-0.386-0.105-0.664-0.611-0.838-1.518
		C248.798,121.183,248.17,119.368,247.123,117.204"/>
	<path fill="#0D131A" d="M265.131,121.078c-0.348-0.942-0.472-2.164-0.365-3.665c0.104-1.885,0.558-3.473,1.361-4.764
		c1.325-1.989,1.709-1.71,1.15,0.837c-0.384,1.466-0.646,3.944-0.784,7.435c-0.069,1.151-0.262,1.675-0.575,1.57
		C265.673,122.386,265.411,121.915,265.131,121.078"/>
	<path fill="#0D131A" d="M252.359,152.803c0.348-1.012,0.768-1.728,1.255-2.146c0.456-0.419,0.927-0.489,1.414-0.209
		c0.524,0.279,0.506,0.698-0.052,1.256c-0.454,0.454-0.803,1.117-1.047,1.99l-0.577,1.832l-0.732,0.838
		c-0.244,0.035-0.453-0.279-0.627-0.942C251.818,154.758,251.939,153.885,252.359,152.803"/>
	<path fill="#0D131A" d="M282.512,136.417c-4.293-0.28-7.834-1.204-10.627-2.774l-1.465,0.157c-0.209-0.14-0.228-0.436-0.054-0.89
		l0.366-0.576c1.886-3.56,5.69-7.469,11.413-11.727c5.306-3.944,10.018-6.613,14.136-8.01c1.954-0.698,2.983-0.907,3.089-0.627
		l-0.995,1.204l-1.57,1.256l-0.785,0.471c1.605,1.536,3.001,3.822,4.188,6.858c0.769,2.06,1.135,4.136,1.1,6.229
		c-0.07,2.059-0.487,3.752-1.256,5.079l0.733,0.576c0.209,0.454-0.314,0.82-1.571,1.099
		C292.966,136.208,287.399,136.766,282.512,136.417"/>
	<path fill="#FFFFFF" d="M294.292,115.738c0.559,0.244,1.188,0.873,1.885,1.885c0.803,1.152,1.5,2.53,2.094,4.136
		c0.942,2.408,1.414,4.677,1.414,6.806c0,1.78-0.35,3.316-1.047,4.607c-5.55,1.605-10.941,2.199-16.177,1.78
		c-4.015-0.349-7.382-1.187-10.104-2.513c1.954-2.828,5.742-6.3,11.36-10.418C288.987,118.146,292.512,116.051,294.292,115.738"/>
	<path fill="#0D131A" d="M287.644,118.094l0.366-0.209c1.885,1.745,3.193,4.293,3.927,7.644c0.837,3.629,0.628,6.911-0.63,9.842
		l-0.312,0.523h-0.263l-13.035-0.523h-0.053l-0.052-0.052l-3.404-1.414c-1.186-0.489-2.006-1.239-2.459-2.251l2.251-2.984
		l0.157-0.157c2.128-2.234,6.247-5.428,12.355-9.58L287.644,118.094"/>
	<path fill="#3D62AC" d="M287.747,119.14c2.27,3.177,3.404,6.719,3.404,10.628c0,1.71-0.28,3.455-0.838,5.235
		c-3.072,0.35-6.038,0.419-8.9,0.21c-2.828-0.21-4.869-0.611-6.125-1.204l-1.885-0.837c-0.628-0.384-0.837-0.715-0.628-0.995
		c1.117-1.71,3.508-4.101,7.172-7.172C283.229,122.212,285.828,120.258,287.747,119.14"/>
	<path fill="#0D131A" d="M282.356,121.758c2.06,2.129,2.773,4.852,2.146,8.167c-0.593,3.246-1.867,4.869-3.821,4.869
		c-2.723,0-4.521-2.355-5.393-7.067l4.555-3.926L282.356,121.758"/>
	<path fill="#0D131A" d="M146.606,77.207c-6.666,7.05-8.655,11.552-5.968,13.507l0.838-0.105l0.732-0.837
		c0.873-1.78,1.728-2.897,2.565-3.351l4.293-0.209l0.575,0.314l-0.419,0.523c-1.221,0.803-2.513,2.198-3.874,4.188l-3.455,5.864
		l-0.942,1.623c-2.374,4.292-3.211,7.015-2.513,8.166c0.488,0.908,1.257,0.96,2.304,0.158c0.873-0.663,1.518-1.518,1.937-2.565
		c0.454-1.256,0.821-1.85,1.1-1.78c0.244,0.035,0.366,0.663,0.366,1.885c0,3.7-0.628,6.562-1.885,8.585
		c-1.152,1.885-3.333,3.717-6.544,5.497c-1.326,0.699-2.269,2.444-2.827,5.236c-0.14,0.768-0.087,1.204,0.157,1.309
		c0.28,0.175,0.769-0.122,1.466-0.89c1.291-1.361,2.373-2.321,3.246-2.88c1.605-1.012,3.612-1.64,6.021-1.884
		c0.523,0,0.732,0.104,0.627,0.314l-1.57,2.042c-1.814,2.129-3.333,4.538-4.555,7.225c-1.465,3.176-2.303,6.37-2.513,9.581
		c-0.663,9.459-3.351,15.776-8.062,18.952c-2.199,1.501-5.951,2.443-11.255,2.827c-2.269,0.175-3.944,0.646-5.026,1.414
		c-1.745,1.256-3.577,1.71-5.497,1.361c-1.431-0.313-2.565-1.029-3.403-2.146c-0.454-0.942-1.292-2.111-2.513-3.507
		c-1.57-1.85-4.362-3.804-8.376-5.864c-2.618-1.361-4.711-3.524-6.282-6.492c-1.396-2.618-2.251-5.549-2.565-8.795
		c-0.349-3.7,0.139-7.137,1.465-10.313c1.292-3.142,3.246-5.759,5.864-7.853c4.747-3.77,8.045-7.278,9.895-10.524
		c1.396-2.443,2.164-5.217,2.304-8.324c0.07-1.012,0.192-1.57,0.366-1.675l0.523,0.471c1.431,2.094,2.146,4.921,2.146,8.481
		c0.628-2.269,1.71-4.782,3.246-7.539c3.071-5.479,6.876-9.232,11.413-11.256c0.663-0.349,1.047-0.471,1.152-0.366
		c0.14,0.069-0.053,0.418-0.576,1.046c-1.222,1.432-2.286,3.368-3.193,5.812c-0.873,2.338-1.1,3.682-0.681,4.031l0.471,0.366
		c0.35,0.07,0.803-0.192,1.362-0.785c1.954-1.955,3.525-4.537,4.711-7.749c1.432-3.804,2.95-6.648,4.555-8.534
		c1.815-2.164,3.961-3.35,6.439-3.56l0.837,0.104l-0.523,0.681c-1.047,0.978-1.728,2.216-2.042,3.717
		c-0.244,1.292-0.192,2.426,0.158,3.403c0.174,0.488,0.506,0.681,0.994,0.576c0.523-0.07,0.925-0.471,1.205-1.204
		c1.465-3.734,3.35-6.753,5.654-9.057c2.233-2.233,6.422-5.357,12.564-9.371c1.222-0.802,1.938-1.169,2.147-1.099
		c0.209,0.104-0.052,0.82-0.785,2.146c-0.838,1.5-2.653,3.682-5.444,6.544L146.606,77.207"/>
	<path fill="#E50020" d="M153.674,67.574c-0.803,1.466-2.565,3.612-5.287,6.439l-2.461,2.513c-1.99,2.164-3.455,3.926-4.397,5.288
		c-1.78,2.548-2.67,4.712-2.67,6.492c0,1.151,0.367,2.146,1.099,2.984c0.454,0.488,0.873,0.715,1.257,0.681
		c0.419-0.035,1.012-0.594,1.78-1.676c0.698-1.082,1.309-1.832,1.832-2.251c0.873-0.733,1.903-1.082,3.089-1.047
		c-1.151,0.942-2.355,2.355-3.612,4.24l-3.246,5.393l-0.89,1.675c-2.233,4.153-3.35,7.138-3.35,8.952
		c0,0.489,0.087,0.908,0.262,1.257c0.279,0.453,0.68,0.68,1.204,0.68c1.047,0,2.094-0.506,3.142-1.518
		c0.768-0.769,1.378-1.693,1.832-2.775c-0.07,2.199-0.593,4.293-1.571,6.283c-1.36,2.757-3.507,4.991-6.439,6.701
		c-1.117,0.628-2.076,1.797-2.879,3.507c-0.733,1.536-1.1,2.915-1.1,4.136v0.104c0.07,0.733,0.279,1.204,0.628,1.414l1.309-0.21
		l1.989-1.885c1.047-1.186,1.955-2.042,2.723-2.565c1.327-0.873,2.932-1.448,4.816-1.728l-0.576,0.68
		c-2.268,2.583-3.891,4.712-4.869,6.388c-1.641,2.862-2.583,5.881-2.827,9.057c-0.628,9.18-3.142,15.496-7.539,18.952
		c-2.443,1.919-6.056,3.054-10.837,3.403c-2.548,0.14-4.101,0.454-4.66,0.942c-1.431,1.187-2.896,1.658-4.397,1.414
		c-1.291-0.174-2.304-0.75-3.036-1.728l-4.032-4.764c-1.814-1.989-4.693-4.066-8.638-6.23c-1.466-0.803-2.757-2.321-3.874-4.554
		c-1.152-2.304-1.867-4.869-2.146-7.696l-0.104-2.356c0-3.071,0.593-5.898,1.78-8.481c1.152-2.618,2.827-4.799,5.026-6.544
		c4.572-3.629,7.678-7.137,9.319-10.522c1.082-2.234,1.71-5.044,1.884-8.429c0.803,1.78,1.205,3.961,1.205,6.544
		c0,1.78-0.14,3.385-0.419,4.816l-0.105,1.623c0.036,0.768,0.367,0.297,0.995-1.414c0.559-2.547,1.536-5.357,2.932-8.429
		c2.827-6.073,6.422-10.558,10.785-13.455c-0.978,1.501-1.763,3.037-2.356,4.607c-0.593,1.57-0.89,2.879-0.89,3.927
		c0,0.768,0.175,1.309,0.523,1.623c0.733,0.663,1.85,0.209,3.351-1.361l2.512-3.508l2.304-4.45c1.675-3.315,3.001-5.671,3.979-7.067
		c1.605-2.269,3.28-3.682,5.025-4.241c-1.047,1.431-1.57,3.036-1.57,4.816c0,0.942,0.123,1.675,0.367,2.199
		c0.349,1.047,0.89,1.571,1.623,1.571c0.803,0.035,1.553-0.681,2.251-2.146c1.781-4.014,3.857-7.208,6.23-9.581
		c1.57-1.571,4.554-3.839,8.952-6.806L153.674,67.574"/>
	<path fill="#EFE908" d="M127.446,95.32c1.046-0.838,1.762-1.169,2.146-0.995c0.245,0.07,0.053,0.506-0.576,1.309
		c-1.675,2.478-2.618,4.38-2.827,5.707c-0.07,0.523,0.035,2.374,0.313,5.549c0.245,3.002-0.331,5.812-1.728,8.429
		c-1.047,1.885-2.67,3.857-4.869,5.916c-2.199,2.129-3.525,4.101-3.979,5.916c-0.524,2.024-0.401,3.351,0.366,3.979
		c0.734,0.628,1.24,0.437,1.519-0.576c0.628-2.164,1.414-3.909,2.356-5.235c0.803-1.187,1.902-2.269,3.298-3.246
		c0.593-0.384,0.942-0.576,1.047-0.576c0.175,0,0.157,0.279-0.052,0.838c-1.919,5.131-2.391,8.028-1.414,8.691
		c0.314,0.14,0.82-0.105,1.518-0.733c0.803-0.699,1.519-1.588,2.146-2.67c1.745-2.827,2.618-5.288,2.618-7.381
		c0-1.606,0.297-1.763,0.89-0.472c0.28,0.593,0.454,1.483,0.524,2.67c0.07,1.466-0.053,2.844-0.367,4.136
		c-0.803,3.071-3.333,6.911-7.591,11.517c-3.105,3.351-4.52,6.108-4.24,8.272c0.209,1.536,0.837,2.339,1.884,2.408
		c0.873,0,1.833-0.454,2.879-1.361c1.256-1.117,2.269-2.705,3.037-4.764c0.209-0.593,0.401-0.907,0.576-0.942
		c0.174-0.07,0.367,0.192,0.576,0.785c1.012,2.792,0.925,5.444-0.262,7.958c-1.326,2.653-3.386,4.118-6.178,4.397
		c-1.082,0.105-2.233,0.471-3.455,1.1c-1.221,0.593-2.286,1.309-3.193,2.146l-3.874,2.723c-0.698,0.593-1.518,0.959-2.46,1.099
		l-2.461-0.157c-0.802-0.21-1.762-1.169-2.879-2.88l-1.361-1.675l-1.675-2.199l-1.466-2.984c-3.21-8.516-3.088-15.531,0.367-21.045
		c1.117-1.71,1.606-1.885,1.466-0.524c-0.07,1.291,0.122,2.391,0.576,3.298c0.488,0.942,1.082,1.344,1.78,1.204
		c0.523-0.105,0.977-0.786,1.361-2.042c0.384-1.326,0.576-2.897,0.576-4.711c0.035-4.363,1.693-8.412,4.974-12.146
		c2.583-2.931,4.659-4.519,6.23-4.764c0.593-0.035,0.663,0.227,0.209,0.786c-2.199,2.618-3.56,4.851-4.083,6.701
		c-0.454,1.536-0.297,2.374,0.471,2.513c1.082,0.14,2.269-0.628,3.56-2.303c1.361-1.78,2.966-4.729,4.816-8.848l1.675-3.874
		c0.418-1.221,0.663-2.478,0.733-3.77C123.083,99.84,124.583,97.449,127.446,95.32"/>
	<path fill="#E73820" d="M150.69,254c1.187-4.188,5.113-5.968,11.779-5.34c5.654,0.523,12.634,2.687,20.94,6.493
		c7.504,3.454,14.206,7.346,20.104,11.674c6.038,4.397,9.179,7.766,9.423,10.104c0.418,4.293-2.984,12.773-10.208,25.443
		c-6.702,11.796-11.588,18.917-14.659,21.358c5.968,7.087,8.638,12.234,8.01,15.444c-0.245,1.292-1.082,2.531-2.513,3.718
		l-4.555,3.246c-3.106,2.129-10.348,3.281-21.727,3.455c-10.924,0.14-17.398-0.506-19.422-1.938
		c-3.56-2.548-5.532-4.118-5.916-4.711c-1.815-2.583-1.588-6.073,0.68-10.471c3.42-6.701,5.306-12.094,5.654-16.177
		c0.279-3.77-0.715-7.539-2.984-11.308c-1.605-2.688-2.879-5.655-3.821-8.9c-1.641-5.725-1.588-10.767,0.157-15.129l3.769-9.582
		L150.69,254"/>
	<path fill="#C82E19" d="M194.823,300.49c8.062-10.646,12.181-20.925,12.354-30.836c3.63,3.07,5.55,5.496,5.759,7.276
		c0.418,4.293-2.984,12.773-10.208,25.443c-6.702,11.796-11.588,18.917-14.659,21.358c4.711,5.586,7.364,9.896,7.957,12.933
		c0.489,2.408-0.349,4.502-2.512,6.282c-4.119-4.678-7.888-8.308-11.309-10.889c-2.199-1.677-5.567-3.788-10.104-6.336
		c-3.245-1.85-3.926-3.594-2.042-5.235c0.664-0.558,3.386-1.937,8.167-4.136C182.939,314.153,188.47,308.864,194.823,300.49"/>
	<path fill="#0D131A" d="M149.8,253.791c0.873-2.023,1.518-2.915,1.938-2.67c0.418,0.244,0.366,1.273-0.158,3.089l-3.979,12.564
		l-5.13,14.501c-1.71,4.259-1.71,9.231,0,14.922c0.907,3.07,2.111,5.845,3.612,8.323c2.443,4.049,3.473,8.114,3.089,12.197
		c-0.384,4.084-2.286,9.477-5.706,16.177c-1.885,3.631-2.321,6.527-1.309,8.691c0.594,1.257,2.146,2.688,4.66,4.292l1.571,1.048
		c1.814,1.292,8.044,1.885,18.689,1.78c11.204-0.104,18.341-1.222,21.412-3.352l1.466-0.994c1.745-1.151,2.932-2.023,3.561-2.617
		c0.977-0.942,1.536-1.938,1.675-2.984c0.245-1.501-0.209-3.351-1.361-5.549c-1.187-2.269-3.211-5.096-6.073-8.481
		c-2.478,1.326-3.927,1.728-4.346,1.204c-0.313-0.384-0.313-0.716,0-0.995l2.409-1.938c4.398-3.56,9.755-10.243,16.072-20.05
		c7.469-11.587,10.837-20.227,10.104-25.914l1.832-0.21l0.104,1.675c0,6.388-2.739,14.24-8.219,23.559
		c-4.782,8.098-10.244,15.183-16.387,21.256c2.967,3.629,5.096,6.475,6.388,8.533c1.64,2.548,2.46,4.607,2.46,6.177l-0.471,1.938
		c-0.209,1.326-1.012,2.46-2.408,3.402l-4.293,2.513l-1.466,0.995c-3.28,2.269-10.661,3.491-22.144,3.665
		c-11.099,0.209-17.783-0.507-20.051-2.146l-2.723-0.89c-2.688-1.676-4.363-3.211-5.026-4.607
		c-1.256-2.548-0.802-5.951,1.362-10.209c3.35-6.526,4.99-12.372,4.921-17.538c-0.035-4.118-1.187-8.044-3.455-11.779
		c-1.815-2.966-3.089-5.671-3.822-8.113c-1.536-5.097-1.396-9.913,0.419-14.45L149.8,253.791"/>
	<path fill="#0D131A" d="M154.04,335.147c1.78-1.327,3.072-1.642,3.874-0.943c1.117,0.872,2.251,2.355,3.403,4.45
		c1.431,2.513,2.234,4.903,2.408,7.172c0.175,1.989-0.087,4.102-0.786,6.335c-0.732,2.442-1.814,4.449-3.246,6.021
		c-0.314,0.383-0.785,0.506-1.413,0.366c-1.292-0.244-3.333-2.042-6.125-5.393c-2.478-3.002-3.996-5.184-4.555-6.544
		c-0.384-1.012,0.192-2.88,1.728-5.602C150.864,338.287,152.435,336.334,154.04,335.147"/>
	<path fill="#FFF3C2" d="M157.234,336.351c1.082,0.872,2.094,2.06,3.036,3.561c1.222,1.989,1.92,3.996,2.094,6.02v0.89
		c0,3.037-1.221,5.899-3.664,8.586c-0.664,0.139-2.339-1.064-5.026-3.611c-2.687-2.583-4.276-4.468-4.764-5.654
		c-0.245-0.559,0.296-1.885,1.623-3.979c1.396-2.269,2.88-3.979,4.45-5.132C156.03,336.265,156.78,336.036,157.234,336.351"/>
	<path fill="#DBD2A9" d="M157.862,352.266c0.419,0,1.047-0.331,1.884-0.995c0.942-0.732,1.763-1.605,2.461-2.617
		c-0.419,2.373-1.588,4.625-3.507,6.753c-0.664,0.139-2.339-1.064-5.026-3.611c-2.687-2.583-4.276-4.468-4.764-5.654
		c-0.21-0.454,0.227-1.606,1.309-3.455c1.256,2.966,2.81,5.427,4.659,7.381C156.274,351.534,157.268,352.266,157.862,352.266"/>
	<path fill="#0D131A" d="M176.394,334.989c0.873-0.523,2.199-0.069,3.979,1.361c1.605,1.292,3.001,2.861,4.188,4.712
		c1.327,2.129,2.304,5.375,2.932,9.737c0.594,4.153,0.576,6.475-0.053,6.963c-0.559,0.489-1.518,0.593-2.879,0.315l-3.036-0.892
		c-2.479-0.873-5.096-2.32-7.853-4.344c-2.513-1.816-3.944-3.178-4.293-4.085c-0.419-0.977,0.21-3.246,1.885-6.806
		C173.01,338.252,174.719,335.932,176.394,334.989"/>
	<path fill="#FFF3C2" d="M180.007,338.603c1.466,1.117,2.548,2.233,3.246,3.35c1.361,2.165,2.286,4.624,2.774,7.382
		c0.454,2.617,0.349,4.521-0.314,5.706c-0.14,0.279-0.488,0.436-1.047,0.471c-1.78,0.034-4.328-0.924-7.644-2.878
		c-3.071-1.746-4.921-3.124-5.549-4.137c-0.524-0.804-0.018-2.723,1.518-5.759c1.5-2.932,2.757-4.729,3.77-5.392
		C177.389,336.996,178.471,337.415,180.007,338.603"/>
	<path fill="#DBD2A9" d="M172.677,343.365c2.618,3.177,5.114,5.62,7.486,7.33c2.548,1.815,4.572,2.512,6.073,2.094
		c-0.069,0.978-0.244,1.727-0.523,2.251c-0.14,0.279-0.488,0.436-1.047,0.471c-1.78,0.034-4.328-0.924-7.644-2.878
		c-3.071-1.746-4.921-3.124-5.549-4.137C170.985,347.764,171.386,346.054,172.677,343.365"/>
	<path fill="#0D131A" d="M193.985,332.633c1.78-0.104,4.346,1.867,7.696,5.917c3.42,4.153,5.252,7.626,5.497,10.417
		c0.036,0.386-0.227,0.594-0.785,0.629l-1.099-0.052c-1.676,0.174-4.729-0.21-9.161-1.152c-4.398-0.907-6.824-1.657-7.278-2.251
		c-0.314-0.419-0.437-1.361-0.366-2.827c0.07-1.396,0.297-2.722,0.681-3.979c0.454-1.604,1.012-2.983,1.675-4.135
		C191.822,333.559,192.868,332.703,193.985,332.633"/>
	<path fill="#FFF3C2" d="M194.352,334.466c0.628,0.104,1.919,1.256,3.874,3.455c2.129,2.339,3.787,4.59,4.974,6.753
		c0.698,1.328,1.047,2.269,1.047,2.828l-0.053,0.313c-0.628,0.385-2.932,0.122-6.91-0.785c-3.909-0.907-6.213-1.64-6.911-2.199
		l-0.104-0.941c0-1.85,0.384-3.753,1.151-5.707C192.188,336.229,193.165,334.989,194.352,334.466"/>
	<path fill="#DBD2A9" d="M190.792,340.119l0.628-1.937c0.768-1.954,1.745-3.193,2.932-3.717c0.628,0.104,1.919,1.256,3.874,3.455
		c2.129,2.339,3.787,4.59,4.974,6.753c0.698,1.328,1.047,2.269,1.047,2.828l-0.053,0.313c-0.768,0.42-3.333,0.087-7.696-0.995
		c-0.244-0.697-0.89-1.64-1.937-2.826L190.792,340.119"/>
	<path fill="#0D131A" d="M186.447,289.128c0.104-1.325,2.146-1.867,6.125-1.621c2.303,0.104,4.206,0.854,5.707,2.251
		c1.78,1.64,2.687,3.978,2.722,7.015c0.035,2.652,0.314,7.259,0.838,13.821l0.942,8.48c0.209,2.408,0.035,3.751-0.523,4.03
		c-0.315,0.176-0.821-0.087-1.519-0.784l-1.414-1.467c-2.617-2.441-5.427-6.719-8.428-12.826
		c-3.525-7.224-5.061-13.088-4.607-17.591L186.447,289.128"/>
	<path fill="#FFF3C2" d="M192.467,288.866c1.57,0.036,2.967,0.489,4.188,1.362c1.955,1.36,2.95,3.542,2.985,6.544
		c0.035,3.769,0.314,8.411,0.837,13.926l0.471,6.753l-0.262,1.78l-0.733-0.524c-2.269-2.129-4.729-5.916-7.382-11.359
		c-3.001-6.178-4.502-11.396-4.502-15.653l0.104-1.57c0.035-0.279,0.436-0.559,1.204-0.838L192.467,288.866"/>
	<path fill="#DBD2A9" d="M189.378,289.286l3.089-0.42c1.57,0.036,2.967,0.489,4.188,1.362c1.955,1.36,2.95,3.542,2.985,6.544
		c0.035,3.769,0.314,8.411,0.837,13.926l0.471,6.753l-0.157,1.571c-0.489-3.561-1.134-7.12-1.937-10.68
		c-0.907-4.015-1.71-6.632-2.408-7.853c-0.523-0.873-1.536-1.799-3.036-2.775c-1.466-0.978-3.141-1.833-5.026-2.565
		c-0.209-1.187-0.313-2.338-0.313-3.455l0.104-1.57C188.209,289.845,188.61,289.565,189.378,289.286"/>
	<path fill="#E73820" d="M243.51,204.213c-5.828,3.525-10.837,6.614-15.025,9.266c-7.992,5.097-12.861,8.655-14.606,10.68
		c-0.767,3.212,0.838,11.536,4.816,24.972c4.224,14.205,6.335,21.691,6.335,22.46c0,5.271-1.728,10.662-5.183,16.177
		c-5.026,7.958-12.042,10.785-21.046,8.48l-6.021-1.885c-2.512-0.872-4.502-2.146-5.968-3.822
		c-4.188-4.71-5.689-14.466-4.502-29.264c0.768-9.389,1.606-16.841,2.513-22.354c1.187-7.189,2.757-12.931,4.711-17.224
		c1.816-4.05,5.166-7.626,10.053-10.732c2.199-1.396,6.038-3.315,11.517-5.759c2.758-1.187,6.161-3.979,10.209-8.376
		c3.072-3.315,5.498-6.334,7.277-9.057c1.187-1.815,4.102-3.246,8.742-4.292l10.838-0.367c2.478,0.732,2.949,4.066,1.413,9.999
		C248.081,198.908,246.058,202.608,243.51,204.213"/>
	<path fill="#C82E19" d="M217.073,259.131l0.367-14.397l5.026,16.754c1.675,5.619,2.53,8.986,2.565,10.104
		c0,4.188-1.292,8.812-3.874,13.874c-3.665,7.188-8.796,11.011-15.392,11.464c5.41-5.094,8.83-12.932,10.261-23.506
		C216.549,269.688,216.898,264.925,217.073,259.131"/>
	<path fill="#0D131A" d="M235.186,182.33c3.84-1.012,8.203-1.047,13.088-0.105c1.327,0.245,1.92,0.611,1.78,1.1
		c-0.174,0.488-1.116,0.646-2.826,0.471c-3.7-0.383-7.242-0.087-10.628,0.89c-3.525,1.013-6.055,2.513-7.591,4.502
		c-3.455,4.467-6.212,7.766-8.271,9.895c-3.211,3.351-6.3,5.671-9.267,6.963l-1.257,0.576c-4.851,2.164-8.481,4.031-10.89,5.601
		c-4.292,2.898-7.276,6.178-8.952,9.843c-3.56,7.819-5.934,20.907-7.12,39.265c-0.21,3-0.314,5.707-0.314,8.114
		c0,9.179,1.396,15.688,4.188,19.527c1.641,2.233,4.572,4.014,8.795,5.34l3.089,1.048c5.968,1.5,11.046,0.627,15.234-2.618
		c3.281-2.548,5.864-6.369,7.748-11.466c1.396-3.839,2.094-7.067,2.094-9.685c0-0.978-1.274-5.706-3.822-14.187
		c-5.34-17.451-7.765-28.603-7.277-33.454c0.279-2.513,0.715-3.578,1.309-3.193c0.315,0.209,0.594,0.663,0.838,1.36
		c1.85-2.094,6.527-5.514,14.031-10.261c6.178-3.943,10.521-6.544,13.035-7.8c1.536-0.768,2.425-1.03,2.67-0.786
		c0.244,0.245-0.331,1.03-1.728,2.356l-13.245,8.691c-7.923,4.991-12.739,8.411-14.449,10.261
		c-0.035,2.723,0.715,7.592,2.251,14.606c1.431,6.387,3.02,12.425,4.765,18.114l2.931,9.842c0.908,3.106,1.361,5.078,1.361,5.915
		c0,2.618-0.855,5.882-2.565,9.791c-2.199,4.921-5.078,8.777-8.638,11.57c-4.572,3.56-10.244,4.467-17.014,2.722l-5.13-1.047
		c-4.852-1.501-8.097-3.683-9.737-6.544c-2.792-4.956-3.752-14.048-2.88-27.275c0.699-10.436,1.519-18.638,2.461-24.606
		c1.082-6.91,2.512-12.32,4.292-16.229c1.78-3.909,5.113-7.417,9.999-10.523c2.374-1.535,6.353-3.524,11.937-5.968l1.256-0.523
		c3.77-1.885,7.225-4.869,10.366-8.952l5.602-8.01C228.834,184.982,231.661,183.272,235.186,182.33"/>
	<path fill="#0D131A" d="M220.842,274.994c1.92-3.107,3.438-4.416,4.555-3.927c1.327,0.558,2.513,1.832,3.56,3.822
		c0.872,1.676,1.535,3.629,1.99,5.862c1.919,9.843,2.041,17.12,0.366,21.832l-1.57,3.351c-0.663,1.012-1.188,1.482-1.571,1.413
		c-0.454-0.07-0.978-0.855-1.571-2.355l-1.466-3.822c-2.06-4.956-4.712-9.179-7.958-12.669l-0.471-0.263
		c-0.873-0.731-0.681-2.757,0.576-6.072C218.259,279.548,219.446,277.157,220.842,274.994"/>
	<path fill="#FFF3C2" d="M218.015,286.459c0-1.187,0.471-3.02,1.414-5.496c1.012-2.688,2.128-4.853,3.351-6.493
		c0.942-1.221,1.605-1.727,1.989-1.519c0.873,0.385,1.693,1.361,2.461,2.933c0.768,1.64,1.396,3.716,1.885,6.229
		c0.803,4.084,1.135,8.271,0.996,12.564c-0.142,4.153-0.612,6.631-1.415,7.435l-0.523,0.366c-0.279-0.035-0.786-0.977-1.519-2.826
		l-2.827-5.864c-1.536-2.548-3.421-4.781-5.655-6.702C218.067,286.981,218.015,286.773,218.015,286.459"/>
	<path fill="#DBD2A9" d="M224.82,277.611l1.781,5.969c0.523,2.512,0.873,5.444,1.047,8.795c0.209,3.386,0.192,6.49-0.053,9.318
		l-0.942-2.041l-2.827-5.864c-1.536-2.548-3.421-4.781-5.655-6.702c-0.104-0.104-0.157-0.312-0.157-0.627
		c0-1.187,0.471-3.02,1.414-5.496c1.012-2.688,2.128-4.853,3.351-6.493l0.785-0.838C223.669,274.226,224.088,275.552,224.82,277.611
		"/>
	<path fill="#0D131A" d="M210.685,285.15c2.653,1.744,4.258,4.572,4.817,8.479l1.989,12.146l2.251,11.57
		c0.419,2.827,0.262,4.362-0.471,4.606c-1.326,0.455-4.869-2.896-10.627-10.051c-5.515-6.841-8.708-11.448-9.581-13.821
		c-2.688-7.188-3.02-11.972-0.995-14.345c0.419-0.522,1.117-0.855,2.094-0.994l2.67,0.051l1.152,0.158
		C206.846,283.335,209.08,284.067,210.685,285.15"/>
	<path fill="#FFF3C2" d="M216.13,306.039c1.187,6.177,1.78,9.895,1.78,11.149l-0.158,0.943c-1.256-0.488-4.188-3.595-8.795-9.318
		c-4.677-5.829-7.452-9.93-8.324-12.303c-1.046-3.072-1.57-5.776-1.57-8.115c0-1.64,0.297-2.827,0.89-3.561
		c0.559-0.662,1.431-0.889,2.617-0.679l1.257,0.156c2.757,0.384,4.799,1.048,6.125,1.99c2.233,1.605,3.63,4.414,4.188,8.428
		L216.13,306.039"/>
	<path fill="#DBD2A9" d="M212.57,299.703c-0.768-3.07-0.838-6.63-0.209-10.679c0.838,1.535,1.431,3.438,1.78,5.706l1.989,11.309
		c1.187,6.177,1.78,9.895,1.78,11.149l-0.158,0.943l-0.366-0.209l-2.67-10.104L212.57,299.703"/>
	<path fill="#FFFFFF" d="M285.339,120.816c0.629,0.174,1.135,0.715,1.52,1.623c0.348,0.837,0.521,1.833,0.521,2.984
		c0,1.222-0.278,2.269-0.836,3.141c-0.523,0.873-1.169,1.309-1.937,1.309c-0.769,0-1.432-0.437-1.99-1.309
		c-0.559-0.872-0.838-1.919-0.838-3.141c0-0.803,0.14-1.57,0.42-2.303L285.339,120.816"/>
</g>
</svg>
