<?xml version="1.0" encoding="utf-8"?>
<!-- Generator: Adobe Illustrator 16.0.0, SVG Export Plug-In . SVG Version: 6.00 Build 0)  -->
<!DOCTYPE svg PUBLIC "-//W3C//DTD SVG 1.1//EN" "http://www.w3.org/Graphics/SVG/1.1/DTD/svg11.dtd">
<svg version="1.1" id="Layer_1" xmlns="http://www.w3.org/2000/svg" xmlns:xlink="http://www.w3.org/1999/xlink" x="0px" y="0px"
	 width="456px" height="415px" viewBox="0 0 456 415" enable-background="new 0 0 456 415" xml:space="preserve">
<g>
	<path fill="#84CABF" d="M215.533,209.911c-2.595-1.442-7.137-7.378-13.626-17.808c-5.576-8.988-9.277-15.574-11.104-19.755
		c-1.683-3.749-3.509-8.893-5.479-15.43c-2.355-7.498-3.125-11.56-2.307-12.184c1.25-0.913,4.999-1.466,11.247-1.658l2.163-7.282
		c1.683-4.903,3.101-7.354,4.254-7.354c1.153,0,7.33,4.543,18.529,13.627l16.438,13.627l3.461,6.993
		c3.413,5.672,7.812,10.887,13.195,15.646l-0.866,9.95c-1.488,7.354-4.614,12.881-9.371,16.582
		c-5.48,4.278-10.407,6.753-14.781,7.427C223.44,212.867,219.523,212.073,215.533,209.911"/>
	<path fill="#84CABF" d="M328.584,90.66c11.392,8.124,17.088,17.28,17.088,27.47c0,1.923-0.53,3.509-1.586,4.759l-2.38-3.245
		c-3.51,7.018-5.264,13.194-5.264,18.529c0,7.835,1.227,11.752,3.677,11.752c1.107,0,2.114-0.528,3.029-1.586l1.082-1.658
		l2.018,2.523c1.299,2.211,1.947,4.566,1.947,7.065c0,2.548-0.842,4.759-2.523,6.633l-2.523,2.091
		c-1.538,7.114-6.682,13.699-15.431,19.755c-9.612,6.634-20.306,9.95-32.084,9.95c-17.88,0-33.452-6.416-46.718-19.25
		c-12.884-12.401-19.324-26.388-19.324-41.961c0-16.486,6.44-30.017,19.324-40.592c11.822-9.661,25.545-14.492,41.168-14.492
		C304.311,78.403,317.144,82.488,328.584,90.66"/>
	<path fill="#84CABF" d="M326.781,187.633c2.307,1.009,4.59,2.114,6.85,3.316c3.653,1.971,8.676,5.119,15.067,9.445h4.615
		c3.124,0.144,4.735,0.553,4.831,1.225c0.24,1.01-0.145,3.461-1.154,7.354l2.668,1.155c1.826,0.863,2.811,1.633,2.956,2.306
		c0.241,1.01-1.586,3.461-5.479,7.354c1.249,1.827,1.536,3.486,0.864,4.975c-0.625,1.348-3.677,2.981-9.156,4.904
		c-6.2,2.114-12.138,3.173-17.809,3.173c-5.191,0-10.143-0.724-14.853-2.164l-5.552-2.164c0.722-6.055,0.961-12.062,0.722-18.022
		c-0.145-3.702-0.864-7.692-2.162-11.97l-1.948-5.335l9.229-2.885c1.635-0.576,4.159-1.85,7.571-3.821L326.781,187.633"/>
	<path fill="#84CABF" d="M198.302,248.268c2.595,0,5.599,1.515,9.012,4.543c3.99,3.508,7.162,8.099,9.517,13.77
		c5.624,13.65,7.451,22.64,5.479,26.966c-0.72,1.683-2.619,4.591-5.695,8.724c-4.038,5.432-6.777,9.275-8.219,11.536l-9.229,13.337
		c-3.509,4.809-5.576,7.332-6.201,7.571c-0.77,0.337-4.134-2.523-10.094-8.579c-9.95,3.989-15.165,5.863-15.646,5.624
		c-0.432-0.192-0.937-3.605-1.514-10.239c-7.787-4.133-11.729-6.825-11.825-8.074c-0.048-0.769,1.659-2.716,5.119-5.84l5.192-4.47
		c0.336-3.942,0.984-8.364,1.946-13.267c1.97-9.854,4.638-17.256,8.003-22.207C182.848,254.732,190.9,248.268,198.302,248.268"/>
	<path fill="#84CABF" d="M280.495,281.722c3.988-2.596,8.291-6.802,12.904-12.617l5.769-8.003l7.498,6.993
		c4.951,5.865,7.426,11.824,7.426,17.88c0,4.278-0.337,7.764-1.009,10.455l-1.081,2.74l5.912,2.955
		c3.845,2.115,5.647,3.605,5.406,4.471c-0.192,0.961-2.067,2.644-5.624,5.046c-0.288,0.193-0.07,0.579,0.649,1.155
		c0.721,0.623,0.89,1.057,0.506,1.298c-4.952,2.979-11.633,5.96-20.045,8.939c-7.979,2.883-12.952,4.206-14.925,3.965
		c-1.247-0.145-3.797-2.643-7.643-7.498c-3.412-4.325-5.479-7.28-6.198-8.867c-0.434-0.914-3.557-3.845-9.374-8.797l-8.651-7.138
		C264.561,290.133,274.054,285.809,280.495,281.722"/>
	<path fill="#84CABF" d="M93.181,210.561c0-13.075,4.302-23.865,12.906-32.373c8.171-8.123,17.977-12.185,29.417-12.185
		c10.287,0,18.506,3.629,24.658,10.887c6.393,7.498,9.589,17.88,9.589,31.147l-1.37,13.914c-0.914,7.836-1.371,14.492-1.371,19.972
		c0,6.009,1.346,11.897,4.038,17.665c1.298,2.836,2.62,5.094,3.966,6.776l-3.172,6.633l-3.46,8.941
		c-3.365-0.049-7.451-0.649-12.257-1.804c-9.613-2.403-18.024-6.464-25.234-12.184c-10.526-8.411-19.202-17.448-26.028-27.11
		C97.075,229.787,93.181,219.693,93.181,210.561"/>
	<path fill="#F2E100" d="M252.304,178.332l7.354,4.759c6.056,3.605,11.992,6.513,17.808,8.724c5.816,2.211,12.523,3.1,20.117,2.667
		l9.66-1.297l2.307,7.354c1.49,5.912,2.235,11.535,2.235,16.871c0,21.534-7.474,40.161-22.423,55.876
		c-15.188,15.958-33.477,23.938-54.866,23.938c-3.604,0-6.777-0.407-9.517-1.227l-3.029-1.297c0.53-2.162,0.649-5.095,0.361-8.795
		c-0.625-7.402-3.052-14.973-7.282-22.712c-4.182-7.738-8.531-12.568-13.05-14.492c-1.394-0.625-2.715-0.913-3.965-0.864
		l-1.514,0.216l4.253-3.82c3.317-3.558,6.249-7.764,8.796-12.618c2.596-4.854,4.375-9.829,5.336-14.924l0.648-6.129l2.02,0.937
		c1.73,0.625,3.557,1.01,5.479,1.153c6.199,0.386,12.306-1.898,18.313-6.849c5.095-4.182,8.436-10.021,10.021-17.519
		L252.304,178.332"/>
	<path fill="#EEEEEF" d="M209.477,204.288c1.202,1.683,3.34,3.75,6.417,6.202l-1.081,6.704c-1.154,5.287-2.836,9.974-5.047,14.061
		c-2.163,4.132-5.095,8.194-8.796,12.184l-4.902,4.759l-2.235,0.792l-4.614,1.947c-1.298,0.673-2.909,1.995-4.831,3.966
		l-2.523,2.812c0.433-2.74,1.009-5.696,1.729-8.867c1.394-6.297,2.74-10.479,4.038-12.547c0.865-1.345,2.908-3.772,6.129-7.281
		c3.076-3.413,5.382-6.441,6.921-9.085c1.731-2.979,2.884-7.546,3.46-13.699l0.433-8.363L209.477,204.288"/>
	<path fill="#CF7100" d="M204.07,206.018c-0.433,6.632-1.562,11.44-3.389,14.42c-1.539,2.595-4.062,5.768-7.57,9.517
		c-3.413,3.604-5.503,6.104-6.272,7.497c-1.73,3.077-3.46,9.542-5.191,19.395l-6.633,9.518c-1.346-1.297-2.667-3.363-3.966-6.2
		c-2.691-5.72-4.038-12.498-4.038-20.331c0-18.362,3.894-35.425,11.681-51.191c3.893-7.883,7.787-13.915,11.679-18.097l6.562,12.689
		l7.209,13.699L204.07,206.018"/>
	<path fill="#EEEEEF" d="M220.941,143.652l7.932-5.479l4.325,16.583L220.941,143.652"/>
	<path fill="#C6000B" d="M266.219,135.866c-0.48-0.865-0.576-3.124-0.288-6.777c0.384-4.038,1.153-8.002,2.306-11.896
		c3.365-10.911,8.557-16.366,15.575-16.366c2.834,0,4.926,1.971,6.272,5.912c1.634,4.662,1.273,10.574-1.082,17.736
		c-1.25,3.75-2.836,7.186-4.759,10.311c-1.875,3.027-3.461,4.806-4.758,5.335c-1.153,0.433-3.605-0.024-7.356-1.37
		C268.526,137.452,266.554,136.49,266.219,135.866"/>
	<path fill="#C6000B" d="M341.706,119.644c0.722,0,1.609,1.034,2.667,3.1c1.443,2.788,2.163,6.201,2.163,10.239
		c0,4.566-0.793,8.651-2.379,12.257c-1.49,3.364-3.027,5.046-4.613,5.046c-2.309,0-3.462-3.245-3.462-9.733
		c0-5.191,0.938-10.238,2.812-15.141L341.706,119.644"/>
	<path fill="#FFFFFF" d="M279.99,140.336c2.547-2.403,4.59-4.999,6.128-7.786c1.539-2.837,2.908-5.769,4.11-8.796l-0.866,7.858
		c-0.816,5.335-1.778,8.291-2.883,8.868l-4.254,0.433L279.99,140.336"/>
	<path fill="#0D131A" d="M280.856,108.18c1.2,0.241,2.114,1.491,2.738,3.75c0.625,2.403,0.649,5.191,0.073,8.363
		c-0.528,2.836-1.516,5.191-2.957,7.065c-1.489,1.971-3.027,2.789-4.613,2.452c-1.54-0.337-2.573-1.707-3.101-4.11
		c-0.529-2.211-0.48-4.735,0.144-7.571c0.721-3.269,1.899-5.864,3.532-7.787C278.163,108.66,279.558,107.939,280.856,108.18"/>
	<path fill="#0D131A" d="M338.03,141.995c-0.722-0.24-1.131-1.226-1.228-2.956c-0.096-1.49,0.049-3.148,0.434-4.975
		s0.986-3.485,1.803-4.975c0.962-1.682,1.851-2.331,2.668-1.946c0.865,0.385,1.321,1.514,1.369,3.389
		c0.096,1.538-0.097,3.364-0.576,5.479c-0.384,1.683-1.106,3.173-2.163,4.47C339.374,141.634,338.607,142.139,338.03,141.995"/>
	<path fill="#FFFFFF" d="M282.874,101.547c0.911,0.529,1.683,1.658,2.306,3.389c0.675,2.115,0.698,4.182,0.072,6.201
		c-0.673,2.211-1.898,3.845-3.677,4.902c-1.586,1.01-3.077,1.273-4.471,0.793c-1.729-0.528-2.883-1.73-3.459-3.605
		c-0.577-1.923-0.409-4.109,0.504-6.561c0.769-2.019,2.212-3.557,4.326-4.614C280.399,101.09,281.864,100.922,282.874,101.547"/>
	<path fill="#FFFFFF" d="M341.562,122.167c0.433,0.144,0.769,0.721,1.01,1.731c0.239,1.057,0.239,2.138,0,3.244
		c-0.722,3.316-1.634,4.879-2.739,4.686c-0.674-0.144-1.107-0.721-1.299-1.73c-0.192-1.009-0.119-2.211,0.217-3.604
		C339.615,123.32,340.551,121.878,341.562,122.167"/>
	<path fill="#CBBD00" d="M252.304,178.332l8.94,5.191c7.498,3.797,14.948,6.657,22.35,8.58c4.663,1.153,10.021,1.586,16.079,1.297
		l7.643-0.793l1.082,2.668c-1.155,1.01-2.838,2.043-5.048,3.101c-4.422,2.019-9.301,3.028-14.636,3.028
		c-5.865,0-13.075-2.98-21.63-8.94C259.394,187.08,254.466,182.37,252.304,178.332"/>
	<path fill="#CBBD00" d="M277.25,283.74c-13.074,8.989-27.086,13.482-42.034,13.482l-9.373-1.227l-3.894-1.297l0.793-3.459
		c0.385-2.742,0.336-5.17-0.144-7.284l-1.297-6.992l-0.505-3.245c9.709,3.51,21.87,5.12,36.481,4.832
		c16.055-0.289,27.759-3.054,35.113-8.291C288.833,274.775,283.785,279.27,277.25,283.74"/>
	<path fill="#72B0A6" d="M208.757,158.938c-0.482,1.538-1.058,2.499-1.731,2.884c-0.625,0.385-1.082-0.047-1.37-1.298
		c-0.433-2.211-0.601-5.046-0.505-8.507l0.288-4.542c0-1.634,0.241-2.812,0.721-3.533c0.529-0.913,1.202-0.265,2.019,1.946
		C209.862,150.406,210.053,154.756,208.757,158.938"/>
	<path fill="#72B0A6" d="M215.029,210.129c-3.028-2.309-7.33-7.86-12.905-16.656c-4.951-7.883-8.484-14.299-10.599-19.25
		c-1.683-3.845-3.365-8.387-5.047-13.627c-1.442-4.421-2.428-7.811-2.956-10.166c-0.625-2.596-0.505-4.182,0.36-4.758
		c1.01-0.722,2.788,0.865,5.336,4.758l26.821,32.444c14.563,17.545,21.029,26.773,19.395,27.687
		c-2.645,1.49-5.721,2.331-9.229,2.523C221.734,213.372,218.009,212.387,215.029,210.129"/>
	<path fill="#72B0A6" d="M329.882,232.766c-5.336,0-10.142-0.696-14.421-2.09l-4.83-2.164l1.153-11.103
		c3.222,1.922,9.181,3.774,17.882,5.553c10.719,2.211,20.163,2.812,28.334,1.801c-0.913,1.348-2.763,2.693-5.551,4.038
		C346.824,231.445,339.303,232.766,329.882,232.766"/>
	<path fill="#72B0A6" d="M278.188,283.524c-2.405,1.73-3.148,4.229-2.235,7.498c0.817,3.125,2.956,6.249,6.416,9.372
		c8.459,7.644,18.481,10.743,30.065,9.302l-2.161-0.937c-1.636-0.626-2.357-0.963-2.165-1.011l7.787-0.72l7.859-1.659
		c-1.01,2.019-2.98,4.062-5.912,6.128c-0.193,0.096-0.072,0.506,0.36,1.227c0.431,0.673,0.528,1.081,0.288,1.225
		c-2.02,1.298-6.2,3.51-12.545,6.634c-6.297,3.028-11.753,4.999-16.367,5.912l-6.56,0.288c-1.107-0.336-5.192-5.792-12.258-16.366
		l-19.106-14.996l5.623-2.019l9.662-3.894C270.641,287.826,274.389,285.831,278.188,283.524"/>
	<path fill="#72B0A6" d="M154.466,313.949c-0.193-0.913,1.97-0.384,6.489,1.587c4.325,1.874,6.2,3.701,5.623,5.479l-6.632-2.234
		L154.466,313.949"/>
	<path fill="#72B0A6" d="M182.368,325.846l-9.373,4.326l-3.966,0.865l-2.451,0.288l0.649-2.306c0.289,0.432,2.259-0.338,5.912-2.309
		c4.23-2.21,6.777-3.412,7.643-3.604c1.346-0.336,2.163-0.049,2.452,0.865C183.473,324.789,183.185,325.414,182.368,325.846"/>
	<path fill="#72B0A6" d="M189.433,332.479c0.481,0.241,1.971-1.13,4.471-4.108c2.499-2.98,4.374-5.647,5.623-8.004l11.68-22.565
		c6.393-13.075,9.349-20.813,8.868-23.218l2.019,7.283c1.154,5.432,1.106,9.709-0.145,12.833c-1.105,2.788-2.739,5.432-4.902,7.932
		c-3.22,3.653-5.648,6.729-7.282,9.229c-10.19,15.573-15.67,23.36-16.438,23.36l-2.38-1.37L189.433,332.479"/>
	<path fill="#72B0A6" d="M172.418,271.267l-4.037,10.672c-3.221,0.144-7.307-0.41-12.257-1.658
		c-9.902-2.501-19.154-7.209-27.758-14.132c-8.988-7.21-16.558-15.262-22.71-24.153l-6.489-11.175
		c9.277,5.094,14.588,7.714,15.934,7.859c1.394,0.191,6.008-0.817,13.843-3.028c4.807,9.9,12.064,18.505,21.774,25.812
		C159.416,267.999,166.65,271.267,172.418,271.267"/>
	<path fill="#72B0A6" d="M94.768,196.357c1.058-3.413,2.523-6.682,4.398-9.806l2.452-3.677c-1.539,8.46-0.985,16.078,1.658,22.855
		c2.307,5.912,5.912,10.574,10.815,13.987c4.519,3.172,9.229,4.687,14.131,4.542c4.999-0.192,8.868-2.09,11.608-5.694l-0.938,3.531
		c-0.816,2.645-1.802,4.832-2.956,6.562c-1.538,2.355-4.014,4.541-7.426,6.562c-3.894,2.307-7.594,3.461-11.104,3.461
		c-3.701,0-7.354-1.105-10.958-3.317c-3.509-2.114-6.177-4.734-8.003-7.857C92.629,217.649,91.403,207.268,94.768,196.357"/>
	<path fill="#A95B00" d="M176.384,194.194c1.682-4.038,3.484-7.619,5.407-10.743l2.38-3.533c-3.413,9.084-4.663,20.86-3.75,35.328
		c0.865,13.508,2.812,21.871,5.84,25.092l-4.614,16.509l-6.633,9.518c-1.442-0.961-2.86-2.835-4.254-5.623
		c-2.788-5.575-3.965-13.001-3.533-22.278C167.996,221.784,171.048,207.027,176.384,194.194"/>
	<path fill="#C8C9CA" d="M203.853,240.049l-6.633,8.003l-3.172,0.937c-2.356,0.818-4.206,1.659-5.552,2.524l-6.85,5.334
		c0.913-4.757,1.61-8.05,2.091-9.876l1.515-4.398l1.009-2.234c0.433,1.345,2.211,2.162,5.335,2.45
		C195.393,243.123,199.479,242.212,203.853,240.049"/>
	<path fill="#0D131A" d="M339.615,99.816c3.652,4.759,6.011,9.421,7.066,13.987c1.058,4.519,0.601,7.882-1.37,10.094
		c-0.191,0.24-0.457-0.168-0.793-1.226c-0.336-1.105-0.432-1.803-0.287-2.091c1.152-1.875,0.937-4.782-0.649-8.724
		c-1.636-4.037-4.278-8.146-7.93-12.329c-9.23-10.526-20.118-16.727-32.663-18.601c-17.832-2.691-33.502,0.288-47.008,8.94
		c-13.507,8.652-21.51,20.861-24.009,36.626c-2.403,15.285,1.754,29.224,12.473,41.817c10.67,12.498,24.873,20.212,42.61,23.144
		c12.45,2.066,24.225,0.216,35.329-5.551c10.479-5.48,16.968-12.546,19.466-21.198l1.299,0.072c0.721,0.337,1.033,0.674,0.938,1.01
		c-2.598,9.132-9.398,16.583-20.405,22.351c-11.583,6.007-23.937,7.93-37.058,5.767c-18.457-3.077-33.382-11.199-44.772-24.369
		c-11.537-13.314-16.031-27.902-13.483-43.764c2.689-16.967,10.934-29.825,24.729-38.573c13.843-8.796,30.618-11.704,50.324-8.724
		C318.467,80.734,330.531,87.849,339.615,99.816"/>
	<path fill="#0D131A" d="M343.437,146.825c-0.144-0.144,0.023-0.433,0.506-0.865c0.479-0.384,0.841-0.48,1.08-0.288
		c2.932,2.787,4.303,6.416,4.109,10.886c-0.24,4.423-1.874,7.739-4.901,9.95l-1.587-0.144c-0.576-0.577-1.273-1.106-2.093-1.587
		c-1.151-0.672-2.185-1.009-3.1-1.009l-7.785,3.244c-5.048,2.115-8.989,3.125-11.824,3.028c-1.202-0.048-4.183-1.49-8.94-4.326
		c-5.336-3.173-8.629-4.975-9.878-5.407c-2.019-0.673-5.983-1.562-11.896-2.667l-13.267-2.02c-3.364-0.335-6.608-1.706-9.733-4.109
		c-2.979-2.259-5.238-4.926-6.776-8.002c-0.723-1.49-0.818-2.355-0.289-2.596c0.481-0.24,1.083,0.384,1.803,1.874
		c1.298,2.644,3.39,4.951,6.272,6.922c2.934,1.971,5.937,3.124,9.013,3.46l13.481,2.019c6.106,1.154,10.191,2.115,12.258,2.885
		c1.25,0.48,4.47,2.235,9.66,5.263c4.663,2.74,7.499,4.158,8.509,4.254c2.596,0.192,6.393-0.769,11.391-2.884l7.859-3.388
		c2.066-0.096,4.158,0.769,6.273,2.596c1.729-1.539,2.69-4.085,2.883-7.643C346.658,152.376,345.648,149.228,343.437,146.825"/>
	<path fill="#0D131A" d="M310.559,152.954c0.576-0.289,1.443,0.456,2.596,2.234c1.202,1.779,1.419,2.836,0.649,3.172
		c-0.769,0.337-1.636-0.409-2.596-2.235C310.246,154.25,310.031,153.194,310.559,152.954"/>
	<path fill="#0D131A" d="M329.81,157.64c0.288,0.577-0.266,1.394-1.659,2.451c-1.345,1.009-2.161,1.322-2.451,0.937
		c-0.288-0.385,0.266-1.201,1.66-2.452C328.703,157.327,329.522,157.015,329.81,157.64"/>
	<path fill="#0D131A" d="M339.544,112.361l1.656-0.216c0.192,0.289-0.144,0.722-1.007,1.298l-1.731,1.803l-1.73,2.739
		c-0.434,0.913-0.914,1.226-1.441,0.938c-0.529-0.289-0.603-0.889-0.218-1.803C336.179,114.765,337.669,113.178,339.544,112.361"/>
	<path fill="#0D131A" d="M288.714,96.645c-0.914-0.481-1.298-0.938-1.153-1.371c0.191-0.384,0.745-0.384,1.656,0
		c1.731,0.77,3.174,1.875,4.326,3.317c1.249,1.586,1.973,3.341,2.165,5.263c0.096,1.538-0.122,2.332-0.649,2.379
		c-0.578,0-0.985-0.721-1.226-2.164C293.159,100.706,291.453,98.231,288.714,96.645"/>
	<path fill="#0D131A" d="M290.444,134.64c-1.249,4.326-2.379,6.706-3.389,7.138c-1.971,0.865-5.985,0.529-12.04-1.009
		c-6.297-1.586-9.686-3.317-10.166-5.192c-0.432-1.73-0.432-4.518,0-8.363c0.433-4.326,1.298-8.435,2.595-12.329
		c3.557-10.623,8.822-15.693,15.791-15.213c7.16,0.48,10.334,7.426,9.518,20.836C292.463,125.412,291.694,130.122,290.444,134.64
		 M283.089,102.124c-2.786-0.192-5.335,1.105-7.642,3.894c-2.308,2.836-4.255,7.065-5.84,12.689
		c-0.817,2.885-1.467,6.273-1.946,10.167c-0.432,3.364-0.577,5.408-0.432,6.128l0.359,0.432l1.37,0.938
		c2.163,1.106,5.383,2.019,9.661,2.74l7.354,0.504c0.624-0.672,1.369-2.812,2.236-6.417c1.007-4.038,1.633-7.978,1.874-11.824
		l0.144-4.398c0-5.672-0.793-9.709-2.379-12.112C286.694,103.181,285.109,102.268,283.089,102.124"/>
	<path fill="#0D131A" d="M289.507,109.19c-0.049-0.336,0.287-0.553,1.009-0.649c0.721-0.096,1.105,0.024,1.153,0.36
		c0.722,4.71,0.241,10.022-1.441,15.934c-1.922,6.826-4.903,11.92-8.94,15.285l-1.154-0.144c-0.575-0.192-0.746-0.385-0.504-0.577
		c3.845-3.364,6.681-8.339,8.508-14.924C289.771,118.706,290.228,113.611,289.507,109.19"/>
	<path fill="#0D131A" d="M344.157,125.339c-0.625-2.067-1.394-3.581-2.308-4.542c-1.346,2.596-2.428,5.816-3.243,9.661
		c-0.722,3.605-1.081,7.066-1.081,10.382c0,2.932,0.31,5.263,0.937,6.993c0.337,0.817,0.648,1.226,0.938,1.226
		c0.624,0.048,1.225-0.168,1.801-0.649c1.06-0.865,1.948-2.5,2.669-4.902c0.673-2.403,1.106-5.288,1.298-8.652l0.071-1.803
		C345.239,130.266,344.879,127.694,344.157,125.339 M342.644,117.048c0.576-0.625,0.841-0.649,0.793-0.072l-0.793,2.307
		c1.634,1.25,2.933,3.484,3.893,6.705c0.915,3.028,1.272,6.033,1.081,9.013c-0.336,5.912-1.417,10.334-3.244,13.266
		c-1.49,2.355-3.22,3.437-5.19,3.245c-1.249-0.096-2.235-1.033-2.957-2.812c-1.395-3.412-1.465-8.531-0.217-15.357
		C337.356,126.084,339.567,120.653,342.644,117.048"/>
	<path fill="#0D131A" d="M220.797,144.878l-1.73-1.802c2.691-3.317,6.032-5.336,10.02-6.056c0.482-0.097,0.746,0.312,0.794,1.225
		c0.048,0.913-0.145,1.418-0.575,1.514C225.844,140.721,223.008,142.427,220.797,144.878"/>
	<path fill="#0D131A" d="M189.722,168.815l1.802,3.533c-5.047,6.777-9.421,14.131-13.122,22.062
		c-5.336,11.247-8.532,23.84-9.589,37.781c-1.202,15.62,1.154,26.747,7.065,33.38c0.241,0.241,0.073,0.625-0.505,1.153
		c-0.576,0.529-0.985,0.674-1.225,0.433c-6.297-7.017-9.108-18.672-8.436-34.966c0.577-14.95,3.557-28.072,8.94-39.368
		C178.787,184.124,183.81,176.121,189.722,168.815"/>
	<path fill="#0D131A" d="M202.267,209.262c0.865-5.719,0.937-10.55,0.217-14.491c-0.096-0.289,0.36-0.024,1.37,0.793
		c0.961,0.817,1.466,1.394,1.514,1.73c0.818,4.374,0.746,9.109-0.216,14.203c-0.913,4.854-2.331,8.652-4.254,11.392l-7.498,8.581
		c-2.692,2.787-4.422,4.974-5.192,6.561c-1.201,2.595-2.355,5.743-3.46,9.444c-1.058,3.7-1.707,6.608-1.947,8.725l-1.298,2.018
		l-1.226,1.083c0.384-3.221,1.13-7.019,2.235-11.392c1.202-4.566,2.403-8.172,3.605-10.815c0.865-1.874,2.812-4.471,5.84-7.787
		l6.632-8.004C200.177,218.804,201.402,214.789,202.267,209.262"/>
	<path fill="#0D131A" d="M174.582,197.078c0.048-0.336,0.456-0.409,1.225-0.216c0.77,0.144,1.13,0.36,1.083,0.649
		c-1.058,5.383-0.77,11.993,0.865,19.829c1.827,8.506,4.831,16.028,9.012,22.565c0.192,0.29-0.048,0.648-0.721,1.081l-1.226,0.146
		c-4.999-7.739-8.315-15.67-9.949-23.792C173.38,210.225,173.283,203.471,174.582,197.078"/>
	<path fill="#0D131A" d="M214.091,210.129c0-0.289,0.457-0.218,1.37,0.215l1.37,0.865c-0.288,13.892-6.608,26.221-18.961,36.987
		c-0.241,0.192-0.865,0.192-1.875,0c-0.962-0.192-1.322-0.385-1.082-0.578c4.47-3.412,8.652-8.579,12.545-15.502
		C211.88,224.235,214.091,216.905,214.091,210.129"/>
	<path fill="#0D131A" d="M305.946,193.689c-0.145-0.337,0.145-0.649,0.865-0.938c0.72-0.337,1.13-0.337,1.226,0
		c3.413,7.738,5.118,15.117,5.118,22.133c0,33.358-12.953,57.488-38.86,72.389c-9.662,5.576-19.876,9.061-30.644,10.454
		c-9.612,1.202-16.942,0.554-21.989-1.945c-0.289-0.146-0.265-0.554,0.072-1.227c0.336-0.722,0.648-1.01,0.937-0.865
		c4.999,2.499,12.161,3.028,21.485,1.587c10.239-1.539,19.971-5.12,29.2-10.744c10.911-6.632,19.491-15.284,25.738-25.956
		c7.402-12.496,11.103-27.061,11.103-43.692C310.198,207.388,308.781,200.322,305.946,193.689"/>
	<path fill="#0D131A" d="M247.761,198.375c-0.096-0.241,0.096-0.745,0.576-1.514c0.529-0.721,0.841-0.937,0.938-0.649
		c1.972,4.711,5.527,8.941,10.671,12.69c5.191,3.7,11.368,6.464,18.53,8.291c6.488,1.683,12.665,2.308,18.529,1.875
		c5.865-0.482,10.333-1.947,13.411-4.397c0.239-0.193,0.602,0.022,1.08,0.647c0.48,0.626,0.602,1.033,0.361,1.227
		c-3.46,2.738-8.269,4.447-14.419,5.118c-6.347,0.722-12.907,0.218-19.685-1.514c-7.065-1.826-13.289-4.734-18.672-8.724
		C253.891,207.628,250.115,203.278,247.761,198.375"/>
	<path fill="#0D131A" d="M292.391,220.51c-0.817,9.421-4.808,22.158-11.968,38.211c-7.354,16.488-13.892,26.75-19.611,30.788
		l-1.082-0.649c-0.434-0.624-0.529-1.033-0.288-1.226c4.662-3.316,10.813-13.53,18.457-30.642
		c7.45-16.729,11.511-28.96,12.186-36.698c0-0.337,0.385-0.457,1.152-0.361C292.055,219.98,292.439,220.173,292.391,220.51"/>
	<path fill="#0D131A" d="M238.748,206.234l0.866,0.289l0.361,0.793l1.226,18.89l0.865,17.088l-0.29,0.793l-8.147,7.93
		c-6.2,5.575-11.991,9.71-17.375,12.401l-0.865,0.072l-0.722-0.577l-0.072-0.504c0-0.481,0.217-0.841,0.649-1.083
		c7.401-3.701,15.572-10.188,24.513-19.465l-0.938-16.943l-1.152-18.458v-0.072C237.668,206.619,238.028,206.234,238.748,206.234"/>
	<path fill="#0D131A" d="M276.457,261.535l11.319,0.503c4.614-0.145,8.291-0.575,11.03-1.297c0.337-0.048,0.384,0.288,0.145,1.009
		l-0.794,1.153c-2.689,0.914-6.198,1.539-10.526,1.876c-4.469,0.384-8.506,0.336-12.11-0.146
		c-7.162-0.913-13.868-3.148-20.118-6.705c-6.103-3.508-10.885-7.787-14.346-12.833c-0.192-0.29-0.17-0.841,0.07-1.658
		c0.193-0.817,0.386-1.105,0.579-0.865c3.076,4.565,7.953,8.603,14.634,12.112C262.541,257.905,269.247,260.189,276.457,261.535"/>
	<path fill="#0D131A" d="M222.671,287.202c-0.337-0.049-0.433-0.387-0.289-1.01c0.097-0.626,0.313-0.914,0.649-0.865l18.313,1.73
		c8.748,0.529,14.974,0.647,18.674,0.359l0.793,0.217l0.433,0.721l0.359,3.604c0.098,0.337-0.191,0.578-0.865,0.722l-1.081-0.216
		l-0.506-2.668l-19.032-0.577L222.671,287.202"/>
	<path fill="#0D131A" d="M203.204,250.647c-2.018-1.395-4.421-1.778-7.209-1.155c-2.692,0.53-5.503,1.997-8.436,4.398
		c-4.182,3.414-8.244,8.461-12.186,15.142c-2.979,4.998-5.575,12.161-7.787,21.485c-1.057,4.663-1.851,8.868-2.379,12.618
		l-0.433,0.721l-6.561,5.767c-1.875,1.922-2.811,3.174-2.811,3.749c0.096,0.577,1.249,1.538,3.46,2.886
		c2.163,1.394,4.662,2.716,7.499,3.965c0.48,0.144,0.72,0.48,0.72,1.01c0,4.76,0.313,7.715,0.938,8.867
		c1.922-0.385,6.777-2.163,14.564-5.335l1.37,0.29l4.903,5.333c1.778,1.683,2.956,2.597,3.533,2.74
		c0.913-0.48,3.124-3.147,6.632-8.003l7.499-11.104c1.634-2.643,5.143-7.475,10.526-14.49l2.812-3.678
		c1.201-1.54,1.803-3.967,1.803-7.282l-0.36-4.831c-1.01-6.345-3.269-12.762-6.778-19.25
		C210.967,258.05,207.194,253.436,203.204,250.647 M165.352,287.561c1.875-9.132,4.254-16.124,7.138-20.98
		c5.288-8.892,11.151-14.852,17.592-17.88c5.672-2.739,10.479-2.739,14.42,0c7.979,5.576,13.794,14.156,17.447,25.74
		c3.461,11.055,3.365,18.913-0.288,23.576c-5.96,7.45-10.334,13.193-13.122,17.23l-7.787,12.401
		c-3.701,5.863-6.176,8.917-7.426,9.156c-1.874,0.434-5.408-2.764-10.599-9.589c-3.317,2.115-6.633,3.846-9.949,5.192
		c-3.22,1.297-5.288,1.778-6.201,1.441c-0.769-0.288-1.273-1.275-1.514-2.956c-0.145-1.297-0.24-4.255-0.289-8.869l-8.147-3.461
		c-3.46-1.683-5.262-3.147-5.407-4.398c-0.096-1.055,0.793-2.594,2.667-4.612c2.115-2.308,5.144-4.712,9.084-7.21L165.352,287.561"
		/>
	<path fill="#0D131A" d="M311.065,279.487c-2.501-7.21-6.898-13.003-13.195-17.376c-0.191-0.146,0.121-0.648,0.938-1.514
		c0.771-0.914,1.299-1.275,1.587-1.083c7.019,4.903,11.679,11.584,13.987,20.043c2.067,7.548,1.825,13.94-0.722,19.181
		c7.737,3.315,11.608,5.91,11.608,7.785c0,1.155-2.284,3.244-6.849,6.273l-2.236-1.875c3.894-2.354,5.842-3.87,5.842-4.542
		c0-0.528-1.107-1.395-3.317-2.596c-2.019-1.153-4.398-2.282-7.139-3.39l-0.793-0.719l0.289-1.082
		C313.516,292.873,313.516,286.504,311.065,279.487"/>
	<path fill="#0D131A" d="M324.546,186.262c0.722-0.72,1.179-1.033,1.371-0.937c3.316,1.202,7.834,3.652,13.554,7.354
		c6.201,3.941,10.431,7.307,12.689,10.094c0.529,0.672,0.601,1.225,0.217,1.658c-0.433,0.384-0.915,0.24-1.442-0.433
		c-2.163-2.691-6.681-6.032-13.554-10.021c-6.25-3.605-10.768-5.768-13.557-6.489C323.536,187.393,323.778,186.984,324.546,186.262"
		/>
	<path fill="#0D131A" d="M348.629,200.25c-0.578-0.529-0.722-0.817-0.434-0.865l6.488-0.288c2.595,0.192,4.182,0.673,4.76,1.442
		c0.336,0.481,0.359,1.538,0.07,3.172l-1.298,4.542c3.798,1.153,5.817,2.499,6.058,4.038c0.047,0.527-0.41,1.465-1.371,2.812
		c-1.153,1.635-2.764,3.317-4.83,5.047c0.961,1.202,1.441,2.499,1.441,3.894c0,1.394-1.465,2.956-4.398,4.687
		c-3.074,1.779-6.873,3.174-11.391,4.181c-11.775,2.645-22.903,1.587-33.383-3.172c-0.336-0.144-0.384-0.673-0.145-1.587
		c0.192-0.961,0.434-1.369,0.723-1.224c2.691,1.2,6.008,2.21,9.949,3.027l14.926,1.442c4.901,0,9.781-1.06,14.634-3.174
		c4.231-1.874,6.347-3.316,6.347-4.325c0-0.818-0.386-1.947-1.154-3.389c-0.288-0.48-0.24-0.938,0.144-1.371
		c3.317-3.316,5.096-5.503,5.336-6.56c-0.432-0.721-1.971-1.562-4.614-2.523l-0.792-0.504v-0.866
		c0.864-3.028,1.296-5.239,1.296-6.633v-0.144l-2.883-0.577l-4.326-0.216L348.629,200.25"/>
	<path fill="#0D131A" d="M129.303,198.592c-1.538-0.433-2.979-0.433-4.326,0c-1.346,0.48-2.403,1.321-3.173,2.523
		c-0.576,0.961-1.081,1.322-1.514,1.082c-0.433-0.241-0.408-0.841,0.072-1.803c1.009-2.019,2.355-3.341,4.038-3.965
		c1.49-0.529,3.34-0.553,5.552-0.072c3.749,0.816,6.825,3.003,9.228,6.561c2.403,3.461,3.605,7.377,3.605,11.753
		c0,6.729-2.62,12.664-7.859,17.808c-5.191,5.047-11.104,7.57-17.736,7.57c-6.921,0-13.002-3.052-18.241-9.157
		c-5.383-6.199-8.075-13.505-8.075-21.918c0-13.218,4.759-24.201,14.275-32.949c8.796-8.075,18.915-12.112,30.354-12.112
		c11.729,0,20.62,4.134,26.676,12.401c6.105,8.268,8.989,20.188,8.652,35.76c-0.047,1.348-0.48,2.501-1.297,3.461
		c-0.817,0.915-1.202,0.89-1.153-0.072c0.913-15.813-1.827-28.021-8.22-36.625c-5.912-7.931-14.131-11.897-24.658-11.897
		c-9.613,0-18.433,3.582-26.46,10.743c-9.18,8.171-13.771,18.602-13.771,31.291c0,7.883,2.115,14.54,6.345,19.972
		c4.229,5.432,9.42,8.147,15.573,8.147c5.912,0,10.983-2.188,15.212-6.561c4.182-4.375,6.273-9.662,6.273-15.861
		c0-4.568-1.009-8.341-3.028-11.321C133.917,200.899,131.802,199.312,129.303,198.592"/>
	<path fill="#0D131A" d="M92.533,218.636c-0.096-0.289,0.288-0.359,1.153-0.216c0.865,0.145,1.322,0.312,1.37,0.504
		c5.672,16.583,15.79,30.93,30.354,43.042c14.612,12.209,29.104,18.314,43.475,18.314c0.337,0,0.385,0.504,0.144,1.514
		c-0.24,1.01-0.528,1.513-0.864,1.513c-14.516,0-29.249-6.295-44.197-18.889C108.731,251.585,98.252,236.323,92.533,218.636"/>
	<path fill="#0D131A" d="M250.142,296.141c-0.241-0.145,0.191-0.479,1.296-1.008c1.059-0.53,1.683-0.745,1.875-0.649
		c6.969,3.557,14.108,9.926,21.414,19.105l6.561,8.653c1.875,2.402,3.147,3.579,3.821,3.531c4.614-0.287,11.271-2.21,19.972-5.767
		c8.315-3.414,12.497-5.697,12.546-6.849c0.047-0.481-0.626-1.107-2.02-1.875c-1.395-0.771-3.052-1.418-4.976-1.948
		c-1.874-0.575-2.716-1.105-2.523-1.586l3.101-0.216c2.739,0.529,5.095,1.441,7.067,2.739c1.826,1.251,2.594,2.284,2.306,3.1
		c-1.011,3.029-6.297,6.417-15.862,10.167c-9.421,3.653-16.294,5.19-20.619,4.614c-1.06-0.144-5.096-4.302-12.114-12.473
		C264.104,306.403,256.823,299.892,250.142,296.141"/>
	<path fill="#0D131A" d="M234.64,152.954c0.336,0.192,0.624,0.961,0.864,2.307c0.289,1.297,0.289,1.85,0,1.658
		c-2.787-1.73-9.396-6.873-19.827-15.429c-9.325-7.642-14.252-11.416-14.781-11.319c-0.672,0.096-1.633,1.97-2.883,5.624
		c-1.154,3.509-1.875,6.513-2.163,9.013c-0.192,1.922-0.577,2.859-1.153,2.812c-0.578,0-0.865-0.961-0.865-2.884
		c0.048-3.75,0.697-7.547,1.946-11.393c1.346-3.988,2.788-6.151,4.327-6.489c1.441-0.288,6.705,3.341,15.789,10.887
		C226.949,146.969,233.198,152.041,234.64,152.954"/>
	<path fill="#0D131A" d="M252.375,178.26l1.228,0.721c0.288,3.077-0.096,6.802-1.155,11.176c-1.105,4.614-2.571,8.195-4.398,10.743
		c-4.373,6.056-9.805,10.07-16.294,12.041c-6.392,1.971-11.92,1.441-16.582-1.587c-6.009-3.894-13.603-15.141-22.783-33.742
		c-9.084-18.314-12.882-29.537-11.392-33.671c0.48-1.345,2.451-2.115,5.912-2.307l7.858,0.505c0.289,0.048,0.409,0.457,0.361,1.226
		c0,0.769-0.169,1.129-0.505,1.082c-2.019-0.145-4.133-0.145-6.345,0c-2.307,0.192-3.629,0.457-3.965,0.793
		c-1.25,3.556,2.259,14.034,10.526,31.435c8.557,17.976,15.766,28.863,21.63,32.661c4.085,2.69,8.94,3.027,14.564,1.009
		c5.624-2.019,10.455-5.84,14.491-11.464c1.874-2.595,3.413-6.032,4.616-10.31c1.152-4.278,1.513-7.69,1.08-10.238L252.375,178.26"
		/>
	<path fill="#0D131A" d="M212.145,143.004c2.355,1.538,3.965,2.956,4.831,4.254c0.913,1.441,1.033,2.379,0.36,2.811
		c-0.673,0.385-1.466-0.12-2.379-1.514c-0.577-0.913-1.826-1.898-3.749-2.957c-1.826-1.009-3.028-1.441-3.605-1.298
		c-0.48,0.481-0.841,1.972-1.081,4.471c-0.241,2.835-0.193,6.128,0.144,9.877c0.192,1.875-0.12,2.836-0.938,2.884
		c-0.769,0.048-1.226-0.865-1.37-2.74c-0.913-10.718-0.289-16.583,1.875-17.591C207.483,140.624,209.453,141.225,212.145,143.004"/>
</g>
</svg>
