<?xml version="1.0" encoding="utf-8"?>
<!-- Generator: Adobe Illustrator 16.0.0, SVG Export Plug-In . SVG Version: 6.00 Build 0)  -->
<!DOCTYPE svg PUBLIC "-//W3C//DTD SVG 1.1//EN" "http://www.w3.org/Graphics/SVG/1.1/DTD/svg11.dtd">
<svg version="1.1" id="Layer_1" xmlns="http://www.w3.org/2000/svg" xmlns:xlink="http://www.w3.org/1999/xlink" x="0px" y="0px"
	 width="456px" height="415px" viewBox="0 0 456 415" enable-background="new 0 0 456 415" xml:space="preserve">
<g>
	<path fill="#0D131A" d="M107.935,75.43c-0.684-14.524,0.913-22.983,4.79-25.378c2.928-1.825,6.179-0.399,9.752,4.277
		c4.41,5.665,7.946,13.25,10.607,22.754c3.231,11.595,4.752,24.788,4.562,39.577c0.152,3.46,0,6.976-0.456,10.55l-1.882,11.235
		l-2.395,13.345c-0.723,4.447-2.49,6.862-5.304,7.242c-3.497,0.456-7.736-2.129-12.717-7.756
		c-4.295-4.866-8.173-10.759-11.633-17.679c-2.662-5.285-3.479-9.524-2.453-12.717c1.103-3.459,4.068-3.612,8.896-0.457
		c-3.308-5.398-5.532-12.774-6.672-22.127c-1.331-10.797,0.323-17.412,4.961-19.846L107.935,75.43"/>
	<path fill="#AFCEE5" d="M119.682,55.869c9.353,7.414,14.751,27.697,16.197,60.849c0.151,3.384,0,6.843-0.457,10.379l-1.882,11.063
		l-2.396,13.344c-0.57,3.612-1.825,5.532-3.764,5.76c-2.814,0.342-6.539-2.015-11.178-7.071c-4.296-4.715-7.546-9.562-9.752-14.542
		c-3.27-7.528-4.144-12.015-2.623-13.459l3.992,0.229l5.19,1.368c1.292,0.418,2.11,0.285,2.452-0.399
		c0.38-0.723-0.38-1.426-2.281-2.11c-2.015-0.722-3.935-5.398-5.76-14.029c-1.825-8.554-2.338-15.188-1.54-19.903
		c0.646-4.03,1.806-6.634,3.479-7.813l0.399-0.228v-0.513c-0.305-14.675,1.217-22.849,4.562-24.522
		C115.615,53.588,117.401,54.121,119.682,55.869"/>
	<path fill="#93AEC1" d="M114.493,64.252c0.418-1.254,1.083-1.254,1.996,0l1.768,2.395c1.521,2.624,3.099,6.901,4.734,12.832
		c2.053,7.414,3.783,15.74,5.189,24.979c1.406,9.2,2.034,16.271,1.882,21.214c-0.19,5.551-1.369,6.862-3.536,3.935
		c-3.802-5.132-5.835-12.888-6.102-23.268l-0.285-11.177c-0.266-3.84-0.912-6.729-1.939-8.668
		c-2.357-4.334-3.726-9.809-4.106-16.424C113.942,67.37,114.075,65.431,114.493,64.252"/>
	<path fill="#0D131A" d="M117.743,66.875c-1.331-2.699-1.787-4.144-1.368-4.334c0.418-0.152,1.331,0.913,2.737,3.193
		c1.977,3.194,4.068,9.523,6.273,18.99c2.661,11.52,3.555,21.31,2.68,29.37l-2.281,2.794c0.837-7.755,0.077-17.583-2.281-29.484
		C121.565,77.597,119.645,70.753,117.743,66.875"/>
	<path fill="#0D131A" d="M154.698,176.483c4.867,2.472,9.105,9.543,12.717,21.215c3.498,11.291,4.696,20.967,3.593,29.027
		c-0.798,5.854-2.965,9.162-6.501,9.922c-6.615,1.256-15.53-1.424-26.746-8.04c-9.504-5.665-18.629-12.794-27.374-21.386
		c-11.786-11.633-17.716-22.013-17.793-31.137c0-2.281,0.438-4.486,1.312-6.615c0.875-2.129,2.091-3.973,3.65-5.532
		c4.296-4.296,14.124-3.935,29.483,1.083C135.632,167.796,144.851,171.617,154.698,176.483"/>
	<path fill="#88A3D4" d="M165.876,198.553c3.307,10.988,4.429,20.302,3.365,27.944c-0.646,5.057-2.338,7.852-5.076,8.383
		c-6.006,1.142-14.066-1.292-24.18-7.299c-8.973-5.284-17.888-12.28-26.746-20.986c-5.665-5.551-9.999-10.969-13.002-16.253
		c-3.042-5.285-4.582-10.075-4.619-14.372c0-4.068,1.388-7.528,4.163-10.379c3.422-3.421,11.349-3.326,23.781,0.286
		c9.39,2.737,19.503,6.805,30.339,12.204C158.424,180.362,162.416,187.186,165.876,198.553"/>
	<path fill="#778DB8" d="M145.003,207.964c2.358-2.053,5.247-5.266,8.669-9.639c3.992-5.132,6.748-8.478,8.269-10.037
		c2.699,5.626,4.752,12.109,6.159,19.447c1.483,7.49,1.863,13.743,1.141,18.762c-0.646,5.057-2.338,7.852-5.076,8.383
		c-5.398,1.065-12.527-0.817-21.385-5.645c-7.793-4.221-15.892-10.113-24.294-17.68
		C128.788,215.511,137.627,214.312,145.003,207.964"/>
	<path fill="#0D131A" d="M95.902,161.257c4.182-0.874,7.09-0.722,8.725,0.457c0.38,0.266,0.457,0.875,0.228,1.825l-0.969,3.023
		c-0.38,1.216-0.913,2.395-1.597,3.536c-0.798,1.368-1.463,2.053-1.996,2.053c-0.875,0-3.042-0.666-6.501-1.996
		c-3.878-1.482-6.083-2.756-6.616-3.82c-0.304-0.646-0.057-1.312,0.742-1.996C89.438,163.082,92.1,162.056,95.902,161.257"/>
	<path fill="#FFFFFF" d="M100.293,171.237c-0.76,0-2.681-0.646-5.76-1.939c-3.308-1.368-5.171-2.49-5.589-3.365v-0.114l0.513-0.798
		c1.331-1.141,3.517-1.977,6.558-2.509c3.308-0.608,5.684-0.399,7.129,0.627c0.228,0.114,0.342,0.456,0.342,1.026l-0.057,0.742
		c-0.19,1.217-0.704,2.585-1.54,4.106L100.293,171.237"/>
	<path fill="#0D131A" d="M86.15,170.724c1.14-0.646,3.212-1.103,6.216-1.368c2.661-0.229,4.771-0.248,6.33-0.058
		c0.38,0.038,0.685,0.267,0.913,0.685c0.532,1.103,0.38,2.966-0.456,5.589c-0.951,2.889-2.338,4.885-4.164,5.988
		c-0.76,0.494-3.668-2.129-8.725-7.87c-0.57-0.722-0.837-1.35-0.799-1.882C85.466,171.313,85.694,170.952,86.15,170.724"/>
	<path fill="#FFFFFF" d="M87.576,172.093c-0.038-0.609,1.501-1.141,4.619-1.597l6.387-0.342l0.229,0.228l0.114,0.799
		c0,1.026-0.475,2.718-1.426,5.075c-0.988,2.434-1.767,3.65-2.338,3.65c-0.646,0-2.053-1.122-4.22-3.364
		C88.736,174.297,87.614,172.815,87.576,172.093"/>
	<path fill="#DBDCDC" d="M87.69,172.549c3.574,2.129,6.672,3.783,9.295,4.961c-0.799,1.597-1.407,2.395-1.825,2.395
		c-0.608,0-1.882-0.969-3.821-2.908C89.363,175.058,88.146,173.575,87.69,172.549"/>
	<path fill="#0D131A" d="M90.884,164.108l8.269,0.399l6.558,1.54c0.685,0.152,1.16,0.646,1.426,1.483
		c0.646,2.167-0.266,4.638-2.737,7.414c-2.357,2.699-4.03,3.726-5.019,3.079c-1.711-1.064-3.688-3.288-5.931-6.672
		c-2.167-3.308-3.175-5.475-3.023-6.502C90.427,164.546,90.579,164.298,90.884,164.108"/>
	<path fill="#FFFFFF" d="M92.708,166.047c-0.342-0.608,1.768-0.589,6.33,0.057c4.524,0.646,6.843,1.293,6.958,1.939
		c0.266,1.482-0.418,3.308-2.053,5.475c-1.597,2.09-2.946,3.117-4.049,3.079c-0.836-0.038-2.205-1.672-4.106-4.905L92.708,166.047"
		/>
	<path fill="#DBDCDC" d="M99.894,176.598c-0.76-0.038-1.958-1.388-3.593-4.049l-3.193-5.76l10.379,7.243
		C102.042,175.742,100.844,176.598,99.894,176.598"/>
	<path fill="#0D131A" d="M158.861,266.074c3.08-2.395,7.889-2.223,14.428,0.514c7.452,3.118,15.759,8.726,24.921,16.823
		c8.745,7.68,13.288,12.983,13.63,15.911v0.285l0.571,1.654l0.399,1.141c-11.026,7.755-16.671,12.317-16.938,13.687
		c1.217,6.35,1.578,10.606,1.083,12.773c-0.228,0.913-3.593,2.852-10.094,5.817l-9.866,4.164c-1.749,0.646-3.384-0.134-4.904-2.339
		l-2.566-4.905l-6.615,3.309c-3.459,1.71-5.741,2.604-6.843,2.68c-1.292,0.152-2.433-0.816-3.422-2.908l-1.654-4.504l-5.246,1.025
		l-5.76,0.855c-0.684,0-1.178-0.266-1.483-0.798c-0.19-0.306-0.285-0.685-0.285-1.142c0-1.824,0.722-4.2,2.167-7.129
		c0.19-0.418,0.817-1.367,1.882-2.85l1.653-2.567c-2.737-3.992-4.657-7.242-5.76-9.752c-1.407-3.155-2.186-6.463-2.338-9.922v-0.229
		c0.418-5.397,3.954-11.919,10.607-19.561C150.725,273.166,154.869,269.154,158.861,266.074"/>
	<path fill="#88A3D4" d="M168.385,266.759c3.726,0.988,8.174,3.118,13.344,6.388c7.034,4.447,13.706,9.751,20.017,15.911
		c5.551,5.475,8.326,8.972,8.326,10.493v0.057c-2.319,1.673-5.36,4.201-9.124,7.585c-4.98,4.524-7.471,7.451-7.471,8.782
		l0.855,5.874c0.456,3.535,0.494,5.476,0.114,5.816c-0.494,0.457-2.89,1.692-7.186,3.707c-4.372,2.016-7.737,3.44-10.094,4.276
		c-1.407,0.495-2.776-0.094-4.106-1.768l-2.338-3.82c-0.38-0.646-2.547-0.229-6.501,1.254c-2.928,1.065-5.38,2.092-7.356,3.08
		c-1.445,0.723-2.947-1.103-4.505-5.475c-0.19-0.57-2.016-0.608-5.475-0.113l-5.931,0.228c-0.457-0.533-0.133-1.863,0.969-3.992
		l3.365-5.932c1.254,1.18,2.604,2.129,4.049,2.852c1.482,0.685,1.9,0.552,1.254-0.399l-1.711-2.167l-3.194-4.048
		c-3.916-5.133-6.006-10.969-6.273-17.508v-0.228c0-3.309,2.947-8.898,8.84-16.767c5.056-6.806,8.953-11.273,11.69-13.402
		C161.807,265.998,164.621,265.771,168.385,266.759"/>
	<path fill="#778DB8" d="M161.655,266.588c4.221-1.444,10.912,0.741,20.074,6.559c7.034,4.447,13.706,9.751,20.017,15.911
		c5.551,5.475,8.326,8.972,8.326,10.493v0.057c-2.319,1.673-5.36,4.201-9.124,7.585c-4.98,4.524-7.471,7.451-7.471,8.782
		l0.855,5.874c0.456,3.535,0.494,5.476,0.114,5.816c-0.57,0.533-3.384,2.016-8.44,4.449c-5.246,2.471-8.192,3.649-8.839,3.534
		c0.684-2.129,1.064-5.208,1.14-9.237c0.038-2.661,1.122-5.361,3.25-8.099c3.194-4.145,1.635-12.793-4.676-25.947
		C172.624,283.506,167.548,274.914,161.655,266.588"/>
	<path fill="#0D131A" d="M275.028,131.945c3.839-6.083,8.935-11.311,15.283-15.683c6.273-4.334,12.68-7.109,19.219-8.326
		c9.961-1.825,19.521-0.666,28.685,3.479c10.075,4.562,16.634,11.615,19.675,21.157c3.041,9.467,2.738,17.204-0.911,23.211
		c-2.549,4.182-6.178,7.033-10.894,8.554c4.753,5.779,7.034,12.432,6.844,19.96c-0.076,2.395-0.741,6.045-1.997,10.949
		c7.719,3.802,13.022,9.562,15.912,17.279c2.624,6.958,3.078,14.828,1.368,23.609c-1.596,8.288-4.847,16.12-9.751,23.496
		c-4.98,7.489-10.779,13.154-17.395,16.994c-13.153,7.604-25.187,11.025-36.099,10.266c-5.171-0.381-11.577-2.301-19.218-5.761
		c-2.167-0.95-3.821-4.733-4.962-11.348c-0.8-4.677-1.691-13.707-2.681-27.088c-1.026-13.497-1.938-23.668-2.737-30.511
		c-1.444-12.167-3.289-22.565-5.532-31.195c-2.698-10.303-3.326-20.093-1.882-29.37
		C269.097,144.091,271.453,137.533,275.028,131.945"/>
	<path fill="#AFCEE5" d="M310.099,110.73c9.43-1.749,18.498-0.532,27.204,3.65c9.466,4.524,15.644,11.368,18.533,20.53
		c2.357,7.452,2.148,13.782-0.627,18.99c-1.255,2.396-2.985,4.448-5.189,6.159c-1.863,1.407-3.746,2.395-5.646,2.965l-0.4,1.482
		c4.335,4.791,6.465,11.444,6.388,19.96c-0.038,4.258-0.514,8.079-1.426,11.463l0.457,0.57l1.882,0.969
		c1.521,0.875,3.003,2.016,4.447,3.422c4.486,4.372,7.643,10.302,9.467,17.793c1.978,8.173,0.57,17.867-4.221,29.083
		c-5.057,11.938-12.184,20.854-21.385,26.746c-11.063,7.072-22.146,10.398-33.248,9.98c-6.463-0.267-13.098-1.921-19.902-4.962
		c-1.787-0.798-3.212-4.809-4.276-12.032c-0.646-4.372-1.426-12.68-2.338-24.922c-0.952-13.307-1.845-23.515-2.681-30.624
		c-1.445-12.204-3.308-22.659-5.59-31.365c-2.585-9.923-3.021-19.333-1.312-28.229c1.255-6.805,3.707-13.06,7.357-18.762
		c3.763-5.893,8.554-10.874,14.37-14.941C297.781,114.551,303.827,111.909,310.099,110.73"/>
	<path fill="#93AEC1" d="M290.197,269.554c3.649,2.623,7.794,4.067,12.433,4.335c3.992,0.266,9.048-0.361,15.169-1.883
		c10.531-2.928,20.797-7.813,30.796-14.656c5.056-3.459,9.258-6.824,12.604-10.094c-2.319,5.589-5.266,10.684-8.84,15.282
		c-3.84,4.98-8.098,8.974-12.774,11.977c-11.063,7.072-22.146,10.398-33.248,9.98c-6.463-0.267-13.098-1.921-19.902-4.962
		c-0.419-0.189-0.457-0.513-0.113-0.97l1.597-1.71C289.817,274.687,290.577,272.253,290.197,269.554"/>
	<path fill="#93AEC1" d="M313.978,211.043c0.494,2.016,1.769,4.277,3.82,6.786c2.282,2.852,4.639,4.677,7.072,5.475
		c4.258,1.293,7.546,0.779,9.866-1.54c2.129-2.129,3.079-5.379,2.852-9.751c3.269,2.47,4.39,5.721,3.364,9.751
		c-0.951,3.84-3.309,6.577-7.072,8.213c-7.299,3.155-13.249,1.388-17.849-5.304c-1.788-2.548-2.891-5.247-3.309-8.099
		s-0.057-4.904,1.084-6.159l0.113,0.4L313.978,211.043"/>
	<path fill="#93AEC1" d="M332.454,164.451c4.105,0.836,7.947,0.855,11.52,0.057c2.738,3.042,4.582,6.787,5.532,11.235
		c-3.346,2.319-7.167,3.498-11.463,3.536c-4.41,0.038-8.61-1.141-12.604-3.536c-3.611-2.167-6.254-6.387-7.926-12.66
		c-1.369-5.17-1.75-9.504-1.142-13.002C318.882,158.025,324.242,162.816,332.454,164.451"/>
	<path fill="#0D131A" d="M315.175,150.593c-0.304-2.433-0.096-4.79,0.627-7.072c0.761-2.319,1.978-4.372,3.65-6.159
		c1.521-1.597,3.383-2.604,5.588-3.022c1.598-0.304,3.175-0.323,4.733-0.057c1.939,0.342,3.65,1.102,5.134,2.28
		c1.216,0.989,2.052,2.091,2.509,3.308c0.646,1.825,0.95,2.985,0.912,3.479c-0.114,0.646-0.799-0.133-2.053-2.338
		c-1.368-2.395-3.593-3.802-6.673-4.22c-3.003-0.418-5.722,0.266-8.153,2.053c-1.18,0.875-2.188,2.376-3.023,4.505
		c-0.874,2.281-1.18,4.448-0.912,6.501c0.266,2.205,1.025,4.277,2.281,6.216c1.255,1.901,2.851,3.46,4.789,4.677
		c2.929,1.787,6.217,2.89,9.867,3.308c3.498,0.342,6.786,0.019,9.865-0.97l3.309-0.171c0.151,0.57-0.743,1.178-2.682,1.825
		c-4.676,1.521-8.972,1.958-12.888,1.312c-2.967-0.532-6.103-1.825-9.41-3.878C318.312,159.47,315.822,155.611,315.175,150.593"/>
	<path fill="#0D131A" d="M336.675,216.574c0.267-1.482,0.19-2.832-0.229-4.049l-0.571-1.311c-0.303-0.533-0.815-1.084-1.538-1.654
		c-0.722-0.609-1.065-1.027-1.027-1.256l0.855-0.057c1.065,0.305,1.996,0.838,2.794,1.598c0.837,0.798,1.427,1.71,1.768,2.737
		c0.495,1.445,0.552,2.983,0.172,4.618c-0.418,1.787-1.293,3.365-2.623,4.734c-1.445,1.482-3.212,2.49-5.304,3.022
		c-2.396,0.607-4.98,0.552-7.755-0.171c-1.939-0.495-3.765-1.616-5.476-3.365c-1.862-1.862-3.117-4.011-3.764-6.444
		c-1.75-6.349,0.74-12.432,7.472-18.249c3.344-2.927,7.963-4.505,13.856-4.733c5.626-0.19,10.645,0.836,15.056,3.079
		c2.547,1.292,3.688,2.205,3.421,2.737c-0.303,0.532-1.69,0.152-4.162-1.14c-2.89-1.521-7.129-2.263-12.717-2.224
		c-6.312,0.038-10.95,1.312-13.916,3.821c-4.979,4.182-6.824,9.066-5.531,14.655c1.142,5.019,3.555,8.004,7.243,8.954
		c4.6,1.18,7.908,0.742,9.922-1.312C335.686,219.501,336.37,218.171,336.675,216.574"/>
	<path fill="#0D131A" d="M329.946,164.622l0.97-0.855c2.129,1.787,3.308,4.486,3.536,8.099c0.151,3.08-0.361,6.311-1.541,9.695
		l-1.254,3.364c-0.115,0.038,0.019-1.141,0.399-3.536C333.31,173.594,332.608,168.005,329.946,164.622"/>
	<path fill="#0D131A" d="M320.765,159.889l1.254-0.457c1.368,4.144,0.95,10.854-1.254,20.131
		c-2.473,10.531-6.312,18.629-11.52,24.294l-4.564,4.619c-0.265,0.076,0.913-1.749,3.536-5.475
		c4.942-6.995,8.63-15.378,11.064-25.149C321.411,169.222,321.904,163.234,320.765,159.889"/>
	<path fill="#0D131A" d="M294.988,268.641l-0.285-1.312c9.618-2.167,18.248-8.059,25.891-17.678
		c2.585-3.27,4.829-6.673,6.729-10.209c1.482-2.812,2.3-4.714,2.451-5.702c0.268-1.597,0.608-2.548,1.027-2.851
		c0.417-0.268,0.514,0.777,0.286,3.136c-0.382,4.486-3.309,10.094-8.783,16.823C315.003,259.896,305.899,265.828,294.988,268.641"/>
	<path fill="#0D131A" d="M294.702,272.747c3.192,0.836,7.965,0.818,14.312-0.057c6.769-0.913,12.49-2.472,17.167-4.677
		c2.623-1.217,3.936-1.634,3.936-1.255c0.037,0.381-1.046,1.18-3.251,2.396c-6.122,3.383-12.489,5.342-19.105,5.873
		c-4.714,0.42-9.182,0.097-13.401-0.969L294.702,272.747"/>
	<path fill="#0D131A" d="M272.917,174.431c12.281,9.581,20.701,23.21,25.263,40.89c2.473,9.618,3.519,19.16,3.137,28.628
		c-0.341,9.314-2.015,17.489-5.018,24.521l-0.456,1.141l-0.913-0.798c-6.12-5.133-11.462-10.36-16.025-15.683
		c-2.774-3.156-4.827-7.813-6.158-13.972c-0.837-3.765-1.597-9.658-2.281-17.68c-0.607-6.576-1.141-11.234-1.598-13.972
		c-0.836-4.752-2.015-8.478-3.535-11.177c-1.862-3.27-4.486-6.311-7.869-9.125c-1.977-1.673-5.189-3.916-9.639-6.729
		c-5.36-3.384-9.182-6.141-11.462-8.27c-3.802-3.65-6.35-7.851-7.643-12.603l-0.341-1.255l1.311,0.114
		C247.217,160.288,261.626,165.61,272.917,174.431"/>
	<path fill="#B94100" d="M280.218,251.932c-2.624-2.965-4.564-7.432-5.818-13.401c-0.76-3.573-1.482-9.314-2.167-17.224
		l-1.653-14.256c-0.875-4.866-2.111-8.726-3.707-11.577c-1.938-3.459-4.657-6.653-8.155-9.581c-2.092-1.749-5.418-4.049-9.979-6.901
		c-4.942-3.117-8.497-5.665-10.664-7.641c-3.421-3.194-5.818-6.825-7.186-10.893c16.006,1.939,29.73,8.041,41.175,18.306
		c11.481,10.304,19.389,23.629,23.723,39.977c2.357,8.897,3.536,17.185,3.536,24.865c0,8.363-1.406,16.043-4.22,23.039
		C289.474,261.816,284.514,256.912,280.218,251.932"/>
	<path fill="#922F00" d="M295.785,218.741c2.357,8.897,3.536,17.185,3.536,24.865c0,8.363-1.406,16.043-4.22,23.039
		c-3.27-2.852-6.178-5.552-8.727-8.098c3.917-4.905,6.673-11.254,8.27-19.049C296.051,232.733,296.432,225.812,295.785,218.741"/>
	<path fill="#922F00" d="M269.438,176.483c-9.999-3.384-19.331-4.182-28-2.395c-2.585-1.939-4.677-3.878-6.272-5.816
		c-1.939-2.358-3.364-4.961-4.277-7.813C245.563,162.208,258.413,167.549,269.438,176.483"/>
	<path fill="#0D131A" d="M272.176,239.843c1.597,5.702,3.764,10.093,6.501,13.173l7.299,7.355l7.984,6.958l2.111,1.712l-0.286,0.627
		c-4.182,9.809-9.847,17.45-16.994,22.926c-7.756,5.968-18.647,10.588-32.678,13.857c-8.896,3.497-18.496,4.714-28.799,3.65
		c-11.215-1.218-20.758-4.98-28.628-11.292c-10.227-3.993-19.085-10.532-26.575-19.618c-7.147-8.668-12.375-18.82-15.683-30.453
		c-3.802-12.394-4.619-24.009-2.452-34.844c1.825-9.201,5.893-18.021,12.204-26.461c5.019-6.691,11.443-12.432,19.275-17.223
		c7.832-4.829,16.786-8.535,26.86-11.121c4.144-1.064,8.288-1.672,12.433-1.825l12.375,0.57l0.57,0.057l0.171,0.627
		c1.217,4.486,3.554,8.688,7.014,12.604c2.054,2.357,5.607,5.627,10.664,9.809l9.125,8.098c3.271,3.231,5.854,6.559,7.756,9.98
		c1.635,2.927,3.004,6.729,4.105,11.405c0.685,2.929,1.484,7.301,2.396,13.117C270.104,230.982,271.188,236.421,272.176,239.843"/>
	<path fill="#FFF8B0" d="M293.905,269.554c-3.955,9.01-10.36,16.519-19.22,22.526c-8.82,6.045-20.264,10.702-34.331,13.972
		c-8.592,2.015-17.64,2.053-27.145,0.114c-9.467-1.901-18.572-5.589-27.316-11.064c-9.657-6.044-17.774-13.553-24.352-22.526
		c-6.577-8.971-11.025-18.609-13.345-28.912c-4.6-20.341-2.091-37.849,7.528-52.523c9.657-14.637,25.321-24.75,46.991-30.338
		c3.954-1.027,7.927-1.597,11.919-1.711l11.748,0.457c1.369,4.6,3.783,8.877,7.242,12.831c2.167,2.471,5.779,5.779,10.835,9.923
		l8.898,7.87c3.154,3.193,5.665,6.425,7.526,9.694c1.56,2.813,2.871,6.463,3.935,10.95l2.396,13.002
		c1.179,7.565,2.282,13.136,3.308,16.709c1.673,5.894,3.935,10.455,6.786,13.688c1.978,2.28,4.487,4.79,7.529,7.526l7.983,6.9
		L293.905,269.554"/>
	<path fill="#DDD698" d="M292.821,268.641l1.084,0.913c-3.955,9.01-10.36,16.519-19.22,22.526
		c-8.82,6.045-20.264,10.702-34.331,13.972c-5.854,1.331-12.089,1.768-18.705,1.312c6.843,0,13.991-3.632,21.443-10.893
		c6.501-6.312,11.881-13.896,16.139-22.754c1.636-3.27,2.129-7.166,1.482-11.691c-0.798-5.437-3.27-9.523-7.414-12.261
		c-2.775-3.878-4.885-9.296-6.329-16.254l-2.738-16.822c-1.064-5.741-2.624-9.505-4.676-11.292
		c-2.623-2.281-6.653-2.167-12.09,0.342c-11.216,5.248-22.317,8.441-33.305,9.582c-18.059,1.938-32.829-2.225-44.311-12.49
		c3.764-10.151,10.113-18.8,19.047-25.947c9.01-7.224,20.283-12.585,33.817-16.082c3.954-1.027,7.927-1.597,11.919-1.711
		l11.748,0.457c1.369,4.6,3.783,8.877,7.242,12.831c2.167,2.471,5.779,5.779,10.835,9.923l8.898,7.87
		c3.154,3.193,5.665,6.425,7.526,9.694c1.56,2.813,2.871,6.463,3.935,10.95l2.396,13.002c1.179,7.565,2.282,13.136,3.308,16.709
		c1.673,5.894,3.935,10.455,6.786,13.688c1.978,2.28,4.487,4.79,7.529,7.526L292.821,268.641"/>
	<path fill="#0D131A" d="M168.499,215.662l-9.182-6.615l-1.597-2.338l0.799-1.083l2.908,2.339
		c7.984,6.386,12.964,9.999,14.941,10.835c3.688-1.978,9.333-6.025,16.938-12.147c7.3-5.893,12.812-10.798,16.538-14.713l0.97,0.913
		c-6.312,6.615-10.721,11.025-13.23,13.23c-6.311,5.55-13.269,10.246-20.873,14.087l-0.228,0.113l-0.285-0.113
		C174.829,219.673,172.263,218.171,168.499,215.662"/>
	<path fill="#0D131A" d="M175.57,232.713c-0.304-3.269-0.38-6.443-0.228-9.523l0.285-3.706l1.312,0.171
		c-0.229,0.988-0.152,3.63,0.228,7.927c0.494,5.93,1.501,11.881,3.022,17.85c1.368,5.398,3.231,10.873,5.589,16.425
		c5.17,12.013,11.918,21.975,20.245,29.882l-1.426,0.571c-5.018-4.069-9.352-8.765-13.002-14.086
		c-3.84-5.589-6.406-11.103-7.699-16.539C179.22,252.862,176.445,243.207,175.57,232.713"/>
	<path fill="#0D131A" d="M230.032,296.243l12.944,1.197l-0.113,1.311c-3.308,0.229-7.337,0.153-12.091-0.228
		c-9.466-0.798-17.925-2.699-25.377-5.702c-4.296,3.041-8.117,4.942-11.463,5.702l-3.877,0.228l-4.334-2.337
		c-2.396-1.368-2.434-1.578-0.114-0.628c2.737,1.104,5.456,1.331,8.155,0.685c2.509-0.569,6.254-2.224,11.235-4.961l0.228-0.114
		l0.285,0.057C212.05,293.43,220.223,295.026,230.032,296.243"/>
	<path fill="#0D131A" d="M149.737,253.301l0.513-1.198l1.369,0.685c13.23,6.769,24.979,9.486,35.244,8.155l0.171,1.368
		c-8.745,1.331-16.842,0.723-24.294-1.824c-4.98-1.711-8.896-3.897-11.748-6.558L149.737,253.301"/>
	<path fill="#0D131A" d="M281.016,187.148l1.141,0.913c0.836,3.992,0.266,9.6-1.712,16.823c-2.394,8.668-5.95,13.857-10.663,15.568
		l-0.856-1.026c4.829-4.03,8.346-9.903,10.55-17.622C281.224,195.645,281.739,190.76,281.016,187.148"/>
	<path fill="#0D131A" d="M282.555,253.016c4.639-2.053,8.573-6.824,11.805-14.314c2.358-5.398,3.65-9.752,3.879-13.059l0.626,1.711
		c-0.341,4.067-1.577,8.647-3.706,13.743c-3.156,7.718-7.186,12.089-12.09,13.117L282.555,253.016"/>
	<path fill="#0D131A" d="M271.891,196.444c0.608,1.787,1.179,4.79,1.711,9.01l1.426,11.235c1.064,7.376,2.205,13.439,3.422,18.191
		c1.559,6.312,3.421,11.12,5.588,14.429l1.199,1.882l4.048,6.388c2.092,2.623,4.885,5.019,8.383,7.186
		c1.407,0.874,1.939,2.547,1.597,5.019c-0.304,2.015-0.988,3.839-2.053,5.474c-0.646,1.027-1.729,1.636-3.251,1.825
		c-1.977,0.229-4.2-0.437-6.672-1.995l-7.585-4.791c-3.08-2.243-5.626-4.752-7.641-7.527c-5.552-7.68-8.365-19.161-8.441-34.445
		c-0.038-12.318-2.091-21.386-6.158-27.202c-2.282-3.231-6.711-6.615-13.288-10.151l-3.821-0.741
		c-6.158-3.384-10.283-7.851-12.375-13.402c-0.684-1.749-1.349-5.437-1.996-11.063l-0.171-1.426
		c-0.228-1.559-0.076-3.231,0.457-5.019c0.57-1.978,1.464-3.498,2.681-4.562c2.47-2.091,4.372-2.927,5.703-2.509
		c2.395,0.76,4.181,2.167,5.359,4.22c0.532,0.913,1.293,2.928,2.28,6.045l1.482,5.133c0.724,2.091,1.654,3.726,2.796,4.904
		l5.418,4.334l11.348,8.44C267.823,189.087,270.674,192.793,271.891,196.444"/>
	<path fill="#EEEEEF" d="M273.26,216.917c1.255,8.668,2.338,15.018,3.25,19.047c1.521,6.844,3.364,11.919,5.531,15.227l1.198,1.882
		c1.636,2.7,3.118,4.791,4.448,6.273c2.206,2.51,5.113,4.999,8.725,7.471c0.306,0.266,0.399,1.008,0.285,2.225
		c-0.151,1.406-0.608,2.66-1.369,3.764c-1.634,2.471-4.011,2.737-7.127,0.799c-6.122-3.841-10.894-8.575-14.315-14.201
		c-4.827-7.945-7.66-18.344-8.496-31.194c-0.799-12.888-3.175-22.278-7.129-28.171c-2.434-3.612-6.844-7.148-13.23-10.607
		l-1.882-1.026c-5.893-3.27-10.094-7.395-12.604-12.375c-1.368-2.775-2.3-6.254-2.794-10.437l-0.171-1.539
		c-0.228-1.255-0.114-2.662,0.342-4.221c0.494-1.672,1.217-2.927,2.166-3.764c1.028-0.836,2.167-1.064,3.423-0.684
		c2.053,0.684,3.593,1.825,4.619,3.421c0.646,0.988,1.369,2.756,2.167,5.303c0.608,2.091,1.18,3.707,1.711,4.848
		c0.875,1.863,1.977,3.46,3.308,4.79c0.646,0.685,2.509,2.205,5.589,4.563c4.866,3.611,8.479,6.558,10.835,8.839
		c4.183,3.992,6.862,7.756,8.042,11.292c0.646,1.901,1.273,4.601,1.882,8.098L273.26,216.917"/>
	<path fill="#C8C9CA" d="M227.922,159.831c0.494-1.672,1.217-2.927,2.166-3.764c1.028-0.836,2.167-1.064,3.423-0.684
		c2.053,0.684,3.593,1.825,4.619,3.421c0.646,0.988,1.369,2.756,2.167,5.303c0.608,2.091,1.18,3.707,1.711,4.848
		c0.875,1.863,1.977,3.46,3.308,4.79l0.342,0.399c-4.562,1.521-7.527,4.791-8.896,9.809c-3.345-2.927-5.76-6.33-7.242-10.208
		c-0.799-2.129-1.388-4.847-1.768-8.155l-0.171-1.539C227.352,162.797,227.466,161.39,227.922,159.831"/>
	<path fill="#C8C9CA" d="M296.412,266.816c0.306,0.266,0.399,1.008,0.285,2.225c-0.151,1.406-0.608,2.66-1.369,3.764
		c-1.634,2.471-4.011,2.737-7.127,0.799c-3.042-1.94-5.703-4.011-7.983-6.217c2.09,0.342,3.516-0.874,4.275-3.65
		c0.799-2.851,0.513-6.178-0.854-9.979c1.444,2.396,2.908,4.392,4.391,5.988C290.158,262.063,292.953,264.421,296.412,266.816"/>
	<path fill="#0D131A" d="M195.359,245.887l0.628-0.399l0.57,9.353l-0.228,0.172l-10.322,4.391c-0.798-1.56-0.152-3.764,1.939-6.615
		C189.922,250.088,192.394,247.788,195.359,245.887"/>
	<path fill="#FFFFFF" d="M187.546,257.75l-0.171-0.059l-0.114-0.398c0-0.989,0.722-2.49,2.167-4.506
		c1.635-2.243,3.555-4.144,5.76-5.703l0.457,7.3l-4.562,2.396C189.257,257.578,188.078,257.901,187.546,257.75"/>
	<path fill="#0D131A" d="M198.667,260.886l0.171-0.058l0.171,0.058c7.832,3.46,11.709,6.12,11.634,7.984
		c0,0.684-0.476,1.177-1.426,1.482c-2.776,0.987-6.35,0.855-10.721-0.399c-4.411-1.217-7.395-2.947-8.954-5.189
		c-0.495-0.685-0.551-1.388-0.171-2.11c0.266-0.494,0.988-0.837,2.167-1.026l3.536-0.286L198.667,260.886"/>
	<path fill="#FFFFFF" d="M191.139,264.251l-0.399-0.97l0.057-0.172c0.228-0.418,1.673-0.723,4.334-0.912l3.592-0.457
		c2.7,1.142,5.133,2.377,7.3,3.708c2.509,1.521,3.764,2.642,3.764,3.364v0.058l-0.855,0.684l-9.695-0.399
		C195.283,267.976,192.584,266.341,191.139,264.251"/>
	<path fill="#DBDCDC" d="M205.168,264.991c3.08,1.75,4.62,3.022,4.62,3.821v0.058l-0.855,0.684l-6.958,0.229
		c-2.737-0.495-5.189-1.351-7.356-2.566l6.672-0.742L205.168,264.991"/>
	<path fill="#0D131A" d="M194.789,251.762c1.026-0.875,2.415-0.799,4.163,0.227c1.369,0.799,2.509,1.92,3.422,3.364
		c0.988,1.522,1.368,2.91,1.14,4.164l-0.741,2.224c-0.608,0.913-1.54,1.482-2.794,1.711l-10.436,1.256
		c-2.927,0.037-4.791-0.305-5.589-1.027c-0.456-0.457-0.627-0.988-0.513-1.596c0.114-1.066,1.236-2.49,3.365-4.278l5.76-4.334
		L194.789,251.762"/>
	<path fill="#FFFFFF" d="M185.436,261.684c0.152-1.406,2.699-3.916,7.642-7.528l2.281-1.71c0.761-0.608,1.806-0.514,3.137,0.286
		c1.216,0.722,2.243,1.71,3.079,2.965c0.913,1.369,1.274,2.585,1.083,3.649c-0.228,1.331-1.33,2.167-3.307,2.51
		c-8.022,1.405-12.565,1.635-13.63,0.683l-0.285-0.683V261.684"/>
	<path fill="#DBDCDC" d="M185.721,262.482c6.957-0.646,12.603-2.034,16.937-4.163v1.026c-0.228,1.331-1.33,2.167-3.307,2.51
		c-8.022,1.405-12.565,1.635-13.63,0.683V262.482"/>
	<path fill="#0D131A" d="M227.466,200.378c4.942-8.326,12.166-12.716,21.671-13.173c4.523-0.266,8.781,1.901,12.774,6.501
		c4.448,5.133,7.375,12.129,8.782,20.986c1.559,9.771-0.836,19.503-7.186,29.199c-6.045,9.238-14.543,16.803-25.491,22.696
		c-8.213,4.41-16.596,6.272-25.15,5.589c-7.755-0.608-13.629-3.004-17.621-7.186c-3.688-3.802-5.456-7.451-5.304-10.949
		c0.152-1.978,1.103-4.049,2.852-6.216c1.445-1.788,3.688-3.935,6.729-6.445c1.977-1.596,6.063-6.995,12.261-16.194
		C217.6,216.556,222.828,208.287,227.466,200.378"/>
	<path fill="#88A3D4" d="M267.842,215.32c1.444,9.086-1.197,18.458-7.927,28.114c-6.045,8.63-13.84,15.588-23.382,20.872
		c-7.832,4.334-15.531,6.369-23.097,6.102c-6.919-0.266-12.223-2.318-15.911-6.157c-3.307-3.498-4.885-6.807-4.733-9.924
		c0.228-3.611,2.852-7.471,7.87-11.577c2.243-1.824,6.501-7.109,12.774-15.854c6.007-8.402,11.158-16.158,15.454-23.267
		c5.97-9.923,13.231-14.333,21.785-13.231c3.803,0.457,7.129,2.49,9.98,6.102C264.116,200.834,266.511,207.108,267.842,215.32"/>
	<path fill="#778DB8" d="M264.249,202.488c1.598,3.688,2.795,7.966,3.593,12.832c1.444,9.086-1.197,18.458-7.927,28.114
		c-6.045,8.63-13.84,15.588-23.382,20.872c-6.653,3.688-13.288,5.703-19.903,6.046c-6.007,0.341-11.121-0.723-15.341-3.194
		c18.287-1.824,33.571-8.364,45.851-19.617C260.638,235.108,266.339,220.091,264.249,202.488"/>
	<path fill="#0D131A" d="M225.527,109.875c1.9,2.509,3.954,6.349,6.159,11.52c3.612,8.402,5.76,16.861,6.444,25.378
		c0.95,11.671-1.787,22.64-8.212,32.905c-6.425,10.265-15.778,18.706-28.058,25.32c-9.771,5.247-21.5,7.167-35.187,5.76
		c-12.508-1.254-24.389-4.943-35.642-11.063c-6.122-3.308-9.904-6.863-11.349-10.665c-1.407-3.688-1.501-9.979-0.285-18.876
		c0.19-1.331,0.019-2.965-0.513-4.904l-1.597-4.734c-1.292-4.067-2.034-7.356-2.224-9.866c-0.456-4.866,0.095-10.74,1.654-17.622
		c2.623-11.672,9.181-21.614,19.674-29.826c10.417-8.136,22.393-12.736,35.928-13.8c11.938-0.913,23.362,1.216,34.274,6.387
		C215.186,99.857,221.497,104.552,225.527,109.875"/>
	<path fill="#88A3D4" d="M234.766,146.943c0.912,11.33-1.654,21.88-7.699,31.651c-6.083,9.732-15.112,17.812-27.088,24.237
		c-10.151,5.474-22.279,7.262-36.384,5.361c-10.797-1.445-20.72-4.524-29.769-9.238c-6.045-3.118-9.98-6.749-11.805-10.893
		c-1.71-3.84-2.053-9.41-1.026-16.709l0.171-0.97c0.19-1.597,0.152-3.193-0.114-4.791l-1.198-4.391
		c-1.178-3.612-1.882-6.843-2.11-9.695c-0.342-4.752,0.248-10.512,1.768-17.279c2.547-11.33,8.763-20.911,18.648-28.743
		c9.885-7.793,21.367-12.185,34.445-13.173c11.558-0.875,22.203,1.026,31.936,5.703c7.414,3.574,13.059,7.965,16.937,13.173
		c2.244,3.003,4.411,6.71,6.501,11.121C231.857,130.481,234.119,138.693,234.766,146.943"/>
	<path fill="#778DB8" d="M194.96,94.363c6.16,1.749,11.767,4.353,16.823,7.813c4.106,2.851,7.338,5.854,9.695,9.01
		c2.244,3.003,4.411,6.71,6.501,11.121c3.878,8.174,6.141,16.386,6.787,24.636c0.874,10.95-1.503,21.157-7.129,30.624
		c-5.665,9.505-14.086,17.489-25.263,23.952c2.775-2.243,5.265-4.657,7.47-7.243c11.558-14.371,15.569-31.575,12.033-51.61
		C218.493,123.581,209.521,107.479,194.96,94.363"/>
	<path fill="#FFFFFF" d="M126.811,146.658c6.501,7.984,11.006,13.135,13.515,15.454c0.875,3.194,1.312,6.73,1.312,10.607
		c0,1.217-0.267,3.042-0.799,5.475c-0.152,0.608-0.57,1.311-1.255,2.11l-1.426,1.141c-2.319-0.228-4.581-1.35-6.786-3.365
		c-1.977-1.825-3.289-3.688-3.935-5.589c-0.798-2.433-1.464-5.342-1.996-8.726c-0.532-3.345-0.798-6.234-0.798-8.668
		c0-1.331,0.304-2.946,0.912-4.847L126.811,146.658"/>
	<path fill="#FFFFFF" d="M180.019,158.634c9.96-8.516,15.854-13.097,17.678-13.744c0.951,0.57,1.768,1.844,2.452,3.821
		c0.685,2.129,1.027,4.486,1.027,7.072c0,5.703-0.342,10.056-1.027,13.06c-0.798,3.574-2.3,6.615-4.505,9.125
		c-1.331,1.977-3.783,2.775-7.357,2.395c-3.536-0.38-6.178-1.654-7.927-3.821c-1.064-1.064-1.882-3.27-2.452-6.615
		c-0.495-2.738-0.741-5.475-0.741-8.212l0.969-1.254L180.019,158.634"/>
	<path fill="#0D131A" d="M145.06,161.713l-1.426-3.707c-0.19-0.532-0.038-0.855,0.456-0.969c0.494-0.114,0.817,0.095,0.97,0.627
		l0.855,3.251c0.152,0.532,0.095,0.913-0.171,1.141C145.516,162.321,145.288,162.208,145.06,161.713"/>
	<path fill="#0D131A" d="M168.499,158.006c0-0.76,0.19-1.178,0.57-1.254c0.38-0.038,0.608,0.285,0.685,0.97
		c0.076,0.912,0.399,2.357,0.969,4.334v0.913c-0.114,0.152-0.361,0-0.741-0.457C169.069,161.562,168.575,160.06,168.499,158.006"/>
	<path fill="#0D131A" d="M132.001,190.855l3.536,1.197c2.395,0.836,3.992,1.559,4.79,2.167l0.286,0.229l0.627,0.399l-1.768,2.566
		c-0.951,1.103-1.673,1.597-2.167,1.482c-0.38-0.038-1.179-0.685-2.396-1.938c-1.482-1.559-2.851-3.346-4.106-5.361l0.114-1.083
		L132.001,190.855"/>
	<path fill="#FFFFFF" d="M132.913,192.052c3.156,1.027,5.342,1.92,6.558,2.68c-1.141,1.939-1.901,2.966-2.281,3.08l-1.711-2.053
		L132.913,192.052"/>
	<path fill="#0D131A" d="M195.074,192.623l4.163-0.798l0.171,0.228l0.513,0.286c0.228,0.076,0.323,0.209,0.285,0.399
		c-0.342,1.292-1.103,2.908-2.281,4.847c-1.369,2.281-2.49,3.422-3.365,3.422c-0.95,0-2.528-0.989-4.733-2.965
		c-2.167-1.939-3.137-3.194-2.909-3.764l1.426-0.513h0.285L195.074,192.623"/>
	<path fill="#FFFFFF" d="M195.245,193.535l3.478-0.684c-0.076,0.646-0.722,1.9-1.939,3.764c-1.178,1.787-2.015,2.813-2.509,3.08
		c-0.38-0.039-1.254-0.722-2.623-2.053c-1.331-1.369-2.148-2.376-2.453-3.023L195.245,193.535"/>
	<path fill="#0D131A" d="M144.946,190.57c-0.076-0.38,0.038-0.685,0.342-0.913s0.551-0.133,0.741,0.285l0.741,1.197l0.685,1.141
		c0.228,0.457,0.209,0.722-0.057,0.799l-0.913-0.228l-1.027-1.027L144.946,190.57"/>
	<path fill="#0D131A" d="M156.922,193.421c0.342-1.293,1.103-2.263,2.281-2.909c0.798-0.418,1.216-0.418,1.254,0
		c0.038,0.38-0.152,0.779-0.57,1.197l-0.913,1.083l-0.913,1.027c-0.418,0.342-0.741,0.456-0.969,0.342
		C156.903,194.048,156.846,193.801,156.922,193.421"/>
	<path fill="#0D131A" d="M197.697,144.89c0.722-0.304,1.426-0.627,2.11-0.969c2.167,3.992,3.251,9.2,3.251,15.625
		c0,5.132-1.16,9.828-3.479,14.085c-2.205,4.106-4.505,6.16-6.901,6.16c-2.395,0-4.486-1.711-6.273-5.133
		c-1.825-3.421-2.737-7.375-2.737-11.862c0-3.802,0.494-6.768,1.482-8.896l1.483-0.798l4.847-4.049
		C193.648,147.342,195.72,145.955,197.697,144.89"/>
	<path fill="#BA5400" d="M197.697,144.89c0.761,0.988,1.426,2.889,1.997,5.703c0.532,2.813,0.798,5.798,0.798,8.954
		c0,4.144-0.779,8.307-2.338,12.489c-1.635,4.296-3.327,6.444-5.076,6.444c-1.901,0-3.611-1.616-5.132-4.848
		c-1.597-3.345-2.395-7.28-2.395-11.804c0-2.015,0.418-4.733,1.254-8.155l4.848-4.334
		C193.895,147.361,195.91,145.878,197.697,144.89"/>
	<path fill="#0D131A" d="M132.172,153.387l0.855,0.057l1.996,2.11l5.76,6.444l0.57,0.4l0.627,1.881
		c0.38,1.825,0.57,4.277,0.57,7.357c0,2.624-0.38,4.886-1.141,6.787c-0.798,1.901-1.768,2.927-2.909,3.079
		c-2.965,0.38-5.265-3.193-6.9-10.721C129.967,163.292,130.157,157.493,132.172,153.387"/>
	<path fill="#BA5400" d="M134.396,156.182c2.396,2.471,4.258,4.562,5.589,6.273l0.742,3.65l0.342,5.304
		c0,2.661-0.267,4.866-0.799,6.615c-0.494,1.673-1.122,2.547-1.882,2.623c-1.026,0.114-2.091-1.083-3.193-3.593
		c-1.217-2.661-2.072-5.969-2.567-9.923c-0.228-1.825-0.341-3.555-0.341-5.189c0-2.927,0.341-5.247,1.026-6.958L134.396,156.182"/>
	<path fill="#0D131A" d="M137.418,159.318l1.198,0.342c0.646,0.494,1.217,1.445,1.71,2.852c0.533,1.407,0.913,3.042,1.141,4.905
		c0.266,2.281,0.247,4.257-0.057,5.931c-0.342,1.863-0.97,2.871-1.882,3.022c-0.342,0.076-0.741-0.038-1.198-0.342
		c-0.646-0.494-1.217-1.425-1.71-2.794c-0.532-1.407-0.913-3.042-1.141-4.904c-0.266-2.281-0.247-4.258,0.058-5.931
		C135.879,160.497,136.506,159.47,137.418,159.318"/>
	<path fill="#0D131A" d="M189.143,162.112c0-2.737,0.361-5.113,1.083-7.128c0.798-2.243,1.825-3.365,3.079-3.365
		c1.255,0,2.281,1.122,3.08,3.365c0.685,2.016,1.027,4.392,1.027,7.128c0,2.776-0.342,5.171-1.027,7.186
		c-0.798,2.244-1.825,3.365-3.08,3.365c-1.254,0-2.281-1.122-3.079-3.365C189.504,167.283,189.143,164.888,189.143,162.112"/>
	<path fill="#0D131A" d="M270.921,61.059c2.852,1.559,3.821,4.961,2.909,10.208c-1.142,6.425-2.738,12.565-4.791,18.42
		c2.813,4.981,1.559,12.071-3.764,21.272c-4.372,7.565-9.619,13.934-15.739,19.104c0.38,0.799,0.342,2.813-0.114,6.045
		c-0.608,4.068-1.844,7.223-3.707,9.467c-1.521,1.862-3.44,3.478-5.76,4.847c-2.737,1.635-5.494,2.566-8.27,2.794
		c-4.524,0.342-9.39-2.32-14.599-7.984c-5.551-6.007-6.882-15.265-3.993-27.773c2.699-11.52,7.927-22.146,15.683-31.879
		c4.372-5.474,9.409-10.398,15.112-14.77c5.513-4.22,10.702-7.223,15.569-9.01C264.516,59.899,268.337,59.652,270.921,61.059"/>
	<path fill="#AFCEE5" d="M268.241,94.534c-0.418,4.829-2.472,10.626-6.159,17.394c-3.84,7.033-8.022,12.394-12.546,16.082
		c0-1.749-0.286-3.593-0.856-5.532c-0.456-1.445-0.95-2.015-1.482-1.711s-0.723,1.255-0.571,2.851
		c0.8,9.125-0.113,15.646-2.736,19.562c-1.103,1.71-2.681,3.212-4.733,4.505c-2.357,1.445-4.79,2.262-7.3,2.452
		c-4.904,0.38-9.409-1.654-13.515-6.102c-5.17-5.665-6.254-14.504-3.251-26.518c2.852-11.33,8.117-21.329,15.797-29.997
		c7.338-8.25,15.074-14.599,23.21-19.047c7.262-4.03,12.451-5.418,15.569-4.163c1.673,0.684,2.091,4.067,1.254,10.151
		c-0.723,5.398-1.958,10.417-3.707,15.055l-0.17,0.457l0.341,0.399C268.07,91.169,268.355,92.557,268.241,94.534"/>
	<path fill="#AFCEE5" d="M268.241,94.534c-0.418,4.829-2.472,10.626-6.159,17.394c-3.84,7.033-8.022,12.394-12.546,16.082
		c0-1.749-0.286-3.593-0.856-5.532c-0.456-1.445-0.95-2.015-1.482-1.711s-0.723,1.255-0.571,2.851
		c0.8,9.125-0.113,15.646-2.736,19.562c-1.103,1.71-2.681,3.212-4.733,4.505c-2.357,1.445-4.79,2.262-7.3,2.452
		c-4.904,0.38-9.409-1.654-13.515-6.102c-5.17-5.665-6.254-14.504-3.251-26.518c2.852-11.33,8.117-21.329,15.797-29.997
		c7.338-8.25,15.074-14.599,23.21-19.047c7.262-4.03,12.451-5.418,15.569-4.163c1.673,0.684,2.091,4.067,1.254,10.151
		c-0.723,5.398-1.958,10.417-3.707,15.055l-0.17,0.457l0.341,0.399C268.07,91.169,268.355,92.557,268.241,94.534"/>
	<path fill="#93AEC1" d="M237.332,96.245c3.003-4.524,6.367-8.916,10.094-13.174c4.144-4.752,8.078-8.592,11.805-11.52
		c2.28,0.152,1.121,3.517-3.479,10.094c-5.892,8.44-9.143,13.877-9.751,16.311c-1.445,6.235-4.162,13.592-8.155,22.069
		c-4.79,10.151-8.44,14.504-10.95,13.06c-2.623-1.521-2.661-6.615-0.114-15.283C229.29,109.324,232.807,102.138,237.332,96.245"/>
	<path fill="#0D131A" d="M237.673,93.394c3.46-4.866,7.187-9.485,11.179-13.858c3.422-3.688,5.93-6.063,7.527-7.128
		c2.434-1.634,3.574-2.091,3.421-1.369c-0.151,0.685-0.987,1.635-2.508,2.852c-3.765,3.003-9.087,9.409-15.969,19.218
		c-9.543,13.573-14.656,25.168-15.34,34.787c-0.228,3.346-0.589,4.373-1.083,3.08l-0.685-2.965
		C223.531,118.657,228.017,107.118,237.673,93.394"/>
	<path fill="#0D131A" d="M276.51,263.508c5.36,0.609,11.196,3.746,17.508,9.411c6.35,5.703,11.957,12.868,16.823,21.498
		c3.649,6.388,6.121,12.946,7.413,19.675c0.495,2.662,0.951,7.281,1.369,13.858l0.113,3.193l0.115,2.225l2.224,5.304l1.939,5.531
		c0.417,1.18,0.664,2.548,0.74,4.106c0.153,2.472-1.007,3.308-3.478,2.51l-5.361-1.825c-3.231-1.18-6.045-2.357-8.439-3.536
		l-3.879,4.562l-4.733,5.19c-2.167,1.939-7.547-0.323-16.139-6.786l-13.002,1.196c-2.243,0-3.746-0.437-4.506-1.311
		c-0.685-0.685-1.084-1.54-1.197-2.566c-0.114-0.798-0.076-2.072,0.113-3.821l0.629-3.593c0.189-1.064,0.228-1.996,0.114-2.794
		c-0.229-2.054-1.428-4.297-3.595-6.729l-7.812-8.155l-9.239-9.752c-2.394-2.737-3.478-6.501-3.25-11.292
		c0.228-4.676,1.654-9.524,4.277-14.543c3.231-6.119,7.755-11.31,13.571-15.568C265.104,264.896,270.996,262.899,276.51,263.508"/>
	<path fill="#88A3D4" d="M247.71,286.605c3.081-5.932,7.187-10.894,12.318-14.885c5.665-4.448,11.063-6.387,16.196-5.817
		c5.17,0.609,11.141,4.487,17.906,11.635c5.741,6.044,10.227,12.204,13.46,18.477c5.892,11.481,9.371,23.609,10.436,36.384
		c0.076,0.799,0.912,3.669,2.51,8.612c1.406,4.372,1.919,6.766,1.539,7.186c-0.646,0.722-5.19-0.646-13.63-4.107l-0.113-0.854
		c-0.267-0.418-0.838-0.229-1.711,0.569l-4.107,4.277l-4.847,4.734c-0.722,0.646-2.832,0.133-6.329-1.541
		c-3.042-1.482-5.324-2.851-6.845-4.105c-0.874-0.722-2.565-0.913-5.075-0.57l-8.839,0.854c-1.635,0-2.737-0.303-3.308-0.911
		c-0.342-0.343-0.514-2.054-0.514-5.133l-0.113-6.102c-0.306-2.472-1.369-4.98-3.195-7.529c-1.216-1.71-3.725-4.58-7.526-8.609
		l-9.011-9.924c-2.167-2.471-3.175-5.722-3.022-9.751C244.005,295.501,245.278,291.205,247.71,286.605"/>
	<path fill="#778DB8" d="M263.449,327.778c-1.216-1.71-3.725-4.58-7.526-8.609l-9.011-9.924c-2.547-2.89-3.517-6.806-2.907-11.748
		c6.157,5.551,11.918,11.652,17.277,18.306c5.665,7.072,8.688,12.091,9.068,15.056l0.799,9.011c0.342,2.699,1.14,4.106,2.396,4.22
		l5.703-0.171l4.847,0.171l6.159,2.624c3.269,1.368,5.303,2.053,6.103,2.053c0.685,0,2.546-1.141,5.588-3.421
		c3.042-2.282,4.811-3.423,5.304-3.423c0.267,0,2.243,0.761,5.932,2.281c3.915,1.598,6.918,2.548,9.009,2.852l-0.113,1.142
		c-0.646,0.722-5.19-0.646-13.63-4.107l-0.113-0.854c-0.267-0.418-0.838-0.229-1.711,0.569l-4.107,4.277l-4.847,4.734
		c-0.722,0.646-2.832,0.133-6.329-1.541c-3.042-1.482-5.324-2.851-6.845-4.105c-0.874-0.722-2.565-0.913-5.075-0.57l-8.839,0.854
		c-1.635,0-2.737-0.303-3.308-0.911c-0.342-0.343-0.514-2.054-0.514-5.133l-0.113-6.102
		C266.339,332.836,265.276,330.327,263.449,327.778"/>
	<path fill="#0D131A" d="M154.071,201.576c-0.685,0.304-1.749-0.095-3.194-1.198l-2.851-2.452c-0.57-0.494-2.547-1.35-5.931-2.566
		c-3.345-1.217-6.006-2.053-7.983-2.509c-1.939-0.457-3.365-0.989-4.277-1.597c-0.76-0.494-1.35-1.216-1.768-2.167
		c-0.418-0.874-0.418-1.35,0-1.425c0.457-0.114,1.027,0.247,1.711,1.083c0.57,0.722,1.368,1.33,2.395,1.825l2.737,1.026
		c8.098,2.7,12.603,4.391,13.516,5.076l2.224,1.711c0.912,0.646,1.635,0.969,2.167,0.969l3.649-1.426
		c2.129-0.989,3.707-1.502,4.734-1.54l16.88-1.768l18.363-2.452c2.054-0.418,4.145-1.273,6.273-2.566
		c1.863-1.178,3.231-2.319,4.106-3.422c0.761-0.95,1.388-1.312,1.882-1.083c0.456,0.229,0.399,0.78-0.171,1.654
		c-1.407,2.206-3.193,3.878-5.36,5.019c-1.597,0.875-3.707,1.578-6.33,2.11l-18.135,2.338l-16.424,1.825
		c-0.723,0.114-2.11,0.646-4.163,1.596L154.071,201.576"/>
	<path fill="#5084C4" d="M130.803,180.362c0.76,0.57,1.083,1.159,0.97,1.768c-0.114,0.608-0.627,1.046-1.54,1.312l-3.193,0.057
		c-1.217-0.228-2.205-0.627-2.965-1.197c-0.761-0.532-1.083-1.103-0.97-1.711c0.114-0.608,0.627-1.027,1.54-1.255l3.193-0.114
		C129.054,179.411,130.043,179.792,130.803,180.362"/>
	<path fill="#5084C4" d="M212.639,177.567c0.228,0.723-0.267,1.54-1.483,2.453c-1.217,0.912-2.794,1.654-4.733,2.224l-5.133,0.685
		c-1.521-0.076-2.376-0.476-2.566-1.198c-0.228-0.722,0.267-1.54,1.483-2.452c1.217-0.913,2.775-1.654,4.677-2.225
		c1.938-0.57,3.668-0.798,5.189-0.684C211.593,176.446,212.448,176.845,212.639,177.567"/>
	<path fill="#FFFFFF" d="M198.61,155.839c0,1.369-0.419,2.547-1.255,3.536c-0.836,0.95-1.844,1.426-3.022,1.426
		c-1.179,0-2.206-0.476-3.08-1.426c-0.836-0.989-1.254-2.167-1.254-3.536c0-1.369,0.418-2.528,1.254-3.479
		c0.836-0.951,1.863-1.426,3.08-1.426c1.178,0,2.186,0.475,3.022,1.426C198.191,153.311,198.61,154.471,198.61,155.839"/>
	<path fill="#FFFFFF" d="M136.677,160.63c0.495,0.608,0.741,1.331,0.741,2.167c0,0.875-0.247,1.597-0.741,2.167
		c-0.494,0.608-1.103,0.913-1.825,0.913c-0.685,0-1.273-0.304-1.768-0.913c-0.494-0.608-0.741-1.33-0.741-2.167
		c0-0.836,0.247-1.559,0.741-2.167c0.495-0.608,1.083-0.912,1.768-0.912C135.574,159.718,136.183,160.021,136.677,160.63"/>
	<path fill="#0D131A" d="M161.941,209.504l4.334,0.283l9.353,0.229c4.41,0,10.208-0.665,17.394-1.996
		c-10.151,7.681-15.72,11.521-16.709,11.521C175.361,219.54,170.571,216.195,161.941,209.504"/>
	<path fill="#0D131A" d="M127.154,148.426c-0.951,1.711-1.407,4.315-1.369,7.812c0,4.373,0.741,9.828,2.225,16.368
		c0.228,0.95,0.171,1.445-0.171,1.482c-0.304,0.038-0.589-0.285-0.855-0.97c-2.053-5.247-3.117-10.759-3.193-16.538
		c-0.076-5.17,0.532-8.402,1.825-9.695l-1.768-3.022c-0.38-0.646-0.456-1.121-0.228-1.426c0.228-0.342,0.723-0.095,1.482,0.742
		l16.824,18.933c0.875,1.027,1.254,1.711,1.141,2.053c-0.076,0.305-0.57,0.172-1.483-0.399
		C135.346,157.722,130.537,152.608,127.154,148.426"/>
	<path fill="#0D131A" d="M178.764,158.178c3.459-2.927,7.661-6.216,12.603-9.866c4.486-3.345,7.528-5.474,9.125-6.387
		c1.179-0.646,1.863-0.817,2.053-0.513c0.191,0.304-0.114,0.855-0.912,1.654l-12.09,9.523l-11.52,9.067
		c-0.267,2.091-0.095,4.619,0.513,7.585c0.532,2.737,1.273,5.094,2.224,7.071c0.19,0.418,0.152,0.646-0.114,0.685
		c-0.304,0.038-0.608-0.152-0.913-0.57c-1.445-1.749-2.509-4.011-3.194-6.787c-0.646-2.624-0.798-5.019-0.456-7.186l-2.281,0.286
		c-0.305-0.114-0.152-0.419,0.457-0.913L178.764,158.178"/>
</g>
</svg>
