<?xml version="1.0" encoding="utf-8"?>
<!-- Generator: Adobe Illustrator 16.0.0, SVG Export Plug-In . SVG Version: 6.00 Build 0)  -->
<!DOCTYPE svg PUBLIC "-//W3C//DTD SVG 1.1//EN" "http://www.w3.org/Graphics/SVG/1.1/DTD/svg11.dtd">
<svg version="1.1" id="Layer_1" xmlns="http://www.w3.org/2000/svg" xmlns:xlink="http://www.w3.org/1999/xlink" x="0px" y="0px"
	 width="456px" height="415px" viewBox="0 0 456 415" enable-background="new 0 0 456 415" xml:space="preserve">
<g>
	<path fill="#6F4E25" d="M289.733,88.386c16.268,10.035,29.783,22.465,40.555,37.294c11.76,16.203,19.047,33.812,21.858,52.826
		c-45.028,1.342-89.672,1.007-133.934-1.006c-88.49-4.059-130.755-14.477-126.792-31.254c4.634-19.526,23.649-37.662,57.045-54.408
		c16.682-8.374,32.899-14.797,48.654-19.271c12.912-4.889,27.755-5.864,44.532-2.924C258.175,72.519,274.2,78.766,289.733,88.386"/>
	<path fill="#4A311C" d="M231.731,68.156l12.079,1.293c-10.161,3.643-19.734,9.043-28.713,16.203
		c-6.744,5.4-13.726,12.335-20.948,20.804c-3.229-3.675-7.191-7.782-11.889-12.319l-12.606-11.889
		c19.621-8.053,35.585-12.703,47.889-13.949C222.207,67.852,226.936,67.804,231.731,68.156"/>
	<path fill="#4A311C" d="M333.881,130.904c9.652,14.829,15.739,30.695,18.265,47.601c-10.449,0.319-23.568,0.527-39.355,0.624
		C321.643,165.547,328.673,149.472,333.881,130.904"/>
	<path fill="#6F4E25" d="M195.681,66.573c2.717,7.797,4.234,13.311,4.553,16.538l-19.989,54.456l-62.701-6.424
		c-1.406-1.311-5.034-6.871-10.882-16.682c-6.168-10.354-9.476-16.858-9.923-19.51c-0.895-4.953,13.294-14.668,42.567-29.146
		c9.812-4.858,19.878-8.548,30.2-11.074c7.095-1.725,12.704-2.636,16.825-2.732C189.146,51.938,192.261,56.795,195.681,66.573"/>
	<path fill="#4A311C" d="M195.681,66.573c2.717,7.797,4.234,13.311,4.553,16.538l-13.902,37.822
		c-5.399-7.67-15.083-19.271-29.049-34.801c-12.11-13.486-18.102-20.262-17.976-20.325c9.812-4.858,19.878-8.548,30.2-11.074
		c7.095-1.725,12.704-2.636,16.825-2.732C189.146,51.938,192.261,56.795,195.681,66.573"/>
	<path fill="#6F4E25" d="M331.915,100.177c9.62,7.861,17.467,15.292,23.537,22.291c6.455,7.414,9.156,12.367,8.1,14.86
		c-0.958,2.269-5.942,7.446-14.955,15.531c-8.276,7.446-13.343,11.695-15.195,12.751l-67.447-41.465l12.992-32.069
		c0.798-2.333,2.43-5.385,4.889-9.156c3.195-4.921,5.735-7.142,7.623-6.664c3.258,0.832,8.261,3.068,15.004,6.712
		C315.378,87.826,323.864,93.562,331.915,100.177"/>
	<path fill="#4A311C" d="M356.172,123.33c5.945,6.967,8.405,11.633,7.383,13.997c-0.479,1.118-2.653,3.644-6.52,7.575
		l-10.594,10.259l-10.881-2.349c-5.082-0.99-9.971-1.486-14.669-1.486c3.547-5.528,6.822-14.892,9.827-28.091
		c2.462-10.929,3.628-17.977,3.5-21.14C343.292,109.733,350.612,116.811,356.172,123.33"/>
	<path fill="#0D131A" d="M183.938,69.162c1.918,3.452,3.403,7.015,4.459,10.691l1.486,4.217c1.118,3.451,1.933,6.807,2.445,10.066
		c1.566,10.45-0.207,18.008-5.32,22.674c-5.146,4.667-16.171,8.053-33.077,10.163c-8.469,1.086-16.425,1.694-23.873,1.822
		c-3.035-3.356-7.062-9.013-12.08-16.97c-5.496-8.692-8.1-14.014-7.812-15.963c0.289-2.173,10.385-7.989,30.295-17.449
		c19.942-9.459,32.628-14.445,38.062-14.957C179.959,63.298,181.764,65.2,183.938,69.162"/>
	<path fill="#0D131A" d="M294.527,89.296c2.971,1.087,12.974,8.5,30.008,22.241c17.416,14.03,26.045,21.987,25.885,23.873
		c-0.158,1.854-3.819,6.327-10.978,13.422c-6.614,6.551-11.665,11.025-15.148,13.421l-45.97-44.532
		c2.364-6.679,4.698-12.416,6.999-17.21C289.254,92.268,292.322,88.529,294.527,89.296"/>
	<path fill="#DCDBD6" d="M296.971,108.998c8.534-0.48,16.666,3.019,24.4,10.499c2.972,2.876,5.465,5.992,7.479,9.348
		c1.852,3.1,2.875,5.672,3.065,7.718c0.447,4.634-0.398,8.66-2.541,12.08c-2.651,4.282-7.077,6.999-13.276,8.148l-29.481-14.476
		l-5.464-18.984c0.671-3.259,1.885-6.024,3.642-8.293C287.672,111.331,291.73,109.317,296.971,108.998"/>
	<path fill="#B4B4B0" d="M331.915,136.561c0.447,4.634-0.398,8.66-2.541,12.08c-2.651,4.282-7.077,6.999-13.276,8.148l-9.971-4.889
		l8.723-37.39l8.342,8.916C328.785,129.818,331.692,134.197,331.915,136.561"/>
	<path fill="#DCDBD6" d="M296.924,143.895c-5.242-3.834-8.293-8.357-9.157-13.565c-0.767-4.921,0.655-8.932,4.267-12.032
		c2.524-2.172,5.146-3.435,7.862-3.787l24.64,21.716c0.702,4.154-0.576,7.557-3.836,10.209c-3.004,2.397-6.504,3.404-10.498,3.021
		C305.823,149.04,301.398,147.187,296.924,143.895"/>
	<path fill="#B4B4B0" d="M324.535,136.226c0.702,4.154-0.576,7.557-3.836,10.209c-3.004,2.397-6.504,3.404-10.498,3.021
		l-3.643-0.767l1.677-15.723l0.959-9.396L324.535,136.226"/>
	<path fill="#DCDBD6" d="M382.394,86.851c-0.543,4.411-1.917,8.596-4.124,12.559c-2.045,3.707-4.506,6.664-7.382,8.868
		c-4.89,3.739-12.239,8.82-22.051,15.244c-9.044,5.912-15.419,9.89-19.127,11.936c-3.292,1.854-7.062,2.605-11.313,2.253
		c-4.217-0.319-8.532-1.678-12.941-4.075c-4.123-2.237-6.982-5.816-8.581-10.737c-1.405-4.377-1.502-8.405-0.287-12.08
		c1.214-3.675,4.569-11.633,10.065-23.872c5.688-12.752,9.331-20.23,10.93-22.435c2.492-3.517,5.896-6.552,10.21-9.108
		c4.378-2.557,9.076-4.282,14.094-5.177c11.729-2.077,21.522,0.591,29.384,8.006C379.996,66.446,383.703,75.985,382.394,86.851"/>
	<path fill="#B4B4B0" d="M340.256,115.133c8.565,2.109,16.796,1.263,24.689-2.541c-5.625,3.995-12.271,8.469-19.941,13.422
		l-15.293,9.443c-3.292,1.854-7.062,2.605-11.312,2.253c-4.218-0.319-8.533-1.678-12.941-4.076
		c-0.193-0.095,2.956-3.914,9.442-11.457l10.402-12.081l1.149-1.149c0.48-0.16,1.167,0.159,2.062,0.958
		C330.846,112.017,334.762,113.759,340.256,115.133"/>
	<path fill="#DCDBD6" d="M149.95,84.023c9.684-4.25,19.639-4.506,29.865-0.767l5.705,26.94l-42.425,20.325
		c-6.007-2.685-9.826-6.568-11.456-11.648c-1.151-3.676-1.151-8.069,0-13.183C133.876,95.655,139.981,88.433,149.95,84.023"/>
	<path fill="#B4B4B0" d="M155.223,82.153c8.277-2.237,16.474-1.87,24.591,1.103l5.705,26.94c-6.807-1.054-13.964-2.477-21.476-4.266
		c-15.021-3.546-24.336-7.095-27.948-10.641C140.539,88.801,146.914,84.421,155.223,82.153"/>
	<path fill="#DCDBD6" d="M174.83,93.85c2.204,3.963,2.3,8.42,0.287,13.375c-2.142,5.209-5.785,8.997-10.93,11.361
		c-4.314,1.949-8.741,2.62-13.279,2.013c-4.218-0.542-7.91-2.844-11.073-6.903c-3.388-4.346-4.218-8.596-2.493-12.75l31.542-12.752
		C171.25,89.088,173.232,90.974,174.83,93.85"/>
	<path fill="#B4B4B0" d="M168.886,88.192c2.364,0.895,4.347,2.781,5.944,5.657c2.204,3.963,2.3,8.42,0.287,13.375
		c-2.142,5.242-5.785,9.012-10.93,11.313l-6.999-9.205l-3.308-4.076L168.886,88.192"/>
	<path fill="#DCDBD6" d="M168.982,100.081c-2.654,4.314-6.344,7.127-11.074,8.437c-5.241,1.438-10.034,1.886-14.38,1.342
		c-4.506-0.605-8.212-2.237-11.122-4.889c-3.9-3.548-8.964-8.501-15.196-14.86c-7.67-7.798-13.502-14.125-17.497-18.983
		c-2.46-3.004-4.378-6.839-5.752-11.505c-1.47-5.017-2.029-10.098-1.677-15.243c0.863-12.75,6.775-22.322,17.735-28.714
		c10.194-5.976,20.693-6.982,31.495-3.019c10.29,3.771,17.976,10.85,23.057,21.236c1.374,2.812,3.084,11.121,5.13,24.927
		c2.076,13.934,3.019,23.729,2.828,29.384C172.368,92.539,171.187,96.502,168.982,100.081"/>
	<path fill="#B4B4B0" d="M170.947,67.725c1.182,9.587,1.71,16.41,1.582,20.468c-0.161,4.347-1.341,8.31-3.547,11.889
		c-2.654,4.314-6.344,7.127-11.074,8.437l-1.965,0.863c-0.478,0.191-0.83,0.096-1.054-0.288
		c-7.511-13.422-11.872-21.476-13.087-24.159c-0.862-1.886-1.293-2.973-1.293-3.26c-0.031-0.575,0.527-1.022,1.679-1.341
		c7.957-2.429,14.285-6.902,18.981-13.422c4.953-6.935,6.936-14.716,5.945-23.345C168.517,50.659,169.796,58.713,170.947,67.725"/>
	<path fill="#DBDCDC" d="M245.152,344.798c2.205-0.417,4.634,1.229,7.286,4.937c2.653,3.611,4.124,7.237,4.411,10.881
		c-1.438,1.821-6.344,2.109-14.718,0.863c-8.021-1.246-12.59-2.557-13.709-3.931c-0.895-1.149,0.912-3.418,5.416-6.807
		C238.281,347.354,242.052,345.372,245.152,344.798"/>
	<path fill="#EEEEEF" d="M259.58,98.835c5.595,3.963,12.225,10.435,19.894,19.415c6.713,7.829,12.416,13.981,17.114,18.455
		c7.253,6.936,14.142,12.031,20.661,15.292c17.576,8.789,29.768,17.273,36.573,25.454c8.534,10.29,9.972,21.315,4.314,33.075
		L92.57,206.403c-1.95-0.958-4.155-3.036-6.615-6.232c-2.588-3.388-4.827-7.222-6.712-11.505
		c-4.762-10.961-5.561-20.596-2.396-28.906c2.717-7.127,8.166-13.629,16.347-19.51c9.171-6.551,19.415-10.386,30.728-11.504
		l10.642-0.863c3.866-0.352,7.142-0.895,9.826-1.629c7.095-1.95,14.189-6.392,21.284-13.326c9.715-9.524,19.478-16.361,29.29-20.517
		c9.97-4.25,20.565-5.992,31.783-5.225C238.952,88.049,249.898,91.933,259.58,98.835"/>
	<path fill="#C8C9CA" d="M76.847,159.763l0.768-1.774c1.278,16.842,8.293,28.922,21.044,36.241
		c5.561,3.195,12.718,5.879,21.477,8.053c6.582,1.628,15.708,3.291,27.371,4.985l-54.934-0.864c-1.95-0.958-4.154-3.035-6.615-6.231
		c-2.588-3.388-4.827-7.222-6.712-11.505C74.482,177.706,73.682,168.071,76.847,159.763"/>
	<path fill="#C8C9CA" d="M226.745,87.186c12.208,0.863,23.153,4.746,32.835,11.648c5.595,3.963,12.225,10.434,19.894,19.415
		c3.771,4.41,7.654,8.708,11.649,12.895c5.72,6.041,10.466,10.562,14.236,13.565c-10.864,3.132-21.203,11.377-31.014,24.735
		c-7.957,10.802-14.924,23.953-20.901,39.452l-24.16-0.384c-0.767-22.307-8.388-42.711-22.864-61.215
		c-6.455-8.245-13.583-15.004-21.381-20.277c-7.829-5.337-15.531-8.628-23.104-9.875c8.341-8.852,18.758-16.202,31.253-22.051
		C205.908,89.152,217.094,86.515,226.745,87.186"/>
	<path fill="#C8C9CA" d="M335.079,161.919c11.313,7.159,18.967,14.381,22.962,21.668c4.634,8.437,4.665,17.417,0.096,26.938
		l-25.981-9.491c3.388-2.781,6.055-6.488,8.006-11.121C344.03,180.614,342.335,171.283,335.079,161.919"/>
	<path fill="#0D131A" d="M266.244,183.682c-12.593,6.455-27.357,8.995-44.294,7.622c-16.938-1.341-31.095-6.2-42.471-14.573
		c-11.376-8.373-16.65-17.816-15.819-28.33c0.831-10.483,7.542-18.966,20.134-25.454c12.558-6.455,27.307-9.012,44.245-7.669
		c16.938,1.374,31.095,6.248,42.472,14.62c11.376,8.373,16.649,17.817,15.818,28.331
		C285.499,168.742,278.804,177.228,266.244,183.682"/>
	<path fill="#3396CD" d="M241.365,338.9c3.035-3.291,7.701-5.416,13.997-6.376c6.296-0.989,19.015,0.96,38.157,5.85
		c9.556,2.461,18.487,5,26.795,7.62c1.15,3.645-0.158,7.815-3.931,12.513c-3.547,4.44-8.195,8.086-13.947,10.929
		c-8.214,4.06-17.338,5.865-27.372,5.419c-10.45-0.448-19.75-3.292-27.899-8.534c-4.249-2.747-7.095-6.95-8.532-12.607
		c-1.183-4.762-1.151-8.147,0.095-10.161C238.986,342.113,239.863,340.563,241.365,338.9"/>
	<path fill="#2880AE" d="M241.365,338.9c3.035-3.291,7.701-5.416,13.997-6.376c1.566-0.255,3.803-0.304,6.712-0.144
		c4.505,3.548,8.276,8.101,11.312,13.663c-8.885-2.047-16.172-1.935-21.859,0.335c-4.857,1.981-8.74,5.673-11.649,11.072
		c-1.15-2.715-1.806-5.528-1.965-8.437c-0.128-2.589,0.145-4.41,0.814-5.465C238.986,342.113,239.863,340.563,241.365,338.9"/>
	<path fill="#2880AE" d="M288.055,373.751c-6.773,1.183-12.942,1.358-18.502,0.526c9.267-6.295,10.674-15.453,4.217-27.468
		l22.865-1.005c8.758-0.289,16.379-0.304,22.865-0.049l0.814,0.239c1.15,3.645-0.158,7.814-3.931,12.514
		c-3.547,4.439-8.195,8.085-13.947,10.929C298.633,371.29,293.84,372.728,288.055,373.751"/>
	<path fill="#C8C9CA" d="M95.159,286.938c-6.265-9.653-9.843-22.34-10.738-38.063c-0.575-9.522-0.271-17.704,0.912-24.542
		l21.188,4.841l7.238,60.303L95.159,286.938"/>
	<path fill="#3396CD" d="M333.258,288.855c3.835,8.884,4.985,18.55,3.451,29c-1.564,10.548-4.44,18.297-8.628,23.252
		c-2.206,2.62-5.577,4.903-10.114,6.853c-7.383,3.197-15.228,4.796-23.536,4.796c-15.052,0.031-28.49-5.481-40.313-16.539
		c4.379-8.406,9.441-17.304,15.194-26.701c11.505-18.791,20.725-30.678,27.659-35.665c6.967-4.985,13.471-6.472,19.511-4.459
		c3.035,0.994,5.37,2.477,6.998,4.459C327.858,278.932,331.117,283.933,333.258,288.855"/>
	<path fill="#2880AE" d="M323.479,273.851c4.379,5.081,7.639,10.082,9.779,15.005c3.835,8.884,4.985,18.55,3.451,29
		c-1.597,10.804-4.074,18.314-7.429,22.532c-1.373,1.726-3.115,3.21-5.226,4.459l-6.088,3.113c-4.633,2.27-9.155,3.82-13.565,4.651
		l-15.914,0.526c4.123-2.62,6.007-5.77,5.655-9.441c-0.319-3.356-2.348-6.394-6.09-9.11c-3.802-2.746-8.26-4.328-13.372-4.746
		c-5.722-0.447-11.123,0.752-16.203,3.594c7.767-13.963,14.045-24.94,18.84-32.932c8.818-14.668,15.37-23.552,19.652-26.652
		c6.967-4.985,13.471-6.472,19.511-4.459C319.516,270.386,321.851,271.868,323.479,273.851"/>
	<path fill="#FFFFFF" d="M249.515,365.841c3.387-2.589,7.462-3.691,12.224-3.308c5.816,0.446,11.231,3.18,16.251,8.197
		c1.917,1.918,0.143,4.952-5.321,9.107c-5.051,3.833-8.663,5.816-10.835,5.943c-1.534,0.097-4.058-2.57-7.573-8.005
		C250.681,372.246,249.099,368.271,249.515,365.841"/>
	<path fill="#DBDCDC" d="M277.99,370.73c1.564,1.566,0.031,4.346-4.603,8.34c-3.835,3.323-7.719,5.96-11.648,7.911
		c2.267-2.911,4.122-6.537,5.559-10.882c1.375-4.315,1.982-8.196,1.821-11.649C272.22,365.824,275.176,367.918,277.99,370.73"/>
	<path fill="#FFFFFF" d="M292.561,364.978c7.223-2.653,13.615-2.94,19.175-0.864c3.132,1.182,6.057,5.643,8.771,13.374
		c1.119,3.229,1.759,5.976,1.918,8.246c0.159,2.493-0.336,3.851-1.487,4.075c-4.249,0.862-11.44-1.072-21.57-5.802
		c-10.449-4.824-15.867-9.123-16.251-12.895c-0.064-0.605,0.801-1.519,2.59-2.731C287.623,367.07,289.908,365.936,292.561,364.978"
		/>
	<path fill="#DBDCDC" d="M311.736,364.114c2.685,1.022,5.337,4.746,7.957,11.171c2.525,6.296,3.34,10.722,2.445,13.277
		c-1.886-5.017-4.506-9.954-7.861-14.812c-3.676-5.273-7.238-8.916-10.688-10.93C306.622,362.757,309.339,363.189,311.736,364.114"
		/>
	<path fill="#F0E9A5" d="M259.437,171.65c8.852-3.484,15.452-7.877,19.799-13.183c2.364-2.876,5.672-3.643,9.922-2.3
		c3.899,1.246,6.759,3.482,8.582,6.71c1.469,2.653,2.365,6.919,2.685,12.8c0.224,4.602,0.096,8.964-0.383,13.086
		c-0.257,2.109,0.799,17.896,3.163,47.36c1.854,29.88,1.406,47.841-1.343,53.881c-3.962,8.66-9.587,17.146-16.873,25.452
		c-7.574,8.63-14.797,14.574-21.668,17.833c-11.377,5.368-22.753,9.124-34.13,11.266c-18.153,3.419-35.41,2.604-51.771-2.443
		c-9.652-2.271-19.765-6.583-30.343-12.944c-21.157-12.719-34.1-29.241-38.829-49.566c-4.697-20.323,0.192-46.993,14.668-80.006
		c7.255-16.521,14.973-31.014,23.154-43.478c0.256-1.917,2.046-4.697,5.37-8.341c3.675-4.059,6.742-5.912,9.205-5.56
		c2.267,0.288,5.479,2.477,9.635,6.568l11.601,11.84c4.089,3.867,10.321,7.479,18.694,10.834c10.13,4.059,19.878,6.008,29.242,5.848
		C240.36,177.146,250.234,175.261,259.437,171.65"/>
	<path fill="#C9C48B" d="M152.06,147.058c1.183-0.511,2.364-0.814,3.547-0.91l4.888,0.384c-2.971,2.684-5.193,5.592-6.663,8.724
		c-1.279,2.812-2.108,6.153-2.493,10.018c-2.077-3.387-3.739-6.791-4.985-10.21c0.417-0.99,1.135-2.221,2.158-3.691
		C149.599,149.84,150.781,148.401,152.06,147.058"/>
	<path fill="#C9C48B" d="M132.263,277.397c-7.255-0.863-15.341-0.544-24.257,0.959c-1.183-5.56-1.63-11.648-1.341-18.265
		c3.963,1.728,8.085,2.748,12.368,3.068c4.218,0.319,8.389-0.08,12.511-1.198C131.607,267.107,131.845,272.253,132.263,277.397"/>
	<path fill="#C9C48B" d="M250.041,180.328c-0.096-0.799-0.813-1.694-2.156-2.685c-1.022-0.736-2.094-1.342-3.213-1.821
		c7.575-1.438,14.446-3.707,20.613-6.807c6.042-3.067,10.689-6.583,13.95-10.545c2.364-2.876,5.672-3.643,9.922-2.3
		c3.899,1.246,6.759,3.482,8.582,6.71c1.469,2.653,2.365,6.919,2.685,12.799c0.224,4.603,0.096,8.964-0.383,13.087
		c-0.257,2.109,0.799,17.895,3.163,47.36c1.854,29.88,1.406,47.842-1.343,53.881c-3.962,8.661-9.587,17.146-16.873,25.452
		c-7.574,8.63-14.797,14.574-21.668,17.833c-12.111,5.722-23.809,9.715-35.089,11.984c-18.759,3.706-35.695,2.652-50.812-3.163
		c-4.57-1.088-10.003-3.006-16.298-5.754c4.953-1.215,9.252-4.107,12.894-8.677c1.438-1.82,3.372-5.064,5.8-9.73
		c16.362-4.186,30.488-14.014,42.375-29.481c0.29-0.351,0.527-1.087,0.72-2.204l0.193-1.535c1.213,0.031,1.933-0.128,2.156-0.479
		c9.906-14.253,17.05-31.127,21.429-50.622c0.126-0.512,0.047-1.295-0.241-2.348l-0.431-1.485c1.088-0.479,1.662-0.879,1.726-1.199
		C250.937,212.109,251.703,196.018,250.041,180.328"/>
	<path fill="#3396CD" d="M112.704,387.844c-12.688,0.223-22.018-4.697-27.995-14.765c-7.032-11.855-8.198-29.577-3.501-53.161
		l96.209-10.306c3.068,9.301,3.18,21.938,0.334,37.917c-2.812,15.724-6.837,25.95-12.079,30.68
		c-4.889,4.441-13.23,7.317-25.022,8.629L112.704,387.844"/>
	<path fill="#2880AE" d="M140.651,386.836l-27.947,1.007c12.527-10.995,12.639-23.297,0.336-36.912l64.378-41.32
		c3.068,9.301,3.18,21.938,0.334,37.917c-2.812,15.724-6.837,25.95-12.079,30.68C160.784,382.65,152.444,385.526,140.651,386.836"/>
	<path fill="#FFFFFF" d="M175.502,379.359c0.639,7.061-0.049,11.232-2.063,12.512c-2.077,1.341-5.977,1.358-11.696,0.046
		c-5.848-1.34-10.402-3.37-13.662-6.087c-0.927-0.766-1.119-2.316-0.576-4.649c0.576-2.493,1.773-4.858,3.596-7.094
		c4.986-6.073,11.807-8.07,20.469-5.994C173.552,368.573,174.862,372.328,175.502,379.359"/>
	<path fill="#FFFFFF" d="M86.913,376.963c0.639-3.516,3.452-5.642,8.438-6.375c3.388-0.545,9.444-0.48,18.167,0.19
		c7.542,0.575,14.382,2.237,20.517,4.985c6.456,2.907,9.588,5.96,9.396,9.156c-0.192,3.355-6.328,6.951-18.408,10.787
		c-12.177,3.897-22.77,5.575-31.782,5.031c-3.228-0.192-5.385-3.02-6.471-8.485C85.843,387.523,85.89,382.425,86.913,376.963"/>
	<path fill="#DBDCDC" d="M175.502,379.359c0.639,7.061-0.049,11.232-2.063,12.512c-2.077,1.341-5.977,1.358-11.696,0.046
		c-5.848-1.34-10.402-3.37-13.662-6.087c-0.927-0.766-1.119-2.316-0.576-4.649c0.576-2.493,1.773-4.858,3.596-7.094
		c4.986-6.073,11.807-8.07,20.469-5.994C173.552,368.573,174.862,372.328,175.502,379.359"/>
	<path fill="#DBDCDC" d="M126.031,372.936c5.145,1.404,9.299,3.146,12.463,5.225c3.419,2.238,5.065,4.49,4.938,6.76
		c-0.161,3.228-5.943,6.726-17.354,10.497c-11.409,3.77-21.715,5.577-30.919,5.417c8.374-2.364,15.708-6.008,22.003-10.929
		C124.575,384.089,127.531,378.432,126.031,372.936"/>
	<path fill="#3396CD" d="M124.161,270.927l11.265-0.96c13.423,0.448,24.048,5.063,31.879,13.854
		c6.774,7.639,10.401,16.857,10.882,27.659c0.383,8.022-2.653,16.314-9.107,24.879c-6.647,8.854-14.654,14.78-24.018,17.785
		c-3.707,1.182-9.747,1.469-18.119,0.863c-6.648-0.514-13.343-1.438-20.086-2.781c-11.409-2.27-19.095-8.804-23.058-19.607
		c-2.428-6.68-3.355-14.875-2.779-24.591c0.542-8.469,3.755-16.186,9.636-23.153C98.643,275.354,109.812,270.703,124.161,270.927"/>
	<path fill="#2880AE" d="M126.942,355.008c-6.648-0.513-13.343-1.438-20.086-2.781c-8.15-1.598-14.429-5.448-18.838-11.553
		c5.56,3.229,11.583,4.73,18.071,4.506c7.733-0.287,14.941-3.132,21.619-8.533c9.556-7.7,16.155-17.049,19.798-28.041
		c4.729-14.286,2.045-27.069-8.053-38.35c12.144,1.277,21.747,6.184,28.81,14.717c6.168,7.477,9.476,16.313,9.923,26.509
		c0.383,8.021-2.653,16.313-9.108,24.878c-6.647,8.853-14.654,14.781-24.018,17.785
		C141.354,355.326,135.314,355.614,126.942,355.008"/>
	<path fill="#3396CD" d="M82.839,183.635c0.8-6.199,3.133-11.968,6.999-17.305c3.994-5.496,9.14-9.843,15.436-13.039
		c6.742-3.451,14.189-5.209,22.338-5.273c12.047-0.127,19.511,5.018,22.387,15.436c1.055,3.77,1.375,7.877,0.96,12.319
		c-0.353,3.739-1.071,6.696-2.158,8.869c-8.694,6.71-17.833,12.463-27.419,17.257c-19.207,9.555-31.111,9.507-35.713-0.145
		C82.983,196.066,82.041,190.026,82.839,183.635"/>
	<path fill="#2880AE" d="M120.327,148.593l7.286-0.576c12.047-0.127,19.511,5.018,22.386,15.436
		c1.055,3.771,1.375,7.877,0.96,12.319c-0.353,3.739-1.071,6.696-2.158,8.87c-3.835,2.781-8.405,5.336-13.709,7.669
		c-10.673,4.634-19.766,5.8-27.275,3.5c8.819-8.757,14.684-17.689,17.592-26.797C128.572,159.075,126.877,152.269,120.327,148.593"
		/>
	<path fill="#3396CD" d="M105.13,180.854c10.162-5.113,19.16-6.871,26.987-5.272c9.205,1.885,15.453,6.631,18.743,14.236
		c1.374,3.164,1.998,6.425,1.87,9.779c-0.128,3.261-0.942,6.104-2.446,8.533l-55.222,24.591c-7.638-3.194-11.969-8.644-12.99-16.346
		c-0.864-6.327,0.463-12.799,3.979-19.415C89.247,191.017,95.607,185.648,105.13,180.854"/>
	<path fill="#2880AE" d="M125.983,175.102l6.134,0.48c9.205,1.885,15.453,6.631,18.743,14.236c1.374,3.164,1.998,6.425,1.87,9.779
		c-0.128,3.261-0.942,6.104-2.446,8.533l-25.79,9.203c0.704-0.605,1.792-2.172,3.26-4.697c1.982-3.388,3.485-6.854,4.506-10.402
		C135.33,191.433,133.237,182.389,125.983,175.102"/>
	<path fill="#FFFFFF" d="M101.198,266.036l-5.753-13.517l21.044,7.334l-2.108,6.807c-1.822,4.664-3.74,7.302-5.753,7.91
		C106.616,275.177,104.139,272.333,101.198,266.036"/>
	<path fill="#DBDCDC" d="M109.491,257.409l6.999,2.442l-2.108,6.807c-1.822,4.666-3.74,7.304-5.753,7.911
		c-0.065,0.031,0.177-1.854,0.718-5.656C109.988,264.247,110.034,260.412,109.491,257.409"/>
	<path fill="#FFFFFF" d="M162.078,252.663c-0.032,3.067-0.304,5.816-0.815,8.245c-0.479,2.364-1.007,3.643-1.582,3.835
		c-0.99,0.318-4.011-1.15-9.061-4.411c-4.762-3.067-7.398-4.983-7.909-5.753l14.236-19.51
		C160.368,238.649,162.078,244.514,162.078,252.663"/>
	<path fill="#DBDCDC" d="M149.471,245.329l7.478-10.26c2.94,3.102,4.763,7.494,5.465,13.184c0.704,5.975-0.064,11.697-2.301,17.16
		c-0.384-3.548-1.661-7.287-3.835-11.217C154.296,250.585,152.028,247.63,149.471,245.329"/>
	<path fill="#FFFFFF" d="M141.273,254.724c0.448,2.365-0.159,6.839-1.821,13.422c-1.822,7.031-3.643,10.387-5.465,10.067
		c-2.3-0.416-5.048-2.365-8.245-5.848c-3.643-3.931-6.503-8.486-8.581-13.664L141.273,254.724"/>
	<path fill="#DBDCDC" d="M141.273,254.724c0.448,2.365-0.159,6.839-1.821,13.422c-1.822,7.031-3.643,10.387-5.465,10.067
		l-0.576-5.608c-0.478-5.081-1.724-10.402-3.739-15.963L141.273,254.724"/>
	<path fill="#3396CD" d="M152.444,211.342c3.354,2.812,5.496,5.817,6.423,9.012c1.981,6.713,0.463,14.382-4.554,23.008
		c-5.337,9.173-12.319,14.812-20.948,16.923c-9.683,2.365-18.999,1.982-27.947-1.149c-9.587-3.389-14.908-8.868-15.963-16.442
		c-1.086-7.7-0.016-14.572,3.212-20.612c3.003-5.625,7.686-10.21,14.045-13.758c10.771-6.008,21.908-7.206,33.412-3.596
		C144.916,206.261,149.023,208.465,152.444,211.342"/>
	<path fill="#2880AE" d="M158.866,220.354c1.981,6.713,0.463,14.382-4.554,23.008c-5.337,9.173-12.318,14.812-20.947,16.923
		l-2.156,0.479c7.477-7.16,11.665-16.428,12.558-27.805c0.927-11.664-2.014-21.49-8.82-29.479
		c5.976,1.053,11.217,3.211,15.722,6.471C155.016,213.115,157.748,216.582,158.866,220.354"/>
	<path fill="#3396CD" d="M341.073,185.6c8.275,4.475,13.837,12.016,16.681,22.626c2.396,8.948,2.348,16.427-0.144,22.435
		c-2.015,4.922-6.041,9.524-12.08,13.806c-4.507,3.195-14.301-2.205-29.385-16.202c-4.729-4.38-9.683-9.348-14.86-14.908
		l-6.423-7.048c-0.8-4.761,0.623-9.57,4.267-14.428c3.898-5.242,9.012-8.438,15.338-9.587
		C324.662,180.439,333.531,181.541,341.073,185.6"/>
	<path fill="#2880AE" d="M339.203,185.36c4.251,2.62,7.958,5.736,11.122,9.348c3.706,4.283,6.183,8.789,7.428,13.518
		c2.396,8.948,2.349,16.427-0.143,22.435c-2.015,4.922-6.041,9.524-12.081,13.806c-2.204,1.566-6.072-2.428-11.601-11.984
		l-7.62-14.764l3.355-1.197c2.62-1.151,4.856-2.7,6.71-4.65C342.287,205.669,343.23,196.833,339.203,185.36"/>
	<path fill="#3396CD" d="M329.233,209.807c6.68,5.977,11.266,13.215,13.76,21.716c2.396,8.085,2.442,14.764,0.143,20.037
		c-2.653,6.136-8.341,10.13-17.065,11.984c-7.733,1.693-16.729-3.612-26.986-15.916c-3.197-3.833-6.328-8.147-9.396-12.942
		l-3.644-5.992c-1.342-4.378-0.797-9.283,1.631-14.717c3.132-6.999,8.74-11.137,16.825-12.415
		C313.286,200.156,321.531,202.905,329.233,209.807"/>
	<path fill="#2880AE" d="M316.242,243.315c4.026-1.246,7.59-3.58,10.689-6.999c6.199-6.839,6.981-15.675,2.348-26.51
		c3.229,2.909,6.072,6.345,8.532,10.306c2.302,3.739,4.028,7.544,5.179,11.409c2.396,8.086,2.443,14.765,0.144,20.038
		c-2.653,6.136-8.341,10.13-17.065,11.984c-2.396,0.511-4.746-2.699-7.046-9.636L316.242,243.315"/>
	<path fill="#FFFFFF" d="M278.659,262.202l-4.411,1.15c-3.227,0.702-5.527,0.895-6.9,0.575c-1.535-0.32-0.832-3.612,2.108-9.875
		c2.845-6.04,5.226-9.908,7.144-11.601L278.659,262.202"/>
	<path fill="#DBDCDC" d="M267.348,263.928l3.833-2.779c3.133-2.302,5.354-4.538,6.665-6.714l0.814,7.767l-4.41,1.15
		C271.022,264.055,268.721,264.247,267.348,263.928"/>
	<path fill="#DBDCDC" d="M297.642,286.171l-10.161,1.246c-1.183,0-1.215-1.694-0.097-5.081c1.022-3.228,2.077-5.401,3.164-6.52
		l22.481,5.799C308.906,283.533,303.778,285.052,297.642,286.171"/>
	<path fill="#FFFFFF" d="M278.948,261.771l13.04,15.435c-3.9,1.311-7.99,2.174-12.272,2.59c-4.282,0.414-6.712,0.174-7.287-0.72
		c-1.247-1.821-0.543-5.257,2.108-10.307L278.948,261.771"/>
	<path fill="#DBDCDC" d="M272.572,279.219c5.082-2.043,9.715-4.888,13.901-8.531l5.514,6.52c-3.771,1.245-7.75,2.093-11.937,2.54
		C275.895,280.162,273.403,279.986,272.572,279.219"/>
	<path fill="#3396CD" d="M324.486,247.055c3.292,7.063,4.587,13.502,3.884,19.317c-0.767,6.201-3.739,10.642-8.916,13.326
		c-6.04,3.133-11.17,4.476-15.387,4.027c-5.433-0.575-11.569-3.963-18.408-10.161c-7.287-6.584-10.77-14.83-10.45-24.736
		c0.128-3.867,0.831-7.462,2.11-10.785c1.214-3.067,2.637-5.241,4.266-6.521c6.87-5.399,14.605-6.566,23.202-3.498
		C313.444,231.092,320.013,237.436,324.486,247.055"/>
	<path fill="#2880AE" d="M324.486,247.055c3.292,7.063,4.587,13.502,3.884,19.317c-0.767,6.201-3.739,10.642-8.916,13.326
		c-6.04,3.133-11.17,4.476-15.387,4.027c-5.433-0.575-11.569-3.963-18.408-10.161l-1.583-1.534c4.666,2.62,9.43,3.771,14.287,3.451
		c4.569-0.319,8.789-1.886,12.654-4.698c3.802-2.748,6.807-6.344,9.012-10.785c2.302-4.604,3.451-9.571,3.451-14.909
		L324.486,247.055"/>
	<path fill="#F0E9A5" d="M258.91,168.294c-10.451,4.283-22.626,5.736-36.527,4.362c-7.958-0.799-15.596-2.828-22.915-6.088
		c-8.917-3.963-15.82-9.171-20.708-15.627c-3.452-4.506-4.571-9.763-3.355-15.771c1.214-6.231,4.442-10.034,9.684-11.408
		c4.506-1.182,20.836-0.543,48.991,1.917l40.936,4.027C280.865,148.689,275.495,161.552,258.91,168.294"/>
	<path fill="#C9C48B" d="M265.717,131.384c3.546-1.022,6.647-1.583,9.299-1.678c5.849,18.983,0.479,31.846-16.105,38.589
		c-10.451,4.283-22.626,5.736-36.527,4.362c-6.936-0.735-13.567-2.349-19.895-4.841l11.265,1.678
		c4.348,0.351,8.596,0.064,12.75-0.863c9.364-2.077,16.314-5.512,20.853-10.306c5.081-5.368,5.45-10.977,1.103-16.825
		C252.902,136.8,258.654,133.429,265.717,131.384"/>
	<path fill="#3396CD" d="M233.79,82.681c2.431-2.908,7.591-3.067,15.484-0.479c6.327,2.077,10.85,4.235,13.566,6.472
		c4.633-0.48,8.916-0.384,12.847,0.288c3.451,0.575,5.752,1.422,6.903,2.541c1.022,0.99,0.83,3.947-0.576,8.869
		c-1.374,4.794-3.211,9.156-5.512,13.087c1.661,4.09,2.557,8.789,2.685,14.093c0.128,5.561-0.703,9.267-2.492,11.122l-4.843-3.307
		c-2.236-1.151-4.554-1.646-6.949-1.486c1.405,3.899,1.038,6.615-1.102,8.149c-1.471,1.055-3.995,1.582-7.574,1.582
		c-1.886,0-6.057-1.102-12.512-3.308c-7.16-2.46-12.256-3.915-15.292-4.362l-15.627-0.718l-16.011,0.383
		c-8.949,0.032-11.329-3.628-7.143-10.977c-4.569-0.447-8.086,0.543-10.546,2.971c-1.5,1.47-2.364,2.988-2.588,4.554
		c-1.151-4.026-1.327-8.676-0.528-13.95c0.831-5.657,2.558-9.939,5.177-12.847c-1.214-3.419-2.142-7.079-2.78-10.977
		c-1.246-7.83-0.447-12.991,2.397-15.484c0.894-0.798,3.418-0.814,7.574-0.048c4.347,0.831,8.212,2.142,11.602,3.931
		c5.591-2.717,12.239-4.171,19.941-4.362C227.847,78.254,232.482,79.676,233.79,82.681"/>
	<path fill="#2880AE" d="M181.924,91.645c-1.406-7.925-1.789-12.176-1.15-12.751c0.894-0.798,3.418-0.814,7.574-0.048
		c4.347,0.832,8.212,2.142,11.602,3.931c0.925-0.447,3.546-1.198,7.86-2.252c-8.148,3.644-15.467,10.354-21.954,20.133
		C184.608,102.51,183.298,99.506,181.924,91.645"/>
	<path fill="#2880AE" d="M224.3,78.702c3.26-0.064,5.528,0.191,6.808,0.767c1.085,0.512,1.98,1.583,2.683,3.212
		c2.431-2.908,7.591-3.067,15.484-0.479c6.327,2.077,10.85,4.235,13.566,6.472c4.633-0.48,8.916-0.384,12.847,0.288
		c3.451,0.575,5.752,1.422,6.903,2.541c1.022,0.99,0.83,3.947-0.576,8.869c-1.374,4.794-3.211,9.156-5.512,13.087
		c1.661,4.09,2.557,8.789,2.685,14.093c0.128,5.561-0.703,9.267-2.492,11.122l-4.843-3.307c-2.236-1.151-4.554-1.646-6.949-1.486
		c1.405,3.899,1.038,6.615-1.102,8.149c-1.471,1.055-3.995,1.582-7.574,1.582c-1.853,0-5.785-1.118-11.793-3.356
		c-6.615-2.46-11.456-3.931-14.524-4.41c0.671-2.333,0.848-4.602,0.527-6.807l-0.719-2.636l1.391-0.144l2.253,0.335
		c1.725,0.895,3.18-0.447,4.361-4.026c1.15-3.483,1.166-5.833,0.048-7.048c-1.342-1.47-3.659-2.556-6.95-3.259
		c-4.026-0.863-7.607-0.447-10.737,1.247c-1.629,0.894-2.492,1.087-2.588,0.575c-0.066-0.352,0.352-1.311,1.247-2.876
		c2.747-4.761,4.201-7.877,4.362-9.348c1.852,1.374,4.137,2.237,6.854,2.588c3.132,0.415,5.673-0.112,7.622-1.583
		c-0.479,2.653-0.382,4.091,0.288,4.313c0.512,0.192,1.694-0.399,3.547-1.773c6.104-4.442,11.058-6.967,14.859-7.575
		c2.174-0.352,2.59-1.645,1.247-3.882c-1.278-2.142-3.5-4.154-6.663-6.041c-3.483-2.109-6.743-3.163-9.779-3.163
		c-3.676,0-6.393,1.614-8.149,4.841c-0.223-2.652-0.926-4.825-2.109-6.519C229.413,81.114,227.24,79.66,224.3,78.702"/>
	<path fill="#FFFFFF" d="M195.154,102.814c0.864-1.406,1.71-2.541,2.541-3.403c3.483,1.311,7.271,3.643,11.361,6.998l5.082,4.649
		l-1.247,1.726l-10.354-1.151c-5.657-0.544-9.125-0.591-10.402-0.144C192.39,108.582,193.397,105.69,195.154,102.814"/>
	<path fill="#FFFFFF" d="M266.484,116.572l-12.607,0.143l-10.306,0.383l-0.623-1.583l-0.335-0.575l5.991-4.698
		c4.699-3.229,8.886-5.064,12.56-5.512l2.253,3.691C264.981,111.394,266.005,114.11,266.484,116.572"/>
	<path fill="#0D131A" d="M334.649,65.088c5.208-3.739,11.041-5.161,17.497-4.267c6.488,0.927,11.728,3.868,15.724,8.821
		c3.994,4.954,5.576,10.498,4.746,16.634c-0.831,6.136-3.835,11.058-9.012,14.764c-5.209,3.739-11.058,5.162-17.546,4.267
		c-6.455-0.896-11.68-3.819-15.676-8.773c-3.994-4.985-5.576-10.545-4.745-16.681C326.468,73.716,329.473,68.795,334.649,65.088"/>
	<path fill="#0D131A" d="M149.28,31.581c4.475,5.113,6.392,10.946,5.753,17.497c-0.607,6.583-3.563,11.969-8.868,16.154
		c-5.336,4.218-11.473,6.008-18.408,5.369c-6.936-0.64-12.64-3.516-17.113-8.629c-4.473-5.113-6.408-10.961-5.8-17.544
		c0.607-6.583,3.579-11.967,8.916-16.154c5.336-4.186,11.472-5.959,18.407-5.32C139.1,23.59,144.805,26.466,149.28,31.581"/>
	<path fill="#0D131A" d="M212.745,110.004c-0.415,1.022-1.086,1.918-2.013,2.685l-4.506-0.911l-4.505-0.623
		c-0.576-1.087-0.863-2.253-0.863-3.5c0-0.799,0.256-1.726,0.768-2.781c0.446-0.927,0.975-1.71,1.582-2.348
		c1.406,0.287,3.052,1.293,4.937,3.019L212.745,110.004"/>
	<path fill="#0D131A" d="M258.191,112.545c0,1.662-0.606,3.132-1.821,4.41l-9.49-0.096c-0.769-0.574-1.264-1.181-1.487-1.822
		c-0.225-0.543-0.335-1.374-0.335-2.493l3.643-2.493c2.686-1.597,4.777-2.588,6.279-2.972c0.991,0.576,1.774,1.327,2.35,2.253
		C257.904,110.324,258.191,111.394,258.191,112.545"/>
	<path fill="#0D131A" d="M107.815,117.482l1.438,1.822c-3.355,3.771-6.52,7.638-9.491,11.601c-3.323,4.441-5.29,7.542-5.896,9.301
		l-1.629-0.576c0.768-2.301,2.686-5.704,5.752-10.21C101.406,124.369,104.682,120.39,107.815,117.482"/>
	<path fill="#0D131A" d="M284.459,83.16c-0.99,0.926-1.63,1.598-1.916,2.013c-14.606-7.99-29.354-12.991-44.246-15.004
		c-14.765-2.013-28.394-0.943-40.889,3.211l0.143-1.965c12.816-4.921,27.069-6.247,42.76-3.979
		C255.298,69.642,270.015,74.882,284.459,83.16"/>
	<path fill="#0D131A" d="M347.688,153.723c1.853,4.921,3.691,12.383,5.512,22.386l-2.923-3.116
		c-1.087-5.592-2.717-11.329-4.889-17.209L347.688,153.723"/>
	<path fill="#0D131A" d="M107.815,80.523l1.581,2.732c-8.277,5.4-12.207,9.252-11.791,11.553c0.446,2.557,3.659,8.868,9.635,18.935
		c5.687,9.554,9.219,14.971,10.593,16.25l-2.636,0.335c-1.501-1.406-5.096-6.758-10.786-16.059
		c-6.071-9.938-9.346-16.267-9.826-18.983C94.009,91.933,98.418,87.011,107.815,80.523"/>
	<path fill="#0D131A" d="M169.172,55.692v-2.781c8.884-1.757,14.941-2.668,18.168-2.733c3.388-0.064,6.695,5.353,9.922,16.251
		c1.63,5.465,2.925,10.994,3.883,16.586l-1.772,0.192c-0.319-3.229-1.837-8.708-4.554-16.442c-3.292-9.3-6.119-13.934-8.487-13.901
		C182.148,52.928,176.427,53.871,169.172,55.692"/>
	<path fill="#0D131A" d="M109.395,95.624c0.129-1.119,2.541-3.083,7.238-5.896l1.056,1.438c-4.06,2.396-6.248,3.978-6.568,4.745
		v0.144c0,1.949,2.556,6.999,7.67,15.148c4.921,7.829,8.932,13.454,12.031,16.873l-1.294,1.2
		c-2.939-3.196-6.952-8.805-12.031-16.826C111.809,103.437,109.109,97.828,109.395,95.624"/>
	<path fill="#0D131A" d="M182.643,68.396c-1.726-2.876-3.036-4.266-3.931-4.17c-1.63,0.129-4.458,0.879-8.484,2.253V64.8
		c4.027-1.438,6.806-2.221,8.341-2.348c1.821-0.191,3.915,1.853,6.28,6.135c1.758,3.229,3.196,6.632,4.314,10.211l-2.157-0.91
		C185.822,74.372,184.367,71.208,182.643,68.396"/>
	<path fill="#0D131A" d="M308.715,82.584l-0.479,1.199l-0.767,1.054c-7.766-4.41-13.168-6.982-16.203-7.718
		c-1.245-0.288-3.1,1.263-5.56,4.65c-1.949,2.717-3.659,5.609-5.129,8.677l-1.678-0.479l4.889-9.922
		c2.493-4.25,4.699-6.135,6.616-5.657c1.246,0.32,3.563,1.215,6.95,2.685C300.965,78.702,304.753,80.539,308.715,82.584"/>
	<path fill="#0D131A" d="M355.021,119.735c3.644,4.283,6.392,8.006,8.245,11.169c2.109,3.643,2.845,6.231,2.204,7.766
		c-0.829,1.949-4.76,5.912-11.79,11.889c-3.836,3.259-9.269,7.653-16.299,13.183l-1.583-1.103
		c4.825-3.898,10.004-8.388,15.532-13.47c6.806-6.328,10.608-10.403,11.408-12.224c0.512-1.151-0.145-3.181-1.966-6.088
		c-1.758-2.781-4.427-6.119-8.006-10.018L355.021,119.735"/>
	<path fill="#0D131A" d="M351.186,134.451c-0.158,1.725-2.86,5.321-8.1,10.785c-4.347,4.54-8.964,8.901-13.854,13.087l-1.822-0.766
		c4.411-3.675,9.045-8.021,13.901-13.039c5.209-5.433,7.91-8.835,8.102-10.21c-0.224-0.959-2.605-3.435-7.144-7.43l1.774-0.863
		C348.902,130.458,351.283,133.269,351.186,134.451"/>
	<path fill="#0D131A" d="M303.538,94.09l-0.526,1.725c-4.954-3.58-7.926-5.528-8.917-5.848l-0.96,0.144
		c-1.917,0.926-4.44,4.617-7.572,11.074c-2.334,4.824-4.507,10.098-6.521,15.818l-1.677-0.575
		c1.886-5.273,3.835-10.099,5.849-14.478c3.61-7.765,6.663-12.255,9.154-13.47l2.349-0.191
		C295.581,88.608,298.522,90.542,303.538,94.09"/>
	<path fill="#0D131A" d="M281.2,119.975c1.054-3.036,2.636-5.528,4.746-7.478c2.877-2.652,6.52-4.106,10.929-4.362l-0.863,1.87
		c-3.962,0.416-7.158,1.901-9.587,4.458c-1.789,1.917-3.116,4.346-3.979,7.287L281.2,119.975"/>
	<path fill="#0D131A" d="M332.781,136.513c0.286,3.067-0.017,5.993-0.912,8.772c-1.438,4.473-4.283,7.813-8.533,10.018l-1.247-1.342
		c3.932-1.917,6.6-4.842,8.007-8.773c0.926-2.62,1.245-5.465,0.959-8.533l-0.384-1.678l1.536-0.959
		C332.524,134.915,332.714,135.746,332.781,136.513"/>
	<path fill="#0D131A" d="M288.488,128.316l-1.727-1.965c-0.574-3.036,0.304-5.721,2.637-8.053c1.948-1.949,4.234-3.148,6.854-3.595
		v1.917c-3.035,1.119-5.209,3.051-6.52,5.8C288.839,124.274,288.422,126.239,288.488,128.316"/>
	<path fill="#0D131A" d="M325.589,137.327c0.255,4.123-0.64,7.238-2.686,9.348c-0.958,1.055-2.332,1.886-4.123,2.493l-5.032,1.103
		l-1.535-1.678c1.726-0.064,3.389-0.448,4.984-1.15c1.631-0.671,2.989-1.583,4.076-2.732c1.852-2.045,2.7-4.411,2.54-7.095
		L325.589,137.327"/>
	<path fill="#0D131A" d="M382.153,71.655c1.694,4.441,2.445,8.724,2.254,12.847c-0.256,5.018-1.375,9.604-3.357,13.758
		c-2.14,4.538-5.255,8.389-9.347,11.553c-4.602,3.578-12.031,8.564-22.289,14.956l-19.27,11.505
		c-3.548,1.982-7.479,2.892-11.794,2.732c-4.602-0.161-9.092-1.502-13.469-4.027c-4.124-2.397-7.031-6.279-8.725-11.647
		c-1.503-4.826-1.628-9.092-0.383-12.8c1.343-3.994,4.633-12.048,9.875-24.16c5.56-12.879,9.107-20.405,10.642-22.578
		c2.907-4.506,6.727-8.134,11.456-10.882c4.666-2.748,9.842-4.395,15.531-4.938c5.113-0.512,10.387,0.128,15.819,1.917
		c5.335,1.758,9.794,4.298,13.373,7.622C376.848,61.541,380.077,66.254,382.153,71.655 M378.27,97.588
		c2.046-4.154,3.182-8.5,3.405-13.039c0.224-4.09-0.353-8.053-1.727-11.888c-1.82-5.049-4.921-9.636-9.299-13.758
		c-3.292-3.1-7.512-5.401-12.655-6.903c-5.081-1.47-10.115-1.901-15.102-1.293c-5.655,0.702-10.561,2.477-14.715,5.321
		c-3.42,2.333-6.646,5.64-9.684,9.922c-1.597,2.236-5.242,9.491-10.929,21.763c-5.562,12.048-8.933,19.846-10.115,23.394
		c-1.118,3.387-1.038,7.174,0.239,11.36c1.503,4.794,4.219,8.262,8.149,10.402c4.314,2.333,8.518,3.659,12.606,3.979
		c4.092,0.32,7.702-0.399,10.834-2.156c3.643-2.014,9.971-5.961,18.983-11.841c9.812-6.455,17.177-11.553,22.099-15.292
		C373.589,105.099,376.226,101.775,378.27,97.588"/>
	<path fill="#0D131A" d="M334.553,65.998c-2.269,1.694-4.106,3.739-5.512,6.136c-1.407,2.396-2.286,4.954-2.638,7.669
		c-0.383,2.718-0.223,5.417,0.48,8.101c0.734,2.652,1.947,5.113,3.642,7.383c1.886,2.461,4.154,4.459,6.807,5.992
		c2.685,1.566,5.607,2.557,8.771,2.973l9.205-0.479c3.004-0.799,5.721-2.126,8.147-3.979c2.27-1.725,4.107-3.771,5.513-6.135
		c1.405-2.396,2.301-4.953,2.685-7.67c0.799-5.88-0.734-11.217-4.603-16.01c-3.834-4.762-8.867-7.575-15.1-8.437
		c-3.164-0.416-6.23-0.24-9.204,0.527C339.746,62.802,337.014,64.113,334.553,65.998 M327.555,71.224
		c1.501-2.556,3.483-4.778,5.943-6.663c2.653-1.982,5.578-3.388,8.771-4.219c3.229-0.831,6.536-1.023,9.924-0.575
		c6.712,0.928,12.145,3.979,16.298,9.156c4.155,5.177,5.785,10.945,4.891,17.305c-0.417,2.972-1.374,5.752-2.877,8.341
		c-1.535,2.557-3.517,4.762-5.944,6.617c-2.653,2.013-5.592,3.435-8.82,4.266c-3.228,0.831-6.52,1.006-9.875,0.528
		c-3.388-0.447-6.52-1.502-9.396-3.164c-2.876-1.662-5.321-3.818-7.334-6.471c-1.854-2.461-3.164-5.129-3.931-8.005
		c-0.8-2.876-0.991-5.8-0.576-8.772C325.044,76.592,326.021,73.812,327.555,71.224"/>
	<path fill="#0D131A" d="M137.535,128.316c-6.009-3.612-8.884-8.692-8.628-15.244c0.064-2.045,0.446-4.139,1.15-6.28l1.055-2.828
		l1.39,1.917c-0.959,4.314-1.118,8.022-0.479,11.122c0.928,4.411,3.483,7.974,7.67,10.689L137.535,128.316"/>
	<path fill="#0D131A" d="M178.52,81.866v1.87c-2.173-0.67-4.171-1.166-5.992-1.486l-0.096-1.821L178.52,81.866"/>
	<path fill="#0D131A" d="M174.59,95.336c-0.606-1.374-1.518-2.701-2.732-3.979l0.335-2.061c1.789,1.502,3.132,3.275,4.027,5.32
		c1.085,2.524,1.438,5.241,1.053,8.149c-1.341,1.565-2.317,2.429-2.923,2.588C175.468,100.88,175.549,97.54,174.59,95.336"/>
	<path fill="#0D131A" d="M137.918,112.737c-0.734-1.31-1.325-2.764-1.773-4.363l1.007,0.144l0.959,0.24
		c0.224,0.704,0.591,1.535,1.102,2.494c1.312,2.205,3.052,4.106,5.225,5.704c2.206,1.566,4.395,2.493,6.568,2.781
		c1.981,0.256,3.979,0.24,5.993-0.047l-2.207,1.678c-1.214,0.767-2.108,1.103-2.684,1.007
		C145.876,121.541,141.147,118.329,137.918,112.737"/>
	<path fill="#0D131A" d="M156.662,20.123c4.793,4.666,8.021,9.396,9.683,14.189c1.215,3.612,2.733,12.081,4.555,25.407
		c1.853,13.742,2.684,23.249,2.492,28.522c-0.159,4.729-1.438,9.028-3.834,12.894c-2.748,4.473-6.487,7.367-11.216,8.677
		c-5.434,1.502-10.483,1.87-15.147,1.103c-4.571-0.766-8.358-2.524-11.362-5.273c-4.729-4.282-10.082-9.395-16.058-15.34
		c-7.926-7.894-13.774-14.188-17.544-18.887c-3.453-4.25-5.77-8.819-6.951-13.709c-1.247-5.145-1.294-10.898-0.145-17.257
		c0.863-4.794,2.494-9.252,4.89-13.375c3.196-5.497,7.511-9.844,12.942-13.039c4.634-2.685,9.923-4.346,15.867-4.985
		c5.786-0.639,11.233-0.192,16.347,1.342C146.515,11.99,151.676,15.234,156.662,20.123 M164.379,36.038
		c-1.629-5.177-4.937-9.986-9.923-14.428c-4.697-4.219-9.779-7.159-15.244-8.82c-4.858-1.47-9.731-1.885-14.62-1.248
		c-4.889,0.607-9.604,2.237-14.141,4.89c-5.209,3.036-9.283,6.951-12.224,11.744c-2.238,3.643-3.74,7.654-4.505,12.032
		c-1.055,5.848-0.832,11.744,0.67,17.688c1.342,5.209,3.34,9.428,5.992,12.655c3.931,4.762,9.635,10.978,17.113,18.647
		c6.327,6.456,11.488,11.505,15.484,15.148c2.747,2.493,6.248,4.026,10.497,4.602c4.251,0.575,8.98,0.144,14.19-1.294
		c4.346-1.182,7.797-3.771,10.354-7.765c2.269-3.516,3.467-7.43,3.595-11.745l0.048-1.247c0-6.359-0.832-15.228-2.494-26.604
		C167.575,49.142,165.977,41.055,164.379,36.038"/>
	<path fill="#0D131A" d="M149.807,30.813c4.634,5.305,6.63,11.36,5.992,18.168c-0.288,3.195-1.182,6.199-2.685,9.012
		c-1.502,2.812-3.515,5.257-6.041,7.334c-2.685,2.237-5.704,3.882-9.061,4.937c-3.355,1.023-6.839,1.358-10.45,1.007
		c-7.158-0.671-13.054-3.643-17.688-8.917c-4.634-5.306-6.647-11.36-6.041-18.167c0.319-3.196,1.229-6.201,2.733-9.013
		c1.47-2.812,3.466-5.273,5.991-7.383c2.717-2.236,5.752-3.867,9.109-4.889c3.388-0.991,6.87-1.326,10.449-1.007
		C139.277,22.536,145.174,25.508,149.807,30.813 M154.025,48.837c0.606-6.328-1.248-11.953-5.56-16.874
		c-4.314-4.921-9.811-7.686-16.491-8.293c-3.388-0.319-6.647-0.017-9.779,0.911c-3.13,0.959-5.96,2.493-8.483,4.602
		c-2.335,1.949-4.203,4.218-5.609,6.807c-1.375,2.588-2.206,5.369-2.493,8.341c-0.576,6.329,1.294,11.953,5.609,16.875
		c4.314,4.921,9.812,7.686,16.49,8.292c3.356,0.32,6.599,0,9.731-0.959c3.132-0.959,5.976-2.477,8.533-4.554
		c2.333-1.949,4.187-4.218,5.56-6.807C152.939,54.558,153.77,51.778,154.025,48.837"/>
	<path fill="#0D131A" d="M237.242,348.057l-0.049,1.391c-3.932,2.557-6.487,4.761-7.67,6.615l-0.382,0.91
		c0.351,0.417,1.598,0.944,3.739,1.582c2.172,0.641,4.648,1.216,7.429,1.728l1.534,2.635c-9.429-1.5-14.589-2.827-15.482-3.978
		c-0.449-0.512-0.513-1.182-0.193-2.013c0.383-1.088,1.788-2.733,4.218-4.937c2.365-2.144,4.683-3.917,6.951-5.323L237.242,348.057"
		/>
	<path fill="#0D131A" d="M178.999,100.32l0.912,2.301c-4.187,3.132-8.356,6.727-12.512,10.786
		c-6.423,6.294-12.911,10.578-19.462,12.847c-4.153,1.47-10.147,2.493-17.976,3.068l-5.944,0.479
		c-10.961,1.055-20.902,4.922-29.817,11.601c-7.958,5.912-13.295,12.463-16.011,19.653c-1.886,5.018-2.268,10.626-1.149,16.826
		c0.958,5.305,2.922,10.594,5.896,15.866c0.256,1.629,0.705,3.611,1.341,5.944c-4.473-6.167-7.509-12.048-9.106-17.641
		c-2.237-7.701-1.997-15.259,0.718-22.674c3.132-8.596,8.868-15.69,17.209-21.283c8.565-5.752,18.806-9.204,30.727-10.354
		l5.993-0.479c7.574-0.575,13.199-1.517,16.874-2.828c5.976-2.109,12.065-6.183,18.264-12.224
		C169.621,107.64,174.302,103.677,178.999,100.32"/>
	<path fill="#0D131A" d="M296.348,137.952c-4.825-4.57-10.722-10.913-17.688-19.031l-0.623-0.768l-1.055-4.362l3.26,3.788
		c6.871,8.021,12.688,14.285,17.448,18.792c7,6.647,13.679,11.552,20.038,14.716c17.896,8.947,30.12,17.033,36.671,24.255
		c9.716,10.706,11.267,22.578,4.651,35.617l-1.296-2.396c4.538-11.218,2.334-21.876-6.614-31.974
		c-6.903-7.765-18.358-15.66-34.371-23.681C310.281,149.68,303.475,144.694,296.348,137.952"/>
	<path fill="#0D131A" d="M247.549,365.696l2.013,1.198c0.128,1.054,0.431,2.125,0.911,3.213c-1.789-0.864-3.483-1.808-5.081-2.83
		c-4.44-2.844-7.287-6.997-8.533-12.463c-1.022-4.538-0.847-7.91,0.527-10.114l1.965-0.768c-1.118,1.789-1.136,4.953-0.047,9.492
		C240.615,358.922,243.363,363.012,247.549,365.696"/>
	<path fill="#0D131A" d="M285.802,375.429l-8.341,0.43l1.246-2.493l5.226-0.334L285.802,375.429"/>
	<path fill="#0D131A" d="M321.851,345.755c1.275,2.909,1.005,6.12-0.816,9.634c-1.629,3.07-4.299,6.104-8.006,9.109l-2.492-1.198
		c3.355-2.748,5.864-5.606,7.526-8.58c1.789-3.196,2.299-6.023,1.534-8.484L321.851,345.755"/>
	<path fill="#0D131A" d="M84.23,224.429l1.823,2.062c-0.8,7.094-0.912,14.652-0.336,22.673c0.99,12.783,3.755,23.585,8.293,32.405
		l-1.964,2.062c-5.72-9.332-8.9-20.74-9.54-34.227C82.088,240.902,82.664,232.578,84.23,224.429"/>
	<path fill="#0D131A" d="M325.444,274.522c4.411,5.273,7.736,10.546,9.972,15.818c3.803,8.947,4.97,18.406,3.499,28.378
		c-1.533,10.45-4.603,18.168-9.204,23.153c-2.27,2.462-5.896,4.745-10.881,6.855l-0.433,0.19c-8.371,3.58-16.808,5.369-25.31,5.369
		c-14.637-0.063-27.756-5.512-39.356-16.347l2.733-1.437c10.386,9.012,22.562,13.806,36.527,14.381
		c9.524,0.382,17.72-0.91,24.592-3.885l0.432-0.19c4.153-1.759,7.35-4.011,9.587-6.759c3.931-4.825,6.63-12.271,8.1-22.339
		c2.301-15.627-1.565-29.479-11.601-41.559L325.444,274.522"/>
	<path fill="#0D131A" d="M252.438,379.263c-3.387-5.625-4.761-9.635-4.122-12.031c0.415-1.535,2.061-3.02,4.937-4.459
		c3.324-1.661,6.871-2.3,10.642-1.917c5.433,0.543,9.716,2.62,12.847,6.231c2.621,3.004,3.563,5.513,2.83,7.524
		c-0.896,2.365-3.788,5.179-8.678,8.438c-4.504,2.972-7.621,4.521-9.347,4.649C258.957,387.892,255.921,385.079,252.438,379.263
		 M251.288,367.087c-0.735,0.575-0.192,2.669,1.629,6.278c1.727,3.516,3.612,6.44,5.657,8.773c1.597,1.821,2.667,2.733,3.212,2.733
		c1.277-0.066,3.946-1.44,8.005-4.124c4.441-2.972,7.047-5.48,7.814-7.527c0.447-1.214-0.528-2.842-2.924-4.887
		c-2.685-2.302-6.008-3.884-9.972-4.748C260.077,362.598,255.602,363.765,251.288,367.087"/>
	<path fill="#0D131A" d="M282.255,372.071c0.097-1.597,1.183-3.259,3.261-4.984c2.076-1.693,4.649-3.083,7.718-4.172
		c7.51-2.652,13.948-2.475,19.316,0.528c2.62,1.439,5.322,5.256,8.102,11.456c2.747,6.041,3.979,10.706,3.691,13.996
		c-0.159,1.951-0.896,3.067-2.207,3.356c-3.035,0.606-8.484-0.592-16.345-3.593c-7.799-2.973-14.047-6.201-18.744-9.685
		C283.725,376.483,282.126,374.182,282.255,372.071 M292.466,365.025c-2.396,0.96-4.379,2.157-5.944,3.595
		c-1.471,1.31-2.205,2.492-2.205,3.548c0,2.716,5.063,6.392,15.194,11.024c10.131,4.635,17.209,6.552,21.235,5.752
		c0.416-0.063,0.671-0.653,0.768-1.773c0.256-3.101-0.8-7.335-3.164-12.703c-2.396-5.527-4.698-8.708-6.902-9.539
		C304.993,362.501,298.664,362.533,292.466,365.025"/>
	<path fill="#0D131A" d="M259.245,172.657c-9.172,3.515-18.983,5.354-29.433,5.513c-9.555,0.159-19.51-1.854-29.864-6.04
		c-8.406-3.42-14.637-7.047-18.695-10.882l-6.999-7.095c-3.324-3.515-5.8-5.976-7.43-7.383c-2.589-2.237-4.683-3.467-6.28-3.69
		c-1.31-0.192-3.004,0.495-5.08,2.061c-1.95,1.503-3.915,3.788-5.897,6.855c-1.724,2.684-2.651,4.539-2.779,5.56l-1.582-1.583
		c0.158-1.374,1.071-3.371,2.731-5.992c1.822-2.908,3.739-5.145,5.753-6.712c1.118-0.831,2.38-1.421,3.787-1.773l3.307-0.192
		c1.885,0.255,4.17,1.535,6.854,3.834c1.63,1.375,4.266,3.979,7.91,7.813l6.902,6.999c3.996,3.739,10.066,7.254,18.216,10.547
		c10.098,4.09,19.814,6.056,29.146,5.896c10.163-0.16,19.718-1.949,28.665-5.369c8.948-3.387,15.643-7.765,20.086-13.134
		c1.023-1.247,2.237-2.206,3.643-2.877c1.535-0.734,3.101-1.039,4.699-0.91c2.364,0.223,4.633,1.023,6.805,2.397
		c2.237,1.406,3.915,3.115,5.034,5.129c1.406,2.461,2.301,6.615,2.684,12.463c0.289,4.665,0.225,9.283-0.192,13.854l-1.438,1.773
		c-0.575,0.607-0.815,0.48-0.718-0.383l0.048-0.671c0.51-4.218,0.639-8.612,0.382-13.183c-0.288-5.592-1.135-9.65-2.541-12.175
		c-0.99-1.758-2.508-3.292-4.554-4.602c-2.014-1.311-4.027-2.046-6.04-2.205c-2.685-0.288-4.842,0.543-6.471,2.492
		C275.367,164.587,268.481,169.141,259.245,172.657"/>
	<path fill="#0D131A" d="M179.479,343.887l-0.191-1.584l-0.289-1.582c16.33,5.593,34.083,6.375,53.258,2.348
		c11.377-2.365,21.604-5.896,30.678-10.593c7.799-4.027,15.372-10.402,22.723-19.126c3.739-3.324,7.495-8.198,11.266-14.621
		c3.643-6.266,5.399-10.642,5.271-13.135l1.918-0.575c0.479,3.324-1.149,8.243-4.889,14.764c-3.579,6.265-7.335,11.074-11.266,14.43
		c-3.642,6.358-9.666,12.223-18.072,17.594c-8.117,5.208-17.433,9.348-27.947,12.415c-10.801,3.164-21.506,4.779-32.118,4.842
		C198.447,349.158,188.331,347.434,179.479,343.887"/>
	<path fill="#0D131A" d="M272.044,169.11l12.896-9.779c3.737-2.237,6.998-2.429,9.777-0.576l0.384,1.294
		c-2.491-1.662-5.337-1.535-8.532,0.383l-14.142,10.642c-6.072,4.475-14.189,7.894-24.352,10.259
		c-11.089,2.557-21.38,3.005-30.871,1.342c-11.855-2.077-22.561-6.424-32.116-13.039c-5.529-3.802-11.457-9.156-17.785-16.059
		l-2.494-3.019c-2.364-2.493-4.906-3.803-7.622-3.931c-1.982-0.129-3.946,0.367-5.896,1.486l1.151-1.678
		c2.27-0.894,4.169-1.293,5.704-1.198c2.428,0.159,4.729,1.375,6.902,3.644l2.541,3.116c6.2,6.775,12.112,12.096,17.736,15.963
		c9.555,6.551,20.198,10.833,31.926,12.847c9.044,1.565,18.92,1.182,29.626-1.15C257.36,177.355,265.747,173.84,272.044,169.11"/>
	<path fill="#0D131A" d="M192.901,325.909c8.118,1.822,16.858,2.956,26.221,3.404c25.791,1.246,46.995-2.908,63.611-12.464
		l0.767,1.295l-4.505,2.396c-16.746,8.723-37.438,12.271-62.078,10.641c-9.013-0.576-17.354-1.79-25.023-3.643
		c-6.775-1.63-11.024-3.195-12.751-4.698l0.384-1.677C181.284,322.698,185.742,324.28,192.901,325.909"/>
	<path fill="#0D131A" d="M220.464,327.875c-9.683-0.606-18.695-1.917-27.037-3.931c-7.415-1.79-12.048-3.499-13.901-5.13
		l0.959-1.148c1.501,1.311,6.183,2.779,14.045,4.409c9.012,1.852,18.52,3.035,28.521,3.546c28.188,1.376,49.648-3.131,64.378-13.519
		l-2.107,3.836C268.577,325.591,246.957,329.568,220.464,327.875"/>
	<path fill="#0D131A" d="M157.716,264.503c6.104,4.857,13.822,9.218,23.154,13.087c10.129,4.219,20.868,7.253,32.212,9.107
		c27.549,4.572,52.892,1.678,76.027-8.677l-0.72,1.006l-0.623,1.056c-24.224,10.8-50.827,13.262-79.813,7.382
		c-11.729-2.365-22.674-5.959-32.836-10.786c-9.396-4.44-16.762-9.234-22.098-14.381l2.349,1.247L157.716,264.503"/>
	<path fill="#0D131A" d="M177.467,273.083c-7.861-3.547-13.759-6.95-17.69-10.211l0.96-1.149c3.707,3.067,9.426,6.264,17.16,9.587
		c9.172,3.963,19.031,7.096,29.576,9.395c24.352,5.241,46.61,4.779,66.775-1.389l2.302,0.815
		c-11.984,4.251-24.64,6.374-37.965,6.374c-9.716,0-20.021-1.167-30.919-3.498C197.152,280.737,187.085,277.43,177.467,273.083"/>
	<path fill="#0D131A" d="M150.142,209.041l1.007-1.053c4.889,4.474,11.489,8.787,19.798,12.942
		c9.714,4.825,19.91,8.389,30.583,10.688c26.046,5.655,53.977,2.221,83.793-10.307v1.773c-15.819,6.743-30.393,10.946-43.718,12.607
		c-13.391,1.693-27.037,1.039-40.938-1.966c-10.642-2.332-20.868-6.071-30.679-11.219
		C161.998,218.324,155.383,213.834,150.142,209.041"/>
	<path fill="#0D131A" d="M151.963,203.864l1.055-1.006c4.027,4.154,10.177,8.309,18.454,12.464
		c9.812,4.952,20.311,8.629,31.495,11.025c29.976,6.488,57.843,2.668,83.602-11.458l-0.192,2.062
		c-15.34,8.053-31.398,12.734-48.177,14.045c-12.847,0.991-25.645-0.016-38.397-3.02c-10.993-2.589-21.236-6.504-30.727-11.745
		C161.631,212.109,155.926,207.987,151.963,203.864"/>
	<path fill="#0D131A" d="M80.155,319.679l2.061,0.431c-2.429,12.271-3.244,23.043-2.445,32.31c0.83,9.268,3.275,16.73,7.334,22.385
		l-1.149,1.968c-5.02-5.689-8.07-13.327-9.157-22.914C75.649,343.79,76.768,332.396,80.155,319.679"/>
	<path fill="#0D131A" d="M141.849,387.748l0.911-2.205l2.252-0.72c0.991-0.447,1.727-0.719,2.207-0.816l1.15,1.295l1.246,1.199
		L141.849,387.748"/>
	<path fill="#0D131A" d="M178.041,317.329c0.639-1.439,1.054-3.006,1.247-4.698c2.206,8.533,2.636,18.504,1.294,29.913
		c-1.248,10.769-3.691,19.94-7.335,27.515l-2.397-2.014c2.908-6.807,5.065-14.972,6.471-24.495
		C178.792,333.579,179.031,324.839,178.041,317.329"/>
	<path fill="#0D131A" d="M147.505,386.502c-0.927-0.768-1.486-1.871-1.677-3.309c-0.224-1.661,0.126-3.418,1.054-5.273
		c1.949-3.866,4.986-6.872,9.107-9.011c4.825-2.493,10.083-3.052,15.772-1.678c1.086,0.255,2.109,1.533,3.069,3.835
		c0.703,1.724,1.229,3.594,1.581,5.607c0.607,3.643,0.848,6.84,0.719,9.587c-0.128,3.676-0.895,5.96-2.3,6.854
		c-2.302,1.47-6.599,1.439-12.895-0.095C155.703,391.486,150.893,389.313,147.505,386.502 M157.382,370.155
		c-3.42,1.726-6.008,4.329-7.767,7.813c-0.99,2.014-1.485,3.804-1.485,5.368c0,0.928,0.176,1.535,0.527,1.822
		c3.069,2.589,7.479,4.441,13.23,5.56c5.497,1.088,9.22,1.007,11.169-0.239c0.895-0.576,1.455-2.237,1.677-4.984
		c0.193-2.717,0.017-5.802-0.526-9.253c-0.385-2.27-0.879-4.09-1.487-5.466c-0.51-1.119-0.976-1.726-1.39-1.82
		C166.089,367.711,161.439,368.11,157.382,370.155"/>
	<path fill="#0D131A" d="M85.285,377.059c0.734-4.027,4.009-6.583,9.826-7.671c4.155-0.766,10.355-0.83,18.6-0.192
		c7.733,0.607,14.86,2.51,21.378,5.705c6.839,3.355,10.147,6.823,9.922,10.402c-0.031,1.117-0.767,2.317-2.204,3.595
		c-3.741,3.355-10.867,6.504-21.379,9.444c-10.93,3.034-20.311,4.313-28.139,3.833c-0.928-0.063-1.885-0.383-2.877-0.958
		c-1.086-0.605-1.869-1.326-2.348-2.157c-1.694-2.877-2.779-6.329-3.259-10.354C84.39,384.903,84.549,381.021,85.285,377.059
		 M95.591,371.401c-4.634,0.703-7.239,2.604-7.815,5.705c-0.67,3.674-0.734,7.382-0.191,11.12c0.576,3.771,1.663,6.663,3.259,8.677
		c0.96,1.182,2.062,1.822,3.308,1.917c7.671,0.449,16.571-0.606,26.702-3.163c9.939-2.524,16.635-5.338,20.085-8.437
		c1.055-0.927,1.599-1.71,1.629-2.349c0.16-2.748-2.78-5.496-8.82-8.244c-6.041-2.748-12.8-4.412-20.277-4.985
		C104.843,371.002,98.883,370.923,95.591,371.401"/>
	<path fill="#0D131A" d="M112.465,271.023c3.547-0.704,7.446-1.088,11.695-1.151l-0.048,2.061c-4.762,0.098-9.221,0.72-13.374,1.87
		L112.465,271.023"/>
	<path fill="#0D131A" d="M105.322,272.988l1.87,2.013c-8.277,3.133-14.733,8.517-19.368,16.154
		c-3.514,5.722-5.432,11.361-5.751,16.922c-0.672,10.577,0.526,19.351,3.595,26.316c4.058,9.173,11.201,14.781,21.427,16.827
		c6.264,1.246,12.656,2.142,19.175,2.686c8.596,0.702,14.764,0.445,18.504-0.769c9.268-3.004,17.096-8.868,23.488-17.594
		c5.976-8.212,8.805-16.138,8.484-23.775c-0.446-10.259-3.707-19.047-9.779-26.365c-6.902-8.341-16.299-13.07-28.187-14.188
		l0.144-2.062c13.006,1.151,23.233,6.104,30.68,14.861c6.454,7.639,9.922,16.873,10.401,27.707
		c0.352,8.053-2.685,16.522-9.107,25.406c-6.807,9.459-15.053,15.756-24.736,18.887c-3.868,1.246-10.499,1.422-19.894,0.527
		c-6.806-0.639-13.63-1.646-20.47-3.019c-9.651-1.918-16.793-6.552-21.428-13.902c-4.73-7.541-6.695-17.703-5.896-30.487
		c0.384-6.231,2.317-12.383,5.8-18.455C89.167,282.174,96.183,276.278,105.322,272.988"/>
	<path fill="#0D131A" d="M127.612,146.964c4.762-0.032,8.949,0.814,12.56,2.541c3.578,1.758,6.407,4.282,8.483,7.573
		c2.78,4.506,4.14,9.747,4.075,15.724c-0.065,5.272-1.071,9.38-3.019,12.32l-1.823-0.911c1.438-2.94,2.157-6.791,2.157-11.553
		c0-5.656-1.229-10.435-3.692-14.333c-1.82-2.939-4.44-5.145-7.86-6.615c-3.323-1.438-7.222-2.141-11.697-2.109
		c-8.277,0.064-15.722,1.87-22.338,5.417c-6.615,3.547-11.888,8.581-15.818,15.101c-2.684,4.443-4.33,9.092-4.938,13.95
		c-0.608,4.826-0.129,9.428,1.438,13.806c-0.542,0.575-1.022,1.263-1.438,2.062c-2.045-4.954-2.908-10.034-2.588-15.244
		c0.319-5.528,1.934-10.721,4.843-15.579c4.089-6.774,9.906-12.145,17.448-16.106C110.851,149.072,118.919,147.058,127.612,146.964"
		/>
	<path fill="#0D131A" d="M84.564,196.53c3.229-6.072,9.572-11.521,19.031-16.346c10.386-5.306,19.957-7.174,28.714-5.608
		c4.633,0.831,8.74,2.588,12.319,5.273c3.547,2.652,6.168,5.896,7.861,9.731c1.374,3.132,1.902,6.472,1.582,10.018
		c-0.288,3.356-1.262,6.393-2.924,9.109l-1.773-1.104c1.438-2.332,2.205-5.081,2.301-8.245s-0.495-6.216-1.773-9.155
		c-1.535-3.516-3.851-6.44-6.952-8.772c-3.068-2.333-6.742-3.947-11.024-4.841c-7.766-1.565-16.635,0.192-26.604,5.273
		c-9.205,4.697-15.324,9.891-18.359,15.58c-1.823,3.451-3.052,7.063-3.692,10.834c-0.734,4.507-0.463,8.549,0.817,12.127
		c1.149,3.196,3.051,5.881,5.704,8.053c-0.417,0.479-0.704,1.119-0.863,1.918c-1.823-1.406-3.276-2.717-4.364-3.932
		c-1.373-1.564-2.364-3.211-2.972-4.937c-1.279-3.58-1.646-7.591-1.102-12.032C81.003,204.966,82.36,200.652,84.564,196.53"/>
	<path fill="#0D131A" d="M102.877,271.838c-1.183-2.142-3.164-6.68-5.943-13.614l-1.63-3.931c0.67,0.767,1.583,1.405,2.731,1.918
		l0.528,1.342c4.571,11.376,7.83,16.76,9.779,16.154c1.374-0.417,2.765-2.077,4.171-4.986c1.023-2.141,1.918-4.633,2.684-7.477
		l2.206,0.048c-0.895,3.261-1.918,6.151-3.068,8.677c-1.822,4.026-3.659,6.312-5.513,6.854
		C106.999,277.397,105.018,275.737,102.877,271.838"/>
	<path fill="#0D131A" d="M157.62,237.324c0.288-1.502,0.559-2.477,0.814-2.925c3.164,4.186,4.826,9.539,4.986,16.059
		c0.095,4.155-0.399,8.453-1.486,12.896c-0.545,2.205-1.215,3.404-2.015,3.596c-1.852,0.638-7.669-3.147-17.448-11.362l1.965-1.245
		c1.982,1.63,4.602,3.53,7.862,5.704c3.803,2.589,6.135,3.867,7,3.836c0.287-0.257,0.605-1.104,0.958-2.541
		c0.416-1.726,0.688-3.772,0.815-6.136l0.095-2.541C161.167,246.016,159.985,240.902,157.62,237.324"/>
	<path fill="#0D131A" d="M140.41,257.36l2.446-1.102c-0.128,3.228-0.862,7.335-2.205,12.319c-1.47,5.562-2.973,9.108-4.506,10.641
		c-0.736,0.737-1.501,1.041-2.301,0.913c-2.205-0.415-4.905-2.396-8.101-5.944c-3.196-3.611-5.912-7.734-8.149-12.368l2.252,0.527
		c2.077,4.058,4.586,7.558,7.526,10.498c2.684,2.653,4.938,4.155,6.758,4.505c0.193,0.032,0.447-0.111,0.769-0.43
		c1.214-1.247,2.412-4.154,3.595-8.725C139.549,264.104,140.188,260.491,140.41,257.36"/>
	<path fill="#0D131A" d="M154.025,211.054c3.004,2.939,4.953,5.945,5.847,9.013c0.927,3.227,0.991,6.949,0.193,11.169
		c-0.831,4.25-2.412,8.404-4.747,12.463c-2.62,4.538-5.831,8.341-9.636,11.409c-3.77,3.068-7.796,5.13-12.079,6.183
		c-6.456,1.598-12.912,2.031-19.367,1.295c-6.615-0.766-12.144-2.653-16.585-5.656c-2.525-1.692-4.634-3.866-6.327-6.52
		c-1.694-2.62-2.716-5.272-3.068-7.957c-1.086-7.639-0.112-14.493,2.924-20.564c3.003-6.136,7.894-11.09,14.668-14.861
		c5.945-3.292,12.128-5.224,18.552-5.8c6.583-0.543,12.864,0.4,18.839,2.828C147.33,205.717,150.925,208.05,154.025,211.054
		 M153.019,243.171c2.27-3.929,3.85-7.909,4.746-11.935c0.927-4.154,0.959-7.688,0.095-10.595c-0.799-2.686-2.541-5.273-5.225-7.765
		c-2.684-2.492-5.959-4.523-9.826-6.089c-5.753-2.333-11.729-3.292-17.929-2.877c-6.2,0.416-12.081,2.173-17.64,5.273
		c-6.424,3.58-11.075,8.246-13.949,13.997c-2.876,5.752-3.82,12.209-2.829,19.367c0.671,4.825,3.355,8.836,8.054,12.03
		c4.283,2.91,9.3,4.778,15.051,5.609c5.817,0.831,11.746,0.513,17.784-0.959c4.251-1.055,8.245-2.908,11.984-5.561
		C147.394,250.761,150.621,247.262,153.019,243.171"/>
	<path fill="#0D131A" d="M300.471,188.476c5.241-4.697,11.968-7.383,20.181-8.053c8.598-0.704,16.33,1.118,23.201,5.465
		c7.862,4.954,13.136,12.464,15.818,22.53c2.334,8.66,1.935,16.507-1.198,23.536c-2.716,6.041-6.87,10.515-12.463,13.423
		l-0.959-1.822c4.602-2.396,8.1-6.023,10.498-10.882c3.291-6.55,3.738-14.284,1.342-23.2c-2.461-9.205-7.11-16.235-13.95-21.092
		c-6.006-4.283-12.829-6.344-20.468-6.184c-7.287,0.128-13.469,2.157-18.551,6.088c-5.4,4.187-8.133,9.507-8.198,15.963
		c0,0.447-0.622,1.199-1.868,2.253C292.704,199.501,294.909,193.493,300.471,188.476"/>
	<path fill="#0D131A" d="M344.668,231.092c1.312,4.441,1.837,8.723,1.582,12.845c-0.223,3.932-1.149,7.337-2.78,10.212
		c-1.472,2.589-3.388,4.714-5.752,6.374c-2.653,1.854-5.705,2.989-9.156,3.405v-2.158c6.231-2.077,10.515-5.225,12.847-9.442
		c2.94-5.146,3.131-11.984,0.574-20.517c-2.364-8.117-6.727-15.102-13.086-20.947c-7.479-6.903-15.548-9.668-24.207-8.294
		c-6.648,1.054-11.554,4.154-14.718,9.299c-1.692,2.717-2.764,5.802-3.211,9.254c-0.383,2.938-0.288,5.369,0.289,7.287l-1.966,0.572
		c-0.736-2.331-1.039-4.938-0.912-7.812c0.16-3.963,1.183-7.462,3.067-10.499c1.663-2.683,4.06-4.921,7.191-6.71
		c2.939-1.695,6.247-2.829,9.924-3.404c9.267-1.47,17.958,1.39,26.077,8.581C337.43,215.305,342.174,222.622,344.668,231.092"/>
	<path fill="#0D131A" d="M276.263,240.343l0.814,2.637c-2.619,2.364-5.111,6.231-7.478,11.6c-2.235,5.114-2.939,7.991-2.108,8.629
		l6.087-0.335l4.891-1.341l0.431,1.391l-5.369,1.438c-3.707,0.863-6.296,1.135-7.765,0.815c-0.608-0.096-1.008-0.495-1.2-1.198
		c-0.446-1.853,1.007-5.96,4.362-12.319C272.093,245.647,274.536,241.877,276.263,240.343"/>
	<path fill="#0D131A" d="M304.257,283.965l2.252,0.289l2.206,0.287c-5.688,1.662-10.627,2.845-14.812,3.547
		c-4.442,0.703-7.016,0.671-7.718-0.096c-0.607-0.672-0.528-2.333,0.239-4.983c0.671-2.367,1.502-4.413,2.493-6.138l1.246,0.768
		c-1.022,1.789-1.821,3.611-2.397,5.466c-0.639,1.981-0.736,3.179-0.287,3.594l5.944-0.287
		C296.78,285.834,300.391,285.021,304.257,283.965"/>
	<path fill="#0D131A" d="M277.509,262.49l0.912,1.343c-1.918,2.844-3.42,5.496-4.507,7.958c-1.47,3.323-1.773,5.623-0.911,6.901
		c0.415,0.512,2.237,0.656,5.466,0.433c3.515-0.257,7.095-0.881,10.736-1.87c0.192,0.448,0.624,0.831,1.295,1.15
		c-4.155,1.216-8.148,2.077-11.984,2.588c-4.569,0.575-7.188,0.351-7.86-0.671C268.832,277.638,271.118,271.694,277.509,262.49"/>
	<path fill="#0D131A" d="M302.196,226.154c4.956,1.312,9.43,3.707,13.424,7.191c4.153,3.579,7.429,8.004,9.825,13.276
		c3.644,7.989,4.875,15.229,3.692,21.716c-1.119,6.071-4.092,10.481-8.916,13.229c-6.104,3.483-11.649,4.874-16.633,4.17
		c-5.595-0.799-11.857-4.346-18.793-10.642c-3.418-3.098-6.072-6.917-7.957-11.456c-1.789-4.346-2.685-8.932-2.685-13.758v-1.293
		c0.129-9.491,3.084-16.204,8.868-20.134C288.198,224.908,294.591,224.142,302.196,226.154 M314.324,234.925
		c-3.803-3.322-8.006-5.575-12.606-6.758c-5.02-1.278-10.083-0.384-15.195,2.685c-6.2,3.708-9.57,9.604-10.114,17.688
		c-0.226,3.611,0.272,7.223,1.485,10.833c1.663,4.985,4.555,9.347,8.677,13.088c6.838,6.198,12.896,9.571,18.167,10.114
		c3.867,0.414,8.613-0.847,14.238-3.787c4.697-2.428,7.463-6.487,8.293-12.176c0.83-5.688-0.399-12.064-3.691-19.127
		C321.21,242.469,318.126,238.282,314.324,234.925"/>
	<path fill="#0D131A" d="M234.606,84.023l-0.957,4.698c-0.354,1.694-0.641,2.477-0.864,2.349c-0.545-0.319-0.545-2.364,0-6.135
		c0.224-1.374,0-2.429-0.671-3.164c-0.417-0.479-1.198-0.943-2.349-1.39c-3.133-1.149-8.23-1.23-15.292-0.24
		c-6.487,0.928-11.313,2.188-14.477,3.787c-1.215,0.607-1.934,0.799-2.158,0.575c-0.223-0.256,0.16-0.751,1.151-1.486
		c-2.205-1.343-5.577-2.43-10.116-3.259l-7.621-0.335c-1.663,1.47-2.493,4.362-2.493,8.676c0,3.517,0.319,6.824,0.958,9.924
		c0.513,2.524,1.151,4.586,1.918,6.183c1.119-0.8,1.741-1.071,1.87-0.814c0.127,0.256-0.129,0.879-0.768,1.869
		c-0.894,1.406-1.932,3.563-3.116,6.472c-1.566,3.803-2.525,6.982-2.876,9.539c-0.32,2.141-0.464,3.852-0.432,5.129l0.288,3.93
		l-0.431,1.342c-0.224,0.576-0.417,0.815-0.576,0.72c-0.256-0.607-0.528-1.662-0.815-3.164c-0.35-1.662-0.526-2.957-0.526-3.882
		c0-3.547,0.542-7.191,1.629-10.93c1.15-3.995,2.636-7.063,4.458-9.205c-0.862-2.204-1.613-4.346-2.252-6.423
		c-1.214-3.995-1.822-7.51-1.822-10.545c0-5.082,1.054-8.565,3.163-10.451c1.183-1.022,3.98-1.135,8.389-0.335
		c4.697,0.831,8.74,2.333,12.129,4.505c4.536-2.108,9.841-3.515,15.915-4.217c6.199-0.736,11.041-0.448,14.524,0.863
		c1.343,0.479,2.54,1.454,3.594,2.924c2.43-2.749,7.511-2.829,15.244-0.24c6.104,2.045,10.706,4.25,13.806,6.615l12.943,0.384
		c3.515,0.607,5.896,1.502,7.142,2.684c0.513,0.512,0.769,1.47,0.769,2.876c0,2.364-0.64,5.417-1.917,9.156
		c-1.216,3.611-2.669,6.886-4.363,9.826c2.43,6.328,3.179,12.703,2.254,19.126c-0.672,4.506-1.534,7.287-2.588,8.341
		c-0.417,0.447-0.943,0.383-1.583-0.191c-0.64-0.575-0.735-1.359-0.288-2.35c0.799-1.662,1.404-4.554,1.821-8.676
		c0.512-5.338,0.191-10.147-0.959-14.429c-0.832,0.383-1.263,0.304-1.294-0.24c-0.032-0.512,0.207-1.039,0.719-1.583
		c0.575-0.67,1.821-3.5,3.739-8.484c2.044-5.37,3.066-8.9,3.066-10.594c0-0.863-0.144-1.438-0.431-1.727
		c-0.862-0.863-3.34-1.502-7.429-1.917c-4.124-0.448-8.039-0.464-11.745-0.048c-1.119,0.127-2.03,0-2.732-0.383
		c-0.768-0.416-0.415-0.847,1.054-1.293c-0.383-0.416-1.854-1.151-4.409-2.206c-2.878-1.214-5.77-2.221-8.678-3.02
		C239.943,80.89,235.436,81.18,234.606,84.023"/>
	<path fill="#0D131A" d="M194.052,87.331l-7.909,10.546c-0.48-1.949-0.911-3.962-1.295-6.04c-0.766-4.123-0.848-6.44-0.239-6.951
		C185.695,83.959,188.843,84.773,194.052,87.331"/>
	<path fill="#0D131A" d="M184.944,85.269c-0.159,0.159-0.239,0.559-0.239,1.199c0,1.918,0.559,5.32,1.679,10.21l6.901-9.108
		C188.587,85.269,185.807,84.502,184.944,85.269 M194.291,86.898c0.705,0.448,0.752,0.847,0.145,1.199
		c-0.384,0.255-1.598,1.726-3.643,4.41l-3.835,5.129c-0.479,0.671-0.831,0.927-1.054,0.768l-0.24-0.431
		c-2.044-8.021-2.508-12.512-1.39-13.47C185.552,83.384,188.891,84.183,194.291,86.898"/>
	<path fill="#0D131A" d="M276.502,94.376c0,1.055-0.863,4.298-2.59,9.731l-7.668-9.731l5.8-0.767
		C274.985,93.418,276.471,93.674,276.502,94.376"/>
	<path fill="#0D131A" d="M266.914,93.609c5.336-0.862,8.565-0.879,9.684-0.048l0.432,0.814c0,0.8-0.352,2.525-1.055,5.178
		c-0.702,2.62-1.23,4.186-1.583,4.697c-0.287,0.447-0.559,0.623-0.815,0.527l-0.767-0.718c-3.771-5.337-5.928-8.262-6.471-8.772
		C265.349,94.361,265.54,93.803,266.914,93.609 M275.975,94.426l-3.643-0.335l-5.178,0.623l6.521,8.294
		C275.207,98.115,275.975,95.256,275.975,94.426"/>
	<path fill="#0D131A" d="M223.006,99.793c0.097-0.862,0.255-1.135,0.479-0.814c0.224,0.32,0.32,1.006,0.29,2.061
		c-0.066,1.662-0.449,3.515-1.151,5.56c-0.704,2.173-1.438,3.484-2.205,3.931c-0.736,0.448-1.167,0.512-1.295,0.191
		c-0.127-0.287,0.048-0.766,0.526-1.437c0.448-0.671,1.104-2.206,1.966-4.602C222.447,102.286,222.909,100.656,223.006,99.793"/>
	<path fill="#0D131A" d="M236.763,103.101c-0.095-1.598,0.016-2.524,0.335-2.781c0.321-0.255,0.575,0.463,0.768,2.157
		c0.383,3.516,1.038,6.296,1.965,8.341c0.544,1.182,0.769,1.95,0.671,2.301c-0.127,0.352-0.623,0.143-1.485-0.624
		c-0.801-0.703-1.373-2.077-1.725-4.123L236.763,103.101"/>
	<path fill="#0D131A" d="M222.717,111.729c2.014-0.798,3.787-1.149,5.322-1.054c3.899,0.256,7.015,1.517,9.347,3.787
		c0.767,0.736,1.07,1.23,0.911,1.486c-0.128,0.223-0.512,0.079-1.15-0.432c-0.606-0.512-1.79-1.055-3.547-1.628
		c-1.916-0.639-3.658-1.024-5.225-1.151l-4.458,0.239c-1.342,0.224-2.477,0.528-3.403,0.912l-1.44,0.383
		c-0.19-0.063-0.079-0.287,0.335-0.671C219.953,113.056,221.055,112.433,222.717,111.729"/>
	<path fill="#0D131A" d="M208.289,121.365c-0.991-0.447-1.518-1.006-1.583-1.678c-0.063-0.703,0.528-1.055,1.773-1.055
		c1.279,0,2.732,0.847,4.364,2.541c1.47,1.502,2.443,2.923,2.922,4.266c0.353,1.054,0.304,1.599-0.143,1.629
		c-0.383,0-0.782-0.319-1.2-0.958C213.242,124.257,211.198,122.675,208.289,121.365"/>
	<path fill="#0D131A" d="M228.806,124.816c3.771,0.512,6.744,1.854,8.916,4.027c0.799,0.799,1.183,1.406,1.15,1.821
		c-0.031,0.383-0.512,0.24-1.438-0.432c-2.78-2.14-6.104-3.34-9.972-3.594c-3.612-0.256-6.95,0.303-10.019,1.678l-1.535,0.095
		c-0.095-0.351,0.304-0.799,1.199-1.342C220.72,124.992,224.619,124.24,228.806,124.816"/>
	<path fill="#0D131A" d="M239.351,128.125c0.896-1.311,2.286-2.477,4.17-3.501c2.079-1.118,3.82-1.518,5.227-1.198
		c0.383,0.096,0.654,0.526,0.815,1.294c0.128,0.799-0.096,1.198-0.67,1.198c-1.022,0-2.317,0.24-3.884,0.719
		c-2.076,0.607-3.611,1.454-4.603,2.541c-0.639,0.704-1.069,0.863-1.295,0.479C238.856,129.274,238.937,128.763,239.351,128.125"/>
	<path fill="#0D131A" d="M212.939,112.497l0.575-1.247l-5.513-4.889c-3.674-2.94-7.062-5.018-10.163-6.232
		c-0.895,1.055-1.725,2.253-2.492,3.596c-1.246,2.237-2.031,4.521-2.35,6.855l9.874,0.528l6.665,0.958L212.939,112.497
		 M193.955,103.149c0.351-0.639,1.293-1.757,2.83-3.356c-1.087-0.542-1.726-1.086-1.918-1.629c-0.192-0.606,0.718-0.559,2.732,0.145
		c3.259,1.15,6.664,3.1,10.211,5.849c3.037,2.364,5.177,4.458,6.424,6.28c0.67,1.022,0.894,1.549,0.67,1.581l-0.575-0.239
		l-0.527,0.911l0.431,0.479c0.032,0.319-0.56,0.432-1.774,0.335l-9.539-0.911l-10.595-0.527c-1.821,0.127-2.748,0-2.78-0.384
		c-0.064-0.383,0.688-0.75,2.253-1.102C192.087,107.511,192.806,105.034,193.955,103.149"/>
	<path fill="#0D131A" d="M261.115,104.157c2.333-0.383,3.499-0.304,3.499,0.24c-0.033,0.512-0.799,0.879-2.301,1.103
		c1.021,0.671,1.981,1.918,2.877,3.739c1.118,2.174,1.63,4.348,1.534,6.52c1.149,0.192,1.741,0.479,1.772,0.863
		c0.033,0.353-0.623,0.528-1.965,0.528l-11.6,0.144l-11.218,0.383c-0.927,0.129-1.312,0.016-1.15-0.335l0.526-0.527
		c-0.318-0.415-0.526-0.814-0.623-1.198l-0.862,0.047c-0.192-0.16,0-0.543,0.574-1.15c1.727-1.789,4.3-3.707,7.718-5.753
		C254.116,106.232,257.855,104.699,261.115,104.157 M265.525,115.804c-0.224-1.758-0.846-3.676-1.868-5.753
		c-0.864-1.789-1.773-3.195-2.733-4.218c-3.229,0.48-6.887,1.965-10.978,4.459c-2.619,1.598-4.825,3.195-6.614,4.794l0.623,1.39
		l11.695-0.527L265.525,115.804"/>
	<path fill="#0D131A" d="M203.016,102.191l0.864,0.67c-1.663,1.151-2.493,2.748-2.493,4.794c0,1.535,0.495,2.828,1.485,3.882
		l-1.533-0.24c-0.671-1.15-1.007-2.364-1.007-3.643C200.332,105.386,201.226,103.564,203.016,102.191"/>
	<path fill="#0D131A" d="M212.316,109.572l0.813,0.863c-0.415,0.927-0.973,1.694-1.678,2.3l-1.244-0.335
		C211.228,111.698,211.932,110.756,212.316,109.572"/>
	<path fill="#0D131A" d="M245.583,112.545c0,1.886,0.768,3.404,2.301,4.554l-1.439,0.097c-1.15-1.183-1.773-2.637-1.868-4.362
		l1.102-1.055L245.583,112.545"/>
	<path fill="#0D131A" d="M258.718,112.545c0,1.629-0.543,3.083-1.63,4.362h-1.486c1.151-0.959,1.727-2.43,1.727-4.411
		c0-2.428-0.976-4.139-2.925-5.129l1.246-0.479c0.928,0.639,1.661,1.438,2.206,2.397
		C258.431,110.308,258.718,111.394,258.718,112.545"/>
	<path fill="#0D131A" d="M251.719,112.257c0,0.926-0.144,1.694-0.431,2.301c-0.289,0.64-0.654,0.958-1.101,0.958
		c-0.418,0-0.771-0.319-1.057-0.958c-0.286-0.639-0.431-1.406-0.431-2.301s0.146-1.646,0.431-2.253
		c0.287-0.64,0.64-0.959,1.057-0.959c0.415,0,0.78,0.319,1.101,0.959C251.575,110.611,251.719,111.362,251.719,112.257"/>
	<path fill="#0D131A" d="M210.303,108.518c0,0.8-0.161,1.502-0.48,2.109c-0.287,0.575-0.656,0.863-1.102,0.863
		c-0.415,0-0.782-0.288-1.101-0.863c-0.289-0.576-0.433-1.278-0.433-2.109s0.145-1.533,0.433-2.109
		c0.319-0.575,0.687-0.863,1.101-0.863c0.446,0,0.815,0.288,1.102,0.863C210.142,106.984,210.303,107.687,210.303,108.518"/>
	<path fill="#FFFFFF" d="M255.938,110.292c0,1.022-0.479,1.534-1.439,1.534c-0.416,0-0.751-0.128-1.005-0.383
		c-0.288-0.288-0.432-0.67-0.432-1.15c0-0.479,0.145-0.863,0.432-1.15c0.254-0.32,0.574-0.479,0.959-0.479
		c0.416,0,0.768,0.16,1.054,0.479C255.794,109.429,255.938,109.812,255.938,110.292"/>
	<path fill="#FFFFFF" d="M206.515,106.313c0,0.415-0.16,0.782-0.48,1.102c-0.287,0.288-0.655,0.431-1.102,0.431
		c-0.447,0-0.814-0.144-1.102-0.431c-0.319-0.319-0.479-0.688-0.479-1.102c0-0.416,0.16-0.767,0.479-1.055
		c0.32-0.319,0.687-0.479,1.102-0.479c0.417,0,0.783,0.16,1.102,0.479C206.356,105.546,206.515,105.897,206.515,106.313"/>
	<path fill="#0D131A" d="M264.087,132.582c-0.224-1.055-0.145-1.549,0.24-1.486c0.383,0.095,0.878,0.783,1.486,2.061l0.671,2.781
		l0.24,2.541c-0.127,2.589-1.055,4.378-2.781,5.37c-1.469,0.799-3.755,1.15-6.854,1.055c-1.886-0.064-3.995-0.512-6.328-1.343
		l-6.95-2.685c-2.557-0.863-5.417-1.694-8.581-2.493l-8.006-1.678l-10.546-0.719l-11.36,0.143l-9.061,0.432
		c-4.473,0.032-7.446-1.167-8.916-3.595c-0.479-0.863-0.718-1.837-0.718-2.924c0-0.958,0.208-1.98,0.623-3.067
		c0.544-1.375,1.279-2.412,2.205-3.116c0.928-0.736,1.47-1.039,1.63-0.912c0.095,0.129-0.096,0.528-0.576,1.2
		c-0.511,0.734-0.927,1.9-1.247,3.499c-0.352,1.822-0.288,3.132,0.191,3.931c1.312,2.205,3.756,3.292,7.335,3.259l8.484-0.143
		l12.031-0.24l11.217,0.767c3.995,0.575,9.012,1.901,15.053,3.979l7.19,2.493c2.462,0.766,4.282,1.15,5.465,1.15
		c1.629,0.032,3.146-0.177,4.554-0.624c1.598-0.512,2.748-1.262,3.452-2.253C265.031,138.813,264.981,136.353,264.087,132.582"/>
	<path fill="#0D131A" d="M265.382,133.11c8.757,0.159,13.165,3.947,13.23,11.36c0,2.748-0.607,5.72-1.823,8.916
		c-1.054,2.748-2.269,4.952-3.643,6.615c-4.922,6.008-13.103,10.099-24.544,12.271c-8.66,1.63-17.433,1.997-26.316,1.103
		c-16.747-1.662-29.641-6.583-38.684-14.765c-8.629-7.765-11.584-16.297-8.869-25.599c0.896-3.099,2.477-5.433,4.747-6.998
		c2.653-1.853,6.057-2.573,10.211-2.158c0.319,0.575-0.034,0.959-1.055,1.151c-2.333-0.16-4.538,0.512-6.615,2.013
		c-2.078,1.502-3.659,3.595-4.746,6.28c-1.342,3.323-1.373,6.982-0.095,10.978c1.341,4.122,3.881,8.021,7.622,11.695
		c8.917,8.725,21.65,13.901,38.205,15.531l6.232,0.335l13.326-0.623c13.391-1.565,22.882-5.784,28.474-12.655
		c1.854-2.27,3.212-5.098,4.075-8.484c0.798-3.165,0.991-5.96,0.575-8.389c-0.32-2.013-1.358-3.659-3.116-4.938
		c-1.725-1.246-3.898-1.982-6.519-2.206l-0.335-0.624L265.382,133.11"/>
</g>
</svg>
