<?xml version="1.0" encoding="utf-8"?>
<!-- Generator: Adobe Illustrator 16.0.0, SVG Export Plug-In . SVG Version: 6.00 Build 0)  -->
<!DOCTYPE svg PUBLIC "-//W3C//DTD SVG 1.1//EN" "http://www.w3.org/Graphics/SVG/1.1/DTD/svg11.dtd">
<svg version="1.1" id="Layer_1" xmlns="http://www.w3.org/2000/svg" xmlns:xlink="http://www.w3.org/1999/xlink" x="0px" y="0px"
	 width="456px" height="415px" viewBox="0 0 456 415" enable-background="new 0 0 456 415" xml:space="preserve">
<g>
	<path fill="#0D131A" d="M253.572,233.894H219.45v-40.142h34.121V233.894"/>
	<path fill="#0D131A" d="M134.633,234.563c1.239-4.66,3.295-7.311,6.17-7.956c3.37-0.742,6.566,0.992,9.59,5.204
		c2.675,3.767,4.509,8.326,5.5,13.679c0.992,5.301,0.893,10.901-0.297,16.798c-0.941,4.908-2.255,8.6-3.94,11.077L150.467,275
		c-1.685-0.693-3.866-2.526-6.541-5.499c-3.866-4.361-6.592-9.418-8.178-15.166C133.617,246.556,133.246,239.964,134.633,234.563"/>
	<path fill="#F0E78E" d="M137.83,251.14c-1.289-5.401-1.66-10.333-1.116-14.793c0.595-4.907,2.231-7.633,4.907-8.177
		c2.181-0.447,4.411,0.99,6.69,4.311c2.429,3.568,4.188,8.475,5.278,14.718c0.594,3.223,0.669,7.113,0.223,11.672
		c-0.446,5.502-1.561,10.209-3.345,14.125c-2.676-1.835-5.179-4.808-7.508-8.921C140.679,260.061,138.969,255.749,137.83,251.14"/>
	<path fill="#C9C279" d="M137.904,231.663c-0.744,11.2,1.363,20.641,6.318,28.322c1.884,2.874,3.742,4.757,5.576,5.649
		c1.784,0.894,2.874,0.496,3.271-1.19c-0.645,3.271-1.511,6.121-2.602,8.551c-2.676-1.835-5.179-4.808-7.508-8.921
		c-2.279-4.014-3.99-8.325-5.129-12.935c-0.893-3.618-1.338-7.162-1.338-10.631C136.442,236.793,136.912,233.844,137.904,231.663"/>
	<path fill="#0D131A" d="M156.339,277.379l-2.527,2.008l-3.271,1.338c-2.379-0.346-3.568-1.833-3.568-4.46
		c-0.05-2.577,0.917-4.287,2.899-5.129c1.982-0.893,3.767-0.595,5.352,0.892C156.86,273.515,157.232,275.299,156.339,277.379"/>
	<path fill="#F0E78E" d="M155.001,274.109c0.446,0.891,0.248,1.859-0.595,2.898l-1.486,1.264l-1.338,0.521
		c-1.041,0.198-1.883-0.075-2.528-0.818c-0.495-0.546-0.644-1.387-0.445-2.527c0.148-1.189,0.668-2.082,1.561-2.677
		c0.645-0.396,1.437-0.521,2.379-0.372C153.688,272.549,154.506,273.117,155.001,274.109"/>
	<path fill="#C9C279" d="M155.001,274.109c0.446,0.891,0.248,1.859-0.595,2.898l-1.486,1.264l-1.338,0.521
		c-1.041,0.198-1.883-0.075-2.528-0.818c-0.545-0.596-0.693-1.437-0.445-2.527l3.345,0.223c1.289-0.645,1.809-1.636,1.561-2.973
		C154.158,272.945,154.655,273.415,155.001,274.109"/>
	<path fill="#0D131A" d="M247.253,279.462c1.932-1.834,4.483-2.752,7.657-2.752c3.615,0,6.615,0.818,8.994,2.454
		c3.073,2.131,4.608,5.45,4.608,9.961c0,2.974-1.464,5.749-4.387,8.325c-2.974,2.676-6.22,3.915-9.737,3.718
		c-2.924-0.148-5.326-1.166-7.212-3.049c-2.129-2.229-3.195-5.353-3.195-9.365C243.982,284.689,245.072,281.592,247.253,279.462"/>
	<path fill="#F0E78E" d="M247.996,280.8c1.834-2.429,4.188-3.644,7.062-3.644c2.973,0,5.523,1.066,7.656,3.197
		c2.18,2.23,3.271,5.056,3.271,8.474c0,2.874-1.313,5.353-3.939,7.435c-2.479,1.933-5.229,2.898-8.253,2.898
		c-2.13,0-4.088-1.114-5.871-3.345c-1.734-2.18-2.602-4.51-2.602-6.988C245.321,285.755,246.211,283.078,247.996,280.8"/>
	<path fill="#C9C279" d="M253.793,299.16c-2.13,0-4.088-1.114-5.871-3.345c-1.734-2.18-2.602-4.51-2.602-6.988
		c0-3.072,0.891-5.749,2.676-8.027c1.834-2.429,4.188-3.644,7.062-3.644l3.345,0.521l-1.785-0.148c-2.676,0-4.955,0.941-6.838,2.825
		c-1.885,1.885-2.825,4.162-2.825,6.839c0,2.676,0.94,4.979,2.825,6.913c1.883,1.884,4.162,2.825,6.838,2.825
		c2.132,0,4.063-0.645,5.799-1.934c1.686-1.239,2.849-2.85,3.494-4.832c-0.446,2.528-1.909,4.684-4.386,6.468
		C259.146,298.318,256.57,299.16,253.793,299.16"/>
	<path fill="#0D131A" d="M242.42,263.33l-0.966,34.567c-4.162,6.491-9.887,10.977-17.172,13.453
		c-6.641,2.28-16.676,3.52-30.106,3.718c-11.002,0.148-20.417-2.107-28.248-6.765c-8.375-4.955-13.653-11.968-15.833-21.036
		c-0.792-3.521-0.322-6.395,1.413-8.623c1.932-2.43,4.708-2.874,8.326-1.339l5.426,2.008l9.813,0.817
		c8.276-0.249,14.595-3.32,18.956-9.219c4.312-5.897,5.996-13.775,5.055-23.638l22.078-10.706L242.42,263.33"/>
	<path fill="#6CBA5A" d="M169.943,281.69l-2.378,0.968c-1.784,1.089-3.271,2.751-4.46,4.98c-1.189,2.279-1.635,4.758-1.338,7.434
		l0.892,3.419l-2.973-0.892c-1.338-0.446-2.404-1.04-3.197-1.784c-1.239-1.189-2.28-2.75-3.123-4.683
		c-0.792-1.934-1.264-3.991-1.412-6.171c-0.148-2.428,0.446-4.312,1.784-5.648l5.575-0.149l4.312,1.709
		C166.201,281.667,168.307,281.938,169.943,281.69"/>
	<path fill="#5DA24D" d="M152.474,288.158c0.892,1.935,2.477,3.247,4.758,3.94l4.534-0.298c-0.297,2.479,0,4.709,0.892,6.69
		l-2.973-0.892c-1.338-0.446-2.404-1.04-3.197-1.784C154.506,293.884,153.167,291.33,152.474,288.158"/>
	<path fill="#6CBA5A" d="M183.546,281.245l-1.709,2.38c-1.14,2.03-1.709,4.014-1.709,5.946c0,2.08,0.421,4.088,1.263,6.021
		c0.694,1.487,1.388,2.527,2.082,3.123c0.743,0.692,0.669,1.114-0.223,1.263l-8.177,0.669c-3.618,0-6.442-0.693-8.475-2.081
		c-1.932-1.337-2.899-3.146-2.899-5.428c0-2.625,0.991-5.103,2.973-7.433c1.686-1.981,3.346-3.171,4.981-3.567l5.873-0.371
		l3.493-0.746C182.555,280.626,183.398,280.699,183.546,281.245"/>
	<path fill="#5DA24D" d="M163.698,292.469c0.743,1.936,3.469,3.223,8.177,3.867c4.757,0.595,7.805,0,9.143-1.783
		c0.693,1.932,1.512,3.319,2.453,4.162c0.743,0.692,0.669,1.114-0.223,1.263l-8.177,0.669c-3.618,0-6.442-0.693-8.475-2.081
		c-1.932-1.337-2.899-3.146-2.899-5.428V292.469"/>
	<path fill="#6CBA5A" d="M202.13,294.18c-3.964,2.38-7.508,3.817-10.63,4.312c-3.221,0.396-5.674-0.422-7.359-2.453
		c-1.388-1.684-2.082-3.939-2.082-6.765c0-1.734,0.248-3.195,0.743-4.386c0.496-1.338,1.388-2.627,2.677-3.867l6.169-4.83
		c3.024-2.478,5.055-4.832,6.096-7.062l0.595-0.596l0.52,0.596c0.347,1.832,1.289,3.767,2.825,5.798
		c2.825,3.768,7.038,6.565,12.637,8.399l-2.824,3.495C208.87,289.595,205.748,292.049,202.13,294.18"/>
	<path fill="#5DA24D" d="M195.737,291.801c5.65-3.617,7.979-8.821,6.988-15.61c2.775,3.172,6.641,5.55,11.596,7.136l-2.824,3.495
		c-2.626,2.773-5.749,5.228-9.367,7.358c-3.964,2.38-7.508,3.817-10.63,4.312c-4.212,0.545-7.037-0.892-8.475-4.312
		C186.594,295.667,190.832,294.874,195.737,291.801"/>
	<path fill="#6CBA5A" d="M221.384,240.584l2.378,26.463l-2.75,9.441l-5.65,4.088c-3.32,0-6.689-1.635-10.109-4.906
		c-3.569-3.37-5.353-6.864-5.353-10.48c0-0.844,0.174-2.106,0.521-3.792l0.817-4.312c0.694-4.311,0.991-6.986,0.892-8.026
		l11.968-8.475H221.384"/>
	<path fill="#5DA24D" d="M221.384,240.584l2.378,26.463l-2.75,9.441l-5.65,4.088c-1.833,0-3.84-0.619-6.021-1.858
		c-2.131-1.189-4.014-2.749-5.649-4.684c3.519,0.1,6.293-1.089,8.326-3.567c1.784-2.181,2.775-4.98,2.973-8.4
		c0.249-3.223-0.247-6.097-1.486-8.623c-1.288-2.675-3.047-4.139-5.278-4.385l5.873-8.475H221.384"/>
	<path fill="#C9C279" d="M234.393,290.982c2.973,4.015,4.062,6.666,3.271,7.956c-2.084,3.32-5.18,6.069-9.293,8.25
		c-4.014,2.131-7.855,3.196-11.522,3.196c-3.171,0-6.368-1.239-9.589-3.716c-3.123-2.43-5.13-5.079-6.021-7.954
		c-0.347-1.239,0.272-2.256,1.858-3.048l8.029-6.096l18.583-4.238L234.393,290.982"/>
	<path fill="#C9C279" d="M212.835,310.98c-9.119,1.883-16.082,2.551-20.888,2.008c-2.577-0.299-4.634-1.687-6.17-4.163
		c-1.537-2.479-1.709-4.586-0.521-6.319c0.297-0.396,0.669-0.693,1.115-0.894l2.156-0.741l3.792-0.817l7.062-2.381l2.156,5.203
		C204.014,306.692,207.78,309.395,212.835,310.98"/>
	<path fill="#C9C279" d="M187.337,312.468c-8.127-0.546-14.496-2.281-19.104-5.205c-1.437-1.04-2.429-2.328-2.974-3.865
		c-0.495-1.487-0.396-2.254,0.298-2.305l7.508,1.117c3.568,0.246,6.988,0.171,10.259-0.225c-0.892,2.13-0.818,4.237,0.223,6.318
		C184.34,309.988,185.603,311.377,187.337,312.468"/>
	<path fill="#C9C279" d="M164.665,305.33c-2.429-1.485-4.436-3.271-6.021-5.353c-0.248-0.297-0.297-0.57-0.149-0.817l0.967-0.148
		l3.717,1.339c-0.396,0.692-0.347,1.635,0.149,2.825L164.665,305.33"/>
	<path fill="#0D131A" d="M198.562,172.417c2.626,2.378,7.211,7.186,13.752,14.421c5.253,5.253,9.713,11.374,13.381,18.36
		c3.37,6.393,5.055,11.423,5.055,15.091c0,2.825-0.793,5.599-2.379,8.324l-3.049,4.312l-2.229,4.238l-3.345,5.5
		c-2.082,3.022-4.212,5.079-6.393,6.169c-2.229,1.091-5.477,1.636-9.738,1.636c-7.236,0-14.471-5.203-21.707-15.61
		c-7.434-10.605-11.15-21.509-11.15-32.708c0-7.235,1.759-14.273,5.277-21.112c3.321-6.442,6.963-10.506,10.928-12.191
		C190.435,167.412,194.3,168.601,198.562,172.417"/>
	<path fill="#6CBA5A" d="M187.561,172.045l5.798-0.223l12.339,11.225l7.806,10.11c5.401,7.137,8.672,11.671,9.813,13.604
		c3.717,6.394,5.574,10.778,5.574,13.156c0,2.082-0.767,4.386-2.304,6.914l-2.899,3.939l-2.602,4.535l-3.197,5.574
		c-3.32,5.007-7.606,7.509-12.86,7.509c-7.086,0-14-4.757-20.74-14.272c-6.938-9.813-10.407-20.294-10.407-31.445
		c0-6.343,1.513-13.008,4.535-19.996C181.49,175.588,184.537,172.045,187.561,172.045"/>
	<path fill="#5DA24D" d="M228.891,219.917c0,2.082-0.767,4.386-2.304,6.914l-2.899,3.939l-2.602,4.535l-3.197,5.574
		c-3.32,5.007-7.606,7.509-12.86,7.509c-2.527,0-5.352-0.842-8.474-2.528c5.749,1.637,9.714,0.597,11.894-3.122
		c2.33-4.063,1.661-10.084-2.007-18.062c-0.446-0.992-2.85-4.386-7.211-10.185c-4.262-5.601-7.111-10.159-8.548-13.678l24.085-5.947
		l8.549,11.895C227.033,213.154,228.891,217.539,228.891,219.917"/>
	<path fill="#0D131A" d="M240.637,247.423c8.226,0,14.396,1.958,18.509,5.872c4.312,4.062,6.467,10.382,6.467,18.955
		c0,6.146-3.245,12.216-9.736,18.214c-6.691,6.244-13.802,9.365-21.335,9.365c-5.848,0-10.383-2.105-13.604-6.318
		c-3.221-4.262-4.832-10.233-4.832-17.915c0-6.193,2.305-12.29,6.914-18.287C228.124,250.719,233.996,247.423,240.637,247.423"/>
	<path fill="#F0E78E" d="M240.86,249.206c6.739,0,12.092,1.909,16.058,5.725c4.312,4.113,6.468,9.985,6.468,17.618
		c0,5.598-3.271,11.297-9.813,17.098c-6.493,5.797-12.835,8.696-19.03,8.696c-4.857,0-8.822-1.958-11.894-5.874
		c-3.171-4.013-4.758-9.391-4.758-16.13c0-5.798,2.305-11.646,6.914-17.544C229.709,252.403,235.06,249.206,240.86,249.206"/>
	<path fill="#C9C279" d="M221.681,263.554c2.577-4.71,5.749-8.375,9.516-11.002l11,7.88l-0.742,9.365
		c-2.577,0.198-5.128,1.065-7.657,2.602c-2.379,1.438-4.162,3.099-5.352,4.98c-0.894,1.537-2.775,2.9-5.65,4.091l-4.088,1.337
		l-0.223-0.075c-0.396-2.081-0.595-4.212-0.595-6.393C217.889,272.375,219.154,268.113,221.681,263.554"/>
	<path fill="#C9C279" d="M232.757,292.32c6.592,0,12.661-1.759,18.212-5.276c5.401-3.419,9.541-7.979,12.416-13.679
		c-0.349,5.551-3.743,11.101-10.186,16.651c-6.394,5.551-12.611,8.326-18.658,8.326c-2.825,0-5.377-0.694-7.656-2.081
		c-2.33-1.388-4.238-3.371-5.725-5.949C224.828,291.651,228.694,292.32,232.757,292.32"/>
	<path fill="#0D131A" d="M222.052,275.969c4.263,0,7.583,1.361,9.962,4.086c2.08,2.381,3.073,5.229,2.974,8.551
		c-0.1,2.924-1.413,5.599-3.94,8.027c-2.676,2.527-5.799,3.792-9.366,3.792c-2.974,0-5.576-1.066-7.806-3.196
		c-2.527-2.43-3.791-5.577-3.791-9.441c0-2.974,1.042-5.625,3.122-7.954C215.536,277.257,218.484,275.969,222.052,275.969"/>
	<path fill="#F0E78E" d="M222.35,277.9c3.023,0,5.551,1.016,7.583,3.048c1.883,1.932,2.824,4.163,2.824,6.69
		c0,2.774-1.065,5.302-3.197,7.582c-2.18,2.379-4.708,3.566-7.582,3.566c-2.428,0-4.659-1.015-6.691-3.047
		c-2.081-1.982-3.122-4.188-3.122-6.615c0-3.47,0.966-6.219,2.899-8.252C216.899,278.892,219.327,277.9,222.35,277.9"/>
	<path fill="#C9C279" d="M212.389,286.746c1.041,2.628,2.701,4.733,4.98,6.319c2.379,1.636,5.005,2.453,7.879,2.453
		c1.735,0,3.345-0.298,4.833-0.894c-2.281,2.775-4.981,4.162-8.103,4.162c-2.428,0-4.659-1.015-6.691-3.047
		c-2.081-1.982-3.122-4.188-3.122-6.615C212.166,288.283,212.24,287.49,212.389,286.746"/>
	<path fill="#0D131A" d="M270.818,264.296c-6.643,4.41-14.349,6.616-23.119,6.616c-8.376,0-14.966-2.354-19.773-7.061
		c-5.005-4.857-7.507-11.722-7.507-20.592c0-6.095,2.7-11.423,8.102-15.983c5.75-4.905,12.984-7.359,21.706-7.359
		c10.505,0,18.338,2.752,23.49,8.253c4.659,4.955,6.986,11.968,6.986,21.036C280.702,254.855,277.408,259.886,270.818,264.296"/>
	<path fill="#F0E78E" d="M268.365,262.735c-6.096,4.015-12.861,6.021-20.294,6.021c-8.326,0-14.694-2.277-19.104-6.838
		c-4.263-4.411-6.393-10.581-6.393-18.51c0-5.005,2.8-9.764,8.401-14.272c5.797-4.658,12.091-6.988,18.88-6.988
		c9.565,0,16.603,2.082,21.112,6.244c4.608,4.164,6.912,10.754,6.912,19.774C277.878,253.716,274.707,258.573,268.365,262.735"/>
	<path fill="#C9C279" d="M267.696,254.038c4.51-3.866,7.582-8.82,9.217-14.867c0.644,2.577,0.966,5.575,0.966,8.995
		c0,5.55-3.171,10.407-9.514,14.569c-6.096,4.015-12.861,6.021-20.294,6.021c-8.326,0-14.694-2.277-19.104-6.838
		c-4.263-4.411-6.393-10.581-6.393-18.51c0-2.973,1.189-6.046,3.568-9.218c0.744,7.236,3.568,13.331,8.475,18.287
		c4.955,4.956,10.754,7.433,17.394,7.433C257.808,259.91,263.036,257.954,267.696,254.038"/>
	<path fill="#C9C279" d="M275.278,234.264c-3.817,1.636-7.756,2.454-11.82,2.454c-4.905,0-9.515-1.14-13.826-3.42
		c-4.161-2.181-7.655-5.178-10.48-8.995c3.616-1.437,7.186-2.155,10.703-2.155C262.988,222.147,271.46,226.187,275.278,234.264"/>
	<path fill="#0D131A" d="M231.791,237.386c3.518,0,6.614,1.267,9.291,3.792c2.825,2.727,4.238,6.12,4.238,10.184
		c0,4.164-1.586,7.509-4.759,10.036c-2.974,2.378-6.641,3.567-11.002,3.567c-3.519,0-6.516-1.288-8.994-3.864
		c-2.577-2.677-3.866-6.021-3.866-10.036c0-4.113,1.438-7.433,4.312-9.961C223.837,238.625,227.43,237.386,231.791,237.386"/>
	<path fill="#F0E78E" d="M231.197,239.32c3.617,0,6.566,1.264,8.845,3.791c2.082,2.329,3.123,5.079,3.123,8.25
		c0,3.321-1.288,6.121-3.866,8.401c-2.527,2.229-5.574,3.344-9.143,3.344c-3.271,0-6.021-1.139-8.251-3.419
		c-2.181-2.28-3.271-5.055-3.271-8.326c0-3.417,1.165-6.269,3.493-8.548C224.506,240.484,227.528,239.32,231.197,239.32"/>
	<path fill="#C9C279" d="M232.087,258.053c4.312,0,7.931-1.513,10.854-4.535c-0.546,2.775-2.032,5.079-4.461,6.914
		c-2.428,1.784-5.204,2.675-8.325,2.675c-3.271,0-6.021-1.139-8.251-3.419c-2.181-2.28-3.271-5.055-3.271-8.326l0.074-1.263
		c1.338,2.429,3.172,4.361,5.501,5.799C226.587,257.334,229.214,258.053,232.087,258.053"/>
	<path fill="#0D131A" d="M264.054,248.537c1.09-2.379,2.476-4.336,4.161-5.872c1.884-1.735,3.767-2.603,5.649-2.603
		c2.379,0,4.361,0.968,5.948,2.9c1.685,1.98,2.526,4.559,2.526,7.73c0,3.718-1.412,6.963-4.237,9.738
		c-2.775,2.725-5.995,4.089-9.664,4.089c-3.369,0-5.401-1.785-6.095-5.353C261.698,255.946,262.269,252.403,264.054,248.537"/>
	<path fill="#F0E78E" d="M273.567,241.624c1.884,0,3.444,0.868,4.684,2.602c1.24,1.733,1.859,3.791,1.859,6.17
		c0,3.32-1.141,6.121-3.42,8.399c-2.329,2.33-5.129,3.493-8.4,3.493c-1.189,0-2.205-0.444-3.048-1.337
		c-0.941-0.991-1.412-2.327-1.412-4.014c0-3.072,1.091-6.368,3.271-9.887C269.33,243.433,271.487,241.624,273.567,241.624"/>
	<path fill="#C9C279" d="M263.829,257.085c2.032,1.935,4.51,2.9,7.433,2.9c2.133,0,4.064-0.544,5.799-1.635
		c-2.329,2.626-5.253,3.938-8.771,3.938c-1.189,0-2.18-0.42-2.973-1.262C264.373,260.034,263.879,258.722,263.829,257.085"/>
	<path fill="#0D131A" d="M278.176,232.777c-9.465,0-18.087-2.502-25.868-7.507c-7.435-4.758-11.15-9.714-11.15-14.867
		c0-2.479,0.148-4.014,0.445-4.609c-1.189,1.586-3.271,3.172-6.244,4.757c-5.848,3.123-13.083,4.684-21.706,4.684
		c-8.029,0-14.645-3.741-19.849-11.225c-5.401-7.682-8.103-17.667-8.103-29.957c0-17.345,6.84-31.345,20.518-42
		c12.241-9.515,26.538-14.273,42.893-14.273c14.966,0,29.363,5.179,43.188,15.536c14.868,11.151,22.301,23.887,22.301,38.208
		c0,8.723-3.42,15.983-10.258,21.781l1.635,3.346c1.091,2.924,1.635,6.07,1.635,9.44c0,6.69-2.278,12.562-6.839,17.619
		C295.323,229.755,287.789,232.777,278.176,232.777"/>
	<path fill="#6CBA5A" d="M277.656,185.277c18.137,0,27.207,6.987,27.207,20.963c0,6.592-2.577,12.291-7.731,17.097
		c-5.202,4.857-11.373,7.285-18.51,7.285c-9.466,0-18.04-2.726-25.72-8.177c-6.543-4.658-9.813-8.722-9.813-12.191l0.148-4.014
		l0.148-1.338l7.955-7.136c3.965-3.865,8.227-6.914,12.785-9.143C268.835,186.393,273.346,185.277,277.656,185.277"/>
	<path fill="#5DA24D" d="M272.379,220.066l1.784-0.074v10.407c-8.425-0.842-15.934-3.815-22.524-8.921
		c-5.699-4.41-8.55-8.152-8.55-11.225l0.148-4.014l0.148-1.338l3.569-3.048c1.834,5.353,5.03,9.712,9.59,13.083
		C261.252,218.356,266.53,220.066,272.379,220.066"/>
	<path fill="#6CBA5A" d="M291.409,135.993c13.478,10.704,20.219,22.548,20.219,35.532c0,5.601-1.462,10.557-4.387,14.868
		l-4.385,4.757c-2.28-2.726-5.798-4.782-10.557-6.169c-4.262-1.24-9.192-1.859-14.793-1.859c-6.789,0-13.354,2.081-19.699,6.244
		c-1.636,1.09-6.69,5.253-15.163,12.488c-4.659,4.014-9.095,6.79-13.309,8.326c-4.359,1.586-9.86,2.379-16.501,2.379
		c-6.888,0-12.637-3.741-17.246-11.225c-4.51-7.433-6.765-16.577-6.765-27.43c0-15.958,6.169-29.066,18.51-39.324
		c11.497-9.565,25.25-14.347,41.257-14.347C263.854,120.233,278.127,125.486,291.409,135.993"/>
	<path fill="#5DA24D" d="M209.044,203.043c10.903,4.658,22.276,4.138,34.121-1.561l-0.52,0.372
		c-4.659,4.014-9.095,6.79-13.309,8.326c-4.359,1.586-9.86,2.379-16.501,2.379c-6.443,0-11.894-3.295-16.354-9.887
		c-4.411-6.442-6.914-14.594-7.508-24.457C191.5,190.06,198.19,198.335,209.044,203.043"/>
	<path fill="#0D131A" d="M220.789,135.249c6.938,0,12.834,2.626,17.691,7.88c4.361,4.708,6.54,9.836,6.54,15.387
		c0,6.442-2.105,11.844-6.316,16.205c-4.659,4.857-11.027,7.285-19.105,7.285c-5.946,0-11.125-2.23-15.536-6.689
		c-4.46-4.56-6.69-9.986-6.69-16.28c0-6.443,2.305-11.993,6.913-16.651C208.895,137.627,214.396,135.249,220.789,135.249"/>
	<path fill="#F9BE00" d="M221.309,137.925c6.194,0,11.375,2.379,15.537,7.136c3.666,4.213,5.501,8.747,5.501,13.604
		c0,5.798-2.107,10.754-6.32,14.868c-4.459,4.41-10.084,6.442-16.873,6.095c-5.353-0.248-9.862-2.379-13.529-6.393
		c-3.717-4.063-5.575-9.019-5.575-14.868c0-5.749,2.007-10.58,6.021-14.495C210.134,139.908,215.213,137.925,221.309,137.925"/>
	<path fill="#0D131A" d="M220.12,174.35c-4.312,0-8.004-1.536-11.076-4.609c-3.073-3.072-4.608-6.765-4.608-11.076
		c0-4.361,1.536-8.078,4.608-11.15c3.072-3.073,6.765-4.608,11.076-4.608c4.361,0,8.078,1.536,11.151,4.608
		c3.071,3.073,4.608,6.79,4.608,11.15c0,4.312-1.537,8.004-4.608,11.076C228.198,172.813,224.481,174.35,220.12,174.35"/>
	<path fill="#0D131A" d="M319.061,136.067c3.62-0.744,6.418,0.272,8.401,3.047c2.13,2.875,2.477,5.774,1.039,8.698
		c-1.635,3.32-5.475,6.269-11.521,8.847c-8.921,3.914-14.77,6.665-17.546,8.251c-2.029,1.14-3.368,2.105-4.013,2.899
		c-0.693,0.793-1.437,2.255-2.229,4.386c-2.181,5.798-5.376,8.375-9.589,7.731c-2.726-0.396-4.685-1.512-5.874-3.346
		c-0.742-1.089-1.338-2.948-1.783-5.574l-0.894-5.055c-0.396-1.19-1.361-2.379-2.897-3.568c-1.388-1.091-5.649-3.494-12.786-7.21
		c-7.333-3.865-11.744-6.344-13.232-7.434c-3.617-2.676-5.599-5.848-5.946-9.515c-0.249-2.973,0.446-5.402,2.081-7.284
		c1.686-1.983,3.939-3.048,6.765-3.197c2.824-0.1,5.525,0.768,8.102,2.602l8.104,6.765l10.26,8.623
		c5.5,4.213,9.414,6.344,11.744,6.394c3.171,0.099,9.516-3.123,19.03-9.664C311.578,138.842,315.841,136.711,319.061,136.067"/>
	<path fill="#DA4E70" d="M315.345,139.783c2.328-1.239,4.41-1.784,6.244-1.635c1.685,0.198,2.998,0.917,3.938,2.156
		c1.438,1.932,1.636,3.989,0.596,6.169c-1.09,2.33-3.42,4.361-6.986,6.095c-7.881,3.816-14.423,7.062-19.626,9.738
		c-2.43,1.239-4.089,2.305-4.98,3.196c-1.289,1.19-2.304,2.899-3.049,5.129c-0.99,2.726-2.106,4.634-3.344,5.724
		c-1.29,1.09-2.85,1.462-4.683,1.115c-1.835-0.347-3.099-1.041-3.792-2.082c-0.645-0.991-1.09-2.8-1.339-5.426
		c-0.247-2.23-0.742-4.039-1.486-5.427c-0.941-1.685-2.526-3.321-4.759-4.907l-7.729-4.385l-12.414-6.765
		c-4.511-2.577-7.385-5.303-8.623-8.177c-1.091-2.627-0.818-5.08,0.817-7.36c1.585-2.23,3.814-3.072,6.69-2.527
		c3.221,0.595,6.986,2.899,11.297,6.914c4.164,3.914,8.502,7.483,13.011,10.705c5.649,4.014,9.737,6.021,12.265,6.021
		c2.925,0,7.359-1.759,13.308-5.277L315.345,139.783"/>
	<path fill="#B8405F" d="M326.718,143.277c0.198,1.636-0.322,3.246-1.562,4.833c-1.337,1.685-3.345,3.171-6.02,4.459
		c-7.881,3.816-14.423,7.062-19.626,9.738c-2.43,1.239-4.089,2.305-4.98,3.196c-1.289,1.19-2.304,2.899-3.049,5.129
		c-0.99,2.726-2.106,4.634-3.344,5.724c-1.29,1.09-2.85,1.462-4.683,1.115c-1.835-0.347-3.099-1.041-3.792-2.082
		c-0.645-0.991-1.09-2.8-1.339-5.426c-0.247-2.23-0.742-4.039-1.486-5.427c-0.941-1.685-2.526-3.321-4.759-4.907l-7.729-4.385
		l-12.414-6.765c-3.472-1.933-5.973-4.014-7.509-6.245c-1.388-1.982-1.933-3.964-1.635-5.946c-0.148,2.23,5.551,6.492,17.097,12.785
		c11.696,6.344,20.541,9.813,26.538,10.407c4.657,0.496,12.463-1.512,23.417-6.021C320.696,149.001,326.323,145.606,326.718,143.277
		"/>
	<path fill="#0D131A" d="M280.332,200.665c6.244,0,11.349,1.685,15.312,5.055c3.718,3.122,5.577,6.962,5.576,11.522
		c0.001,2.875-1.562,5.798-4.684,8.771c-3.915,3.767-9.044,5.773-15.388,6.021c-5.799,0.2-10.778-0.842-14.94-3.121
		c-4.809-2.627-7.212-6.368-7.212-11.226c0-4.658,2.106-8.647,6.319-11.968C269.529,202.35,274.533,200.665,280.332,200.665"/>
	<path fill="#6CBA5A" d="M280.11,202.821c4.806-0.1,8.995,1.09,12.562,3.568c3.917,2.675,5.874,6.169,5.874,10.481
		c0,4.163-1.686,7.384-5.056,9.665c-3.271,2.179-7.78,3.27-13.528,3.27c-5.798,0-10.358-1.239-13.679-3.716
		c-2.974-2.231-4.461-5.006-4.461-8.327c0-3.717,1.563-7.012,4.685-9.886C269.974,204.654,274.509,202.969,280.11,202.821"/>
	<path fill="#8A969D" d="M219.897,157.922c-2.429,0.743-4.684,0.718-6.765-0.075c-2.131-0.744-3.469-2.032-4.014-3.866
		c-0.595-1.833-0.248-3.691,1.041-5.576c1.288-1.833,3.123-3.122,5.501-3.865c2.428-0.743,4.683-0.743,6.765,0
		c2.131,0.792,3.494,2.106,4.089,3.94c0.545,1.883,0.198,3.717-1.04,5.5C224.184,155.815,222.325,157.129,219.897,157.922"/>
	<path fill="#5DA24D" d="M262.343,220.958c4.113,3.123,9.714,4.957,16.801,5.501c6.986,0.545,12.734-0.37,17.245-2.749
		c-3.022,4.062-8.5,6.095-16.428,6.095c-4.808,0-8.771-0.867-11.895-2.601C265.193,225.616,263.284,223.535,262.343,220.958"/>
	<path fill="#5DA24D" d="M262.343,220.958c4.113,3.123,9.714,4.957,16.801,5.501c6.986,0.545,12.734-0.37,17.245-2.749
		c-3.022,4.062-8.5,6.095-16.428,6.095c-4.808,0-8.771-0.867-11.895-2.601C265.193,225.616,263.284,223.535,262.343,220.958"/>
	<path fill="#D6E6AE" d="M192.913,210.254c2.824,1.586,5.005,3.99,6.542,7.211c1.635,3.421,2.279,6.715,1.933,9.888
		c-0.347,3.121-1.635,5.302-3.866,6.541c-2.18,1.238-4.782,1.115-7.804-0.372c-3.023-1.536-5.452-3.939-7.285-7.211
		c-1.834-3.271-2.553-6.518-2.156-9.737c0.347-3.223,1.636-5.451,3.866-6.69C186.866,208.346,189.79,208.47,192.913,210.254"/>
	<path fill="#6CBA5A" d="M192.244,213.748c2.18,1.189,3.815,2.998,4.906,5.427c1.289,2.577,1.784,5.055,1.487,7.433
		c-0.248,2.33-1.215,3.965-2.9,4.907l-5.873-0.298c-2.279-1.139-4.113-2.949-5.5-5.428c-1.338-2.427-1.859-4.881-1.562-7.357
		c0.249-2.379,1.215-4.04,2.899-4.981C187.734,212.311,189.914,212.41,192.244,213.748"/>
	<path fill="#D6E6AE" d="M212.612,261.547c-0.149,1.685-0.694,3.098-1.636,4.236c-0.892,1.14-1.957,1.711-3.196,1.711
		c-1.288,0-2.378-0.62-3.271-1.859c-0.942-1.289-1.388-2.775-1.338-4.46c0.05-1.685,0.545-3.122,1.487-4.312
		c0.942-1.19,2.032-1.76,3.271-1.711c1.536,0,2.75,0.695,3.642,2.084C212.364,258.523,212.711,259.96,212.612,261.547"/>
	<path fill="#6CBA5A" d="M211.2,261.547c-0.1,1.287-0.497,2.354-1.19,3.195c-0.694,0.844-1.511,1.265-2.453,1.265
		s-1.759-0.472-2.453-1.413c-0.694-0.99-1.016-2.105-0.966-3.345c0-1.289,0.372-2.379,1.115-3.271
		c0.694-0.841,1.511-1.263,2.453-1.263c1.14,0.05,2.032,0.594,2.676,1.636C211.026,259.293,211.299,260.356,211.2,261.547"/>
	<path fill="#D6E6AE" d="M196.481,288.679c-1.537,1.091-3.098,1.661-4.684,1.71c-1.635,0.05-2.875-0.446-3.717-1.486
		c-0.892-1.041-1.14-2.38-0.744-4.015c0.396-1.684,1.314-3.121,2.751-4.312c1.438-1.189,2.998-1.81,4.683-1.858
		c1.585-0.051,2.825,0.446,3.717,1.485c1.09,1.289,1.387,2.803,0.892,4.536C198.884,286.324,197.918,287.639,196.481,288.679"/>
	<path fill="#6CBA5A" d="M195.589,287.639c-1.189,0.842-2.379,1.288-3.568,1.338c-1.288,0-2.255-0.396-2.899-1.189
		c-0.694-0.793-0.867-1.809-0.52-3.048c0.297-1.289,0.991-2.403,2.081-3.346c1.09-0.892,2.28-1.361,3.568-1.412
		c1.239-0.049,2.205,0.347,2.899,1.19c0.793,0.99,0.991,2.154,0.595,3.493C197.398,285.854,196.679,286.846,195.589,287.639"/>
	<path fill="#D6E6AE" d="M173.065,292.618c-1.289,0.148-2.428-0.049-3.419-0.594c-0.991-0.545-1.586-1.289-1.784-2.23
		c-0.199-0.94,0.124-1.857,0.966-2.75c0.843-0.843,1.884-1.389,3.123-1.635c1.289-0.199,2.453-0.026,3.494,0.52
		c1.041,0.495,1.635,1.239,1.784,2.229c0.198,1.14-0.149,2.154-1.041,3.048C175.344,291.999,174.304,292.469,173.065,292.618"/>
	<path fill="#6CBA5A" d="M172.767,291.579l-2.602-0.446c-0.792-0.397-1.239-0.941-1.338-1.637c-0.099-0.742,0.149-1.438,0.743-2.081
		c0.595-0.644,1.388-1.04,2.379-1.188c0.942-0.198,1.809-0.075,2.602,0.371c0.743,0.396,1.19,0.941,1.338,1.636
		c0.148,0.842-0.124,1.586-0.818,2.23C174.477,291.107,173.709,291.479,172.767,291.579"/>
	<path fill="#D6E6AE" d="M156.116,288.158c-0.941-0.644-1.561-1.412-1.858-2.305c-0.347-0.892-0.322-1.684,0.074-2.379
		c0.396-0.693,1.09-1.089,2.082-1.188c0.991-0.1,1.957,0.122,2.899,0.669c0.941,0.544,1.61,1.287,2.007,2.229
		c0.347,0.894,0.322,1.686-0.074,2.379c-0.544,0.844-1.338,1.29-2.379,1.339C157.925,288.952,157.009,288.705,156.116,288.158"/>
	<path fill="#6CBA5A" d="M156.562,287.192c-0.694-0.446-1.165-0.991-1.413-1.636c-0.248-0.595-0.223-1.141,0.074-1.635l1.487-0.894
		c0.694-0.099,1.387,0.05,2.082,0.446c0.694,0.397,1.165,0.918,1.412,1.562c0.249,0.645,0.224,1.239-0.074,1.785
		c-0.347,0.594-0.892,0.916-1.636,0.966C157.801,287.836,157.157,287.639,156.562,287.192"/>
	<path fill="#EDADB5" d="M324.042,141.716c-0.05,0.595-0.373,1.09-0.966,1.486c-0.596,0.396-1.289,0.545-2.082,0.446
		c-0.793-0.05-1.438-0.322-1.934-0.817c-0.494-0.496-0.718-1.066-0.669-1.71c0.05-0.595,0.372-1.09,0.966-1.487
		c0.597-0.347,1.289-0.495,2.084-0.446c0.79,0.099,1.437,0.372,1.932,0.817C323.918,140.502,324.14,141.072,324.042,141.716"/>
	<path fill="#EDADB5" d="M266.58,146.176c-0.149,0.199-2.156-0.867-6.021-3.197c-3.669-2.23-6.369-3.989-8.104-5.277
		c-2.329-1.735-3.245-2.95-2.751-3.644c0.645-0.644,2.155-0.099,4.535,1.636c2.277,1.735,4.757,3.716,7.434,5.947
		C265.092,144.417,266.729,145.929,266.58,146.176"/>
</g>
</svg>
