<?xml version="1.0" encoding="utf-8"?>
<!-- Generator: Adobe Illustrator 16.0.0, SVG Export Plug-In . SVG Version: 6.00 Build 0)  -->
<!DOCTYPE svg PUBLIC "-//W3C//DTD SVG 1.1//EN" "http://www.w3.org/Graphics/SVG/1.1/DTD/svg11.dtd">
<svg version="1.1" id="Layer_1" xmlns="http://www.w3.org/2000/svg" xmlns:xlink="http://www.w3.org/1999/xlink" x="0px" y="0px"
	 width="456px" height="415px" viewBox="0 0 456 415" enable-background="new 0 0 456 415" xml:space="preserve">
<g>
	<path fill="#EEEEEF" d="M386.45,287.117c-2.867,9.805-6.886,16.174-12.056,19.109c-5.369,3.067-13.322,3.218-23.86,0.449
		c-10.405-2.734-24.111-9.271-41.12-19.609c-16.574-10.07-26.179-17.475-28.813-22.21c-0.566-1.001-0.35-2.551,0.65-4.651
		c0.934-1.969,1.601-2.919,2.001-2.852c7.604-5.536,16.142-11.105,25.612-16.709c19.009-11.205,33.249-16.975,42.72-17.308
		c5.403-0.2,10.688,2.101,15.857,6.903c4.636,4.303,8.721,10.121,12.256,17.458c3.302,6.903,5.586,13.974,6.854,21.21
		C387.885,276.279,387.852,282.348,386.45,287.117"/>
	<path fill="#EEEEEF" d="M200.564,302.574c-5.47-10.071-5.503-17.559-0.101-22.461c3.835-3.435,13.173-5.785,28.014-7.053
		c14.474-1.234,22.91-0.75,25.312,1.451c1.668,1.533,4.569,5.285,8.704,11.255c4.803,6.97,9.121,13.989,12.956,21.06
		c10.905,20.176,14.224,33.783,9.955,40.819c-1.501,2.501-4.419,3.919-8.754,4.252c-4.169,0.3-9.238-0.45-15.208-2.251
		c-13.206-4.035-26.295-11.389-39.268-22.061C212.469,319.582,205.266,311.245,200.564,302.574"/>
	<path fill="#003F4D" d="M386.551,268.908c1.334,7.371,1.301,13.439-0.101,18.209c-2.867,9.805-6.886,16.174-12.056,19.109
		c-5.369,3.067-13.322,3.218-23.86,0.449c-2.302-0.6-5.02-1.517-8.154-2.751c10.639-0.033,19.143-2.468,25.512-7.304
		c5.903-4.502,8.871-10.154,8.904-16.957c0.101-19.377-6.403-34.083-19.509-44.121c-4.102-3.135-8.604-5.604-13.507-7.404
		l-6.152-1.801c5.436-1.9,10.088-2.9,13.956-3.001c5.403-0.2,10.688,2.101,15.857,6.903c4.636,4.303,8.721,10.121,12.256,17.458
		C382.999,254.602,385.283,261.672,386.551,268.908"/>
	<path fill="#003F4D" d="M201.864,282.465c0.2,2.969,1.001,6.187,2.401,9.654c4.536,11.072,14.391,22.478,29.564,34.217
		c13.772,10.672,25.629,16.824,35.566,18.459c8.971,1.467,14.874-0.852,17.708-6.954c0.101,1.801,0.018,3.585-0.25,5.353
		c-0.333,1.901-0.816,3.385-1.45,4.452c-1.501,2.501-4.419,3.919-8.754,4.252c-4.169,0.3-9.238-0.45-15.208-2.251
		c-13.206-4.035-26.295-11.389-39.268-22.061c-9.705-8.004-16.908-16.341-21.61-25.012c-5.47-10.071-5.503-17.559-0.101-22.461
		l1.551-1.1L201.864,282.465"/>
	<path fill="#0D131A" d="M368.842,234.992c-3.501-3.668-7.236-6.386-11.204-8.153c-3.502-1.567-6.604-2.168-9.305-1.801
		c-6.303,0.833-15.258,4.169-26.863,10.005c-13.072,6.569-24.744,14.106-35.016,22.61c-2.502,2.067-3.769,3.935-3.802,5.603
		c-0.067,1.801,1.351,3.852,4.252,6.152c13.84,10.872,27.112,19.377,39.818,25.513c11.105,5.336,22.228,9.038,33.366,11.104
		c9.137,1.701,15.924-1,20.359-8.104c3.734-6.002,5.169-13.605,4.302-22.811C383.115,257.803,377.814,244.43,368.842,234.992
		 M346.632,222.036c7.57-1.801,14.924,0.567,22.061,7.104c6.536,5.937,11.722,14.106,15.558,24.512
		c3.835,10.405,5.336,20.376,4.502,29.914c-0.934,10.472-4.619,18.242-11.056,23.312c-7.403,5.836-21.126,4.635-41.169-3.602
		c-19.242-7.904-36.851-19.043-52.825-33.416c-2.768-2.502-4.285-4.136-4.552-4.902c-0.267-0.867,0.066-3.202,1-7.004
		c0.801-3.234,10.238-9.638,28.313-19.209C326.073,229.439,338.795,223.871,346.632,222.036"/>
	<path fill="#0D131A" d="M222.823,274.512c-11.472,1.334-18.358,3.352-20.659,6.053c-4.269,5.002-4.136,11.938,0.4,20.81
		c4.401,8.604,12.188,17.642,23.36,27.112c9.305,7.871,19.876,13.94,31.715,18.209c12.606,4.535,21.044,4.752,25.312,0.65
		c3.201-3.068,2.751-10.222-1.351-21.461c-3.269-8.938-8.388-19.375-15.357-31.314c-3.969-6.902-6.887-11.539-8.754-13.906
		c-2.535-3.201-5.086-5.119-7.654-5.753C243.234,273.311,234.23,273.178,222.823,274.512 M198.662,279.563
		c1.468-2.167,7.153-4.151,17.059-5.952c9.638-1.768,19.309-2.652,29.014-2.652c4.435,0,8.187,1.301,11.255,3.902
		c1.601,1.334,3.602,3.802,6.003,7.403c9.404,14.04,16.508,26.663,21.31,37.868c6.804,15.874,7.421,25.945,1.852,30.215
		c-5.703,4.368-14.474,4.618-26.312,0.75c-10.905-3.535-21.961-9.654-33.166-18.359c-11.438-8.871-19.792-17.958-25.062-27.263
		C194.744,295.07,194.094,286.434,198.662,279.563"/>
	<path fill="#0D131A" d="M335.427,227.439l2.901-1.451c11.005,1.334,20.66,7.453,28.964,18.358
		c8.57,11.272,12.255,23.462,11.055,36.567c-0.7,7.504-4.151,13.49-10.354,17.959c-6.87,4.936-15.324,6.42-25.362,4.451l-2.001-1.65
		c-0.934-0.801-1.667-1.283-2.201-1.451c10.238,2.602,18.876,1.734,25.913-2.601c7.703-4.735,11.238-12.573,10.604-23.511
		c-0.801-13.54-6.137-25.096-16.008-34.666c-3.935-3.836-8.137-6.854-12.605-9.055C342.163,228.355,338.529,227.372,335.427,227.439
		"/>
	<path fill="#0D131A" d="M200.564,280.014l1.351-1.051l1.351-1.1c-1.367,6.035,1.351,13.973,8.153,23.811
		c5.803,8.404,12.506,15.574,20.109,21.51c11.139,8.672,22.277,14.824,33.416,18.459c12.673,4.136,19.576,2.535,20.71-4.802l0.1,1.2
		c0.067,1.168,0.2,1.935,0.4,2.301c-2.668,7.704-11.556,8.521-26.662,2.451c-5.437-2.168-11.205-5.052-17.309-8.654
		c-5.002-2.967-8.921-5.586-11.756-7.854c-8.37-6.703-15.507-14.523-21.409-23.461C202.815,293.486,199.996,285.883,200.564,280.014
		"/>
	<path fill="#0D131A" d="M372.645,258.453l0.8,1.352l0.751,1.35c-4.803-0.434-18.459-0.5-40.97-0.199l-43.62,0.5v-1.852
		C298.81,259.704,326.49,259.32,372.645,258.453"/>
	<path fill="#0D131A" d="M370.194,295.121l-1.251,1l-1.301,0.851c-5.336-1.768-14.14-4.969-26.412-9.604
		c-15.774-5.97-33.132-12.739-52.074-20.31v-0.4l43.02,15.107L370.194,295.121"/>
	<path fill="#0D131A" d="M376.196,278.013l0.251,1.251l-0.051,1.2l-41.519-8.153l-45.722-8.504v-2.052L376.196,278.013"/>
	<path fill="#0D131A" d="M222.424,318.082c-0.667-0.634-1.284-1.484-1.852-2.552l17.909-12.556
		c8.704-6.137,14.373-10.371,17.008-12.706l1.601,1.601c-2.534,2.035-8.854,6.67-18.959,13.906
		C230.194,311.445,224.958,315.547,222.424,318.082"/>
	<path fill="#0D131A" d="M244.184,333.589c-0.967-0.399-1.867-1.017-2.701-1.851c2.334-3.936,5.669-10.455,10.005-19.56
		c4.802-10.104,7.92-16.474,9.354-19.108c0.867,0.867,1.951,1.316,3.251,1.35l-0.55,0.852l-9.805,19.108
		C248.737,324.051,245.551,330.454,244.184,333.589"/>
	<path fill="#0D131A" d="M264.543,323.834l1.751-21.31l0.851,1.901c0.3,0.9,0.584,1.566,0.851,2l-1.451,20.21l-1.25,16.657
		c-1.101-0.967-1.901-1.584-2.401-1.85L264.543,323.834"/>
	<path fill="#0D131A" d="M350.934,263.706c3.803,3.269,5.02,7.237,3.652,11.905c-1.334,4.436-4.186,7.304-8.554,8.604
		c-5.103,1.501-15.441-0.367-31.015-5.603c-14.874-4.969-25.713-9.889-32.516-14.758c-0.967-0.699-0.584-1.983,1.15-3.852
		c1.101-1.167,1.551-1.834,1.351-2l29.614,0.399C335.594,259.204,347.699,260.972,350.934,263.706"/>
	<path fill="#EEEEEF" d="M348.934,265.357c1.4,0.866,2.417,2.2,3.051,4.002c0.634,1.767,0.751,3.584,0.351,5.452
		c-0.968,4.603-4.169,7.137-9.604,7.604c-4.136,0.366-14.641-2.251-31.515-7.854c-14.273-4.734-23.194-7.97-26.763-9.704
		c-1.101-0.533-1.567-1.367-1.401-2.501c0.134-1.101,0.751-1.768,1.852-2.001c2.935-0.601,12.389-0.667,28.363-0.2
		C332.342,260.721,344.231,262.455,348.934,265.357"/>
	<path fill="#0D131A" d="M259.541,320.482c-4.469,1.401-8.688,0.867-12.656-1.601c-3.401-2.134-5.219-5.452-5.452-9.954
		c-0.2-4.369,1.134-8.07,4.002-11.105c2.034-2.135,4.385-4.152,7.053-6.053c2.535-1.834,4.953-3.285,7.254-4.353
		c1.801-0.866,3.635-0.5,5.503,1.101c1.733,1.468,2.601,3.118,2.601,4.953l0.301,8.403c0.133,4.269-0.034,7.604-0.501,10.005
		C266.812,316.147,264.11,319.016,259.541,320.482"/>
	<path fill="#EEEEEF" d="M262.193,316.381c-3.235,2.535-6.986,3.102-11.256,1.701c-4.502-1.468-6.853-4.553-7.053-9.255
		c-0.2-4.202,2.018-8.504,6.653-12.905c3.901-3.702,7.82-6.188,11.755-7.454c1.401-0.434,2.401,0.033,3.002,1.4
		c0.4,0.867,0.65,2.269,0.75,4.202c0.334,5.436,0.334,9.705,0,12.807C265.511,311.578,264.227,314.747,262.193,316.381"/>
	<path fill="#EEEEEF" d="M357.787,108.783c9.204,15.707,16.024,29.997,20.46,42.87c6.836,19.976,7.387,35.116,1.65,45.421
		c-9.438,16.974-25.862,32.715-49.273,47.222c-8.604,5.303-17.041,9.738-25.312,13.307c-7.304,3.168-12.339,4.802-15.107,4.902
		c-4.201,0.166-9.438-2.651-15.707-8.454c-5.069-4.702-8.454-8.704-10.155-12.006c-6.902-10.705-12.655-26.529-17.258-47.473
		c-5.436-24.645-7.22-48.939-5.353-72.884c1.4-17.875,5.853-34.35,13.356-49.423c8.638-17.408,18.726-26.412,30.265-27.013
		c11.104-0.6,24.828,7.287,41.169,23.661C339.295,81.72,349.717,95.01,357.787,108.783"/>
	<path fill="#EEEEEF" d="M65.65,162.608c2.368-6.136,14.14-5.903,35.316,0.7c15.908,4.969,31.782,11.472,47.623,19.509
		c11.472,5.803,24.228,13.773,38.268,23.911c14.808,10.672,24.662,19.243,29.564,25.713l41.47,46.771
		c-7.704,3.469-21.694,7.104-41.971,10.906c-23.511,4.401-39.852,5.352-49.022,2.851c-11.772-3.201-22.944-8.37-33.516-15.507
		c-12.974-8.771-25.496-20.744-37.568-35.918c-12.438-15.674-21.41-31.181-26.912-46.521
		C63.865,180.851,62.781,170.045,65.65,162.608"/>
	<path fill="#003F4D" d="M323.972,84.722c-4.035-4.202-8.454-4.952-13.257-2.251c-1.5,0.833-2.935,1.967-4.302,3.401l-1.65,1.901
		c1.3-3.001,2.101-6.136,2.4-9.404c0.634-6.537-1.483-10.405-6.353-11.605s-8.805-0.567-11.806,1.901
		c-0.967,0.767-1.768,1.667-2.401,2.701l-0.7,1.351c0.768-6.203-0.2-9.321-2.901-9.354c-0.867-0.033-1.834,0.267-2.901,0.9
		l-1.4,0.901c1.367-7.104,0.483-11.589-2.651-13.457c-0.967-0.567-2.101-0.851-3.401-0.851l-1.651,0.2
		c4.569-3.635,9.354-5.569,14.357-5.803c11.104-0.6,24.828,7.287,41.169,23.661c12.772,12.806,23.194,26.096,31.265,39.869
		c9.204,15.707,16.024,29.997,20.46,42.87c6.836,19.976,7.387,35.116,1.65,45.421l-6.053,9.905c1.334-2.802,2.385-6.036,3.151-9.705
		c1.601-7.27,1.101-12.957-1.501-17.058c-2.634-4.102-5.219-5.686-7.753-4.752c-0.733,0.233-1.435,0.701-2.102,1.401
		c1.067-1.567,1.918-3.602,2.552-6.103c1.634-6.503,0.767-13.756-2.602-21.76s-6.937-12.256-10.705-12.756
		c-1.2-0.167-2.351,0.05-3.451,0.65l-1.15,0.9c1.033-0.834,1.65-2.385,1.851-4.652c0.4-4.636-1.685-10.722-6.253-18.259
		c-4.569-7.57-9.021-11.372-13.356-11.405c-1.367,0-2.635,0.384-3.802,1.15l-1.351,1.101c1.067-1.834,1.718-4.085,1.951-6.753
		C329.791,93.676,328.007,88.924,323.972,84.722"/>
	<path fill="#003F4D" d="M98.115,162.608l-10.005-0.8c-6.903,0.133-10.922,1.967-12.056,5.502c-1.134,3.502-0.15,6.67,2.951,9.504
		c1.534,1.434,3.185,2.501,4.952,3.202c-1.434-0.167-2.601,0.184-3.502,1.05c-0.9,0.867-1.283,1.918-1.15,3.152
		c0.268,3.168,2.952,4.952,8.054,5.353c-3.368,0.633-5.402,2.184-6.103,4.652c-0.934,3.269-0.367,6.586,1.701,9.955
		c2.435,3.869,6.303,6.42,11.605,7.654c-2.401,1.334-3.452,3.334-3.151,6.002c0.267,2.401,1.551,5.003,3.852,7.805
		c2.201,2.734,4.902,5.085,8.104,7.053c3.368,2.068,6.587,3.252,9.654,3.552c-2.768,1.968-2.134,5.419,1.901,10.354
		c4.135,5.103,9.671,8.821,16.607,11.156c-1.434,0.9-1.851,2.234-1.25,4.001c0.566,1.768,1.984,3.618,4.252,5.553
		c5.369,4.603,12.272,7.587,20.71,8.954c-3.302,0.434-4.369,1.4-3.202,2.901c0.968,1.268,3.769,3.169,8.404,5.703
		c3.502,1.935,8.704,4.052,15.607,6.353l9.305,2.852c-8.004,0.434-14.157,0.066-18.459-1.101
		c-11.772-3.201-22.944-8.37-33.516-15.507c-12.974-8.771-25.496-20.744-37.568-35.918c-12.438-15.674-21.41-31.181-26.912-46.521
		c-5.036-14.173-6.12-24.978-3.252-32.415c1.034-2.635,5.02-3.802,11.956-3.501C83.275,159.374,90.112,160.541,98.115,162.608"/>
	<path fill="#0D131A" d="M376.447,187.12c-0.367-3.602-1.651-6.437-3.853-8.504c-2.268-2.135-4.151-2.118-5.652,0.05
		c-2.567,3.568-15.624,17.809-39.168,42.721l-37.868,39.969l2.651,0.049c7.703-2.5,17.524-7.069,29.464-13.706
		c10.839-6.036,19.192-11.339,25.062-15.907c10.005-7.837,17.358-15.057,22.061-21.66C374.745,202.26,377.18,194.59,376.447,187.12
		 M278.901,70.265c-1.534,4.002-3.302,9.738-5.303,17.208c-2.101,8.004-3.902,15.924-5.402,23.762
		c-3.568,18.608-6.104,37.935-7.604,57.977c-1.701,22.944-1.567,41.82,0.399,56.626c0.501,3.568,1.718,5.97,3.652,7.203
		c2.001,1.301,3.168-0.449,3.502-5.252c1.533-22.211,6.753-49.773,15.657-82.689c7.604-28.046,14.106-47.522,19.509-58.428
		c2.701-5.502,3.302-10.088,1.801-13.756c-1.334-3.202-3.785-4.952-7.354-5.252c-4.269-0.367-7.554,1.301-9.854,5.002
		c-1.434,2.301-3.001,6.72-4.702,13.256c-2.635,10.905-5.053,20.026-7.254,27.363l-2.301-0.75l5.903-22.761
		c1.967-7.604,3.585-13.64,4.852-18.108c0.667-3.835,0.317-6.036-1.05-6.603C281.951,64.496,280.468,66.229,278.901,70.265
		 M277.699,58.559c-0.267-3.735-1.551-5.619-3.852-5.652c-8.904,5.336-16.008,14.84-21.31,28.513
		c-4.703,12.206-7.704,26.863-9.005,43.971c-1.2,15.708-0.851,31.599,1.051,47.673c1.867,15.707,4.869,28.93,9.004,39.669
		c1.067,2.734,1.852,3.868,2.352,3.401c0.5-0.434,0.634-1.884,0.4-4.353c-1.668-16.774-0.067-41.369,4.802-73.785
		c4.068-27.013,8.138-47.072,12.206-60.178l2.251-6.753C277.233,66.296,277.933,62.127,277.699,58.559 M358.338,139.948
		c-2.401-2.901-4.619-3.102-6.653-0.6c-12.673,15.607-25.329,34.333-37.968,56.176c-11.572,19.943-21.344,39.335-29.314,58.177
		c-1.3,3.102-2.001,5.553-2.101,7.354c-4.169-2.201-8.487-5.752-12.956-10.654c-3.769-4.103-6.27-7.504-7.504-10.205l-5.652-11.906
		c-2.368-5.136-4.386-10.138-6.053-15.007c-4.669-13.707-8.087-30.898-10.255-51.574c-3.335-32.182-0.25-59.578,9.254-82.189
		c3.902-9.204,8.621-16.941,14.157-23.211c5.002-5.636,10.121-9.554,15.357-11.755c9.07-3.769,20.242-1.017,33.516,8.254
		c12.072,8.471,24.128,20.943,36.167,37.417c11.772,16.208,21.043,32.815,27.812,49.824c7.237,18.208,10.088,33.399,8.555,45.571
		c-2.335,18.509-16.925,36.484-43.771,53.926c-9.371,6.103-19.376,11.555-30.015,16.357c-8.671,3.936-15.007,6.303-19.009,7.104
		c-2.067,0.467-4.436,0.184-7.104-0.851l2.602-2.401c8.104-8.703,20.192-21.393,36.267-38.067
		c14.641-15.474,27.613-29.864,38.919-43.171c2.567-3.035,4.002-6.886,4.302-11.555c0.3-4.702-0.584-9.821-2.651-15.357
		C362.206,146.134,360.239,142.249,358.338,139.948 M342.18,112.685c-2.868-3.435-5.469-5.636-7.804-6.603
		c-2.301-0.934-3.951-0.5-4.952,1.301c-11.905,21.71-22.377,44.087-31.415,67.132c-11.005,28.113-17.225,51.041-18.658,68.783
		c-0.367,4.568-0.417,7.72-0.15,9.454c0.434,2.601,1.567,1.801,3.401-2.401c11.039-25.278,21.994-46.789,32.866-64.53
		c4.068-6.67,9.138-14.44,15.207-23.311l16.708-24.461c2.001-3.001,2.718-6.537,2.15-10.605
		C348.833,122.673,346.382,117.754,342.18,112.685 M308.064,72.916c1.067,2.968,1.301,6.153,0.701,9.555
		c2.167-2.535,4.702-3.652,7.604-3.352c2.601,0.233,5.136,1.534,7.604,3.902c2.4,2.268,4.252,5.019,5.553,8.254
		c1.367,3.401,1.801,6.62,1.3,9.654c1.602-0.534,3.752,0.2,6.453,2.201c2.635,1.934,5.236,4.619,7.804,8.054
		c6.203,8.304,8.954,15.857,8.254,22.661c2.668,0.367,5.27,1.968,7.804,4.802c2.401,2.735,4.402,6.169,6.003,10.305
		c3.635,9.538,3.852,17.892,0.65,25.062c4.702-0.033,7.92,2.318,9.654,7.053c1.4,3.869,1.751,8.854,1.051,14.958
		c3.901-12.54,3.068-27.313-2.501-44.321c-5.203-15.841-14.391-33.266-27.563-52.274c-12.939-18.709-25.295-32.532-37.067-41.47
		c-14.007-10.605-25.695-12.973-35.066-7.104c1.867,0.167,3.168,1.667,3.902,4.502c0.633,2.434,0.75,5.085,0.35,7.954
		c1.034-0.567,2.185-0.684,3.452-0.35c2.067,0.534,3.051,2.651,2.951,6.353c2.768-2.701,5.652-4.252,8.654-4.652
		c2.734-0.4,5.252,0.184,7.553,1.751C305.363,67.947,306.997,70.115,308.064,72.916 M326.223,92.225
		c-1.601-4.969-4.219-8.054-7.854-9.254l-5.453,0.25c-2.602,1.234-5.136,4.102-7.604,8.604
		c-8.438,15.641-16.691,41.753-24.762,78.337c-3.401,15.307-6.02,29.464-7.854,42.47c-1.867,13.272-2.585,22.827-2.151,28.663
		c0.301,3.568,0.884,5.604,1.751,6.104c1.001,0.566,2.001-1.501,3.002-6.203c6.103-29.48,14.656-57.327,25.662-83.539
		c3.835-9.171,8.254-18.759,13.256-28.764l11.005-21.71C327.59,102.447,327.923,97.461,326.223,92.225"/>
	<path fill="#0D131A" d="M218.522,236.543l-0.8-0.35l-1.802-2.352L218.522,236.543"/>
	<path fill="#0D131A" d="M80.507,179.366c-4.469-2.635-6.637-6.12-6.503-10.455c0.166-4.469,2.884-6.82,8.153-7.053
		c-5.803-1.934-10.104-1.734-12.906,0.601c-2.601,2.134-3.769,5.969-3.501,11.505c0.533,11.205,5.952,25.545,16.257,43.021
		c10.973,18.608,24.062,34.6,39.269,47.973c17.742,15.574,35.317,24.611,52.726,27.112c-5.603-1.768-11.272-4.285-17.009-7.554
		c-6.836-3.901-8.954-6.604-6.353-8.104c-5.703-1.167-11.205-3.902-16.508-8.204c-5.436-4.368-7.271-7.737-5.503-10.104
		c-5.402-1.434-10.421-5.119-15.057-11.055c-1.868-2.402-3.118-4.569-3.752-6.504c-0.634-2.034-0.417-3.301,0.65-3.802
		c-5.669-0.833-11.089-4.485-16.258-10.955c-2.268-2.802-3.635-5.353-4.102-7.653c-0.501-2.568,0.2-4.386,2.101-5.453l-0.05-0.05
		c-3.168-0.967-5.853-2.651-8.054-5.052c-2.168-2.401-3.652-5.336-4.452-8.805c-0.434-1.934-0.317-3.818,0.35-5.652
		c0.634-1.701,1.501-2.802,2.602-3.302c-2.868-1.167-4.386-3.018-4.552-5.553C77.856,181.901,78.672,180.267,80.507,179.366
		 M62.849,161.858c2.268-3.902,7.37-5.486,15.307-4.752c20.243,1.834,44.888,10.605,73.935,26.312
		c26.146,14.14,46.622,28.464,61.43,42.971c0.434,1.066,0.467,2.034,0.1,2.901c-0.3,0.601,0.217,1.817,1.551,3.651
		c-4.869-5.902-12.306-12.605-22.311-20.109c-9.938-7.403-20.96-14.557-33.065-21.46c-28.146-15.975-51.925-25.229-71.334-27.763
		c-2.601-0.3-4.969-0.05-7.103,0.75c-2.435,0.967-3.819,2.484-4.152,4.552c-0.367,2.168,0.384,4.235,2.251,6.203
		c2.135,2.268,5.336,3.835,9.604,4.702c3.902,0.767,9.454,2.285,16.658,4.552c8.137,2.568,16.424,5.486,24.861,8.754l-4.853,0.55
		c-20.242-7.37-34.299-11.405-42.17-12.105c-0.767-0.067-1.483,0.15-2.15,0.65c-0.667,0.5-1.018,1.101-1.051,1.801
		c-0.167,1.801,1.567,3.018,5.202,3.651c11.539,1.968,28.914,7.037,52.125,15.207c24.178,8.471,44.754,16.892,61.729,25.262
		c-16.175-6.77-36.15-14.09-59.929-21.96c-22.61-7.47-39.235-12.355-49.874-14.657c-4.368-0.967-6.786,0.417-7.253,4.152
		c-0.334,2.801,0.617,5.77,2.852,8.904c2.367,3.268,5.152,5.152,8.354,5.652c20.443,3.135,40.687,7.404,60.729,12.807
		c9.571,2.567,33.399,9.621,71.484,21.16l5.853,6.103c-20.609-7.804-44.821-15.391-72.635-22.761
		c-25.078-6.637-45.538-11.172-61.379-13.606c-3.034-0.467-4.602,0.25-4.702,2.151c-0.066,1.7,0.968,3.984,3.102,6.854
		c2.102,2.801,4.586,5.285,7.454,7.453c3.168,2.4,5.969,3.768,8.403,4.102l49.573,4.853c23.878,2.701,49.207,7.42,75.986,14.156
		l2.501,2.651c-23.944-5.535-43.737-9.438-59.378-11.705c-16.141-2.368-37.468-4.419-63.98-6.153
		c-2.768-0.167-3.835,0.834-3.201,3.001c0.5,1.602,1.801,3.586,3.901,5.953c2.035,2.268,4.553,4.235,7.554,5.903
		c3.269,1.867,6.437,2.935,9.505,3.201l54.976,4.402l56.927,4.853l2.151,2.25l-53.525-3.901l-60.578-4.202
		c-0.534-0.033-1.067,0.117-1.602,0.451c-0.666,0.433-0.934,1.033-0.8,1.801c0.367,2.2,4.019,5.235,10.955,9.104
		c2.935,1.635,7.971,2.936,15.107,3.902l17.608,1.301c21.543,0.533,38.368,0.482,50.474-0.15c9.771-0.5,18.858-1.567,27.263-3.201
		l3.102,3.301l-0.45,0.451c-0.5-0.468-1.435-0.602-2.802-0.4l-42.72,2.351c-19.81,0.5-35.25,0.333-46.322-0.5
		c-6.169-0.434-9.504-0.351-10.005,0.25c-0.667,0.833,2.285,3.067,8.854,6.703c4.402,2.468,9.454,4.319,15.157,5.553
		c4.002,0.867,7.704,1.334,11.105,1.4c8.704,0.167,19.476-0.967,32.315-3.401c9.171-1.734,18.191-3.885,27.062-6.453
		c-9.571,5.536-22.827,9.621-39.769,12.256c-15.908,2.435-29.131,2.818-39.669,1.15c-10.338-1.601-21.61-6.52-33.816-14.757
		c-11.538-7.737-22.677-17.524-33.415-29.364c-10.705-11.839-19.576-24.128-26.613-36.867
		c-7.437-13.439-11.938-25.812-13.506-37.117C60.797,170.012,61.148,164.793,62.849,161.858"/>
	<path fill="#EEEEEF" d="M290.956,131.144c1.667,8.604,1.867,17.308,0.6,26.112l-2.101,17.158
		c-1.4,10.872-2.768,20.376-4.102,28.514c-4.27,25.745-8.487,38.617-12.656,38.617c-1.701-0.9-3.651-2.567-5.853-5.002
		c-4.436-4.902-7.954-11.238-10.556-19.009c-2.801-8.403-4.818-19.192-6.053-32.365c-0.967-10.405-1.367-21.06-1.2-31.965
		c0.167-11.105,2.001-20.343,5.503-27.713c4.502-9.404,11.188-13.99,20.059-13.756C283.069,111.968,288.522,118.438,290.956,131.144
		"/>
	<path fill="#EEEEEF" d="M141.836,194.023c5.102,0.8,9.587,2.101,13.456,3.901c19.176,8.871,37.101,20.177,53.775,33.916
		c5.836,4.803,10.771,9.305,14.807,13.507c3.502,3.568,5.152,5.619,4.952,6.152c-0.333,0.967-12.355-1.2-36.066-6.503
		c-28.214-6.336-43.838-9.737-46.872-10.204c-10.639-1.668-19.393-4.319-26.263-7.954c-9.638-5.103-13.807-11.522-12.506-19.259
		c1.367-8.038,7.887-12.707,19.56-14.007L141.836,194.023"/>
	<path fill="#003F4D" d="M274.598,111.734c8.204,0.233,13.623,6.486,16.258,18.759c2.034,9.471,2.185,18.842,0.45,28.113
		c-0.3-4.402-1.334-8.821-3.102-13.256c-3.501-8.837-8.837-13.306-16.007-13.406c-7.204-0.133-13.224,3.769-18.059,11.706
		c-1.534,2.501-2.852,5.236-3.952,8.204c-0.566,1.5-0.967,2.751-1.2,3.751l0.05-2.401c0.167-11.105,2.001-20.343,5.503-27.713
		C259.041,116.086,265.728,111.501,274.598,111.734"/>
	<path fill="#003F4D" d="M140.135,198.425c-10.172,1.734-15.44,6.136-15.808,13.206c-0.333,7.07,3.168,13.057,10.505,17.959
		c3.635,2.435,7.32,4.169,11.056,5.203c-10.639-1.668-19.393-4.319-26.263-7.954c-9.638-5.103-13.807-11.522-12.506-19.259
		c1.367-8.038,7.887-12.707,19.56-14.007l15.157,0.45c5.102,0.8,9.587,2.101,13.456,3.901L140.135,198.425"/>
	<path fill="#0D131A" d="M269.896,239.295l-2.101-2.051l-2.301-3.702c1.768,2.567,3.218,4.469,4.352,5.702L269.896,239.295
		c1.835,1.301,3.568,1.133,5.203-0.5c2.334-2.335,5.103-13.824,8.304-34.467c1.734-11.272,3.385-23.645,4.952-37.118
		c1.101-9.404,0.334-17.058-2.301-22.961c-2.568-5.803-6.57-9.154-12.006-10.055c-5.77-0.967-10.755,0.8-14.957,5.303
		c-3.902,4.168-6.253,9.588-7.054,16.257c-1.033,8.671-0.783,20.777,0.751,36.317c1.634,16.308,3.885,27.08,6.753,32.315
		l-0.801-1.101c-4.568-5.77-7.854-18.775-9.854-39.019c-1.834-18.542-1.968-34.316-0.4-47.322
		c0.801-6.803,3.652-13.089,8.555-18.859c5.636-6.636,11.889-9.388,18.759-8.254c6.637,1.101,11.605,6.103,14.907,15.007
		c3.234,8.704,4.151,19.092,2.751,31.165c-1.234,10.405-3.252,23.561-6.053,39.468c-3.835,21.844-7.254,36.551-10.255,44.121
		C275.782,243.062,273.365,242.963,269.896,239.295 M272.297,129.893c4.103,0.033,7.771,1.701,11.005,5.002
		c3.436,3.501,5.986,8.504,7.654,15.007c0.333-12.272-1.551-21.71-5.653-28.313c-3.635-5.836-8.254-8.537-13.856-8.104
		c-5.469,0.434-10.221,3.668-14.257,9.705c-4.401,6.57-6.703,14.907-6.903,25.012c2.769-5.87,6.153-10.438,10.155-13.707
		C264.277,131.394,268.229,129.859,272.297,129.893"/>
	<path fill="#0D131A" d="M105.269,210.48c0.267-7.104,3.618-12.355,10.055-15.757c5.469-2.901,12.006-4.002,19.609-3.302
		c12.639,1.167,28.529,7.72,47.672,19.659c15.574,9.738,28.464,19.626,38.668,29.664c5.77,5.702,9.205,9.621,10.306,11.756
		c1.2,2.234,0.033,2.885-3.502,1.95c-29.78-7.703-57.144-13.59-82.089-17.658c-12.605-2.067-22.694-5.636-30.264-10.705
		C108.553,221.253,105.069,216.051,105.269,210.48 M122.576,210.281c0.801-3.902,3.102-7.021,6.903-9.355
		c4.302-2.667,10.139-4.019,17.509-4.052c-10.505-2.301-19.243-2.351-26.213-0.15c-6.203,1.967-9.988,5.252-11.355,9.854
		c-1.367,4.502-0.033,8.938,4.002,13.306c4.369,4.77,11.006,8.205,19.909,10.306c-3.901-2.201-6.853-5.169-8.854-8.904
		S121.843,213.883,122.576,210.281 M133.382,202.477c-4.669,2.435-7.104,6.303-7.304,11.605c-0.2,5.003,3.201,9.588,10.205,13.757
		c6.47,3.902,14.573,6.637,24.312,8.204c9.771,1.635,18.976,3.436,27.612,5.402c5.47,1.268,15.357,3.752,29.664,7.453
		c4.002,1.034,6.253,1.451,6.753,1.251c1.067-0.399-0.45-2.518-4.552-6.353c-11.205-10.539-22.011-19.31-32.415-26.312
		c-13.74-9.171-26.079-14.74-37.018-16.708C143.703,199.542,137.95,200.109,133.382,202.477"/>
	<path fill="#7C70A2" d="M229.427,211.031c9.604-5.502,19.76-7.57,30.465-6.203c9.271,1.168,17.225,4.52,23.86,10.055
		c5.803,4.836,9.038,11.772,9.705,20.811c0.533,7.369-0.567,14.906-3.302,22.61c5.27,1.167,10.005,2.668,14.207,4.502
		c4.469,1.935,7.503,3.901,9.104,5.903c5.402,6.703,7.986,14.189,7.753,22.46s-3.201,14.69-8.904,19.259
		c-6.069,4.902-12.506,7.688-19.309,8.354c-7.137,0.7-14.356-1.001-21.66-5.103c-4.202-2.367-7.454-6.403-9.755-12.105
		c-2.001-4.936-3.135-10.688-3.401-17.258c-9.371,1.733-17.342,1.884-23.911,0.449c-7.504-1.634-13.79-5.419-18.859-11.355
		c-8.004-9.371-10.472-20.559-7.403-33.565C211.052,227.039,218.189,217.434,229.427,211.031"/>
	<path fill="#655B86" d="M312.316,310.428c-6.069,4.902-12.506,7.688-19.309,8.354c-7.137,0.7-14.356-1.001-21.66-5.103
		c-4.202-2.367-7.454-6.403-9.755-12.105c-2.001-4.936-3.135-10.688-3.401-17.258l0.75-0.251l5.053-2.051
		c5.002-2.134,7.854-3.202,8.554-3.202c1.468,0.034,1.367,1.984-0.3,5.854c-2.168,5.002-1.384,9.471,2.351,13.406
		c3.502,3.701,8.421,5.92,14.758,6.653c6.669,0.8,12.756-0.384,18.258-3.552c6.37-3.602,10.705-9.288,13.007-17.059
		c1,5.137,0.783,10.039-0.65,14.707C318.502,303.625,315.951,307.493,312.316,310.428"/>
	<path fill="#0D131A" d="M259.741,205.729c-13.006-1.467-24.445,1.801-34.316,9.805c-10.172,8.237-15.674,18.275-16.508,30.114
		c-0.767,10.839,2.335,20.177,9.305,28.013c4.769,5.403,11.405,8.805,19.909,10.205c8.004,1.301,15.924,0.634,23.761-2
		c2.401-0.801,3.419-0.684,3.052,0.35c-0.366,1.033-1.851,1.934-4.452,2.701c-8.204,2.668-16.391,3.285-24.562,1.852
		c-8.871-1.535-15.841-5.27-20.91-11.206c-7.637-8.904-10.654-19.526-9.054-31.864c1.601-12.473,7.453-22.578,17.559-30.314
		c6.503-5.003,13.556-8.305,21.159-9.905c7.004-1.5,13.94-1.451,20.811,0.15c6.603,1.534,12.389,4.285,17.357,8.254
		c5.036,4.035,8.621,8.821,10.756,14.356c1.667,4.369,2.468,9.071,2.4,14.107c-0.1,5.769-1.367,11.389-3.802,16.857
		c-1.9,4.302-3.468,6.586-4.702,6.854c-1.2,0.3-0.783-1.584,1.251-5.653c2.968-5.902,4.368-12.005,4.202-18.309
		c-0.167-6.303-1.885-12.206-5.152-17.708C282.035,212.715,272.681,207.162,259.741,205.729"/>
	<path fill="#0D131A" d="M317.919,280.314c-2.335-6.804-6.337-11.855-12.006-15.158c-3.401-2-8.904-3.852-16.508-5.553l0.7-1.1
		l0.65-1.101c7.437,0.866,13.973,3.352,19.609,7.453c5.702,4.169,9.388,9.204,11.055,15.107c1.635,5.836,1.734,11.556,0.301,17.158
		c-1.534,6.003-4.603,10.854-9.205,14.557c-5.103,4.136-10.805,6.837-17.107,8.104c-6.27,1.234-12.173,0.834-17.709-1.2
		c-5.902-2.168-10.621-5.936-14.156-11.306c-3.902-5.937-6.02-13.372-6.354-22.311c0.233-0.399,0.667-0.533,1.301-0.399
		c0.634,0.1,1.067-0.033,1.301-0.4c0.334,7.937,2.201,14.674,5.603,20.209c3.168,5.136,7.37,8.854,12.606,11.155
		c5.035,2.201,10.421,2.802,16.157,1.802c5.903-1.001,11.422-3.568,16.558-7.704c3.568-2.868,6.12-6.753,7.654-11.655
		C320.136,292.27,319.987,286.383,317.919,280.314"/>
	<path fill="#0D131A" d="M219.823,239.545c3.702,3.635,6.353,8.153,7.954,13.557c1.934,6.603,2.451,12.355,1.551,17.258
		c-0.867,4.635-2.769,7.587-5.703,8.854c-3.535,1.535-7.453,0.584-11.756-2.851c-4.368-3.502-7.337-8.171-8.904-14.007
		c-1.867-7.004-1.917-13.156-0.149-18.459c1.534-4.535,3.852-7.336,6.953-8.404C212.736,234.492,216.087,235.843,219.823,239.545"/>
	<path fill="#ED85A7" d="M218.022,240.795c3.168,3.201,5.586,7.637,7.253,13.307c1.668,5.603,2.201,10.722,1.602,15.357
		c-0.567,4.502-1.984,7.254-4.252,8.254c-2.302,1-5.136,0.15-8.505-2.551c-4.168-3.336-7.103-8.588-8.804-15.758
		c-1.268-5.402-1.301-10.289-0.1-14.657c1.1-3.969,2.768-6.337,5.002-7.104C212.486,236.844,215.087,237.895,218.022,240.795"/>
	<path fill="#F6C8D6" d="M214.57,240.395c1.868,2.869,2.936,7.021,3.202,12.457c0.167,3.468-0.233,6.502-1.201,9.104
		c-0.9,2.368-2.084,3.952-3.552,4.752c-1.5,0.834-2.935,0.668-4.302-0.5c-1.501-1.268-2.635-3.535-3.401-6.803
		c-1.268-5.402-1.301-10.289-0.1-14.657c1.1-3.969,2.768-6.337,5.002-7.104C211.618,237.144,213.07,238.061,214.57,240.395"/>
	<path fill="#0D131A" d="M254.439,240.145c-4.769-4.168-7.954-9.254-9.555-15.257c-1.634-6.136-0.867-10.839,2.302-14.106
		c3.067-3.135,7.986-4.252,14.757-3.352c6.803,0.934,12.539,3.552,17.208,7.854c4.368,4.035,7.236,9.088,8.604,15.157
		c1.435,6.103,0.751,10.688-2.051,13.757c-2.835,3.201-7.27,4.535-13.306,4.002C265.894,247.632,259.908,244.947,254.439,240.145"/>
	<path fill="#ED85A7" d="M254.939,236.994c-4.102-3.902-6.786-8.422-8.054-13.557c-1.233-5.069-0.617-8.788,1.852-11.156
		c2.534-2.467,6.253-3.501,11.155-3.102c5.502,0.468,10.788,2.719,15.857,6.754c5.469,4.302,8.771,9.571,9.904,15.808
		c1.067,5.603,0.217,9.604-2.551,12.005c-2.435,2.102-6.003,2.885-10.705,2.352C266.362,245.431,260.541,242.396,254.939,236.994"/>
	<path fill="#F6C8D6" d="M258.74,235.492c-5.102-1-8.604-3.701-10.505-8.104c-1.334-3.068-1.968-5.969-1.9-8.704
		c0.066-2.801,0.867-4.936,2.401-6.403c1.733-1.667,4.185-2.684,7.354-3.051c3.368-0.367,6.902,0.133,10.604,1.5
		c3.769,1.401,6.187,4.42,7.254,9.055c1.1,4.803,0.133,8.854-2.901,12.156C267.946,235.31,263.843,236.493,258.74,235.492"/>
	<path fill="#0D131A" d="M235.63,260.805c0.2-0.566,1.817-1.051,4.853-1.451c2.935-0.366,4.668-0.4,5.202-0.1
		c0.5,0.301,0.35,1.968-0.45,5.002c-0.801,3.068-1.651,4.636-2.552,4.703c-1,0.1-2.501-1.084-4.502-3.553
		C236.281,262.973,235.43,261.438,235.63,260.805"/>
	<path fill="#FFFFFF" d="M238.932,263.206c0.133-0.367,0.833-0.751,2.101-1.151l2.301-0.399c0.301,0.134,0.334,1.101,0.101,2.901
		s-0.551,2.768-0.95,2.901c-0.367,0.1-1.084-0.534-2.151-1.901C239.331,264.223,238.865,263.439,238.932,263.206"/>
	<path fill="#0D131A" d="M250.637,257.803c-0.066-0.6,0.834-2,2.701-4.201c1.868-2.201,3.052-3.285,3.552-3.252
		c0.533,0.033,1.317,1.451,2.352,4.252c1.033,2.802,1.3,4.502,0.8,5.103l-5.052-0.25
		C252.155,258.754,250.703,258.203,250.637,257.803"/>
	<path fill="#FFFFFF" d="M253.489,256.553c-0.033-0.367,0.434-1,1.4-1.9c0.967-0.935,1.617-1.385,1.951-1.352
		c0.3,0.033,0.767,0.867,1.4,2.502c0.667,1.634,0.884,2.567,0.65,2.801c-0.2,0.268-1.15,0.051-2.852-0.65
		C254.372,257.253,253.522,256.786,253.489,256.553"/>
	<path fill="#0D131A" d="M234.829,262.155c-1-1.334-1.017-3.202-0.05-5.603c1.134-2.835,3.418-5.353,6.854-7.554
		c3.135-2.034,6.453-3.034,9.954-3.001c3.169,0.066,5.22,0.85,6.153,2.351c1.268,1.935,1.167,4.235-0.3,6.903
		c-1.334,2.368-3.436,4.568-6.304,6.604c-2.701,1.9-5.636,2.951-8.804,3.151C238.898,265.174,236.397,264.223,234.829,262.155"/>
	<path fill="#0D131A" d="M263.493,289.868c0.1,1.435,0.183,2.185,0.25,2.251l2.501-0.15l2.401-0.049
		c0.233,0.3,0.283,1.267,0.149,2.9l-0.149,2.552l2.451,0.8c1.467,0.334,2.268,0.65,2.401,0.951c0.233,0.434,0.017,1.184-0.65,2.251
		s-1.468,2.018-2.401,2.851c-2.168,1.868-4.77,2.502-7.804,1.901c-2.602-0.533-4.569-1.667-5.903-3.401
		c-1.733-2.334-2.384-4.819-1.95-7.453c0.399-2.402,1.517-4.27,3.352-5.604l2.601-1.65c1.101-0.566,1.868-0.717,2.302-0.45
		C263.243,287.668,263.393,288.435,263.493,289.868"/>
	<path fill="#5DC1CF" d="M258.641,301.474c-1.134-1.333-1.751-2.935-1.851-4.802c-0.134-1.734,0.2-3.085,1-4.053
		c1.334-1.634,2.534-2.417,3.602-2.351c0.233,0,0.434,0.601,0.601,1.801l0.45,1.951l2.301-0.15l2.302-0.1
		c0.1,0.1,0.066,0.9-0.101,2.401c-0.167,1.5-0.184,2.334-0.05,2.5l2.151,0.602c1.233,0.199,1.9,0.383,2.001,0.55
		c0.133,0.333-0.067,0.851-0.601,1.551c-0.601,0.833-1.468,1.584-2.602,2.251c-1.268,0.733-2.801,0.934-4.602,0.6
		C261.309,303.825,259.775,302.908,258.641,301.474"/>
	<path fill="#0D131A" d="M297.86,267.458c2.334,1.7,3.785,4.085,4.352,7.153c0.567,3.035,0.15,5.786-1.25,8.254
		c-1.168,2.101-2.651,3.502-4.452,4.201l-5.003,0.201c-2.101-0.334-3.251-0.784-3.451-1.352c-0.167-0.399,0.017-1.15,0.55-2.25
		l0.801-1.852c-0.033-0.133-0.784-0.4-2.251-0.801c-1.468-0.399-2.268-0.783-2.401-1.15c-0.134-0.366,0.25-1.167,1.15-2.4
		l1.301-2.051c-0.033-0.134-0.801-0.418-2.301-0.852c-1.501-0.467-2.318-0.9-2.451-1.3c-0.268-0.834,0.583-2.284,2.551-4.353
		c2.135-2.268,4.186-3.435,6.153-3.502C293.591,265.34,295.825,266.023,297.86,267.458"/>
	<path fill="#5DC1CF" d="M295.558,268.408c2.102,1.067,3.485,2.951,4.152,5.652s0.584,5.137-0.25,7.304
		c-0.801,2.201-2.135,3.535-4.002,4.002l-3.151,0.15c-1.201-0.101-1.868-0.267-2.001-0.501c-0.167-0.266,0.066-1,0.7-2.201
		c0.667-1.2,0.95-1.867,0.851-2c-0.101-0.134-0.817-0.351-2.151-0.65c-1.301-0.301-2.034-0.584-2.201-0.851
		c-0.166-0.233,0.117-0.983,0.851-2.251c0.733-1.334,1.067-2.102,1.001-2.301c-0.067-0.234-0.784-0.617-2.151-1.15
		c-1.367-0.567-2.101-0.968-2.201-1.201c-0.134-0.4,0.334-1.167,1.4-2.301c1.301-1.367,2.785-2.185,4.452-2.451
		C292.49,267.391,294.058,267.641,295.558,268.408"/>
	<path fill="#5DC1CF" d="M255.44,249.549c1.066,1.367,1,3.202-0.2,5.503c-1.168,2.302-2.969,4.186-5.403,5.653
		c-2.567,1.566-5.219,2.384-7.953,2.451c-2.501,0.066-4.136-0.451-4.902-1.551c-0.934-1.334-1.001-3.002-0.2-5.003
		c0.934-2.368,2.901-4.452,5.902-6.253c2.535-1.533,5.119-2.334,7.754-2.4C252.871,247.882,254.539,248.416,255.44,249.549"/>
	<path fill="#50A8B4" d="M256.14,251.601c0.066,1.468-0.483,3.067-1.651,4.802c-1.2,1.734-2.751,3.168-4.652,4.303
		c-2.167,1.334-4.435,2.117-6.803,2.351c-2.135,0.233-3.818,0.017-5.053-0.65c3.368-0.167,7.021-1.468,10.955-3.901
		C252.738,256.203,255.139,253.901,256.14,251.601"/>
	<path fill="#0D131A" d="M248.987,325.885c-6.771-4.102-9.805-8.22-9.104-12.355c0.566-3.435,4.568-5.586,12.006-6.453
		c7.303-0.834,15.474-0.166,24.512,2.002c8.804,2.101,16.558,5.019,23.261,8.754c7.403,4.068,10.771,7.77,10.104,11.105
		c-0.767,3.867-5.953,6.169-15.558,6.902c-8.337,0.601-16.374,0-24.111-1.801C261.859,332.105,254.823,329.387,248.987,325.885"/>
	<path fill="#0D131A" d="M334.626,283.966c2.535,13.772,2.985,24.312,1.351,31.614c-1.3,5.836-3.768,9.205-7.403,10.105
		c-3.335,0.801-7.069-1.901-11.205-8.104c-4.735-7.037-8.32-16.541-10.755-28.514c-1.935-9.438-2.501-17.608-1.701-24.512
		c0.867-7.404,3.186-11.855,6.953-13.356c3.902-1.567,8.138,0.767,12.706,7.003C329.341,264.74,332.693,273.327,334.626,283.966"/>
	<path fill="#5DC1CF" d="M312.716,253.801c3.068-0.866,6.67,2.052,10.806,8.755c4.035,6.569,6.77,13.772,8.203,21.61
		c2.168,11.805,2.885,21.176,2.151,28.113c-0.7,6.469-2.551,10.055-5.553,10.755c-2.835,0.667-6.169-2.552-10.005-9.655
		c-3.968-7.27-6.869-15.79-8.704-25.562c-1.534-8.037-2.134-15.257-1.801-21.66C308.214,258.721,309.848,254.602,312.716,253.801"/>
	<path fill="#50A8B4" d="M323.621,271.06c1.601-0.167,3.185,1.017,4.752,3.552c1.501,2.468,2.618,5.652,3.352,9.555
		c1.968,10.672,2.735,19.326,2.302,25.962c-0.134,2.835-0.534,5.353-1.201,7.554c-0.566,1.801-1.45,2.651-2.651,2.551
		c-1.167-0.066-2.417-1.051-3.751-2.951c-3.202-4.535-5.42-11.789-6.653-21.76c-0.867-7.004-0.851-12.89,0.05-17.658
		C320.62,273.494,321.887,271.227,323.621,271.06"/>
	<path fill="#5DC1CF" d="M242.633,313.93c0.801-2.435,4.402-3.885,10.806-4.352c6.869-0.5,14.656,0.4,23.36,2.701
		c10.238,2.701,18.042,5.619,23.411,8.754c4.669,2.734,6.937,5.219,6.804,7.453c-0.167,2.368-3.835,3.818-11.006,4.353
		c-7.303,0.567-15.34-0.067-24.111-1.901c-8.437-1.768-15.624-4.352-21.56-7.754C244.334,319.716,241.766,316.631,242.633,313.93"/>
	<path fill="#50A8B4" d="M253.538,320.082c0.134-1.867,2.768-2.918,7.903-3.15c5.17-0.201,11.39,0.5,18.659,2.101
		c7.971,1.768,14.323,4.269,19.059,7.503c2.201,1.501,3.285,2.785,3.252,3.853c-0.033,1.167-1.467,1.917-4.302,2.251
		c-3.436,0.4-7.403,0.467-11.906,0.2c-4.735-0.267-9.504-0.9-14.307-1.901c-4.469-0.934-8.537-2.367-12.205-4.302
		C255.423,324.401,253.371,322.217,253.538,320.082"/>
	<path fill="#003F4D" d="M159.945,159.257c-4.136,2.067-9.338,2.718-15.607,1.951c-6.903-0.833-10.271-3.352-10.105-7.553
		c0.167-4.035,3.452-5.753,9.855-5.152c4.401,0.4,9.638,1.767,15.707,4.102c14.874,5.77,28.163,16.441,39.869,32.015
		c9.571,12.739,15.974,25.362,19.209,37.868c0.833,3.168,1.101,5.053,0.8,5.652c-0.333,0.567-1.117-0.566-2.351-3.4
		C201.547,187.753,182.421,165.927,159.945,159.257"/>
	<path fill="#003F4D" d="M237.281,211.731c0.301,3.468,0.101,5.069-0.6,4.802c-0.701-0.232-1.251-1.9-1.651-5.002
		c-1.701-12.639-6.47-29.563-14.307-50.774c-8.237-22.177-14.724-34.5-19.459-36.967c-9.604-2.801-15.725-6.386-18.358-10.755
		c-2.001-3.302-1.885-6.203,0.35-8.704c2.201-2.401,5.353-2.318,9.454,0.25c4.036,2.535,8.055,6.903,12.057,13.106
		c9.471,14.707,17.408,32.582,23.811,53.625C233.479,187.454,236.38,200.926,237.281,211.731"/>
	<path fill="#0D131A" d="M236.43,215.483c0.034-10.806-2.851-25.429-8.653-43.871c-6.403-20.376-14.157-37.618-23.262-51.725
		c-3.501-5.402-7.153-9.655-10.955-12.756c-4.535-3.668-7.854-4.269-9.954-1.801c-1.768,2.101-1.134,4.952,1.9,8.554
		c3.535,4.169,9.121,7.053,16.758,8.654c7.737,10.638,14.791,24.895,21.16,42.77C229.26,181.717,233.596,198.442,236.43,215.483
		 M237.381,207.58c0.667,5.202,0.566,8.354-0.301,9.454c-0.9,1.101-1.851-0.884-2.851-5.953
		c-2.835-14.673-7.204-30.147-13.106-46.422c-6.703-18.375-13.356-31.765-19.96-40.169c-8.304-1.567-14.257-4.669-17.858-9.304
		c-3.335-4.269-3.602-8.004-0.8-11.206c2.301-2.634,5.753-2.651,10.354-0.05c4.636,2.668,8.871,7.17,12.706,13.506
		C222.573,145.851,233.179,175.898,237.381,207.58"/>
	<path fill="#0D131A" d="M135.332,152.554c-0.467,1.301-0.033,2.601,1.301,3.902c1.301,1.3,3.168,2.318,5.603,3.051
		c5.937,1.768,11.723,1.284,17.358-1.451c15.141,4.469,28.897,15.708,41.27,33.716c7.437,10.838,13.507,22.594,18.209,35.267
		c-3.436-15.308-10.822-30.031-22.161-44.171c-11.705-14.607-24.261-24.229-37.667-28.864c-6.737-2.334-11.89-3.718-15.458-4.152
		C138.985,149.252,136.166,150.152,135.332,152.554 M139.635,161.258c-2.435-0.9-4.235-2.168-5.403-3.802
		c-1.167-1.634-1.5-3.368-1-5.203c0.9-3.368,4.252-4.869,10.055-4.502c5.036,0.333,11.372,2.018,19.009,5.052
		c11.906,4.702,23.178,13.423,33.816,26.162c11.071,13.273,18.875,27.897,23.411,43.871c0.967,3.335,1.033,5.219,0.2,5.652
		c-0.867,0.434-2.019-1-3.452-4.302c-15.073-35.45-33.866-56.827-56.377-64.13C152.157,163.025,145.405,163.425,139.635,161.258"/>
</g>
</svg>
