<?xml version="1.0" encoding="utf-8"?>
<!-- Generator: Adobe Illustrator 16.0.0, SVG Export Plug-In . SVG Version: 6.00 Build 0)  -->
<!DOCTYPE svg PUBLIC "-//W3C//DTD SVG 1.1//EN" "http://www.w3.org/Graphics/SVG/1.1/DTD/svg11.dtd">
<svg version="1.1" id="Layer_1" xmlns="http://www.w3.org/2000/svg" xmlns:xlink="http://www.w3.org/1999/xlink" x="0px" y="0px"
	 width="456px" height="415px" viewBox="0 0 456 415" enable-background="new 0 0 456 415" xml:space="preserve">
<g>
	<path fill="#0D131A" d="M277.53,223.838c-3.091-0.269-5.802-1.544-8.131-3.829c-1.388-1.344-2.149-3.359-2.284-6.047l-0.47-6.114
		c-0.269-0.941-0.919-1.994-1.948-3.158l-3.023-2.956c-1.031-0.985-1.479-1.702-1.344-2.15c0.089-0.448,0.872-0.694,2.351-0.738
		c9.497-0.358,16.417,1.567,20.763,5.778c2.776,2.688,4.187,5.891,4.231,9.608c0.045,3.403-0.963,5.958-3.023,7.659
		C282.77,223.414,280.396,224.062,277.53,223.838"/>
	<path fill="#CAD3CC" d="M283.508,220.009c-1.656,1.522-3.672,2.218-6.046,2.083c-2.42-0.224-4.637-1.299-6.651-3.226
		c-1.121-1.074-1.792-2.889-2.018-5.442l-0.469-5.979c-0.357-1.479-1.635-3.181-3.831-5.106l-1.611-1.68
		c-0.045-0.314,0.716-0.426,2.284-0.336c7.748,0.538,13.348,2.487,16.798,5.847c2.194,2.104,3.403,4.613,3.627,7.524
		C285.77,216.47,285.077,218.575,283.508,220.009"/>
	<path fill="#A6ADA8" d="M283.508,220.009c-1.656,1.522-3.672,2.218-6.046,2.083c-2.42-0.224-4.637-1.299-6.651-3.226
		c-0.717-0.627-1.21-1.478-1.479-2.553c3.358,1.702,6.606,2.038,9.741,1.007c3.315-1.029,5.241-3.269,5.779-6.717
		c0.717,1.791,0.94,3.56,0.672,5.307C285.256,217.658,284.584,219.023,283.508,220.009"/>
	<path fill="#0D131A" d="M271.885,244.801c-4.031-0.447-7.01-2.016-8.936-4.702c-2.24-3.137-3.293-6.406-3.159-9.81
		c0.09-3.718,1.569-6.585,4.435-8.6c2.733-1.973,5.846-2.622,9.34-1.949c3.719,0.672,6.764,2.665,9.138,5.98
		c2.105,2.956,2.912,6.202,2.42,9.741c-0.494,3.583-2.173,6.271-5.04,8.062C278.112,244.778,275.379,245.204,271.885,244.801"/>
	<path fill="#E3C582" d="M273.497,221.621c2.956,0.717,5.376,2.375,7.257,4.973c1.881,2.643,2.664,5.486,2.351,8.533
		c-0.312,3-1.635,5.329-3.963,6.987c-2.33,1.657-4.973,2.149-7.929,1.479c-2.957-0.672-5.374-2.331-7.257-4.972
		c-1.88-2.6-2.665-5.421-2.352-8.466c0.313-3.047,1.636-5.398,3.964-7.056C267.899,221.441,270.542,220.949,273.497,221.621"/>
	<path fill="#BFA56F" d="M281.225,227.399c1.611,2.553,2.218,5.241,1.814,8.062c-0.404,2.867-1.704,5.084-3.897,6.652
		c-2.33,1.657-4.973,2.149-7.929,1.479c-2.957-0.672-5.374-2.331-7.257-4.972c-1.433-2.062-2.217-4.189-2.352-6.383l0.472,0.738
		c1.88,2.643,4.3,4.299,7.256,4.972c2.955,0.673,5.6,0.179,7.927-1.479c1.436-0.985,2.487-2.307,3.159-3.963
		C281.091,230.938,281.36,229.236,281.225,227.399"/>
	<path fill="#0D131A" d="M254.617,235.462c2.776-2.463,6.204-3.427,10.28-2.89c4.076,0.494,7.593,2.33,10.549,5.51
		c2.956,3.225,4.367,7.032,4.232,11.422c-0.134,4.121-1.501,7.258-4.099,9.407c-2.731,2.329-6.159,3.314-10.28,2.956
		c-4.39-0.358-8.04-2.217-10.951-5.577c-2.956-3.448-4.345-7.233-4.166-11.354C250.363,240.993,251.841,237.836,254.617,235.462"/>
	<path fill="#E3C582" d="M255.893,236.941c2.51-2.196,5.533-3.069,9.072-2.62c3.584,0.492,6.606,2.172,9.07,5.037
		c2.508,2.867,3.74,6.093,3.695,9.676c0,3.584-1.277,6.473-3.83,8.667c-2.508,2.195-5.531,3.047-9.07,2.555
		c-3.539-0.449-6.562-2.106-9.071-4.973c-2.507-2.866-3.762-6.093-3.762-9.676C252.042,242.024,253.342,239.135,255.893,236.941"/>
	<path fill="#BFA56F" d="M264.83,260.256c-3.539-0.449-6.562-2.106-9.071-4.973c-1.97-2.24-3.157-4.726-3.561-7.459l0.74,0.874
		c2.507,2.868,5.531,4.524,9.069,4.972c3.539,0.492,6.562-0.358,9.071-2.553c1.521-1.3,2.598-2.934,3.226-4.904
		c0.627-1.882,0.782-3.875,0.469-5.98c2.151,2.823,3.136,5.913,2.957,9.271c-0.135,3.405-1.411,6.137-3.83,8.197
		C271.393,259.896,268.369,260.748,264.83,260.256"/>
	<path fill="#0D131A" d="M236.341,248.833c3.137-3.405,7.123-5.309,11.961-5.712c5.016-0.447,9.585,1.232,13.706,5.04
		c4.076,3.718,6.228,8.019,6.451,12.9c0.269,4.837-1.501,8.802-5.309,11.892c-3.047,2.51-6.159,3.785-9.339,3.83
		c-5.913,0.09-10.885-1.434-14.916-4.568c-4.211-3.314-6.45-7.614-6.72-12.9C231.996,255.462,233.387,251.969,236.341,248.833"/>
	<path fill="#E3C582" d="M241.247,270.534c-3.315-3-5.22-6.584-5.712-10.75c-0.447-4.21,0.65-7.771,3.293-10.683
		c2.598-2.911,6.023-4.345,10.279-4.301c4.21,0.045,7.974,1.568,11.288,4.569c3.315,3.002,5.195,6.586,5.644,10.751
		c0.492,4.21-0.582,7.771-3.225,10.682s-6.069,4.346-10.28,4.301C248.324,275.059,244.563,273.535,241.247,270.534"/>
	<path fill="#BFA56F" d="M266.173,261.935c-0.044,3.449-1.163,6.405-3.358,8.868c-2.643,2.911-6.069,4.346-10.28,4.301
		c-4.21-0.045-7.972-1.568-11.287-4.569c-2.957-2.598-4.793-5.8-5.509-9.607l2.686,3.023c3.315,3.002,7.078,4.523,11.289,4.568
		s7.637-1.388,10.28-4.3c2.956-3.271,3.986-7.211,3.09-11.824C265.144,255.35,266.173,258.531,266.173,261.935"/>
	<path fill="#0D131A" d="M218.605,286.929c-4.435-2.149-7.974-6.293-10.616-12.43c-1.881-4.39-1.948-9.048-0.201-13.975
		c1.881-5.376,5.509-9.229,10.884-11.558c5.913-2.553,12.161-2.598,18.746-0.134c6.584,2.418,11.132,6.539,13.639,12.362
		c2.106,4.883,2.018,9.943-0.269,15.185c-2.598,6.003-7.457,9.787-14.58,11.355C228.997,289.348,223.129,289.079,218.605,286.929"/>
	<path fill="#E3C582" d="M220.687,249.772c5.152-1.835,10.436-1.656,15.857,0.539c5.374,2.149,9.294,5.688,11.758,10.615
		c2.509,4.927,2.799,9.765,0.874,14.513c-1.928,4.792-5.466,8.107-10.617,9.944c-5.195,1.836-10.503,1.657-15.923-0.537
		c-5.42-2.195-9.362-5.734-11.825-10.616c-2.464-4.882-2.732-9.72-0.807-14.514C211.93,254.925,215.491,251.61,220.687,249.772"/>
	<path fill="#BFA56F" d="M248.973,262.339c1.793,4.479,1.859,8.845,0.203,13.101c-1.928,4.792-5.466,8.107-10.617,9.944
		c-5.195,1.836-10.503,1.657-15.923-0.537c-4.166-1.658-7.503-4.233-10.012-7.728c-2.463-3.405-3.74-7.055-3.829-10.952
		c1.075,2.645,2.665,4.995,4.77,7.055c2.195,2.151,4.749,3.808,7.66,4.972c5.42,2.196,10.727,2.375,15.924,0.538
		c5.151-1.836,8.689-5.151,10.615-9.944C248.571,266.862,248.973,264.711,248.973,262.339"/>
	<path fill="#0D131A" d="M218.672,293.177c-8.018,0.134-14.356-2.104-19.015-6.718c-3.986-3.897-5.979-8.466-5.979-13.707
		c0-6.137,2.083-11.131,6.249-14.983c4.345-4.075,10.212-6.113,17.603-6.113c6.987,0,12.811,2.038,17.469,6.113
		c4.435,3.897,6.651,8.556,6.651,13.976c0,5.688-2.083,10.594-6.248,14.715C231.057,290.804,225.48,293.042,218.672,293.177"/>
	<path fill="#E3C582" d="M217.53,253.133c6.002,0,11.131,1.882,15.386,5.643c4.256,3.764,6.383,8.287,6.383,13.573
		s-2.127,9.811-6.383,13.572c-4.255,3.718-9.384,5.577-15.386,5.577c-6.002,0-11.108-1.859-15.319-5.577
		c-4.255-3.762-6.383-8.286-6.383-13.572s2.127-9.81,6.383-13.573C206.421,255.015,211.527,253.133,217.53,253.133"/>
	<path fill="#BFA56F" d="M235.066,260.993c2.821,3.404,4.232,7.189,4.232,11.355c0,5.286-2.127,9.811-6.383,13.572
		c-4.255,3.718-9.384,5.577-15.386,5.577c-5.196,0-9.81-1.456-13.841-4.367c-3.942-2.913-6.428-6.585-7.458-11.02
		c2.016,2.419,4.546,4.323,7.592,5.711c3.091,1.434,6.405,2.151,9.944,2.151c6.002,0,11.131-1.859,15.386-5.577
		c4.256-3.764,6.383-8.287,6.383-13.572C235.535,263.48,235.379,262.203,235.066,260.993"/>
	<path fill="#0D131A" d="M236.341,239.763c4.525,4.076,6.787,9.003,6.787,14.781c0,6.046-2.239,10.975-6.719,14.78
		c-4.39,3.764-9.988,5.667-16.797,5.712c-7.391,0.045-13.394-1.97-18.007-6.046c-4.39-3.897-6.584-8.734-6.584-14.515
		c0-6.136,2.352-11.196,7.055-15.184c4.568-3.852,10.19-5.778,16.864-5.778C225.883,233.514,231.683,235.597,236.341,239.763"/>
	<path fill="#E3C582" d="M218.94,235.059c6.002,0,11.108,1.883,15.318,5.646c4.256,3.717,6.384,8.218,6.384,13.503
		c0,5.286-2.128,9.811-6.384,13.573c-4.21,3.762-9.315,5.645-15.318,5.645c-6.001,0-11.13-1.883-15.386-5.645
		c-4.255-3.718-6.383-8.242-6.383-13.573c0-5.285,2.128-9.786,6.383-13.503C207.81,236.941,212.939,235.059,218.94,235.059"/>
	<path fill="#BFA56F" d="M240.642,254.207c0,5.286-2.128,9.811-6.384,13.573c-4.21,3.762-9.315,5.645-15.318,5.645
		c-4.927,0-9.361-1.322-13.303-3.966c-3.808-2.642-6.36-6.001-7.659-10.077c2.016,2.284,4.501,4.099,7.458,5.442
		c3.091,1.343,6.338,2.015,9.742,2.015c6.002,0,11.108-1.88,15.319-5.644c4.255-3.763,6.383-8.286,6.383-13.571
		c0-1.748-0.269-3.472-0.808-5.175C239.119,245.944,240.642,249.862,240.642,254.207"/>
	<path fill="#0D131A" d="M214.842,207.579c8.197,0,15.185,2.687,20.962,8.062c5.152,4.794,7.728,9.854,7.728,15.186
		c0,7.167-2.776,13.214-8.332,18.141c-5.51,4.972-12.25,7.458-20.223,7.458c-7.346,0-13.774-2.194-19.283-6.584
		c-5.913-4.747-8.87-10.661-8.87-17.737c0-6.317,2.442-11.848,7.324-16.597C199.523,210.222,206.421,207.579,214.842,207.579"/>
	<path fill="#E3C582" d="M189.445,232.104c0-6.228,2.486-11.535,7.458-15.925c5.017-4.39,11.042-6.584,18.074-6.584
		c7.032,0,13.034,2.194,18.006,6.584c4.973,4.39,7.459,9.697,7.459,15.925c0,6.226-2.486,11.534-7.459,15.924
		c-4.972,4.39-10.974,6.584-18.006,6.584c-7.033,0-13.058-2.194-18.074-6.584C191.93,243.638,189.445,238.329,189.445,232.104"/>
	<path fill="#BFA56F" d="M212.557,232.304l-13.438-0.671c-4.21-0.851-7.301-2.105-9.272-3.764c1.165-5.24,4.077-9.585,8.735-13.034
		c4.748-3.495,10.213-5.24,16.395-5.24c4.434,0,8.577,0.94,12.43,2.821c3.717,1.837,6.741,4.345,9.069,7.524
		C232.267,227.153,224.293,231.274,212.557,232.304"/>
	<path fill="#BFA56F" d="M239.5,225.921c0.628,2.017,0.941,4.076,0.941,6.183c0,6.226-2.486,11.534-7.459,15.924
		c-4.972,4.39-10.974,6.584-18.006,6.584c-5.421,0-10.348-1.366-14.782-4.099c-4.3-2.733-7.369-6.271-9.206-10.616
		c2.419,2.464,5.264,4.39,8.533,5.779c3.449,1.432,7.078,2.148,10.885,2.148c7.57,0,13.751-1.589,18.544-4.769
		C234.551,239.382,238.067,233.671,239.5,225.921"/>
	<path fill="#0D131A" d="M229.49,229.887c0-2.286,0.828-4.301,2.486-6.049c1.656-1.746,3.56-2.62,5.711-2.62
		c2.283,0,4.276,0.829,5.979,2.486c1.702,1.702,2.553,3.673,2.553,5.912c0,2.285-0.828,4.278-2.486,5.98
		c-1.656,1.702-3.539,2.553-5.643,2.553c-2.912,0-5.152-0.964-6.721-2.889C230.116,233.737,229.49,231.945,229.49,229.887"/>
	<path fill="#E8528D" d="M237.687,236.807c-1.838,0-3.384-0.695-4.637-2.083c-1.299-1.389-1.949-3.069-1.949-5.04
		c0-1.925,0.65-3.584,1.949-4.972c1.298-1.389,2.844-2.083,4.637-2.083c1.836,0,3.381,0.694,4.635,2.083
		c1.3,1.388,1.948,3.047,1.948,4.972c0,1.971-0.648,3.651-1.948,5.04C241.068,236.111,239.523,236.807,237.687,236.807"/>
	<path fill="#F3B3C9" d="M236.141,227.399l-1.276,0.738c-0.448,0.045-0.83-0.065-1.144-0.334c-0.269-0.27-0.357-0.628-0.269-1.076
		c0.09-0.493,0.313-0.941,0.672-1.344c0.404-0.358,0.852-0.582,1.346-0.672l1.074,0.269c0.269,0.313,0.358,0.695,0.269,1.144
		L236.141,227.399"/>
	<path fill="#C9467C" d="M242.39,226.862c0-0.941-0.158-1.792-0.472-2.553c1.568,1.343,2.352,3.135,2.352,5.374
		c0,1.971-0.648,3.651-1.948,5.04c-1.254,1.388-2.799,2.083-4.635,2.083c-1.346,0-2.576-0.427-3.697-1.277
		c-1.119-0.806-1.925-1.881-2.417-3.226c1.209,1.12,2.62,1.68,4.231,1.68c1.838,0,3.383-0.693,4.638-2.082
		C241.74,230.514,242.39,228.833,242.39,226.862"/>
	<path fill="#0D131A" d="M230.094,260.256c0.447-2.241,1.657-3.942,3.627-5.107c1.794-1.12,3.674-1.479,5.645-1.075
		c2.061,0.402,3.674,1.522,4.839,3.359c1.164,1.882,1.521,3.942,1.074,6.182c-0.402,1.837-1.456,3.338-3.157,4.502
		c-1.838,1.208-3.853,1.59-6.049,1.143c-2.238-0.492-3.918-1.657-5.038-3.494C230.003,264.062,229.69,262.226,230.094,260.256"/>
	<path fill="#E8528D" d="M236.341,267.981c-1.611-0.313-2.864-1.208-3.761-2.688c-0.853-1.478-1.098-3.067-0.739-4.769
		c0.313-1.749,1.164-3.114,2.553-4.1c1.39-0.985,2.889-1.321,4.502-1.008c1.611,0.359,2.866,1.255,3.763,2.688
		c0.851,1.479,1.097,3.069,0.738,4.771c-0.312,1.746-1.165,3.112-2.553,4.097C239.455,267.959,237.955,268.295,236.341,267.981"/>
	<path fill="#F3B3C9" d="M236.678,259.382l-2.217-0.067c-0.224-0.313-0.247-0.673-0.067-1.076c0.135-0.402,0.426-0.738,0.873-1.007
		c0.403-0.269,0.806-0.381,1.209-0.336c0.449,0,0.763,0.157,0.941,0.47c0.225,0.27,0.246,0.604,0.067,1.008L236.678,259.382"/>
	<path fill="#C9467C" d="M242.256,260.053l0.065-2.352c1.12,1.568,1.479,3.292,1.075,5.175c-0.312,1.746-1.165,3.112-2.553,4.097
		c-1.389,0.986-2.889,1.322-4.503,1.009c-1.208-0.269-2.238-0.874-3.09-1.814c-0.806-0.939-1.3-2.038-1.479-3.291
		c0.852,1.164,1.993,1.925,3.427,2.283c1.568,0.314,3.046-0.021,4.435-1.008C241.068,263.121,241.943,261.755,242.256,260.053"/>
	<path fill="#0D131A" d="M230.43,284.174c1.253-1.299,2.821-1.97,4.703-2.015c1.881-0.045,3.56,0.604,5.04,1.948
		c1.388,1.209,2.172,2.755,2.352,4.635c0.179,1.883-0.313,3.427-1.479,4.637c-1.255,1.344-2.936,1.97-5.039,1.881
		c-2.018-0.045-3.629-0.672-4.837-1.881c-1.391-1.344-2.173-2.867-2.354-4.568C228.638,287.063,229.176,285.518,230.43,284.174"/>
	<path fill="#E8528D" d="M232.176,292.371c-1.119-0.985-1.724-2.173-1.813-3.561c-0.09-1.389,0.358-2.599,1.345-3.629
		c0.984-1.029,2.217-1.567,3.694-1.612c1.434-0.09,2.709,0.359,3.83,1.344c1.12,0.985,1.725,2.173,1.814,3.561
		c0.089,1.434-0.36,2.644-1.345,3.629c-0.984,1.029-2.194,1.567-3.629,1.612C234.596,293.76,233.297,293.311,232.176,292.371"/>
	<path fill="#F3B3C9" d="M235.939,286.594l-1.142-0.338c-0.313-0.179-0.494-0.425-0.539-0.738c-0.044-0.313,0.09-0.56,0.404-0.738
		c0.269-0.224,0.604-0.313,1.008-0.269l1.143,0.336l0.537,0.671l-0.402,0.738L235.939,286.594"/>
	<path fill="#C9467C" d="M240.979,288.004c0.269,1.522-0.158,2.89-1.277,4.099c-0.984,1.029-2.194,1.567-3.629,1.612
		c-1.477,0.045-2.775-0.404-3.896-1.344c-0.851-0.717-1.388-1.591-1.612-2.62c-0.269-1.03-0.224-2.016,0.135-2.957
		c0.134,1.165,0.716,2.195,1.747,3.091c1.12,0.94,2.419,1.39,3.896,1.345c1.436-0.046,2.645-0.584,3.629-1.613
		C240.462,289.169,240.799,288.632,240.979,288.004"/>
	<path fill="#0D131A" d="M245.816,273.559c1.343-0.852,2.868-1.143,4.568-0.874c1.748,0.269,3.182,1.098,4.301,2.485
		c0.984,1.21,1.411,2.62,1.277,4.233c-0.135,1.702-0.92,3.024-2.352,3.964c-1.21,0.762-2.733,0.985-4.569,0.672
		c-1.793-0.313-3.136-1.007-4.031-2.083c-0.986-1.208-1.479-2.598-1.479-4.166C243.531,275.955,244.294,274.544,245.816,273.559"/>
	<path fill="#C9467C" d="M251.997,274.499l1.479,1.209c0.806,1.03,1.119,2.127,0.94,3.292c-0.18,1.21-0.785,2.15-1.814,2.822
		c-1.029,0.671-2.218,0.896-3.561,0.671c-1.299-0.224-2.352-0.851-3.158-1.88l-0.403-0.672c0.808,0.493,1.679,0.739,2.62,0.739
		c0.986,0,1.859-0.246,2.622-0.739c0.939-0.583,1.521-1.411,1.745-2.485C252.692,276.425,252.534,275.439,251.997,274.499"/>
	<path fill="#E8528D" d="M250.722,279.941c-0.763,0.493-1.636,0.739-2.622,0.739c-0.941,0-1.812-0.246-2.62-0.739
		c-0.538-0.941-0.693-1.927-0.47-2.957c0.224-1.074,0.806-1.903,1.746-2.485c0.762-0.492,1.635-0.74,2.62-0.74
		c0.941,0,1.814,0.248,2.621,0.74c0.537,0.94,0.694,1.926,0.47,2.957C252.243,278.53,251.661,279.358,250.722,279.941"/>
	<path fill="#F3B3C9" d="M249.176,276.179l-0.941,0.336l-0.806-0.336c-0.136-0.179-0.136-0.402,0-0.671
		c0.089-0.313,0.291-0.562,0.604-0.74c0.357-0.224,0.694-0.336,1.008-0.336l0.739,0.269
		C250.138,275.148,249.937,275.642,249.176,276.179"/>
	<path fill="#0D131A" d="M266.78,261.195c1.521,0.358,2.754,1.144,3.694,2.352c0.985,1.254,1.366,2.598,1.143,4.032
		c-0.179,1.298-0.896,2.329-2.15,3.09c-1.389,0.852-3,1.12-4.837,0.807c-1.479-0.269-2.643-1.03-3.494-2.285
		c-0.717-1.164-1.008-2.352-0.873-3.561c0.134-1.389,0.828-2.554,2.083-3.494C263.643,261.151,265.121,260.838,266.78,261.195"/>
	<path fill="#C9467C" d="M266.71,267.848c0.853-0.537,1.391-1.277,1.614-2.218c0.18-0.896,0.021-1.77-0.471-2.62
		c0.582,0.313,1.029,0.672,1.344,1.074c0.717,0.896,1.008,1.882,0.873,2.958c-0.179,1.074-0.716,1.903-1.611,2.485
		c-0.941,0.627-2.018,0.828-3.226,0.604c-1.164-0.224-2.105-0.783-2.823-1.681l-0.402-0.537
		C263.711,268.855,265.279,268.832,266.71,267.848"/>
	<path fill="#E8528D" d="M266.71,267.848c-1.432,0.984-2.999,1.008-4.702,0.066c-0.493-0.896-0.627-1.792-0.403-2.687
		c0.224-0.941,0.761-1.681,1.613-2.218c0.673-0.447,1.434-0.671,2.284-0.671s1.635,0.224,2.352,0.671
		c0.492,0.851,0.65,1.725,0.471,2.62C268.101,266.57,267.563,267.311,266.71,267.848"/>
	<path fill="#F3B3C9" d="M265.367,264.487c-0.761,0.403-1.277,0.403-1.546,0c-0.312-0.403-0.134-0.828,0.537-1.275l0.875-0.336
		l0.671,0.269C266.263,263.592,266.084,264.04,265.367,264.487"/>
	<path fill="#0D131A" d="M278.134,243.658c1.567,0.226,2.799,0.874,3.694,1.949c0.852,0.985,1.256,2.082,1.211,3.292
		c-0.045,1.255-0.74,2.285-2.083,3.091c-1.255,0.762-2.621,0.986-4.1,0.673c-1.433-0.315-2.53-0.963-3.292-1.949
		c-0.671-0.852-0.984-1.792-0.939-2.821c0.044-1.434,0.738-2.555,2.082-3.36C275.871,243.816,277.015,243.524,278.134,243.658"/>
	<path fill="#C9467C" d="M280.619,246.011c0.716,0.762,1.029,1.635,0.94,2.62c-0.09,0.941-0.537,1.726-1.344,2.352
		c-0.806,0.584-1.747,0.808-2.822,0.673c-1.029-0.134-1.902-0.583-2.62-1.344l-0.403-0.471c1.613,0.717,3.023,0.604,4.234-0.337
		c0.717-0.537,1.142-1.23,1.276-2.083c0.134-0.806-0.045-1.59-0.539-2.352C279.836,245.294,280.261,245.607,280.619,246.011"/>
	<path fill="#E8528D" d="M275.176,245.338c0.584-0.447,1.257-0.693,2.018-0.738l2.148,0.47c0.494,0.762,0.673,1.546,0.539,2.352
		c-0.135,0.853-0.56,1.546-1.276,2.083c-1.211,0.941-2.621,1.054-4.234,0.337c-0.492-0.762-0.648-1.567-0.47-2.42
		C274.035,246.57,274.46,245.876,275.176,245.338"/>
	<path fill="#F3B3C9" d="M277.194,246.549l-1.411,0.134c-0.313-0.313-0.18-0.716,0.402-1.21l1.411-0.135
		C277.909,245.741,277.776,246.146,277.194,246.549"/>
	<path fill="#0D131A" d="M179.971,236.201c0-2.509,0.918-4.613,2.755-6.314c1.702-1.614,3.628-2.42,5.778-2.42
		c2.239,0,4.166,0.851,5.778,2.554c1.613,1.701,2.419,3.694,2.419,5.979c0.044,2.373-0.717,4.39-2.285,6.047
		c-1.612,1.702-3.628,2.553-6.046,2.553c-1.748,0-3.427-0.56-5.04-1.679C181.091,241.352,179.971,239.113,179.971,236.201"/>
	<path fill="#E8528D" d="M188.37,243.056c-1.837,0-3.382-0.695-4.636-2.083c-1.299-1.39-1.948-3.069-1.948-5.04
		c0-1.927,0.649-3.584,1.948-4.972c1.299-1.389,2.844-2.083,4.636-2.083c1.836,0,3.381,0.694,4.636,2.083
		c1.299,1.388,1.948,3.045,1.948,4.972c0,1.971-0.649,3.65-1.948,5.04C191.751,242.36,190.206,243.056,188.37,243.056"/>
	<path fill="#F3B3C9" d="M186.757,233.648l-1.276,0.673c-0.448,0.089-0.806,0-1.075-0.271c-0.269-0.313-0.358-0.693-0.269-1.142
		c0.044-0.492,0.269-0.919,0.672-1.276c0.358-0.403,0.783-0.627,1.276-0.672l1.075,0.269c0.313,0.269,0.425,0.649,0.336,1.143
		L186.757,233.648"/>
	<path fill="#C9467C" d="M188.37,243.056c-1.389,0-2.644-0.427-3.763-1.277c-1.075-0.806-1.858-1.882-2.352-3.226
		c1.254,1.12,2.666,1.68,4.233,1.68c1.837,0,3.382-0.693,4.636-2.083c1.299-1.388,1.948-3.067,1.948-5.038l-0.47-2.622
		c1.567,1.479,2.351,3.293,2.351,5.443c0,1.971-0.649,3.65-1.948,5.04C191.751,242.36,190.206,243.056,188.37,243.056"/>
	<path fill="#0D131A" d="M190.721,266.973c-0.403-2.104,0.045-4.097,1.344-5.979c1.299-1.925,3.001-3.09,5.106-3.493
		c1.882-0.358,3.718,0.135,5.51,1.479c1.792,1.298,2.889,2.956,3.292,4.972c0.403,1.971,0.067,3.808-1.008,5.509
		c-1.12,1.838-2.732,2.957-4.837,3.36c-2.329,0.492-4.412,0.111-6.249-1.144C192.177,270.512,191.124,268.945,190.721,266.973"/>
	<path fill="#E8528D" d="M199.657,271.542c-1.612,0.314-3.091-0.045-4.434-1.074c-1.344-0.985-2.195-2.352-2.553-4.099
		c-0.313-1.703-0.045-3.27,0.807-4.703c0.895-1.434,2.15-2.329,3.762-2.688c1.613-0.313,3.113,0.045,4.501,1.074
		c1.389,0.986,2.24,2.352,2.554,4.099c0.358,1.702,0.067,3.293-0.874,4.771C202.524,270.355,201.27,271.229,199.657,271.542"/>
	<path fill="#F3B3C9" d="M196.701,263.48c-0.672,0.941-1.367,1.21-2.083,0.806c-0.314-0.18-0.471-0.493-0.471-0.94
		c0-0.449,0.134-0.873,0.403-1.277c0.269-0.402,0.604-0.671,1.008-0.806l1.075,0.067l0.47,0.94L196.701,263.48"/>
	<path fill="#C9467C" d="M202.143,262.002c-0.224-0.985-0.515-1.726-0.874-2.218c1.612,0.94,2.62,2.396,3.024,4.367
		c0.358,1.702,0.067,3.293-0.874,4.771c-0.896,1.434-2.15,2.307-3.763,2.62l-3.494-0.469c-1.12-0.539-2.016-1.345-2.687-2.42
		c1.343,0.761,2.687,1.009,4.031,0.739c1.613-0.312,2.867-1.21,3.763-2.688C202.211,265.272,202.502,263.704,202.143,262.002"/>
	<path fill="#0D131A" d="M192.065,290.288c-0.358-1.612-0.067-3.157,0.874-4.636c1.075-1.613,2.621-2.598,4.636-2.956
		c1.926-0.313,3.696,0.022,5.308,1.007c1.523,0.986,2.464,2.284,2.822,3.897c0.448,1.882,0.089,3.562-1.075,5.039
		c-1.12,1.344-2.598,2.172-4.434,2.485c-2.105,0.358-3.92,0.045-5.442-0.94C193.319,293.29,192.424,291.99,192.065,290.288"/>
	<path fill="#E8528D" d="M199.859,293.85c-1.433,0.224-2.777-0.045-4.031-0.808c-1.209-0.806-1.971-1.903-2.285-3.291
		c-0.314-1.388-0.044-2.665,0.806-3.83c0.807-1.164,1.926-1.858,3.359-2.082c1.434-0.27,2.778,0,4.032,0.806
		c1.209,0.806,1.971,1.904,2.284,3.292c0.314,1.389,0.067,2.644-0.738,3.763C202.434,292.863,201.292,293.581,199.859,293.85"/>
	<path fill="#F3B3C9" d="M197.171,287.399l-0.874,0.671l-0.94-0.066c-0.269-0.18-0.403-0.426-0.403-0.739
		c-0.044-0.358,0.067-0.695,0.336-1.009l0.874-0.671l0.941,0.067l0.47,0.738L197.171,287.399"/>
	<path fill="#C9467C" d="M203.286,291.699c-0.852,1.164-1.994,1.882-3.427,2.15l-3.157-0.403c-0.986-0.404-1.77-1.053-2.353-1.948
		c1.075,0.627,2.285,0.828,3.629,0.604c1.433-0.225,2.553-0.919,3.359-2.083c0.806-1.164,1.053-2.441,0.739-3.829l-0.739-1.814
		c1.433,0.806,2.329,1.993,2.687,3.561C204.338,289.325,204.092,290.58,203.286,291.699"/>
	<path fill="#0D131A" d="M251.124,177.008c2.148,11.243,0.021,21.41-6.383,30.503c-6.406,9.093-15.654,15.006-27.75,17.737
		c-12.9,2.868-24.479,1.188-34.736-5.038c-9.81-5.958-15.946-14.424-18.41-25.398c-2.195-10.033-0.358-19.664,5.51-28.891
		c6.629-10.302,16.73-16.886,30.302-19.753c12.453-2.598,23.762-0.65,33.93,5.845C243.263,158.195,249.108,166.527,251.124,177.008"
		/>
	<path fill="#E3C582" d="M231.439,153.425c9.45,5.823,15.183,13.976,17.2,24.457c1.97,10.437-0.337,20.134-6.922,29.093
		c-6.629,8.914-15.609,14.467-26.942,16.663c-11.333,2.193-21.747,0.358-31.243-5.51c-9.451-5.868-15.185-14.02-17.2-24.457
		c-2.015-10.437,0.292-20.134,6.921-29.093c6.584-8.914,15.565-14.468,26.943-16.663
		C211.572,145.72,221.986,147.557,231.439,153.425"/>
	<path fill="#BFA56F" d="M228.146,151.611c5.331,2.643,9.765,6.204,13.303,10.683c3.672,4.613,6.069,9.81,7.19,15.587
		c1.97,10.437-0.337,20.134-6.922,29.093c-6.629,8.914-15.609,14.467-26.942,16.663c-6.853,1.298-13.572,1.074-20.156-0.673
		c-6.361-1.747-11.915-4.747-16.663-9.003c8.779,4.39,18.119,5.621,28.018,3.696c11.333-2.196,20.313-7.75,26.942-16.664
		c6.585-8.958,8.869-18.657,6.854-29.093C238.245,163.884,234.371,157.12,228.146,151.611"/>
	<path fill="#0D131A" d="M187.227,195.418c-0.761-3.987,0.403-8.041,3.494-12.162c3.494-4.524,8.287-7.369,14.378-8.532
		c5.913-1.166,11.333-0.426,16.26,2.217c4.749,2.598,7.525,6.091,8.331,10.481c0.852,4.524-0.379,8.824-3.694,12.9
		c-3.494,4.166-8.242,6.832-14.244,7.995c-5.017,0.941-9.9,0.427-14.647-1.545C191.505,204.443,188.213,200.659,187.227,195.418"/>
	<path fill="#E8528D" d="M211.348,206.503c-5.241,1.031-9.988,0.426-14.244-1.814c-4.255-2.239-6.786-5.419-7.592-9.541
		c-0.807-4.166,0.358-8.062,3.494-11.69c3.135-3.628,7.324-5.958,12.564-6.988c5.241-0.986,9.988-0.381,14.244,1.814
		c4.255,2.24,6.786,5.42,7.593,9.541c0.762,4.166-0.402,8.062-3.494,11.69C220.777,203.189,216.589,205.519,211.348,206.503"/>
	<path fill="#F3B3C9" d="M201.135,186.885c-1.389,0.672-2.688,0.941-3.897,0.807c-1.075-0.135-1.77-0.471-2.083-1.008
		c-0.358-0.761-0.179-1.635,0.538-2.62c0.716-0.986,1.702-1.792,2.956-2.419c1.344-0.672,2.643-0.94,3.897-0.806
		c1.12,0.134,1.837,0.515,2.15,1.142c0.358,0.806,0.246,1.635-0.336,2.486C203.689,185.406,202.614,186.213,201.135,186.885"/>
	<path fill="#C9467C" d="M211.348,206.503l-10.481-0.334c-3.225-0.896-5.868-2.42-7.928-4.57c3.987,1.657,8.287,2.06,12.9,1.21
		c5.241-0.986,9.429-3.315,12.564-6.988c3.091-3.628,4.255-7.525,3.494-11.691c-0.448-2.418-1.59-4.568-3.426-6.45
		c2.374,0.986,4.345,2.352,5.912,4.099c1.568,1.792,2.577,3.808,3.024,6.047c0.762,4.166-0.402,8.062-3.494,11.69
		C220.777,203.189,216.589,205.519,211.348,206.503"/>
	<path fill="#0D131A" d="M225.592,173.851c-1.299,0.224-2.508-0.022-3.628-0.739c-1.12-0.762-1.792-1.792-2.016-3.091
		c-0.269-1.299-0.022-2.508,0.739-3.628c0.761-1.12,1.792-1.792,3.091-2.016c1.299-0.269,2.508-0.022,3.628,0.739
		c1.119,0.762,1.791,1.792,2.015,3.091c0.269,1.299,0.023,2.509-0.738,3.628C227.922,172.91,226.891,173.581,225.592,173.851"/>
	<path fill="#FFFFFF" d="M223.576,169.416l-1.411-0.336c-0.448-0.269-0.717-0.649-0.806-1.142c-0.045-0.492,0.067-0.963,0.336-1.411
		l1.142-0.807c0.537-0.044,1.008,0.067,1.411,0.336c0.448,0.269,0.717,0.649,0.807,1.142l-0.336,1.412L223.576,169.416"/>
	<path fill="#0D131A" d="M179.904,177.68c-0.224-1.299,0.022-2.508,0.739-3.628c0.761-1.12,1.792-1.792,3.091-2.016
		c1.299-0.269,2.508-0.022,3.628,0.739c1.12,0.761,1.814,1.792,2.083,3.09c0.224,1.299-0.045,2.509-0.806,3.628
		c-0.717,1.075-1.725,1.747-3.024,2.016s-2.508,0.022-3.628-0.739C180.867,180.009,180.172,178.979,179.904,177.68"/>
	<path fill="#FFFFFF" d="M183.531,177.21l-1.343-0.269c-0.448-0.314-0.717-0.717-0.807-1.21c-0.089-0.493,0-0.963,0.27-1.411
		c0.313-0.447,0.716-0.717,1.209-0.806c0.493-0.045,0.963,0.067,1.411,0.336c0.403,0.269,0.649,0.649,0.739,1.142
		c0.089,0.492,0,0.963-0.27,1.411C184.427,176.851,184.025,177.12,183.531,177.21"/>
	<path fill="#0D131A" d="M207.653,128.498l9.742,16.797c0.716,1.389,1.075,2.508,1.075,3.359c0,0.941-0.426,1.792-1.277,2.554
		c-3.18,2.732-7.906,4.546-14.177,5.442c-6.226,0.896-11.243,0.515-15.05-1.142c-1.254-0.538-2.015-1.232-2.284-2.083
		c-0.269-0.806-0.269-2.351,0-4.636c0.493-4.3,1.68-10.056,3.562-17.268c1.746-6.719,3.314-11.825,4.703-15.319
		c0.941-2.418,1.658-3.673,2.15-3.762c0.538-0.089,1.567,0.873,3.09,2.889L207.653,128.498"/>
	<path fill="#CAD3CC" d="M195.491,117.21l0.806-1.881c0.269-0.089,0.807,0.471,1.613,1.68c4.031,5.958,9.653,15.476,16.864,28.555
		c0.806,1.479,1.12,2.598,0.94,3.36c-0.179,0.761-0.963,1.567-2.352,2.419c-2.822,1.791-6.428,3-10.817,3.628l-10.884-0.336
		c-1.747-0.448-2.845-0.918-3.292-1.411c-0.404-0.493-0.538-1.389-0.404-2.688c0.359-3.404,1.232-8.22,2.621-14.445
		C192.11,129.237,193.745,122.943,195.491,117.21"/>
	<path fill="#A6ADA8" d="M214.775,145.563c0.806,1.479,1.12,2.598,0.94,3.36c-0.179,0.761-0.963,1.567-2.352,2.419
		c-2.822,1.791-6.428,3-10.817,3.628l-10.884-0.336c-1.747-0.448-2.845-0.918-3.292-1.411c-0.404-0.493-0.538-1.389-0.404-2.688
		l0.27-2.284c0.94,1.075,2.956,1.769,6.046,2.083c3.135,0.269,6.114-0.022,8.937-0.874c7.57-2.374,9.361-7.346,5.375-14.916
		L214.775,145.563"/>
	<path fill="#0D131A" d="M283.711,229.55c1.388,0.224,2.485,0.829,3.291,1.813c0.761,0.851,1.119,1.814,1.074,2.889
		c-0.045,1.166-0.671,2.107-1.88,2.823c-1.119,0.672-2.352,0.873-3.695,0.604c-1.255-0.269-2.24-0.852-2.956-1.747
		c-0.582-0.806-0.851-1.656-0.806-2.553c0.045-1.255,0.647-2.263,1.812-3.024C281.628,229.684,282.68,229.415,283.711,229.55"/>
	<path fill="#C9467C" d="M283.039,236.738c-0.986-0.09-1.793-0.492-2.42-1.209l-0.336-0.402c1.39,0.716,2.666,0.626,3.83-0.269
		c0.627-0.448,1.009-1.076,1.143-1.882c0.135-0.763-0.023-1.479-0.471-2.15l1.143,0.873c0.627,0.673,0.896,1.456,0.806,2.352
		c-0.09,0.852-0.492,1.546-1.209,2.083C284.808,236.673,283.98,236.872,283.039,236.738"/>
	<path fill="#E8528D" d="M284.114,234.858c-1.164,0.895-2.44,0.984-3.83,0.269c-0.447-0.672-0.604-1.39-0.47-2.15
		c0.134-0.807,0.515-1.434,1.143-1.882c1.209-0.851,2.486-0.939,3.829-0.269c0.447,0.672,0.605,1.388,0.471,2.15
		C285.122,233.782,284.74,234.41,284.114,234.858"/>
	<path fill="#F3B3C9" d="M282.836,232.17l-1.276,0.134c-0.313-0.313-0.18-0.671,0.404-1.074l0.671-0.269l0.539,0.134
		C283.487,231.408,283.373,231.767,282.836,232.17"/>
</g>
</svg>
