<?xml version="1.0" encoding="utf-8"?>
<!-- Generator: Adobe Illustrator 16.0.0, SVG Export Plug-In . SVG Version: 6.00 Build 0)  -->
<!DOCTYPE svg PUBLIC "-//W3C//DTD SVG 1.1//EN" "http://www.w3.org/Graphics/SVG/1.1/DTD/svg11.dtd">
<svg version="1.1" id="Layer_1" xmlns="http://www.w3.org/2000/svg" xmlns:xlink="http://www.w3.org/1999/xlink" x="0px" y="0px"
	 width="456px" height="415px" viewBox="0 0 456 415" enable-background="new 0 0 456 415" xml:space="preserve">
<g>
	<path fill="#0D131A" d="M187.457,317.461c3.481,2.548,5.401,5.114,5.76,7.698c0.467,3.66-1.956,7.682-7.268,12.061
		c-2.835,2.331-7.286,4.736-13.352,7.213c-6.209,2.548-12.615,4.558-19.22,6.029c-16.474,3.662-26.793,2.746-30.957-2.744
		c-3.589-4.703-1.722-9.961,5.599-15.775c5.779-4.594,13.37-8.577,22.773-11.952c5.635-2.01,12.329-3.373,20.082-4.091
		C179.381,315.073,184.908,315.595,187.457,317.461"/>
	<path fill="#D08690" d="M187.08,321.769c3.158,3.804,2.423,7.787-2.208,11.95c-3.84,3.446-9.368,6.335-16.582,8.669
		c-8.363,2.727-15.182,4.54-20.458,5.438c-8.362,1.435-14.698,1.094-19.004-1.023h1.884c13.603,0,25.196-2.531,34.779-7.592
		c9.619-5.097,14.429-11.233,14.429-18.412l-0.216-2.477C183.078,318.717,185.537,319.865,187.08,321.769"/>
	<path fill="#F09BA5" d="M179.704,318.321l0.216,2.477c0,7.179-4.81,13.315-14.429,18.412c-9.583,5.061-21.176,7.592-34.779,7.592
		h-1.884l-1.454-0.808c-4.164-2.691-2.943-6.748,3.661-12.167c5.635-4.667,11.054-7.717,16.259-9.153l15.559-4.414
		C169.996,318.501,175.613,317.855,179.704,318.321"/>
	<path fill="#0D131A" d="M287.917,315.953c7.681,0.754,14.357,2.153,20.028,4.199c9.439,3.338,17.102,7.322,22.988,11.952
		c7.429,5.85,9.242,11.054,5.438,15.613c-4.056,4.809-13.083,6.047-27.08,3.714c-12.814-2.153-23.653-5.922-32.518-11.307
		c-6.892-4.162-10.427-8.56-10.606-13.188c-0.144-3.662,1.614-6.82,5.276-9.476C273.991,315.595,279.483,315.092,287.917,315.953"/>
	<path fill="#D08690" d="M271.443,321.769c1.579-1.903,4.056-3.052,7.43-3.447l-0.216,2.477c0,7.179,4.81,13.315,14.428,18.412
		c9.584,5.061,21.177,7.592,34.778,7.592h1.886c-4.308,2.117-10.643,2.458-19.006,1.023c-5.275-0.897-12.095-2.711-20.457-5.438
		c-7.214-2.334-12.741-5.223-16.582-8.669C269.073,329.556,268.32,325.572,271.443,321.769"/>
	<path fill="#F09BA5" d="M278.657,320.798l0.216-2.477c4.091-0.466,9.708,0.18,16.851,1.938l15.559,4.414
		c5.204,1.437,10.624,4.486,16.26,9.153c6.603,5.419,7.823,9.476,3.661,12.167l-1.454,0.808h-1.886
		c-13.602,0-25.194-2.531-34.778-7.592C283.467,334.113,278.657,327.977,278.657,320.798"/>
	<path fill="#0D131A" d="M357.529,87.683c1.363,2.835-0.575,6.586-5.814,11.252c-1.724,1.543-4.129,2.782-7.216,3.715
		c-3.337,1.042-6.711,1.472-10.121,1.292c11.558,4.487,20.548,7.556,26.974,9.206c5.168,1.329,7.805,4.164,7.914,8.506
		c0.106,4.415-2.638,7.161-8.237,8.238l-8.775,0.592l-9.745-1.131l7.321,5.007l5.977,4.737c1.866,1.794,2.943,4.056,3.229,6.784
		c0.253,2.656-0.305,4.773-1.668,6.353c-1.615,1.831-3.518,2.979-5.707,3.446c-2.226,0.467-4.558,0.197-6.999-0.808l3.177,6.03
		c2.584,5.168,4.936,10.534,7.053,16.097c6.819,17.874,10.229,34.581,10.229,50.123c0,39.301-13.281,68.769-39.841,88.4
		c-23.4,17.335-55.397,26.003-95.99,26.003c-38.943,0-70.348-8.523-94.215-25.572c-27.888-19.955-41.832-49.584-41.832-88.886
		c0-15.505,3.625-32.266,10.875-50.283c2.262-5.635,4.756-11.055,7.484-16.259l3.391-6.084c-2.296,1.005-4.612,1.436-6.945,1.292
		c-2.656-0.179-4.863-1.095-6.622-2.746c-1.615-1.543-2.333-3.607-2.153-6.191c0.179-2.692,1.292-5.115,3.337-7.268
		c1.615-1.687,3.84-3.536,6.676-5.546c2.656-1.902,4.881-3.284,6.676-4.145c-7.179,1.364-13.496,1.364-18.951,0
		c-5.85-1.436-8.524-4.271-8.021-8.506c0.502-4.164,3.625-6.981,9.368-8.452c5.276-1.364,13.71-4.11,25.303-8.237l-6.138-0.915
		c-4.773-1.185-8.775-3.194-12.005-6.03c-3.589-3.195-4.792-6.299-3.607-9.314c1.221-3.051,4.343-4.396,9.368-4.038
		c6.819,0.502,15.326,0.071,25.519-1.292c12.777-1.723,22.378-4.469,28.803-8.237c1.543-0.897,4.702-3.284,9.475-7.161
		c5.025-4.02,9.404-7.178,13.136-9.475c12.85-7.932,27.062-11.898,42.64-11.898c15.325,0,29.017,3.804,41.076,11.414
		c3.626,2.261,7.826,5.383,12.599,9.367c4.81,4.056,7.985,6.568,9.529,7.537c6.209,4.021,15.595,6.874,28.157,8.56
		c9.726,1.329,18.124,1.723,25.195,1.185C352.935,83.951,356.309,85.063,357.529,87.683"/>
	<path fill="#F6C8D6" d="M322.857,85.691l3.931,0.485c1.328,2.082,1.991,4.307,1.991,6.675c0,1.651-0.896,4.002-2.691,7.053
		c-4.199-1.723-10.176-4.954-17.929-9.691c-1.399-0.861-2.261-1.221-2.584-1.077c-0.322,0.108,0.144,0.772,1.399,1.992
		c1.616,1.615,4.344,3.589,8.184,5.922c5.349,3.23,11.952,6.55,19.812,9.96c0.683,1.579,1.023,3.212,1.023,4.899
		c0,1.579-0.377,3.194-1.131,4.845c-0.719,1.579-1.634,2.925-2.746,4.038c-7.179-5.527-13.064-10.947-17.658-16.259
		c-1.437-1.651-2.44-2.423-3.015-2.315c-0.574,0.072-0.019,1.292,1.669,3.661c1.579,2.226,3.966,4.936,7.16,8.13
		c3.409,3.41,7.07,6.693,10.982,9.852c-0.144,2.728-1.237,5.133-3.284,7.214c-1.938,2.01-4.306,3.284-7.106,3.822l-6.46-5.276
		l-3.983-3.392c-1.724-1.866-2.926-2.746-3.608-2.638c-0.682,0.107,0.019,1.418,2.1,3.93c1.938,2.297,5.779,5.958,11.521,10.982
		c7.717,6.784,14.5,11.844,20.351,15.182l6.676,13.352c4.952,11.306,8.614,22.953,10.983,34.94
		c1.435,19.632-1.096,37.792-7.592,54.484c-6.138,15.72-15.487,29.394-28.05,41.023c-12.095,11.233-26.38,19.866-42.854,25.895
		c-16.438,6.031-33.846,9.045-52.222,9.045c-25.985,0-49.082-4.36-69.288-13.083c-21.284-9.187-37.991-22.683-50.123-40.485
		c-7.322-14.068-10.983-31.081-10.983-51.037c0-15.685,3.625-32.912,10.875-51.683c2.226-5.887,4.702-11.558,7.429-17.013
		l3.392-6.46c5.994-3.41,12.544-8.273,19.65-14.59c5.743-5.061,9.332-8.596,10.768-10.606c2.118-3.05,2.764-4.486,1.938-4.307
		c-0.753,0.144-2.063,1.22-3.93,3.23c-1.902,1.974-5.222,4.953-9.96,8.937c-2.728-0.502-5.061-1.812-6.999-3.93
		c-1.975-2.153-3.033-4.612-3.177-7.375c3.732-3.015,7.375-6.371,10.929-10.067c2.979-3.158,5.33-5.94,7.052-8.345
		c1.723-2.369,2.154-3.571,1.292-3.607c-0.862-0.036-1.957,0.808-3.284,2.531c-5.097,6.496-10.534,11.988-16.313,16.474
		c-1.184-1.22-2.189-2.602-3.015-4.145c-0.934-1.794-1.4-3.446-1.4-4.953c0-1.687,0.341-3.32,1.023-4.899
		c7.825-3.374,14.356-6.694,19.597-9.96c3.661-2.261,6.353-4.252,8.076-5.976c1.22-1.22,1.561-1.884,1.023-1.992
		c-0.539-0.144-1.49,0.251-2.854,1.185c-3.481,2.44-6.837,4.504-10.067,6.191c-2.046,1.077-4.468,2.189-7.268,3.338
		c-1.543-2.62-2.315-4.935-2.315-6.945c0-2.369,0.664-4.594,1.992-6.675l3.876-0.485c7.824-1.041,14.321-2.35,19.489-3.929
		c4.666-1.4,8.775-3.213,12.329-5.438l10.499-7.591c4.917-3.733,9.224-6.658,12.92-8.776c11.916-6.819,25.322-10.229,40.217-10.229
		c15.146,0,28.82,3.822,41.023,11.467c3.553,2.189,7.573,5.151,12.061,8.884c4.234,3.481,6.943,5.563,8.129,6.245
		c4.02,2.297,7.932,4.074,11.737,5.33C309.13,83.376,315.392,84.722,322.857,85.691"/>
	<path fill="#D5ADBA" d="M350.853,256.464c6.496-16.691,9.026-34.852,7.592-54.484c1.866,9.224,2.799,17.837,2.799,25.841
		c0,38.511-13.459,67.135-40.378,85.871c-22.684,15.756-53.209,23.635-91.576,23.635c-27.134,0-51.056-4.648-71.766-13.945
		c-22.719-10.229-39.122-25.069-49.207-44.523c12.131,17.803,28.839,31.299,50.123,40.485c20.207,8.723,43.303,13.083,69.288,13.083
		c18.376,0,35.784-3.014,52.222-9.045c16.474-6.028,30.759-14.661,42.854-25.895C335.365,285.857,344.715,272.184,350.853,256.464"
		/>
	<path fill="#F09BA5" d="M127.321,124.023c0.144,2.764,1.202,5.222,3.177,7.375c1.938,2.118,4.271,3.428,6.999,3.93
		c-3.087,2.584-8.147,6.317-15.182,11.198c-4.702,3.23-8.686,5.061-11.952,5.492c-2.404,0.287-4.342-0.215-5.814-1.508
		c-1.399-1.256-1.991-2.799-1.776-4.63c0.18-1.866,1.13-3.715,2.854-5.545c1.292-1.364,3.176-2.926,5.653-4.684l11.037-7.806
		L127.321,124.023"/>
	<path fill="#F09BA5" d="M123.983,116.863c0.826,1.543,1.831,2.925,3.015,4.145c-3.481,2.728-6.479,4.738-8.99,6.03l-10.229,1.185
		c-4.378,0.144-7.789-0.251-10.229-1.185c-3.087-1.22-4.63-3.086-4.63-5.599c0-2.584,1.705-4.361,5.115-5.33l8.291-2.476
		c4.02-1.292,8.309-2.89,12.867-4.792l4.415-1.83c-0.682,1.579-1.023,3.212-1.023,4.899
		C122.583,113.417,123.049,115.069,123.983,116.863"/>
	<path fill="#F09BA5" d="M111.062,87.145l7.106,0.269l13.622-1.238c-1.329,2.082-1.992,4.307-1.992,6.675
		c0,2.01,0.771,4.325,2.315,6.945c-3.804,1.579-6.712,2.279-8.721,2.1l-7.915-1.292c-2.799-0.897-5.312-2.44-7.537-4.63
		c-2.333-2.333-3.015-4.469-2.046-6.407C106.791,87.737,108.514,86.93,111.062,87.145"/>
	<path fill="#F09BA5" d="M352.952,140.336c1.616,1.471,2.548,3.23,2.8,5.275c0.216,2.046-0.359,3.68-1.723,4.899
		c-1.508,1.328-3.463,1.884-5.868,1.669c-3.302-0.287-7.304-2.045-12.006-5.276c-3.733-2.548-8.829-6.55-15.29-12.005
		c2.801-0.538,5.169-1.812,7.106-3.822c2.047-2.082,3.141-4.486,3.284-7.214l5.008,3.823
		C344.23,133.391,349.794,137.608,352.952,140.336"/>
	<path fill="#F09BA5" d="M353.168,88.383c1.292,1.185,1.095,2.943-0.593,5.276c-2.764,3.84-6.855,6.317-12.274,7.43
		c-5.061,1.041-9.799,0.646-14.213-1.184c1.795-3.051,2.691-5.402,2.691-7.053c0-2.369-0.663-4.594-1.991-6.675l13.621,1.238
		l7.105-0.269C350.17,86.93,352.056,87.342,353.168,88.383"/>
	<path fill="#F09BA5" d="M352.199,113.633l8.345,2.476c3.696,1.041,5.329,3.087,4.898,6.137c-0.431,3.015-2.423,4.702-5.976,5.061
		c-7.609,0.826-14.195,0.574-19.759-0.753l-7.591-5.761c1.112-1.113,2.027-2.459,2.746-4.038c0.754-1.651,1.131-3.266,1.131-4.845
		c0-1.687-0.341-3.32-1.023-4.899l4.36,1.83C343.89,110.744,348.179,112.341,352.199,113.633"/>
	<path fill="#0D131A" d="M207.753,98.343c-1.436,0-2.638-0.897-3.607-2.692c-1.004-1.795-1.507-3.966-1.507-6.515
		s0.502-4.72,1.507-6.514c0.97-1.794,2.172-2.692,3.607-2.692c1.4,0,2.603,0.897,3.607,2.692c1.005,1.831,1.508,4.002,1.508,6.514
		c0,2.548-0.503,4.72-1.508,6.515C210.356,97.446,209.153,98.343,207.753,98.343"/>
	<path fill="#FFFFFF" d="M207.753,90.268c-0.61,0-1.148-0.431-1.615-1.292c-0.431-0.861-0.646-1.884-0.646-3.068
		c0-1.22,0.215-2.243,0.646-3.069c0.467-0.861,1.005-1.292,1.615-1.292s1.13,0.431,1.562,1.292c0.431,0.826,0.646,1.849,0.646,3.069
		c0,1.184-0.215,2.208-0.646,3.068C208.884,89.837,208.364,90.268,207.753,90.268"/>
	<path fill="#0D131A" d="M203.877,150.511c-4.092,2.154-6.694,3.589-7.807,4.307c-2.548,1.58-4.002,2.118-4.36,1.615
		c-0.359-0.502,0.735-1.562,3.284-3.176c4.989-3.159,10.695-6.533,17.12-10.122c2.8-1.579,5.563-2.296,8.291-2.153
		c2.548,0.107,4.684,0.933,6.407,2.477c3.769,3.517,3.84,9.17,0.215,16.958c-1.83,3.912-4.522,8.147-8.075,12.706
		c-3.015,3.876-5.456,6.55-7.322,8.021c-1.579,1.328-2.709,1.884-3.392,1.669c-0.717-0.251-0.179-1.22,1.616-2.907
		c2.046-1.867,4.684-5.007,7.914-9.422c3.445-4.666,5.671-8.291,6.675-10.875c1.148-2.871,1.741-5.599,1.777-8.183
		c0-2.8-0.7-4.773-2.1-5.922c-3.123-2.513-6.927-2.441-11.414,0.215L203.877,150.511"/>
	<path fill="#0D131A" d="M266.705,212.155c10.266,13.495,15.397,28.803,15.397,45.922c0,16.296-5.204,29.504-15.613,39.625
		c-9.978,9.727-22.485,14.591-37.524,14.591c-14.966,0-27.403-4.899-37.309-14.698c-10.265-10.157-15.397-23.401-15.397-39.731
		c0-17.049,5.205-32.321,15.613-45.815c10.695-13.854,23.204-20.782,37.525-20.782C243.681,191.266,256.118,198.229,266.705,212.155
		"/>
	<path fill="#FFFBDA" d="M264.444,214.524c10.05,12.991,15.074,27.511,15.074,43.553c0,15.291-5.008,27.78-15.021,37.472
		c-9.548,9.259-21.283,13.89-35.209,13.89c-13.891,0-25.573-4.666-35.048-13.997c-9.942-9.727-14.913-22.254-14.913-37.578
		c0-16.044,4.953-30.526,14.859-43.447c10.121-13.244,21.786-19.866,34.994-19.866C242.425,194.55,254.179,201.208,264.444,214.524"
		/>
	<path fill="#0D131A" d="M250.823,98.343c-1.4,0-2.603-0.897-3.607-2.692c-1.005-1.795-1.508-3.966-1.508-6.515
		c0-2.512,0.503-4.684,1.508-6.514c1.005-1.794,2.207-2.692,3.607-2.692c1.436,0,2.638,0.897,3.607,2.692
		c1.005,1.794,1.507,3.966,1.507,6.514s-0.502,4.72-1.507,6.515C253.461,97.446,252.259,98.343,250.823,98.343"/>
	<path fill="#FFFFFF" d="M250.823,90.268c-0.609,0-1.131-0.431-1.561-1.292c-0.432-0.861-0.646-1.884-0.646-3.068
		c0-1.22,0.215-2.243,0.646-3.069c0.43-0.861,0.951-1.292,1.561-1.292c0.61,0,1.148,0.431,1.614,1.292
		c0.432,0.826,0.647,1.849,0.647,3.069c0,1.184-0.216,2.208-0.647,3.068C251.972,89.837,251.434,90.268,250.823,90.268"/>
	<path fill="#0D131A" d="M263.529,153.634c2.584,1.615,3.57,2.728,2.96,3.338s-2.136,0.018-4.576-1.776
		c-2.296-1.615-7.645-4.773-16.043-9.476c-2.261-1.292-4.343-2.01-6.245-2.153c-2.226-0.144-4.055,0.449-5.492,1.776
		c-1.471,1.328-2.152,3.356-2.045,6.084c0.071,2.441,0.772,5.222,2.1,8.345c1.041,2.477,3.356,6.029,6.945,10.66
		c3.229,4.127,5.922,7.196,8.075,9.206c1.83,1.687,2.352,2.62,1.561,2.8c-0.753,0.143-1.919-0.431-3.499-1.723
		c-2.152-1.795-4.648-4.343-7.482-7.646c-3.733-4.379-6.497-8.47-8.291-12.275c-1.938-4.163-2.836-7.824-2.692-10.982
		c0.107-2.835,1.023-5.061,2.745-6.676c1.652-1.471,3.931-2.189,6.838-2.153c2.907,0.071,5.688,0.861,8.344,2.369
		C251.109,145.828,256.709,149.255,263.529,153.634"/>
	<path fill="#0D131A" d="M219.49,106.096c-1.364-0.216-2.208-0.61-2.53-1.185c-0.323-0.538-0.09-0.808,0.7-0.808l4.791,0.377
		l6.838,0.323l11.144-0.646c0.861,0,1.166,0.269,0.916,0.808c-0.252,0.538-0.951,0.861-2.101,0.969
		c-0.251,3.123-1.13,5.707-2.639,7.752c-1.829,2.477-4.342,3.715-7.537,3.715c-3.194,0-5.688-1.454-7.482-4.361
		C220.19,110.815,219.49,108.5,219.49,106.096"/>
	<path fill="#922F00" d="M235.749,111.641c-1.831-0.969-4.056-1.526-6.677-1.669c-2.548-0.144-4.827,0.144-6.836,0.862
		c-0.934-1.759-1.4-3.266-1.4-4.522l8.291,0.323l8.561-0.484C237.688,107.836,237.041,109.667,235.749,111.641"/>
	<path fill="#ED8599" d="M222.236,110.833c2.01-0.718,4.289-1.005,6.836-0.862c2.621,0.144,4.846,0.7,6.677,1.669
		c-1.759,2.656-4.074,3.984-6.945,3.984C226.076,115.625,223.886,114.028,222.236,110.833"/>
	<path fill="#0D131A" d="M283.019,248.441l0.591,2.8c0.396,2.261,0.594,4.414,0.594,6.46c0,16.977-5.528,30.957-16.582,41.938
		c-10.588,10.481-23.419,15.721-38.494,15.721c-15.721,0-28.821-5.617-39.301-16.851c-10.517-11.234-15.774-25.231-15.774-41.993
		c0-2.046,0.215-4.074,0.646-6.084l0.646-2.422c5.671,2.907,14.984,5.042,27.941,6.406l25.842,1.346l25.896-1.13
		C268.051,253.377,277.383,251.312,283.019,248.441"/>
	<path fill="#D08690" d="M227.081,304.756c12.526,0,23.778-3.769,33.757-11.307c9.762-7.43,16.402-17.013,19.918-28.75
		c-1.578,13.208-7.231,24.264-16.958,33.165c-9.835,8.937-21.338,13.405-34.509,13.405c-9.369,0-18.09-2.404-26.166-7.215
		c-7.825-4.665-14.016-11.001-18.574-19.004c5.24,6.137,11.485,10.928,18.735,14.375
		C210.786,302.979,218.718,304.756,227.081,304.756"/>
	<path fill="#F09BA5" d="M280.756,252.641c0.253,1.901,0.377,3.769,0.377,5.599l-0.377,6.46
		c-3.516,11.737-10.156,21.32-19.918,28.75c-9.979,7.538-21.23,11.307-33.757,11.307c-8.363,0-16.295-1.777-23.796-5.33
		c-7.25-3.447-13.496-8.238-18.735-14.375c-4.738-8.22-7.107-17.157-7.107-26.812c0-1.83,0.126-3.697,0.377-5.599
		c4.845,1.688,12.436,3.158,22.773,4.414l28.696,1.831l28.695-1.831C268.32,255.799,275.911,254.328,280.756,252.641"/>
	<path fill="#0D131A" d="M221.213,110.403c2.692-1.148,5.186-1.688,7.482-1.615c2.801,0.108,5.492,0.969,8.076,2.584
		c0.359,0.216,0.377,0.521,0.054,0.916c-0.323,0.358-0.646,0.449-0.969,0.269c-1.974-1.185-4.379-1.812-7.214-1.884
		c-2.764-0.108-5.079,0.287-6.945,1.184c-0.431,0.18-0.736,0.037-0.916-0.43C220.566,110.995,220.71,110.654,221.213,110.403"/>
</g>
</svg>
