<?xml version="1.0" encoding="utf-8"?>
<!-- Generator: Adobe Illustrator 16.0.0, SVG Export Plug-In . SVG Version: 6.00 Build 0)  -->
<!DOCTYPE svg PUBLIC "-//W3C//DTD SVG 1.1//EN" "http://www.w3.org/Graphics/SVG/1.1/DTD/svg11.dtd">
<svg version="1.1" id="Layer_1" xmlns="http://www.w3.org/2000/svg" xmlns:xlink="http://www.w3.org/1999/xlink" x="0px" y="0px"
	 width="456px" height="415px" viewBox="0 0 456 415" enable-background="new 0 0 456 415" xml:space="preserve">
<g>
	<path fill="#84CABF" d="M207.217,206.307c-2.505-1.393-6.891-7.123-13.154-17.192c-5.383-8.676-8.956-15.035-10.72-19.07
		c-1.625-3.619-3.387-8.585-5.289-14.896c-2.274-7.238-3.017-11.16-2.228-11.762c1.207-0.881,4.826-1.415,10.857-1.6l2.088-7.03
		c1.625-4.733,2.993-7.1,4.106-7.1c1.114,0,7.077,4.386,17.888,13.155l15.869,13.155l3.34,6.751
		c3.296,5.476,7.543,10.51,12.739,15.104l-0.837,9.606c-1.437,7.099-4.454,12.435-9.047,16.008
		c-5.289,4.129-10.045,6.519-14.268,7.17C214.849,209.16,211.068,208.394,207.217,206.307"/>
	<path fill="#84CABF" d="M316.353,91.185c10.997,7.843,16.496,16.681,16.496,26.519c0,1.856-0.512,3.388-1.53,4.594l-2.299-3.132
		c-3.389,6.775-5.082,12.737-5.082,17.887c0,7.563,1.186,11.344,3.55,11.344c1.069,0,2.041-0.509,2.924-1.53l1.046-1.601
		l1.946,2.436c1.256,2.134,1.881,4.408,1.881,6.82c0,2.459-0.812,4.594-2.436,6.403l-2.437,2.02
		c-1.484,6.867-6.45,13.224-14.896,19.07c-9.278,6.404-19.603,9.606-30.972,9.606c-17.261,0-32.294-6.194-45.101-18.583
		c-12.438-11.972-18.655-25.475-18.655-40.508c0-15.915,6.216-28.978,18.655-39.186c11.412-9.327,24.66-13.991,39.742-13.991
		C292.92,79.352,305.309,83.296,316.353,91.185"/>
	<path fill="#84CABF" d="M314.612,184.8c2.228,0.974,4.431,2.041,6.613,3.201c3.526,1.903,8.375,4.942,14.544,9.118h4.456
		c3.016,0.139,4.572,0.533,4.664,1.183c0.231,0.975-0.141,3.341-1.114,7.098l2.576,1.116c1.763,0.833,2.714,1.577,2.854,2.227
		c0.232,0.975-1.532,3.341-5.289,7.1c1.205,1.764,1.483,3.364,0.833,4.804c-0.603,1.3-3.55,2.876-8.838,4.733
		c-5.986,2.041-11.719,3.062-17.193,3.062c-5.011,0-9.791-0.698-14.338-2.09l-5.36-2.088c0.697-5.846,0.929-11.645,0.697-17.398
		c-0.141-3.574-0.835-7.426-2.088-11.556l-1.88-5.15l8.91-2.786c1.578-0.556,4.016-1.785,7.309-3.688L314.612,184.8"/>
	<path fill="#84CABF" d="M190.582,243.335c2.505,0,5.404,1.463,8.7,4.386c3.852,3.386,6.914,7.818,9.188,13.294
		c5.429,13.176,7.193,21.855,5.289,26.031c-0.695,1.625-2.528,4.433-5.498,8.423c-3.897,5.243-6.542,8.953-7.935,11.136
		l-8.909,12.876c-3.387,4.642-5.383,7.078-5.986,7.308c-0.744,0.326-3.991-2.436-9.744-8.28c-9.605,3.85-14.64,5.659-15.105,5.428
		c-0.417-0.185-0.904-3.48-1.461-9.884c-7.518-3.989-11.323-6.59-11.416-7.794c-0.047-0.743,1.602-2.623,4.941-5.638l5.012-4.316
		c0.325-3.805,0.95-8.073,1.879-12.807c1.901-9.514,4.478-16.658,7.726-21.438C175.663,249.576,183.436,243.335,190.582,243.335"/>
	<path fill="#84CABF" d="M269.929,275.631c3.85-2.507,8.005-6.566,12.456-12.18l5.57-7.727l7.238,6.75
		c4.779,5.663,7.169,11.415,7.169,17.261c0,4.131-0.326,7.496-0.975,10.094l-1.043,2.646l5.706,2.853
		c3.713,2.042,5.452,3.48,5.22,4.316c-0.186,0.928-1.995,2.553-5.43,4.872c-0.278,0.186-0.067,0.559,0.628,1.114
		c0.695,0.601,0.857,1.021,0.487,1.253c-4.78,2.876-11.23,5.754-19.351,8.63c-7.702,2.782-12.503,4.061-14.407,3.827
		c-1.205-0.141-3.666-2.553-7.38-7.238c-3.293-4.176-5.289-7.027-5.982-8.561c-0.419-0.882-3.435-3.711-9.05-8.491l-8.352-6.892
		C254.546,283.75,263.711,279.576,269.929,275.631"/>
	<path fill="#84CABF" d="M89.101,206.934c0-12.622,4.152-23.039,12.459-31.251c7.888-7.842,17.354-11.764,28.398-11.764
		c9.931,0,17.865,3.503,23.804,10.511c6.171,7.238,9.257,17.261,9.257,30.068l-1.323,13.432c-0.882,7.564-1.323,13.99-1.323,19.28
		c0,5.8,1.299,11.484,3.898,17.053c1.252,2.738,2.529,4.918,3.828,6.542l-3.062,6.402l-3.34,8.632
		c-3.249-0.048-7.193-0.626-11.832-1.741c-9.281-2.32-17.401-6.24-24.361-11.762c-10.161-8.119-18.538-16.844-25.127-26.172
		C92.861,225.494,89.101,215.75,89.101,206.934"/>
	<path fill="#F2E100" d="M242.714,175.821l7.1,4.594c5.846,3.48,11.576,6.288,17.191,8.422c5.614,2.135,12.088,2.993,19.42,2.575
		l9.325-1.252l2.228,7.099c1.438,5.708,2.157,11.136,2.157,16.287c0,20.787-7.215,38.771-21.646,53.941
		c-14.661,15.405-32.317,23.109-52.966,23.109c-3.479,0-6.542-0.395-9.188-1.186l-2.923-1.252c0.511-2.086,0.626-4.918,0.348-8.49
		c-0.604-7.146-2.946-14.455-7.03-21.926c-4.037-7.47-8.235-12.133-12.598-13.989c-1.345-0.604-2.621-0.882-3.828-0.835
		l-1.461,0.209l4.105-3.688c3.201-3.435,6.032-7.495,8.491-12.181c2.506-4.687,4.224-9.488,5.151-14.406l0.626-5.917l1.95,0.904
		c1.671,0.604,3.434,0.975,5.29,1.114c5.983,0.372,11.88-1.833,17.679-6.613c4.918-4.037,8.143-9.673,9.674-16.912L242.714,175.821"
		/>
	<path fill="#EEEEEF" d="M201.37,200.878c1.161,1.625,3.224,3.62,6.195,5.987l-1.044,6.471c-1.113,5.104-2.737,9.629-4.872,13.574
		c-2.088,3.989-4.918,7.91-8.492,11.763l-4.732,4.594l-2.157,0.765l-4.455,1.88c-1.252,0.648-2.808,1.926-4.664,3.828l-2.435,2.715
		c0.418-2.645,0.974-5.498,1.669-8.561c1.345-6.079,2.645-10.115,3.898-12.112c0.835-1.298,2.807-3.641,5.917-7.028
		c2.969-3.294,5.195-6.218,6.681-8.771c1.672-2.876,2.784-7.285,3.34-13.225l0.418-8.073L201.37,200.878"/>
	<path fill="#CF7100" d="M196.15,202.548c-0.417,6.403-1.507,11.043-3.271,13.92c-1.485,2.506-3.92,5.568-7.308,9.188
		c-3.295,3.479-5.312,5.893-6.055,7.237c-1.67,2.971-3.34,9.212-5.011,18.725l-6.403,9.188c-1.299-1.252-2.575-3.246-3.829-5.985
		c-2.598-5.521-3.898-12.065-3.898-19.627c0-17.726,3.758-34.198,11.276-49.418c3.758-7.61,7.517-13.434,11.275-17.471l6.334,12.25
		l6.959,13.225L196.15,202.548"/>
	<path fill="#EEEEEF" d="M212.437,142.342l7.658-5.289l4.174,16.009L212.437,142.342"/>
	<path fill="#C6000B" d="M256.147,134.826c-0.464-0.835-0.556-3.016-0.277-6.543c0.37-3.898,1.113-7.725,2.226-11.484
		c3.248-10.532,8.262-15.799,15.036-15.799c2.735,0,4.755,1.902,6.055,5.707c1.577,4.5,1.229,10.208-1.045,17.122
		c-1.206,3.62-2.737,6.937-4.594,9.954c-1.81,2.922-3.34,4.639-4.594,5.15c-1.111,0.418-3.479-0.023-7.101-1.322
		C258.374,136.356,256.47,135.428,256.147,134.826"/>
	<path fill="#C6000B" d="M329.02,119.166c0.697,0,1.553,0.998,2.574,2.993c1.394,2.691,2.089,5.986,2.089,9.884
		c0,4.408-0.767,8.352-2.297,11.833c-1.438,3.248-2.921,4.871-4.453,4.871c-2.229,0-3.343-3.132-3.343-9.396
		c0-5.011,0.906-9.883,2.715-14.617L329.02,119.166"/>
	<path fill="#FFFFFF" d="M269.441,139.141c2.46-2.319,4.432-4.826,5.917-7.517c1.485-2.738,2.807-5.568,3.967-8.492l-0.836,7.586
		c-0.787,5.151-1.716,8.004-2.783,8.561l-4.106,0.418L269.441,139.141"/>
	<path fill="#0D131A" d="M270.277,108.098c1.159,0.233,2.041,1.439,2.644,3.621c0.604,2.319,0.627,5.011,0.071,8.073
		c-0.511,2.737-1.465,5.011-2.854,6.82c-1.438,1.903-2.923,2.693-4.454,2.368c-1.487-0.325-2.483-1.648-2.993-3.968
		c-0.511-2.134-0.464-4.572,0.139-7.309c0.696-3.156,1.834-5.661,3.41-7.518C267.677,108.562,269.025,107.865,270.277,108.098"/>
	<path fill="#0D131A" d="M325.472,140.742c-0.697-0.232-1.093-1.184-1.186-2.854c-0.093-1.439,0.047-3.039,0.418-4.803
		c0.372-1.764,0.952-3.364,1.74-4.803c0.931-1.623,1.788-2.25,2.576-1.878c0.835,0.372,1.275,1.462,1.321,3.272
		c0.094,1.484-0.094,3.248-0.556,5.289c-0.37,1.625-1.067,3.063-2.087,4.315C326.768,140.394,326.029,140.881,325.472,140.742"/>
	<path fill="#FFFFFF" d="M272.226,101.695c0.879,0.511,1.625,1.601,2.226,3.272c0.652,2.041,0.674,4.037,0.069,5.985
		c-0.649,2.135-1.832,3.713-3.549,4.732c-1.532,0.975-2.971,1.229-4.316,0.766c-1.67-0.51-2.784-1.67-3.34-3.48
		c-0.558-1.856-0.396-3.967,0.486-6.334c0.743-1.95,2.135-3.434,4.177-4.455C269.836,101.253,271.25,101.091,272.226,101.695"/>
	<path fill="#FFFFFF" d="M328.881,121.601c0.417,0.139,0.741,0.696,0.975,1.671c0.23,1.021,0.23,2.064,0,3.131
		c-0.697,3.202-1.577,4.71-2.644,4.524c-0.651-0.139-1.069-0.696-1.255-1.67c-0.185-0.975-0.115-2.134,0.21-3.479
		C327.001,122.714,327.906,121.322,328.881,121.601"/>
	<path fill="#CBBD00" d="M242.714,175.821l8.631,5.011c7.238,3.665,14.429,6.427,21.575,8.283c4.502,1.113,9.674,1.531,15.522,1.252
		l7.378-0.765l1.045,2.576c-1.115,0.975-2.74,1.972-4.873,2.994c-4.269,1.949-8.979,2.923-14.129,2.923
		c-5.662,0-12.622-2.877-20.881-8.63C249.559,184.266,244.801,179.719,242.714,175.821"/>
	<path fill="#CBBD00" d="M266.796,277.579c-12.621,8.677-26.147,13.016-40.578,13.016l-9.048-1.186l-3.759-1.252l0.766-3.339
		c0.372-2.647,0.324-4.991-0.14-7.031l-1.252-6.751l-0.487-3.133c9.373,3.39,21.113,4.943,35.218,4.665
		c15.499-0.279,26.799-2.948,33.897-8.004C277.978,268.925,273.105,273.263,266.796,277.579"/>
	<path fill="#72B0A6" d="M200.675,157.099c-0.466,1.485-1.021,2.412-1.671,2.784c-0.604,0.372-1.045-0.046-1.323-1.253
		c-0.417-2.134-0.58-4.871-0.487-8.212l0.278-4.385c0-1.578,0.233-2.714,0.697-3.411c0.51-0.881,1.159-0.256,1.948,1.879
		C201.741,148.862,201.926,153.062,200.675,157.099"/>
	<path fill="#72B0A6" d="M206.73,206.517c-2.923-2.229-7.076-7.588-12.458-16.079c-4.78-7.61-8.19-13.804-10.232-18.584
		c-1.624-3.712-3.248-8.096-4.872-13.155c-1.392-4.269-2.344-7.541-2.854-9.814c-0.604-2.506-0.487-4.038,0.348-4.594
		c0.975-0.696,2.691,0.835,5.151,4.594l25.893,31.321c14.059,16.937,20.3,25.845,18.723,26.728
		c-2.553,1.438-5.522,2.251-8.909,2.437C213.202,209.647,209.607,208.696,206.73,206.517"/>
	<path fill="#72B0A6" d="M317.606,228.37c-5.15,0-9.791-0.672-13.922-2.019l-4.662-2.088l1.111-10.719
		c3.112,1.855,8.865,3.644,17.265,5.361c10.347,2.134,19.464,2.713,27.353,1.739c-0.882,1.3-2.668,2.599-5.359,3.896
		C333.96,227.095,326.7,228.37,317.606,228.37"/>
	<path fill="#72B0A6" d="M267.701,277.369c-2.321,1.672-3.038,4.084-2.157,7.239c0.788,3.017,2.854,6.034,6.194,9.049
		c8.166,7.378,17.84,10.369,29.023,8.979l-2.086-0.904c-1.579-0.604-2.276-0.93-2.091-0.976l7.519-0.696l7.587-1.601
		c-0.977,1.95-2.878,3.922-5.708,5.916c-0.187,0.092-0.07,0.488,0.347,1.185c0.417,0.648,0.51,1.043,0.278,1.183
		c-1.949,1.253-5.986,3.389-12.11,6.404c-6.079,2.923-11.346,4.825-15.8,5.706l-6.333,0.279c-1.068-0.324-5.013-5.592-11.833-15.8
		l-18.445-14.477l5.429-1.949l9.327-3.759C260.415,281.523,264.033,279.598,267.701,277.369"/>
	<path fill="#72B0A6" d="M148.264,306.742c-0.187-0.881,1.902-0.372,6.265,1.531c4.174,1.81,5.984,3.573,5.428,5.29l-6.403-2.156
		L148.264,306.742"/>
	<path fill="#72B0A6" d="M175.2,318.227l-9.049,4.177l-3.83,0.835l-2.365,0.278l0.626-2.227c0.279,0.417,2.181-0.326,5.708-2.229
		c4.084-2.133,6.543-3.294,7.379-3.479c1.299-0.324,2.087-0.048,2.366,0.836C176.266,317.207,175.989,317.81,175.2,318.227"/>
	<path fill="#72B0A6" d="M182.02,324.63c0.465,0.234,1.902-1.09,4.315-3.966c2.413-2.877,4.223-5.45,5.428-7.727l11.276-21.784
		c6.171-12.622,9.025-20.092,8.561-22.413l1.949,7.031c1.114,5.242,1.068,9.372-0.14,12.388c-1.067,2.691-2.645,5.244-4.732,7.657
		c-3.108,3.527-5.453,6.496-7.03,8.91c-9.837,15.033-15.127,22.55-15.869,22.55l-2.298-1.321L182.02,324.63"/>
	<path fill="#72B0A6" d="M165.594,265.538l-3.897,10.303c-3.109,0.139-7.054-0.396-11.832-1.602
		c-9.56-2.414-18.491-6.959-26.797-13.644c-8.677-6.959-15.985-14.732-21.924-23.314l-6.264-10.788
		c8.955,4.917,14.083,7.446,15.382,7.586c1.346,0.185,5.8-0.788,13.363-2.923c4.642,9.557,11.647,17.864,21.021,24.918
		C153.043,262.383,160.026,265.538,165.594,265.538"/>
	<path fill="#72B0A6" d="M90.633,193.222c1.022-3.295,2.436-6.451,4.246-9.466l2.367-3.549c-1.486,8.167-0.951,15.521,1.6,22.063
		c2.228,5.707,5.707,10.208,10.44,13.502c4.362,3.063,8.909,4.524,13.642,4.386c4.826-0.186,8.561-2.019,11.206-5.497l-0.906,3.408
		c-0.787,2.554-1.739,4.664-2.854,6.335c-1.485,2.272-3.875,4.384-7.169,6.335c-3.759,2.227-7.331,3.341-10.72,3.341
		c-3.572,0-7.099-1.066-10.578-3.202c-3.388-2.041-5.964-4.57-7.727-7.585C88.569,213.776,87.385,203.755,90.633,193.222"/>
	<path fill="#A95B00" d="M169.423,191.134c1.623-3.898,3.364-7.355,5.22-10.371l2.297-3.411c-3.295,8.77-4.501,20.137-3.621,34.105
		c0.835,13.04,2.714,21.113,5.638,24.223l-4.455,15.938l-6.403,9.188c-1.393-0.928-2.761-2.737-4.107-5.429
		c-2.691-5.382-3.827-12.55-3.411-21.507C161.326,217.769,164.272,203.522,169.423,191.134"/>
	<path fill="#C8C9CA" d="M195.941,235.4l-6.403,7.727l-3.062,0.904c-2.275,0.789-4.06,1.603-5.359,2.438l-6.614,5.149
		c0.882-4.594,1.555-7.772,2.019-9.535l1.463-4.245l0.974-2.157c0.418,1.298,2.134,2.087,5.15,2.365
		C187.774,238.369,191.718,237.488,195.941,235.4"/>
	<path fill="#0D131A" d="M327.001,100.023c3.526,4.595,5.802,9.095,6.822,13.503c1.021,4.363,0.579,7.609-1.323,9.745
		c-0.186,0.232-0.441-0.162-0.766-1.184c-0.324-1.067-0.416-1.74-0.277-2.019c1.113-1.81,0.905-4.617-0.626-8.422
		c-1.579-3.897-4.13-7.864-7.656-11.902c-8.91-10.162-19.421-16.148-31.531-17.957c-17.214-2.598-32.343,0.278-45.38,8.631
		c-13.04,8.352-20.766,20.138-23.178,35.357c-2.32,14.755,1.693,28.211,12.041,40.369c10.301,12.065,24.011,19.512,41.134,22.343
		c12.02,1.994,23.387,0.208,34.106-5.359c10.115-5.29,16.381-12.111,18.791-20.464l1.254,0.069c0.696,0.326,0.998,0.651,0.907,0.976
		c-2.51,8.816-9.073,16.009-19.699,21.577c-11.182,5.799-23.107,7.655-35.774,5.567c-17.818-2.97-32.227-10.811-43.222-23.525
		c-11.138-12.853-15.476-26.936-13.016-42.249c2.595-16.379,10.555-28.792,23.872-37.237c13.364-8.492,29.559-11.298,48.583-8.422
		C306.586,81.603,318.232,88.471,327.001,100.023"/>
	<path fill="#0D131A" d="M330.692,145.405c-0.139-0.139,0.021-0.418,0.488-0.835c0.463-0.371,0.811-0.463,1.042-0.278
		c2.83,2.691,4.154,6.194,3.968,10.51c-0.232,4.27-1.81,7.47-4.732,9.605l-1.532-0.139c-0.556-0.557-1.229-1.068-2.02-1.533
		c-1.112-0.648-2.11-0.974-2.993-0.974l-7.515,3.131c-4.875,2.042-8.679,3.017-11.415,2.923c-1.16-0.046-4.039-1.438-8.631-4.176
		c-5.15-3.062-8.33-4.803-9.536-5.219c-1.948-0.65-5.774-1.508-11.483-2.575l-12.808-1.95c-3.247-0.323-6.379-1.647-9.396-3.967
		c-2.877-2.18-5.058-4.755-6.542-7.725c-0.697-1.438-0.789-2.274-0.279-2.506c0.465-0.232,1.046,0.371,1.741,1.809
		c1.253,2.552,3.271,4.779,6.055,6.682c2.832,1.903,5.732,3.016,8.7,3.34l13.015,1.949c5.895,1.114,9.839,2.042,11.833,2.786
		c1.207,0.463,4.315,2.158,9.326,5.081c4.502,2.646,7.239,4.014,8.214,4.106c2.506,0.186,6.171-0.743,10.997-2.784l7.587-3.271
		c1.994-0.092,4.015,0.742,6.056,2.506c1.669-1.486,2.597-3.943,2.783-7.378C333.8,150.764,332.825,147.725,330.692,145.405"/>
	<path fill="#0D131A" d="M298.951,151.322c0.556-0.279,1.394,0.44,2.506,2.156c1.161,1.718,1.37,2.738,0.627,3.062
		c-0.742,0.326-1.579-0.395-2.507-2.157C298.65,152.573,298.442,151.554,298.951,151.322"/>
	<path fill="#0D131A" d="M317.536,155.845c0.278,0.557-0.257,1.346-1.602,2.367c-1.299,0.974-2.087,1.276-2.366,0.904
		s0.257-1.159,1.603-2.367C316.467,155.543,317.257,155.242,317.536,155.845"/>
	<path fill="#0D131A" d="M326.933,112.134l1.599-0.208c0.186,0.279-0.139,0.697-0.973,1.253l-1.67,1.741l-1.67,2.644
		c-0.42,0.882-0.883,1.184-1.392,0.905c-0.511-0.279-0.582-0.858-0.211-1.74C323.685,114.455,325.123,112.923,326.933,112.134"/>
	<path fill="#0D131A" d="M277.864,96.962c-0.882-0.464-1.253-0.906-1.114-1.324c0.186-0.37,0.721-0.37,1.6,0
		c1.671,0.744,3.064,1.811,4.177,3.202c1.205,1.531,1.904,3.226,2.09,5.081c0.092,1.485-0.118,2.251-0.627,2.297
		c-0.559,0-0.951-0.696-1.184-2.089C282.155,100.883,280.507,98.494,277.864,96.962"/>
	<path fill="#0D131A" d="M279.533,133.642c-1.206,4.176-2.297,6.474-3.272,6.891c-1.902,0.835-5.777,0.511-11.622-0.974
		c-6.079-1.531-9.351-3.202-9.814-5.012c-0.417-1.67-0.417-4.362,0-8.074c0.419-4.176,1.253-8.143,2.505-11.902
		c3.435-10.255,8.517-15.149,15.245-14.686c6.911,0.463,9.976,7.169,9.188,20.114C281.483,124.733,280.74,129.28,279.533,133.642
		 M272.433,102.252c-2.689-0.186-5.149,1.067-7.378,3.759c-2.228,2.737-4.107,6.82-5.637,12.25
		c-0.788,2.785-1.416,6.056-1.879,9.815c-0.417,3.247-0.557,5.221-0.417,5.916l0.347,0.417l1.323,0.906
		c2.087,1.067,5.196,1.949,9.326,2.645l7.099,0.487c0.603-0.649,1.321-2.715,2.158-6.195c0.973-3.898,1.577-7.702,1.81-11.415
		l0.139-4.246c0-5.476-0.765-9.373-2.297-11.692C275.912,103.272,274.383,102.391,272.433,102.252"/>
	<path fill="#0D131A" d="M278.628,109.073c-0.046-0.325,0.278-0.534,0.975-0.626s1.066,0.023,1.113,0.347
		c0.697,4.547,0.233,9.675-1.392,15.382c-1.854,6.59-4.732,11.507-8.63,14.756l-1.114-0.139c-0.556-0.186-0.72-0.373-0.486-0.557
		c3.711-3.248,6.449-8.051,8.214-14.407C278.884,118.26,279.324,113.341,278.628,109.073"/>
	<path fill="#0D131A" d="M331.386,124.663c-0.604-1.995-1.345-3.457-2.229-4.385c-1.299,2.507-2.343,5.615-3.13,9.327
		c-0.697,3.48-1.044,6.821-1.044,10.022c0,2.831,0.3,5.081,0.905,6.751c0.325,0.789,0.625,1.184,0.904,1.184
		c0.603,0.046,1.184-0.162,1.739-0.626c1.023-0.836,1.88-2.414,2.576-4.733c0.65-2.32,1.068-5.105,1.254-8.353l0.068-1.741
		C332.431,129.419,332.083,126.936,331.386,124.663 M329.925,116.659c0.557-0.603,0.812-0.626,0.767-0.069l-0.767,2.228
		c1.577,1.207,2.832,3.363,3.759,6.472c0.883,2.923,1.228,5.825,1.043,8.701c-0.324,5.708-1.367,9.976-3.132,12.807
		c-1.438,2.273-3.108,3.318-5.009,3.132c-1.207-0.092-2.159-0.997-2.854-2.714c-1.347-3.293-1.415-8.236-0.21-14.825
		C324.821,125.382,326.954,120.139,329.925,116.659"/>
	<path fill="#0D131A" d="M212.298,143.525l-1.67-1.739c2.598-3.203,5.823-5.151,9.673-5.847c0.465-0.094,0.72,0.301,0.767,1.183
		c0.046,0.882-0.141,1.369-0.555,1.461C217.171,139.513,214.432,141.159,212.298,143.525"/>
	<path fill="#0D131A" d="M182.299,166.633l1.739,3.411c-4.872,6.542-9.095,13.642-12.667,21.298
		c-5.151,10.858-8.236,23.014-9.257,36.473c-1.16,15.078,1.114,25.819,6.821,32.224c0.233,0.232,0.071,0.604-0.487,1.114
		c-0.557,0.51-0.951,0.65-1.183,0.417c-6.079-6.773-8.792-18.026-8.144-33.755c0.557-14.433,3.433-27.1,8.63-38.005
		C171.743,181.412,176.592,173.687,182.299,166.633"/>
	<path fill="#0D131A" d="M194.409,205.68c0.835-5.521,0.905-10.185,0.209-13.989c-0.092-0.279,0.348-0.023,1.323,0.765
		c0.927,0.789,1.415,1.346,1.462,1.67c0.789,4.223,0.719,8.793-0.209,13.711c-0.882,4.687-2.25,8.352-4.106,10.998l-7.239,8.284
		c-2.598,2.69-4.269,4.801-5.011,6.334c-1.16,2.505-2.274,5.544-3.34,9.116c-1.022,3.572-1.648,6.38-1.88,8.424l-1.252,1.947
		l-1.184,1.045c0.371-3.108,1.09-6.774,2.158-10.996c1.161-4.409,2.32-7.891,3.481-10.441c0.834-1.809,2.714-4.315,5.638-7.518
		l6.402-7.727C192.392,214.893,193.574,211.016,194.409,205.68"/>
	<path fill="#0D131A" d="M167.684,193.918c0.046-0.324,0.44-0.395,1.182-0.209c0.744,0.14,1.091,0.348,1.045,0.626
		c-1.021,5.197-0.743,11.578,0.835,19.143c1.764,8.211,4.664,15.473,8.699,21.783c0.186,0.28-0.046,0.625-0.695,1.044l-1.184,0.141
		c-4.826-7.472-8.027-15.128-9.604-22.968C166.523,206.609,166.429,200.09,167.684,193.918"/>
	<path fill="#0D131A" d="M205.824,206.517c0-0.279,0.441-0.21,1.322,0.208l1.323,0.835c-0.278,13.412-6.38,25.312-18.305,35.706
		c-0.233,0.187-0.835,0.187-1.81,0c-0.929-0.186-1.276-0.372-1.044-0.558c4.315-3.294,8.352-8.281,12.11-14.965
		C203.69,220.134,205.824,213.058,205.824,206.517"/>
	<path fill="#0D131A" d="M294.498,190.646c-0.14-0.325,0.14-0.626,0.835-0.905c0.694-0.326,1.091-0.326,1.183,0
		c3.296,7.47,4.941,14.594,4.941,21.367c0,32.202-12.504,55.497-37.514,69.883c-9.327,5.383-19.188,8.746-29.583,10.091
		c-9.279,1.16-16.355,0.535-21.227-1.877c-0.279-0.141-0.256-0.534,0.069-1.186c0.324-0.695,0.626-0.975,0.905-0.835
		c4.826,2.413,11.741,2.924,20.742,1.533c9.883-1.486,19.279-4.943,28.188-10.372c10.532-6.403,18.815-14.756,24.847-25.058
		c7.146-12.062,10.718-26.125,10.718-42.179C298.603,203.871,297.235,197.05,294.498,190.646"/>
	<path fill="#0D131A" d="M238.328,195.17c-0.093-0.233,0.092-0.719,0.556-1.462c0.512-0.696,0.812-0.904,0.905-0.626
		c1.905,4.548,5.336,8.631,10.301,12.25c5.013,3.572,10.976,6.241,17.89,8.005c6.264,1.624,12.226,2.228,17.888,1.81
		c5.662-0.466,9.976-1.88,12.946-4.245c0.229-0.186,0.581,0.021,1.042,0.625c0.464,0.604,0.582,0.998,0.349,1.185
		c-3.34,2.644-7.982,4.293-13.919,4.94c-6.127,0.697-12.46,0.21-19.003-1.462c-6.821-1.762-12.829-4.569-18.025-8.422
		C244.245,204.103,240.601,199.903,238.328,195.17"/>
	<path fill="#0D131A" d="M281.413,216.539c-0.788,9.095-4.642,21.39-11.554,36.888c-7.1,15.916-13.412,25.823-18.933,29.721
		l-1.044-0.626c-0.419-0.602-0.511-0.997-0.278-1.184c4.5-3.2,10.439-13.062,17.817-29.581
		c7.192-16.148,11.113-27.956,11.765-35.427c0-0.325,0.372-0.441,1.112-0.348C281.089,216.027,281.458,216.214,281.413,216.539"/>
	<path fill="#0D131A" d="M229.628,202.757l0.834,0.279l0.35,0.765l1.185,18.236l0.833,16.497l-0.279,0.765l-7.864,7.655
		c-5.986,5.382-11.576,9.373-16.773,11.972l-0.835,0.069l-0.697-0.557l-0.07-0.486c0-0.465,0.209-0.812,0.627-1.045
		c7.145-3.574,15.032-9.836,23.664-18.792l-0.906-16.355l-1.111-17.819v-0.07C228.585,203.128,228.932,202.757,229.628,202.757"/>
	<path fill="#0D131A" d="M266.031,256.143l10.926,0.485c4.455-0.14,8.004-0.555,10.648-1.252c0.324-0.045,0.37,0.278,0.141,0.975
		l-0.768,1.112c-2.596,0.882-5.983,1.486-10.16,1.812c-4.314,0.369-8.212,0.324-11.691-0.143c-6.915-0.88-13.389-3.039-19.422-6.473
		c-5.892-3.386-10.508-7.517-13.849-12.387c-0.185-0.282-0.164-0.813,0.067-1.602c0.186-0.789,0.373-1.066,0.56-0.835
		c2.97,4.406,7.678,8.305,14.126,11.691C252.597,252.64,259.071,254.844,266.031,256.143"/>
	<path fill="#0D131A" d="M214.107,280.921c-0.325-0.048-0.418-0.374-0.279-0.976c0.093-0.604,0.302-0.882,0.626-0.835l17.68,1.671
		c8.445,0.511,14.455,0.625,18.026,0.347l0.766,0.209l0.419,0.696l0.346,3.479c0.096,0.325-0.184,0.558-0.835,0.696l-1.043-0.208
		l-0.489-2.576l-18.372-0.557L214.107,280.921"/>
	<path fill="#0D131A" d="M195.315,245.632c-1.949-1.347-4.268-1.716-6.959-1.114c-2.599,0.511-5.312,1.928-8.145,4.245
		c-4.037,3.295-7.958,8.168-11.763,14.618c-2.876,4.824-5.382,11.74-7.518,20.741c-1.021,4.5-1.788,8.561-2.296,12.18l-0.419,0.695
		l-6.333,5.568c-1.81,1.856-2.714,3.064-2.714,3.619c0.093,0.558,1.206,1.485,3.34,2.786c2.088,1.346,4.501,2.622,7.24,3.828
		c0.464,0.139,0.696,0.464,0.696,0.975c0,4.596,0.301,7.448,0.905,8.561c1.855-0.372,6.542-2.088,14.06-5.15l1.323,0.279
		l4.733,5.149c1.716,1.625,2.854,2.506,3.41,2.645c0.882-0.463,3.016-3.039,6.402-7.726l7.239-10.719
		c1.578-2.553,4.966-7.218,10.162-13.989l2.714-3.551c1.16-1.486,1.742-3.829,1.742-7.029l-0.348-4.664
		c-0.975-6.126-3.156-12.319-6.543-18.584C202.808,252.778,199.166,248.324,195.315,245.632 M158.773,281.268
		c1.81-8.815,4.106-15.565,6.892-20.253c5.104-8.584,10.764-14.339,16.983-17.261c5.475-2.646,10.115-2.646,13.92,0
		c7.702,5.383,13.316,13.665,16.843,24.849c3.341,10.671,3.248,18.257-0.278,22.76c-5.754,7.191-9.976,12.735-12.667,16.633
		l-7.518,11.972c-3.573,5.66-5.962,8.607-7.169,8.84c-1.809,0.418-5.221-2.67-10.232-9.259c-3.201,2.042-6.403,3.713-9.604,5.013
		c-3.108,1.252-5.104,1.718-5.986,1.392c-0.743-0.278-1.229-1.231-1.462-2.854c-0.14-1.252-0.232-4.108-0.279-8.562l-7.864-3.342
		c-3.34-1.625-5.08-3.038-5.22-4.245c-0.092-1.02,0.766-2.505,2.575-4.453c2.042-2.228,4.965-4.55,8.769-6.96L158.773,281.268"/>
	<path fill="#0D131A" d="M299.44,273.473c-2.414-6.96-6.658-12.552-12.737-16.773c-0.185-0.142,0.117-0.626,0.905-1.462
		c0.744-0.882,1.254-1.23,1.532-1.046c6.774,4.733,11.274,11.183,13.503,19.35c1.994,7.287,1.76,13.457-0.698,18.517
		c7.47,3.199,11.206,5.706,11.206,7.516c0,1.114-2.205,3.132-6.611,6.056l-2.158-1.811c3.759-2.272,5.64-3.736,5.64-4.385
		c0-0.509-1.068-1.346-3.202-2.506c-1.949-1.113-4.246-2.203-6.892-3.273l-0.766-0.693l0.278-1.045
		C301.806,286.396,301.806,280.247,299.44,273.473"/>
	<path fill="#0D131A" d="M312.455,183.476c0.695-0.695,1.138-0.997,1.321-0.904c3.202,1.16,7.564,3.525,13.086,7.099
		c5.986,3.804,10.069,7.054,12.249,9.744c0.511,0.648,0.581,1.183,0.21,1.601c-0.418,0.371-0.883,0.232-1.392-0.418
		c-2.089-2.598-6.449-5.823-13.084-9.674c-6.034-3.48-10.396-5.568-13.089-6.264C311.479,184.568,311.712,184.173,312.455,183.476"
		/>
	<path fill="#0D131A" d="M335.703,196.98c-0.559-0.511-0.697-0.789-0.419-0.835l6.264-0.277c2.504,0.185,4.036,0.649,4.595,1.392
		c0.324,0.465,0.347,1.485,0.068,3.062l-1.254,4.385c3.666,1.113,5.615,2.412,5.849,3.897c0.045,0.509-0.396,1.415-1.324,2.715
		c-1.113,1.579-2.668,3.202-4.663,4.873c0.928,1.159,1.393,2.411,1.393,3.759c0,1.345-1.414,2.854-4.247,4.523
		c-2.967,1.719-6.635,3.064-10.996,4.037c-11.367,2.554-22.11,1.532-32.227-3.062c-0.324-0.14-0.37-0.651-0.141-1.533
		c0.186-0.928,0.419-1.321,0.699-1.182c2.597,1.159,5.799,2.134,9.604,2.923l14.409,1.393c4.73,0,9.441-1.024,14.128-3.064
		c4.083-1.81,6.126-3.201,6.126-4.176c0-0.789-0.371-1.879-1.113-3.271c-0.278-0.465-0.231-0.906,0.139-1.324
		c3.202-3.201,4.919-5.313,5.151-6.333c-0.416-0.696-1.902-1.507-4.454-2.436l-0.765-0.487v-0.836
		c0.835-2.923,1.251-5.057,1.251-6.403v-0.138l-2.783-0.558l-4.177-0.208L335.703,196.98"/>
	<path fill="#0D131A" d="M123.972,195.379c-1.485-0.417-2.875-0.417-4.177,0c-1.299,0.464-2.319,1.276-3.062,2.436
		c-0.557,0.928-1.044,1.276-1.462,1.045c-0.418-0.233-0.394-0.812,0.069-1.741c0.975-1.949,2.274-3.226,3.898-3.828
		c1.439-0.51,3.225-0.534,5.361-0.069c3.619,0.788,6.587,2.899,8.908,6.333c2.32,3.341,3.48,7.122,3.48,11.346
		c0,6.496-2.529,12.226-7.587,17.191c-5.012,4.872-10.72,7.308-17.122,7.308c-6.681,0-12.552-2.946-17.608-8.839
		c-5.198-5.984-7.796-13.038-7.796-21.159c0-12.761,4.594-23.363,13.78-31.809c8.491-7.795,18.26-11.692,29.303-11.692
		c11.322,0,19.906,3.991,25.752,11.972c5.894,7.981,8.678,19.489,8.352,34.521c-0.045,1.302-0.463,2.415-1.252,3.342
		c-0.789,0.883-1.16,0.858-1.113-0.07c0.882-15.266-1.764-27.051-7.935-35.357c-5.708-7.656-13.642-11.485-23.804-11.485
		c-9.28,0-17.795,3.458-25.543,10.371c-8.863,7.888-13.295,17.958-13.295,30.207c0,7.61,2.042,14.037,6.126,19.281
		c4.082,5.243,9.094,7.864,15.033,7.864c5.707,0,10.603-2.111,14.685-6.334c4.038-4.223,6.056-9.327,6.056-15.312
		c0-4.41-0.974-8.052-2.923-10.929C128.427,197.606,126.385,196.074,123.972,195.379"/>
	<path fill="#0D131A" d="M88.476,214.729c-0.093-0.278,0.277-0.347,1.113-0.209c0.835,0.14,1.276,0.302,1.322,0.486
		c5.476,16.009,15.244,29.859,29.304,41.552c14.105,11.786,28.096,17.681,41.969,17.681c0.325,0,0.371,0.486,0.138,1.461
		c-0.231,0.976-0.509,1.461-0.833,1.461c-14.014,0-28.236-6.078-42.667-18.235C104.112,246.537,93.997,231.804,88.476,214.729"/>
	<path fill="#0D131A" d="M240.626,289.55c-0.232-0.14,0.186-0.462,1.251-0.973c1.023-0.511,1.626-0.719,1.811-0.626
		c6.729,3.434,13.62,9.582,20.672,18.442l6.335,8.354c1.811,2.32,3.037,3.454,3.688,3.41c4.454-0.277,10.881-2.135,19.28-5.568
		c8.027-3.296,12.063-5.5,12.112-6.611c0.045-0.465-0.605-1.069-1.951-1.811c-1.346-0.743-2.945-1.368-4.803-1.881
		c-1.81-0.555-2.623-1.066-2.437-1.53l2.994-0.209c2.644,0.511,4.919,1.391,6.822,2.645c1.763,1.207,2.503,2.204,2.226,2.992
		c-0.976,2.925-6.079,6.195-15.312,9.814c-9.096,3.527-15.73,5.012-19.906,4.455c-1.022-0.14-4.919-4.154-11.694-12.041
		C254.105,299.457,247.076,293.173,240.626,289.55"/>
	<path fill="#0D131A" d="M225.661,151.322c0.324,0.185,0.603,0.928,0.834,2.227c0.279,1.253,0.279,1.787,0,1.601
		c-2.69-1.67-9.07-6.635-19.14-14.895c-9.003-7.377-13.759-11.021-14.27-10.928c-0.649,0.093-1.576,1.902-2.783,5.43
		c-1.114,3.388-1.81,6.288-2.088,8.701c-0.185,1.855-0.557,2.76-1.113,2.715c-0.557,0-0.834-0.928-0.834-2.785
		c0.046-3.621,0.672-7.286,1.877-10.999c1.3-3.85,2.692-5.938,4.178-6.264c1.391-0.278,6.473,3.225,15.242,10.51
		C218.238,145.543,224.269,150.44,225.661,151.322"/>
	<path fill="#0D131A" d="M242.783,175.751l1.185,0.696c0.277,2.971-0.093,6.566-1.115,10.79c-1.066,4.454-2.481,7.911-4.245,10.371
		c-4.222,5.846-9.466,9.721-15.73,11.625c-6.171,1.902-11.507,1.391-16.008-1.534c-5.801-3.758-13.132-14.616-21.994-32.573
		c-8.77-17.68-12.436-28.514-10.998-32.505c0.463-1.298,2.367-2.042,5.708-2.227l7.585,0.488c0.279,0.046,0.395,0.441,0.349,1.184
		c0,0.741-0.163,1.089-0.487,1.043c-1.949-0.14-3.989-0.14-6.125,0c-2.227,0.186-3.503,0.441-3.828,0.766
		c-1.207,3.433,2.182,13.547,10.162,30.346c8.26,17.354,15.219,27.864,20.881,31.531c3.943,2.596,8.631,2.922,14.06,0.974
		c5.43-1.949,10.092-5.638,13.988-11.067c1.81-2.505,3.296-5.823,4.456-9.953c1.112-4.13,1.461-7.424,1.044-9.883L242.783,175.751"
		/>
	<path fill="#0D131A" d="M203.946,141.716c2.274,1.485,3.827,2.854,4.664,4.106c0.882,1.391,0.998,2.296,0.348,2.714
		c-0.649,0.372-1.416-0.116-2.297-1.461c-0.557-0.881-1.763-1.833-3.619-2.854c-1.763-0.975-2.923-1.391-3.48-1.253
		c-0.463,0.465-0.812,1.904-1.044,4.316c-0.232,2.737-0.185,5.916,0.14,9.535c0.185,1.81-0.116,2.738-0.906,2.785
		c-0.742,0.046-1.183-0.835-1.323-2.646c-0.881-10.347-0.279-16.009,1.81-16.981C199.445,139.419,201.347,139.999,203.946,141.716"
		/>
</g>
</svg>
