<?xml version="1.0" encoding="utf-8"?>
<!-- Generator: Adobe Illustrator 16.0.0, SVG Export Plug-In . SVG Version: 6.00 Build 0)  -->
<!DOCTYPE svg PUBLIC "-//W3C//DTD SVG 1.1//EN" "http://www.w3.org/Graphics/SVG/1.1/DTD/svg11.dtd">
<svg version="1.1" id="Layer_1" xmlns="http://www.w3.org/2000/svg" xmlns:xlink="http://www.w3.org/1999/xlink" x="0px" y="0px"
	 width="456px" height="415px" viewBox="0 0 456 415" enable-background="new 0 0 456 415" xml:space="preserve">
<g>
	<path fill="#6FB92C" d="M304.474,212.16c5.438,4.378,9.008,7.818,10.706,10.325l2.741-0.255c2.763,0.469,6.586,2.231,11.473,5.29
		l13.001,0.829c3.484-0.127,6.056-0.786,7.712-1.977c1.36-0.934,2.338-1.317,2.933-1.146c1.104,0.255,2.123,1.551,3.059,3.888
		c0.382,7.733-3.123,15.977-10.517,24.729c-2.72,3.187-5.587,6.012-8.604,8.476c-2.675,2.168-4.608,3.378-5.799,3.632l-4.079,3.124
		c-3.441,2.338-6.863,4.121-10.263,5.354c-2.506,0.937-5.5,1.401-8.985,1.401c-3.102,0-5.205-0.317-6.309-0.955l-7.904,0.51
		c-5.183,0.595-9.751,0.573-13.702-0.063c-3.866-0.341-8.073-1.126-12.62-2.359c-4.759-1.315-7.605-2.548-8.54-3.695
		c-1.911,0.637-6.266,0.721-13.065,0.256c-7.011-0.469-14.404-1.382-22.179-2.741c-20.225-3.527-32.462-7.903-36.711-13.13
		c-4.716,0.851-11.026,0.723-18.929-0.382c-8.03-1.062-12.492-2.466-13.385-4.206c-2.761-5.271-7.307-11.877-13.639-19.822
		l-17.973-21.861c-15.721-19.205-25.387-35.075-28.999-47.609c-1.699-5.906-2.124-10.856-1.274-14.85
		c0.765-3.655,2.528-6.183,5.29-7.584c1.402-0.723,5.992,0.467,13.767,3.569c2.592,1.062,9.348,4.037,20.268,8.923
		c10.537,4.716,20.161,7.181,28.871,7.393l12.938-1.338c4.249-0.553,14.871-3.526,31.867-8.923
		c18.737-5.906,30.613-10.452,35.626-13.639c1.572-0.977,3.463-1.55,5.673-1.72l5.035,0.446c1.276,0.467,2.23,1.635,2.867,3.505
		c0.681,1.912,0.808,3.994,0.384,6.246c-0.212,1.232-2.443,7.818-6.691,19.757c-3.995,11.218-5.928,17.399-5.8,18.547
		c0.296,1.912,3.292,3.526,8.985,4.844l19.312,3.378c4.673,0.808,8.369,2.167,11.088,4.079c3.399,2.294,5.843,5.694,7.33,10.198
		C293.554,204.257,298.568,207.444,304.474,212.16"/>
	<path fill="#5FA124" d="M250.044,144.029c1.063-1.784,2.231-2.315,3.505-1.593c1.232,0.68,1.551,1.976,0.956,3.888
		c-1.995,4.716-3.887,9.476-5.672,14.276c-3.61,9.561-5.714,16.678-6.31,21.352c-0.382,2.804,0.51,5.438,2.677,7.902
		c2.082,2.295,4.376,3.527,6.883,3.697c2.21,0.127,2.613,0.808,1.211,2.04c-1.487,1.274-4.163,2.104-8.029,2.485
		c-4.163,0.425-7.819-1.317-10.963-5.226c-3.145-3.909-4.249-8.031-3.313-12.365c0.551-2.464,3.76-9.05,9.623-19.757
		L250.044,144.029"/>
	<path fill="#0D131A" d="M189.943,170.033c0,4.292-1.508,7.967-4.525,11.026c-3.06,3.102-6.862,4.652-11.409,4.652
		s-8.349-1.572-11.408-4.716c-2.975-3.06-4.462-6.671-4.462-10.835c0-4.292,1.487-7.882,4.462-10.771
		c3.016-2.932,6.819-4.397,11.408-4.397c4.801,0,8.731,1.657,11.791,4.971C188.562,162.895,189.943,166.251,189.943,170.033"/>
	<path fill="#FFFFFF" d="M186.183,164.36c0.978,1.827,1.466,3.803,1.466,5.927c0,3.654-1.339,6.756-4.015,9.306
		c-2.677,2.591-5.907,3.888-9.688,3.888c-3.739,0-6.904-1.254-9.497-3.761c-2.762-2.633-4.122-5.99-4.079-10.069l-0.127-0.701
		l14.021-2.294L186.183,164.36"/>
	<path fill="#6FB92C" d="M173.946,157.159c2.635,0,5.057,0.658,7.266,1.976c2.167,1.317,3.824,3.059,4.971,5.226l-12.237,2.485
		l-13.512,1.912c0.085-3.017,1.317-5.651,3.697-7.903C166.722,158.391,169.995,157.159,173.946,157.159"/>
	<path fill="#0D131A" d="M186.884,165.061l-27.022,4.908c-0.851,0.213-1.211-0.021-1.084-0.701c0.085-0.637,0.574-1.042,1.466-1.211
		l26.194-4.716c0.723-0.169,1.168,0.043,1.339,0.638C187.946,164.573,187.649,164.934,186.884,165.061"/>
	<path fill="#0D131A" d="M179.681,170.67c0,1.572-0.53,2.932-1.593,4.079c-1.02,1.147-2.273,1.721-3.76,1.721
		c-1.444,0-2.698-0.574-3.76-1.721c-1.021-1.105-1.53-2.464-1.53-4.079c0-1.529,0.509-2.719,1.53-3.569
		c0.935-0.765,2.188-1.147,3.76-1.147c1.572,0,2.825,0.382,3.76,1.147C179.151,167.951,179.681,169.141,179.681,170.67"/>
	<path fill="#5FA124" d="M337.36,250.784c1.828,0.085,4.376-0.851,7.647-2.805c3.995-2.338,7.203-5.332,9.624-8.987
		c-3.144,8.966-7.902,15.977-14.275,21.032c-1.954,1.573-3.975,2.849-6.054,3.825l-2.487,1.019
		c-2.421,3.824-6.946,6.799-13.574,8.924c-6.544,2.082-12.11,2.443-16.698,1.083c-3.824,1.402-11.558,1.36-23.2-0.127
		c-11.557-1.445-17.909-3.144-19.056-5.099c-18.484,0.68-35.373-1.233-50.669-5.736c-6.076-1.785-11.047-3.761-14.914-5.927
		c-3.611-2.04-5.566-3.846-5.863-5.419l-6.373,1.148l-15.169-0.637c-4.929-0.978-8.625-2.104-11.09-3.378l-2.231-1.595l4.525,0.446
		c3.271-0.085,5.523-1.104,6.755-3.059l-9.178-4.717l2.422,0.318c1.955,0.086,3.739-0.191,5.354-0.828
		c5.142-2.082,7.605-7.5,7.393-16.252l5.226,3.632c4.206,2.593,8.222,4.399,12.046,5.418c12.236,3.229,20.098-2.145,23.581-16.124
		c0.468,5.735,3.548,11.45,9.242,17.144c5.141,5.142,11.855,9.731,20.139,13.768c7.904,3.823,15.913,6.5,24.029,8.029
		c8.368,1.614,15.359,1.701,20.968,0.255c3.568,2.211,8.519,3.74,14.85,4.59c6.713,0.935,13.447,0.871,20.204-0.191
		c1.188-0.213,3.568-1.168,7.138-2.868C332.388,255.372,335.616,253.079,337.36,250.784"/>
	<path fill="#0D131A" d="M139.148,202.728c-5.226-1.657-8.095-2.23-8.605-1.72c-0.51,0.595-0.212,3.356,0.893,8.285
		c1.147,5.057,2.295,8.137,3.442,9.242c1.062,1.02,3.824,2.379,8.285,4.077c4.333,1.616,6.671,2.296,7.011,2.04
		c0.34-0.297,0.298-3.145-0.127-8.541c-0.425-5.523-0.935-8.602-1.529-9.24C147.539,205.767,144.416,204.385,139.148,202.728
		 M129.205,199.478c0.807-0.851,4.249-0.468,10.325,1.147c6.076,1.615,9.708,3.102,10.898,4.461
		c1.19,1.274,1.891,5.055,2.104,11.344c0.212,6.161-0.106,9.519-0.957,10.069c-0.807,0.554-3.568-0.021-8.285-1.719
		c-4.844-1.743-8.073-3.379-9.688-4.909c-1.614-1.529-2.974-5.098-4.079-10.706C128.419,203.642,128.312,200.412,129.205,199.478"/>
	<path fill="#0D131A" d="M171.46,184.946l0.956-0.127c0.595,0.17,0.85,0.382,0.765,0.637c-2.124,7.563-3.059,16.868-2.804,27.915
		c0.255,10.962,1.572,19.375,3.951,25.239l-0.701,0.701c-0.552,0.212-0.871,0.212-0.956,0c-2.889-7.054-4.504-15.169-4.843-24.347
		C167.446,204.896,168.656,194.889,171.46,184.946"/>
	<path fill="#0D131A" d="M209.191,207.571c1.189,0.213,1.955,0.511,2.294,0.894s0.574,1.126,0.7,2.23
		c0.298,2.676,0.319,7.924,0.065,15.742l-1.021,17.59c0,0.255-0.297,0.383-0.892,0.383c-0.595,0-0.892-0.128-0.892-0.383
		l0.319-15.934c0.084-11.26-0.107-17.165-0.574-17.717c-0.637-0.765-8.562-1.912-23.773-3.442c-16.656-1.7-28.468-1.87-35.437-0.509
		c-0.212,0.042-0.382-0.234-0.509-0.83c-0.127-0.552-0.064-0.849,0.191-0.892c7.223-1.402,17.357-1.657,30.4-0.765
		C190.432,204.661,200.14,205.872,209.191,207.571"/>
	<path fill="#0D131A" d="M133.857,220.828c-0.126-0.212,0.022-0.488,0.447-0.827c0.382-0.298,0.637-0.341,0.765-0.129
		c4.418,7.14,11.302,13.789,20.65,19.95c10.367,6.798,21.074,11.047,32.122,12.745c0.255,0.043,0.148,0.277-0.318,0.702
		c-0.511,0.467-0.893,0.679-1.147,0.637c-11.812-1.784-22.456-5.82-31.931-12.107C145.819,236.104,138.956,229.114,133.857,220.828"
		/>
	<path fill="#0D131A" d="M210.466,242.563c0.255,0.042,0.34,0.445,0.255,1.21c-0.085,0.808-0.255,1.188-0.51,1.146l-34.162-5.034
		c-2.379-0.255-4.398-0.042-6.054,0.638c-1.402,0.637-2.274,1.487-2.614,2.549c-0.254,0.85-0.063,1.785,0.574,2.805
		c0.68,1.062,1.615,1.912,2.805,2.549c0.212,0.128,0.127,0.361-0.255,0.701l-0.957,0.256c-1.784-0.978-3.123-2.167-4.015-3.57
		c-0.807-1.315-1.062-2.507-0.765-3.567c0.425-1.402,1.679-2.508,3.76-3.314c2.21-0.85,4.801-1.126,7.775-0.829L210.466,242.563"/>
	<path fill="#0D131A" d="M209.573,244.792c-0.213-0.127-0.106-0.595,0.318-1.402c0.425-0.807,0.744-1.146,0.956-1.019l10.325,6.628
		c7.479,4.588,12.832,7.479,16.062,8.668l15.359,2.104c9.815,1.444,16.485,3.164,20.012,5.162c0.214,0.127,0.214,0.403,0,0.829
		c-0.213,0.382-0.424,0.509-0.637,0.382c-2.125-1.233-8.221-2.593-18.291-4.079l-16.954-2.677
		c-3.355-1.188-8.774-3.909-16.252-8.157L209.573,244.792"/>
	<path fill="#0D131A" d="M195.807,244.984c5.269-1.828,10.155-2.444,14.659-1.849c0.212,0.043,0.51,0.382,0.892,1.019
		c0.34,0.681,0.382,0.999,0.128,0.957c-4.589-0.638-9.539,0.021-14.851,1.977c-5.438,1.953-7.988,4.185-7.648,6.691
		c0,0.212-0.297,0.361-0.892,0.446c-0.553,0.084-0.851,0-0.893-0.255C186.736,250.146,189.603,247.15,195.807,244.984"/>
	<path fill="#0D131A" d="M188.222,254.353c-0.213-0.085-0.318-0.488-0.318-1.211c0-0.679,0.105-0.956,0.318-0.827
		c4.121,2.166,10.622,4.716,19.502,7.647c7.861,2.635,15.891,4.992,24.091,7.073c0.255,0.086,0.319,0.32,0.192,0.702
		c-0.17,0.383-0.383,0.531-0.638,0.445C209.106,262.404,194.724,257.795,188.222,254.353"/>
	<path fill="#0D131A" d="M254.315,132.174c2.931,2.422,3.781,5.779,2.55,10.07l-5.673,16.699l-6.629,19.502
		c-2.251,7.266-0.213,11.94,6.119,14.022c2.72,0.85,3.908,1.508,3.569,1.976l-5.481-0.382c-3.356-0.723-5.608-2.083-6.757-4.08
		c-1.272-2.336-1.358-5.97-0.254-10.898c1.062-4.631,3.591-12.428,7.583-23.39c3.357-9.262,5.036-14.999,5.036-17.208
		c0-1.87-0.808-3.271-2.422-4.207c-1.954-1.147-4.481-1.104-7.584,0.127c-16.827,6.67-29.488,11.324-37.986,13.958
		c-11.727,3.654-25.557,6.904-41.491,9.751c-8.626,1.529-21.967-1.678-40.025-9.624c-8.413-3.867-14.213-6.438-17.399-7.711
		c-5.226-2.04-8.434-2.593-9.624-1.658c-1.572,1.232-2.549,3.039-2.932,5.417c-0.425,2.592-0.319,6.628,0.318,12.109
		c1.104,9.263,5.885,19.885,14.34,31.867c1.657,2.337,8.986,11.43,21.988,27.277c6.798,8.328,12.577,15.869,17.335,22.627
		l7.011,9.941c1.062,1.316,4.61,2.466,10.644,3.441l18.993,0.892c1.36-0.084,2.273,0.086,2.741,0.512
		c0.467,0.467-0.085,0.871-1.658,1.21c-4.249,0.978-10.558,0.978-18.929,0c-8.88-1.062-13.936-2.676-15.168-4.842
		c-5.906-10.794-13.81-21.947-23.709-33.463c-10.495-12.023-16.72-19.332-18.674-21.923c-9.942-13.172-15.743-24.368-17.399-33.589
		l-1.211-7.902c-0.383-3.569-0.383-6.374,0-8.413c0.722-3.995,2.103-6.692,4.143-8.095c2.039-1.401,4.567-1.423,7.584-0.063
		c14.829,6.671,24.453,10.877,28.872,12.62c15.424,6.033,25.897,8.561,31.421,7.583c15.126-2.676,30.061-6.458,44.806-11.344
		c11.046-3.654,22.667-8.18,34.861-13.575C247.644,129.455,251.34,129.71,254.315,132.174"/>
	<path fill="#0D131A" d="M338.124,227.457c5.779,0.34,9.923-0.638,12.429-2.932c1.912-1.741,3.74-1.084,5.48,1.975
		c1.87,3.229,2.083,7.076,0.639,11.538c-1.786,5.607-5.227,11.322-10.326,17.144c-5.268,5.948-10.622,10.048-16.061,12.301
		c-1.189,0.51-1.891,0.616-2.103,0.318c-0.17-0.255,0.339-0.744,1.529-1.465c6.246-3.739,11.643-8.437,16.188-14.087
		c4.038-5.013,6.862-10.07,8.478-15.167c1.019-3.146,1.084-5.843,0.192-8.095c-0.765-1.913-1.53-2.635-2.296-2.168
		c-3.017,1.784-6.544,2.72-10.58,2.804c-4.248,0.129-8.71-0.658-13.384-2.357c-0.934-0.34-1.551-0.786-1.849-1.338
		c-0.297-0.554-0.148-0.723,0.446-0.511C330.307,226.565,334.045,227.244,338.124,227.457"/>
	<path fill="#0D131A" d="M268.08,186.604c11.175,1.657,18.973,7.393,23.392,17.208c2.931,6.587,4.229,14.744,3.887,24.475
		c-0.296,10.155-3.548,19.205-9.751,27.149c-7.562,9.731-17.889,14.871-30.974,15.425l-14.851-1.019
		c-16.274-1.999-27.533-3.847-33.779-5.547c-7.648-2.081-14.382-5.481-20.204-10.196c-0.935-0.724-1.062-1.212-0.382-1.467
		c0.723-0.298,1.869-0.085,3.442,0.638c3.866,3.994,10.261,7.053,19.184,9.177l32.122,5.481c15.085,2.337,27.512-0.233,37.285-7.711
		c9.813-7.522,14.892-18.334,15.233-32.44c0.254-12.364-2.062-21.84-6.949-28.426c-4.248-5.651-10.494-9.199-18.738-10.644
		l-13.128-2.741c-3.738-0.977-7.372-2.316-10.898-4.015c-0.808-0.383-1.189-0.956-1.147-1.721c0.043-0.766,0.616-0.85,1.721-0.255
		c2.252,1.274,6.055,2.591,11.408,3.951L268.08,186.604"/>
	<path fill="#0D131A" d="M323.402,239.185c2.337,11.938,0.191,21.542-6.437,28.808c-5.906,6.458-16.061,9.325-30.466,8.603
		c-11.642-0.594-21.095-2.696-28.36-6.308c-1.87-0.894-2.337-1.297-1.401-1.212l3.695,0.893c11.515,3.399,22.011,4.907,31.484,4.525
		c10.494-0.384,18.186-3.08,23.07-8.095c5.228-5.396,7.502-13.002,6.821-22.816c-0.764-10.537-4.929-19.291-12.492-26.26
		c-2.719-2.506-5.438-4.693-8.158-6.562l-10.516-6.757c-1.146-0.722-1.763-1.487-1.85-2.294c-0.084-0.85,0.256-1.041,1.021-0.574
		c7.308,4.418,14.064,9.072,20.267,13.958C316.794,220.319,321.236,228.35,323.402,239.185"/>
	<path fill="#0D131A" d="M314.67,222.104l-0.954-1.657c5.819,0.637,10.791,2.422,14.913,5.354c3.482,2.507,6.096,5.65,7.839,9.433
		c2.72,5.948,3.123,12.47,1.211,19.565c-1.785,6.586-4.823,11.514-9.115,14.785c-4.206,3.188-9.282,5.27-15.232,6.246l-15.996-0.445
		l5.672-0.956c4.505,0.68,8.923,0.383,13.257-0.892c4.378-1.317,8.265-3.526,11.663-6.629c3.994-3.654,6.607-8.477,7.84-14.467
		c1.189-5.779,0.786-11.133-1.211-16.062c-1.275-3.144-3.336-5.885-6.183-8.222C324.804,225.269,320.236,223.25,314.67,222.104"/>
	<path fill="#0D131A" d="M323.148,239.566c2.21,1.912,4.609,2.592,7.201,2.04c2.465-0.511,4.165-1.85,5.099-4.017
		c0.341-0.85,0.659-1.019,0.957-0.508c0.296,0.508,0.234,1.168-0.192,1.976c-1.274,2.379-3.312,3.802-6.119,4.271
		c-2.802,0.508-5.203-0.214-7.2-2.169L323.148,239.566"/>
	<path fill="#0D131A" d="M321.745,240.969c-1.148,1.911-3.251,3.059-6.31,3.441c-3.018,0.382-6.161-0.105-9.434-1.466
		c-8.284-3.398-12.597-9.772-12.938-19.119c-0.042-0.979,0.171-1.445,0.639-1.402c0.468,0.042,0.722,0.445,0.765,1.21
		c0.469,7.308,4.271,12.874,11.408,16.698c3.059,1.657,6.013,2.401,8.859,2.232c3.059-0.214,5.438-1.468,7.138-3.763
		c0.807-1.062,1.104-1.146,0.892-0.255L321.745,240.969"/>
	<path fill="#0D131A" d="M316.709,266.144c-12.066,2.72-23.453,0.978-34.162-5.227c-0.976-0.552-1.379-1.02-1.21-1.401
		c0.214-0.425,0.979-0.298,2.294,0.382c4.505,2.338,9.688,3.93,15.552,4.78c6.119,0.893,11.94,0.785,17.464-0.318
		c1.188-0.256,1.784-0.085,1.784,0.509C318.431,265.463,317.858,265.889,316.709,266.144"/>
	<path fill="#0D131A" d="M337.042,254.926c-2.21,2.678-5.292,5.057-9.243,7.139c-3.398,1.742-6.649,2.933-9.751,3.568l0.893-1.976
		c6.076-1.274,11.961-4.545,17.654-9.813c0.509-0.511,0.851-0.617,1.02-0.319C337.741,253.821,337.551,254.289,337.042,254.926"/>
</g>
</svg>
