<?xml version="1.0" encoding="utf-8"?>
<!-- Generator: Adobe Illustrator 16.0.0, SVG Export Plug-In . SVG Version: 6.00 Build 0)  -->
<!DOCTYPE svg PUBLIC "-//W3C//DTD SVG 1.1//EN" "http://www.w3.org/Graphics/SVG/1.1/DTD/svg11.dtd">
<svg version="1.1" id="Layer_1" xmlns="http://www.w3.org/2000/svg" xmlns:xlink="http://www.w3.org/1999/xlink" x="0px" y="0px"
	 width="456px" height="415px" viewBox="0 0 456 415" enable-background="new 0 0 456 415" xml:space="preserve">
<g>
	<path fill="#F0E800" d="M247.588,125.608c3.711,3.374,6.647,7.204,8.806,11.489c1.687,3.408,2.649,6.546,2.885,9.414
		c0.271,2.801-0.067,5.753-1.012,8.857c-0.642,2.125-1.84,5.027-3.594,8.705c6.58,4.488,10.207,7.001,10.883,7.542
		c2.698,2.092,4.268,3.981,4.706,5.668c0.303,1.249,0.034,2.918-0.81,5.011l-3.29,7.085c3.745,2.126,5.787,4.016,6.125,5.669
		c0.27,1.417-0.659,4.049-2.784,7.896c3.51,20.684,2.312,38.583-3.593,53.7c-2.329,5.972-5.146,10.73-8.453,14.272
		c-3.07,3.307-5.973,4.96-8.706,4.96c-5.398,7.963-12.113,14.914-20.144,20.853c-7.861,5.871-13.598,8.284-17.208,7.237
		c-3.374-0.944-6.766-6.866-10.173-17.766c-3.273-10.392-4.724-18.777-4.353-25.154c-4.353-7.456-6.512-14.644-6.479-21.561
		c0-2.159,0.236-4.167,0.708-6.022l0.658-2.127l-2.631-2.327c-0.81-0.743-1.839-1.891-3.087-3.441
		c-0.743-0.912-1.046-3.492-0.912-7.744c0.169-4.454,0.81-7.963,1.924-10.527c-2.767-1.856-4.269-4.387-4.505-7.592
		c-0.202-2.632,0.405-5.163,1.822-7.592c-1.856-1.012-3.981-2.497-6.377-4.454c-4.825-3.88-8.57-8.148-11.236-12.805
		c-2.328-4.016-3.391-9.195-3.188-15.538c0.203-6.445,1.653-12.856,4.353-19.233c2.969-6.951,7.018-12.855,12.147-17.714
		c5.77-5.466,12.484-9.144,20.144-11.033c6.377-1.586,13.564-1.417,21.562,0.506C231.458,114.169,240.064,118.758,247.588,125.608"
		/>
	<path fill="#F8F397" d="M163.571,159.316c0.203-6.445,1.653-12.856,4.353-19.233c2.969-6.951,7.018-12.855,12.147-17.714
		c5.77-5.466,12.484-9.144,20.144-11.033c-4.656,1.282-9.026,4.353-13.109,9.211c-8.131,9.718-10.578,23.434-7.338,41.148
		l1.062,6.681c0.405,2.531,1.08,5.618,2.024,9.263c1.08,4.15,2.615,7.372,4.606,9.667c1.451,1.653,4.116,3.695,7.997,6.125
		c-1.754-0.135-4.791-1.046-9.11-2.733c-4.555-1.924-7.491-3.104-8.807-3.543c-2.193-1.586-3.964-3.121-5.314-4.606
		c-1.788-1.923-3.61-4.487-5.466-7.693C164.431,170.838,163.368,165.659,163.571,159.316"/>
	<path fill="#F8F397" d="M190.092,203.045c-0.337,0.877-1.13,1.282-2.379,1.215l-4.201-0.86c-0.81-1.62-1.13-3.425-0.962-5.416
		c0.135-1.755,0.591-3.442,1.367-5.062c2.024,0.473,3.324,1.451,3.897,2.936L190.092,203.045"/>
	<path fill="#F8F397" d="M195.102,195.605l2.784,0.253l4.707,0.253c0.506,3.846,1.772,6.731,3.796,8.654l1.923,1.569
		c0.54,0.472,0.776,0.945,0.708,1.417c-0.101,1.045-1.637,0.371-4.606-2.025C201.176,203.096,198.072,199.722,195.102,195.605"/>
	<path fill="#F8F397" d="M186.953,207.448l3.948-0.456c0.979-0.337,2.21-0.944,3.695-1.822c-1.315,3.272-2.378,6.631-3.188,10.072
		c-0.877,3.678-1.316,6.867-1.316,9.565c0,0.54,0.438,1.637,1.316,3.29c0.675,1.315,0.759,2.346,0.253,3.087l-2.582-2.227
		l-3.036-3.391c-0.675-0.811-0.928-3.324-0.759-7.541C185.486,213.707,186.043,210.182,186.953,207.448"/>
	<path fill="#F8F397" d="M203.352,205.424c1.181,1.214,2.379,1.906,3.594,2.075l-1.366,7.946
		c-0.844,6.006-1.165,10.831-0.962,14.475c0.067,1.014,1.333,4.472,3.796,10.376c2.16,5.265,4.336,10.225,6.529,14.881
		c-4.286-3.914-9.448-12.603-15.488-26.066c-0.405-0.911-0.101-4.369,0.911-10.375C201.344,212.729,202.34,208.292,203.352,205.424"
		/>
	<path fill="#F8F397" d="M205.275,241.865c0.304,0.574,1.063,1.688,2.278,3.341c0.877,1.215,1.316,2.159,1.316,2.834
		c-4.353,8.975-5.044,21.123-2.075,36.44c0.776,3.948,1.923,8.639,3.441,14.07c1.046,3.712,1.434,5.517,1.165,5.416
		c-3.374-0.944-6.766-6.866-10.173-17.766c-3.273-10.392-4.724-18.777-4.353-25.154c-4.353-7.456-6.512-14.644-6.479-21.561
		c0-2.159,0.236-4.167,0.708-6.022l0.658-2.127l-0.05-0.101l1.62-1.872c-0.743,3.543-0.641,7.541,0.303,11.995
		c1.013,4.994,2.818,8.79,5.416,11.388c0.304-1.182,1.165-2.986,2.582-5.416C202.981,245.004,204.196,243.181,205.275,241.865"/>
	<path fill="#CEC900" d="M253.965,157.898c1.721-3.171,3.087-5.298,4.1-6.377c0.844-0.911,1.198-0.877,1.062,0.102
		c-0.271,1.923-0.827,3.981-1.67,6.175l-2.784,6.276l3.897,2.936c-4.487,1.89-9.818,6.006-15.994,12.35
		c-6.714,6.917-9.193,11.742-7.439,14.475l10.021-0.708l6.226-2.479c2.632-1.114,5.617-2.784,8.958-5.011
		c4.016-2.632,7.12-5.18,9.312-7.642c0.574,1.585,0.455,3.323-0.354,5.213l-2.986,5.82c-2.124,1.822-5.736,3.948-10.831,6.377
		c-5.128,2.396-9.126,3.864-11.995,4.404l-8.806,0.556c-2.7,0.034-3.965,0.49-3.796,1.367c0.303,1.754,1.23,4.099,2.783,7.034
		c1.89,3.611,3.729,5.754,5.517,6.429l6.327-0.151c1.45-0.474,4.47-1.84,9.059-4.101c3.544-1.788,7.137-4.808,10.781-9.059
		c3.272-3.88,5.163-6.917,5.669-9.11c1.113,1.181,1.518,2.53,1.215,4.049c-0.236,1.181-1.147,3.223-2.733,6.125l1.315,6.681
		c-1.417-0.202-3.407,0.775-5.972,2.935c-2.598,2.194-4.808,4.775-6.631,7.744c-0.067,0.067-0.033,1.249,0.103,3.543l0.049,7.795
		c-0.506,8.064-2.867,13.936-7.084,17.613l5.415,16.297c0.505,1.08,1.028,1.721,1.568,1.924l2.127-0.253
		c-1.925,2.766-3.915,4.926-5.974,6.479c-2.024,1.45-3.913,2.176-5.669,2.176c-2.497,3.678-5.634,7.439-9.414,11.287
		c-5.195,5.297-10.932,9.987-17.208,14.07c6.951-7.491,11.422-17.698,13.412-30.621c0.877-5.702,0.944-10.747,0.203-15.133
		c-0.742-4.657-2.294-7.912-4.656-9.769c-0.675-0.54-3.273,1.097-7.795,4.909c-4.622,3.847-7.322,5.584-8.098,5.214
		c2.328-2.396,5.364-6.715,9.11-12.958c5.095-8.436,7.507-14.896,7.237-19.384c0-2.497-1.164-5.567-3.492-9.213
		c-1.923-2.968-4.758-6.511-8.503-10.628c-1.012-0.405-2.497,0.119-4.454,1.569c-2.092,1.619-3.543,2.396-4.353,2.328
		c1.72-4.994,1.147-8.351-1.721-10.072c-0.877-0.54-1.94-0.877-3.188-1.012l-1.62-0.051l0.051-0.607
		c0.068-0.439,0.219-0.692,0.456-0.759c8.435-2.666,15.605-5.956,21.51-9.87c3.645-2.396,9.178-6.9,16.602-13.514
		C247.385,167.582,251.097,162.993,253.965,157.898"/>
	<path fill="#0D131A" d="M189.231,147.27c0.27-13.767,2.413-24.396,6.428-31.886c0.54-0.979,1.13-1.721,1.771-2.227
		c0.641-0.54,0.523,0.084-0.354,1.873c-4.657,9.414-6.597,21.679-5.82,36.795c0.708,13.361,2.986,23.889,6.833,31.583
		c0.708,1.417,0.827,2.092,0.354,2.024c-0.439-0.101-0.928-0.607-1.468-1.518C191.542,174.803,188.961,162.588,189.231,147.27"/>
	<path fill="#0D131A" d="M190.344,237.36l0.506-3.694c0.337,4.016,1.231,7.777,2.683,11.286c1.62,3.881,3.576,6.632,5.871,8.25
		c-0.438,0.844-0.725,1.215-0.86,1.114C193.719,250.537,190.986,244.885,190.344,237.36"/>
	<path fill="#0D131A" d="M254.066,218.634l1.215-0.304l0.405,2.937c0.203,2.429,0.151,4.892-0.151,7.389
		c-0.979,7.996-4.387,14.998-10.225,21.004l-0.354-1.468c5.265-6.613,8.369-13.496,9.313-20.65c0.27-2.26,0.321-4.402,0.151-6.427
		L254.066,218.634"/>
	<path fill="#0D131A" d="M232.758,234.931l0.506-1.112c4.725,2.192,9.414,8.114,14.071,17.766c4.184,8.704,6.039,14.44,5.566,17.207
		c-0.438,2.802-1.754,5.483-3.947,8.048l-2.479,0.91c3.036-3.913,4.774-7.152,5.212-9.717c0.439-2.564-1.399-7.998-5.517-16.298
		C241.649,242.59,237.179,236.989,232.758,234.931"/>
	<path fill="#0D131A" d="M198.189,223.745l1.316-1.012l0.81,0.962l-1.366,1.062c-4.083,3.003-6.563,5.602-7.44,7.795
		c-0.877,2.227-0.962,1.703-0.253-1.569c1.08-1.722,2.294-3.223,3.644-4.505L198.189,223.745"/>
	<path fill="#0D131A" d="M270.161,200.515l1.112-0.506c0.474,0.068,0.067,1.13-1.214,3.189c-1.923,3.205-5.415,7.321-10.477,12.349
		c-5.736,5.703-9.701,8.419-11.894,8.149c-2.127-0.237-4.37-0.979-6.732-2.227l-4.961-2.986l-1.872-1.114l-0.91-2.024l3.491,2.075
		c3.915,2.598,7.491,4.083,10.73,4.454c1.788,0.203,5.686-2.614,11.691-8.452C264.864,207.819,268.541,203.518,270.161,200.515"/>
	<path fill="#0D131A" d="M245.26,197.984c1.552-0.27,4.74-1.518,9.565-3.745c5.365-2.463,9.077-4.555,11.134-6.276
		c0.271-0.236,0.422-0.068,0.456,0.506c0.034,0.54-0.236,1.046-0.81,1.518c-1.99,1.687-4.487,3.307-7.49,4.859
		c-3.812,1.957-7.98,3.526-12.501,4.707l-11.186-0.354l-9.819-3.492l-0.506-1.165l2.327,0.81c4.083,1.417,6.952,2.294,8.605,2.632
		C238.275,198.625,241.683,198.625,245.26,197.984"/>
	<path fill="#0D131A" d="M183.309,201.375c1.788,2.53,6.09,2.345,12.906-0.557l0.961-0.101l-1.366,1.063
		c-1.89,1.147-3.847,1.974-5.871,2.48c-3.341,0.81-5.669,0.27-6.984-1.62L183.309,201.375"/>
	<path fill="#0D131A" d="M245.969,192.214c3.846-1.35,8.267-3.61,13.26-6.782c5.062-3.171,8.621-5.955,10.679-8.351l0.354,1.62
		c-2.125,2.497-5.432,5.129-9.92,7.896c-4.453,2.699-9.093,4.96-13.918,6.782c-3.374,1.282-6.935,1.822-10.68,1.619l-8.655-1.468
		c-1.181-0.27-1.872-0.523-2.075-0.759c-0.203-0.271,0.219-0.388,1.266-0.354l7.187,1.113
		C237.989,194.002,242.155,193.564,245.969,192.214"/>
	<path fill="#0D131A" d="M223.193,192.366l0.961-1.013c0.811,5.534,2.548,11.017,5.214,16.449c1.553,3.171,3.762,6.866,6.629,11.084
		c1.959,2.902,2.971,4.774,3.038,5.618v0.102c-0.135,3.037-3.273,8.723-9.414,17.057c-5.871,7.996-10.156,12.821-12.855,14.475
		l-2.126,0.152c-1.181-0.675-3.796-4.438-7.845-11.286c-3.577-6.007-6.006-10.428-7.288-13.261
		c-0.979-2.06-0.743-7.205,0.708-15.437l2.48-11.844l1.165,0.303c-0.675,2.734-1.35,6.023-2.025,9.869
		c-1.012,5.636-1.519,9.938-1.519,12.906c0,1.653,0.168,2.818,0.506,3.493c1.35,2.969,3.796,7.49,7.339,13.563
		c3.813,6.58,6.208,10.174,7.187,10.781c0.574-0.033,1.923-1.164,4.048-3.392c2.396-2.497,5.079-5.702,8.048-9.616
		c2.902-3.812,5.298-7.524,7.187-11.135c1.755-3.307,2.684-5.719,2.784-7.237c-0.033-0.405-0.27-0.963-0.709-1.67l-1.771-2.734
		c-3.003-4.419-5.197-8.03-6.58-10.831C225.757,203.5,224.036,198.035,223.193,192.366"/>
	<path fill="#0D131A" d="M200.67,203.248l-6.479-7.643l2.176,0.557c1.755,2.43,3.999,4.943,6.731,7.542
		c3.138,3.037,5.112,4.285,5.922,3.745c1.653-1.046,4.1-3.357,7.339-6.934c3.812-4.286,6.479-8.082,7.996-11.388l1.873-0.911
		c-1.586,3.509-4.386,7.71-8.401,12.602c-3.645,4.454-6.31,7.204-7.997,8.25C208.312,210.014,205.259,208.073,200.67,203.248"/>
	<path fill="#0D131A" d="M208.059,207.651l1.265,0.051c-0.169,3.846,0.456,10.713,1.873,20.6c1.316,8.941,2.8,17.359,4.454,25.255
		c0.169,0.877,0.102,1.215-0.202,1.013c-0.337-0.203-0.675-0.844-1.012-1.924c-2.126-6.579-3.813-14.847-5.062-24.8
		C208.295,219.207,207.857,212.476,208.059,207.651"/>
	<path fill="#0D131A" d="M198.544,275.37l-0.607-0.91c0.81-5.028,3.054-8.958,6.731-11.793c3.645-2.834,8.048-4.032,13.21-3.593
		c3.171,0.27,6.428,1.333,9.769,3.188c3.408,1.89,6.241,4.218,8.503,6.985c1.989,2.395,3.307,5.011,3.948,7.844
		c0.573,2.43,0.69,5.214,0.354,8.353l-0.761,1.164c0.304-2.801,0.018-5.686-0.859-8.655c-0.912-3.104-2.347-5.837-4.303-8.199
		c-2.126-2.564-4.707-4.64-7.744-6.226c-2.935-1.519-5.938-2.413-9.01-2.683c-4.791-0.438-9.008,0.691-12.652,3.392
		C201.479,266.969,199.286,270.681,198.544,275.37"/>
	<path fill="#0D131A" d="M202.137,288.732c-0.101,0.338-0.236,0.253-0.405-0.253c-0.168-0.473-0.219-0.86-0.151-1.163
		c0.742-2.396,2.193-4.422,4.352-6.075c2.835-2.191,6.209-3.002,10.123-2.429c3.373,0.506,6.276,2.075,8.706,4.707
		c3.036,3.239,4.419,7.474,4.15,12.704l-1.165,0.961c0.304-4.453-0.861-8.418-3.492-11.894c-2.329-3.104-4.942-4.875-7.845-5.315
		c-4.015-0.606-7.373,0.221-10.072,2.481C204.347,284.077,202.947,286.168,202.137,288.732"/>
	<path fill="#0D131A" d="M269.858,178.853c-0.034-1.249-0.776-2.565-2.227-3.948c-1.924-1.788-6.091-4.876-12.503-9.262
		c-6.512,7.896-14.373,14.745-23.585,20.549c-10.966,6.883-21.207,10.376-30.722,10.477c-5.703,0.067-11.084-1.097-16.146-3.492
		c-0.81,1.653-1.232,3.441-1.266,5.365c-0.034,2.497,0.489,4.572,1.569,6.225c1.012,1.553,2.143,2.312,3.391,2.278
		c1.08,0,2.649-0.641,4.707-1.923c1.89-1.147,3.796-2.598,5.719-4.353l0.86,0.911c-1.754,1.585-3.492,2.953-5.213,4.1
		c-3.037,1.991-5.331,2.801-6.883,2.43c-0.708,2.801-1.215,5.517-1.518,8.147c-0.472,4.117-0.271,7.02,0.607,8.707
		c0.843,1.653,2.042,3.137,3.593,4.453c0.743,0.675,1.417,1.181,2.024,1.519l-0.607,2.075c-0.371,1.788-0.574,3.712-0.607,5.77
		c-0.033,6.513,1.788,13.176,5.466,19.992c0.641-3.442,1.923-7.001,3.847-10.68c1.687-3.239,3.408-5.736,5.163-7.49l0.253,0.658
		c0.169,0.473,0.203,0.775,0.101,0.911c-1.923,2.666-3.593,5.432-5.011,8.3c-2.261,4.521-3.391,8.385-3.391,11.591
		c-0.068,6.073,1.383,13.97,4.353,23.687c3.206,10.662,6.461,16.466,9.768,17.41c3.341,0.945,8.823-1.399,16.449-7.034
		c7.93-5.872,14.627-12.806,20.094-20.802l0.202-0.304h0.404c2.835-0.067,5.872-2.024,9.11-5.871
		c5.062-6.007,8.689-14.273,10.882-24.801c2.564-12.484,2.564-26.285,0-41.401l-0.051-0.253l0.151-0.253
		c2.026-3.678,2.919-6.107,2.684-7.288c-0.303-1.485-2.345-3.29-6.124-5.416l-1.214,0.202c-0.676,0.067-0.728-0.168-0.153-0.708
		c0.844-0.742,1.991-2.328,3.441-4.758C269.098,181.872,269.891,179.966,269.858,178.853 M258.521,146.561
		c-0.271-2.936-1.266-6.09-2.986-9.464c-2.093-4.083-4.91-7.727-8.453-10.933c-7.153-6.445-15.369-10.881-24.648-13.311
		c-8.131-2.092-15.471-2.345-22.016-0.759c-8.436,2.092-15.656,6.31-21.663,12.653c-4.184,4.42-7.542,9.6-10.072,15.538
		c-2.666,6.242-4.099,12.501-4.302,18.778c-0.236,6.31,0.793,11.455,3.087,15.437c2.329,4.083,5.601,7.963,9.819,11.641
		c2.531,2.227,4.994,4.083,7.39,5.567c5.129,2.294,10.511,3.391,16.146,3.29c5.77-0.067,12.164-1.585,19.182-4.555
		c6.815-2.868,13.228-6.664,19.233-11.388c6.209-4.926,11.017-10.123,14.425-15.589
		C257.406,157.527,259.027,151.893,258.521,146.561 M249.208,125.557c3.677,3.34,6.612,7.154,8.805,11.438
		c1.789,3.543,2.836,6.867,3.139,9.971l0.102,1.974c0,5.77-1.67,10.848-5.01,15.234c6.039,4.184,10.003,7.17,11.894,8.958
		c2.159,2.059,3.238,4.049,3.238,5.973c0,0.944-0.607,2.648-1.822,5.111c-1.079,2.16-1.956,3.678-2.631,4.555
		c4.217,2.463,6.326,4.859,6.326,7.188c0,0.843-0.27,1.856-0.81,3.037l-2.126,4.049c1.45,8.537,2.177,16.214,2.177,23.029
		c0,10.155-1.351,19.333-4.049,27.533c-2.262,6.984-5.331,12.788-9.212,17.411c-2.937,3.407-6.191,5.229-9.769,5.466
		c-5.533,7.996-12.366,15.065-20.499,21.207c-8.231,6.208-14.238,8.772-18.017,7.693c-3.07-0.877-6.411-6.664-10.021-17.36
		c-3.577-10.696-5.196-19.621-4.859-26.774c-2.497-4.319-4.234-7.93-5.213-10.831c-0.911-2.699-1.367-5.415-1.367-8.148
		c0-1.924,0.186-4.101,0.557-6.529c0.304-2.093,0.574-3.492,0.81-4.201c-2.294-1.687-4.167-3.441-5.618-5.264
		c-1.215-1.552-1.687-4.285-1.417-8.199c0.27-3.61,1.046-7.104,2.328-10.477c-1.654-1.214-2.817-2.362-3.493-3.442
		c-0.742-1.147-1.113-2.479-1.113-3.998c0-1.147,0.186-2.514,0.557-4.099c0.371-1.519,0.776-2.734,1.214-3.645
		c-8.098-4.96-14.02-10.679-17.765-17.158c-2.193-3.779-3.29-8.655-3.29-14.627c0-6.208,1.67-13.193,5.011-20.954
		c2.598-6.107,6.057-11.455,10.375-16.044c6.208-6.546,13.683-10.898,22.422-13.059c6.04-1.518,13.142-1.349,21.307,0.507
		C231.865,113.443,241.143,118.269,249.208,125.557"/>
	<path fill="#0D131A" d="M259.076,147.827l0.254,2.479c-6.613,13.868-17.243,25.458-31.887,34.771
		c-5.096,3.239-10.19,5.888-15.285,7.946c-4.184,1.687-7.052,2.53-8.604,2.53c-3.003,0-7.963-1.164-14.88-3.492
		c-6.31-2.125-10.19-3.711-11.641-4.758l-0.202-1.417c1.451,1.046,5.45,2.699,11.995,4.959c7.086,2.463,12.012,3.695,14.779,3.695
		c1.282,0,3.915-0.81,7.896-2.43c4.96-1.99,9.887-4.521,14.779-7.591c5.837-3.678,11.506-8.418,17.006-14.222
		C250,163.247,255.264,155.756,259.076,147.827"/>
	<path fill="#0D131A" d="M187.055,184.015l-5.872,0.607c-2.53-0.067-4.74-0.388-6.63-0.961c-4.96-4.117-8.284-9.144-9.971-15.083
		c-0.506-1.856-0.827-3.677-0.962-5.466l-0.05-2.177c0.641,0,1.805,0.743,3.492,2.227l6.479,6.276l10.122,9.262
		C187.004,181.838,188.135,183.61,187.055,184.015"/>
	<path fill="#0D131A" d="M226.583,151.218c1.855-0.979,3.661-1.417,5.416-1.316c1.721,0.101,3.863,0.759,6.427,1.974
		c2.835,1.35,4.674,3.071,5.517,5.163c1.013,2.463,0.422,5.027-1.77,7.693c-2.362,2.868-7.137,6.191-14.324,9.971
		c-7.153,3.779-11.743,5.416-13.767,4.909c-0.979-0.236-1.333-1.619-1.063-4.15c0.236-2.429,0.978-5.264,2.227-8.502
		C218.384,158.826,222.164,153.58,226.583,151.218"/>
	<path fill="#FFFFFF" d="M224.559,172.323c-0.573,1.754-1.924,3.138-4.049,4.15c-1.958,0.912-3.661,1.165-5.112,0.759
		c-0.81-0.202-1.215-0.793-1.215-1.771c-0.033-1.046,0.372-2.851,1.215-5.416c0.607-1.923,1.519-3.408,2.732-4.454
		c1.25-1.08,2.531-1.451,3.848-1.113c1.35,0.371,2.261,1.299,2.732,2.783C225.217,168.78,225.165,170.467,224.559,172.323"/>
	<path fill="#FFFFFF" d="M180.88,177.435c1.687,1.687,2.683,2.868,2.986,3.543c0.27,0.54,0.186,1.012-0.253,1.417
		c-0.708,0.708-1.687,0.945-2.936,0.708c-1.282-0.27-2.446-0.944-3.492-2.024c-1.113-1.114-1.822-2.244-2.126-3.392
		c-0.337-1.215-0.152-2.159,0.557-2.834c0.405-0.405,0.961-0.473,1.67-0.203C178.164,174.989,179.362,175.917,180.88,177.435"/>
</g>
</svg>
