<?xml version="1.0" encoding="utf-8"?>
<!-- Generator: Adobe Illustrator 16.0.0, SVG Export Plug-In . SVG Version: 6.00 Build 0)  -->
<!DOCTYPE svg PUBLIC "-//W3C//DTD SVG 1.1//EN" "http://www.w3.org/Graphics/SVG/1.1/DTD/svg11.dtd">
<svg version="1.1" id="Layer_1" xmlns="http://www.w3.org/2000/svg" xmlns:xlink="http://www.w3.org/1999/xlink" x="0px" y="0px"
	 width="456px" height="415px" viewBox="0 0 456 415" enable-background="new 0 0 456 415" xml:space="preserve">
<g>
	<path fill="#E9EFF8" d="M215.878,176.025l7.021,10.723l-31.733,69.234c-11.647-1.923-19.195-11.865-22.643-29.827
		c-1.27-6.64-1.778-13.443-1.524-20.411c0.218-6.313,0.944-10.867,2.177-13.661L215.878,176.025"/>
	<path fill="#C9CFD7" d="M215.878,176.025l7.021,10.723l-21.119,45.993c-0.29-4.79-0.889-8.744-1.796-11.865
		c-1.125-3.846-2.867-6.949-5.226-9.308c-1.959-2.613-5.697-4.7-11.212-6.259c-3.702-1.016-9.163-1.978-16.383-2.885
		c0.399-4.754,1.07-8.201,2.014-10.341L215.878,176.025"/>
	<path fill="#E9EFF8" d="M177.941,89.374c4.717,6.06,7.91,10.777,9.579,14.151l24.711,77.453l-1.959,0.381
		c-18.724,12.047-35.216,14.877-49.477,8.491c-4.79-2.178-9.053-5.28-12.791-9.308c-2.467-2.613-4.282-5.08-5.443-7.402
		l-28.467-67.71c-1.379-5.152-2.195-10.868-2.449-17.146c-0.508-12.555,1.996-21.608,7.511-27.16
		c9.87-9.87,23.532-6.967,40.985,8.709C166.166,75.277,172.098,81.79,177.941,89.374"/>
	<path fill="#C9CFD7" d="M181.914,94.653c2.866,4.137,4.735,7.094,5.605,8.872l24.711,77.453l-1.959,0.381
		c-13.136,8.454-25.273,12.337-36.413,11.647c8.346-11.684,12.664-27.232,12.954-46.646
		C186.921,135.729,185.288,118.494,181.914,94.653"/>
	<path fill="#E9EFF8" d="M273.954,230.563l-25.201-53.667l4.517-13.172l86.761-4.518c2.541,3.701,4.937,8.763,7.186,15.186
		c2.794,7.947,4.499,15.767,5.116,23.459c1.597,21.336-5.461,37.139-21.174,47.409c-12.119,7.91-25.29,7.837-39.516-0.218
		c-4.426-2.504-8.708-5.679-12.846-9.526L273.954,230.563"/>
	<path fill="#C9CFD7" d="M284.676,240.47c-2.758-2.069-5.37-4.336-7.837-6.804l-2.885-3.103l-25.201-53.667l4.517-13.172
		l86.761-4.518l3.157,5.551c-6.495,7.439-14.279,13.499-23.351,18.18c-8.854,4.608-18.233,7.566-28.139,8.872
		C292.532,211.296,290.192,227.516,284.676,240.47"/>
	<path fill="#E9EFF8" d="M362.021,43.98c6.713,5.951,10.56,17.998,11.538,36.141c1.016,18.723-3.192,36.395-12.627,53.014
		c-8.02,14.152-16.892,23.477-26.616,27.977c-9.034,4.173-20.083,7.221-33.147,9.145c-14.515,2.141-26.67,2.032-36.468-0.327
		l-18.343-25.908c0.943-7.875,4.047-16.91,9.308-27.106c5.044-9.761,11.521-19.522,19.433-29.283
		c17.416-21.554,35.051-36.086,52.904-43.598C343.387,37.539,354.728,37.521,362.021,43.98"/>
	<path fill="#C9CFD7" d="M272.974,147.069c6.387,7.33,11.793,15.494,16.221,24.493c-9.435,0.581-17.599,0.036-24.494-1.633
		l-8.927-10.288l-9.416-15.621c0.581-4.79,1.997-10.142,4.246-16.057C258.877,133.117,266.333,139.485,272.974,147.069"/>
	<path fill="#6791B9" d="M154.536,238.837c0.581-1.307,2.287-2.758,5.117-4.354c2.939-1.633,4.645-2.83,5.116-3.593
		c0.617-1.85,1.234-3.266,1.851-4.245c1.125-1.814,3.465-3.356,7.021-4.627c4.826-1.705,11.249-5.77,19.268-12.191
		c9.906-7.911,17.127-15.894,21.663-23.949l11.594,1.251l-28.793,32.114c-4.753,4.898-9.96,8.89-15.621,11.974
		c-3.956,2.142-7.529,3.574-10.723,4.3c-3.81,0.871-5.353,3.521-4.626,7.947c0.29,1.669,0.236,3.466-0.164,5.389l-1.143,4.136
		c-0.218,0.799-0.2,3.121,0.055,6.968c0.29,4.646,0.381,8.056,0.272,10.232c-0.327,6.241-2.25,12.374-5.769,18.396
		c-3.956,6.714-6.314,12.229-7.076,16.548c-1.089,6.132-0.544,11.085,1.633,14.859c1.161,1.959,2.703,3.937,4.626,5.932l1.742,4.3
		c0.436,1.379,0.291,2.142-0.435,2.286c-1.379,0.291-4.01,1.144-7.892,2.559c-5.116,1.887-9.743,3.9-13.88,6.042
		c-3.483,1.813-8.382,6.059-14.696,12.736c-3.773,3.991-7.711,8.49-11.811,13.498c-0.327,0.4-0.689,0.453-1.088,0.164
		c-0.327-0.254-0.526-0.582-0.599-0.979l-0.926-4.736c-0.182-1.597-0.272-4.318-0.272-8.165c0-2.865,3.973-7.021,11.92-12.463
		l11.865-7.294c5.262-6.821,8.564-11.666,9.906-14.532c0.871-1.888,0.835-4.409-0.108-7.566c-0.544-1.923-1.724-4.79-3.538-8.6
		c-1.379-2.938-1.524-7.33-0.436-13.172c1.125-6.205,3.356-12.156,6.695-17.853c2.758-4.754,4.953-11.34,6.586-19.758
		L154.536,238.837"/>
	<path fill="#567C9D" d="M163.898,243.627c0.435-0.653,0.907-1.126,1.415-1.416l0.925-0.436l0.164,1.688
		c0.29,1.669,0.236,3.466-0.164,5.389l-1.143,4.136c-0.218,0.799-0.2,3.121,0.055,6.968c0.29,4.646,0.381,8.056,0.272,10.232
		c-0.327,6.241-2.25,12.374-5.769,18.396c-3.956,6.714-6.314,12.229-7.076,16.548c-1.089,6.132-0.544,11.085,1.633,14.859
		c1.161,1.959,2.703,3.937,4.626,5.932l1.742,4.3c0.436,1.379,0.291,2.142-0.435,2.286c-1.379,0.291-4.01,1.144-7.892,2.559
		c-5.116,1.887-9.743,3.9-13.88,6.042c-3.338,1.705-11.466,9.58-24.384,23.622c-0.544-0.472-0.944-1.071-1.198-1.797
		c-0.508-1.378,0.2-3.937,2.123-7.675c1.814-3.519,6.858-8.509,15.131-14.968c9.834-7.655,15.403-12.192,16.71-13.606
		c2.431-2.649,3.157-6.912,2.177-12.791l-0.979-6.641c-0.146-2.395,0.236-4.372,1.143-5.933c1.996-3.41,4.3-10.359,6.912-20.846
		c2.504-10.016,4.137-18.488,4.899-25.419C161.521,249.469,162.519,245.658,163.898,243.627"/>
	<path fill="#567C9D" d="M214.572,185.877l11.594,1.251l-28.793,32.114c-3.447,3.556-7.148,6.641-11.104,9.253
		c1.959-3.665,2.866-6.822,2.722-9.472c-0.073-2.431-0.962-3.863-2.667-4.299c5.588-3.883,10.686-8.092,15.294-12.628
		C207.241,196.617,211.559,191.211,214.572,185.877"/>
	<path fill="#6791B9" d="M165.476,186.476c-5.334-6.096-9.308-11.303-11.92-15.621c-1.923-3.157-1.85-5.261,0.218-6.313l3.702-0.6
		l4.844,6.423c3.918,4.5,7.583,7.312,10.995,8.437c3.665,1.162,6.114,3.03,7.348,5.606c0.617,1.27,1.252,4.228,1.905,8.872
		c1.27-4.318,5.062-10.56,11.375-18.724c4.391-5.625,7.856-9.707,10.396-12.247l2.014,8.491c-0.436,4.137-2.758,9.307-6.967,15.512
		c-2.685,3.956-5.751,7.82-9.198,11.594c-0.943,2.286-2.34,3.393-4.191,3.32c-1.343-0.073-3.81-0.962-7.403-2.667
		C175.691,197.216,171.318,193.188,165.476,186.476"/>
	<path fill="#567C9D" d="M204.339,162.309l2.014,8.491c-0.363,3.847-2.395,8.6-6.097,14.261c-2.503,3.846-5.479,7.71-8.926,11.593
		c0.944-3.955,1.361-6.822,1.252-8.6c-0.145-2.939-1.47-5.008-3.974-6.205c2.649-3.883,5.896-8.128,9.743-12.736
		C201.291,165.556,203.286,163.289,204.339,162.309"/>
	<path fill="#567C9D" d="M157.475,163.941l2.286,3.267c1.887,2.503,3.811,4.681,5.77,6.531c-3.774-1.379-6.169-0.036-7.185,4.028
		c-2.177-2.903-3.774-5.208-4.79-6.913c-1.923-3.157-1.85-5.261,0.218-6.313L157.475,163.941"/>
	<path fill="#DBDCDC" d="M84.812,82.135l71.683,50.782l8.926,22.425c-1.088,3.302-3.193,6.513-6.313,9.634
		c-4.79,4.717-11.049,8.001-18.778,9.852c-3.048,0.834-6.005,1.143-8.872,0.925c-3.012-0.218-4.99-0.961-5.933-2.231
		c-1.053-1.379-8.836-16.057-23.351-44.033c-14.587-28.122-22.207-43.145-22.86-45.067c-0.689-2.105-0.544-3.411,0.436-3.919
		C80.802,79.921,82.49,80.465,84.812,82.135"/>
	<path fill="#B4B4B5" d="M93.902,88.612l62.594,44.305l8.926,22.425c-1.088,3.302-3.193,6.513-6.313,9.634
		c-4.718,4.645-10.85,7.911-18.397,9.797c0.907-0.29,2.25-1.052,4.028-2.286c4.282-2.866,8.019-6.931,11.212-12.192
		C154.464,158.154,133.78,134.26,93.902,88.612"/>
	<path fill="#F9BE00" d="M269.654,209.118c5.189,12.482,6.641,25.02,4.354,37.61c-2.066,11.43-6.82,21.391-14.259,29.882
		c-7.221,8.273-15.495,13.498-24.82,15.676c-9.833,2.322-18.923,0.671-27.269-4.954c-7.874-5.296-13.044-12.718-15.513-22.261
		c-2.213-8.454-2.195-17.979,0.055-28.575c2.068-9.652,5.661-18.959,10.777-27.923c5.007-8.708,10.523-15.457,16.546-20.247
		l32.494-4.898L269.654,209.118"/>
	<path fill="#D7A400" d="M269.654,209.118c4.281,10.306,6.006,20.737,5.172,31.296c-0.763,9.616-3.539,18.543-8.328,26.78
		c-4.572,7.874-10.379,14.134-17.418,18.777c-7.111,4.754-14.44,7.167-21.989,7.239c1.451-1.633,2.141-4.716,2.068-9.253
		c-0.108-4.898,0.472-8.473,1.742-10.723c5.951-1.124,11.285-6.295,16.002-15.511c4.5-8.891,7.094-18.743,7.783-29.557
		c0.689-11.721-1.197-21.208-5.66-28.466c-5.226-8.418-13.336-12.464-24.331-12.138l27.324-4.136L269.654,209.118"/>
	<path fill="#152139" d="M275.315,234.81c0.327,6.276-0.417,13.026-2.231,20.247c0.29-6.495-1.397-13.19-5.062-20.085
		c-3.738-7.003-8.581-12.482-14.532-16.438c-8.201-5.517-18.197-8.001-29.991-7.456c-12.192,0.543-21.155,4.209-26.888,10.994
		c1.234-3.229,2.794-6.623,4.681-10.178l2.395-4.409c2.976-3.883,7.602-6.876,13.88-8.98c6.531-2.141,13.298-2.758,20.303-1.851
		c7.873,1.016,14.84,3.865,20.899,8.545c6.931,5.406,12.102,12.882,15.512,22.425L275.315,234.81"/>
	<path fill="#152139" d="M209.238,227.569c7.729-2.286,15.766-2.322,24.112-0.109c8.817,2.323,16.093,6.731,21.826,13.227
		c6.459,7.294,10.087,16.348,10.886,27.16l-5.661,7.62c-4.463,5.553-8.382,9.49-11.757,11.812c4.173-9,3.812-17.146-1.087-24.439
		c-4.32-6.387-10.978-10.85-19.977-13.39c-8.854-2.505-16.674-2.269-23.459,0.708c-7.584,3.338-11.485,9.361-11.702,18.069
		c-2.032-3.446-2.794-9.106-2.287-16.981l1.361-10.776C195.303,234.265,201.218,229.964,209.238,227.569"/>
	<path fill="#0B132A" d="M274.28,227.624l0.927,7.186c0.253,6.276-0.526,13.026-2.341,20.247c0.29-6.567-1.252-13.118-4.627-19.649
		c-3.411-6.748-8.073-12.102-13.988-16.056l-0.544-5.227c-0.653-4.498-1.887-9.198-3.702-14.097
		c5.335,2.359,9.979,5.697,13.935,10.016C268.366,214.833,271.813,220.692,274.28,227.624"/>
	<path fill="#0B132A" d="M248.971,286.57c4.427-9.471,3.248-18.197-3.538-26.18c4.21-6.314,6.804-13.57,7.784-21.771
		c7.691,7.584,11.974,17.326,12.845,29.228l-5.661,7.839C255.974,281.237,252.163,284.865,248.971,286.57"/>
	<path fill="#F9BE00" d="M235.527,284.829c-1.16,3.411-6.877,12.319-17.145,26.726c-10.414,14.659-16.166,21.518-17.254,20.573
		c-1.089-0.907-0.908-9.96,0.544-27.16c1.415-16.801,2.704-26.906,3.865-30.317c1.052-3.12,3.411-5.279,7.076-6.477
		s7.565-1.089,11.703,0.327c4.173,1.415,7.348,3.719,9.525,6.912C236.016,278.57,236.579,281.708,235.527,284.829"/>
	<path fill="#D7A400" d="M230.465,272.312c2.358,1.486,3.991,3.338,4.898,5.551c0.908,2.213,0.961,4.535,0.163,6.967
		c-1.16,3.338-5.442,10.469-12.845,21.391c-8.273,12.155-14.986,20.447-20.139,24.875c4.826-7.548,9.707-16.274,14.641-26.181
		C223.571,292.178,227.997,281.31,230.465,272.312"/>
	<path fill="#F9BE00" d="M226.437,136.237l2.994,0.109c2.504,0.29,4.936,0.853,7.294,1.687c7.547,2.758,13.026,7.983,16.437,15.676
		c4.318,9.616,4.481,18.27,0.49,25.963c-4.209,8.056-11.739,12.156-22.588,12.301c-10.015,0.109-17.508-4.753-22.479-14.587
		c-1.923-3.846-3.048-7.765-3.375-11.756c-0.327-3.847,0.164-6.713,1.469-8.6L226.437,136.237"/>
	<path fill="#D7A400" d="M226.437,136.237l2.994,0.109c2.504,0.29,4.936,0.853,7.294,1.687c7.547,2.758,13.026,7.983,16.437,15.676
		c3.629,8.056,4.245,15.603,1.851,22.643c-2.432,7.257-7.455,12.029-15.077,14.315c3.193-3.883,4.898-8.473,5.117-13.771
		c0.218-5.043-0.943-9.815-3.484-14.315c-2.648-4.645-6.312-8.11-10.993-10.396c-5.189-2.503-10.978-3.175-17.363-2.014
		L226.437,136.237"/>
	<path fill="#6791B9" d="M295.289,226.372l-17.036-9.961c-6.604-3.737-13.172-9.833-19.703-18.288
		c-5.406-6.931-9.507-13.589-12.301-19.976c-0.399-1.016-0.181-1.833,0.653-2.449c0.871-0.617,1.65-0.472,2.34,0.436
		c4.826,6.531,10.434,12.464,16.819,17.798c4.535,3.81,11.938,8.219,22.207,13.226l17.689,8.599
		c1.777,1.125,2.631,2.286,2.558,3.484c-0.145,1.778,0.545,3.683,2.068,5.715c1.197,1.633,2.722,3.43,4.572,5.388
		c1.706,1.815,4.027,4.754,6.968,8.818c3.519,4.826,6.585,13.844,9.198,27.051c1.959,9.907,3.302,19.903,4.028,29.991
		c0.47,6.93,0.126,12.247-1.035,15.947c-1.125,3.483-1.561,6.314-1.307,8.491c1.09,9.471,7.112,17.399,18.071,23.786
		c3.266,1.887,7.294,3.791,12.084,5.715c4.57,1.85,7.057,2.902,7.456,3.157c1.924,1.233,3.175,4.935,3.756,11.103
		c0.29,3.085,0.381,6.042,0.271,8.872c-1.051-1.415-2.357-2.866-3.918-4.354c-3.047-2.976-5.715-4.608-8.001-4.898
		c-1.813-0.218-5.751-2.85-11.811-7.893c-6.459-5.406-12.102-8.764-16.928-10.069c-2.903-0.835-6.169-1.216-9.798-1.144
		l-6.368-0.544c-1.452-0.581-1.669-1.996-0.653-4.246c0.509-1.125,1.941-3.447,4.3-6.967c1.742-2.611,2.759-5.243,3.049-7.892
		c0.29-2.903-0.29-6.097-1.741-9.579l-6.26-14.098c-2.722-6.351-4.154-10.886-4.3-13.607c-0.073-1.343,0.308-5.569,1.143-12.682
		c0.652-5.951,0.6-10.197-0.163-12.737c-1.125-3.846-1.833-6.984-2.122-9.416c-0.364-3.193-0.092-5.77,0.815-7.729
		c0.87-1.888,0.762-4.481-0.326-7.784c-0.762-2.285-1.869-4.645-3.321-7.075c-0.798-1.343-1.759-1.904-2.884-1.688l-2.721,1.035
		C301.985,230.056,299.535,228.876,295.289,226.372"/>
	<path fill="#567C9D" d="M268.566,195.946c-4.064-1.887-7.747-1.615-11.05,0.816c-4.898-6.459-8.654-12.664-11.267-18.615
		c-0.399-1.016-0.181-1.833,0.653-2.449c0.871-0.617,1.65-0.472,2.34,0.436c4.826,6.531,10.434,12.464,16.819,17.798
		L268.566,195.946"/>
	<path fill="#567C9D" d="M306.829,223.216c0.544-0.835-1.233-3.121-5.334-6.858c-3.774-3.484-6.858-5.915-9.253-7.293l8.382,3.918
		c2.648,1.234,4.426,2.159,5.334,2.775c1.777,1.125,2.631,2.286,2.558,3.484c-0.145,1.778,0.545,3.683,2.068,5.715
		c1.197,1.633,2.722,3.43,4.572,5.388c1.706,1.815,4.027,4.754,6.968,8.818c3.519,4.826,6.585,13.844,9.198,27.051
		c1.959,9.907,3.302,19.903,4.028,29.991c0.47,6.93,0.126,12.247-1.035,15.947c-1.125,3.483-1.561,6.314-1.307,8.491
		c1.09,9.471,7.112,17.399,18.071,23.786c3.266,1.887,7.294,3.791,12.084,5.715c4.57,1.85,7.057,2.902,7.456,3.157
		c1.924,1.233,3.192,4.935,3.81,11.103c0.291,3.085,0.399,6.042,0.327,8.872c-1.089-1.415-2.413-2.866-3.974-4.354
		c-3.085-2.976-5.77-4.608-8.056-4.898c-0.907-0.109-1.541-0.509-1.905-1.198l-0.815-2.504c-0.835-2.866-2.831-5.243-5.988-7.129
		c-2.612-1.524-6.168-4.101-10.668-7.73c-3.446-2.757-5.896-4.299-7.348-4.626c-2.177-0.472-4.01-2.431-5.498-5.878
		c-1.597-3.702-2.122-7.729-1.577-12.083c0.508-3.919,0.544-8.909,0.108-14.968l-1.252-12.192
		c-0.617-5.118-1.524-11.014-2.722-17.69c-1.233-6.677-2.195-12.863-2.885-18.56c-0.326-3.412-1.125-7.62-2.395-12.629
		c-1.487-5.696-3.048-10.033-4.681-13.008c-1.09-1.996-3.193-4.154-6.314-6.478C306.684,225.755,306.031,224.377,306.829,223.216"/>
	<path fill="#6791B9" d="M299.698,157.356c-0.436,0.907-0.943,4.082-1.524,9.525c-0.507,5.044-0.779,8.908-0.815,11.593
		c0,1.488-0.944,3.339-2.831,5.552L290.447,188l-1.416,3.156c-0.473,1.052-1.433,0.78-2.884-0.816
		c-3.193-3.52-8.91-6.604-17.146-9.253l-8.381-2.231c-2.178-0.689-3.884-1.923-5.117-3.701c-2.285-3.266-4.88-6.659-7.784-10.178
		c-4.027-4.899-7.274-8.219-9.741-9.961c-0.907-0.653-1.324-1.306-1.252-1.959c0.072-0.653,0.598-1.053,1.577-1.197
		c2.649-0.472,6.405,0.907,11.269,4.136c5.587,3.738,16.69,12.21,33.31,25.418c-0.108-0.979-0.127-2.086-0.055-3.32
		c0.182-2.467,0.745-4.318,1.688-5.552c0.871-1.125,2.45-4.318,4.735-9.579c2.358-5.48,3.755-8.564,4.191-9.253l4.137,0.109
		C299.499,155.088,300.207,156.267,299.698,157.356"/>
	<path fill="#567C9D" d="M262.906,165.847c-3.521-1.125-6.133-1.306-7.839-0.544c-1.777,0.834-2.595,2.812-2.449,5.933
		c-6.06-8.237-10.941-13.644-14.641-16.22c-0.907-0.653-1.324-1.306-1.252-1.959c0.072-0.653,0.598-1.053,1.577-1.197
		c2.649-0.472,6.405,0.907,11.269,4.136L262.906,165.847"/>
	<path fill="#567C9D" d="M299.698,157.356c-0.436,0.907-0.943,4.082-1.524,9.525c-0.507,5.044-0.779,8.908-0.815,11.593
		c0,1.053-0.509,2.341-1.524,3.865c0.618-3.411,0.127-6.731-1.47-9.961c-1.597-3.157-3.773-5.226-6.531-6.205l3.212-7.403
		l2.395-5.062l4.137,0.109C299.499,155.088,300.207,156.267,299.698,157.356"/>
	<path fill="#DBDCDC" d="M338.725,43.98c-0.108,11.212-2.014,30.789-5.716,58.729c-3.447,25.691-5.75,40.278-6.913,43.761
		c-1.269,3.774-5.352,6.858-12.245,9.253c-6.604,2.322-11.975,2.867-16.11,1.633c-6.678-1.959-11.613-5.334-14.806-10.124
		c-3.193-4.717-4.21-10.142-3.048-16.274c0.943-4.898,8.927-19.867,23.948-44.904c14.405-24.021,23.695-38.427,27.868-43.217
		c3.736-4.282,5.842-6.404,6.313-6.368C338.525,36.505,338.761,39.008,338.725,43.98"/>
	<path fill="#B4B4B5" d="M337.908,35.924c0.399-0.327,0.672,1.052,0.816,4.136c0.108,2.867,0.072,5.588-0.108,8.165
		c-1.888,23.368-3.338,39.824-4.354,49.367c-2.577,23.985-5.298,40.278-8.166,48.877c-1.305,3.846-5.424,7.021-12.354,9.525
		c-6.749,2.431-12.083,2.885-16.001,1.361l-3.647-1.633c2.612,0.653,4.79,0.653,6.531,0c1.706-0.617,3.139-1.887,4.3-3.81
		l16.273-53.939C330.85,65.534,336.42,44.851,337.908,35.924"/>
	<path fill="#F9BE00" d="M184.146,103.58l14.369-0.708c4.318,0.327,7.547,0.998,9.688,2.014l13.879,6.26l-5.17,37.284
		c-3.375,4.064-7.747,8.418-13.117,13.062c-6.604,5.734-11.14,8.528-13.607,8.382c-1.561-0.072-4.191-1.542-7.892-4.409
		c-4.101-3.157-7.892-6.858-11.376-11.104c-9.616-11.684-12.99-22.461-10.124-32.331
		C163.662,112.125,171.446,105.975,184.146,103.58"/>
	<path fill="#D7A400" d="M206.407,124.752c-1.778-9.362-5.933-16.728-12.464-22.098l8.546,0.653
		c2.503,0.436,4.408,0.961,5.715,1.578l13.879,6.26l-5.17,37.284c-3.375,4.064-7.747,8.418-13.117,13.062
		c-6.604,5.734-11.14,8.528-13.607,8.382l-0.653-0.109l7.892-9.362c3.012-3.701,5.262-7.04,6.75-10.015
		C207.369,142.152,208.113,133.606,206.407,124.752"/>
	<path fill="#E85377" d="M160.469,123.338c1.451,0.254,3.792,5.243,7.021,14.968c3.012,9.108,4.626,15.113,4.844,18.016
		c0.182,2.358-1.542,2.521-5.17,0.49c-3.629-2.032-6.405-4.826-8.328-8.382c-3.229-5.915-4.5-11.757-3.81-17.526
		C155.679,125.388,157.493,122.866,160.469,123.338"/>
	<path fill="#E85377" d="M214.572,116.099h7.239c4.717,4.282,6.641,9.797,5.77,16.546c-0.726,5.697-2.649,9.852-5.77,12.464
		c-4.935,4.245-9.035,6.676-12.301,7.293c-3.846,0.726-6.223-1.143-7.13-5.606c-1.343-6.423-0.726-12.864,1.851-19.323
		C206.806,121.052,210.254,117.26,214.572,116.099"/>
	<path fill="#6791B9" d="M175.328,114.139c0.98,2.649,0.926,4.354-0.164,5.116c-1.088,0.762-2.14-0.182-3.156-2.831
		c-0.944-2.503-4.282-7.475-10.015-14.913c-5.588-7.257-9.18-11.412-10.777-12.464c-1.271-0.834-5.026,2.213-11.267,9.144
		c-4.536,5.043-8.8,10.251-12.791,15.621c-1.633,2.213-3.539,5.062-5.716,8.545c-1.777,2.54-3.61,4.082-5.497,4.626
		c-2.25,0.653-4.209-0.671-5.878-3.973c-1.669-3.266-1.905-6.005-0.707-8.219c1.161-2.141,6.168-8.074,15.022-17.798
		c8.89-9.688,14.66-15.531,17.309-17.526c2.576-1.959,4.808-2.812,6.695-2.558c1.814,0.254,3.647,1.542,5.498,3.864
		c2.576,3.302,6.295,8.618,11.158,15.948C170.81,105.467,174.24,111.272,175.328,114.139"/>
	<path fill="#567C9D" d="M175.328,114.139c0.98,2.649,0.926,4.354-0.164,5.116c-1.088,0.762-2.14-0.182-3.156-2.831
		c-0.944-2.503-4.282-7.475-10.015-14.913c-5.588-7.257-9.18-11.412-10.777-12.464c-1.271-0.834-5.026,2.213-11.267,9.144
		c-4.536,5.043-8.8,10.251-12.791,15.621c-1.633,2.213-3.539,5.062-5.716,8.545c-1.777,2.54-3.61,4.082-5.497,4.626
		c0.436-0.472,0.889-1.27,1.361-2.395c0.944-2.323,1.216-4.936,0.816-7.838c-0.363-3.048,3.81-9.688,12.519-19.922
		c7.511-8.817,12.773-14.351,15.785-16.601c1.524-1.161,3.139-1.506,4.844-1.034c1.197,0.363,2.068,0.89,2.613,1.579
		c2.576,3.302,6.295,8.618,11.158,15.948C170.81,105.467,174.24,111.272,175.328,114.139"/>
	<path fill="#6791B9" d="M197.753,68.908c0.581-3.374,1.597-4.826,3.048-4.354c1.125,0.362,2.304,1.705,3.538,4.028
		c8.854,16.365,15.24,27.704,19.159,34.018c2.177,3.483,2.268,7.167,0.272,11.049c-1.597,3.084-3.556,5.116-5.878,6.096
		c-1.379,0.544-4.373-3.973-8.981-13.553l-6.532-14.532l-2.449,10.124l-3.864,14.478c-0.544,1.633-1.361,2.286-2.449,1.959
		c-1.089-0.363-1.47-1.288-1.143-2.776l2.558-22.534C196.519,78.796,197.426,70.795,197.753,68.908"/>
	<path fill="#567C9D" d="M223.498,102.6c2.177,3.483,2.268,7.167,0.272,11.049c-1.597,3.084-3.556,5.116-5.878,6.096
		c-0.327,0.109-1.579-1.288-3.756-4.191c-2.286-3.084-3.628-5.425-4.028-7.021c4.754,4.463,7.62,3.919,8.6-1.633
		c0.907-5.116,0.09-10.668-2.449-16.655L223.498,102.6"/>
	<path fill="#ED8599" d="M214.19,141.517l7.348-0.272c1.996,0.436,2.522,1.325,1.579,2.667c-1.56,2.25-3.992,4.264-7.293,6.042
		c-3.084,1.633-5.715,2.449-7.893,2.449c-2.649,0-4.227-1.252-4.735-3.755c-0.29-1.633,0.762-3.121,3.157-4.463
		C208.421,142.987,211.033,142.097,214.19,141.517"/>
	<path fill="#ED8599" d="M162.428,153.328c-0.653-0.871-0.689-1.705-0.108-2.503c0.544-0.69,1.451-1.198,2.721-1.524
		c3.157-0.762,5.135-0.09,5.933,2.014c0.798,2.068,1.216,3.628,1.252,4.681c0.036,0.943-0.254,1.633-0.872,2.068
		c-0.617,0.436-1.887,0.217-3.81-0.653C165.44,156.431,163.735,155.07,162.428,153.328"/>
	<path fill="#0D131A" d="M148.005,182.448c-1.633-1.778-3.084-3.647-4.354-5.606l-1.416-2.449l1.47-0.871l1.36,2.177
		c1.161,1.705,2.504,3.338,4.028,4.898c4.899,5.008,10.668,8.418,17.309,10.233l4.572,0.925l3.048,3.266
		c-2.686-0.109-5.261-0.508-7.729-1.198C159.326,191.9,153.23,188.108,148.005,182.448"/>
	<path fill="#0D131A" d="M198.733,188.979c0.907-1.306,1.433-2.322,1.579-3.048c3.12-1.524,6.277-3.32,9.471-5.388l1.034,1.578
		C206.679,184.807,202.651,187.092,198.733,188.979"/>
	<path fill="#0D131A" d="M168.306,191.701l1.742,0.762c-1.088,2.503-1.778,6.604-2.068,12.301
		c-0.291,6.35,0.054,12.627,1.034,18.833l-2.286,1.524c-0.979-6.568-1.234-13.318-0.762-20.249
		C166.365,198.74,167.146,194.35,168.306,191.701"/>
	<path fill="#0D131A" d="M172.389,243.571c-1.197-2.177-2.25-4.662-3.157-7.456c0.979-0.436,1.868-0.726,2.667-0.872
		c0.835,2.469,1.833,4.754,2.994,6.859c4.027,7.475,9.507,11.793,16.437,12.954l-0.326,1.85
		C182.657,255.492,176.453,251.047,172.389,243.571"/>
	<path fill="#0D131A" d="M170.212,157.737l0.925-0.109c0.254,1.561,1.179,4.862,2.776,9.906c1.959,6.096,3.81,10.904,5.552,14.424
		l-2.232-1.47c-1.669-3.338-3.266-7.783-4.79-13.335C171.282,163.053,170.538,159.914,170.212,157.737"/>
	<path fill="#0D131A" d="M188.336,103.09l-1.687,0.816c-3.375-6.677-9.616-14.986-18.724-24.929
		c-12.229-13.281-23.042-20.701-32.44-22.261c-6.06-0.98-11.267,0.708-15.621,5.062c-4.754,4.717-7.149,12.174-7.185,22.37
		c0,5.951,0.762,12.21,2.286,18.778c0.109,0.436-0.236,0.49-1.034,0.164c-0.835-0.362-1.306-0.744-1.416-1.143
		c-1.597-6.713-2.395-13.1-2.395-19.159c0-10.596,2.577-18.47,7.729-23.623c4.354-4.354,10.124-5.951,17.308-4.79
		c9.87,1.597,21.119,9.235,33.746,22.915C178.376,87.487,184.853,96.087,188.336,103.09"/>
	<path fill="#0D131A" d="M142.017,79.195l-0.925,0.762l-22.207-18.506l0.599-0.707L142.017,79.195"/>
	<path fill="#0D131A" d="M110.993,82.135l0.761-0.544l15.458,13.008l-0.816,0.816L110.993,82.135"/>
	<path fill="#0D131A" d="M136.411,102.165l0.762-0.926l24.656,18.343l-0.544,0.762L136.411,102.165"/>
	<path fill="#0D131A" d="M171.953,82.733l0.436,0.653l-15.894,0.979l-0.163-1.089L171.953,82.733"/>
	<path fill="#0D131A" d="M139.405,103.743l1.307,0.98l3.156,18.996l-1.088-0.49L139.405,103.743"/>
	<path fill="#0D131A" d="M202.924,191.81l2.45-8.165l0.925,0.272l-2.558,8.491l-0.109,0.055
		c-21.118,16.22-33.147,24.964-36.086,26.235l0.163-1.741C170.538,215.758,182.277,207.377,202.924,191.81"/>
	<path fill="#0D131A" d="M184.962,206.07l0.707-0.762l3.103,7.674l-0.871,1.198L184.962,206.07"/>
	<path fill="#0D131A" d="M177.886,247.219c1.415-3.012,3.302-6.677,5.661-10.995c3.52-6.386,5.824-9.852,6.912-10.396l1.687-1.196
		c-0.943,0.835-2.884,3.955-5.823,9.361c-2.395,4.428-4.954,9.38-7.674,14.859L177.886,247.219"/>
	<path fill="#0D131A" d="M284.839,242.157c-2.721-2.104-5.279-4.391-7.675-6.858l-2.885-3.211l0.382-2.124l2.939,3.103
		c2.432,2.396,5.007,4.608,7.728,6.642c8.637,6.423,17.11,9.851,25.419,10.286l-0.163,1.36l0.11,1.361
		C302.057,252.354,293.44,248.834,284.839,242.157"/>
	<path fill="#0D131A" d="M339.214,159.751l1.579-1.089c3.991,5.806,7.42,13.571,10.287,23.296
		c3.773,12.845,4.662,24.348,2.667,34.508c-1.233,6.241-3.737,11.885-7.512,16.928c-3.41,4.499-8,8.727-13.77,12.682
		c-2.033,1.343-3.902,2.414-5.607,3.212l-0.925-2.231c1.634-0.727,3.193-1.597,4.681-2.613
		c10.705-6.894,17.326-16.673,19.867-29.337c1.995-10.015,1.361-21.083-1.904-33.202
		C346.036,172.505,342.916,165.121,339.214,159.751"/>
	<path fill="#0D131A" d="M291.099,186.856l0.6-0.816c6.276,2.685,16.709,5.498,31.296,8.437c13.825,2.757,23.514,4.136,29.065,4.136
		v0.925c-6.314,0-15.784-1.179-28.411-3.538C309.17,193.279,298.321,190.231,291.099,186.856"/>
	<path fill="#0D131A" d="M324.463,195.184h0.98c0.183,3.266-0.562,7.892-2.231,13.88c-1.814,6.458-3.919,11.356-6.313,14.695
		l-0.762-0.544c2.177-3.013,4.19-8.201,6.041-15.566C323.701,201.589,324.463,197.434,324.463,195.184"/>
	<path fill="#0D131A" d="M308.191,219.352c2.394,0.798,5.062,1.959,8,3.482l5.552,2.939c1.198,0.544,1.869,0.961,2.015,1.253
		l0.816,2.774l4.952,16.492l-0.925,0.271l-6.042-18.723c-6.204-3.846-11.103-6.387-14.696-7.619L308.191,219.352"/>
	<path fill="#0D131A" d="M267.586,169.602c5.188,1.017,11.303,1.397,18.342,1.144l-1.36,2.068l-14.696-0.925L267.586,169.602"/>
	<path fill="#0D131A" d="M333.499,40.551c0.327-0.146,0.108,0.327-0.652,1.415l-1.633,1.796l-2.831,1.143
		c-8.49,3.556-17.436,9.253-26.833,17.091c-8.927,7.438-17.363,16.02-25.31,25.745c-7.983,9.761-14.497,19.486-19.541,29.174
		c-5.335,10.196-8.473,19.268-9.416,27.214l-1.851-0.218c0.908-7.91,3.955-17.182,9.145-27.813
		c5.334-10.958,11.992-21.373,19.975-31.243c8.092-9.979,16.874-18.669,26.345-26.072c8.854-6.894,17.726-12.21,26.615-15.947
		L333.499,40.551"/>
	<path fill="#0D131A" d="M372.634,80.175c-1.089-19.849-5.624-32.277-13.607-37.284c-5.116-3.157-11.847-3.684-20.193-1.579
		c-0.145,0.036-0.253-0.327-0.325-1.089c-0.038-0.798,0.017-1.216,0.161-1.252c9.363-2.395,16.692-1.941,21.99,1.361
		c4.391,2.757,7.784,7.221,10.18,13.39c2.395,6.277,3.882,14.605,4.462,24.983c0.581,10.522-0.69,21.173-3.81,31.95
		c-2.359,8.056-5.606,15.711-9.743,22.969c-4.027,7.076-8.2,13.118-12.519,18.125c-4.826,5.588-9.435,9.398-13.826,11.431
		c-4.317,1.996-9.741,3.773-16.272,5.333c-6.714,1.633-13.663,2.812-20.848,3.538v-2.34c6.75-0.908,13.408-2.232,19.976-3.974
		c6.168-1.705,11.395-3.538,15.676-5.497c9.797-4.536,18.651-13.988,26.562-28.357C369.568,115.445,373.614,98.209,372.634,80.175"
		/>
	<path fill="#0D131A" d="M309.605,78.379l0.055,0.926L280.43,80.61l1.308-0.979L309.605,78.379"/>
	<path fill="#0D131A" d="M360.606,49.913l4.463-2.503l0.49,0.816l-4.519,2.503c-11.793,6.495-19.559,10.976-23.295,13.444
		c-0.437,0.29-0.636,0.146-0.599-0.435c0.072-0.544,0.254-0.925,0.543-1.143c2.323-1.633,6.098-3.828,11.321-6.586L360.606,49.913"
		/>
	<path fill="#0D131A" d="M354.945,88.993c7.366-4.463,13.517-7.584,18.451-9.362l0.327,0.925
		c-4.536,1.597-10.777,4.899-18.724,9.906c-8.672,5.407-15.767,10.65-21.281,15.73c-0.437,0.362-0.672,0.326-0.709-0.109
		c-0.072-0.436,0.128-0.871,0.599-1.306C339.124,99.516,346.236,94.254,354.945,88.993"/>
	<path fill="#0D131A" d="M349.882,122.63c8.383-4.318,14.551-6.84,18.506-7.565l0.219,0.925c-3.157,0.726-9.053,3.229-17.689,7.511
		c-9.762,4.899-17,9.308-21.717,13.227l-0.6-0.055c0-0.363,0.183-0.689,0.544-0.979C333.935,131.556,340.847,127.202,349.882,122.63
		"/>
	<path fill="#0D131A" d="M345.855,95.307l0.979-0.055l2.723,28.304l-1.633,0.816L345.855,95.307"/>
	<path fill="#0D131A" d="M285.276,117.459c0.325-0.181,0.525-0.09,0.598,0.272c0.037,0.363-0.145,0.653-0.545,0.871
		c-5.441,3.229-11.665,7.439-18.668,12.628c-7.04,5.152-13.063,9.942-18.07,14.369l-0.653-0.653
		C261.726,132.608,274.171,123.446,285.276,117.459"/>
	<path fill="#0D131A" d="M267.531,169.657l16.383-20.303l1.414,1.144l-17.09,19.758L267.531,169.657"/>
	<path fill="#0D131A" d="M317.116,167.262l3.483-13.88l1.959-2.231l-4.571,16.329L317.116,167.262"/>
	<path fill="#0D131A" d="M165.531,231.434c-0.544,0.908-2.123,2.068-4.736,3.484c-3.084,1.705-4.88,3.138-5.388,4.3
		c-0.327,0.727-0.798,2.993-1.415,6.804c-0.98,5.697-1.851,10.015-2.613,12.954c-1.415,5.516-3.175,10.07-5.28,13.661
		c-2.322,3.992-4.137,8.236-5.442,12.737c-1.198,4.173-1.796,7.964-1.796,11.375c0,2.504,0.344,4.536,1.034,6.097l2.939,6.748
		c0.943,2.541,1.415,4.718,1.415,6.532c0,1.379-0.254,2.576-0.762,3.593c-1.017,2.249-2.631,5.025-4.844,8.328
		c-2.286,3.374-3.992,5.497-5.117,6.367l-11.104,7.294c-6.459,4.572-10.305,8.272-11.539,11.104
		c-0.943,2.141-1.106,5.188-0.49,9.144c0.617,3.956,1.306,5.262,2.068,3.92c1.814-3.121,5.389-7.494,10.723-13.118
		c6.06-6.387,10.976-10.56,14.75-12.518c3.157-1.634,6.731-3.157,10.723-4.573l7.566-2.449l3.211-0.925
		c0.508-0.182,0.726-0.545,0.654-1.089c-0.109-0.58-0.654-1.778-1.633-3.593c-0.98-1.777-1.652-2.849-2.014-3.211
		c-1.597-1.742-2.758-3.32-3.484-4.736c-1.27-2.467-1.905-5.388-1.905-8.762c0-1.924,0.2-3.901,0.599-5.934
		c0.544-3.011,1.434-5.896,2.667-8.653c0.762-1.706,1.978-3.956,3.647-6.75c2.032-3.447,3.447-6.187,4.245-8.219
		c1.307-3.338,2.068-7.076,2.286-11.212l0.055-2.287l-0.327-7.619l-0.272-5.062l0.218-2.395l0.326-1.035
		c0.762-2.431,1.143-4.462,1.143-6.095l-0.163-2.014l-0.218-2.232c0-3.664,1.851-5.933,5.552-6.804
		c1.959-0.399,5.208-1.832,9.743-4.299c6.749-3.702,12.719-8.22,17.908-13.554l-0.381,3.156
		c-6.168,6.314-12.192,10.867-18.071,13.663c-2.14,1.052-5.062,2.014-8.763,2.885c-1.597,0.361-2.685,1.306-3.266,2.829
		c-0.544,1.379-0.635,3.121-0.272,5.227c0.254,1.523,0.181,2.993-0.218,4.408l-1.197,3.374l-0.327,0.979
		c-0.145,0.581-0.109,2.849,0.109,6.804c0.291,4.428,0.363,8.184,0.218,11.268c-0.254,4.754-0.671,8.31-1.252,10.669
		c-0.581,2.177-1.669,4.59-3.266,7.237l-4.681,7.239c-1.924,3.193-3.121,6.133-3.593,8.818c-0.871,4.826-0.707,8.836,0.49,12.029
		c0.689,1.85,1.959,3.773,3.81,5.769c2.722,2.94,4.282,5.497,4.682,7.675c0.362,1.996-0.254,3.157-1.851,3.482
		c-8.092,1.779-15.367,4.337-21.826,7.675c-3.483,1.778-8.817,6.932-16.002,15.459c-6.712,7.873-10.414,11.811-11.104,11.811
		c-1.451,0-2.631-1.923-3.538-5.77c-0.834-3.592-1.053-7.002-0.653-10.231c0.581-4.646,8.781-11.341,24.602-20.085
		c5.117-6.532,8.346-11.249,9.688-14.151c0.363-0.835,0.544-1.778,0.544-2.831c0-1.561-0.544-3.52-1.633-5.879l-3.157-6.259
		c-0.762-1.669-1.143-3.955-1.143-6.857c0-3.448,0.707-7.439,2.123-11.976c1.451-4.68,3.429-9.181,5.933-13.498
		c1.996-3.374,3.538-7.802,4.626-13.28l2.014-12.683c0.69-4.101,1.216-6.513,1.579-7.238c0.436-0.98,1.47-1.978,3.103-2.994
		l4.137-2.177c2.286-1.234,3.628-2.195,4.028-2.885l0.762-1.797c0.689-1.995,1.233-3.247,1.633-3.755
		c1.161-1.524,3.229-2.831,6.205-3.92c4.717-1.669,11.049-5.532,18.996-11.593c10.233-7.838,17.636-15.803,22.208-23.895
		l1.633,0.926c-4.536,8.019-11.721,16.002-21.554,23.948c-8.165,6.604-14.787,10.796-19.867,12.573
		c-2.685,0.98-4.59,2.05-5.715,3.211c-0.689,0.69-1.27,1.725-1.742,3.104L165.531,231.434"/>
	<path fill="#0D131A" d="M164.388,173.902c-2.104-1.996-4.119-4.354-6.042-7.076l1.47-1.143c4.935,6.786,9.543,10.85,13.825,12.192
		c3.338,1.088,5.715,2.685,7.13,4.79c1.052,1.524,1.796,3.846,2.232,6.967c2.068-5.008,5.915-10.959,11.539-17.854
		c3.193-3.882,6.241-7.275,9.144-10.178l1.307,1.361c-2.83,2.939-6.169,6.858-10.015,11.756c-6.06,7.693-9.707,13.625-10.94,17.798
		c-0.507,1.742-1.034,2.413-1.578,2.014l-0.816-0.871l-0.218-1.796c0-1.814-0.526-3.792-1.579-5.933
		c-1.524-3.193-3.792-5.28-6.803-6.259C170.284,178.801,167.4,176.877,164.388,173.902"/>
	<path fill="#0D131A" d="M164.715,187.456c-5.226-6.205-9.217-11.575-11.975-16.111l-0.707-1.306l1.687-0.762l0.653,1.088
		c2.541,4.137,6.441,9.253,11.703,15.349c5.842,6.677,10.161,10.687,12.954,12.029l4.953,2.123l3.266,0.217
		c0.834-0.326,1.506-1.161,2.014-2.503l0.218-0.327c2.794-2.975,5.515-6.332,8.165-10.069c4.753-6.713,7.348-12.211,7.783-16.493
		l1.088,1.688c-0.726,6.967-5.915,15.658-15.567,26.071l-1.034,2.287c-0.363,0.653-0.816,1.088-1.36,1.306
		c-2.322,0.907-5.842,0.254-10.56-1.96C175.056,198.704,170.629,194.495,164.715,187.456"/>
	<path fill="#0D131A" d="M154.59,132.7l-26.615-18.833l1.088-1.633l25.745,18.342L154.59,132.7"/>
	<path fill="#0D131A" d="M77.682,81.699c0.036-1.053,0.345-1.796,0.925-2.232c1.452-1.125,3.538-0.708,6.259,1.252l32.984,23.513
		l-1.524,1.361L84.268,82.896c-1.125-0.798-2.086-1.306-2.885-1.524c-0.581-0.181-0.998-0.181-1.252,0
		c-0.435,0.29-0.417,1.216,0.054,2.776c0.617,1.851,8.183,16.728,22.698,44.632c14.478,27.977,22.261,42.691,23.35,44.143
		c0.798,1.088,2.577,1.724,5.334,1.905c2.757,0.218,5.606-0.091,8.545-0.925c8.055-1.959,14.459-5.497,19.213-10.614
		c2.54-2.757,4.282-5.497,5.225-8.218l1.742,0.599c-1.342,4.1-2.921,7.257-4.735,9.47c-4.463,5.371-11.285,8.981-20.465,10.832
		c-3.121,0.871-6.295,1.161-9.525,0.871c-3.411-0.326-5.679-1.251-6.804-2.775c-1.488-1.996-16.91-31.569-46.265-88.72
		C77.918,84.04,77.646,82.824,77.682,81.699"/>
	<path fill="#0D131A" d="M125.58,172.923c4.463,0.435,9.87-0.834,16.22-3.81c8.564-3.992,15.023-9.997,19.377-18.016l0.653,1.361
		c-4.172,8.455-10.687,14.569-19.54,18.342c-6.314,2.722-11.938,3.828-16.874,3.32L125.58,172.923"/>
	<path fill="#0D131A" d="M217.946,188.435l1.198,0.218l0.979,0.436c-7.766,6.132-14.479,15.222-20.139,27.269
		c-6.132,13.062-8.963,25.617-8.491,37.665c0.508,12.592,4.79,22.442,12.846,29.555l-0.816,3.321
		c-4.318-3.884-7.729-8.619-10.233-14.206c-2.541-5.661-3.937-11.758-4.191-18.289c-0.472-12.011,2.395-24.639,8.6-37.883
		C203.359,204.364,210.108,195.003,217.946,188.435"/>
	<path fill="#0D131A" d="M268.783,209.499l2.177,0.816c6.132,14.806,7.221,29.229,3.267,43.271
		c-3.449,12.374-10.089,22.552-19.922,30.535c-7.729,6.351-15.875,9.997-24.439,10.94l1.198-1.47l0.979-1.742
		c7.222-1.125,14.062-4.318,20.521-9.579c9.47-7.729,15.929-17.78,19.377-30.154C275.823,238.075,274.77,223.869,268.783,209.499"/>
	<path fill="#0D131A" d="M257.462,203.512c7.874,5.479,13.68,13.445,17.417,23.895l-1.144,0.436
		c-3.664-10.196-9.325-17.961-16.981-23.295c-5.298-3.738-11.249-6.115-17.853-7.13c-6.822-1.052-13.553-0.581-20.193,1.415
		c-6.604,1.959-11.448,4.971-14.533,9.035l-0.98-0.762c3.229-4.281,8.237-7.438,15.022-9.471c6.786-2.068,13.753-2.54,20.901-1.415
		C245.868,197.234,251.983,199.666,257.462,203.512"/>
	<path fill="#0D131A" d="M261.109,224.358c6.531,6.785,10.687,15.422,12.465,25.908l-1.199,0.218
		c-1.741-10.196-5.786-18.615-12.136-25.255c-6.387-6.64-14.497-10.923-24.331-12.846c-8.02-1.524-15.875-1.161-23.568,1.089
		c-7.656,2.177-12.863,5.534-15.621,10.069l-0.489-1.197c2.902-4.718,8.2-8.147,15.893-10.286
		c7.729-2.143,15.749-2.433,24.058-0.872C246.268,213.146,254.577,217.537,261.109,224.358"/>
	<path fill="#0D131A" d="M190.949,240.143c3.702-6.06,9.435-10.342,17.2-12.845c7.765-2.54,15.911-2.759,24.438-0.653
		c9.907,2.396,17.871,7.238,23.896,14.532c6.022,7.257,9.416,16.129,10.178,26.616l-1.251,0.109
		c-0.727-10.197-4.011-18.852-9.853-25.964c-5.878-7.075-13.625-11.774-23.241-14.097c-8.273-2.031-16.184-1.832-23.731,0.599
		c-7.511,2.396-13.045,6.514-16.601,12.355L190.949,240.143"/>
	<path fill="#0D131A" d="M204.938,249.178c6.132-2.357,13.081-2.649,20.846-0.87c7.764,1.778,14.079,5.116,18.941,10.015
		c3.702,3.701,6.023,7.892,6.968,12.573c0.943,4.718,0.417,9.616-1.579,14.695l-1.143-0.489c1.888-4.826,2.394-9.472,1.523-13.934
		c-0.907-4.464-3.12-8.473-6.64-12.029c-4.718-4.718-10.832-7.929-18.343-9.634c-7.511-1.741-14.206-1.469-20.084,0.816
		c-3.302,1.27-5.969,3.083-8.001,5.442c-2.685,3.121-4.136,7.059-4.354,11.811l-1.198-0.053c0.182-4.354,1.416-8.111,3.701-11.269
		C197.825,253.097,200.946,250.738,204.938,249.178"/>
	<path fill="#0D131A" d="M217.184,266.433c2.467-0.11,4.954,0.271,7.457,1.142c4.936,1.743,8.526,4.465,10.776,8.165
		c2.215,3.557,2.523,6.967,0.927,10.232c-6.098,12.483-13.318,23.822-21.664,34.02c-7.33,8.89-11.974,13.099-13.934,12.626
		c-1.814-0.434-1.978-9.578-0.49-27.431c1.379-16.802,2.649-26.889,3.811-30.264c0.472-1.343,1.288-2.647,2.449-3.919
		c1.161-1.233,2.45-2.214,3.865-2.938C212.449,267.049,214.717,266.505,217.184,266.433 M217.293,268.337
		c-2.25,0.073-4.282,0.545-6.096,1.415c-2.395,1.198-3.992,2.921-4.79,5.171c-0.979,2.939-2.231,12.81-3.756,29.609
		c-1.487,16.982-1.814,25.601-0.979,25.854c1.669,0.326,7.348-6.441,17.037-20.302c9.397-13.462,14.695-21.972,15.893-25.528
		c0.291-0.762,0.436-1.65,0.436-2.667c0-2.539-1.016-4.971-3.048-7.293c-2.031-2.396-4.681-4.137-7.946-5.226
		C221.828,268.609,219.579,268.265,217.293,268.337"/>
	<path fill="#0D131A" d="M255.829,153.328c0.361,0.907,0.653,2.141,0.87,3.701l0.49,3.702c-0.799-0.798-1.869-1.506-3.212-2.123
		l-1.687-4.518c-3.266-7.366-8.455-12.392-15.566-15.077c-2.25-0.871-4.573-1.433-6.968-1.687l-3.266-0.164l0.816-2.014h3.375
		c2.721,0.181,5.353,0.708,7.892,1.579C246.666,139.412,252.419,144.946,255.829,153.328"/>
	<path fill="#0D131A" d="M254.686,174.12l1.688,1.633c-0.688,1.996-1.487,3.738-2.396,5.226l-1.47-1.252
		C253.452,178.057,254.177,176.188,254.686,174.12"/>
	<path fill="#0D131A" d="M231.064,191.048c7.729-0.109,13.806-2.431,18.234-6.967l1.088,1.742
		c-4.464,4.681-10.451,7.076-17.962,7.184c-5.951,0.036-11.249-1.451-15.893-4.463c-3.665-2.359-6.405-5.226-8.219-8.6
		c-2.25-4.137-3.646-7.929-4.19-11.376c-0.617-3.665-0.2-6.568,1.252-8.709l2.776-2.123c-1.234,1.851-1.76,4.609-1.579,8.273
		c0.182,4.1,1.27,8.001,3.266,11.703c1.887,3.52,4.246,6.386,7.076,8.599C220.976,189.505,225.693,191.084,231.064,191.048"/>
	<path fill="#0D131A" d="M259.531,197.851c6.459,8.201,12.844,14.116,19.158,17.744l12.954,7.566
		c6.604,3.882,10.215,5.823,10.832,5.823l1.034-0.381c1.052-0.508,1.905-0.743,2.558-0.707c1.162,0.036,2.16,0.763,2.994,2.177
		c1.487,2.504,2.612,4.898,3.375,7.185c1.197,3.557,1.306,6.405,0.325,8.546c-0.87,1.851-1.105,4.391-0.706,7.62
		c0.289,2.322,0.979,5.279,2.067,8.871c0.544,1.889,0.763,4.373,0.653,7.457l-0.871,8.709c-0.58,4.754-0.835,7.91-0.763,9.471
		c0.183,3.266,2.686,10.124,7.512,20.574l2.995,6.858c1.45,3.483,2.066,6.694,1.85,9.634c-0.254,2.939-1.343,5.842-3.266,8.709
		l-0.653,1.034c-3.012,4.427-4.354,7.147-4.028,8.164l0.653,0.6l4.954,0.489c4.281-0.072,7.982,0.309,11.104,1.144
		c3.338,0.906,6.803,2.575,10.396,5.007l8.49,6.64l5.335,4.246c1.741,1.233,3.193,1.924,4.354,2.068
		c3.229,0.436,6.968,3.247,11.213,8.437c-0.108-3.991-0.453-7.529-1.035-10.614c-0.688-3.772-1.649-6.041-2.884-6.803
		c-0.362-0.255-1.959-0.962-4.79-2.124c-8.49-3.302-15.021-6.621-19.595-9.96c-8.164-5.951-12.718-13.044-13.66-21.282l-0.164-2.34
		c0-1.524,0.345-3.283,1.034-5.28l1.144-3.973c0.362-1.923,0.544-4.209,0.544-6.858l-0.272-5.986
		c-0.725-10.415-2.123-20.737-4.19-30.971c-2.576-12.52-5.517-21.064-8.818-25.636c-3.012-4.101-5.516-7.203-7.511-9.308
		l-4.027-4.846c-1.524-2.103-2.286-3.954-2.286-5.551l0.054-1.197c0-0.363-0.126-0.671-0.381-0.925l-1.742-1.361
		c-0.943-0.58-3.973-2.068-9.09-4.462c-7.111-3.34-12.427-5.953-15.948-7.839c-6.567-3.483-11.557-6.659-14.968-9.525
		c-6.204-5.189-11.865-11.176-16.981-17.961c-0.29-0.363-0.616-0.472-0.979-0.327c-0.544,0.291-0.671,0.744-0.381,1.361
		C249.914,184.153,254.052,190.848,259.531,197.851 M280.43,202.314c3.848,2.141,8.782,4.609,14.807,7.402l6.584,2.831
		c2.504,1.052,4.064,1.777,4.682,2.177c1.344,0.834,2.214,1.65,2.612,2.449c0.292,0.508,0.4,1.233,0.328,2.178
		c-0.036,0.761,0.017,1.396,0.162,1.904c0.255,0.871,0.835,1.924,1.742,3.157l3.864,4.68l3.103,2.995
		c1.741,1.777,3.556,3.973,5.443,6.585c3.628,4.935,6.731,14.025,9.307,27.269c1.923,9.871,3.267,19.94,4.028,30.209
		c0.325,4.681,0.163,8.617-0.489,11.811l-1.852,5.771l-0.816,2.885c-0.181,1.089-0.181,2.395,0,3.919
		c0.907,7.729,5.315,14.278,13.227,19.648c3.701,2.503,10.015,5.498,18.94,8.981c1.925,0.726,3.774,1.633,5.552,2.721
		c1.235,0.799,2.305,3.049,3.213,6.75c0.943,3.846,1.36,7.945,1.252,12.301c-0.036,2.214-0.292,3.393-0.763,3.537
		c-0.436,0.146-1.451-0.58-3.048-2.177c-1.561-1.56-3.338-2.993-5.335-4.3c-2.249-1.488-4.081-2.322-5.497-2.504
		c-1.306-0.145-2.776-0.979-4.409-2.503l-5.115-4.79l-8.22-6.423c-3.482-2.322-6.804-3.937-9.961-4.845l-7.728-0.87l-6.479,0.054
		c-1.269,0.036-2.358-0.163-3.266-0.598c-0.798-0.364-1.27-0.763-1.414-1.198c-0.291-1.016,0.145-2.576,1.306-4.681l3.811-5.987
		l0.707-0.979c1.741-2.613,2.704-5.243,2.885-7.893c0.182-2.612-0.381-5.515-1.687-8.708l-2.994-6.804l-5.171-11.104
		c-1.814-4.245-2.776-7.42-2.885-9.524c-0.036-1.089,0.091-2.704,0.382-4.845l0.816-5.552c0.834-6.858,0.706-12.119-0.382-15.784
		c-2.286-7.547-2.503-13.354-0.653-17.417c0.726-1.524,0.672-3.701-0.163-6.532c-0.689-2.358-1.814-4.844-3.375-7.456
		c-0.507-0.798-0.997-1.216-1.469-1.253c-0.327-0.036-0.89,0.127-1.688,0.491l-1.469,0.544c-1.633,0.326-5.679-1.434-12.138-5.281
		l-14.098-8.871c-6.713-3.811-13.226-9.924-19.539-18.342c-4.862-6.532-8.764-13.154-11.703-19.867
		c-0.326-0.725-0.345-1.451-0.055-2.177c0.255-0.653,0.673-1.143,1.253-1.47c0.544-0.326,1.105-0.436,1.687-0.326
		c0.653,0.072,1.216,0.435,1.688,1.088c5.008,6.604,10.577,12.482,16.71,17.635C270.072,196.092,274.661,199.122,280.43,202.314"/>
	<path fill="#0D131A" d="M298.502,158.063l1.85,0.272c-0.398,1.523-0.834,4.699-1.307,9.525c-0.435,4.572-0.671,8.11-0.707,10.613
		c-0.036,1.851-1.216,4.101-3.538,6.75l-3.755,3.538c-0.146,0.146-0.399,0.69-0.763,1.633c-0.399,1.416-0.943,2.196-1.633,2.341
		c-0.834,0.182-1.886-0.399-3.157-1.742c-3.229-3.483-8.817-6.477-16.765-8.981l-5.279-1.469l-4.898-0.98
		c-1.487-0.435-2.721-1.361-3.7-2.776c-7.947-11.43-13.752-18.433-17.418-21.01c-0.835-0.581-1.36-1.233-1.578-1.959
		c-0.182-0.653-0.091-1.252,0.271-1.796c0.799-1.125,2.667-1.416,5.606-0.871c3.302,0.617,6.731,2.105,10.287,4.463
		c2.867,1.923,8.02,5.933,15.457,12.029l14.37,11.757c0-3.302,0.635-5.788,1.905-7.457c0.943-1.161,2.776-4.953,5.497-11.375
		l2.667-5.987l1.579,1.034c-0.508,1.052-1.343,2.958-2.505,5.715l-2.775,6.858c-0.98,2.467-1.759,4.064-2.341,4.79
		c-0.87,1.089-1.415,2.395-1.633,3.919l-0.435,4.409c-0.183,1.379-0.49,1.941-0.926,1.688l-0.599-0.816
		c-16.655-13.245-27.74-21.699-33.256-25.364c-3.157-2.104-5.878-3.411-8.164-3.919c-1.778-0.399-2.832-0.327-3.157,0.218
		c-0.072,0.072-0.036,0.218,0.108,0.436l0.708,0.707c2.539,1.778,5.859,5.153,9.96,10.125c2.903,3.52,5.497,6.931,7.784,10.232
		c0.87,1.271,1.923,2.195,3.155,2.776c0.799,0.399,2.287,0.853,4.465,1.361l5.388,1.47c8.382,2.649,14.242,5.806,17.58,9.471
		l1.308,1.143l0.325-0.979c0.364-1.307,0.817-2.16,1.361-2.559c1.561-1.234,2.976-2.631,4.246-4.191
		c1.561-1.923,2.34-3.483,2.34-4.681c0.036-2.359,0.255-5.733,0.653-10.124C297.558,163.361,298.03,159.951,298.502,158.063"/>
	<path fill="#0D131A" d="M337.745,37.013c-1.09-0.653-10.597,13.68-28.521,42.999c-18.07,29.501-27.542,46.538-28.412,51.109
		c-0.254,1.27-0.382,2.63-0.382,4.082c0,4.354,1.18,8.273,3.538,11.756c2.54,3.738,6.17,6.441,10.888,8.111
		c5.841,2.032,12.046,2.068,18.614,0.108c6.459-1.959,10.359-4.972,11.702-9.036c2.468-7.402,5.552-27.377,9.252-59.926
		C338.053,53.85,339.16,37.448,337.745,37.013 M338.508,35.325c1.705,0.508,1.45,14.098-0.763,40.768
		c-2.322,28.122-5.498,51.2-9.525,69.233c-1.017,4.682-5.243,8.364-12.683,11.049c-7.003,2.504-13.299,3.066-18.888,1.688
		c-7.111-1.778-12.264-5.516-15.457-11.212c-2.865-5.08-3.664-10.595-2.396-16.546c1.633-7.366,11.377-25.237,29.229-53.613
		C325.843,48.389,336.003,34.6,338.508,35.325"/>
	<path fill="#0D131A" d="M278.635,132.373l1.197-0.217c0.473,2.467,1.941,5.171,4.408,8.11c2.867,3.447,6.351,6.15,10.451,8.11
		c3.991,1.923,8.22,2.884,12.682,2.884c5.879,0,11.902-1.669,18.07-5.007l0.6,1.088c-6.459,3.447-12.609,5.261-18.452,5.443
		c-4.607,0.146-8.89-0.726-12.846-2.613c-4.245-2.032-7.981-4.989-11.211-8.872C280.775,137.961,279.142,134.985,278.635,132.373"/>
	<path fill="#0D131A" d="M174.076,105.321c5.551-2.54,12.156-3.81,19.812-3.81l-0.327,2.177c-7.148,0.146-13.19,1.325-18.125,3.538
		c-1.162,0.508-2.069,0.962-2.722,1.36l-1.251-1.959L174.076,105.321"/>
	<path fill="#0D131A" d="M207.823,103.798v1.959c-1.597-0.798-4.3-1.415-8.11-1.851l0.326-1.959
		C203.523,102.346,206.116,102.963,207.823,103.798"/>
	<path fill="#0D131A" d="M213.918,150.28l3.701-1.252c-4.39,5.188-8.436,9.562-12.138,13.118
		c-6.749,6.422-11.739,9.488-14.968,9.198c-1.523-0.146-4.046-1.488-7.565-4.028c-3.81-2.721-7.33-5.824-10.559-9.308v-1.85
		l-0.327-1.906c3.375,4.028,7.058,7.566,11.049,10.614c3.447,2.612,5.824,3.974,7.13,4.082c2.214,0.109,6.096-2.159,11.648-6.803
		C206.679,158.118,210.689,154.163,213.918,150.28"/>
	<path fill="#0D131A" d="M167.926,109.077l1.361,1.851c-3.737,2.976-6.26,6.768-7.565,11.375l-0.327,1.307l-1.85-0.436l0.327-1.415
		C161.43,116.462,164.116,112.234,167.926,109.077"/>
	<path fill="#0D131A" d="M159.489,124.045c-2.358,1.016-3.574,3.974-3.646,8.872c-0.109,5.152,1.161,10.178,3.81,15.077
		c1.633,2.975,3.665,5.37,6.096,7.185c2.286,1.669,4.082,2.304,5.388,1.905c0.217,0,0.309-0.217,0.272-0.653
		c-0.218-3.048-2.032-9.29-5.443-18.724C162.519,128.236,160.36,123.682,159.489,124.045 M158.346,122.576l2.776,0.109
		c1.415,1.233,3.81,6.731,7.184,16.492c2.468,7.076,3.919,12.192,4.354,15.349c0.363,2.612,0.036,4.064-0.979,4.354
		c-1.851,0.544-4.246-0.109-7.185-1.96c-3.048-1.923-5.406-4.409-7.076-7.457c-2.685-4.898-3.865-10.124-3.538-15.676
		C154.173,128.454,155.661,124.716,158.346,122.576"/>
	<path fill="#0D131A" d="M214.354,115.173l0.49,1.851c-4.064,1.089-7.331,4.772-9.798,11.049c-2.431,6.242-3.012,12.41-1.741,18.506
		c0.544,2.649,1.615,4.246,3.211,4.79c1.633,0.581,3.756,0.291,6.368-0.871c2.649-1.162,5.425-3.048,8.328-5.661
		c1.742-1.524,3.121-3.701,4.137-6.532c0.943-2.612,1.433-5.352,1.469-8.219c0.072-5.371-1.796-9.798-5.606-13.281l1.252-1.416
		c2.177,1.96,3.846,4.173,5.007,6.641c1.234,2.613,1.833,5.334,1.797,8.165c-0.073,3.52-0.562,6.513-1.47,8.981
		c-0.98,2.648-2.577,5.098-4.79,7.348c-3.084,3.084-6.295,5.189-9.634,6.314l-7.456,0.326c-2.25-0.798-3.738-2.866-4.464-6.205
		c-1.378-6.64-0.726-13.298,1.959-19.975C206.135,120.344,209.782,116.407,214.354,115.173"/>
	<path fill="#0D131A" d="M172.062,115.445c0.472,0.943,0.98,1.724,1.524,2.34l0.979,0.708c0.834-0.291,0.798-1.633-0.108-4.028
		c-1.089-2.83-4.518-8.6-10.287-17.309c-4.972-7.475-8.654-12.736-11.049-15.785c-1.706-2.177-3.356-3.356-4.953-3.538
		c-1.633-0.181-3.61,0.617-5.933,2.395c-2.576,1.923-8.273,7.711-17.09,17.363c-8.854,9.616-13.843,15.494-14.968,17.635
		c-0.581,1.089-0.69,2.54-0.327,4.354c0.363,1.814,1.07,3.393,2.123,4.735c1.234,1.524,2.467,2.105,3.701,1.742
		c1.27-0.327,2.467-1.143,3.592-2.449l3.266-4.626c1.633-2.613,2.921-4.536,3.865-5.77c3.992-5.334,8.273-10.542,12.845-15.621
		c3.955-4.427,6.967-7.312,9.035-8.655c1.488-0.979,2.649-1.197,3.483-0.653c1.597,1.052,5.062,5.207,10.396,12.464
		C167.308,107.68,170.611,112.579,172.062,115.445 M176.198,113.812c0.617,1.669,0.835,3.03,0.654,4.083
		c-0.182,0.943-0.672,1.56-1.47,1.85c-1.487,0.544-2.902-0.58-4.245-3.375c-1.306-2.685-4.717-7.565-10.232-14.641
		c-5.407-6.967-8.8-10.923-10.179-11.866c-1.088-0.146-4.082,2.449-8.98,7.783c-4.645,5.044-9.253,10.614-13.826,16.71l-3.81,5.606
		l-3.592,5.17c-1.379,1.597-2.849,2.613-4.409,3.049c-2.104,0.617-3.992-0.127-5.661-2.232c-1.27-1.56-2.178-3.429-2.721-5.606
		c-0.581-2.431-0.472-4.391,0.326-5.878c1.197-2.213,6.277-8.273,15.24-18.18c8.999-9.979,14.805-15.947,17.417-17.907
		c2.794-2.104,5.207-3.102,7.239-2.994c2.104,0.146,4.154,1.488,6.15,4.028c2.541,3.229,6.369,8.69,11.485,16.383
		C171.573,104.832,175.11,110.837,176.198,113.812"/>
	<path fill="#0D131A" d="M203.523,69.018c-0.69-1.271-1.361-2.232-2.014-2.885c-0.544-0.544-0.961-0.78-1.252-0.708
		c-0.181,0-0.38,0.182-0.598,0.544c-0.399,0.653-0.726,1.687-0.979,3.103c-0.254,1.451-1.216,9.833-2.885,25.146
		c-1.306,12.772-2.104,19.903-2.395,21.39c-0.109,0.472-0.091,0.871,0.054,1.198l0.49,0.49c0.472,0.109,0.871-0.327,1.198-1.307
		l3.81-14.314l2.503-10.232c0.291-1.089,0.544-1.651,0.762-1.688c0.254,0,0.599,0.526,1.034,1.579
		c1.488,3.629,3.864,8.618,7.13,14.968c3.919,7.692,6.368,11.63,7.348,11.811c1.052,0.182,2.177-0.435,3.375-1.851
		c1.088-1.306,1.959-2.939,2.613-4.898c0.326-1.016,0.489-2.068,0.489-3.157c0-1.814-0.508-3.52-1.524-5.117
		c-2.395-3.847-6.278-10.632-11.648-20.356L203.523,69.018 M199.93,63.574c1.923-0.291,3.629,0.925,5.116,3.647
		c8.89,16.51,15.422,28.122,19.595,34.834c1.851,2.939,2.195,6.223,1.034,9.852c-0.726,2.25-1.851,4.318-3.375,6.205
		c-1.488,1.887-2.74,2.831-3.756,2.831c-1.233,0-2.395-0.635-3.483-1.905c-1.633-1.996-3.973-6.132-7.021-12.41
		c-2.068-4.282-3.882-8.273-5.443-11.975c-1.451,6.06-3.393,12.991-5.824,20.792c-0.363,1.125-0.834,1.959-1.416,2.504
		c-0.581,0.544-1.179,0.726-1.796,0.544c-0.617-0.145-1.07-0.581-1.36-1.307c-0.254-0.725-0.309-1.615-0.164-2.667l2.34-22.697
		l2.449-23.078C197.372,65.516,198.406,63.792,199.93,63.574"/>
	<path fill="#FFFFFF" d="M164.932,136.455c0.544,1.778,0.707,3.393,0.489,4.844c-0.253,1.452-0.816,2.305-1.687,2.559
		c-0.907,0.254-1.851-0.146-2.83-1.198c-0.98-1.088-1.742-2.54-2.287-4.354c-0.508-1.814-0.653-3.429-0.435-4.844
		c0.254-1.452,0.816-2.304,1.688-2.558c0.871-0.254,1.795,0.164,2.775,1.252C163.662,133.244,164.424,134.677,164.932,136.455"/>
	<path fill="#FFFFFF" d="M206.843,129.597c0.944-2.068,2.268-3.61,3.974-4.626c1.669-0.98,3.193-1.161,4.572-0.544
		c1.415,0.653,2.286,1.941,2.612,3.864c0.291,1.923-0.036,3.919-0.979,5.987c-0.943,2.068-2.25,3.611-3.919,4.627
		c-1.669,0.979-3.211,1.143-4.626,0.489c-1.415-0.617-2.286-1.887-2.613-3.81C205.573,133.661,205.899,131.666,206.843,129.597"/>
</g>
</svg>
