<?xml version="1.0" encoding="utf-8"?>
<!-- Generator: Adobe Illustrator 16.0.0, SVG Export Plug-In . SVG Version: 6.00 Build 0)  -->
<!DOCTYPE svg PUBLIC "-//W3C//DTD SVG 1.1//EN" "http://www.w3.org/Graphics/SVG/1.1/DTD/svg11.dtd">
<svg version="1.1" id="Layer_1" xmlns="http://www.w3.org/2000/svg" xmlns:xlink="http://www.w3.org/1999/xlink" x="0px" y="0px"
	 width="456px" height="415px" viewBox="0 0 456 415" enable-background="new 0 0 456 415" xml:space="preserve">
<g>
	<path fill="#0D131A" d="M310.297,160.776l-0.727-0.503l0.951,2.013c0.298,0.597,0.969,1.305,2.014,2.125l1.565,1.398l-0.056-1.565
		C313.97,163.498,312.721,162.341,310.297,160.776 M343.293,143.831c0.446-1.715,1.323-3.821,2.627-6.319l1.902-3.412
		c0.447-0.671,1.062-0.895,1.846-0.671c0.745,0.261,1.08,0.802,1.006,1.622l-0.559,7.718c-0.336,5.443-0.41,9.134-0.224,11.073
		c0.111,0.932,0.354,1.641,0.727,2.125l1.622,1.23l2.349,1.398c1.082,0.746,1.883,1.547,2.404,2.404
		c1.343,2.126,2.238,5.406,2.685,9.843c0.448,4.101,0.354,7.158-0.279,9.171c-0.224,0.708-0.261,1.323-0.111,1.846
		c0.111,0.484,0.446,1.044,1.006,1.677l1.286,0.727l1.119,0.839l0.447,1.957c-0.038,0.485-0.298,1.007-0.783,1.566l-1.23,1.678
		c-0.447,0.82-0.671,1.565-0.671,2.237l0.336,2.293c0.148,1.23,0.093,2.2-0.168,2.908c-0.336,1.044-1.025,1.585-2.069,1.622
		c-1.193-0.112-2.013-0.112-2.461,0c-0.895,0.261-1.584,0.597-2.069,1.007c-0.708,0.746-1.175,1.733-1.397,2.963
		c-0.261,1.193-0.224,2.163,0.111,2.909l1.063,0.335l1.286,0.335l1.733,0.392c0.671,0.335,1.062,0.895,1.175,1.678l-0.839,1.174
		l-1.565,1.9l-2.069,2.183c-0.896,1.006-1.101,1.714-0.615,2.125c0.335,0.261,0.969-0.28,1.9-1.622
		c1.342-1.939,2.405-3.281,3.188-4.027c2.311-2.236,4.753-3.783,7.325-4.641c3.095-1.193,4.642-1.66,4.642-1.398l-0.839,1.119
		l-0.895,1.062c2.46-1.193,5.891-2.609,10.289-4.25l2.629-0.447c1.343-0.187,2.032-0.187,2.069,0
		c0.074,0.335-0.428,0.895-1.51,1.678l-2.125,1.454l-14.373,11.241c-1.491,1.193-2.963,2.926-4.417,5.201
		c-1.23,1.826-2.051,3.373-2.461,4.641c-0.261,0.857-0.728,1.51-1.398,1.958l-2.014,1.174l-1.062,0.783l0.056,0.335
		c0.261,1.119,0.224,2.592-0.111,4.419l-1.175,1.229l-1.287,1.062c8.762,14.354,14.447,28.597,17.058,42.726
		c3.952,21.177,0.391,39.931-10.681,56.26c-14.057,20.692-31.001,33.666-50.836,38.923c-8.463,2.237-18.156,3.318-29.08,3.244
		l-31.765-2.293c-18.045-2.05-34.821-8.854-50.332-20.412c-4.921-3.691-9.451-7.681-13.589-11.968l-5.201-5.816l0.951-4.642
		l90.82-24.438l1.565,6.599l2.572-2.349c0.188-0.634,0.188-1.249,0-1.846c-0.187-0.521-0.428-0.913-0.727-1.174l12.751,6.319
		c8.5,4.176,17.262,4.884,26.284,2.125c10.886-3.318,20.17-11.409,27.85-24.271c5.07-8.5,7.158-18.417,6.264-29.751
		c-0.671-8.612-2.889-17.206-6.655-25.78c-2.759,0.111-4.324,0.372-4.697,0.782c-1.081,1.23-2.106,1.976-3.076,2.238
		c-2.05,0.633-4.642-0.113-7.772-2.238l-0.225-0.168c-1.007-0.671-1.436-2.087-1.285-4.25l-0.169-1.679l-0.503-1.229
		c-0.299-0.335-0.765-0.634-1.397-0.895l-2.294-0.95l-2.293,0.223l-2.74,1.175c-2.125,1.269-3.43,1.957-3.915,2.069
		c-1.64,0.41-2.963-0.727-3.97-3.412l-1.23-4.753l-0.28-0.839l-1.285-2.74c-0.41-1.044-0.299-2.069,0.335-3.075
		c0.373-0.634,0.765-2.182,1.175-4.643c0.409-2.461,0.597-4.361,0.56-5.703l-0.056-2.293c0-1.081,0.223-2.106,0.671-3.076
		c0.261-0.559,0.764-1.361,1.51-2.404l1.845-2.964l0.56-2.181l-0.279-1.958c-0.373-1.454-0.522-2.722-0.448-3.803l0.168-2.74
		c0.074-1.081,0.28-2.032,0.615-2.852c0.149-0.373,0.652-1.287,1.51-2.74c0.597-1.044,0.877-1.79,0.84-2.237
		c-0.074-0.746-0.728-2.853-1.958-6.32c-1.23-3.281-1.957-5.629-2.181-7.046c-0.225-1.454-0.336-3.039-0.336-4.753l0.056-2.293
		c0.037-0.41,0.243-0.765,0.615-1.063l-4.977-4.362c-0.298-0.261-0.467-0.578-0.504-0.951c-0.074-0.411,0.019-0.783,0.28-1.119
		c0.187-0.298,0.484-0.503,0.895-0.615l1.062,0.167c3.468,1.752,5.687,2.74,6.655,2.964l2.964-0.056l1.343-0.223
		c1.976-0.298,4.119,0.708,6.431,3.02l0.448,0.503l-0.728-6.04c-0.111-1.604,0.467-4.12,1.734-7.55
		c0.969-2.46,2.162-5.108,3.579-7.941c0.597-1.193,1.08-3.542,1.454-7.046l0.446-7.27c0-0.82,0.392-1.305,1.175-1.454
		c0.783-0.187,1.361,0.075,1.734,0.783l0.727,1.901c0.484,1.492,0.728,2.909,0.728,4.25c0,0.969,0.26,2.721,0.782,5.257l-0.503-4.53
		c-0.038-0.41,0.056-0.783,0.278-1.118c0.262-0.374,0.597-0.597,1.008-0.671c0.41-0.038,0.801,0.056,1.175,0.279
		c0.335,0.224,0.539,0.541,0.615,0.951l0.502,2.236c0.448,1.641,0.933,3.02,1.454,4.139c0.485,1.082,0.709,2.349,0.671,3.803
		l-0.446,3.747l-0.392,2.517c-0.075,1.193,0.95,3.188,3.076,5.984l1.341,1.79l0.615,1.062l0.169-2.349
		C342.641,147.242,342.919,145.173,343.293,143.831"/>
	<path fill="#EFE908" d="M340.609,174.925l1.006-0.56c0.262,0.112,0.262,0.69,0,1.734c-0.372,1.528-0.54,3.355-0.503,5.48
		c0.038,1.976,0.242,3.653,0.614,5.033c0.337,1.156,0.877,2.219,1.623,3.188c0.634,0.895,0.969,1.752,1.006,2.573
		c0.037,1.938-0.111,3.766-0.446,5.48c0,0.374,0.13,0.634,0.391,0.783c0.225,0.149,0.578,0.019,1.063-0.391
		c0.483-0.597,0.913-1.417,1.286-2.461c0.186-0.559,0.205-1.23,0.056-2.013c-0.074-0.969,0.074-1.827,0.446-2.573l0.896-1.845
		c0.336-0.671,0.672-0.951,1.007-0.839l0.167,0.95l-0.279,2.852l0.672,1.007l0.279,1.678c-0.075,0.597-0.597,2.014-1.566,4.25
		l-1.286,3.747c-0.409,1.268-0.578,2.219-0.504,2.852c0.188,1.752,0.541,2.628,1.063,2.628l0.447-0.726l0.447-1.51l1.79-3.412
		c0.372-0.634,1.08-1.473,2.125-2.517c-0.82,1.492-1.23,3.039-1.23,4.642c0,0.708,0.186,1.528,0.56,2.46
		c0.261,0.597,1.006,1.025,2.236,1.287c1.193,0.186,1.827,0.539,1.901,1.062c0.075,0.596-0.336,1.267-1.23,2.014l-2.125,1.845
		c-0.56,0.708-0.857,1.436-0.895,2.181c-0.074,0.857,0.224,1.51,0.895,1.958c0.746,0.521,1.827-0.205,3.244-2.181l3.188-4.307
		c1.193-1.008,3.766-2.461,7.717-4.362l-3.579,3.075c-0.521,0.447-1.024,1.102-1.51,1.957l-0.559,1.175l2.236-1.51
		c1.79-1.155,3.374-2.125,4.754-2.907c2.237-1.194,5.928-2.741,11.072-4.643l-14.707,10.57c-1.752,1.379-3.449,3.075-5.089,5.089
		c-1.528,1.938-2.498,3.523-2.908,4.753c-0.336,0.933-1.119,1.901-2.35,2.909l-2.571,1.956c-0.336,0.373-0.43,0.914-0.28,1.623
		l0.056,2.795c-0.148,0.635-0.522,1.213-1.118,1.734l-8.276-8.947l-3.579-3.188l-1.957-1.398l4.082,5.537l-3.132,0.335l-0.728,0.951
		l-2.292-4.194l0.223,1.9c0.337,1.716,0.913,3.767,1.734,6.152l-2.405,0.225l-1.454,0.446l-0.95-0.056
		c-1.081-0.932-1.659-1.584-1.734-1.958c-0.037-0.223,0.038-0.446,0.224-0.671l0.392-0.502c0.448-0.858,0.597-2.051,0.448-3.579
		c-0.15-1.53-0.541-2.685-1.175-3.469c-0.597-0.782-1.696-1.658-3.3-2.628c-1.715-1.007-3.075-1.511-4.082-1.511
		c-0.373,0-0.97,0.206-1.789,0.616l-1.958,0.895c-0.708,0.187-1.305-0.13-1.79-0.951c-0.82-1.565-1.454-3.337-1.9-5.312
		c-0.448-2.088-0.43-3.374,0.056-3.859c0.56-0.559,2.199-1.454,4.921-2.684l2.853-1.622c0.82-0.559,1.323-1.137,1.51-1.733
		c0.447-1.23-0.037-2.722-1.454-4.474c-1.864-2.274-2.274-4.456-1.23-6.543c0.447-0.97,1.528-1.771,3.244-2.405
		c1.043-0.41,2.125-1.211,3.243-2.405l1.733-3.188l1.454-4.418c0.373-1.342,0.727-2.013,1.063-2.013
		c0.223,0,0.372,0.521,0.446,1.565c0.074,1.379,0,2.74-0.224,4.083l-0.447,2.685c-0.074,0.522-0.037,0.857,0.112,1.007
		c0.261,0.26,0.577,0.354,0.95,0.279c1.044-0.261,1.902-0.839,2.573-1.734c0.782-1.118,1.359-2.833,1.733-5.145
		c0.299-1.79,0.95-3.449,1.957-4.978L340.609,174.925"/>
	<path fill="#E50020" d="M344.747,144.222c0.446-1.64,1.323-3.672,2.628-6.095l1.789-3.188l-0.56,7.717
		c-0.372,5.518-0.446,9.301-0.223,11.352c0.186,1.827,1.007,3.226,2.461,4.194c1.975,1.305,3.299,2.479,3.97,3.523
		c1.268,2.013,2.236,5.089,2.909,9.227c0.671,4.027,0.745,6.897,0.223,8.613c-0.41,1.342-0.167,2.646,0.728,3.915l2.069,2.796
		c0.335,0.708,0.391,1.23,0.167,1.566c-0.447,0.521-0.839,1.118-1.175,1.789c-0.335,0.708-0.502,1.603-0.502,2.684
		c0,1.305-0.188,2.461-0.56,3.468c-0.374,1.156-1.212,1.938-2.518,2.349c-1.677,0.522-2.777,1.044-3.3,1.566l-0.895,1.174
		c-1.191,1.268-2.218,2.889-3.075,4.865l-0.671,2.125l-0.504,1.006c-0.223,0.075-0.446-0.13-0.671-0.615l-0.56-2.013
		c-0.111-0.783-0.019-1.715,0.28-2.797l1.062-3.188l1.175-2.908l0.671-2.237l-0.056-1.342l-0.448-0.615
		c-0.298-0.447-0.446-0.895-0.446-1.342l0.279-2.069c0.111-0.597,0.093-0.913-0.057-0.951c-0.336-0.075-0.801,0.578-1.397,1.958
		c-0.56,1.193-0.783,2.162-0.671,2.908v1.958c-0.82,2.312-1.659,3.393-2.518,3.244c-0.634-0.112-0.782-0.82-0.446-2.125l0.279-3.915
		c0-1.044-0.261-1.939-0.783-2.685c-0.82-1.081-1.342-2.014-1.565-2.796c-0.821-2.871-1.156-5.611-1.007-8.22
		c0.037-0.858,0.261-1.958,0.671-3.3c0.521-1.752,0-1.696-1.565,0.168c-1.156,1.528-1.939,3.206-2.349,5.033
		c-0.671,3.132-1.436,5.22-2.294,6.264c-0.261,0.298-0.671,0.597-1.23,0.895c-0.633,0.335-1.155,0.484-1.565,0.447l-0.671-0.447
		l-0.168-0.615l0.783-5.872c0.111-1.678,0-2.517-0.335-2.517c-0.188,0-0.393,0.354-0.615,1.062l-0.783,2.517
		c-0.896,2.833-1.641,4.604-2.236,5.312l-2.127,1.958l-2.125,1.287c-0.671,0.26-1.173,0.521-1.51,0.783
		c-0.446,0.373-0.819,0.932-1.117,1.678c-0.56,1.267-0.615,2.517-0.169,3.747l1.566,2.573l1.287,2.181
		c0.26,0.671,0.279,1.38,0.056,2.125c-0.15,0.41-0.671,0.97-1.566,1.678l-3.747,2.125c-1.716,0.634-3.038,1.397-3.971,2.293
		c-0.932,0.969-0.354,3.934,1.734,8.892c0.372,0.745,0.895,1.025,1.565,0.839l1.79-0.839c0.932-0.448,1.733-0.671,2.404-0.671
		c0.745,0,2.014,0.56,3.802,1.678c1.679,1.006,2.778,1.808,3.3,2.404c0.522,0.56,0.895,1.621,1.119,3.188
		c0.224,1.453,0.224,2.554,0,3.299l-0.782,1.399c-0.225,0.371-0.188,0.688,0.111,0.95l1.118,1.062
		c0.373,0.336,0.764,0.466,1.175,0.392l1.51-0.503l2.181-0.224l1.23,3.3l-0.56-0.113c-0.857-0.186-1.938,0.411-3.243,1.79
		l-2.907,2.629c-1.156,0.298-3.394-0.652-6.712-2.852c-0.597-0.411-0.876-0.951-0.838-1.622c0.074-1.081,0-1.92-0.225-2.517
		c-0.335-0.97-1.007-1.716-2.014-2.238c-1.304-0.483-2.349-0.95-3.131-1.397l-4.25,0.225l-4.027,1.621
		c-0.932,0.224-1.92-0.409-2.964-1.901c-0.782-1.155-1.435-2.497-1.957-4.026l-0.839-2.964c-0.148-0.933,0.056-1.846,0.615-2.74
		c0.521-0.858,0.82-2.927,0.895-6.208l-0.111-6.934c0-1.23,0.428-2.46,1.286-3.691l2.572-4.082c0.671-1.379,0.857-2.814,0.559-4.306
		c-0.409-2.125-0.597-3.523-0.559-4.194c0.074-1.007,0.652-2.871,1.733-5.592c1.007-2.498,1.454-4.25,1.343-5.257
		c-0.074-1.007-0.728-3.188-1.958-6.543c-1.268-3.542-1.994-5.834-2.181-6.878c-0.225-1.379-0.317-2.908-0.28-4.586l0.056-2.125
		l0.28,1.062c0.298,0.895,0.728,1.827,1.287,2.796c0.446,0.82,1.212,1.678,2.292,2.573c1.193,0.969,2.051,1.845,2.573,2.628
		c0.521,0.784,0.876,1.734,1.062,2.852c0.522-3.132,0.689-5.461,0.504-6.99c-0.112-1.007-0.857-2.051-2.237-3.132l-3.467-2.292
		c-0.746-0.522-2.162-1.715-4.25-3.58l-2.965-2.628l2.74,1.342c1.977,0.969,3.393,1.565,4.25,1.789l2.518,0.168l2.348-0.447
		c1.529-0.224,3.263,0.634,5.202,2.573c0.372,0.373,0.652,1.137,0.838,2.292c0.224,1.23,0.709,2.368,1.454,3.412
		c1.38,1.864,2.162,3.318,2.35,4.361c-1.38-8.947-2.162-14.54-2.35-16.777c-0.111-1.491,0.504-3.915,1.846-7.27
		c0.895-2.349,2.014-4.828,3.355-7.438c0.746-1.491,1.306-4.418,1.678-8.78l0.336-6.152l0.671,1.622
		c0.447,1.342,0.672,2.609,0.672,3.803c0,1.006,0.223,2.684,0.671,5.033l0.839,5.257c0.186,2.05,0.354,2.908,0.502,2.573
		c0.522-0.671,1.045-1.79,1.566-3.355c0.521-1.528,0.429-4.53-0.279-9.004l0.559,2.293l1.51,4.417
		c0.522,1.156,0.672,2.666,0.448,4.53l-0.671,4.754c-0.112,1.268,0.429,2.815,1.621,4.642l3.021,4.138
		c1.044,1.529,1.641,3.244,1.789,5.145c0.708-1.193,1.23-2.572,1.565-4.138l0.336-3.915
		C344.151,147.373,344.373,145.676,344.747,144.222"/>
	<path fill="#DDD583" d="M197.108,353.042c-4.922-3.579-9.452-7.382-13.589-11.408l-4.753-5.033l43.508-11.688
		c4.102,7.717,9.32,14.633,15.658,20.748c9.955,9.543,21.363,15.583,34.227,18.119c24.42,4.772,47.609-0.56,69.567-15.994
		c4.587-3.244,8.874-7.271,12.863-12.08c-13.757,19.724-30.217,31.988-49.381,36.798c-8.09,2.051-17.373,3.002-27.85,2.852
		l-30.143-2.292C229.58,371.049,212.879,364.376,197.108,353.042"/>
	<path fill="#D18200" d="M226.859,323.794l19.742-5.368c5.07,9.208,12.824,16.608,23.264,22.2c10.701,5.705,22.501,8.558,35.4,8.558
		c11.222,0,21.698-2.2,31.429-6.6c9.433-4.287,17.038-10.122,22.817-17.505c-4.81,8.726-11.129,15.734-18.958,21.027
		c-21.587,14.578-44.273,19.536-68.06,14.877c-12.267-2.424-22.817-8.166-31.652-17.226
		C235.918,338.688,231.259,332.032,226.859,323.794"/>
	<path fill="#F29600" d="M337.085,227.382l-0.782-4.419l2.292,2.013l2.014,2.853l6.767,9.115c5.854,8.352,10.7,18.119,14.539,29.306
		c3.692,10.736,5.538,20.038,5.538,27.905c0,10.961-2.647,21.269-7.941,30.925c-5.779,7.383-13.385,13.218-22.817,17.505
		c-9.73,4.399-20.207,6.6-31.429,6.6c-12.899,0-24.699-2.853-35.4-8.558c-10.439-5.592-18.193-12.992-23.264-22.2l22.984-6.208
		l1.23,1.174c2.088,1.417,6.264,3.654,12.527,6.711c9.06,4.437,18.565,5.163,28.521,2.182c12.005-3.579,22.108-12.21,30.311-25.894
		c5.295-8.836,7.308-19.312,6.04-31.429c-0.932-8.725-3.448-17.803-7.55-27.234c-2.051-4.698-3.803-8.276-5.256-10.738l-0.56-2.628
		L337.085,227.382"/>
	<path fill="#D18200" d="M237.373,339.899c-3.58-4.288-7.084-9.655-10.514-16.105l42.67-11.521l0.168,0.279
		c0.336,0.373,1.137,0.932,2.404,1.677c0.746,3.282,1.118,6.6,1.118,9.956c0,6.3-1.249,12.302-3.746,18.008
		c-2.424,5.518-5.836,10.364-10.234,14.54C250.925,352.967,243.637,347.356,237.373,339.899"/>
	<path fill="#DDD583" d="M189.67,347.281c-2.236-3.804-3.915-7.885-5.034-12.247l37.637-10.122
		c3.02,5.778,6.823,11.203,11.408,16.273c6.823,7.681,14.577,13.553,23.265,17.617c-3.952,3.242-8.276,5.74-12.975,7.492
		c-4.921,1.827-10.01,2.76-15.267,2.797C214.761,364.655,201.75,357.386,189.67,347.281"/>
	<path fill="#0D131A" d="M137.605,59.554l-16.274,18.008c-0.67,0.932-1.006,3.56-1.006,7.885c0,4.847,0.485,9.899,1.454,15.156
		c0.597,3.43,1.938,7.848,4.026,13.254c2.125,5.592,3.952,9.321,5.48,11.185l8.277,9.339l7.661,8.668
		c1.156,1.678,1.977,4.456,2.46,8.333c1.044,6.822,1.902,11.222,2.573,13.198c0.932,2.685,2.088,5.275,3.467,7.773
		c1.007,1.79,2.518,4.194,4.53,7.214c2.722,3.989,5.873,7.811,9.452,11.464l2.46-1.007l2.964-0.167
		c1.006,0.335,1.714,1.267,2.125,2.795l0.727,3.803l3.523,2.349c0.708,0.484,1.156,1.193,1.342,2.125
		c0.113,0.857-0.093,1.64-0.615,2.349l-8.165,10.569l-5.145,13.031c-0.41,1.08-1.193,1.714-2.349,1.901
		c-0.521,0.112-1.286-0.074-2.292-0.56l-2.014-1.342c-3.952-4.772-8.015-9.098-12.191-12.974c-6.264-5.78-11.26-9.023-14.988-9.731
		c-2.722-0.522-5.518-0.298-8.389,0.671c-0.858,0.336-3.094,1.398-6.71,3.188c-2.238,1.119-3.859,1.809-4.865,2.069
		c-1.678,0.446-3.17,0.335-4.474-0.335c-1.082-0.561-1.697-1.511-1.845-2.853l0.111-2.573l0.28-1.23
		c0.335-2.163-0.187-4.53-1.566-7.103c-0.895-1.566-2.628-3.15-5.201-4.754c-3.803-2.423-8.072-3.635-12.807-3.635
		c-10.923,0-22.443,4.548-34.561,13.646c-6.896,5.145-12.862,10.755-17.895,16.832c-0.187,1.567-0.187,3.486,0,5.762l0.335,3.635
		c0,1.864-0.447,3.505-1.341,4.921c-0.932,1.454-2.051,2.181-3.355,2.181c-1.23,0-2.331-0.466-3.299-1.397
		c-1.23-1.156-1.939-2.833-2.125-5.033l-0.057-0.336c-0.782-8.872-1.286-15.883-1.51-21.027c-0.149-3.467-0.149-5.555,0-6.263
		c0.672-4.586,2.163-11.837,4.474-21.754c2.162-9.32,4.12-17.038,5.873-23.152c1.528-5.369,3.989-12.657,7.381-21.866
		c3.169-8.612,5.239-13.776,6.208-15.491c1.267-2.274,6.338-8.575,15.21-18.902c8.762-10.179,14.243-16.163,16.442-17.952
		c1.827-1.491,4.735-3.131,8.724-4.921l3.579-1.622c1.529-0.708,2.46-1.193,2.796-1.454l13.869-10.737l14.316-10.905
		c2.797-2.013,5.463-3.225,7.998-3.635c2.647-0.41,4.623,0.13,5.928,1.622c0.969,1.119,1.416,2.573,1.342,4.362
		C139.843,56.143,139.059,57.951,137.605,59.554"/>
	<path fill="#008086" d="M81.011,105.691c8.165-6.935,12.936-10.701,14.316-11.297c1.864-0.261,4.474,0.038,7.829,0.895
		c3.393,0.895,5.406,1.846,6.04,2.852c0.41,0.783,2.777,7.979,7.103,21.587l3.076,9.171c0.782,2.05,6.245,7.494,16.385,16.33
		c1.306,1.156,2.983,5.238,5.033,12.247l1.342,4.474l2.629,10.122l3.579,14.708c0.784,3.02,1.491,4.734,2.125,5.145
		c2.498,1.715,5.332,4.381,8.5,7.997c0.596,0.708,1.864,3.43,3.803,8.165l5.256,13.255l-1.957,4.417
		c-3.057-3.392-6.599-6.897-10.626-10.514c-8.052-7.195-14.502-11.24-19.349-12.135c-4.623-0.858-9.693-0.037-15.211,2.46
		l-5.145,2.405c-1.604,0.634-2.797,0.745-3.58,0.335c-0.41-0.224-0.689-0.987-0.839-2.292l-0.112-1.845
		c0.261-0.597,0.392-1.417,0.392-2.46c0-2.051-0.615-4.213-1.846-6.487c-1.044-1.977-3.131-3.822-6.264-5.537
		c-4.1-2.274-8.78-3.412-14.036-3.412c-10.589,0-21.513,3.822-32.771,11.464c-6.972,4.735-13.459,10.439-19.462,17.112
		c0.411-15.062,0.857-23.506,1.343-25.333c1.603-6.525,5.032-17.244,10.29-32.157c7.009-19.797,12.621-32.361,16.833-37.692
		C67.477,117.435,72.585,112.774,81.011,105.691"/>
	<path fill="#F29600" d="M134.698,58.1c-9.396,9.992-15.006,16.125-16.833,18.399c-1.193,1.528-1.584,5.145-1.175,10.849
		c0.261,3.803,0.858,8.22,1.79,13.254c0.597,3.393,2.106,7.979,4.53,13.757c2.46,5.816,4.586,9.824,6.375,12.023l15.323,17.896
		c1.043,1.379,1.957,4.436,2.74,9.171c0.969,5.816,1.715,9.47,2.236,10.961c0.97,2.833,1.958,5.351,2.964,7.55l3.747,7.271
		c1.379,2.572,3.691,5.816,6.935,9.73c3.02,3.616,4.828,5.537,5.425,5.76l2.013-0.615c0.97-0.485,1.734-0.634,2.293-0.448
		c1.043,0.336,1.734,1.883,2.069,4.642l4.641,3.076l-8.389,10.96l-1.174,2.908c-4.511-10.178-7.418-15.994-8.723-17.448
		c-3.99-4.586-7.271-7.736-9.843-9.451c-0.708-0.82-2.516-6.935-5.425-18.343l-2.685-10.29l-1.341-4.418l-2.069-6.543
		c-0.821-1.976-1.771-3.449-2.853-4.417l-8.611-8.389c-4.176-4.287-6.451-6.934-6.823-7.94l-3.076-9.061
		c-4.922-14.763-7.605-22.481-8.053-23.152c-0.969-1.603-3.486-2.908-7.55-3.915c-3.69-0.895-6.655-1.175-8.891-0.839
		c-1.38,0.224-6.581,4.288-15.603,12.191c-8.724,7.605-13.888,12.434-15.492,14.484c-4.585,5.816-10.401,19.275-17.448,40.377
		c-3.541,10.551-6.636,20.636-9.282,30.255c-0.597,2.46-1.101,12.21-1.51,29.249l-0.503,9.898c0,0.856-0.168,1.603-0.504,2.236
		c-0.335,0.597-0.708,0.895-1.118,0.895c-0.522,0-0.895-0.148-1.119-0.446c-0.41-0.448-0.671-1.306-0.784-2.573l-0.726-11.409
		l-0.615-10.904c0.037-3.952,1.119-11.017,3.244-21.195c1.864-9.097,3.672-16.554,5.425-22.37
		c2.609-8.725,5.741-18.063,9.395-28.018c3.057-8.202,4.995-13.048,5.815-14.54c1.156-2.088,5.91-8.072,14.26-17.951
		c8.389-9.955,13.609-15.752,15.659-17.393c1.715-1.379,5.108-3.207,10.179-5.48c2.536-1.156,4.902-2.162,7.103-3.02l24.774-20.412
		c2.051-1.715,4.101-2.89,6.151-3.523c2.125-0.634,3.523-0.484,4.194,0.448C137.102,53.775,136.747,55.863,134.698,58.1"/>
	<path fill="#00666C" d="M107.966,111.619c-0.857-0.41-2.125-0.802-3.803-1.175l-4.138-0.615c-2.61,1.79-7.345,5.611-14.206,11.465
		c-7.233,6.151-11.557,10.122-12.974,11.912c-3.915,4.958-9.339,17.15-16.274,36.574c-5.293,14.689-8.78,25.295-10.457,31.82
		l-0.335,4.698c-2.834,2.572-5.686,5.425-8.557,8.556c0.411-15.062,0.857-23.506,1.343-25.333
		c1.603-6.525,5.032-17.244,10.29-32.157c7.009-19.797,12.621-32.361,16.833-37.692c1.79-2.237,6.897-6.897,15.323-13.98
		c8.165-6.935,12.936-10.701,14.316-11.297c1.864-0.261,4.474,0.038,7.829,0.895c3.393,0.895,5.406,1.846,6.04,2.852
		c0.41,0.783,2.777,7.979,7.103,21.587l3.076,9.171c0.782,2.05,6.245,7.494,16.385,16.33c1.306,1.156,2.983,5.238,5.033,12.247
		l1.342,4.474l2.629,10.122l3.579,14.708c0.784,3.02,1.491,4.734,2.125,5.145c2.498,1.715,5.332,4.381,8.5,7.997
		c0.596,0.708,1.864,3.43,3.803,8.165l5.256,13.255l-1.957,4.417l-4.865-5.033c-1.641-4.101-2.703-6.505-3.188-7.213
		c-2.909-3.356-5.35-5.668-7.326-6.935c-1.306-0.895-2.312-2.293-3.02-4.195c-0.522-1.342-1.361-4.436-2.517-9.283l-2.292-9.451
		l-2.573-9.787l-1.397-4.698c-0.895-3.058-1.771-6.804-2.629-11.241l-1.007-5.705l-15.602-13.421
		c-2.647-2.423-4.363-4.791-5.145-7.103L107.966,111.619"/>
	<path fill="#0D131A" d="M422.704,157.644c1.268,3.244,2.852,11.092,4.754,23.543c1.826,11.931,2.74,19.816,2.74,23.656v1.23
		l-0.169,24.438c-0.483,4.586-2.423,6.842-5.815,6.768c-1.491-0.038-2.555-0.728-3.188-2.069c-0.596-1.269-0.895-3.356-0.895-6.265
		c0-1.827-0.186-3.504-0.559-5.032c-7.493-7.382-15.36-14.746-23.601-22.09c-11.185-9.917-18.678-15.696-22.48-17.336
		c-4.587-1.976-10.271-2.833-17.057-2.572c-5.555,0.261-9.507,0.97-11.855,2.125c-1.082,0.522-3.729,3.281-7.941,8.276l-4.866,5.313
		c-1.117,1.081-2.162,1.678-3.131,1.789l-2.125-0.279l-3.3-1.398c-5.667-2.46-9.805-4.044-12.415-4.753
		c-6.077-1.604-11.222-1.548-15.435,0.167c-5.966,2.423-12.62,6.152-19.966,11.185c-5.592,3.84-9.339,6.712-11.24,8.613
		c-0.634,0.708-2.554,4.193-5.76,10.458l-9.619,18.957c-0.484,0.895-1.565,1.38-3.244,1.454c-1.193,0-2.125-0.502-2.796-1.51
		l-25.333-42.614c-0.597-0.969-0.634-1.958-0.112-2.964c0.56-1.044,1.397-1.603,2.517-1.678l10.793-0.279
		c1.565-4.586,2.907-7.308,4.026-8.166c0.633-0.447,1.845-0.82,3.635-1.118l5.201,0.112l8.947-5.928l13.59-9.842
		c7.419-5.667,13.757-11.8,19.014-18.399c0.932-2.2,2.441-7.139,4.529-14.82c2.201-8.127,4.271-16.516,6.208-25.166
		c1.79-8.016,3.281-16.05,4.475-24.103c1.08-7.345,1.565-12.042,1.454-14.093c-0.075-1.118-1.175-3.336-3.3-6.655
		c-2.312-3.653-5.425-7.941-9.339-12.862c-1.565-1.939-2.592-3.989-3.076-6.152c-0.596-2.609-0.224-4.884,1.118-6.822
		c1.007-1.454,2.256-2.312,3.747-2.572c1.641-0.261,3.448,0.074,5.425,1.006c1.678,0.784,3.225,1.827,4.642,3.132l9.115,8.78
		l8.724,8.444c0.299,0.261,1.604,0.615,3.915,1.062l4.586,0.951c1.081,0.335,5.424,2.46,13.03,6.375l12.415,6.152
		c3.654,1.156,7.382,1.957,11.185,2.405l4.475,0.615c1.714,0.298,2.796,0.67,3.242,1.118c2.61,2.461,7.83,10.458,15.659,23.991
		l16.329,28.801c3.356,5.779,7.494,11.763,12.416,17.952L422.704,157.644"/>
	<path fill="#F29600" d="M409.506,146.795l5.258,7.102l4.306,6.543c1.229,3.094,2.87,10.42,4.921,21.978
		c2.051,11.445,3.075,18.92,3.075,22.425v12.248l-0.167,12.414c-0.149,1.306-0.392,2.256-0.728,2.853
		c-0.447,0.783-1.1,1.155-1.957,1.117c-0.56-0.037-0.969-0.782-1.23-2.236c-0.187-1.006-0.279-2.125-0.279-3.355l-0.111-4.978
		l-3.804-41.215v-0.224c-3.69-13.645-11.39-30.739-23.097-51.282c-10.625-18.604-19.106-31.056-25.444-37.357
		c-1.753-1.789-9.601-5.014-23.544-9.674c-12.9-4.362-19.761-6.543-20.58-6.543c-2.312-0.187-4.661,0.317-7.047,1.51
		c-2.386,1.231-4.213,2.871-5.48,4.922c-1.268,2.013-4.66,13.496-10.179,34.449c-1.64,6.375-3.41,15.826-5.312,28.353
		c-1.082,7.083-1.79,10.961-2.125,11.632c-0.597,1.119-5.258,4.81-13.981,11.073l-6.375,4.698c-1.268,1.044-2.609,2.703-4.026,4.977
		c-0.746,1.155-1.809,3.039-3.188,5.648l-1.23,2.293c-0.186,0.223-1.174,0.54-2.964,0.951c-3.504,0.857-6.338,1.659-8.5,2.405
		c-2.833,0.969-6.544,5.554-11.129,13.757c-3.058,5.48-6.264,12.117-9.619,19.909l-14.931-25.054l12.918-1.007l1.286-3.635
		c0.969-2.498,1.79-3.989,2.461-4.474c0.932-0.634,2.497-0.932,4.697-0.895l2.964,0.224l10.57-7.159l12.917-8.835
		c1.528-1.156,5.165-4.511,10.906-10.066c5.704-5.555,8.704-8.649,9.003-9.284c1.902-4.101,5.425-17.411,10.57-39.929
		c5.294-23.264,7.735-36.965,7.326-41.104c-0.15-1.455-2.238-4.997-6.264-10.626l-7.605-9.955c-1.082-1.342-1.827-2.889-2.238-4.642
		c-0.483-1.864-0.409-3.355,0.225-4.474c0.634-1.081,1.901-1.249,3.803-0.503c1.678,0.634,3.393,1.752,5.146,3.356l9.06,9.227
		l8.333,8.444l4.753,0.783l6.543,1.398c1.528,0.522,9.469,4.231,23.823,11.129l9.73,2.74c4.959,1.268,7.643,2.088,8.054,2.461
		c3.542,3.392,11.147,15.043,22.817,34.952L409.506,146.795"/>
	<path fill="#008086" d="M416.889,182.139l3.467,38.587c-7.756-7.308-15.192-14.055-22.314-20.244
		c-11.52-9.992-19.349-15.882-23.487-17.672c-5.034-2.162-11.109-3.001-18.23-2.517c-5.668,0.373-9.918,1.268-12.751,2.685
		c-1.23,0.596-3.84,3.095-7.829,7.494c-3.691,4.027-6.245,6.17-7.662,6.432c-0.857,0.186-2.535-0.224-5.032-1.231l-7.773-3.131
		c-7.83-2.759-14.635-2.964-20.413-0.615c-6.412,2.647-13.402,6.245-20.972,10.793c-6.375,3.84-10.364,6.524-11.967,8.054
		c-0.969,0.968-4.009,6.244-9.115,15.826l-7.383,14.093l-7.661-12.304c5.443-13.534,8.463-20.972,9.06-22.313
		c3.579-7.979,6.468-12.34,8.668-13.086c1.566-0.56,4.66-1.324,9.283-2.293l2.796-0.727l1.678-1.231l1.454-2.628l2.572-5.928
		c1.23-2.647,2.35-4.4,3.356-5.257l2.852-1.79l4.026-2.517l10.011-7.382c2.722-2.125,4.306-3.654,4.753-4.585l1.008-3.971
		l1.341-8.444l1.901-13.31c0.857-5.667,1.771-10.346,2.741-14.037l5.983-22.816c1.789-6.636,2.89-10.291,3.299-10.961
		c1.008-1.566,2.759-2.815,5.258-3.747c2.273-0.895,4.398-1.249,6.375-1.062c1.864,0.298,8.65,2.46,20.355,6.487
		c12.789,4.362,19.891,7.251,21.308,8.668c6.486,6.524,15.025,18.679,25.613,36.462
		C405.498,152.126,413.309,168.866,416.889,182.139"/>
	<path fill="#00666C" d="M411.24,212.282l-1.51-16.722c-3.505-12.863-11.129-29.137-22.873-48.821
		c-10.289-17.188-18.491-28.895-24.605-35.12c-1.827-1.268-8.24-3.784-19.238-7.55c-9.843-3.356-16.386-5.443-19.629-6.264
		c-1.118-0.037-2.349,0.205-3.691,0.727c-1.342,0.484-2.255,1.007-2.74,1.566c-0.56,1.491-2.87,9.992-6.935,25.501l-1.79,6.99
		c-1.192,4.511-2.404,11.278-3.635,20.3l-0.895,6.487l-1.621,9.562c-0.373,2.013-0.803,3.467-1.286,4.362
		c-0.672,1.379-2.162,3.039-4.475,4.977l-11.855,8.948l-4.754,2.964l-1.845,1.119c-13.349,12.004-20.842,18.286-22.482,18.846
		c-2.088,1.715-6.245,10.532-12.47,26.452v0.056l-5.146-8.276c5.443-13.534,8.463-20.972,9.06-22.313
		c3.579-7.979,6.468-12.34,8.668-13.086c1.566-0.56,4.66-1.324,9.283-2.293l2.796-0.727l1.678-1.231l1.454-2.628l2.572-5.928
		c1.23-2.647,2.35-4.4,3.356-5.257l2.852-1.79l4.026-2.517l10.011-7.382c2.722-2.125,4.306-3.654,4.753-4.585l1.008-3.971
		l1.341-8.444l1.901-13.31c0.857-5.667,1.771-10.346,2.741-14.037l5.983-22.816c1.789-6.636,2.89-10.291,3.299-10.961
		c1.008-1.566,2.759-2.815,5.258-3.747c2.273-0.895,4.398-1.249,6.375-1.062c1.864,0.298,8.65,2.46,20.355,6.487
		c12.789,4.362,19.891,7.251,21.308,8.668c6.486,6.524,15.025,18.679,25.613,36.462c12.042,20.207,19.853,36.947,23.433,50.219
		l3.467,38.587L411.24,212.282"/>
	<path fill="#0D131A" d="M70.329,223.745l-1.119-0.223l-1.957-1.398c-1.305-1.491-1.864-3.337-1.678-5.537
		c0.113-1.49,1.473-3.933,4.083-7.325c2.162-2.833,3.784-4.697,4.865-5.592l0.447-0.392l-2.236-6.096l-0.335-0.67
		c-0.522-1.082-0.821-2.032-0.895-2.853c-0.074-1.044,0.13-2.218,0.615-3.523c0.895-2.2,2.423-3.747,4.585-4.642
		c1.491-0.597,3.617-0.858,6.375-0.783l4.307,0.503c1.268,0.522,3.337,2.815,6.207,6.879l0.95,0.391l1.231,0.336l4.138-1.958
		c1.902-1.417,3.299-2.292,4.194-2.628c1.193-0.447,2.536-0.466,4.027-0.056c2.049,0.521,3.802,2.479,5.256,5.872
		c1.267,3.02,1.715,5.406,1.341,7.158c-0.148,0.783-0.652,2.069-1.51,3.859l-2.516,4.921l-0.615,1.118l0.168,1.287
		c7.493,6.748,12.377,9.824,14.651,9.228l4.362-1.062c2.945-0.746,5.742-1.679,8.388-2.796c4.363-1.827,8.091-3.653,11.186-5.48
		c0.895-2.349,1.64-3.972,2.236-4.866c1.528-2.162,3.766-3.877,6.71-5.145c2.499-1.081,6.562-1.678,12.192-1.79
		c3.318-0.074,6.263-0.019,8.836,0.168l4.139,0.391l-14.317,30.758l-2.125-0.392l-9.674-3.132l-6.375,3.188l-8.948,4.307
		l-3.802,2.013l-3.244,1.957c-3.542,1.864-6.338,2.89-8.389,3.075c-4.698,0.336-10.383-1.49-17.057-5.48
		c-4.138-2.498-8.388-5.629-12.75-9.394c-1.378,0.782-2.628,1.191-3.746,1.229c-1.566,0.074-3.281-0.429-5.145-1.51
		c-1.082-0.597-2.275-1.752-3.579-3.468l-2.518-3.747l-1.341,2.74l-0.951,1.007L70.329,223.745"/>
	<path fill="#F29600" d="M70.44,220.838c-0.447,0-0.875-0.168-1.286-0.503c-0.857-0.671-1.23-1.79-1.119-3.356
		c0.076-1.118,0.485-2.273,1.231-3.466l2.852-3.636l3.579-3.412l2.237-2.013c0.411-0.633-0.447-3.43-2.572-8.389
		c-0.969-2.237-1.454-3.728-1.454-4.474c-0.037-1.752,1.175-3.132,3.635-4.138l5.145-0.28l3.748,0.615l2.348,2.684l2.46,3.3
		c0.746,1.044,2.069,1.64,3.971,1.79l5.312-2.572c1.267-0.97,2.367-1.548,3.299-1.734l3.132,0.28
		c1.155,0.298,2.274,1.752,3.355,4.362c1.006,2.46,1.397,4.231,1.174,5.312c-0.149,0.821-0.765,2.312-1.845,4.474l-2.126,4.194
		c-0.521,1.044-0.447,2.423,0.224,4.139l7.103,5.648c5.256,3.653,9.208,5.126,11.855,4.418l5.201-1.79l7.829-3.02l11.521-4.866
		c0.186-1.006,0.689-2.162,1.51-3.467c1.677-2.61,4.213-4.642,7.605-6.096c2.273-0.969,6.002-1.473,11.185-1.51l7.046,0.224
		l-11.631,25.054l-8.222-4.307c-7.68,3.99-13.794,6.916-18.342,8.78c-1.641,0.709-4.455,2.089-8.444,4.139
		c-2.61,1.379-4.53,2.106-5.761,2.181c-4.25,0.336-9.599-1.453-16.05-5.369c-3.952-2.423-7.978-5.406-12.079-8.947
		c-0.149-0.112,0.037-0.633,0.559-1.565l0.839-1.398l-2.964,2.069c-0.522,0.597-1.267,1.045-2.236,1.342
		c-1.902,0.634-3.99,0.316-6.264-0.95c-1.939-1.119-3.561-2.722-4.865-4.81l-1.343-2.797l-3.971,4.251L70.44,220.838"/>
	<path fill="#0D131A" d="M106.847,202.215l-4.53,2.74c-2.535,1.23-4.287,1.864-5.256,1.901c-0.597,0-1.1-0.167-1.51-0.503
		c-0.709-0.746-0.802-2.647-0.279-5.704c0.484-2.834,1.062-4.81,1.734-5.929c0.895-1.379,2.106-2.386,3.635-3.02l4.306-0.168
		c1.305,0.485,2.255,1.379,2.852,2.685c0.522,1.118,0.672,2.33,0.448,3.635l-0.111,0.783
		C107.91,200.313,107.481,201.507,106.847,202.215"/>
	<path fill="#0D131A" d="M104.778,191.981l-3.971,0.224c-1.416,0.597-2.535,1.529-3.355,2.796c-0.634,1.007-1.193,2.89-1.677,5.649
		c-0.485,2.945-0.429,4.716,0.167,5.312c0.261,0.26,0.615,0.391,1.063,0.391c0.895-0.037,2.59-0.652,5.088-1.845
		c2.424-1.193,3.877-2.069,4.363-2.628c0.596-0.671,0.988-1.771,1.174-3.299l0.111-0.783c0.187-1.23,0.056-2.368-0.391-3.412
		C106.828,193.23,105.97,192.429,104.778,191.981 M96.557,194.442c0.969-1.492,2.275-2.554,3.915-3.188l4.641-0.223
		c1.231,0.484,2.182,1.286,2.853,2.405c0.597,1.006,0.895,2.125,0.895,3.355l-0.224,1.958c-0.224,1.752-0.689,3.02-1.397,3.803
		c-0.56,0.671-2.126,1.622-4.698,2.852c-2.647,1.268-4.474,1.92-5.48,1.958c-0.746,0.037-1.361-0.187-1.846-0.671
		c-0.857-0.858-1.007-2.909-0.448-6.152C95.253,197.667,95.849,195.635,96.557,194.442"/>
	<path fill="#FFFFFF" d="M103.995,199.308c-0.671,0.82-3.17,2.796-7.494,5.928c-0.335-0.335-0.354-1.771-0.056-4.306
		c0.335-2.573,0.782-4.381,1.342-5.424c0.634-1.082,1.528-1.902,2.685-2.461c1.193-0.597,2.293-0.708,3.299-0.335
		c1.082,0.373,1.827,1.118,2.236,2.237c-0.111,1.044-0.354,1.92-0.727,2.628L103.995,199.308"/>
	<path fill="#DBDCDC" d="M105.337,200.929c-0.41,0.522-1.882,1.435-4.417,2.74c-2.647,1.342-4.12,1.864-4.418,1.566
		c4.324-3.132,6.823-5.108,7.494-5.928l1.286-1.734c0.373-0.708,0.615-1.584,0.727-2.628c0.261,0.708,0.355,1.473,0.28,2.293
		l-0.28,2.125L105.337,200.929"/>
	<path fill="#0D131A" d="M69.602,216.364c0.745-0.634,1.808-1.082,3.187-1.342c1.454-0.263,2.722,0.037,3.803,0.894
		c0.745,0.597,1.268,1.343,1.565,2.237l2.909,4.586c0.41,0.447,1.156,0.857,2.236,1.23l1.734,0.503l-0.783,1.622
		c-0.819,1.678-3.206,2.404-7.158,2.181l-4.53-0.614c-1.566-0.485-2.815-1.418-3.747-2.797c-0.634-0.932-1.025-1.995-1.175-3.188
		c-0.148-1.155-0.019-2.161,0.391-3.02l0.168-0.279C68.576,217.521,69.043,216.85,69.602,216.364"/>
	<path fill="#0D131A" d="M69.769,216.587c-0.484,0.411-0.932,1.026-1.342,1.847l-0.168,0.335c-0.373,0.821-0.502,1.79-0.391,2.907
		c0.148,1.156,0.522,2.183,1.119,3.077c0.932,1.305,2.144,2.181,3.635,2.629l4.474,0.614c3.876,0.224,6.17-0.447,6.878-2.013
		l0.728-1.342l-1.454-0.448c-1.193-0.411-1.995-0.839-2.405-1.287c-0.522-0.597-1.473-2.087-2.852-4.473l-0.057-0.057l-0.167-0.28
		c-0.298-0.856-0.802-1.564-1.51-2.124c-0.969-0.746-2.125-0.987-3.468-0.728C71.485,215.506,70.478,215.953,69.769,216.587
		 M68.595,225.032c-0.858-1.267-1.286-2.647-1.286-4.139c0-0.895,0.168-1.678,0.504-2.349l0.167-0.279
		c0.448-0.933,0.932-1.622,1.454-2.07c0.784-0.707,1.883-1.192,3.3-1.453c1.417-0.262,2.647,0,3.69,0.783
		c0.784,0.559,1.38,1.324,1.79,2.293l3.02,4.754c0.374,0.446,1.1,0.819,2.182,1.117l1.677,0.56l0.168,0.112l0.056,0.111
		l-0.839,1.733c-0.858,1.752-3.318,2.518-7.382,2.293l-4.586-0.615C70.869,227.362,69.565,226.411,68.595,225.032"/>
	<path fill="#FFFFFF" d="M69.49,219.328l0.895-1.398c0.56-0.521,1.398-0.876,2.517-1.062c1.155-0.224,2.068,0.074,2.74,0.896
		c0.373,0.372,0.615,0.782,0.727,1.23l1.23,2.069l1.902,2.796c0.596,0.671,1.566,1.211,2.908,1.621
		C75.698,226.448,71.392,224.398,69.49,219.328"/>
	<path fill="#DBDCDC" d="M69.993,224.082c-0.485-0.709-0.783-1.51-0.895-2.406c-0.074-0.819,0.019-1.51,0.28-2.069l0.111-0.278
		c1.902,5.07,6.208,7.12,12.919,6.151c-0.112,0.261-0.447,0.504-1.006,0.727l-4.53,0.504l-3.915-0.447
		C71.727,225.889,70.739,225.162,69.993,224.082"/>
	<path fill="#0D131A" d="M82.464,191.422c1.156,1.305,1.641,2.815,1.454,4.53c-0.111,1.528-0.578,2.61-1.397,3.244l-2.405,2.237
		l-2.405,2.684c-0.448,0.709-0.709,1.883-0.783,3.524l-0.391,1.454l-1.623-0.057c-0.969-0.297-1.901-0.876-2.796-1.732
		c-1.79-1.752-2.685-4.12-2.685-7.103c0-2.833,1.212-5.891,3.635-9.171c0.298-0.41,0.913-0.802,1.845-1.174
		c0.857-0.298,1.66-0.466,2.405-0.503C79.407,189.241,81.122,189.931,82.464,191.422"/>
	<path fill="#0D131A" d="M72.622,190.751c0.373-0.522,1.081-0.969,2.125-1.342l2.516-0.559c2.312-0.112,4.176,0.634,5.593,2.237
		c1.193,1.379,1.733,3.02,1.622,4.921c-0.187,1.641-0.727,2.852-1.622,3.635l-2.349,2.125c-1.267,1.267-2.051,2.144-2.349,2.628
		c-0.41,0.597-0.652,1.715-0.727,3.356l-0.392,1.453l-0.167,0.28l-1.958,0.057h-0.111c-0.932-0.188-1.938-0.821-3.02-1.902
		c-1.901-1.827-2.853-4.307-2.853-7.438C68.93,197.332,70.162,194.181,72.622,190.751 M79.78,201.097l2.405-2.293
		c0.709-0.521,1.119-1.491,1.231-2.908l0.056-0.447c0-1.342-0.467-2.573-1.398-3.691c-1.156-1.305-2.74-1.938-4.754-1.901
		l-2.181,0.503l-1.678,1.007c-2.348,3.206-3.522,6.151-3.522,8.836c0,2.759,0.801,4.959,2.405,6.599
		c0.857,0.895,1.752,1.473,2.684,1.734l1.118,0.055l0.279-1.006c0-1.603,0.28-2.852,0.839-3.747
		C77.599,203.315,78.438,202.401,79.78,201.097"/>
	<path fill="#FFFFFF" d="M80.227,197.238l-3.411,3.075c-1.492,1.902-1.847,4.157-1.063,6.767v0.28
		c-0.708-0.224-1.436-0.689-2.181-1.398c-1.454-1.454-2.181-3.449-2.181-5.984c0-1.492,0.391-3.132,1.174-4.922
		c0.596-1.341,1.268-2.498,2.013-3.467c0.485-0.596,1.528-0.895,3.132-0.895c1.79,0.037,3.113,0.559,3.971,1.565l0.559,0.728
		C81.867,194.852,81.197,196.269,80.227,197.238"/>
	<path fill="#DBDCDC" d="M81.961,197.797c-2.684,2.013-4.418,3.598-5.202,4.753c-0.521,0.857-0.856,2.368-1.006,4.53
		c-0.783-2.61-0.428-4.865,1.063-6.767l3.411-3.075c0.969-0.97,1.64-2.386,2.014-4.25c0.521,0.932,0.689,1.938,0.502,3.02
		C82.595,196.903,82.334,197.499,81.961,197.797"/>
	<path fill="#D18200" d="M81.793,210.547c0-2.534,0.95-4.827,2.853-6.877c1.938-2.051,4.138-3.113,6.598-3.188
		c-2.796,3.654-3.915,6.729-3.355,9.228c0.374,1.678,1.884,3.094,4.53,4.25c2.201,0.97,4.363,1.492,6.488,1.566l-2.46,2.797
		c-0.969,0.819-2.106,1.229-3.412,1.229c-2.722,0-5.238-0.858-7.55-2.573C83.023,215.115,81.793,212.971,81.793,210.547"/>
	<path fill="#0D131A" d="M90.013,202.215c1.79-2.833,2.834-4.101,3.133-3.803l-2.293,3.97c-1.529,2.946-2.106,5.294-1.734,7.047
		c0.336,1.343,1.678,2.59,4.027,3.746c2.199,1.082,4.231,1.623,6.095,1.623c1.305,0,2.703-0.318,4.194-0.952l1.845-0.838
		c-1.678,1.677-3.728,2.517-6.151,2.517c-2.088,0-4.289-0.503-6.599-1.51c-2.722-1.156-4.269-2.592-4.643-4.307
		C87.442,207.733,88.15,205.235,90.013,202.215"/>
	<path fill="#0D131A" d="M152.313,260.936l3.075-1.454l36.24,82.879l-4.531,0.56c-2.721,0.335-5.051,0.801-6.99,1.397
		c-0.857,0.299-2.46,1.324-4.809,3.076l-3.635,2.404c1.119,1.566,1.995,3.766,2.629,6.599c0.596,2.648,0.745,4.455,0.447,5.426
		c-0.373,1.305-1.062,2.44-2.068,3.411c-0.932,0.895-1.958,1.51-3.077,1.845c-4.213,0.896-7.568,1.864-10.066,2.908
		c-1.603,0.633-4.007,2.015-7.214,4.139l-4.642,3.299l-1.845,1.79c-0.933,0.634-2.069,1.062-3.412,1.287
		c-1.118,0.186-2.983-0.131-5.592-0.951l-4.139,0.951l-4.418,1.117c-1.975,0.672-3.69,1.343-5.145,2.014l-2.181,1.062
		c-1.119,0.522-1.938,0.728-2.46,0.616c-0.783-0.188-1.082-0.989-0.895-2.406c0.186-1.342,0.689-2.926,1.51-4.753l1.174-2.349
		l-10.178,0.503c-1.267,0.225-2.479,0.559-3.635,1.007l-2.46,1.062l-2.069,0.168c-0.373-0.224-0.504-0.615-0.391-1.175
		c0.148-1.192,0.521-2.479,1.118-3.857c1.156-2.797,2.982-5.352,5.481-7.662l-4.363-0.113c-2.088,0.038-3.765,0.337-5.034,0.896
		c-1.901,0.894-2.46,0.074-1.677-2.461c0.634-2.052,2.553-4.325,5.76-6.824c1.79-1.341,3.728-2.515,5.816-3.522
		c1.752-0.857,3.225-1.416,4.418-1.678l0.559-0.111l1.286-0.111l6.935-4.363c1.938-1.342,3.822-2.964,5.648-4.865l2.572-3.131
		l0.559-2.573l-3.299-2.46c-1.752-1.38-3.131-2.74-4.139-4.083c-3.876-5.22-6.114-9.805-6.711-13.757
		c-1.081-7.42,1.436-16.348,7.55-26.787c4.102-7.047,10.57-14.279,19.406-21.699C150.505,262.837,153.469,260.413,152.313,260.936"
		/>
	<path fill="#F29600" d="M144.595,270.051c2.201-1.827,4.363-3.374,6.488-4.642l2.573-1.398l32.995,75.554
		c-2.871,0.335-5.387,0.839-7.549,1.51c-1.156,0.373-2.629,1.323-4.418,2.852c-2.013,1.716-3.561,2.834-4.641,3.355
		c-0.634,0.335-1.622,0.951-2.964,1.846l-1.79,1.229l1.565,0.225c1.082,0.149,1.809,0.335,2.182,0.56
		c0.447,0.298,0.913,1.268,1.397,2.907l1.007,4.642c-0.747,1.193-2.423,2.331-5.034,3.412c-1.864,0.745-3.84,1.36-5.928,1.845
		c-1.938,0.448-4.026,1.101-6.264,1.958c-2.646,0.97-4.678,1.938-6.096,2.908l-4.194,2.629c-1.341,0.745-2.535,1.173-3.579,1.285
		l-2.796,4.195c-3.281-1.082-7.027-2.703-11.24-4.866c-4.511-2.35-7.96-4.53-10.347-6.543c-2.722-2.274-4.287-4.418-4.697-6.431
		l0.224-2.349l12.639-7.887c2.199-1.527,4.213-3.316,6.04-5.369c1.416-1.602,2.311-2.852,2.685-3.746l0.223-1.565l2.181,0.671
		l5.929,0.448l-3.076-0.671l-2.405-0.896c-0.597-0.186-1.361-0.56-2.293-1.117l-1.286-0.84c-1.267-0.82-3.094-2.833-5.48-6.039
		c-2.983-3.915-4.791-8.296-5.425-13.143c-1.082-7.717,0.839-16.068,5.76-25.053C131.715,282.914,137.586,275.755,144.595,270.051"
		/>
	<path fill="#D18200" d="M166.406,362.102c2.61-1.081,4.287-2.219,5.034-3.412c0.186,1.566,0.223,2.517,0.111,2.854
		c-0.448,1.155-1.305,2.086-2.573,2.796l-3.131,1.174l-6.711,2.069c-0.783,0.148-2.74,1.174-5.873,3.076l-5.76,3.578l-2.292,1.958
		c-0.97,0.82-2.126,1.341-3.468,1.566c-0.745,0.111-2.144-0.168-4.194-0.839l2.796-4.195c1.044-0.112,2.238-0.54,3.579-1.285
		l4.194-2.629c1.417-0.971,3.449-1.938,6.096-2.908c2.237-0.857,4.325-1.51,6.264-1.958
		C162.566,363.462,164.542,362.847,166.406,362.102"/>
	<path fill="#0D131A" d="M136.263,341.018c-0.746-0.484-1.063-0.801-0.95-0.95l1.118,0.336l2.349,0.782l3.075,0.28l1.734,0.224
		l-1.677,0.447l-3.077-0.112C137.978,341.876,137.121,341.54,136.263,341.018"/>
	<path fill="#D18200" d="M153.488,334.139c-4.287-6.3-6.431-13.327-6.431-21.082c0-6.077,1.36-11.782,4.082-17.113
		c2.647-5.145,6.264-9.395,10.849-12.751l24.663,56.372c-2.871,0.335-5.387,0.839-7.549,1.51c-1.156,0.373-2.629,1.323-4.418,2.852
		c-2.013,1.716-3.561,2.834-4.641,3.355l-0.056,0.056C163.199,344.728,157.7,340.328,153.488,334.139"/>
	<path fill="#FFFFFF" d="M114.676,354.216c0.522-0.148,0.969,0.074,1.343,0.671c0.41,0.634,0.689,1.585,0.838,2.853
		c0.187,1.827,0,3.989-0.559,6.486h-12.023c-1.268,0.074-2.777,0.411-4.53,1.008l-2.238,0.895c-0.148-0.446-0.019-1.101,0.392-1.957
		c0.782-1.678,2.498-3.505,5.145-5.481c1.79-1.343,4.138-2.441,7.046-3.299L114.676,354.216"/>
	<path fill="#DBDCDC" d="M109.307,361.877c4.139-0.297,6.376-0.875,6.711-1.732h0.056l-0.391,3.299l-11.464,0.056
		c-1.193,0.037-2.536,0.299-4.027,0.783C102.541,362.979,105.579,362.176,109.307,361.877"/>
	<path fill="#0D131A" d="M113.781,353.656l0.671-0.167l1.51,0.224c0.895,0.597,1.454,1.92,1.678,3.971v2.517l-1.566-0.056v-2.293
		c-0.149-1.492-0.466-2.442-0.95-2.853c-0.672-0.446-2.331-0.167-4.978,0.838c-2.609,0.971-4.828,2.126-6.655,3.468
		c-2.796,2.088-4.493,3.953-5.089,5.592l1.79-0.614l1.119,1.286l-3.523,1.286h-0.615c-0.261-0.111-0.41-0.279-0.447-0.503
		c-0.113-0.746,0.037-1.547,0.447-2.405c0.82-1.827,2.629-3.783,5.425-5.872C105.057,356.248,108.786,354.775,113.781,353.656"/>
	<path fill="#0D131A" d="M104.275,365.009l-2.964,0.56l-1.119-1.286c1.491-0.484,2.834-0.746,4.027-0.783l11.464-0.056l0.391-3.299
		l1.566,0.056l-0.56,4.194c-0.111,0.41-0.373,0.614-0.782,0.614H104.275"/>
	<path fill="#FFFFFF" d="M114.061,371.608c-4.176,1.118-7.476,2.685-9.899,4.697l0.951,0.336l-2.572,1.119
		c-0.075-0.746,0.111-1.697,0.559-2.853c0.821-2.35,2.442-4.605,4.865-6.767c1.678-1.455,4.045-3.133,7.103-5.033l4.808-2.796
		c0.56-0.337,1.51,0.13,2.853,1.397c1.491,1.343,2.479,2.853,2.964,4.529l0.28,1.063l-2.293,1.845
		c-1.006,0.597-1.919,0.97-2.74,1.118L114.061,371.608"/>
	<path fill="#DBDCDC" d="M110.65,374.795c-1.082,0.188-2.927,0.803-5.537,1.847l-0.951-0.336c2.423-2.013,5.723-3.579,9.899-4.697
		l6.878-1.343c0.821-0.148,1.734-0.521,2.74-1.118l2.293-1.845c0.484,2.199,0.578,4.287,0.28,6.263L110.65,374.795"/>
	<path fill="#0D131A" d="M103.547,376.251l0.615-0.057c3.057-1.268,5.183-1.995,6.375-2.182l14.988-1.174
		c0.224-2.312,0.037-4.438-0.56-6.375c-0.41-1.417-1.23-2.74-2.46-3.971c-1.043-1.008-1.808-1.51-2.292-1.51l-0.279,0.168
		c-5.369,3.02-9.191,5.535-11.464,7.55c-2.499,2.198-4.102,4.51-4.81,6.934L103.547,376.251 M105.952,377.145
		c-1.938,0.783-2.964,1.23-3.076,1.343l-0.727-0.056l-0.392-0.616c-0.037-0.856,0.168-1.92,0.615-3.188
		c0.857-2.46,2.554-4.81,5.089-7.046c2.386-2.163,6.282-4.754,11.688-7.773l0.335-0.167c0.373-0.226,0.914-0.226,1.623,0
		c0.895,0.371,1.882,1.173,2.963,2.403c1.23,1.342,2.106,2.76,2.629,4.25c0.708,2.014,0.988,3.822,0.839,5.426l-0.503,1.957
		c-0.074,0.372-0.317,0.597-0.727,0.671l-15.492,1.175C109.774,375.672,108.153,376.213,105.952,377.145"/>
	<path fill="#FFFFFF" d="M130.783,367.693c0.447-0.372,1.658-0.074,3.635,0.896c2.088,1.006,3.541,2.106,4.362,3.299l0.224,0.392
		l-0.95-0.504c0,1.343-0.671,2.331-2.014,2.966l-6.655,2.794c-4.063,1.827-6.805,3.431-8.221,4.81l0.502,0.448l-2.012,0.895
		c-0.298-0.483-0.393-1.174-0.28-2.069c0.148-1.788,1.156-3.635,3.02-5.536C126.756,371.496,129.552,368.701,130.783,367.693"/>
	<path fill="#DBDCDC" d="M140.122,376.474l-10.962,3.523c-1.827,0.597-4.324,1.528-7.494,2.796l-0.502-0.448
		c1.416-1.379,4.157-2.982,8.221-4.81l6.655-2.794c1.343-0.635,2.014-1.623,2.014-2.966l0.95,0.504
		C139.972,373.882,140.345,375.28,140.122,376.474"/>
	<path fill="#0D131A" d="M138.109,372.335c-0.671-1.006-1.901-1.976-3.691-2.907c-1.565-0.82-2.647-1.193-3.244-1.119l-8.277,8.333
		c-1.714,1.753-2.646,3.43-2.796,5.032c-0.074,0.634,0.243,0.821,0.951,0.56l7.829-2.963l6.375-1.958l3.859-1.454
		C139.489,374.964,139.152,373.789,138.109,372.335 M130.279,367.078c0.298-0.224,0.784-0.316,1.454-0.279
		c1.119,0.149,2.46,0.671,4.026,1.565c1.678,0.971,2.89,1.995,3.635,3.077c1.007,1.49,1.566,2.87,1.678,4.138
		c0.112,0.857,0,1.491-0.335,1.901c-0.112,0.187-0.522,0.335-1.23,0.447l-3.803,0.895l-6.319,1.901
		c-2.125,0.708-4.325,1.529-6.599,2.461l-2.796,1.175c-0.411,0.187-0.747,0.092-1.006-0.279c-0.336-0.635-0.467-1.455-0.392-2.462
		c0.112-1.977,1.193-4.007,3.244-6.095C126.533,370.677,129.347,367.862,130.279,367.078"/>
	<path fill="#0D131A" d="M215.787,110.165c0.782,0.187,1.416,0.597,1.901,1.23c0.485,0.634,0.708,1.361,0.671,2.181l-0.671,18.063
		c-0.335,12.713-0.298,21.027,0.112,24.942c0.522,4.697,2.014,10.886,4.474,18.566c2.647,8.203,5.499,15.062,8.557,20.58
		c1.565,2.796,4.939,8.202,10.122,16.217l13.366,21.252c4.921,8.239,8.351,14.801,10.29,19.685
		c4.659,11.818,7.959,21.55,9.897,29.192c3.542,13.794,4.605,25.968,3.188,36.519c-1.565,11.482-6.338,20.468-14.315,26.954
		c-7.829,6.414-18.213,9.919-31.15,10.516c-15.509,0.708-29.602-1.623-42.278-6.991c-16.665-7.009-29.9-18.903-39.706-35.68
		c-9.022-15.472-11.464-32.846-7.326-52.121c3.02-14.056,9.656-29.305,19.909-45.745c9.097-14.652,14.614-34.822,16.553-60.51
		c0.597-8.426-0.354-19.293-2.853-32.604l-3.97-17.672c-0.074-0.484,0.224-0.988,0.895-1.51l1.734-1.23
		c0.895-0.857,1.957-1.137,3.188-0.839L215.787,110.165"/>
	<path fill="#DDD583" d="M156.954,317.697c13.124,10.961,27.049,17.84,41.775,20.637c14.764,2.796,27.571,0.914,38.42-5.648
		c2.162,6.188,4.847,10.625,8.053,13.31c1.491,1.305,3.431,2.498,5.816,3.579c-5.481,2.275-11.744,3.579-18.791,3.915
		c-13.756,0.597-26.302-1.23-37.637-5.481C179.156,342.193,166.612,332.089,156.954,317.697"/>
	<path fill="#FFF697" d="M148.063,254.561c3.355-9.545,7.624-17.169,12.806-22.873c7.196-7.905,15.659-11.502,25.39-10.794
		c11.669,0.896,22.034,9.881,31.094,26.956c8.09,15.248,12.657,31.335,13.7,48.261c0.971,15.659,3.002,27.851,6.097,36.575
		c-10.849,6.562-23.656,8.444-38.42,5.648c-14.727-2.797-28.651-9.676-41.775-20.637l-3.131-4.978
		C143.943,295.831,142.023,276.444,148.063,254.561"/>
	<path fill="#D18200" d="M233.626,225.144c0-4.361,1.36-8.351,4.082-11.968c9.917,15.361,16.666,26.527,20.245,33.498h-0.224
		c-6.674,0-12.359-2.106-17.058-6.319C235.976,236.179,233.626,231.109,233.626,225.144"/>
	<path fill="#F29600" d="M214.948,113.52l-0.056,2.628l-0.224,21.587c0,7.419,0.13,13.067,0.391,16.944l0.168,1.902
		c0.56,5.369,1.994,11.949,4.306,19.741c2.536,8.575,5.313,15.584,8.333,21.027l16.776,26.675
		c8.649,13.646,14.242,23.675,16.777,30.087c4.698,11.931,8.035,21.792,10.01,29.585c3.281,13.01,4.251,24.493,2.909,34.448
		c-0.97,7.196-3.281,13.384-6.935,18.566c-3.468,4.959-8.072,8.855-13.813,11.688c-2.945-1.119-5.313-2.442-7.102-3.971
		c-3.579-3.059-6.338-8.333-8.277-15.826c-1.79-7.121-3.095-17.318-3.915-30.591c-0.485-8.127-1.864-16.74-4.139-25.837
		c-2.423-9.693-5.424-18.026-9.004-24.998c-3.914-7.643-8.463-14.019-13.645-19.125c-6.636-6.525-13.534-10.048-20.691-10.57
		c-12.49-0.933-23.339,5.704-32.548,19.909c2.945-6.599,6.487-13.235,10.625-19.909c9.469-15.137,15.155-35.437,17.056-60.901
		c0.336-4.996,0-11.763-1.006-20.301c-1.082-8.984-2.516-16.367-4.306-22.145l0.95-9.396v-0.224L214.948,113.52"/>
	<path fill="#D18200" d="M214.948,113.52l-0.056,2.628l-0.224,21.587c0,7.419,0.13,13.067,0.391,16.944l0.168,1.902l1.119,7.158
		c-6.786,1.827-13.404,0.485-19.853-4.026c-5.369-3.766-10.347-9.544-14.932-17.336c-0.932-11.222-2.572-20.636-4.921-28.241
		l0.95-9.396v-0.224L214.948,113.52"/>
	<path fill="#0D131A" d="M276.91,270.555c5.78,6.598,10.571,13.719,14.373,21.362c5.07,10.104,7.605,20.822,7.605,32.156
		c0,5.853-1.36,12.172-4.082,18.958c-1.343,3.43-2.703,6.319-4.083,8.668c-0.298,1.79-0.446,3.599-0.446,5.425
		c4.958,3.803,8.22,6.711,9.786,8.725l2.572,3.132l1.901,2.235c1.716,1.008,2.834,2.089,3.355,3.245
		c0.485,1.156,0.69,2.535,0.615,4.138l3.523,6.432c1.305,2.907,1.826,5.687,1.565,8.332c-0.148,1.417-0.484,2.572-1.006,3.468
		c-0.671,1.49-1.38,2.273-2.125,2.35l-1.23-0.896l-0.728-0.95c-1.864-1.938-3.169-3.095-3.915-3.467l-3.579-1.343l-4.306-1.51
		l-4.139,0.224v2.573c-0.074,2.013-0.354,3.69-0.838,5.032c-0.56,1.604-1.269,2.982-2.125,4.139
		c-0.858,1.193-1.549,1.716-2.069,1.565c-0.262-0.037-0.84-0.764-1.734-2.181c-0.708-1.117-1.491-2.088-2.349-2.907l-4.586-3.02
		l-4.529-2.518l-2.405-0.839l-3.468,0.057c-0.597,2.386-1.808,5.144-3.635,8.276c-0.969,1.863-1.677,2.777-2.125,2.74
		c-0.261-0.037-0.727-0.504-1.397-1.397l-0.895-1.287c-1.23-2.013-2.22-3.411-2.965-4.194l-3.354-2.964l-3.915-3.411l-2.573-0.896
		l-1.789-1.343c-0.634-0.559-1.081-1.229-1.342-2.012c-0.188-0.56-0.317-1.342-0.392-2.35c-0.298-6.338,1.901-13.347,6.599-21.027
		l-0.336-4.361c-5.219-2.572-10.177-6.748-14.875-12.527c-3.952-4.847-6.449-11.072-7.494-18.679l-0.447-10.011
		c0.223-6.076,2.423-12.116,6.599-18.119c2.46-3.579,5.219-6.654,8.276-9.228l23.655-29.248l-0.894-5.536l2.683,5.425
		L276.91,270.555"/>
	<path fill="#0D131A" d="M283.902,173.247l0.224-1.23c0.261-2.461,1.229-4.418,2.908-5.872l0.335-0.279
		c1.045-1.044,2.387-1.827,4.027-2.349c2.273-0.746,4.287-0.597,6.04,0.447c2.199,1.268,3.934,3.412,5.2,6.432
		c1.379,3.318,1.379,6.021,0,8.109l-1.565,2.963c-0.634,1.305-0.988,2.182-1.062,2.629c0.111,0.447,0.596,1.211,1.454,2.292
		l2.014,2.349l5.088-0.95c2.088-0.149,3.598,0.485,4.53,1.901c0.484,0.746,0.895,3.113,1.23,7.102
		c0.336,4.027,0.28,6.487-0.168,7.382c-0.299,0.596-0.802,1.156-1.51,1.677l-2.629,1.734l-2.292,0.895
		c-1.008,0.336-1.604,0.635-1.79,0.896c-1.23,1.341-3.038,4.007-5.425,7.996c-0.597,1.007-1.641,1.79-3.132,2.35l-3.467,0.783
		c-2.834,11.408-5.369,19.535-7.605,24.382c-1.753,3.84-3.804,6.524-6.152,8.053c-2.088,1.343-4.66,2.051-7.717,2.125
		c-2.722,0.074-4.866-0.316-6.432-1.173c-0.484-0.263-2.74-2.518-6.767-6.768l-7.103-7.327l-3.859-2.794l-4.026-2.629
		c-1.528-1.045-3.354-2.051-5.479-3.021l-2.74-1.118l-2.125-0.169l-2.405,0.448l-1.286,0.392l2.461-1.733
		c-2.237-0.299-3.374-0.634-3.412-1.007c-0.037-0.223,0.242-0.373,0.839-0.448h0.95l-16.665-25.725
		c-1.268,0.597-1.995,0.597-2.181,0c-0.113-0.373-0.094-0.689,0.056-0.95l0.727-0.783c0.411-0.335,2.069-1.305,4.978-2.908
		c2.647-1.417,5.686-2.479,9.115-3.188c3.729-0.745,6.581-0.764,8.557-0.056c3.578,1.305,6.096,3.15,7.55,5.537
		c1.379,2.348,2.088,5.853,2.125,10.513l2.852,1.566c1.23,0.708,2.181,1.416,2.853,2.124l0.951,1.063l4.865,5.48
		c2.312,2.572,4.044,4.269,5.2,5.089c1.565,1.119,3.43,1.715,5.593,1.79l4.361-0.336l0.951-6.319
		c0.335-3.468,0.373-5.798,0.112-6.99l-3.244-2.74c-1.678-0.597-2.796-1.138-3.355-1.622c-1.118-1.118-1.622-2.927-1.51-5.424
		l0.056-2.685l-0.95-0.839c-2.61-2.162-4.362-3.915-5.258-5.257c-1.379-2.013-1.771-4.343-1.174-6.99
		c0.559-2.423,1.529-3.933,2.908-4.53c1.081-0.447,1.603-0.633,1.565-0.559l5.48-2.74c0.933-0.335,1.828-0.261,2.685,0.224
		l1.733,1.566c1.045,1.044,1.66,1.584,1.846,1.622l3.858,0.503l3.524-5.704C282.783,175.726,283.678,173.993,283.902,173.247"/>
	<path fill="#F29600" d="M286.978,173.862l0.446-3.132c0.225-1.267,0.578-2.106,1.063-2.517l2.908-2.181
		c1.752-0.671,3.821-0.354,6.207,0.951l2.014,3.747c1.156,2.759,1.305,4.791,0.447,6.096c-0.56,0.82-1.156,2.181-1.79,4.082
		c-0.671,1.939-0.95,3.207-0.838,3.803c0.223,1.379,1.212,2.871,2.963,4.474l2.573,1.957l3.075-0.895
		c2.199-0.373,3.691,0.019,4.475,1.174c0.82,1.193,1.267,3.299,1.342,6.319c0.075,2.647-0.075,4.325-0.447,5.034l-3.188,2.292
		c-2.125,1.268-3.485,2.219-4.081,2.852l-3.58,4.25c-1.565,1.939-2.479,3.17-2.74,3.69c-0.596,1.007-1.863,1.771-3.803,2.293
		l-2.74,0.448l-0.839,5.257c-0.856,4.361-2.069,8.574-3.635,12.639c-1.827,4.696-3.281,7.866-4.362,9.506
		c-0.932,1.38-2.312,2.666-4.139,3.859c-1.603,1.045-3.616,1.658-6.039,1.846c-2.236,0.187-3.878-0.019-4.921-0.615
		c-0.597-0.299-1.921-1.696-3.971-4.194c-2.163-2.647-3.822-4.4-4.978-5.257l-5.704-4.641c-2.722-2.275-4.94-3.99-6.655-5.146
		c-2.273-1.565-6.524-2.852-12.75-3.858l-2.629-0.335h-1.006l-15.828-25.334l7.774-3.467c5.667-2.125,9.675-2.778,12.023-1.957
		c2.759,1.006,4.772,2.106,6.04,3.299c1.156,1.044,2.014,2.479,2.571,4.306c0.673,2.274,0.896,4.734,0.673,7.382l2.348,1.342
		c1.752,1.081,3.095,2.125,4.027,3.132l4.921,5.312c2.46,2.499,4.437,4.289,5.928,5.369c3.244,2.312,6.916,3.3,11.017,2.964
		c-0.298,1.044-1.099,1.977-2.404,2.796l-2.796,1.958l-2.294,1.342c-0.595,0.485-0.913,1.176-0.95,2.069
		c-0.037,1.008,0.374,2.555,1.23,4.642c0.857,2.052,1.436,3.02,1.733,2.908l-0.615-1.957c-0.671-1.715-0.95-3.467-0.839-5.256
		c0-0.374,0.242-0.746,0.728-1.119c0.299-0.187,1.025-0.616,2.181-1.287l2.461-1.397c1.38-0.895,2.629-2.236,3.747-4.025
		l0.447-1.008l0.783-2.908l1.397-6.431c0.335-2.013,0.393-3.952,0.168-5.816l-0.503-2.182c-2.424-2.349-4.026-3.69-4.81-4.026
		l-1.846-0.95c-0.634-0.671-0.95-1.846-0.95-3.523l0.056-2.908l-0.225-1.23l-3.131-2.349c-2.125-1.454-3.523-2.647-4.194-3.579
		c-1.641-2.274-1.995-4.325-1.062-6.152l1.846-2.069l7.27-2.405l1.566,1.398c1.043,1.118,1.938,1.808,2.684,2.069l3.747,0.615
		l2.797-0.279c0.484-0.261,1.827-2.274,4.026-6.04C285.635,177.143,286.828,174.794,286.978,173.862"/>
	<path fill="#0D131A" d="M275.569,193.268c-0.148,1.491-0.95,2.46-2.404,2.908c-1.342,0.41-2.424,0.261-3.244-0.448
		c-1.565-1.342-2.926-2.255-4.082-2.74l-1.789-0.28l-1.343-0.168c-1.305-0.224-2.218-1.287-2.74-3.188
		c-0.335-1.305-0.373-2.61-0.111-3.915c0.372-1.566,1.156-2.889,2.349-3.971c1.416-1.267,3.132-1.808,5.146-1.621
		c1.826,0.186,3.057,0.727,3.69,1.621l0.335,0.335c2.35,2.349,3.673,4.437,3.971,6.264
		C275.681,190.154,275.756,191.888,275.569,193.268"/>
	<path fill="#0D131A" d="M275.122,191.646l-0.28-3.467c-0.298-1.641-1.566-3.635-3.803-5.984l-0.392-0.392
		c-0.596-0.745-1.715-1.211-3.354-1.398c-1.79-0.223-3.375,0.261-4.754,1.455c-1.566,1.416-2.35,3.188-2.35,5.312l0.28,2.014
		c0.485,1.715,1.249,2.665,2.293,2.852l1.342,0.168l1.957,0.279c1.155,0.522,2.386,1.342,3.691,2.461
		c0.782,0.597,1.79,0.801,3.02,0.615c1.342-0.224,2.088-0.914,2.237-2.069L275.122,191.646 M275.849,188.011
		c0.372,2.237,0.242,4.269-0.392,6.096c-0.709,1.864-1.38,2.964-2.014,3.299c-0.633,0.335-1.491,0.019-2.572-0.951
		s-2.833-1.976-5.257-3.02l-3.02-0.392c-1.491-0.224-2.535-1.417-3.132-3.58c-0.373-1.379-0.41-2.759-0.112-4.138
		c0.373-1.64,1.212-3.038,2.518-4.194c1.49-1.379,3.337-1.976,5.536-1.79l2.46,0.671l1.565,1.118l0.336,0.335
		C274.152,183.854,275.513,186.035,275.849,188.011"/>
	<path fill="#FFFFFF" d="M267.405,181.3c1.192,0.186,1.975,0.503,2.349,0.951l1.901,2.125c1.118,1.379,1.771,2.591,1.958,3.635
		c0.409,2.535,0.391,4.585-0.058,6.151l-0.838,1.622l-0.392-0.392c-0.597-1.677-2.125-3.411-4.586-5.201l-1.565-0.391
		c-0.932-0.149-1.716-0.429-2.349-0.839l-2.405-2.517c0.149-1.641,0.802-2.945,1.958-3.915
		C264.496,181.524,265.838,181.113,267.405,181.3"/>
	<path fill="#DBDCDC" d="M263.099,190.639c-0.448-0.074-0.858-0.522-1.23-1.342c-0.374-0.895-0.522-1.845-0.448-2.852l2.405,2.517
		c0.633,0.41,1.417,0.69,2.349,0.839l1.565,0.391c2.461,1.79,3.989,3.524,4.586,5.201c-2.199-2.088-4.157-3.504-5.872-4.25
		l-1.622-0.335L263.099,190.639"/>
	<path fill="#0D131A" d="M295.869,164.019c1.901,0.858,3.132,2.312,3.691,4.363c0.372,1.304,0.429,2.722,0.167,4.25
		c-0.186,1.342-0.503,2.293-0.95,2.852c-5.108,4.921-8.463,7.568-10.066,7.941c-0.746,0.112-1.287-0.037-1.622-0.447
		c-0.819-1.006-1.397-3.131-1.734-6.375c-0.372-3.43-0.167-5.947,0.616-7.549C288.245,163.796,291.544,162.118,295.869,164.019"/>
	<path fill="#0D131A" d="M295.478,164.858c-2.199-0.969-4.063-0.876-5.592,0.279c-1.119,0.82-2.145,2.256-3.076,4.306
		c-0.708,1.529-0.951,3.971-0.727,7.326c0.187,3.206,0.596,5.201,1.229,5.984l0.84,0.112c0.857-0.187,2.665-1.454,5.424-3.803
		l4.475-4.138l0.615-1.566l0.279-2.572l-0.279-2.181C298.218,166.853,297.156,165.604,295.478,164.858 M285.468,168.661
		c0.932-2.759,2.367-4.623,4.306-5.593c1.901-0.969,4.046-0.932,6.431,0.112c2.312,1.007,3.747,2.926,4.307,5.76
		c0.522,2.685,0.056,4.94-1.398,6.767c-1.417,2.013-3.448,4.026-6.095,6.04c-2.796,2.162-4.717,3.039-5.761,2.629
		c-1.155-0.447-1.977-2.423-2.46-5.928C284.275,174.757,284.498,171.495,285.468,168.661"/>
	<path fill="#FFFFFF" d="M287.368,169.165c0.896-1.976,1.883-3.337,2.965-4.083l4.865-0.168c1.044,0.41,1.863,1.156,2.46,2.237
		c-0.148,2.125-0.708,3.953-1.677,5.481c-2.461,3.691-5.183,7.009-8.165,9.955c-0.597,0.074-1.007-1.734-1.23-5.425
		C286.363,173.396,286.623,170.73,287.368,169.165"/>
	<path fill="#DBDCDC" d="M293.073,178.504c-2.722,2.535-4.456,3.896-5.201,4.083h-0.056c2.982-2.946,5.704-6.264,8.165-9.955
		c0.969-1.528,1.528-3.356,1.677-5.481c0.597,1.156,0.802,2.573,0.615,4.25c-0.148,1.268-0.391,2.163-0.727,2.684L293.073,178.504"
		/>
	<path fill="#0D131A" d="M297.156,197.294l2.684-5.089c1.007-1.156,2.274-1.752,3.803-1.79c1.528,0,2.908,0.634,4.139,1.901
		c1.342,1.342,1.845,3.076,1.51,5.201c-0.336,1.678-1.491,3.001-3.468,3.971l-4.306,1.51c-2.572,0.783-4.324,1.118-5.257,1.007
		l-1.174-0.112C294.788,203.035,295.478,200.836,297.156,197.294"/>
	<path fill="#0D131A" d="M297.268,198.356c-1.454,3.207-2.125,4.958-2.014,5.257l1.733-0.112l3.915-0.671
		c1.305-0.335,2.89-0.969,4.754-1.901c1.826-0.932,2.87-2.106,3.131-3.523l0.056-1.118c0-1.454-0.465-2.647-1.397-3.579
		c-1.192-1.23-2.441-1.808-3.747-1.734c-1.416,0-2.554,0.503-3.411,1.51L297.268,198.356 M294.192,204.62
		c-0.41-0.373,0.037-2.219,1.342-5.537c1.343-3.43,2.647-5.854,3.915-7.27c1.155-1.23,2.554-1.864,4.194-1.901
		c1.678,0,3.188,0.69,4.529,2.069c1.491,1.491,2.032,3.355,1.623,5.592c-0.188,1.081-0.635,2.088-1.343,3.02l-2.181,1.846
		c-0.97,0.521-3.095,1.1-6.376,1.733L294.192,204.62"/>
	<path fill="#FFFFFF" d="M308.061,194.833c-1.007,1.528-2.441,3.001-4.306,4.417c-2.312,1.678-4.978,3.02-7.998,4.027
		c-0.335-0.037,0.392-1.752,2.182-5.145c1.715-3.244,2.815-5.145,3.299-5.704c0.634-0.671,1.38-1.062,2.238-1.175
		c1.229-0.186,2.386,0.28,3.467,1.398C307.575,193.286,307.948,194.014,308.061,194.833"/>
	<path fill="#DBDCDC" d="M305.88,200.313l-4.922,1.734c-2.796,0.895-4.53,1.305-5.201,1.23c3.021-1.007,5.687-2.349,7.998-4.027
		c1.864-1.417,3.299-2.889,4.306-4.417c0.148,1.118-0.074,2.292-0.671,3.523C306.905,199.363,306.402,200.016,305.88,200.313"/>
	<path fill="#D18200" d="M287.145,198.524c-1.043,0.857-2.05,1.883-3.02,3.076c-1.976,2.423-2.833,4.511-2.572,6.264
		c0.148,1.193,0.56,2.367,1.23,3.523c-1.977-0.484-3.616-1.621-4.921-3.411c-1.306-1.827-1.958-3.896-1.958-6.208
		c0-2.722,0.857-5.052,2.573-6.99c1.677-1.939,3.728-2.909,6.15-2.909c1.492,0,2.891,0.41,4.194,1.231
		c1.268,0.783,2.312,1.845,3.132,3.188C289.681,197.033,288.077,197.778,287.145,198.524"/>
	<path fill="#0D131A" d="M287.145,198.524c0.635-0.485,1.734-1.044,3.3-1.678c1.528-0.634,2.33-0.876,2.404-0.727l-1.957,1.118
		l-2.964,1.678c-1.006,0.783-2.106,2.106-3.3,3.97c-1.38,2.237-1.975,4.045-1.789,5.424c0.335,2.424,1.733,4.717,4.194,6.879
		l3.468,2.629c-0.187,0.484-1.566-0.318-4.139-2.404c-2.796-2.275-4.399-4.791-4.81-7.55c-0.261-1.752,0.597-3.84,2.572-6.264
		C285.095,200.407,286.102,199.382,287.145,198.524"/>
	<path fill="#F29600" d="M262.315,256.35l0.951,2.293c0.783,1.752,1.584,3.168,2.404,4.25l7.215,7.27
		c4.66,5.258,9.004,11.931,13.029,20.021c4.475,8.947,7.271,17.206,8.389,24.774c0.821,5.778,0.689,11.65-0.391,17.616
		c-0.708,4.101-1.827,8.276-3.355,12.526l-2.237,6.152c-0.262,1.305-0.41,2.74-0.447,4.306c-0.074,1.603,0.019,2.516,0.28,2.74
		l3.69,2.964c2.647,2.236,4.455,4.008,5.425,5.312l5.368,6.767l1.286,0.671c0.932,0.522,1.473,0.988,1.621,1.399
		c0.522,1.267,0.448,2.907-0.223,4.921c-0.82,2.349-2.237,4.063-4.25,5.145l-4.643,2.46c-0.224-2.236-0.633-3.187-1.229-2.853
		c-1.976,1.193-3.878,1.456-5.705,0.785v4.137l-7.885,0.784l-3.971,0.167c-1.565-3.578-2.853-4.939-3.858-4.083
		c-0.969,0.858-2.236,1.119-3.804,0.783c-1.379-0.298-2.441-0.895-3.187-1.788l-0.168,5.032c-5.331-0.186-9.656-0.745-12.975-1.679
		l-1.565-4.417c-1.119-0.597-2.088-1.548-2.909-2.853c-0.819-1.342-1.359-2.814-1.621-4.419c0.783-4.324,2.573-8.667,5.369-13.029
		c0.224-0.41,0.298-2.05,0.224-4.921l2.236,0.447l5.09,0.224l2.629-0.392l-2.573-0.448l-4.697-0.782l-2.741-0.782v-0.057
		c-0.856-0.186-2.087-0.819-3.69-1.901c-3.244-2.2-6.729-5.592-10.458-10.178c-3.84-4.735-6.318-10.159-7.438-16.274
		c-0.597-3.243-0.802-7.512-0.615-12.806c0.225-6.227,2.181-12.62,5.872-19.183l5.479-7.996L262.315,256.35"/>
	<path fill="#D18200" d="M295.198,385.085c0.597-0.334,1.006,0.616,1.229,2.853c-1.826,0.896-4.137,1.586-6.935,2.069v-4.137
		C291.321,386.541,293.223,386.278,295.198,385.085"/>
	<path fill="#D18200" d="M273.78,386.875c1.006-0.856,2.293,0.505,3.858,4.083c-3.803,0.112-7.475,0.093-11.017-0.056l0.168-5.032
		c0.745,0.894,1.808,1.49,3.187,1.788C271.543,387.994,272.811,387.733,273.78,386.875"/>
	<path fill="#D18200" d="M247.551,377.535c0.262,1.604,0.802,3.077,1.621,4.419c0.821,1.305,1.79,2.256,2.909,2.853l1.565,4.417
		c-4.287-1.118-6.486-2.777-6.6-4.977C246.936,382.122,247.105,379.885,247.551,377.535"/>
	<path fill="#FFFFFF" d="M296.484,384.303l-0.223,0.111c0.896-2.236,2.031-3.97,3.411-5.2c1.491-1.305,2.573-2.125,3.244-2.461
		c0.745-0.41,1.323-0.354,1.732,0.169l2.462,3.858l2.852,5.257c1.156,2.61,1.621,5.051,1.398,7.325
		c-0.112,1.156-0.336,2.032-0.671,2.629c-0.224-1.566-1.343-3.244-3.356-5.033c-1.64-1.454-3.02-2.386-4.138-2.796
		c-1.38-0.448-2.666-0.951-3.858-1.51C297.547,385.757,296.597,384.974,296.484,384.303"/>
	<path fill="#DBDCDC" d="M295.701,387.771c-0.484-0.187-0.298-1.306,0.56-3.356l0.223-0.111c0.113,0.671,1.063,1.454,2.854,2.35
		c1.192,0.559,2.479,1.062,3.858,1.51c1.118,0.41,2.498,1.342,4.138,2.796c2.014,1.789,3.133,3.467,3.356,5.033
		c-2.163-2.237-3.747-3.616-4.754-4.139l-5.369-2.181L295.701,387.771"/>
	<path fill="#FFFFFF" d="M283.734,378.095l3.635,5.034c2.162,3.354,3.244,6.021,3.244,7.996c0,3.542-0.391,6.357-1.175,8.445
		l-1.174,2.013l-0.504-0.727c0.112-2.199-1.062-4.417-3.522-6.655c-1.716-1.604-3.393-2.739-5.033-3.41
		c-2.572-1.119-4.026-2.536-4.362-4.25c0.896-2.536,1.901-4.419,3.021-5.649c1.192-1.267,2.441-2.163,3.746-2.685L283.734,378.095"
		/>
	<path fill="#DBDCDC" d="M279.204,390.791c1.641,0.671,3.317,1.807,5.033,3.41c2.46,2.238,3.635,4.456,3.522,6.655l-2.405-2.853
		c-0.745-0.708-2.701-2.031-5.871-3.971c-3.02-1.863-4.791-2.87-5.313-3.02c-0.223-0.037-0.26-0.503-0.111-1.398
		c0.111-0.894,0.373-1.919,0.783-3.074C275.178,388.255,276.632,389.672,279.204,390.791"/>
	<path fill="#FFFFFF" d="M254.934,380.221c0.819-1.007,1.677-1.809,2.571-2.405c1.045-0.634,1.753-0.727,2.126-0.28l3.579,4.308
		c2.014,2.534,3.131,4.194,3.354,4.978c0.597,2.013,0.15,4.921-1.341,8.723c-0.747,1.901-1.567,3.6-2.461,5.09l-0.337-0.56v-0.28
		c-0.111-1.863-0.782-3.653-2.012-5.368l-3.133-3.634l-2.628-2.686l-2.237-2.516C253.311,382.941,254.151,381.152,254.934,380.221"
		/>
	<path fill="#DBDCDC" d="M257.281,390.791l3.133,3.634c1.229,1.715,1.9,3.505,2.012,5.368v0.28
		c-1.415-2.124-2.441-3.522-3.075-4.193l-7.381-7.158c-0.299-0.225-0.15-1.268,0.446-3.132l2.237,2.516L257.281,390.791"/>
	<path fill="#0D131A" d="M296.932,383.688c-0.82,1.753-1.175,2.983-1.062,3.692l0.224,0.334l1.343,0.504l8.388,3.355
		c0.932,0.521,2.442,1.846,4.529,3.97c0.337-0.521,0.56-1.397,0.672-2.628c0.224-2.124-0.224-4.399-1.343-6.822l-2.684-5.032
		l-2.405-3.692c-0.186-0.261-0.409-0.391-0.671-0.391c-0.634-0.075-1.995,0.783-4.082,2.572
		C298.796,380.481,297.826,381.861,296.932,383.688 M296.708,390.175l-1.397-0.56c-0.783-0.26-1.269-0.875-1.454-1.845
		c-0.188-1.155,0.223-2.797,1.23-4.921c1.006-2.126,2.144-3.747,3.41-4.866l3.021-2.349c0.969-0.56,1.845-0.802,2.629-0.727
		c0.82,0.112,1.528,0.521,2.125,1.23l2.46,3.858l2.796,5.257c1.306,2.834,1.809,5.537,1.51,8.108
		c-0.148,1.305-0.446,2.368-0.895,3.188l-0.671,1.23l-0.782,0.502c-0.337,0.075-0.616-0.037-0.839-0.334l-0.951-0.952
		c-2.088-2.088-3.449-3.28-4.083-3.578C303.922,392.897,301.219,391.815,296.708,390.175"/>
	<path fill="#0D131A" d="M274.395,390.733l0.224,0.28c0.56,0.187,2.255,1.156,5.089,2.908c2.983,1.79,4.828,3.02,5.536,3.69
		l2.74,3.411c0.411-0.334,0.783-0.987,1.119-1.957c0.745-1.976,1.119-4.642,1.119-7.996c0-2.76-2.106-6.786-6.32-12.079
		l-0.224-0.337l-0.56-0.223c-0.56-0.037-1.249,0.167-2.069,0.614c-1.043,0.521-2.032,1.287-2.964,2.293
		c-1.006,1.082-1.92,2.759-2.74,5.033C274.526,388.534,274.209,389.988,274.395,390.733 M273.948,392.972
		c-0.746-0.225-1.25-0.782-1.51-1.679c-0.336-1.155-0.038-3.02,0.895-5.592c0.97-2.534,2.05-4.455,3.243-5.76
		c1.044-1.156,2.182-2.051,3.412-2.686c1.193-0.634,2.273-0.931,3.242-0.894c0.896,0.074,1.604,0.428,2.125,1.062l0.169,0.28
		c4.511,5.667,6.768,10.122,6.768,13.366c0,3.653-0.43,6.6-1.287,8.836c-0.484,1.267-1.044,2.181-1.678,2.74l-0.895,0.727
		l-0.839,0.279l-0.728-0.503l-0.615-1.007c-0.745-1.193-1.547-2.199-2.405-3.02c-0.597-0.56-2.292-1.696-5.088-3.411
		C276.035,394.033,274.432,393.12,273.948,392.972"/>
	<path fill="#0D131A" d="M260.134,378.711l-0.503-0.616c-0.187-0.186-0.392-0.279-0.615-0.279c-0.522,0-1.156,0.299-1.901,0.896
		c-0.746,0.56-1.398,1.211-1.958,1.957c-0.597,0.709-1.286,2.088-2.069,4.139c-0.819,2.162-1.08,3.486-0.782,3.971l3.3,3.075
		l3.746,3.69c0.783,0.858,1.864,2.368,3.244,4.53c1.192-2.013,2.162-4.119,2.908-6.319c0.969-2.945,1.212-5.22,0.727-6.822
		C265.932,385.887,263.9,383.147,260.134,378.711 M253.535,379.382c0.485-0.671,1.155-1.361,2.014-2.069
		c1.268-1.044,2.423-1.566,3.467-1.566c0.857,0,1.584,0.336,2.181,1.007l0.503,0.615c3.952,4.623,6.114,7.605,6.488,8.948
		c0.671,2.236,0.316,5.257-1.063,9.06c-0.783,2.051-1.696,3.971-2.74,5.76l-0.839,1.455l-0.895,0.559l-0.839-0.503l-0.951-1.455
		l-3.02-4.25l-6.879-6.654c-1.08-0.932-1.024-2.964,0.168-6.096C252.026,381.917,252.827,380.314,253.535,379.382"/>
	<path fill="#0D131A" d="M259.687,362.716l-3.132-0.671c-1.081-0.372-1.584-0.652-1.51-0.839l1.398,0.168l2.852,0.392l4.586-0.111
		c2.014-0.111,3.02-0.111,3.02,0l-2.852,0.671L259.687,362.716"/>
	<path fill="#F29600" d="M208.125,10.9c2.685-0.186,4.922,1.715,6.711,5.705c0.484,1.044,1.062,3.336,1.733,6.878l1.398,7.83
		c0.261,1.528,1.547,7.195,3.859,17.001c0.82,3.579,3.448,8.873,7.886,15.882l3.187,5.592l0.952,3.076
		c0.148,1.193-0.467,3.933-1.847,8.221c0.709,2.349,0.97,5.704,0.783,10.066l3.635,10.346l1.958,5.033l2.292,4.53
		c0.299,0.484,0.84,0.746,1.623,0.783c0.671,0.075,1.322,0.708,1.956,1.902c1.23,2.348-0.019,6.729-3.746,13.142l-5.928,8.948
		c0.484,3.168-1.007,5.256-4.475,6.263l-7.885,0.951c-0.858,0.112-2.107,0.616-3.747,1.51c-1.491,0.784-3.207,1.175-5.145,1.175
		c-2.312,0-4.996-0.857-8.053-2.573c-2.647-1.417-4.269-2.609-4.865-3.579l-3.523-4.362l-4.865-5.872l-6.543-7.158l-5.984-6.264
		c-0.783-0.895-1.733-1.51-2.852-1.845l-1.399-0.224c-2.535-2.237-4.697-5.145-6.486-8.724c-1.417-2.871-2.125-4.903-2.125-6.096
		c0-0.857,0.204-2.591,0.615-5.201c0.447-2.796,0.913-5.052,1.397-6.767c1.119-3.952,1.678-7.233,1.678-9.842
		c0-2.274-0.987-6.227-2.964-11.856c-0.858-2.536-3.598-7.605-8.221-15.211l-4.865-5.984l-5.704-6.655
		c-1.193-1.453-1.734-3.281-1.623-5.48c0.113-1.902,0.56-3.132,1.343-3.691c0.782-0.559,2.106-0.857,3.97-0.895
		c1.753,0,3.131,0.206,4.139,0.615c0.857,0.336,2.554,1.734,5.089,4.194l7.437,7.438c6.152,6.151,11.446,10.756,15.883,13.812
		c1.864,1.305,4.493,1.585,7.885,0.839c2.721-0.56,5.424-1.622,8.109-3.188c1.901-1.119,3.113-3.244,3.635-6.375
		c0.224-1.417,0.335-4.101,0.335-8.053l-0.615-10.514c-0.373-5.033-0.541-7.979-0.504-8.835c0.075-1.641,0.411-3.001,1.007-4.083
		C205.403,11.813,206.559,11.012,208.125,10.9"/>
	<path fill="#0D131A" d="M220.484,121.965l2.629,1.006l2.236,0.28l1.958-0.056l1.062-0.28l0.615,0.111
		c0.113,0.298-0.186,0.578-0.895,0.839l-2.683,0.447c-1.715,0-3.468-0.447-5.257-1.342c-0.447-0.223-1.212-0.391-2.292-0.503
		l-2.126-0.056c-0.447,0.075-1.696,1.137-3.747,3.188c-0.745,0.745-1.305,0.857-1.678,0.335c-0.26-0.335,0.094-0.895,1.063-1.678
		l2.349-1.734c1.305-0.857,2.423-1.286,3.355-1.286C218.042,121.238,219.179,121.48,220.484,121.965"/>
	<path fill="#0D131A" d="M220.596,130.913l-2.461-0.671l-1.957,0.56c-0.82,0.112-1.38-0.037-1.678-0.448
		c-0.148-0.223,0.131-0.596,0.839-1.118c0.709-0.485,1.286-0.746,1.734-0.783c0.41-0.037,1.119,0.187,2.125,0.671l1.845,1.062
		c0.261,0.224,0.335,0.429,0.224,0.615L220.596,130.913"/>
	<path fill="#0D131A" d="M240.505,120.846c0.186,0.224,0.074,0.597-0.335,1.119l-1.008,1.118l-1.901,2.908
		c-0.298,0.522-0.634,0.746-1.006,0.671c-0.411-0.112-0.504-0.373-0.279-0.783c0.261-0.522,0.932-1.529,2.012-3.021
		c0.262-0.447,0.728-0.914,1.398-1.398C240.057,120.939,240.43,120.734,240.505,120.846"/>
	<path fill="#0D131A" d="M210.809,87.013l-0.167-0.615c0-0.261,0.093-0.429,0.28-0.504l0.951,0.448l0.727,2.013l0.728,1.007
		l0.391,0.895l-0.448,1.062c-0.335,0.298-0.615,0.41-0.838,0.335c-0.261-0.111-0.393-0.801-0.393-2.069l-0.502-1.286L210.809,87.013
		"/>
	<path fill="#0D131A" d="M212.432,92.269c0.335,0.149,0.223,1.305-0.337,3.467l-2.572,7.326l-1.454,1.957
		c-0.821,0.82-1.342,1.156-1.566,1.007c-0.373-0.261-0.168-0.988,0.615-2.181l0.727-0.951l0.728-1.118l1.397-3.355l1.343-3.523
		C211.872,92.996,212.245,92.12,212.432,92.269"/>
	<path fill="#0D131A" d="M225.462,86.844l0.28,0.895l0.056,1.566l-0.335,2.684c0,1.79-0.298,2.629-0.895,2.517
		c-0.373-0.074-0.559-0.354-0.559-0.838l0.111-1.23l0.615-2.517C224.995,87.907,225.238,86.882,225.462,86.844"/>
	<path fill="#0D131A" d="M199.904,129.346l0.168,3.02c-0.038,0.634,0.241,1.063,0.838,1.287c0.597,0.223,1.156-0.019,1.678-0.727
		l0.671,1.007c-0.858,1.081-1.79,1.622-2.796,1.622c-0.671,0-1.174-0.802-1.51-2.404c-0.335-1.566-0.448-3.487-0.335-5.76
		L199.904,129.346"/>
	<path fill="#FFFFFF" d="M200.688,133.876c-0.672-0.298-0.933-1.808-0.784-4.53l2.685,3.58l-1.119,0.895L200.688,133.876"/>
	<path fill="#FFFFFF" d="M231.948,84.272l0.224,1.454c0.224,1.752,0.242,3.617,0.056,5.592c-0.037,0.783-0.428,1.846-1.175,3.188
		c-0.932,1.641-2.03,2.759-3.299,3.356c0.076-2.237,0.448-4.4,1.119-6.488C229.656,88.988,230.681,86.621,231.948,84.272"/>
	<path fill="#0D131A" d="M318.518,89.585c0.262-0.112,0.653,0.056,1.175,0.503l1.007,1.062c3.989,5.294,7.793,14.037,11.409,26.228
		c3.765,12.602,6.375,25.744,7.829,39.427c0.148,1.192,0.13,2.255-0.057,3.188c-0.148,0.857-0.392,1.304-0.727,1.342
		c-0.671,0.074-1.138-1.379-1.398-4.362c-1.23-12.378-3.691-24.868-7.382-37.469c-3.431-11.744-7.121-20.934-11.073-27.57
		C318.444,90.517,318.183,89.734,318.518,89.585"/>
	<path fill="#0D131A" d="M334.513,99.651c0.26-0.111,0.819,0.41,1.678,1.566l1.398,2.125c8.724,24.084,12.005,47.032,9.842,68.842
		l-0.224,2.796c-0.187,1.566-0.41,2.349-0.672,2.349c-0.223,0-0.465-0.69-0.727-2.069l-0.335-2.573
		c0.895-28.484-2.498-51.543-10.179-69.178C334.252,101.161,333.99,99.875,334.513,99.651"/>
	<path fill="#0D131A" d="M100.528,103.733l0.728-1.118c0.335-0.485,0.615-0.69,0.838-0.615c0.261,0.075,0.392,0.447,0.392,1.118
		l-0.224,1.454c-2.163,5.966-3.803,14.13-4.921,24.495c-1.23,11.073-1.473,21.307-0.728,30.702v2.069
		c-0.074,1.044-0.242,1.565-0.502,1.565c-0.261,0-0.522-0.521-0.783-1.565l-0.335-2.013c-1.156-9.694-1.119-20.505,0.111-32.436
		C96.296,115.608,98.104,107.723,100.528,103.733"/>
	<path fill="#0D131A" d="M92.811,116.764c0.335-1.118,0.689-1.622,1.062-1.51c0.261,0.037,0.429,0.335,0.503,0.895v1.23
		c-2.573,10.029-4.511,20.301-5.816,30.814c-1.38,11.185-1.902,21.698-1.566,31.541c0,2.163-0.186,3.262-0.559,3.3
		c-0.261,0-0.448-0.466-0.559-1.398l-0.113-1.901c-1.304-9.656-1.211-20.245,0.28-31.765
		C87.311,137.903,89.567,127.501,92.811,116.764"/>
	<path fill="#FFFFFF" d="M186.035,86.286c0.485-0.224,1.024-0.149,1.621,0.223l11.464,8.501l0.783,0.671
		c0.671,0.41,1.156,1.025,1.455,1.845l0.782,1.622l1.174,2.74l-0.223,0.784l-2.462,0.111l-6.99-1.342l-0.615-0.167l-5.929-1.566
		c-1.528-0.559-2.385-1.211-2.572-1.957c-0.187-0.858-0.206-2.442-0.056-4.754l0.56-5.145
		C185.177,87.031,185.513,86.509,186.035,86.286"/>
	<path fill="#FFFFFF" d="M186.035,86.286c0.485-0.224,1.024-0.149,1.621,0.223l11.464,8.501l0.783,0.671
		c0.671,0.41,1.156,1.025,1.455,1.845l0.782,1.622l1.174,2.74l-0.223,0.784l-2.462,0.111l-6.99-1.342l-0.615-0.167l-5.929-1.566
		c-1.528-0.559-2.385-1.211-2.572-1.957c-0.187-0.858-0.206-2.442-0.056-4.754l0.56-5.145
		C185.177,87.031,185.513,86.509,186.035,86.286"/>
	<path fill="#008086" d="M192.075,89.641l0.111,0.112l7.718,5.928c0.671,0.41,1.156,1.025,1.455,1.845l0.782,1.622l1.174,2.74
		l-0.223,0.784l-2.462,0.111l-6.486-1.23c-1.603-2.536-2.405-5.388-2.405-8.557C191.74,91.841,191.851,90.722,192.075,89.641"/>
	<path fill="#008086" d="M228.537,98.085l-1.398,0.727l0.057-1.007c0.037-2.312,0.41-4.511,1.118-6.599l1.623-4.194
		c0.521,1.379,0.782,2.814,0.782,4.306C230.718,93.891,229.991,96.146,228.537,98.085"/>
	<path fill="#00666C" d="M228.426,95.96c-0.336,0-0.672-0.224-1.007-0.671l0.895-4.083c0.411-1.305,0.932-2.647,1.566-4.026
		c0.521,1.044,0.783,2.312,0.783,3.803c0,1.379-0.224,2.554-0.671,3.523C229.58,95.476,229.06,95.96,228.426,95.96"/>
	<path fill="#0D131A" d="M229.208,94.73c-0.262,1.044-0.801,1.491-1.622,1.342c0.074-0.783,0.373-1.958,0.895-3.523
		C229.19,93.146,229.432,93.872,229.208,94.73"/>
	<path fill="#00666C" d="M192.075,89.641l0.111,0.112l7.718,5.928c0.671,0.41,1.156,1.025,1.455,1.845l1.23,2.573l-5.033,0.336
		c-2.013-0.374-3.691-1.212-5.034-2.517c-0.521-1.565-0.782-3.206-0.782-4.921C191.74,91.841,191.851,90.722,192.075,89.641"/>
	<path fill="#0D131A" d="M194.591,101.161l-1.342-0.056c-1.417-2.423-2.125-5.126-2.125-8.109c0-1.044,0.13-2.293,0.391-3.747
		l0.056-0.056c0.037,0.522,0.374,0.783,1.007,0.783l-0.279,3.02C192.299,95.941,193.063,98.663,194.591,101.161"/>
	<path fill="#0D131A" d="M197.723,100.099c-0.634,0-1.156-0.224-1.565-0.671c-0.374-0.448-0.56-0.969-0.56-1.566
		s0.186-1.119,0.56-1.566c0.41-0.411,0.875-0.615,1.397-0.615c0.485,0,0.913,0.223,1.286,0.671c0.374,0.447,0.56,0.969,0.56,1.565
		l-0.391,1.455L197.723,100.099"/>
	<path fill="#FFFFFF" d="M195.543,97.135c-0.56,0-1.007-0.206-1.343-0.615c-0.298-0.373-0.447-0.802-0.447-1.286
		c0-0.56,0.167-1.025,0.502-1.398c0.373-0.41,0.802-0.615,1.287-0.615c0.447,0,0.856,0.223,1.23,0.67
		c0.335,0.411,0.503,0.895,0.503,1.455l-0.503,1.23C196.399,96.948,195.99,97.135,195.543,97.135"/>
	<path fill="#FFFFFF" d="M228.872,93.443l-0.67-0.503l-0.224-1.007c0-0.484,0.093-0.876,0.28-1.175
		c0.149-0.335,0.354-0.503,0.615-0.503l0.615,0.56l0.225,1.174l-0.225,1.007L228.872,93.443"/>
	<path fill="#0D131A" d="M187.321,87.013c-0.932-0.56-1.51-0.243-1.734,0.95l-0.558,5.089c-0.15,2.237-0.131,3.747,0.056,4.53
		c0.186,0.746,1.51,1.454,3.97,2.125l4.754,1.118l6.935,1.398l1.621,0.168c0.298-0.038,0.43-0.187,0.391-0.447l-1.901-4.194
		c-0.224-0.56-0.652-1.1-1.286-1.622c-2.536-2.051-4.399-3.523-5.593-4.418L187.321,87.013 M186.147,85.055
		c2.499,1.417,5.107,3.132,7.829,5.146l5.593,4.642l1.342,1.174c0.597,0.522,0.97,0.988,1.119,1.398l2.908,6.096l0.391,1.007
		c0.074,0.373-0.056,0.615-0.391,0.727l-0.448-0.335l-0.279-0.727c-0.074-0.187-0.354-0.373-0.839-0.559l-1.397-0.28
		c-1.156,0-3.449-0.373-6.878-1.119l-8.725-2.125c-0.82-0.336-1.491-0.932-2.013-1.79c-0.597-0.932-0.895-2.031-0.895-3.299
		c0-1.044,0.112-2.517,0.336-4.418l0.279-2.963l0.112-1.175l-0.112-1.007c-1.043-1.118-1.51-1.771-1.397-1.957
		C182.828,83.303,183.985,83.825,186.147,85.055"/>
	<path fill="#0D131A" d="M230.942,91.151c0,3.393-1.062,6.114-3.188,8.165l-0.838-0.28c0.969-0.857,1.733-1.957,2.292-3.299
		c0.597-1.379,0.895-2.852,0.895-4.418c0-1.379-0.224-2.666-0.671-3.859l0.615-1.062C230.644,87.963,230.942,89.547,230.942,91.151"
		/>
	<path fill="#0D131A" d="M232.172,85.726l-0.224-1.454c-1.268,2.349-2.292,4.716-3.076,7.102c-0.67,2.088-1.043,4.251-1.119,6.488
		c1.269-0.597,2.368-1.715,3.299-3.356c0.747-1.342,1.138-2.404,1.175-3.188C232.414,89.343,232.396,87.479,232.172,85.726
		 M214.78,18.506c-1.416-4.548-3.448-6.823-6.095-6.823c-1.752,0-3.001,1.006-3.747,3.02c-0.56,1.565-0.746,3.337-0.56,5.312
		l0.727,9.06l0.448,11.241c-0.076,3.877-0.615,6.729-1.623,8.556c-0.745,1.305-2.125,2.573-4.138,3.803
		c-1.604,0.969-3.523,1.659-5.76,2.069l-5.146,0.336l2.182,0.951l2.627,1.398l2.069,1.622l2.685,2.292
		c0.858,0.97,1.286,1.585,1.286,1.846c-0.037,0.297-0.652,0.019-1.845-0.839l-2.292-1.51l-1.79-1.342
		c-0.969-0.97-1.977-1.585-3.02-1.846c-0.709-0.112-1.641-0.484-2.797-1.119c-1.379-0.708-2.627-1.565-3.747-2.572
		c-4.921-4.064-9.339-7.96-13.254-11.688l-12.974-12.471c-1.043-0.969-2.61-1.547-4.698-1.734c-2.086-0.223-3.597,0.075-4.53,0.895
		c-0.856,0.746-1.23,1.995-1.118,3.747c0.112,1.566,0.484,2.778,1.118,3.635l5.258,6.208l5.871,7.438
		c7.42,11.855,11.129,20.748,11.129,26.675c0,2.722-0.242,5.275-0.727,7.662l-1.286,4.81l-1.119,4.865
		c-0.373,2.013-0.559,3.467-0.559,4.362c0,1.081,0.261,2.367,0.783,3.858c0.559,1.715,1.36,3.318,2.405,4.809
		c2.385,3.505,3.876,5.518,4.473,6.04l1.063,0.168c0.634,0,1.119,0.112,1.454,0.335l3.97,3.132c2.423,2.162,4.474,4.269,6.151,6.319
		l7.662,8.781c2.722,3.169,4.38,5.312,4.977,6.431c0.56,0.932,2.069,2.199,4.53,3.803c3.095,2.013,5.873,3.02,8.333,3.02
		c1.267,0,2.479-0.243,3.635-0.727l2.125-1.062c1.827-0.821,3.709-1.25,5.648-1.287c3.84-0.187,6.282-0.652,7.326-1.398
		c0.671-0.485,1.229-1.398,1.678-2.74c-1.38,1.342-2.703,2.125-3.971,2.349c-1.715,0.373-3.934-0.093-6.655-1.398l-2.796-0.951
		l-3.3-0.447l-3.915,0.783c-1.938,0.373-3.542,0.354-4.81-0.056c-1.379-0.447-2.46-1.081-3.244-1.902l-1.901-2.74
		c-1.454-2.237-3.485-4.791-6.095-7.662c-4.735-5.107-7.83-8.239-9.284-9.395c-0.597-0.485-1.827-1.044-3.691-1.678l-3.468-1.342
		c-0.596-0.374-1.043-1.044-1.341-2.014c-0.187-0.634-0.392-1.715-0.615-3.243c-0.15-1.082-0.131-2.051,0.056-2.909
		c0.149-0.708,0.335-1.062,0.56-1.062c0.335,0.075,0.522,0.596,0.559,1.566c0.41,3.355,0.821,5.387,1.23,6.095
		c0.261,0.448,1.193,0.914,2.796,1.398c1.901,0.597,3.225,1.174,3.97,1.733l5.873,4.977c2.833,2.647,4.958,4.847,6.375,6.6
		c2.014,2.535,3.896,5.238,5.649,8.109l2.069,1.398c1.081,0.447,2.292,0.671,3.635,0.671l2.852-0.391l2.964-0.392l3.299,0.392
		l3.187,0.838c2.834,1.23,4.511,1.846,5.034,1.846c1.081,0,2.497-0.914,4.25-2.741c2.125-2.199,4.269-5.256,6.432-9.171
		c1.23-2.237,2.255-4.418,3.076-6.543c0.932-2.386,1.397-4.176,1.397-5.369c0-0.969-0.392-1.696-1.174-2.181l-2.518-1.845
		c-0.82-0.969-1.771-2.74-2.852-5.312c-0.969-2.237-1.678-4.194-2.125-5.872c-0.634-2.312-1.417-4.735-2.349-7.271
		c-0.746,2.2-1.603,3.877-2.573,5.034l-1.621,1.454c-0.634,0.447-0.951,0.914-0.951,1.398l-0.28,0.559l-0.503-0.112
		c-0.335-0.671-0.503-1.491-0.503-2.461l0.503-3.635c0.373-2.05,0.728-3.449,1.063-4.195l3.858-9.954
		c0.97-2.908,1.453-5.406,1.453-7.493c0-1.417-0.279-2.723-0.838-3.915c-0.447-0.895-1.192-1.995-2.237-3.299
		c-1.006-1.23-2.181-3.02-3.523-5.369c-1.528-2.646-2.777-5.182-3.747-7.605c-2.088-5.332-3.877-12.397-5.369-21.195
		C216.122,24.396,215.227,19.922,214.78,18.506 M216.122,15.878l3.02,14.148l3.02,13.813c1.081,3.915,2.796,8.146,5.145,12.694
		l4.082,7.494c1.678,3.095,2.647,5.275,2.908,6.542c0.299,1.417,0.41,2.666,0.336,3.747l-0.671,2.964l-1.063,3.803l0.393,2.684
		c0.261,2.274,0.316,4.642,0.167,7.103l4.25,12.023l2.014,4.642c0.82,1.528,1.491,2.516,2.014,2.963l2.292,1.622
		c1.045,0.82,1.566,1.79,1.566,2.908c0,2.274-1.007,5.518-3.02,9.73c-1.977,4.213-4.232,7.811-6.768,10.793
		c-0.148,1.938-1.006,3.858-2.571,5.76c-0.821,0.932-2.424,1.603-4.81,2.013l-6.208,0.727c-1.082,0.149-2.629,0.708-4.642,1.678
		c-1.715,0.857-3.318,1.286-4.81,1.286c-1.865,0-4.12-0.633-6.767-1.901c-2.199-1.081-3.84-2.125-4.921-3.132l-3.691-4.25
		l-5.481-6.767l-11.911-13.254c-1.044-1.081-2.218-1.752-3.523-2.013l-1.957-0.392l-3.02-3.467l-3.02-3.915l-2.349-4.306
		c-0.932-1.902-1.398-3.281-1.398-4.139c0-1.193,0.69-4.586,2.069-10.178c1.23-5.257,1.845-9.489,1.845-12.695
		c0-2.162-0.895-5.555-2.684-10.178c-1.566-4.101-3.3-7.83-5.201-11.185c-1.417-2.499-3.971-5.779-7.661-9.843l-6.543-7.158
		c-1.454-1.827-2.088-3.971-1.901-6.432c0.148-2.237,0.876-3.877,2.181-4.921c1.193-1.007,3.001-1.548,5.424-1.622
		c2.833-0.112,5.145,0.689,6.935,2.405l10.066,10.01l9.395,9.339c3.729,3.318,6.358,5.313,7.886,5.984
		c0.969,0.447,2.59,0.634,4.865,0.56c2.349-0.112,4.194-0.467,5.536-1.062c1.939-0.821,3.374-1.715,4.306-2.685
		c1.454-1.566,2.182-3.654,2.182-6.264l0.056-7.605l-0.224-6.655l-0.895-11.856c-0.074-1.715,0.411-3.43,1.455-5.145
		c1.156-1.902,2.628-2.983,4.418-3.244c1.79-0.224,3.467,0.392,5.033,1.845C214.724,12.28,215.675,13.939,216.122,15.878"/>
</g>
</svg>
