<?xml version="1.0" encoding="utf-8"?>
<!-- Generator: Adobe Illustrator 16.0.0, SVG Export Plug-In . SVG Version: 6.00 Build 0)  -->
<!DOCTYPE svg PUBLIC "-//W3C//DTD SVG 1.1//EN" "http://www.w3.org/Graphics/SVG/1.1/DTD/svg11.dtd">
<svg version="1.1" id="Layer_1" xmlns="http://www.w3.org/2000/svg" xmlns:xlink="http://www.w3.org/1999/xlink" x="0px" y="0px"
	 width="456px" height="415px" viewBox="0 0 456 415" enable-background="new 0 0 456 415" xml:space="preserve">
<g>
	<g>
		<g>
			<path fill="#0D131A" d="M328.514,252.631c2.049-0.684,3.487-0.391,4.316,0.877l1.536-3.805c3.562,5.121,5.023,16.655,4.39,34.606
				c-0.732,20.435-4.512,38.678-11.34,54.724c-8.877,20.682-16.827,31.192-23.85,31.533l-3.366,0.367l-14.56-0.88
				c-7.513-0.922-12.194-1.973-14.05-3.144L253.96,340.06c-0.098-2.39,3.195-8.292,9.877-17.706
				c5.902-8.393,13.048-17.583,21.438-27.58c8.777-10.484,16.899-19.463,24.362-26.925
				C318.418,259.019,324.709,253.948,328.514,252.631"/>
			<path fill="#5DC1CF" d="M268.008,355.204c7.122-8.879,16.705-16.34,28.753-22.39c12.68-6.34,23.047-8.413,31.095-6.218
				c-1.414,5.414-3.099,10.561-5.049,15.436c-4.341,11.023-8.512,18.438-12.511,22.243c-2.342,2.194-5.146,3.365-8.413,3.512
				l-1.611,0.148l-14.338-1.101c-7.315-1.121-11.779-2.17-13.389-3.146c-0.732-0.441-2.073-2.877-4.024-7.315L268.008,355.204
				h-0.073v-0.073L268.008,355.204"/>
			<path fill="#50A8B4" d="M331.146,254.68c2.39,3.459,3.463,12.192,3.218,26.19c-0.29,15.707-2.462,30.947-6.509,45.727
				c-8.049-2.195-18.415-0.122-31.095,6.218c-12.048,6.048-21.654,13.511-28.828,22.39v-0.073c-2-4.293-3.705-7.464-5.119-9.513
				c-2.194-3.169-4.463-5.073-6.805-5.707v-0.146c0-1.707,2.537-6.22,7.607-13.534c5.513-8.048,12.562-17.265,21.145-27.656
				c9.413-11.365,18.046-20.995,25.899-28.897c7.807-7.854,13.584-12.708,17.34-14.56
				C329.708,254.191,330.757,254.042,331.146,254.68"/>
			<path fill="#0D131A" d="M329.537,276.114c1.953,2.294,2.927,4.149,2.927,5.562l-0.073,0.585
				c-1.853,7.998-4.731,15.193-8.633,21.584c-3.315,5.412-8.341,11.632-15.072,18.658c-4.242,4.438-10.972,8.851-20.191,13.241
				c-10.243,4.878-20.73,8.293-31.459,10.241l2.56,19.17c1.024,9.462,1.536,16.508,1.536,21.143c0,1.316-0.388,2.73-1.17,4.243
				c-0.489,1.708-1.415,2.927-2.779,3.659c-3.66,2.001-10.415,3.56-20.268,4.684c-9.752,1.071-15.679,0.998-17.776-0.222
				c-8.487-5.024-17.803-15.119-27.947-30.289c-10.342-15.413-17.146-29.606-20.414-42.58c-4.926-1.952-10.145-4.633-15.658-8.048
				c-5.364-3.317-9.559-6.414-12.583-9.292c-1.316,5.609-3.731,10.754-7.244,15.437c-1.707,2.293-3.318,4.05-4.829,5.27
				c-2,2.439-9.12,3.559-21.363,3.363l-17.779-1.097c-3.416-0.587-5.975-1.684-7.682-3.292c-1.854-1.806-2.951-4.464-3.292-7.974
				c-0.586-5.659-0.415-11.245,0.513-16.757l1.243-8.999l0.806-6.511c0.294-1.559,0.269-3.853-0.071-6.878l-0.586-4.095
				c-1.805-13.901-2.169-24.194-1.098-30.875c1.318-8.096,5.512-18.436,12.583-31.021c8.048-14.292,19.925-24.681,35.63-31.168
				c9.365-3.853,19.097-6.048,29.192-6.585c7.657-0.39,22.558,4.974,44.702,16.096c13.364,6.681,27.848,14.657,43.458,23.923
				c19.655,11.657,37.19,22.976,52.604,33.947C314.735,262.212,324.807,270.506,329.537,276.114"/>
			<path fill="#5DC1CF" d="M131.343,186.052c9.072-4,18.169-6.243,27.29-6.731c11.168-0.584,42.923,16.339,95.257,50.776
				c26.191,17.264,51.239,34.63,75.136,52.094c-2.143,7.121-4.875,13.511-8.192,19.167c-4,6.779-9.168,13.168-15.507,19.167
				c-7.123,6.683-17.123,12.267-29.998,16.755c-9.266,3.267-15.437,4.904-18.51,4.904c-0.685,0-1.196-1.174-1.538-3.515
				l-0.734-6.365c-0.142-2.001-0.753-2.658-1.828-1.976c-1.021,0.684-1.338,2.27-0.949,4.757c1.219,6.533,2.636,16.144,4.244,28.826
				c1.903,15.267,2.559,23.971,1.973,26.119c0,0.34-0.56,0.828-1.681,1.461c-3.463,1.855-9.781,3.391-18.949,4.611l-16.168,0.658
				c-1.514-0.438-4.466-2.853-8.855-7.243c-5.364-5.266-10.487-11.316-15.364-18.144c-14.194-19.752-22.315-39.922-24.363-60.505
				c-0.44-4.487-1.025-7.51-1.757-9.069c-0.781-1.466-1.316-0.928-1.609,1.606c-0.439,3.319-0.123,9.414,0.95,18.292
				c-10.339-3.949-21.143-11.562-32.412-22.827c-16.68-16.634-26.02-35.315-28.021-56.042c-0.245-2.587-0.61-4.39-1.098-5.414
				c-0.488-0.977-0.902-0.927-1.244,0.146c-0.879,2.878-0.487,9.023,1.17,18.437c1.219,6.632,3.219,12.755,5.999,18.362
				c5.219,10.341,13.584,21.023,25.094,32.046c-0.487,2.876-1.512,5.974-3.073,9.292c-1.707,3.658-3.755,6.901-6.145,9.729
				c-0.927,1.222-3.024,2.294-6.292,3.219c-6.486,1.904-15.608,2.22-27.363,0.952l-3.074-0.587
				c-3.413-0.585-5.974-1.754-7.683-3.512c-1.559-1.608-2.486-3.852-2.779-6.732c-0.292-3.56-0.05-7.775,0.732-12.655l1.682-11.193
				c0.488-4.243,0.61-7.682,0.365-10.316c-1.461-15.119-2.023-25.045-1.681-29.777c0.926-12.778,5.195-25.557,12.802-38.335
				C105.32,202.684,116.709,192.54,131.343,186.052"/>
			<path fill="#50A8B4" d="M148.608,296.822c7.658,3.511,14.535,5.704,20.631,6.582c-0.439,3.319-0.123,9.413,0.951,18.294
				c-7.854-3.028-16.632-8.758-26.339-17.194c-14-12.146-23.803-25.827-29.41-41.046
				C121.904,278.628,133.293,289.747,148.608,296.822"/>
			<path fill="#50A8B4" d="M139.683,306.404c-0.486,2.877-1.512,5.975-3.071,9.291c-1.708,3.658-3.757,6.903-6.145,9.731
				l-3.22,2.121c-3.266,1.462-7.731,2.34-13.388,2.635c7.267-2.879,10.487-10.487,9.657-22.826
				c-0.731-10.243-3.901-21.657-9.511-34.239C119.174,283.944,127.733,295.039,139.683,306.404"/>
			<path fill="#50A8B4" d="M123.513,189.71c6.389-3.659,13.341-6.415,20.85-8.268c4.976-1.171,9.731-1.879,14.267-2.122
				c11.168-0.584,42.923,16.339,95.256,50.776c26.192,17.264,51.239,34.63,75.137,52.094c-2.144,7.121-4.876,13.511-8.193,19.167
				c-3.999,6.779-9.168,13.168-15.507,19.167c-7.123,6.683-17.123,12.267-29.996,16.755c-9.268,3.267-15.439,4.904-18.511,4.904
				c-0.684,0-1.195-1.174-1.539-3.515l-0.733-6.365c-0.144-2.001-0.755-2.658-1.828-1.976c-1.021,0.684-1.34,2.27-0.95,4.757
				c1.221,6.533,2.637,16.144,4.245,28.826c1.902,15.267,2.557,23.971,1.974,26.119c0,0.34-0.562,0.828-1.683,1.461l-3.074,1.245
				c0.245-13.901-1.365-25.584-4.828-35.046c-5.656-15.507-16.192-26.338-31.604-32.483c-3.217-31.41-9.121-56.288-17.705-74.626
				C183.58,217.61,158.388,197.319,123.513,189.71"/>
			<path fill="#0D131A" d="M98.054,322.061c0.926,0.097,2.193,1.098,3.803,2.998c1.708,2.004,2.513,3.782,2.416,5.343
				c-0.097,1.657-0.806,3.463-2.121,5.413c-1.318,1.953-2.416,2.927-3.294,2.927c-0.879,0-2.317-1.269-4.318-3.804
				c-2-2.486-3-4.194-3-5.12c-0.049-0.879,0.831-2.393,2.635-4.535C95.979,323.086,97.272,322.014,98.054,322.061"/>
			<path fill="#FFFFFF" d="M101.492,327.107c0.877,1.366,1.293,2.39,1.244,3.073c0,0.733-0.514,1.975-1.536,3.731
				c-1.072,1.708-1.804,2.562-2.195,2.562c-0.488,0-1.537-0.827-3.146-2.489c-1.659-1.705-2.438-2.948-2.342-3.729
				c0.049-0.734,1.049-2.464,3-5.198c0.534-0.778,1-1.218,1.389-1.318c0.34-0.045,0.806,0.174,1.39,0.66L101.492,327.107"/>
			<path fill="#0D131A" d="M109.832,332.011c-0.097-0.782,0.685-2.465,2.342-5.049c1.707-2.683,3.001-4.073,3.878-4.17
				c0.926-0.05,2.268,1.075,4.024,3.367c1.755,2.34,2.512,4.023,2.269,5.046l-1.317,4.318c-0.83,1.902-1.732,3.12-2.707,3.656
				c-0.976,0.537-2.635-0.342-4.975-2.634C111.15,334.401,109.98,332.891,109.832,332.011"/>
			<path fill="#FFFFFF" d="M116.052,324.914c0.438-0.146,1.315,0.656,2.634,2.413c1.316,1.807,2.049,3.221,2.196,4.246l-1.171,3.218
				c-0.831,1.704-1.464,2.635-1.902,2.777c-0.488,0.149-1.658-0.583-3.511-2.193c-1.805-1.607-2.755-2.729-2.854-3.364
				c-0.049-0.635,0.61-1.952,1.977-3.951C114.735,326.158,115.613,325.109,116.052,324.914"/>
			<path fill="#0D131A" d="M125.563,329.815c0-1.122,0.463-2.683,1.389-4.682c1.171-2.438,2.487-4,3.95-4.681
				c1.561-0.78,3.171,0.779,4.83,4.681c1.608,3.804,2.121,6.805,1.536,8.999c-0.292,1.219-2.342,1.023-6.146-0.587
				C127.367,331.89,125.514,330.645,125.563,329.815"/>
			<path fill="#FFFFFF" d="M130.757,322.134c0.683-0.245,1.683,1.317,2.999,4.682c1.317,3.269,1.902,5.121,1.756,5.562
				c-0.097,0.292-1.367-0.025-3.805-0.952c-2.536-0.925-3.899-1.684-4.097-2.269c-0.193-0.685,0.099-1.953,0.88-3.806
				C129.318,323.499,130.075,322.426,130.757,322.134"/>
			<path fill="#0D131A" d="M219.942,397.344c0.196-1.414,0.951-2.901,2.267-4.464c1.319-1.511,2.441-2.318,3.368-2.411
				c1.171-0.051,2.462,0.658,3.876,2.118c1.27,1.368,2.073,2.708,2.414,4.025c0.195,0.78-0.317,2.708-1.536,5.781
				c-1.27,3.12-2.218,4.608-2.853,4.463c-0.83-0.196-2.292-1.61-4.391-4.245C220.893,399.931,219.844,398.175,219.942,397.344"/>
			<path fill="#FFFFFF" d="M222.136,397.782c0.098-0.974,0.463-2.001,1.1-3.073c0.685-1.216,1.389-1.926,2.121-2.121
				c0.782-0.243,1.806,0.343,3.072,1.759c1.172,1.266,1.779,2.267,1.828,2.996l-1.098,3.659c-0.731,1.755-1.291,2.732-1.683,2.927
				c-0.439,0.195-1.439-0.561-2.999-2.269C222.869,399.856,222.088,398.564,222.136,397.782"/>
			<path fill="#0D131A" d="M241.743,388.345c1.021-0.097,2.633,0.586,4.828,2.05c2.393,1.56,3.562,2.976,3.515,4.244l-0.955,6.074
				c-0.633,2.681-1.267,4.095-1.901,4.24c-1.121,0.293-3.146-0.584-6.073-2.634c-2.974-2.049-4.561-3.708-4.757-4.976
				c-0.095-0.928,0.562-2.635,1.976-5.119C239.842,389.687,240.962,388.394,241.743,388.345"/>
			<path fill="#FFFFFF" d="M242.548,390.615c0.438-0.098,1.415,0.365,2.925,1.391c1.562,1.022,2.392,1.806,2.489,2.341l-0.367,4.314
				c-0.39,2.341-0.756,3.607-1.098,3.805c-0.439,0.244-1.855-0.514-4.245-2.267c-2.388-1.808-3.581-3.05-3.581-3.733
				c0-0.685,0.536-1.829,1.607-3.438C241.354,391.515,242.11,390.711,242.548,390.615"/>
			<path fill="#0D131A" d="M256.523,383.152c1.755-0.685,3.9,1.241,6.436,5.777c2.537,4.536,3.269,7.585,2.196,9.146
				c-0.292,0.44-2.072,0.221-5.34-0.656l-6.367-2.122l-1.754-1.243c-0.243-0.439-0.243-1.245,0-2.414
				c0.245-1.315,0.902-2.953,1.976-4.902C254.791,384.639,255.742,383.443,256.523,383.152"/>
			<path fill="#FFFFFF" d="M257.4,385.275c1.706,0.973,3.219,2.873,4.536,5.704c1.121,2.487,1.584,4.097,1.388,4.83
				c-0.145,0.438-1.657,0.169-4.535-0.806c-2.828-0.976-4.413-1.658-4.755-2.048c-0.341-0.438-0.047-1.929,0.877-4.464
				C255.839,385.908,256.668,384.834,257.4,385.275"/>
			<path fill="#0D131A" d="M268.229,361.131c0.097-0.441,0.949-1.051,2.561-1.829c1.756-0.876,3.048-1.123,3.877-0.733
				c0.975,0.441,1.952,1.685,2.927,3.731c1.024,2.05,1.317,3.392,0.877,4.024l-3.439,3.295c-1.95,1.51-3.363,2.194-4.242,2.045
				c-0.877-0.192-1.587-1.778-2.122-4.752C268.131,364.179,267.983,362.251,268.229,361.131"/>
			<path fill="#FFFFFF" d="M273.789,359.885c0.487,0.098,1.101,0.879,1.827,2.343c0.685,1.462,0.904,2.414,0.659,2.853l-2.414,2.707
				c-1.414,1.365-2.317,2.048-2.707,2.048c-0.339,0-0.659-1.169-0.952-3.512l-0.291-4.097c0.048-0.391,0.583-0.903,1.607-1.538
				C272.593,360.057,273.351,359.788,273.789,359.885"/>
			<path fill="#0D131A" d="M286.738,364.35c1.609-1.415,2.927-2.195,3.951-2.341c1.07-0.195,2.436,0.683,4.098,2.634
				c1.561,1.855,2.339,3.17,2.339,3.949c0,0.685-0.949,2.243-2.853,4.683c-2.049,2.633-3.632,3.9-4.756,3.805
				c-1.17-0.1-2.486-1.609-3.948-4.536c-1.415-2.829-1.879-4.633-1.391-5.415C284.567,366.494,285.42,365.568,286.738,364.35"/>
			<path fill="#FFFFFF" d="M290.907,363.545c0.587,0.195,1.39,0.828,2.415,1.9c1.221,1.221,1.755,2.147,1.609,2.783l-2.559,4.242
				c-1.612,2.098-2.611,3.121-3.001,3.071c-0.489,0-1.221-1.146-2.194-3.439c-1.024-2.291-1.39-3.803-1.099-4.532
				c0.292-0.782,1.072-1.685,2.34-2.708C289.688,363.789,290.521,363.348,290.907,363.545"/>
			<path fill="#0D131A" d="M305.614,364.642c1.805-2.145,3.342-3.17,4.609-3.073c1.61,0.146,2.56,1.953,2.854,5.416
				c0.34,3.511-0.392,6.266-2.196,8.266c-1.122,1.219-2.706,0.635-4.754-1.758c-1.902-2.242-2.854-4.047-2.854-5.411
				C303.272,367.689,304.053,366.543,305.614,364.642"/>
			<path fill="#FFFFFF" d="M307.589,365.152c1.268-1.27,2.099-1.733,2.488-1.388c0.391,0.339,0.78,1.07,1.17,2.191l0.514,2.782
				l-0.659,2.342c-0.439,1.412-0.877,2.315-1.317,2.705c-0.438,0.391-1.292-0.341-2.559-2.193c-1.124-1.659-1.756-2.854-1.902-3.584
				C305.761,367.228,306.516,366.272,307.589,365.152"/>
			<path fill="#0D131A" d="M150.51,87.281l16.899,9.585l40.313,44.043l-57.944,9.733l-22.973-8.781
				c-15.267-5.95-22.802-9.145-22.606-9.583c0.194-0.341,3.169-2.025,8.926-5.048l14.338-7.903
				c-3.755,1.269-8.951,3.416-15.583,6.439l-8.78,3.876c-0.538-0.049-3.318-2.121-8.34-6.219c-5.072-4.145-7.44-6.364-7.097-6.657
				l7.974-4.315c5.463-3.023,9.341-5.61,11.633-7.756c-4.242,1.17-9.464,3.096-15.657,5.779l-8.268,3.512
				c-0.585-0.049-2.926-1.83-7.022-5.341c-4.097-3.56-5.999-5.514-5.707-5.854c0.243-0.292,2.342-1.342,6.293-3.146l10.609-4.974
				L74.13,97.16l-9.219,1.463c-0.83-0.048-2.122-0.633-3.875-1.755c-1.708-1.171-2.586-1.975-2.634-2.413
				c-0.049-0.34,1.61-1.342,4.974-2.999l8.195-4.025l-9.731-0.073c-4.097-0.195-5.95-0.659-5.558-1.39
				c0.39-0.683,2.316-2.269,5.779-4.757l5.341-3.658l3.805,0.806l-2.634-0.878c-1.414-0.536-1.928-0.901-1.536-1.098l5.925-1.976
				c3.463-1.073,5.365-1.585,5.707-1.537l10.901,6.146l-3.583-4.17l-2.708-3.512c-0.342-0.78,2.561-1.39,8.706-1.829l9.951,0.366
				l5.633,9.657l-1.024-5.488c-0.342-2-0.417-3.096-0.221-3.292l3.66,0.292c2.145,0.438,3.437,0.806,3.877,1.098
				c0.34,0.292,1.756,2.61,4.243,6.95l-2.048-5.268c-0.781-1.95-1.074-3.072-0.877-3.365c0.194-0.341,3.78,0.951,10.754,3.877
				c6.877,2.926,10.462,4.633,10.756,5.122l2.78,7.317l-0.731-3.367l-0.367-2.196C138.512,81.016,142.56,83.039,150.51,87.281"/>
			<path fill="#00A63C" d="M204.138,139.667l-54.139,9.071l-41.483-16.68c14.046-7.607,22.34-12.414,24.875-14.412l2.998-2.342
				l-3.731,0.732c-2.487,0.632-7.658,2.511-15.509,5.631c-7.122,2.878-11.708,4.829-13.756,5.854l-12.436-10.388l9.803-5.489
				c4.976-3.072,8.585-5.779,10.827-8.12l2.488-2.415c0.049-0.245-1.39,0.098-4.317,1.023l-14.486,5.121l-11.633,4.536l-9.73-8.486
				l9.877-4.755l10.023-5.049l2.779-1.389c1.218-0.782,0.098-0.879-3.365-0.292l-27.949,4.901l-3.292-2.122l13.902-7.318
				l2.268-0.877c0.976-0.634,0.05-0.927-2.78-0.878l-8.853,0.218l-7.681-0.072c1.999-2.048,5.022-4.145,9.071-6.292l13.097,3.438
				l3.73,1.463c1.902,0.536,1.292-0.146-1.83-2.047c-3.073-1.903-5.413-3.219-7.024-3.95l-3.731-1.537l6.292-1.901l14.779,8.268
				c0.39,0.096,0.293-0.366-0.292-1.391c-2.097-3.708-4.243-6.902-6.438-9.585l14.853-0.513c2.829,5.61,5.218,9.927,7.169,12.951
				c1.073,1.609,1.708,2.147,1.902,1.609V84.94c-1.171-6.244-1.877-10.341-2.122-12.292l4.611,1.098l10.022,17.12
				c0.927,1.074,0.927-0.049,0-3.366l-2.779-8.706l-1.977-5.048l17.046,7.097l7.171,18.801l0.731-3.073l-2.341-12.731
				c2.487,1.074,6.609,3.244,12.363,6.511c5.513,3.169,9.903,5.83,13.169,7.974L204.138,139.667"/>
			<path fill="#0D131A" d="M160.9,137.325l-6.366-13.9l28.022,12.731l66.284,24.728l-0.877,1.098
				c-5.219,6.437-10.707,12.78-16.462,19.021c-11.366,12.339-19.605,19.56-24.729,21.657l-0.364,0.147l-0.366-0.147
				c-5.171-1.902-16.511-2.78-34.021-2.635H147.22c-0.439-0.681-1.244-2.634-2.415-5.853l-3.438-10.097l1.316,16.096l-0.146,2.122
				c-0.146,0.439-0.514,0.731-1.098,0.877c-19.267,2.536-29.045,3.464-29.337,2.779c-0.195-0.438-0.267-2.878-0.219-7.316
				l0.219-10.168c-1.123,2.73-1.853,6.731-2.196,11.998l-0.439,7.683c-0.292,0.486-5.365,2.122-15.218,4.901
				c-9.853,2.73-14.876,3.95-15.072,3.659c-0.146-0.294-0.244-2.317-0.293-6.072l0.146-7.464l-3.659,10.389
				c-1.219,3.561-2,5.438-2.34,5.634l-11.926,2.484l-11.34,1.54l3.951-7.68l6.073-11.49c-1.61,1.073-6.829,5.659-15.658,13.756
				c-8.146,7.461-12.39,11.143-12.729,11.045c-0.49-0.146-0.538-2.682-0.147-7.606c0.341-4.832,0.684-7.488,1.026-7.975
				c0.485-0.683,5.705-4.341,15.656-10.975c-1.756,0.536-5.511,1.95-11.267,4.241c-4.779,1.906-7.243,2.758-7.39,2.562
				c-0.196-0.341,1.44-3.634,4.902-9.878c3.413-6.292,5.438-9.658,6.072-10.096c0.44-0.34,2.804-1.22,7.097-2.635l11.778-3.95
				l-9.729,0.877l-5.415,0.146c-0.195-0.486,1.488-3.268,5.047-8.34c3.757-5.412,6.462-8.414,8.121-8.997
				c2.049-0.83,10.413-1.806,25.095-2.927c-1.218-0.489-4.365-1.39-9.437-2.708c-4.097-1.024-6.146-1.707-6.146-2.048
				c0-0.439,3.073-3.049,9.219-7.828c6.098-4.732,9.486-7.146,10.17-7.243l5.706,0.732l9.878,1.901l-6.951-2.779
				c-2.487-0.975-3.56-1.514-3.218-1.609l9.95-5.27c6.342-3.416,9.756-5.195,10.244-5.341c0.487-0.195,2.852,0.465,7.096,1.976
				l12.218,4.316l-6.659-3.366c-2.487-1.22-3.414-2-2.781-2.341c0.782-0.438,4.904-1.341,12.365-2.707l12.145-1.902
				C146.975,127.229,151.925,130.642,160.9,137.325"/>
			<path fill="#00A63C" d="M158.631,127.522l23.12,10.535l63.722,23.702c-5.997,7.269-11.802,13.903-17.409,19.902
				c-9.999,10.634-17.268,16.948-21.804,18.949c-5.562-1.901-16.144-2.927-31.751-3.072c-8.975-0.098-17.852,0.049-26.634,0.438
				l-7.388-23.045c-0.683-2.098-1.219-3.12-1.61-3.072c-0.439,0-0.561,1.147-0.367,3.439c1.073,10.096,1.685,18.73,1.83,25.899
				l-26.266,2.487c0.731-11.073,0.731-18.34,0-21.803c-0.439-2.292-1.708,0.708-3.805,8.999c-2.047,7.998-3.098,13.121-3.146,15.366
				l-26.338,7.46l-0.074-2.853c0-2.097,0.171-4.559,0.515-7.39c0.389-2.928,0.584-5.562,0.584-7.902
				c0.048-3.365-0.048-5.023-0.292-4.974c-0.146,0.048-0.706,1.535-1.683,4.462l-8.266,22.316l-17.999,3.147l9.364-18.439
				l2.122-2.414c0.828-1.22-0.292-0.877-3.365,1.025c-3.416,2.145-6.877,4.707-10.391,7.683l-12.365,11.12l-5.487,5.049
				c0.098-2.39,0.365-5.929,0.804-10.609l20.193-13.609l2.196-1.464c0.878-0.878-0.123-1-3-0.365
				c-5.659,1.22-12.536,3.415-20.631,6.585c2.048-4,4.902-8.731,8.559-14.195c13.314-4.829,21.73-7.778,25.241-8.851
				c2.729-0.829,4.121-1.391,4.169-1.683l-4.61-0.292l-18.657,1.244c1.856-3.121,3.66-5.877,5.415-8.268
				c2.144-2.878,3.708-4.51,4.683-4.902l14.193-1.83l14.706-1.244L90,164.613c0.195-0.146-0.806-0.659-3-1.535
				c-7.364-3.075-12.78-5.048-16.241-5.928l8.926-6.803l7.17-4.974l10.023,1.977l13.314,2.413l4.316,0.292
				c0.147-0.195-1.098-0.927-3.732-2.194l-14.631-6.365l15.657-8.194l31.241,9.95c1.951,0.341,0.804-0.659-3.439-3l-8.854-5.122
				l-3.658-2.413l18.509-3.512l20.12,13.973L158.631,127.522"/>
			<path fill="#009233" d="M165.729,143.178l-7.097-15.656l23.119,10.535l63.723,23.702c-5.997,7.269-11.802,13.903-17.409,19.902
				c-9.999,10.634-17.268,16.948-21.804,18.949c-3.512-1.22-9.048-2.072-16.609-2.56c0.537-9.562-0.683-17.316-3.658-23.266
				c-3.707-7.562-10.341-12.804-19.899-15.729c0-4.146-1.294-8.438-3.879-12.877c-1.902-3.169-4.951-7.097-9.146-11.779
				L165.729,143.178"/>
			<path fill="#0D131A" d="M417.038,101.402c5.611,2.879,8.464,4.512,8.56,4.904c0.102,0.291-2.682,1.487-8.339,3.585l-13.389,4.902
				l12.876-0.073l6.438,0.584c0.146,0.244-1.855,2.413-5.999,6.511l-6.95,6.439l-9.001-1.171l-14.486-2.342l12.732,5.268
				c4.879,2,7.341,3.097,7.39,3.293l-9.513,7.902c-6.438,4.974-9.876,7.413-10.313,7.315l-10.317-6.511
				c-7.17-4.439-12.511-7.268-16.024-8.487c12.879,8.682,19.194,13.34,18.95,13.975c-0.146,0.439-3.633,2.146-10.463,5.122
				c-6.682,2.878-10.315,4.341-10.901,4.388l-11.193-7.242c-8.047-5.219-14.048-8.463-18-9.73c2.83,2.391,7.122,6.659,12.879,12.805
				c5.707,6.097,8.438,9.317,8.192,9.656c-0.291,0.342-1.755,0.977-4.39,1.904l-4.681,1.242l-5.121-4.755
				c-3.463-3.268-6.071-5.291-7.829-6.072l6.219,7.169c2.977,3.367,4.418,5.147,4.318,5.34c-0.197,0.392-2.391,1.951-6.585,4.683
				c-4.34,2.829-6.708,4.146-7.098,3.951l-5.926-5.707c-4.099-3.852-7.46-6.34-10.096-7.462l6.73,8.706
				c3.706,4.438,5.464,6.73,5.265,6.876l-28.094,8.999l-51.871-17.411l20.192-49.019l0.146-0.147
				c2.683-2.683,9.488-7.071,20.415-13.169c10.632-5.9,16.19-8.609,16.678-8.121c0.342,0.341-0.242,2.683-1.754,7.024l-3.365,9.804
				l5.194-11.706c1.562-3.708,2.536-5.707,2.93-6.001c0.729-0.487,4.779-1.779,12.143-3.876c7.412-2.098,11.146-2.927,11.193-2.487
				l-2.852,6.146c-2.295,4.39-3.76,7.462-4.392,9.217l6.512-9.95c2.392-3.609,3.781-5.538,4.17-5.779
				c0.535-0.341,3.243-0.855,8.121-1.538l7.463-0.731l-5.704,13.096l7.091-8.121l4.685-5.047l8.851-0.511
				c5.467-0.195,8.294-0.171,8.485,0.073c0.196,0.245-0.145,1.732-1.021,4.462l-2.562,6.659
				c8.097-6.731,13.389-10.706,15.877-11.925l0.146-0.073h0.221c2.095,0,6.39,0.828,12.876,2.487
				c6.242,1.561,9.364,2.512,9.364,2.852l-3.585,4.539l-5.998,6.875l9.001-4.901c3.607-1.95,5.654-2.952,6.143-3
				C408.308,97.038,411.431,98.477,417.038,101.402"/>
			<path fill="#00A63C" d="M393.921,100.891c-2.828,3.512-4.757,5.683-5.779,6.511c-1.367,1.123-2.049,1.805-2.049,2.048
				c0.049,0.341,1.123,0.123,3.218-0.657c2.927-1.171,9.048-4.39,18.363-9.658l13.463,6.951l-10.68,4.242
				c-5.901,2.292-9.756,3.659-11.562,4.097l-5.046,1.098c-0.83,0.243-0.148,0.439,2.049,0.586l23.191,0.731l-9.438,8.926
				l-11.925-1.464l-17.705-2.413c-3.512-0.441-4.658-0.293-3.438,0.439l2.925,1.244c15.461,6.339,23.341,9.729,23.633,10.168
				c0.194,0.292-2.366,2.391-7.682,6.292l-8.34,5.634c-18.292-9.951-28.752-15.047-31.388-15.291l-3.439-0.22
				c-0.146,0.147,0.828,0.781,2.927,1.902l11.999,7.901c5.707,4,8.584,6.244,8.634,6.731c0.049,0.341-2.487,1.657-7.609,3.951
				l-9.802,4.241c-14.926-10.827-25.704-16.681-32.34-17.559c-4.293-0.538-6.023-0.538-5.194,0l4.245,1.903
				c1.317,0.83,4.412,3.633,9.291,8.414c5.462,5.366,9.607,9.877,12.436,13.535c-1.607,0.439-3.387,1.147-5.341,2.122
				c-1.021-1.123-3.387-3-7.094-5.632c-3.756-2.683-6.512-4.463-8.267-5.341c-1.611-0.78-2.39-1.049-2.34-0.805l1.387,2.048
				l4.902,6.364l5.78,7.023l-10.537,6.658l-7.535-6.511c-4.196-3.317-7.487-5.536-9.878-6.659c-1.655-0.779-2.51-1.022-2.559-0.73
				l1.098,2.414c0.585,1.219,2.17,3.609,4.753,7.17l6.511,8.193l-24.873,7.976l-49.457-16.607l19.315-46.897
				c3.462-3.365,14.363-9.682,32.705-18.95l-2.928,10.682l-2.779,9.511c-0.781,2.196-1.101,3.49-0.953,3.879
				c0.196,0.439,1.072-0.708,2.636-3.439l6.73-13.243l4.827-10.681l18.072-5.195c-2.049,3.708-4.536,10.047-7.463,19.022
				c-1.023,2.974-1.488,4.559-1.388,4.755l2.999-4.025c2.535-4.049,7.242-10.95,14.12-20.705l12.363-1.755
				c-2.39,3.367-4.731,8.34-7.023,14.927c-0.732,2.146-0.999,3.242-0.807,3.292l2.343-2.342l14.561-16.314l14.704-0.439
				l-2.341,5.487l-3.293,7.024l-1.317,3.294l2.708-2.122l9.07-7.389c4.682-3.805,7.95-6.195,9.804-7.17
				c2.586,0.098,8.853,1.584,18.801,4.463L393.921,100.891"/>
			<path fill="#009233" d="M274.959,113.841c5.608,8.681,9.584,15.973,11.924,21.875c15.513,0.49,27.583,3.464,36.219,8.927
				c2.826,1.755,6.313,4.461,10.462,8.122l11.048,9.218l-3.075,1.317c-1.021-1.123-3.388-3-7.093-5.632
				c-3.756-2.684-6.512-4.464-8.268-5.341c-1.61-0.779-2.389-1.048-2.34-0.805l1.388,2.049l4.902,6.364l5.779,7.023l-10.536,6.658
				l-7.536-6.511c-4.195-3.317-7.486-5.536-9.877-6.659c-1.657-0.779-2.51-1.022-2.559-0.73l1.098,2.414
				c0.584,1.219,2.17,3.607,4.753,7.169l6.511,8.193l-24.874,7.975l-49.457-16.607l19.316-46.897
				C264.399,120.399,268.473,117.694,274.959,113.841"/>
			<path fill="#0D131A" d="M196.311,170.687l-14.633-0.291c-8.291-0.196-12.121-0.562-11.486-1.098l14.046-10.755l-22.533-7.097
				l-3.073-1.244l3.366-0.586l34.312,1.83l31.24,18.727l-20.632,6.146c-13.654,3.952-20.264,5.585-19.825,4.904l4.608-5.195
				L196.311,170.687"/>
			<path fill="#00A63C" d="M186.726,158.908l1.83-1.098l-1.83-1.17c-1.023-0.488-4.292-1.391-9.802-2.707l-7.829-2.049l13.169,0.439
				l13.535,0.95l27.071,16.243c-17.899,5.414-27.266,7.877-28.096,7.39c-0.389-0.242,0.317-1.511,2.121-3.804
				c1.855-2.39,2.684-3.756,2.489-4.098l-12.074-0.877l-12.072-0.438c-0.244-0.147,1.341-1.488,4.755-4.025L186.726,158.908"/>
			<path fill="#0D131A" d="M240.866,9.072c2.73-1.074,4.291-1.098,4.68-0.074c0.147,0.487-0.073,1.561-0.655,3.22
				c-1.024,3.315-1.562,6.046-1.61,8.194l4.534-4.392c1.854-1.755,3.268-2.803,4.247-3.144l2.851-0.148
				c0.587,0.392,0.587,1.221,0,2.488c-1.268,2.733-1.974,6.391-2.119,10.976c-0.196,6.731,1.486,12.243,5.047,16.536l0.729,0.949
				l-1.021,0.588c-6.34,3.511-12.828,6.607-19.462,9.291l-8.12,2.926l-0.806,0.221l-15.876-29.046l4.536-8.999
				c3.317-6.341,5.633-10.463,6.95-12.364c1.61-2.244,2.902-3.34,3.878-3.292c0.977,0.097,1.341,1.245,1.097,3.439
				c-0.39,4.586-0.463,7.683-0.22,9.292l4.829-3.22C236.695,10.999,238.866,9.852,240.866,9.072"/>
			<path fill="#C94772" d="M250.376,25.973c0,6.73,1.706,12.437,5.123,17.12c-9.072,5.023-17.51,8.756-25.316,11.192l-14.56-26.558
				c7.171-13.412,10.781-19.485,10.828-18.218l-0.071,4.39c0,2.146,0.147,3.56,0.438,4.244l0.658,1.463l1.827-1.389
				c1.173-1.023,3.561-2.488,7.172-4.39c3.707-1.95,5.511-2.634,5.414-2.049l-0.806,4.682l-0.587,5.56
				c0,2.83,0.807,3.317,2.418,1.464c0.924-1.074,2.68-2.684,5.265-4.83c2.586-2.147,3.73-2.951,3.438-2.414
				c-0.293,0.586-0.56,1.853-0.804,3.804C250.523,22.145,250.376,24.119,250.376,25.973"/>
			<path fill="#0D131A" d="M215.479,26.558c1.122-0.39,1.927-0.219,2.416,0.512l3.952,5.413c2.436,4.341,3.657,8.877,3.657,13.609
				c0,4-0.831,7.877-2.487,11.633c-1.17,2.684-2.536,7.512-4.097,14.486l-4.465,21.583c-3.658,18.827-6.535,32.046-8.633,39.653
				c-3.463,12.585-6.926,19.778-10.388,21.583l-3.877,0.074l-3.513-1.61c-8.536-3.852-14.56-7.658-18.071-11.412
				c-5.805-6.39-9.268-15.779-10.388-28.168c-1.123-12.535,6.729-30.264,23.557-53.188c6.341-8.682,12.78-16.437,19.316-23.264
				C208.7,30.974,213.041,27.337,215.479,26.558"/>
			<path fill="#0D131A" d="M217.015,71.333l-4.535,22.095c-3.463,17.656-6.193,30.314-8.193,37.972
				c-3.463,12.974-6.73,20.241-9.803,21.801c-0.683,0.34-1.367,0.34-2.049,0l-3.583-1.61c-8.195-3.609-13.95-7.244-17.267-10.901
				c-5.56-6.097-8.876-15.095-9.949-26.996l-0.076-2.049c0-9.999,5.514-23.435,16.537-40.312
				c9.023-13.754,18.608-25.583,28.753-35.482c2.634-2.586,4.878-4.537,6.73-5.854l2.782-1.61l0.072,0.073l3.66,4.975
				c2.29,3.95,3.437,8.121,3.437,12.51c0,3.61-0.807,7.268-2.416,10.976C219.893,59.651,218.529,64.456,217.015,71.333"/>
			<path fill="#0D131A" d="M276.934,62.699c21.706,30.778,20.097,59.482-4.828,86.113c-6.585,7.071-14.853,12.097-24.804,15.071
				c-8.194,2.488-16.559,3.391-25.094,2.708c-7.608-0.634-15.438-2.537-23.485-5.707c-6.78-2.634-11.023-4.901-12.731-6.803
				c-13.267-5.56-23.899-13.534-31.897-23.925c-6.828-8.875-10.756-17.973-11.779-27.29c-1.661-14.681,4.731-29.705,19.167-45.067
				c7.999-8.633,16.925-15.999,26.778-22.095c4.829-2.975,8.56-6.241,11.191-9.803c2.293-3.169,3.44-6.121,3.44-8.852l-0.146-4.024
				c-0.196-0.928-0.635-1.855-1.318-2.781c-0.78-1.073-0.926-1.779-0.438-2.121c0.535-0.341,1.635-0.123,3.292,0.658
				c2.438,1.122,4.414,2.778,5.926,4.974l3.073,5.56l1.169-4.463c0.684-1.95,1.462-2.462,2.341-1.535
				c1.56,1.658,3.267,7.999,5.121,19.021l1.098-4.902c0.244-0.683,1.194,0.268,2.854,2.853c2.973,4.73,4.974,8.268,5.997,10.608
				c1.316-3.902,3.416-8.146,6.294-12.729c1.17-1.854,2.119-2.829,2.851-2.927c0.686-0.049,0.976,0.755,0.879,2.415
				c-0.1,2.487,0.39,5.511,1.462,9.071c0.779-2.097,2.096-4.438,3.95-7.022c1.755-2.438,3.487-4.415,5.197-5.928
				c1.704-1.512,3.315-2.342,4.829-2.486c1.508-0.196,1.949,0.389,1.317,1.755l-1.758,4.244c-0.536,1.804-0.877,3.975-1.022,6.511
				c1.657-2.292,3.073-3.974,4.244-5.048c0.83-0.78,2.219-1.83,4.168-3.144c4.439-3.027,6-2.953,4.685,0.218
				c-3.026,6.926-4.22,12.194-3.583,15.803C266.203,45.97,270.057,52.994,276.934,62.699"/>
			<path fill="#E85382" d="M207.87,50.628c-9.805,9.072-16.461,15.339-19.974,18.801c-14.485,14.194-21.583,29.508-21.289,45.947
				c0.146,8.583,1.902,16.071,5.267,22.46c1.51,2.733,3.901,5.928,7.169,9.584c-21.803-14.291-32.778-30.118-32.923-47.481v-0.293
				c0-12.876,5.975-26.118,17.925-39.727c8.486-9.658,17.608-17.365,27.363-23.121c8.583-5.072,13.413-10.875,14.487-17.411
				l0.145-5.049c0-1.218,0.195-1.61,0.587-1.171c1.903,2.147,3.462,4.269,4.679,6.367c0.491,0.781,1.023,2.195,1.61,4.242
				c0.342,1.22,0.633,1.489,0.878,0.807l0.878-4.537c0.391-1.951,0.782-2.731,1.17-2.34c1.123,1.121,2.415,4.974,3.877,11.559
				l0.221,2.269C219.942,36.068,215.918,42.435,207.87,50.628"/>
			<path fill="#C94772" d="M208.821,60.067c-11.511,12.194-18.656,20.265-21.438,24.217c-8.193,11.607-12.289,23.266-12.289,34.972
				c0,7.071,2.634,16.704,7.901,28.897c-3.416-2.487-6.83-7.78-10.244-15.875c-1.949-4.634-2.828-9.658-2.633-15.073
				c0.34-8.29,2.145-16.217,5.415-23.778c3.022-7.022,7.145-13.414,12.363-19.169c3.365-3.656,9.658-9.803,18.876-18.436
				c7.901-8.096,12.705-15.146,14.412-21.143c0.439,1.901,0.242,4.268-0.586,7.096C218.941,47.385,215.016,53.481,208.821,60.067"/>
			<path fill="#E85382" d="M269.764,147.204c-6.243,6.632-14.193,11.144-23.851,13.534c-7.316,1.853-15.364,2.415-24.142,1.683
				c-8.193-0.683-16.119-2.293-23.777-4.83c-6.195-2.097-9.707-3.732-10.535-4.902l0.219,0.074l-1.392-2.562
				c-5.315-9.802-7.974-19.534-7.974-29.192c0-11.609,3.829-23.314,11.486-35.117c4.293-6.634,11.12-14.78,20.485-24.438
				c2.536-2.682,5.632-7.022,9.291-13.023c4.343-7.267,6.073-12.047,5.195-14.34c0.829,0.83,1.854,2.319,3.073,4.465
				c1.365,2.391,2.585,4.195,3.658,5.413c1.415,1.611,2.269,2.171,2.56,1.683l0.221-3.146c0.049-1.316,0.707-3.169,1.976-5.56
				c1.072-2.194,2.365-4.34,3.877-6.438c0.438,4.294,1.291,7.584,2.561,9.879l1.243,1.536l0.658-2.049
				c0.731-1.902,1.828-4.146,3.292-6.731c2.144-3.658,4.122-6.268,5.927-7.828l1.902-1.317c-0.586,1.367-1.048,3.268-1.391,5.707
				c-0.39,2.292-0.585,4.464-0.585,6.511c0.048,1.804,0.245,2.659,0.585,2.56l1.174-1.828c0.486-0.976,1.973-2.536,4.463-4.683
				c2.487-2.145,3.608-2.803,3.363-1.974c-0.924,3.708-1.389,6.486-1.389,8.34c0,2.975,0.878,6.293,2.635,9.951
				c1.805,3.659,4.999,8.707,9.585,15.144c3.998,5.609,7.12,11.804,9.365,18.583c2.338,7.121,3.511,14.34,3.511,21.657
				c0,7.705-1.341,15.095-4.025,22.167C280.08,133.838,275.668,140.862,269.764,147.204"/>
			<path fill="#C94772" d="M179.044,147.421c-8.68-5.754-15.632-11.706-20.852-17.852c2.488,0.878,6.268,1.854,11.342,2.926
				c1.316,3.61,3.047,6.901,5.195,9.879L179.044,147.421"/>
			<path fill="#C94772" d="M285.42,89.55c1.072,4.926,1.61,9.732,1.61,14.414c0,7.706-1.341,15.095-4.025,22.167
				c-2.926,7.708-7.34,14.731-13.243,21.071c-6.243,6.634-14.192,11.144-23.851,13.534c-7.315,1.854-15.363,2.415-24.143,1.684
				c-8.192-0.683-16.12-2.292-23.776-4.83c-6.195-2.097-9.707-3.732-10.535-4.903l0.219,0.074l-1.392-2.562
				c-2.78-5.168-4.805-10.169-6.072-14.998c22.193,6.145,43.604,5.195,64.236-2.854C266.449,123.717,280.104,109.449,285.42,89.55"
				/>
			<path fill="#5DC1CF" d="M341.828,192.123c1.124,0.782,1.071,6.17-0.146,16.171c-1.317,10.68-3.487,21.826-6.511,33.434
				c1.072,5.366,0.975,12.804-0.293,22.314c-1.317,9.657-3.364,17.779-6.145,24.364c-2.635,6.292-6.587,11.925-11.852,16.901
				c-4.341,4.146-11.268,9.313-20.778,15.509c-9.705,6.291-23.144,9.684-40.312,10.17c-19.266,0.535-36.41-3.245-51.432-11.341
				c-19.752-10.633-31.653-24.582-35.703-41.851c-2.292-3.12-3.122-6.365-2.487-9.73c0.488-2.437,1.708-4.754,3.658-6.949
				c-0.731-3.66-0.121-9.195,1.828-16.608l3.073-10.021l-1.829-3.295c-1.22-2.535-1.708-4.632-1.462-6.291
				c-1.073-2.682-2.171-8.29-3.292-16.826c-1.218-9.221-1.365-14.854-0.439-16.903c2.146-1.609,8.268-2.341,18.364-2.194
				l18.291,1.318c1.367-1.17,5.096-3.024,11.193-5.562c7.219-3.024,13.074-4.805,17.561-5.339
				c10.681-1.269,20.361-0.756,29.043,1.535c8.095,2.195,15.582,6.024,22.461,11.487c11.559-4.391,24.237-5.928,38.041-4.61
				C332.854,188.784,339.245,190.222,341.828,192.123"/>
			<path fill="#50A8B4" d="M215.55,184.732c7.22-3.023,13.074-4.803,17.559-5.339c17.121-2,31.753,0.608,43.898,7.828
				c-6.831,4.292-13.415,9.486-19.755,15.584c-4.146,3.951-9.827,10.021-17.045,18.216c-15.122-19.021-31.143-25.46-48.068-19.314
				c-0.196-3.218-1.316-6.073-3.366-8.561c-2.047-2.487-4.39-3.852-7.024-4.097l13.683,0.366l8.926,0.877
				C205.723,189.124,209.456,187.271,215.55,184.732"/>
			<path fill="#0D131A" d="M172.459,281.822c0-0.392,1.854-0.392,5.561,0c3.804,0.39,6.364,1.047,7.682,1.973l-0.877,4.831
				l-1.464,4.534c-0.632,1.707-1.316,2.61-2.049,2.706c-1.219,0.148-2.95-1.486-5.195-4.901
				C173.874,287.407,172.656,284.357,172.459,281.822"/>
			<path fill="#FFFFFF" d="M184.093,284.603l-1.316,3.439c-0.977,2.876-1.684,4.341-2.122,4.389c-0.34,0-0.902-0.462-1.684-1.388
				l-2.779-3.878c-1.463-2.438-2.194-4.195-2.194-5.271v-0.219l4.168,0.44C180.458,282.799,182.434,283.626,184.093,284.603"/>
			<path fill="#50A8B4" d="M341.828,192.123c1.124,0.782,1.071,6.17-0.146,16.171c-1.317,10.68-3.487,21.826-6.511,33.434
				c1.072,5.366,0.975,12.804-0.293,22.314c-1.317,9.657-3.364,17.779-6.145,24.364c-2.78,6.583-7.68,13.338-14.704,20.266
				c-6.928,6.827-12.902,10.876-17.926,12.145c5.804-3.022,10.925-7.684,15.363-13.974c4.732-6.635,8.099-14.245,10.097-22.827
				c4.781-20.438,1.196-41.559-10.753-63.359c-3.269-6.048-4.902-9.534-4.902-10.463c0-0.536,1.367-1.754,4.098-3.66
				c7.122-5.022,14.413-8.947,21.878-11.779C337.829,192.466,341.146,191.587,341.828,192.123"/>
			<path fill="#0D131A" d="M299.25,300.041l-2.488,2.779c-0.926,1.022-1.729,1.414-2.414,1.171
				c-0.537-0.195-1.222-0.928-2.047-2.193l-4.536-7.537l0.876-1.174l16.17-1.315L299.25,300.041"/>
			<path fill="#FFFFFF" d="M290.03,294.332c5.219-1.366,9.122-1.926,11.707-1.685c-4.049,6.146-6.317,9.122-6.806,8.927l-2.195-3
				L290.03,294.332"/>
			<path fill="#0D131A" d="M344.022,189.636c1.32,0.975,1.438,6.928,0.368,17.852c-1.317,12.681-4.05,24.606-8.195,35.775
				c2.633,10.828,2.291,22.194-1.023,34.095c-3.315,11.951-8.755,21.217-16.316,27.801c5.168-9.706,8.903-17.78,11.196-24.217
				c2.632-7.461,4.07-14.632,4.312-21.511c0.099-3.608-0.218-7.729-0.949-12.363c-0.635-3.854-1.221-6.415-1.756-7.682
				c-0.391-0.975-0.465-1.609-0.22-1.904c0.244-0.29,0.683-0.17,1.316,0.365l1.977,2.052c3.17-12.196,5.292-23.121,6.364-32.778
				c0.927-8.098,0.951-12.854,0.072-14.268c-2.878-1.755-9.096-3.098-18.656-4.025c-13.608-1.316-26.116,0.194-37.531,4.537
				l-0.584,0.145l-0.439-0.292c-6.879-5.462-14.485-9.046-22.828-10.756c-7.899-1.609-17.119-1.657-27.653-0.146
				c-6.535,0.975-13.559,3.293-21.071,6.952c-5.121,2.487-9.585,5.122-13.39,7.9c-2.244,1.609-3.561,2.269-3.95,1.975
				c-0.39-0.194-0.025-0.926,1.098-2.194l3.804-3.658l2.342-2.049l-17.267-1.316c-9.17-0.195-14.803,0.391-16.901,1.755
				c-0.876,0.83-1.049,3.829-0.513,8.998c0.634,6.048,2.122,13.022,4.463,20.925l0.73-0.657
				c-2.291-13.609-3.339-22.021-3.146-25.241c0.05-0.83,0.439-1.342,1.172-1.537c1.414-0.049,3.73,2.708,6.951,8.266
				c3.121,5.415,4.876,9.538,5.267,12.368l0.806-0.439l2.926-0.44c1.416,0,2.097,0.318,2.048,0.951
				c-0.098,0.634-0.855,1.122-2.268,1.463c-1.513,0.391-3.803,1.464-6.877,3.219c-3.512,2.001-5.999,3.853-7.463,5.561
				c-0.925,1.123-1,3.489-0.219,7.097l1.463,5.047c-1.708,3.659-2.78,8.853-3.218,15.585c-0.245,3.316-0.316,6.291-0.219,8.925
				c-2.828,3.512-3.683,7.27-2.561,11.27c1.122,3.998,3.634,6.29,7.536,6.874c3.072,0.44,7.878,1.952,14.413,4.535
				c8.292,3.221,14.876,6.685,19.753,10.389l0.221,0.146l0.074,0.148c1.607,2.876,4.119,5.609,7.534,8.194
				c3.561,2.682,6.462,3.901,8.707,3.658c2.635-0.245,8.314-2.341,17.045-6.292h0.074c13.512-3.563,30.043-6.488,49.604-8.778
				l11.559-1.466c1.656-0.146,3.294-0.755,4.902-1.826l3.147-2.488c0.876-0.684,1.487-0.853,1.826-0.512
				c0.39,0.341,0.269,0.998-0.364,1.974l-2.341,2.707c-1.221,0.976-3.072,1.804-5.562,2.487l-3.659,0.513l-6.729,0.731
				c-22.438,2.636-39.217,5.416-50.335,8.341c-9.708,4.975-15.976,7.609-18.802,7.899c-2.683,0.292-6.051-1.266-10.097-4.681
				c-3.61-2.975-6.318-6.048-8.122-9.217c-4.681-3.463-10.853-6.585-18.51-9.365c-5.609-2.048-10.047-3.317-13.316-3.804
				c-2.243-0.391-4.024-1.001-5.341-1.829c4.681,15.218,16.048,27.681,34.094,37.385c13.607,7.317,28.067,10.903,43.382,10.757
				c14.341-0.148,30.34-3.588,47.996-10.319c2.827-1.071,4.512-1.46,5.048-1.17c0.539,0.293-0.952,1.27-4.464,2.927
				c-16.39,7.707-32.484,11.607-48.287,11.705c-15.801,0.099-30.656-3.584-44.554-11.046c-19.754-10.636-31.703-24.682-35.85-42.145
				c-2.926-1.559-4.389-4.365-4.389-8.413c-0.049-3.901,1.269-7.34,3.95-10.317c-0.145-9.07,1.073-16.824,3.659-23.264
				c-1.316-2.096-2.073-4.513-2.267-7.241c-0.244-2.684,0.145-4.755,1.17-6.22c-3.121-8.439-4.95-16.462-5.489-24.072
				c-0.438-6.584,0.074-10.364,1.538-11.341c2.877-1.803,9.365-2.341,19.461-1.608l18.436,2.195
				c2.195-1.512,6.195-3.438,11.998-5.78c6.925-2.829,12.56-4.512,16.901-5.049c10.582-1.268,20.046-0.926,28.386,1.025
				c8.535,1.999,16.363,5.778,23.483,11.34c11.609-4.292,24.487-5.975,38.631-5.048
				C334.464,186.418,341.293,187.734,344.022,189.636"/>
			<path fill="#431E37" d="M171.217,196.367v-0.365c1.169,1.172,2.926,4.122,5.266,8.853c2.487,4.975,4,8.828,4.537,11.559
				c-2.099,0.635-4.318,1.926-6.658,3.877l-1.902-11.777C171.631,202.562,171.217,198.514,171.217,196.367"/>
			<path fill="#0D131A" d="M179.41,232.363c1.317,0.487,2.294,0.973,2.928,1.463c3.755,2.927,8.192,9.244,13.314,18.949
				c4.536,8.779,7.732,16.34,9.585,22.682l0.951,3.805c0.048,0.924-0.17,1.366-0.657,1.317l-1.172-0.805l-0.365-0.733
				c-3.463,0.878-8.755-0.536-15.876-4.243c-5.754-2.928-10.535-6.024-14.339-9.29c-0.878-0.294-1.415-0.808-1.61-1.54
				c-0.098-0.44,0.026-0.827,0.366-1.17l0.586-0.367c-0.975-5.558-0.805-11.192,0.513-16.901c1.269-5.217,2.901-8.56,4.901-10.022
				l-1.903-1.974c-0.34-0.684-0.34-1.171,0-1.463L179.41,232.363"/>
			<path fill="#FFFFFF" d="M174.728,257.459c0-4.78,0.757-9.487,2.268-14.121c1.317-3.999,2.487-6.268,3.512-6.805
				c2.34,0.732,6.073,5.926,11.193,15.584c5.024,9.413,8.608,17.78,10.756,25.097c-3.122,0.242-7.732-1.221-13.829-4.39
				c-5.171-2.732-9.609-5.609-13.315-8.635C174.923,261.749,174.728,259.508,174.728,257.459"/>
			<path fill="#0D131A" d="M187.383,243.266l1.317-0.075c3.025,4.782,6.098,10.587,9.219,17.415
				c3.12,6.877,5.316,12.631,6.584,17.265l0.22,0.732l-6.73-0.732c-5.073-0.877-9.024-2.34-11.853-4.389l-0.218-0.072l-0.148-0.292
				c-2.243-6.145-3.39-11.269-3.437-15.364C182.238,252.286,183.921,247.461,187.383,243.266"/>
			<path fill="#91308C" d="M184.825,259.36c0-5.121,1.098-9.828,3.292-14.118c2.828,4.582,5.657,9.973,8.487,16.17
				c2.83,6.241,4.878,11.58,6.145,16.021c-3.464,0.39-8.656-1.319-15.584-5.121C185.605,268.117,184.825,263.8,184.825,259.36"/>
			<path fill="#0D131A" d="M308.247,233.535c1.416-0.197,2.098,0.098,2.049,0.877c-0.049,0.732-0.439,1.292-1.174,1.684
				l-2.924,1.242c3.023,2.245,4.803,7.343,5.342,15.293c0.438,7.217-0.147,12.755-1.758,16.605c2.049,0.1,2.976,0.488,2.779,1.172
				l-1.241,1.099l-3.879,0.951l-44.483,9.292l-1.684,0.658c-1.021,0.097-1.366-0.635-1.021-2.193
				c1.269-6.146,3.608-11.878,7.023-17.195c3.266-5.218,7.926-10.608,13.975-16.17C289.444,239.389,298.443,234.95,308.247,233.535"
				/>
			<path fill="#FFFFFF" d="M282.349,251.021c3.999-3.66,8.023-6.729,12.07-9.218c3.708-2.244,6.829-3.635,9.365-4.172
				c1.464,1.758,2.61,5,3.44,9.729c0.78,4.245,1.17,8.71,1.17,13.391c0,4.197-0.317,7.244-0.952,9.147
				c-5.167,0.73-17.998,3.512-38.481,8.339l-5.268,1.243c0.486-3.949,2.366-8.413,5.633-13.39
				C272.593,261.066,276.934,256.045,282.349,251.021"/>
			<path fill="#0D131A" d="M291.712,241.289l0.878-0.582l0.293,1.021c4.584,9.951,5.463,20.562,2.633,31.827l-0.145,0.51
				l-0.439,0.076l-25.535,5.853l-7.681,1.755v-0.951c0.244-6.195,3.779-13.438,10.607-21.729
				C278.129,252.046,284.592,246.118,291.712,241.289"/>
			<path fill="#91308C" d="M291.712,243.189c2.195,8.294,3.294,15.316,3.294,21.073c0,3.073-0.317,5.901-0.953,8.486l-25.018,5.781
				l-5.635,1.316c0.535-5.803,3.948-12.486,10.241-20.049C279.008,253.361,285.03,247.826,291.712,243.189"/>
			<path fill="#0D131A" d="M338.684,196.586l-1.1,1.098l-0.587,0.368c1.271,1.853,1.051,7.535-0.655,17.047
				c-1.463,8.044-2.729,13.483-3.805,16.315l-1.17,2.56l-0.805-1.244c-0.489-1.219-2.61-3.878-6.366-7.973
				c-4.292-4.586-8.172-8.047-11.633-10.387l-1.609,1.095c-0.632,0.441-1.049,0.441-1.244,0c-0.192-0.486,0.148-1.242,1.026-2.266
				c1.318-1.562,4.926-4.587,10.826-9.074c6.537-5.024,10.876-7.756,13.022-8.195l4.171-0.439
				C339.098,195.635,339.072,196.001,338.684,196.586"/>
			<path fill="#431E37" d="M333.708,215.39c-0.878,5.999-1.806,10.976-2.78,14.925c-1.609-2.681-3.734-5.536-6.367-8.561
				c-3.169-3.704-6.314-6.656-9.438-8.852c3.124-3.072,6.344-5.853,9.658-8.34c4.146-3.171,7.537-5.146,10.169-5.927l0.218,2.048
				C335.172,203.952,334.685,208.856,333.708,215.39"/>
			<path fill="#0D131A" d="M204.211,241.143c-0.779-1.657-0.976-2.682-0.585-3.071c0.392-0.392,1.097,0.315,2.12,2.119
				c1.464,2.438,2.756,5.098,3.879,7.976c1.463,3.854,2.293,7.364,2.486,10.535c0.195,3.17,0.074,4.268-0.365,3.29l-1.536-4.974
				l-2.634-7.828L204.211,241.143"/>
			<path fill="#0D131A" d="M269.839,235.804c1.021-0.733,1.657-0.926,1.901-0.588c0.244,0.391-0.024,0.928-0.805,1.611
				c-2.098,1.902-4.072,4.926-5.926,9.07c-2.001,4.486-3.563,9.658-4.684,15.512c-0.341,1.951-0.731,3.073-1.169,3.363
				c-0.438,0.342-0.61-0.654-0.514-2.998C259.229,249.191,262.959,240.534,269.839,235.804"/>
			<path fill="#0D131A" d="M212.26,291.625l1.608,0.075c0.877,0.584,1.586,1.34,2.122,2.267l1.172,2.781
				c0.291,0.878,0.291,1.316,0,1.316l-1.317-0.876l-2.999-3.583C212.26,292.821,212.064,292.161,212.26,291.625"/>
			<path fill="#0D131A" d="M230.257,298.941c0.439-1.511,2.17-2.95,5.196-4.314c0.877-0.439,1.461-0.366,1.754,0.217
				c0.34,0.588,0.124,1.148-0.657,1.685l-4.975,3.22l-1.757,0.732L230.257,298.941"/>
			<path fill="#0D131A" d="M192.873,252.996l2.635,5.269l2.487,5.413c-0.196,2.242-0.585,4.099-1.172,5.559
				c-0.632,1.513-1.341,2.271-2.121,2.271c-0.926,0-1.732-0.974-2.415-2.927c-0.633-2.001-0.952-4.391-0.952-7.168
				C191.335,257.753,191.847,254.945,192.873,252.996"/>
			<path fill="#0D131A" d="M278.104,267.483c-0.388,2.536-1.122,4.656-2.194,6.363c-1.021,1.659-2.072,2.392-3.145,2.194
				c-1.024-0.145-1.78-1.169-2.271-3.073c-0.438-1.949-0.461-4.194-0.071-6.729c0.393-2.536,1.121-4.632,2.193-6.291
				c1.024-1.706,2.073-2.464,3.146-2.269c1.072,0.195,1.829,1.242,2.271,3.145C278.47,262.727,278.494,264.946,278.104,267.483"/>
			<path fill="#0D131A" d="M276.13,141.716c7.169-3.465,17.486-7.658,30.948-12.584c13.852-5.122,24.217-8.439,31.094-9.949
				l1.974,0.146c0.097,0.39-0.463,0.731-1.684,1.025c-6.192,1.56-16.753,5.244-31.677,11.047
				c-14.146,5.511-25.143,10.119-32.997,13.827L276.13,141.716"/>
			<path fill="#0D131A" d="M368.314,116.84c-11.021,2.586-26.803,7.535-47.338,14.853c-23.312,8.29-41.285,15.73-53.92,22.315
				l0.806-2.561c12.242-6.438,29.485-13.583,51.729-21.437c21.165-7.413,37.31-12.195,48.432-14.339
				c1.222-0.196,1.879-0.124,1.976,0.22C370.096,116.279,369.535,116.598,368.314,116.84"/>
			<path fill="#0D131A" d="M317.832,126.059c0.731-4.83,1.928-9.342,3.583-13.535c0.244-0.732,0.515-1.049,0.807-0.951
				c0.34,0.098,0.39,0.512,0.146,1.244c-1.122,3.463-2.098,7.756-2.926,12.875L317.832,126.059"/>
			<path fill="#0D131A" d="M297.273,133.887c1.022-5.268,2.098-9.78,3.218-13.534c0.243-0.733,0.513-1.025,0.806-0.878
				c0.292,0.145,0.34,0.585,0.147,1.316c-0.879,3.268-1.639,7.316-2.271,12.145L297.273,133.887"/>
			<path fill="#0D131A" d="M322.881,124.009c0.34-2.584,0.805-4.877,1.391-6.876c0.145-0.585,0.389-0.831,0.729-0.731
				c0.293,0.099,0.392,0.439,0.293,1.025l-1.021,6.219L322.881,124.009"/>
			<path fill="#0D131A" d="M335.976,125.839l5.269,4.609c0.438,0.39,0.537,0.706,0.29,0.949l-1.021-0.22l-6.366-4.974
				L335.976,125.839"/>
			<path fill="#0D131A" d="M297.786,139.448l1.537-0.806c1.705,1.123,3.878,2.854,6.509,5.195l5.927,6
				c0.44,0.538,0.537,0.928,0.293,1.171c-0.293,0.243-0.657,0.098-1.099-0.439l-6.51-5.854L297.786,139.448"/>
			<path fill="#0D131A" d="M309.125,134.985l1.686-0.731c3.948,2.977,7.439,6.293,10.464,9.949c0.486,0.537,0.583,0.902,0.291,1.098
				c-0.291,0.195-0.684,0.024-1.171-0.512C316.88,141.179,313.125,137.91,309.125,134.985"/>
			<path fill="#0D131A" d="M172.167,144.936l3.072,1.901c-8.876,1.902-19.972,4.561-33.288,7.976
				c-15.755,4.096-26.437,7.242-32.045,9.438l-1.976,0.072c-0.146-0.34,0.367-0.755,1.537-1.242
				c6.195-2.537,16.534-5.877,31.021-10.023C153.461,149.397,164.021,146.691,172.167,144.936"/>
			<path fill="#0D131A" d="M83.494,178.588l-1.902,0.147c-0.146-0.341,0.341-0.756,1.464-1.245
				c9.561-4.242,22.849-8.851,39.873-13.828c16.875-4.975,31.97-8.707,45.287-11.194l4.097,1.389
				c-13.023,2.536-28.875,6.413-47.554,11.633C106.419,170.614,92.664,174.979,83.494,178.588"/>
			<path fill="#0D131A" d="M124.758,147.056c-0.634-0.438-0.854-0.78-0.659-1.024l1.244,0.218c3.61,2.39,7.171,5.389,10.682,8.999
				l-1.538,0.658C131.025,152.299,127.782,149.349,124.758,147.056"/>
			<path fill="#0D131A" d="M141.438,153.349l-1.389,0.512l-4.39-4.463c-0.584-0.537-0.779-0.927-0.584-1.17
				c0.194-0.245,0.609-0.122,1.245,0.364L141.438,153.349"/>
			<path fill="#0D131A" d="M95.933,173.249l1.388-0.512c-0.389,2.196-0.633,4.416-0.732,6.659c-0.047,0.731-0.244,1.122-0.586,1.17
				c-0.292,0-0.463-0.367-0.511-1.098C95.444,177.858,95.589,175.785,95.933,173.249"/>
			<path fill="#0D131A" d="M128.709,163.151c-0.148,2.537-0.219,5.415-0.219,8.634c0.047,3.902,0.194,6.683,0.439,8.34
				c0.098,0.683-0.025,1.049-0.366,1.098c-0.34,0.097-0.585-0.196-0.73-0.877c-0.39-2.098-0.683-4.903-0.878-8.414
				c-0.146-3.609-0.095-6.415,0.147-8.414L128.709,163.151"/>
			<path fill="#0D131A" d="M122.125,164.98c-0.683,5.123-0.926,10.048-0.731,14.78c0.05,0.731-0.097,1.147-0.439,1.243
				c-0.292,0.048-0.488-0.268-0.586-0.951c-0.537-4.584-0.512-9.412,0.073-14.486L122.125,164.98"/>
			<path fill="#008982" d="M231.794,199.88c2.926-2.83,11.632-2.611,26.118,0.657c14.584,3.268,22.022,6.902,22.313,10.902
				c0.244,3.561-4.535,9.853-14.34,18.876c-9.852,9.073-16.731,13.34-20.63,12.806c-3.757-0.537-7.585-7.268-11.489-20.193
				C229.916,210.05,229.257,202.367,231.794,199.88"/>
			<path fill="#00736D" d="M231.062,211.148c-0.928-6.097-0.684-9.855,0.733-11.269c1.413-1.366,4.901-1.903,10.46-1.608
				c5.171,0.243,10.854,1.121,17.047,2.633c-4.485,4.147-10.851,10.851-19.094,20.119
				C236.793,216.877,233.744,213.586,231.062,211.148"/>
			<path fill="#008982" d="M230.257,241.361c1.121,2.002,0.975,5.902-0.439,11.706c-1.367,5.611-2.707,8.462-4.025,8.562
				c-0.972,0.097-2.706-2.121-5.193-6.659c-2.536-4.682-3.563-7.854-3.072-9.51c0.487-1.659,2.633-2.952,6.438-3.878
				L230.257,241.361"/>
			<path fill="#008982" d="M145.683,266.459l-6.586-0.222c-0.83-0.486-2.097-2.049-3.804-4.683
				c-1.805-2.876-2.635-4.851-2.488-5.926c0.147-1.317,1.049-3.704,2.707-7.168c1.708-3.709,3.196-6.243,4.463-7.608
				c1.366-1.415,4.268-2.414,8.706-3.002c4.34-0.585,6.707-0.389,7.097,0.586c0.683,1.659,0.683,6.024,0,13.098
				c-0.633,7.314-1.537,11.533-2.708,12.654C151.95,265.311,149.487,266.066,145.683,266.459"/>
			<path fill="#008982" d="M133.464,230.681c-0.146,1.026-1.267,2.195-3.363,3.512c-2.002,1.221-3.392,1.779-4.171,1.686
				c-0.831-0.147-1.999-1.61-3.511-4.39c-1.562-2.929-1.951-4.733-1.171-5.415c0.928-0.829,3.219-0.585,6.877,0.733
				C131.879,228.172,133.659,229.464,133.464,230.681"/>
			<path fill="#008982" d="M85.982,291.919l0.072-7.316l-1.171-10.607c-0.44-4.341-0.683-8.146-0.731-11.416
				c3.95-1.12,6.511-1.606,7.682-1.462c0.781,0.097,2.56,2.609,5.34,7.536c2.78,4.974,4.171,8.242,4.171,9.805
				c0,1.607-1.049,4.388-3.146,8.339c-2.098,3.902-3.634,6.05-4.609,6.44C92.419,293.773,89.884,293.332,85.982,291.919"/>
			<path fill="#008982" d="M218.697,335.89c0.975-0.197,4.438,2.145,10.387,7.021c5.951,4.832,9.099,7.879,9.438,9.147
				c0.341,1.266-0.172,3.779-1.538,7.533c-1.317,3.759-2.366,5.83-3.148,6.219c-0.729,0.296-2.557,0.296-5.485,0l-5.339-1.02
				c-0.733-0.392-2.001-1.856-3.805-4.392c-1.806-2.587-2.878-4.463-3.217-5.632c-0.392-1.27-0.221-4.66,0.512-10.17
				C217.185,338.938,217.917,336.034,218.697,335.89"/>
			<path fill="#008982" d="M214.747,369.618c0.831-0.294,2.756,0.242,5.781,1.607c3.073,1.366,4.708,2.535,4.901,3.512
				c0.195,0.973-0.586,2.562-2.342,4.756c-1.657,2.146-2.876,3.315-3.657,3.512l-3.438-0.438c-1.561-0.49-2.487-1.1-2.78-1.831
				c-0.441-1.17-0.441-3.267,0-6.292C213.65,371.422,214.163,369.811,214.747,369.618"/>
			<path fill="#008982" d="M309.857,346.205c-0.438,0.876-2.586,1.561-6.438,2.049c-3.852,0.487-5.901,0.269-6.146-0.655
				c-0.244-0.979,0.608-2.929,2.561-5.854c1.952-2.929,3.389-4.366,4.314-4.317c0.927,0.097,2.222,1.39,3.879,3.878
				C309.638,343.84,310.248,345.474,309.857,346.205"/>
			<path fill="#008982" d="M322.807,342.032l-0.219,0.589l-5.853-0.221c-0.876-0.876-1.438-3.366-1.683-7.463
				c-0.245-3.803-0.146-6.461,0.291-7.975l0.146-0.584c4.781-0.78,8.901-0.707,12.365,0.219
				C326.442,332.011,324.758,337.158,322.807,342.032"/>
			<path fill="#00736D" d="M330.342,316.353l-2.485,10.244c-3.465-0.928-7.585-1.001-12.365-0.219
				c0.587-1.658,1.513-3.562,2.78-5.706c1.414-2.391,2.488-3.733,3.22-4.023l3.804-0.441L330.342,316.353"/>
			<path fill="#0D131A" d="M257.4,202.147c-14.437-3.122-22.581-3.439-24.436-0.951c-1.754,2.438-0.954,9.512,2.414,21.217
				c3.365,11.852,6.656,18.241,9.877,19.169c3.316,1.021,9.703-3.173,19.165-12.586c8.977-8.875,13.662-14.607,14.048-17.191
				C278.959,208.488,271.936,205.27,257.4,202.147 M281.836,212.099c-0.438,3.512-5.535,9.999-15.29,19.461
				c-10.292,9.998-17.608,14.338-21.947,13.023c-4.731-1.368-8.927-8.705-12.584-22.022c-3.563-12.975-4.119-20.973-1.684-23.998
				c1.315-1.608,4.83-2.341,10.535-2.196c5.316,0.148,11.243,0.977,17.78,2.488C274.788,202.66,282.519,207.077,281.836,212.099"/>
			<path fill="#0D131A" d="M218.625,245.532c-0.243,1.173,0.683,3.901,2.781,8.196c2.098,4.291,3.512,6.339,4.244,6.145
				c0.927-0.244,1.926-3.023,2.999-8.34c1.072-5.318,1.193-8.392,0.365-9.222c-0.682-0.68-2.561-0.535-5.631,0.44
				C220.357,243.776,218.771,244.701,218.625,245.532 M230.915,240.12c1.66,1.513,1.829,5.513,0.513,11.997
				c-1.317,6.438-3.023,10.024-5.119,10.755c-1.855,0.683-4.245-1.707-7.17-7.171c-2.83-5.267-4.049-8.853-3.659-10.754
				c0.341-1.609,2.657-3.122,6.95-4.534L230.915,240.12"/>
			<path fill="#0D131A" d="M129.88,233.24c1.853-1.119,2.659-1.949,2.415-2.487c-0.34-0.877-1.926-1.853-4.754-2.924
				c-2.83-1.022-4.61-1.34-5.342-0.953c-0.585,0.292-0.267,1.609,0.952,3.952c1.219,2.291,2.196,3.557,2.927,3.804
				C126.807,234.825,128.075,234.363,129.88,233.24 M125.563,237.047c-1.269-0.391-2.708-2.193-4.318-5.414
				c-1.609-3.366-1.926-5.561-0.949-6.586c1.023-1.121,3.634-0.9,7.827,0.658c4.193,1.562,6.366,3.146,6.511,4.757
				c0.147,1.267-1.023,2.778-3.511,4.535C128.635,236.751,126.782,237.436,125.563,237.047"/>
			<path fill="#0D131A" d="M134.634,247.36c2.438-4.925,4-7.606,4.681-8.047c1.61-1.021,4.489-1.9,8.635-2.632
				c4.438-0.831,7.217-0.782,8.34,0.146c1.268,1.022,1.562,5.56,0.878,13.609c-0.632,7.805-1.536,12.559-2.707,14.266
				c-0.926,1.366-3.439,2.319-7.538,2.854c-3.511,0.439-6.096,0.464-7.754,0.072c-1.123-0.244-2.683-1.901-4.682-4.975
				c-2-3.023-3.097-5.314-3.292-6.877C131.098,255.045,132.245,252.238,134.634,247.36 M136.903,248.386
				c-1.953,4.196-2.902,6.585-2.854,7.171c0.049,1.171,0.804,2.975,2.268,5.416c1.511,2.484,2.729,3.898,3.658,4.241
				c0.977,0.341,3.098,0.317,6.366-0.071c3.463-0.439,5.488-1.099,6.073-1.973c0.928-1.37,1.683-5.565,2.269-12.587
				c0.537-7.022,0.463-10.805-0.22-11.339l-5.854-0.22c-3.317,0.487-6,1.341-8.048,2.561
				C140.073,241.924,138.854,244.191,136.903,248.386"/>
			<path fill="#0D131A" d="M87.883,262.947c-1.755,0.388-3.243,0.876-4.462,1.46l-0.147-2.925c1.318-0.536,2.951-1.022,4.903-1.463
				l4.243-0.512c1.317,0.29,3.439,3.315,6.366,9.071c2.878,5.561,4.244,8.974,4.096,10.24c-0.194,1.806-1.316,4.732-3.365,8.78
				c-2.341,4.536-4.292,6.902-5.854,7.098l-4.755-0.514c-2-0.487-3.489-1.023-4.465-1.607v-3.149
				c0.879,0.735,2.196,1.367,3.95,1.905l4.317,0.587c0.977-0.147,2.391-2.074,4.244-5.779c1.755-3.611,2.633-6.025,2.633-7.242
				c0-1.317-1.146-4.296-3.439-8.928c-2.342-4.632-3.926-7.097-4.754-7.392L87.883,262.947"/>
			<path fill="#0D131A" d="M219.136,337.426c-0.731,0.292-1.268,2.636-1.607,7.023c-0.293,3.562-0.392,6.976-0.293,10.241
				c0.049,0.587,0.951,2.098,2.708,4.536c1.754,2.341,2.902,3.683,3.438,4.021l5.048,1.172c2.88,0.393,4.559,0.417,5.048,0.075
				c0.729-0.537,1.633-2.438,2.708-5.706c1.072-3.415,1.364-5.609,0.877-6.586c-0.782-1.562-3.757-4.486-8.927-8.779
				C222.918,339.083,219.918,337.082,219.136,337.426 M215.185,343.863c0.586-5.607,1.489-8.657,2.708-9.146
				c1.51-0.584,5.292,1.561,11.339,6.438c5.757,4.684,9.144,8.024,10.169,10.023c0.733,1.512,0.44,4.243-0.877,8.196
				c-1.169,3.56-2.293,5.876-3.365,6.949c-0.731,0.779-2.831,1.021-6.293,0.731c-3.122-0.245-5.338-0.658-6.657-1.245
				c-0.684-0.242-2.097-1.949-4.242-5.119c-2.147-3.17-3.245-5.17-3.294-6.001C214.528,351.813,214.699,348.206,215.185,343.863"/>
			<path fill="#0D131A" d="M222.649,378.028c0.974-1.704,1.366-2.756,1.171-3.146c-0.34-0.634-1.658-1.487-3.949-2.558
				c-2.342-1.074-3.879-1.588-4.612-1.539c-0.39,0-0.73,1.173-1.022,3.513c-0.341,2.439-0.318,4.317,0.073,5.634
				c0.145,0.486,0.926,0.975,2.341,1.463l2.852,0.364C220.528,381.126,221.576,379.885,222.649,378.028 M226.601,374.299
				c-0.049,1.416-0.832,3.242-2.341,5.487c-1.416,2.098-2.634,3.464-3.659,4.098l-4.681-0.291c-2.342-0.735-3.61-1.539-3.806-2.416
				c-0.486-1.657-0.511-4.146-0.072-7.463c0.39-3.511,1.073-5.413,2.048-5.705c1.17-0.391,3.561,0.293,7.172,2.049
				C224.868,371.812,226.647,373.227,226.601,374.299"/>
			<path fill="#0D131A" d="M304.149,338.595c-0.486,0-1.608,1.291-3.364,3.879c-1.754,2.635-2.487,4.145-2.193,4.534l5.048-0.145
				c3.071-0.539,4.704-1.1,4.899-1.686c0.196-0.438-0.365-1.633-1.683-3.584C305.54,339.645,304.64,338.645,304.149,338.595
				 M304.37,336.181c1.172,0.197,2.731,1.757,4.683,4.686c1.901,2.924,2.658,4.826,2.269,5.704c-0.536,1.219-3,2.17-7.391,2.854
				c-4.438,0.681-7.121,0.512-8.046-0.512c-0.782-0.879,0.121-3.27,2.707-7.171C301.176,337.841,303.103,335.985,304.37,336.181"/>
			<path fill="#0D131A" d="M327.049,314.818l5.781,0.654l-0.878,3.003l-4.828-0.733c-2.291-0.145-4.001-0.145-5.122,0
				c-0.636,0.051-1.684,1.463-3.146,4.245c-1.365,2.684-2.192,4.705-2.486,6.071c-0.393,1.854-0.463,4.415-0.22,7.682
				c0.292,3.366,0.733,5.219,1.318,5.561l2.341,0.364l5.412-1.021l-1.387,3.145c-3.952,0.975-6.66,0.975-8.123,0
				c-1.122-0.732-1.829-3.463-2.122-8.193c-0.293-3.902-0.293-6.585,0-8.048c0.194-1.22,1.121-3.439,2.78-6.66
				c1.902-3.85,3.488-5.851,4.757-5.998C322.393,314.744,324.368,314.721,327.049,314.818"/>
			<path fill="#0D131A" d="M305.322,162.128l1.68,2.707l1.979,3.366c0.828,1.559,1.095,2.438,0.804,2.634l-2.272,0.072l-3.068-0.366
				l2.998,1.098c0.926,0.341,1.539,0.708,1.828,1.098c0.538,0.683,0.805,2.95,0.805,6.803c0.049,3.902-0.413,5.609-1.389,5.122
				l-9.145-3.438l-9.364-3.22c5.219,3.512,9.487,6.659,12.803,9.438l2.269,1.975c0.683,0.733,0.854,1.391,0.515,1.975
				c-6.878,12.632-10.658,18.976-11.342,19.021c-0.39,0-1.879-1.486-4.463-4.464l-5.998-7.168l4.461,15.584
				c0.489,2.194,0.195,4.096-0.876,5.705c-0.635,0.976-3.34,3.463-8.12,7.463c-4.781,3.998-7.27,5.877-7.464,5.635l-0.657-7.172
				l-0.587-10.023l-2.853,5.78c-1.121,2.29-1.926,3.487-2.414,3.583c-0.635,0.147-4.096-1.316-10.39-4.388
				c-6.288-3.075-9.386-4.928-9.29-5.562c0.098-0.535,1.756-3.049,4.975-7.537l5.706-7.827c-0.829,0.877-2.681,3.146-5.562,6.805
				l-3.947,4.608l-6.366-3.659l-6-4.097c0-0.44,1.708-2.512,5.121-6.219c3.608-3.951,6.805-7.146,9.587-9.585
				c-2.002,0.928-5.1,3.366-9.293,7.315l-6.22,5.49c-0.586,0.049-3.414-2.074-8.486-6.366c-5.022-4.243-7.559-6.682-7.607-7.315
				c-0.049-0.585,1.633-2.878,5.045-6.877c3.269-3.901,6.393-7.317,9.364-10.243c-2.001,1.123-6.145,4.731-12.436,10.827
				c-5.853,5.707-8.974,8.561-9.363,8.561c-0.684,0-2.05-1.781-4.098-5.342c-2-3.511-2.951-5.657-2.854-6.438
				c0.098-0.78,1.341-2.707,3.733-5.779c3.071-3.999,6.535-7.415,10.388-10.243c11.9-8.829,24.485-10.243,37.751-4.244l1.319-0.512
				c17.804-7.95,33.996-6.195,48.578,5.268L305.322,162.128"/>
			<path fill="#00A63C" d="M298.151,179.395l-13.242-4.61c-3.073-0.83-4.609-1.098-4.609-0.806c0,0.245,1.366,1.073,4.099,2.488
				c2.587,1.364,6.023,3.657,10.316,6.876l9.145,7.683l-5.342,9.511c-2.536,4.487-3.999,6.755-4.388,6.804
				c-0.539,0-4.315-4.194-11.342-12.583l-2.048-2.049l0.513,2.926l3.146,11.707c1.853,6.44,2.706,9.83,2.56,10.169l-5.706,5.271
				l-7.756,6.582l-0.146-10.242c-0.05-5.463-0.221-8.437-0.515-8.927c-0.487-0.782-3.17,3.439-8.047,12.658
				c-7.949-4.731-13.168-7.608-15.657-8.634l6.51-9.072l6.44-8.998l2.049-2.635c0.243-0.682-0.78-0.415-3.071,0.806
				c-3.708,1.951-8.561,6.853-14.562,14.706l-9.144-5.781l7.974-8.706c4.242-4.389,7.097-6.976,8.559-7.757l2.928-1.609
				l-3.219-0.073c-5.365,0.34-12.022,4.706-19.973,13.096l-13.461-11.413c1.708-2.292,4.266-5.415,7.683-9.365
				c4.193-4.878,6.923-7.755,8.191-8.633l2.414-1.755l-2.707,0.147c-4.634,0.73-9.633,3.51-14.996,8.34
				c-2.88,2.635-6.295,6.22-10.244,10.754l-5.343-8.34c4.245-7.315,9.781-13.071,16.608-17.266
				c10.635-6.584,22.121-7.219,34.46-1.902l0.952-0.366c6.633-2.634,12.73-4.097,18.29-4.389c10.338-0.49,19.801,2.61,28.387,9.291
				l2.705,5.56l-2.049-0.219l-4.828-0.148l-3.732,0.439c0.146,0.245,1.243,0.683,3.293,1.316c2.341,0.731,5.219,2.025,8.632,3.877
				l0.292,4.025c0.098,2.487,0.025,4.049-0.219,4.683L298.151,179.395"/>
			<path fill="#0D131A" d="M144.657,104.036l0.146,1.83c-10.292-4.244-18.534-7.217-24.728-8.926
				c-1.219-0.341-1.755-0.708-1.609-1.097l1.975-0.148C127.074,97.549,135.147,100.33,144.657,104.036"/>
			<path fill="#0D131A" d="M145.608,109.523l0.366,2.047c-16.387-7.999-31.021-13.876-43.896-17.631
				c-1.169-0.34-1.683-0.707-1.535-1.098l1.901-0.074C115.368,96.427,129.758,102.014,145.608,109.523"/>
			<path fill="#0D131A" d="M136.465,101.622l-1.611-0.439c-0.487-5.072-1.22-9.388-2.195-12.949
				c-0.195-0.733-0.146-1.147,0.146-1.244c0.292-0.098,0.562,0.218,0.806,0.95C134.977,92.184,135.927,96.746,136.465,101.622"/>
			<path fill="#0D131A" d="M131.855,99.941l-1.464-0.44c0-2.536-0.269-4.951-0.804-7.241c-0.098-0.586,0-0.928,0.292-1.026
				l0.731,0.732C131.439,94.113,131.855,96.77,131.855,99.941"/>
			<path fill="#0D131A" d="M131.343,104.036l1.537,0.659l-5.854,5.122l-6.51,4.39c-0.633,0.292-1.025,0.292-1.172,0
				c-0.195-0.292,0.024-0.609,0.659-0.952C122.246,111.938,126.026,108.866,131.343,104.036"/>
			<path fill="#0D131A" d="M269.398,177.638c-2.535-8.976-6.927-15.267-13.167-18.875l1.753-1.245
				c6.539,3.95,11.024,10.707,13.463,20.266c2.244,8.73,2.415,18.095,0.513,28.095c-0.292,1.414-0.635,2.073-1.023,1.974
				c-0.393-0.096-0.487-0.853-0.293-2.267C272.203,195.343,271.788,186.028,269.398,177.638"/>
			<path fill="#0D131A" d="M274.593,194.028c1.27-17.22-3.512-29.875-14.339-37.974l2.049-0.657
				c11.169,8.292,15.682,21.241,13.535,38.849c-0.196,1.463-0.462,2.171-0.807,2.121C274.644,196.27,274.496,195.49,274.593,194.028
				"/>
			<path fill="#0D131A" d="M265.96,167.689l1.684,2.195c-3.709-0.195-7.243,0.341-10.607,1.61c-3.269,1.269-6.66,3.34-10.172,6.219
				c-0.924,0.731-1.51,0.974-1.753,0.731c-0.293-0.196-0.025-0.706,0.804-1.537C251.913,170.858,258.594,167.786,265.96,167.689"/>
		</g>
	</g>
</g>
</svg>
