<?xml version="1.0" encoding="utf-8"?>
<!-- Generator: Adobe Illustrator 16.0.0, SVG Export Plug-In . SVG Version: 6.00 Build 0)  -->
<!DOCTYPE svg PUBLIC "-//W3C//DTD SVG 1.1//EN" "http://www.w3.org/Graphics/SVG/1.1/DTD/svg11.dtd">
<svg version="1.1" id="Layer_1" xmlns="http://www.w3.org/2000/svg" xmlns:xlink="http://www.w3.org/1999/xlink" x="0px" y="0px"
	 width="456px" height="415px" viewBox="0 0 456 415" enable-background="new 0 0 456 415" xml:space="preserve">
<g>
	<g>
		<path fill="#EF8200" d="M336.744,250.818c-0.848,14.498-5.814,26.669-14.9,36.509c-8.003,8.66-18.336,14.758-31,18.289
			c-11.723,3.295-23.256,3.884-34.601,1.766c-11.44-2.119-19.96-6.498-25.562-13.134c0.988-2.307,2.048-5.627,3.178-9.957
			c1.646-6.31,2.329-11.275,2.048-14.9c5.506,5.979,12.335,10.568,20.477,13.769c8.615,3.392,17.301,4.639,26.057,3.743
			c21.42-2.165,37.567-15.582,48.441-40.251l1.271,2.12C333.378,250.138,334.908,250.818,336.744,250.818"/>
		<path fill="#DDD583" d="M230.683,294.46c12.474,11.202,27.704,15.934,45.687,14.192c16.429-1.602,31.469-8.002,45.122-19.206
			c-13.889,16.146-31.541,24.456-52.959,24.926c-8.522,0.141-16.548-1.059-24.083-3.602c-7.062-2.448-12.332-5.601-15.816-9.461
			L230.683,294.46"/>
		<path fill="#CF7100" d="M232.801,287.538c9.698,10.311,23.444,15.348,41.238,15.113c16.806-0.237,32.341-4.92,46.605-14.054
			c-11.771,11.77-26.553,18.407-44.348,19.914c-18.358,1.555-33.564-3.132-45.614-14.051L232.801,287.538"/>
		<path fill="#EF8200" d="M211.334,126.608c-0.566,3.014-2.166,8.708-4.803,17.089c-2.401,7.673-3.648,12.169-3.742,13.487
			c-0.141,1.836,0.33,6.238,1.413,13.205c0.848,5.696,1.671,10.567,2.473,14.617c4.048,21.231,8.591,35.896,13.627,43.992
			c5.979,9.558,10.026,16.97,12.145,22.242c3.908,9.746,4.896,18.618,2.969,26.624l-5.439,18.995
			c-1.411,4.613-2.165,8.426-2.261,11.439l4.096,8.755c2.448,6.216,3.084,10.333,1.907,12.358c-1.647,2.73-3.647,4.967-6.003,6.709
			c-2.87,2.119-6.047,3.343-9.531,3.672c-4.096,0.375-8.427-0.282-12.994-1.977c-4.942-1.789-7.438-3.932-7.484-6.427l0.211-11.157
			c-0.046-5.366-0.612-9.25-1.695-11.651l-4.449-4.659c-3.107-3.673-4.99-6.804-5.648-9.393l-10.663-1.907l-3.318,2.473
			c-2.308,1.93-3.578,3.625-3.814,5.084l2.332,4.661c1.459,3.389,1.882,5.648,1.271,6.778c-0.848,1.554-4.661,3.556-11.439,6.002
			c-7.344,2.637-13.605,3.954-18.784,3.954c-5.649,0-10.922-1.647-15.818-4.942c-4.943-3.296-5.791-5.837-2.542-7.627l8.826-4.941
			c-3.813-2.496-6.473-6.051-7.979-10.664c-2.919-9.18,1.482-18.973,13.206-29.376c-2.355-3.858-4.096-10.381-5.227-19.56
			c-1.365-10.546-1.152-20.36,0.636-29.445l-4.378,4.659c-2.212,2.166-3.883,3.083-5.014,2.755c-0.8-0.235-1.436-1.459-1.906-3.671
			l-0.424-3.319c-4.943,1.648-7.604,1.835-7.979,0.563c-0.423-1.459-0.448-2.872-0.07-4.236c0.659-2.354,2.472-5.108,5.437-8.262
			c1.836-4.142,4.401-8.779,7.697-13.911c6.59-10.169,13.582-17.63,20.972-22.385c-3.154-0.611-5.672-1.718-7.555-3.318
			c-3.342-2.777-7.485-7.696-12.429-14.758c-6.874-9.698-10.239-17.725-10.098-24.08c0.047-3.202,1.436-6.779,4.167-10.733
			c2.447-3.672,4.379-5.603,5.79-5.791l7.556-19.137c-0.329-0.612-0.541-1.341-0.634-2.188c-0.235-1.648,0.165-3.037,1.2-4.166
			c4.332-4.708,8.568-8.191,12.71-10.452c9.604-5.273,20.808-6.967,33.613-5.085c9.272,1.319,17.16,7.933,23.655,19.843
			C211.898,99.822,213.97,112.909,211.334,126.608"/>
		<path fill="#CF7100" d="M117.276,211.91c3.059-2.259,5.485-3.483,7.272-3.672c1.412-0.142,1.978,0.283,1.694,1.271
			c-0.329,0.942-1.389,1.767-3.178,2.472l-4.236,0.495L117.276,211.91"/>
		<path fill="#CF7100" d="M123.206,222.856c3.578-5.649,7.085-10.406,10.522-14.265l-0.495,5.86
			C127.68,220.196,124.338,222.996,123.206,222.856"/>
		<path fill="#CF7100" d="M157.314,165.8c6.685-1.177,11.958-2.684,15.817-4.52l4.025-0.071c0.235,1.083-0.471,2.707-2.119,4.873
			c-4.284,5.791-8.897,8.662-13.84,8.615c-3.767-0.047-6.639-0.752-8.616-2.119c-1.647-1.129-3.037-2.989-4.166-5.578L157.314,165.8
			"/>
		<path fill="#CF7100" d="M187.394,297.778c-5.414-9.038-6.683-17.865-3.812-26.481c-0.518,5.321,1.601,9.981,6.357,13.982
			c4.378,3.624,9.933,5.932,16.665,6.918c6.778,1.039,12.757,0.354,17.935-2.047c5.414-2.495,8.804-6.472,10.169-11.935l-1.482,6.71
			l-2.684,10.662c-0.66,1.884-1.271,4.31-1.836,7.275c-0.612,3.011-0.895,4.966-0.848,5.859c0.094,1.271,1.719,5.603,4.874,12.993
			c-2.825-4.989-8.992-7.273-18.501-6.85c-9.604,0.424-15.182,3.438-16.736,9.039c0-8.662-0.354-13.722-1.059-15.183
			C193.14,305.946,190.127,302.297,187.394,297.778"/>
		<path fill="#CF7100" d="M142.273,292.623c2.918-1.835,4.542-4.4,4.872-7.697c0.33-3.199-0.659-6.52-2.966-9.956
			c4.566,5.792,11.016,10.381,19.349,13.771c4.614,1.835,8.757,3.011,12.429,3.529c-1.79,0.706-3.601,2.261-5.437,4.661
			l-2.261,3.319c1.129,1.506,2,3.342,2.612,5.507c0.565,2.024,0.801,3.836,0.707,5.438c-0.094,1.413-1.883,2.848-5.367,4.308
			c-2.166,0.941-6.66,2.472-13.487,4.59l-9.04,1.481l-5.436-0.211c4.848-1.271,6.589-3.484,5.225-6.638
			c-1.224-2.92-4.873-6.236-10.945-9.956c-3.154-1.932-5.626-5.273-7.414-10.028l-1.765-6.566c2.447,3.437,5.579,5.508,9.391,6.216
			C136.224,295.048,139.402,294.46,142.273,292.623"/>
		<path fill="#FFF697" d="M163.67,177.38c4.002,5.226,7.744,11.628,11.228,19.208c9.557,20.525,13.675,41.451,12.357,62.776
			l-3.742,11.298c-1.883,8.851-1.247,16.501,1.907,22.951c-7.533-0.283-15.395-2.261-23.584-5.933
			c-16.335-7.391-26.01-19.606-29.023-36.647c-2.401-13.464-1.788-28.672,1.835-45.618c2.072-9.462,4.802-18.478,8.191-27.045
			c1.13-1.364,2.519-2.754,4.167-4.166c3.295-2.73,6.214-4.048,8.756-3.955C157.456,170.296,160.091,172.673,163.67,177.38"/>
		<path fill="#DDD583" d="M162.186,174.627l-6.286-0.353c-1.694-0.471-3.247-1.412-4.661-2.825l1.767-0.706l3.6,0.07
			C158.303,171.473,160.162,172.743,162.186,174.627"/>
		<path fill="#DDD583" d="M158.303,268.613c10.026,2.072,18.688,1.413,25.985-1.976c-0.988,0.706-1.624,4.001-1.906,9.885
			c-0.331,7.156,0.682,12.9,3.036,17.23c-7.438,0.472-15.63-1.602-24.573-6.215c-13.935-7.154-23.186-18.971-27.751-35.449
			C138.412,260.751,146.816,266.261,158.303,268.613"/>
		<path fill="#922F00" d="M124.691,131.057l3.318,2.896c2.73,2.118,5.438,3.719,8.12,4.801l3.461,0.848
			c-3.484,1.035-6.473,2.706-8.968,5.012C128.127,140.472,126.149,135.953,124.691,131.057"/>
		<path fill="#ED8599" d="M139.59,139.603l22.526,2.189c9.698,0.611,15.793,0.776,18.289,0.494
			c-1.695,3.53-6.637,7.25-14.829,11.157c-9.039,4.378-16.735,5.908-23.092,4.589c-0.988-0.235-2.541-1.482-4.659-3.742
			c-2.59-2.683-4.991-5.908-7.204-9.674C133.116,142.309,136.105,140.637,139.59,139.603"/>
		<path fill="#CE7486" d="M131.045,144.756c-0.33-0.518,1.013-1.554,4.024-3.107l4.589-2.118l26.129,2.189l14.617,0.565
			c-1.741,2.448-4.401,4.825-7.979,7.131c-1.742,1.177-3.343,2.096-4.803,2.754c-3.578-3.154-9.344-5.579-17.3-7.273
			C142.225,143.156,135.801,143.109,131.045,144.756"/>
		<path fill="#FFFFFF" d="M182.311,99.281c-2.306,4.944-3.791,10.027-4.449,15.253c-0.752,5.695-0.423,10.969,0.989,15.817
			c-2.636-0.142-4.074-0.471-4.308-0.988c-1.225-3.202-1.083-8.145,0.423-14.829C176.568,107.378,179.016,102.294,182.311,99.281"/>
		<path fill="#0D131A" d="M188.313,96.879c4.284,0.377,6.497,5.32,6.639,14.829c0.141,7.815-0.472,13.347-1.836,16.595
			c-0.377,0.895-2.213,1.531-5.508,1.907c-2.824,0.283-5.743,0.33-8.755,0.142c-1.413-4.848-1.742-10.122-0.989-15.817
			c0.659-5.226,2.143-10.31,4.449-15.254C184.195,97.491,186.195,96.692,188.313,96.879"/>
		<path fill="#0D131A" d="M127.161,108.39c0.894-3.86,2.024-7.626,3.389-11.298c2.73-7.391,5.297-10.593,7.698-9.604
			c2.211,0.941,2.094,6.308-0.354,16.1c-2.495,9.792-4.708,14.381-6.638,13.769c-1.366-0.47-2.449-2.094-3.249-4.872L127.161,108.39
			"/>
		<path fill="#FFFFFF" d="M121.795,128.657c0.517,1.176,2.542,2.801,6.072,4.873c-1.835,1.695-3.131,2.424-3.883,2.189
			C123.278,135.483,122.549,133.128,121.795,128.657"/>
		<path fill="#FFFFFF" d="M130.904,145.038l1.696-0.424l1.977,0.213c0.282,0.47,0.024,1.883-0.776,4.237L130.904,145.038"/>
		<path fill="#FFFFFF" d="M155.477,157.255l0.494-2.259c0.424-1.507,0.896-2.307,1.413-2.401c0.848-0.094,1.813,0.801,2.895,2.683
			L155.477,157.255"/>
		<path fill="#FFFFFF" d="M157.103,141.226l8.614,0.635c-2.542,3.06-4.307,4.59-5.296,4.59
			C159.385,146.451,158.28,144.71,157.103,141.226"/>
		<path fill="#FFFFFF" d="M136.553,317.761c0.565-0.8,1.577-1.622,3.037-2.471l1.978-1.059c1.553,0.281,2.8,1.459,3.743,3.529
			l0.917,3.109c-1.508,1.41-4.308,2.447-8.403,3.106l-6.356,0.212c-0.283-0.282-0.022-0.871,0.778-1.766l1.2-1.341l-7.485,1.059
			l-4.166-0.423c-0.282-0.284,0.071-0.966,1.058-2.049l1.554-1.483l-5.579,0.494c-3.813,0.143-5.813-0.211-6.001-1.059
			c-0.236-0.8,1.34-2.471,4.731-5.012c3.483-2.591,5.767-3.509,6.849-2.756c1.176,0.754,2.095,2.472,2.754,5.154l1.554-1.553
			c1.223-1.035,2.424-1.506,3.601-1.414c1.177,0.095,2.237,1.086,3.177,2.968L136.553,317.761"/>
		<path fill="#EFE908" d="M320.361,186.207l0.777,2.966c0.141,1.412-0.021,2.66-0.493,3.742c-0.33,0.847-0.377,1.788-0.143,2.824
			c0.235,1.13,0.754,2.166,1.554,3.107l0.564-2.331l4.59,4.59l-0.07,3.884l1.342,2.4c0.517,0.896,0.824,2.426,0.918,4.591
			l3.883,2.399l-2.683,4.521c-0.519,0.846-0.802,2.212-0.848,4.095c-0.047,0.942-0.023,1.788,0.07,2.544l6.286-3.814l0.141,1.411
			v2.19c-0.518,2.824-0.424,4.637,0.281,5.438c1.602,1.882,2.566,3.39,2.896,4.52c0.425,1.457,0.165,3.152-0.776,5.083
			c-0.988,2.023-1.506,4.145-1.553,6.354c0,1.933,0.306,3.202,0.919,3.815l-3.179-0.212c-1.224-0.564-2.474-1.719-3.742-3.46
			c-1.131-1.647-3.155-2.848-6.073-3.603l-5.507-0.988c-1.177-0.234-2.473-1.366-3.885-3.39c-1.553-2.214-2.165-4.26-1.835-6.144
			c0.235-1.46,0.963-3.414,2.188-5.86c1.037-2.213,1.553-3.626,1.553-4.238c-0.046-0.609-0.564-1.834-1.553-3.672
			c-0.988-1.741-1.48-2.966-1.48-3.671c0-0.658,0.492-2.189,1.48-4.591c0.988-2.306,1.437-3.719,1.343-4.236l-0.918-2.683
			c-0.518-1.318-0.777-2.354-0.777-3.107s0.375-1.788,1.129-3.107l1.201-2.471c0.093-1.272-0.117-2.943-0.635-5.015
			c-0.755-3.2,0.07-5.955,2.472-8.262l0.07,1.694C319.915,184.795,320.08,185.689,320.361,186.207"/>
		<path fill="#E50020" d="M342.323,188.82c1.412,1.083,2.165,2.472,2.261,4.167c0.143,2.871-0.118,6.048-0.776,9.533l2.401-2.048
			c1.742-1.317,2.823-1.835,3.247-1.552c0.706,0.518,0.401,4.778-0.917,12.781l1.271-0.989c0.896-0.611,1.437-0.776,1.624-0.495
			c0.283,0.425,0.117,4.073-0.493,10.945l5.72-9.391l-0.071,2.825c-0.049,2.024-0.025,3.247,0.071,3.673l0.141,3.036l-0.635,3.742
			c-1.084,3.012-1.46,4.919-1.132,5.72c0.189,0.517,0.143,1.225-0.142,2.117c-0.328,1.036-0.847,1.861-1.551,2.474l-3.18,2.683
			c-1.363,1.271-2.141,2.306-2.331,3.107l-1.128,2.33l-2.825,2.26l-5.932,4.731c-0.565-0.658-0.848-1.929-0.848-3.812
			c0.049-2.213,0.565-4.308,1.554-6.285c0.942-1.931,1.2-3.626,0.776-5.084c-0.33-1.129-1.294-2.638-2.895-4.52
			c-0.706-0.801-0.801-2.614-0.282-5.438v-2.19l-0.142-1.41l-6.285,3.813c-0.093-0.754-0.117-1.601-0.07-2.543
			c0.048-1.883,0.33-3.249,0.848-4.096l2.683-4.521l-3.884-2.399c-0.093-2.165-0.4-3.696-0.916-4.591l-1.344-2.4l0.07-3.884
			l-4.519-4.519c1.885-2.966,2.873-4.919,2.967-5.861l-0.214-4.166c-0.092-2.26,0.332-4.073,1.271-5.438
			c0.896-1.318,2.591-3.249,5.086-5.79l3.883-4.026c0.47-0.706,0.965-2.165,1.483-4.378c0.563-2.495,0.775-4.448,0.635-5.86
			l1.765,3.883c1.178,3.012,1.623,5.602,1.341,7.768l-1.765,7.838c-0.705,2.871-0.752,4.731-0.141,5.578L342.323,188.82"/>
		<path fill="#DBDCDC" d="M126.385,312.96l0.635,2.26l-2.965,2.966l-6.214,0.354l-4.519-0.354c0.612-0.753,2.965-1.858,7.061-3.318
			C122.453,314.159,124.454,313.525,126.385,312.96"/>
		<path fill="#DBDCDC" d="M122.43,322.422c5.226-3.766,9.557-6.096,12.993-6.991l0.636,2.33l-2.542,3.392L122.43,322.422"/>
		<path fill="#DBDCDC" d="M131.963,324.753c1.506-1.035,3.178-2.118,5.014-3.25c3.625-2.258,6.19-3.601,7.697-4.024l0.847,1.555
			c0.47,1.176,0.47,2.047,0,2.612c-0.754,0.989-3.038,1.766-6.85,2.331L131.963,324.753"/>
		<path fill="#EFE908" d="M322.34,196.658l0.777-1.2c0.563,1.224,1.975,2.801,4.235,4.731c0.564,0.471,0.776,1.436,0.634,2.895
			c-0.139,1.46-0.047,2.33,0.284,2.613c0.753,0.659,1.224,1.387,1.411,2.188l0.142,2.543c0,1.128,0.894,1.975,2.684,2.541
			c2.306,0.705,2.401,2.282,0.282,4.731c-0.847,0.895-1.46,2.024-1.834,3.389c-0.283,1.13-0.354,2.118-0.213,2.968l4.025-2.402
			c1.177-0.942,1.836-1.389,1.977-1.342c0.234,0.049,0.4,0.822,0.495,2.331l-0.425,4.379c-0.189,1.647,0.117,2.87,0.917,3.671
			c1.556,1.552,2.473,3.061,2.756,4.52c0.422,1.836-0.072,3.977-1.483,6.426c-0.424,0.802-0.706,1.835-0.848,3.108
			c-0.188,1.599-0.117,3.225,0.211,4.872c0.096,0.612-0.141,1.059-0.705,1.342c-0.612,0.281-0.916,0.234-0.916-0.144l-0.707-4.165
			c-0.189-1.601,0.212-3.482,1.201-5.649c0.846-1.883,1.224-3.436,1.127-4.66c-0.141-1.459-0.847-2.825-2.117-4.097
			c-1.177-1.177-1.625-2.494-1.342-3.952c0.424-2.165,0.494-3.766,0.213-4.803l-3.037,1.978c-1.412,0.848-2.307,1.154-2.684,0.917
			c-0.283-0.234-0.425-1.224-0.425-2.965c-0.093-2.967,0.635-5.344,2.189-7.133c0.517-0.566,0.685-1.037,0.494-1.413
			c-0.188-0.375-0.894-0.917-2.119-1.624c-0.564-0.329-0.916-0.705-1.057-1.128l-0.142-1.624c0-1.367-0.565-2.661-1.695-3.884
			c-0.518-0.517-0.707-1.412-0.565-2.684l-0.142-2.753l-1.764-2.119L322.34,196.658"/>
		<path fill="#FFFFFF" d="M189.16,98.787c1.083,0.188,1.905,1.199,2.472,3.036c0.517,1.883,0.613,4.143,0.282,6.78
			c-0.424,3.153-1.295,5.554-2.613,7.203c-1.083,1.318-2.119,1.883-3.107,1.694c-1.13-0.282-1.977-1.53-2.542-3.742
			c-0.47-2.072-0.541-4.261-0.212-6.568c0.472-2.824,1.295-5.013,2.473-6.567C186.948,99.21,188.03,98.599,189.16,98.787"/>
		<path fill="#FFFFFF" d="M137.965,88.831c0.376,0.047,0.612,1.011,0.706,2.895c0.048,1.835-0.093,3.578-0.422,5.225
			c-0.613,2.825-1.342,4.966-2.189,6.427c-0.754,1.27-1.46,1.836-2.119,1.694c-0.565-0.141-0.918-0.871-1.06-2.189
			c-0.188-1.647,0.094-3.86,0.848-6.638c0.658-2.401,1.412-4.284,2.26-5.649C136.74,89.371,137.402,88.782,137.965,88.831"/>
		<path fill="#007F78" d="M177.439,116.229c1.035-1.789,2.167-2.754,3.389-2.895c-0.424,3.389-0.33,6.144,0.283,8.262
			c0.659,2.118,1.812,3.295,3.46,3.53c1.271,0.189,2.564-0.376,3.882-1.694c1.554-1.507,2.661-3.719,3.319-6.638
			c1.368,1.742,2.096,4.025,2.19,6.85l-1.554,5.014c-2.024,1.129-4.826,1.765-8.403,1.906l-4.802-0.211
			c-1.129-2.354-1.765-5.414-1.906-9.179L177.439,116.229"/>
		<path fill="#007F78" d="M136.059,104.86c0.518,0.942,0.776,1.883,0.776,2.825l-1.554,4.731c-1.271,3.105-2.519,4.684-3.743,4.73
			c-1.271,0.048-2.33-1.082-3.177-3.389l-1.201-4.66c-0.142-0.66,0.023-2.001,0.494-4.026l0.707-2.824l0.848-0.847l1.835-1.06
			c-0.846,2.637-1.177,4.967-0.987,6.991c0.188,1.789,0.729,2.825,1.624,3.107c0.752,0.282,1.553-0.071,2.401-1.059
			C135.023,108.296,135.682,106.789,136.059,104.86"/>
		<path fill="#0D131A" d="M175.674,65.667c16.617,1.648,27.941,11.323,33.965,29.024c2.495,7.39,3.648,15.323,3.46,23.796
			c-0.142,8.24-1.506,15.747-4.095,22.526c-2.118,5.556-3.414,9.086-3.884,10.593c-1.365,4.095-2.142,7.461-2.331,10.098
			c-0.33,5.084-0.894,7.579-1.694,7.484c-0.754-0.093-0.919-2.659-0.495-7.696c0.424-5.932,2.331-12.97,5.721-21.113
			c2.495-6.026,3.835-12.971,4.024-20.832c0.188-8.05-0.894-15.676-3.247-22.879c-5.65-17.465-16.195-26.975-31.637-28.529
			c-6.873-0.659-13.888,0.331-21.042,2.967c-7.204,2.683-12.9,6.402-17.089,11.157c-1.083,1.224-1.788,2.353-2.119,3.389
			c-0.375,1.176-0.306,2.449,0.212,3.812c0.094,0.284-0.141,0.542-0.705,0.777l-0.989-0.07c-1.225-3.483-0.542-6.661,2.048-9.533
			c4.52-5.084,10.475-9.016,17.866-11.792C161.08,66.021,168.425,64.963,175.674,65.667"/>
		<path fill="#0D131A" d="M191.702,127.668c2.025-5.178,2.685-11.25,1.978-18.218c-0.706-7.204-2.518-10.97-5.437-11.299
			c-3.201-0.376-6.308,2.448-9.321,8.475c-3.248,6.542-4.425,13.839-3.531,21.889c0.518,0.848,3.202,1.154,8.049,0.918
			C188.337,129.198,191.091,128.609,191.702,127.668 M173.485,129.08c-1.271-7.484-0.282-14.946,2.965-22.384
			c3.343-7.581,7.344-11.133,12.004-10.664c4.944,0.47,7.415,5.579,7.415,15.323c0,8.285-0.941,14.1-2.823,17.442
			c-0.8,1.46-4.19,2.283-10.168,2.472C176.898,131.458,173.767,130.729,173.485,129.08"/>
		<path fill="#0D131A" d="M137.542,88.406c-1.413,0-3.342,2.66-5.79,7.979c-2.448,5.367-3.672,9.603-3.672,12.712v0.07
			c0,1.694,0.448,3.342,1.342,4.943c0.8,1.506,1.46,2.189,1.977,2.048c1.93-0.518,3.883-5.272,5.861-14.264
			C139.236,92.902,139.331,88.406,137.542,88.406 M130.48,95.044c2.827-6.121,5.273-9.039,7.346-8.757
			c3.107,0.376,3.553,5.673,1.341,15.888c-2.166,10.168-4.708,15.512-7.627,16.03c-1.035,0.187-2.141-0.848-3.318-3.107
			c-1.13-2.167-1.719-4.19-1.766-6.073C126.408,105.542,127.75,100.882,130.48,95.044"/>
		<path fill="#0D131A" d="M131.115,127.456c-0.423-1.082-0.375-1.812,0.142-2.188c0.518-0.331,1.012,0.07,1.482,1.2l0.354,2.12
			c0.046,0.847-0.048,1.341-0.283,1.482C132.433,130.304,131.869,129.433,131.115,127.456"/>
		<path fill="#0D131A" d="M149.546,131.198c1.177-0.518,1.836-0.424,1.977,0.283c0.142,0.659-0.376,1.294-1.554,1.906
			c-1.648,0.8-2.588,1.082-2.825,0.847c-0.141-0.188,0.048-0.659,0.565-1.412C148.275,132.069,148.887,131.528,149.546,131.198"/>
		<path fill="#0D131A" d="M127.02,106.978c0.235-0.189,0.424,0.071,0.566,0.777c0.141,0.706,0.095,1.153-0.142,1.342
			c-5.507,5.037-8.544,9.792-9.109,14.263c-0.753,5.603,2.166,13.606,8.756,24.009c6.543,10.357,12.357,16.265,17.441,17.723
			c2.26,0.612,5.672,0.612,10.239,0c4.519-0.659,9.18-1.788,13.981-3.389c3.248-1.083,4.944-1.318,5.084-0.706
			c0.189,0.564-1.365,1.46-4.66,2.684c-4.896,1.834-9.91,3.083-15.042,3.741c-4.567,0.518-7.956,0.471-10.168-0.142
			c-5.368-1.506-11.535-7.604-18.501-18.289c-7.204-10.97-10.404-19.725-9.604-26.269c0.376-2.589,1.577-5.296,3.601-8.121
			C121.442,111.732,123.96,109.191,127.02,106.978"/>
		<path fill="#0D131A" d="M183.158,93.772c-1.552,1.177-2.659,2.12-3.318,2.825c-0.801,0.894-1.507,2.001-2.118,3.318
			c-0.661,1.554-1.319,2.26-1.979,2.118c-0.659-0.188-0.682-1.106-0.07-2.754c1.083-2.778,3.06-4.943,5.932-6.497
			c1.412-0.707,2.283-0.918,2.613-0.635C184.5,92.479,184.147,93.02,183.158,93.772"/>
		<path fill="#0D131A" d="M140.296,84.805c-0.424-0.989-0.471-1.577-0.142-1.764c0.329-0.189,0.8,0.141,1.413,0.988
			c1.6,2.024,2.26,4.731,1.976,8.121c-0.141,1.6-0.564,2.353-1.271,2.259c-0.706-0.047-0.988-0.847-0.847-2.4
			C141.614,89.324,141.237,86.923,140.296,84.805"/>
		<path fill="#0D131A" d="M118.829,123.007c0.33-1.789,0.66-2.683,0.989-2.683c0.377,0.047,0.542,0.988,0.495,2.824
			c0,1.507,0.424,2.754,1.271,3.743c1.505,1.694,3.976,3.836,7.414,6.425c3.389,2.542,5.79,4.072,7.203,4.59
			c2.26,0.801,9.133,1.647,20.619,2.542l21.396,0.988c1.224-0.047,2.188-0.258,2.895-0.635l2.26-1.977
			c1.083-1.129,1.742-1.53,1.977-1.2c0.284,0.282,0.024,1.083-0.776,2.401c-0.66,1.083-1.436,1.883-2.331,2.401
			c-0.942,0.518-2.142,0.801-3.601,0.847l-20.972-0.988c-12.053-0.848-19.443-1.765-22.174-2.754
			c-1.553-0.518-4.236-2.212-8.05-5.085c-3.813-2.872-6.307-5.06-7.485-6.566c-0.424-0.565-0.752-1.318-0.988-2.26
			C118.735,124.632,118.687,123.76,118.829,123.007"/>
		<path fill="#0D131A" d="M125.89,134.729l1.128,0.071c1.836,5.083,4.615,10.027,8.333,14.829c3.437,4.424,6.19,6.92,8.262,7.484
			c4.236,1.13,10.169,0.164,17.794-2.895c7.909-3.201,14.029-7.32,18.36-12.357l1.342-0.07c0.659,0.141,0.894,0.306,0.706,0.494
			c-4.332,5.508-10.781,10.074-19.348,13.699c-8.285,3.484-14.759,4.59-19.418,3.319c-2.448-0.66-5.531-3.39-9.25-8.191
			c-3.908-4.99-6.85-10.192-8.828-15.605C124.925,135.224,125.232,134.965,125.89,134.729"/>
		<path fill="#0D131A" d="M121.16,129.01c0-0.284,0.33-0.424,0.988-0.424c0.613,0,0.917,0.14,0.917,0.424
			c0,0.564,0.165,1.647,0.495,3.248c0.33,1.741,0.612,2.636,0.848,2.682c0.283,0.048,0.729-0.164,1.342-0.636l1.199-1.271
			l1.341,1.342l-2.33,1.625l-1.977,0.636c-0.519-0.188-1.13-1.272-1.836-3.248C121.49,131.504,121.16,130.045,121.16,129.01"/>
		<path fill="#0D131A" d="M165.646,141.65c0.518,0.33,0.707,0.612,0.565,0.847l-2.895,3.038c-1.412,1.082-2.448,1.623-3.107,1.623
			c-0.565,0-1.319-0.659-2.26-1.976c-0.989-1.318-1.625-2.495-1.907-3.531c-0.047-0.282,0.235-0.495,0.847-0.635
			c0.659-0.142,1.012-0.07,1.06,0.212l1.128,2.754c0.566,1.036,0.965,1.554,1.201,1.554c0.376,0.047,1.107-0.424,2.189-1.412
			l2.189-2.613L165.646,141.65"/>
		<path fill="#0D131A" d="M130.762,145.18c-0.235-0.424-0.212-0.683,0.071-0.777l2.189-0.424c1.083-0.047,1.765,0.07,2.048,0.353
			c0.283,0.282,0.306,1.083,0.071,2.401c-0.188,1.271-0.447,2.165-0.777,2.683c-0.235,0.33-0.682,0.071-1.342-0.776l0.918-2.261
			l0.141-1.2c-0.235-0.235-1.083-0.071-2.543,0.494C131.257,145.769,130.998,145.604,130.762,145.18"/>
		<path fill="#0D131A" d="M157.103,151.889c0.376-0.094,0.94,0.213,1.693,0.918l2.119,2.331c0.188,0.235,0.071,0.494-0.353,0.776
			c-0.377,0.235-0.659,0.235-0.848,0c-1.13-1.789-1.906-2.636-2.33-2.542c-0.235,0.046-0.47,0.541-0.707,1.482l-0.283,2.26
			c0,0.282-0.259,0.424-0.777,0.424c-0.517,0-0.776-0.165-0.776-0.495c0-0.753,0.235-1.741,0.706-2.965
			C156.114,152.712,156.632,151.982,157.103,151.889"/>
		<path fill="#0D131A" d="M146.157,166.436c0.234-0.142,0.517,0.165,0.846,0.917l0.212,1.271
			c-5.696,4.096-10.403,8.521-14.122,13.275c-3.579,4.566-8.121,11.84-13.629,21.819c-2.542,2.825-4.238,5.461-5.084,7.907
			c-0.706,1.931-0.729,3.133-0.071,3.603c0.896,0.707,3.225,0.447,6.992-0.776l0.988-0.072l0.142,1.342
			c0,3.342,0.495,5.156,1.482,5.438c0.707,0.188,1.955-0.588,3.742-2.331c1.837-1.693,3.438-3.601,4.803-5.719
			c0.282,0.187,0.47,0.517,0.565,0.987l-0.141,1.272c-0.8,1.599-2.236,3.365-4.307,5.296c-2.354,2.165-4.073,3.06-5.156,2.683
			c-1.883-0.517-2.8-2.825-2.754-6.921c-1.883,0.754-3.672,1.154-5.367,1.201c-1.601,0.047-2.66-0.213-3.178-0.777
			c-0.752-0.801-0.801-2.331-0.141-4.589c0.848-2.92,2.801-6.144,5.861-9.674c5.225-10.028,10.097-17.795,14.618-23.304
			C136.224,174.627,140.79,170.343,146.157,166.436"/>
		<path fill="#0D131A" d="M120.03,207.11c-1.507,2.211-2.024,3.578-1.554,4.095c0.471,0.423,1.954,0.213,4.449-0.635
			c1.413-0.613,2.211-0.706,2.401-0.284c0.142,0.472-0.471,1.015-1.836,1.625c-3.389,1.554-5.719,1.978-6.99,1.271
			c-1.46-0.849-0.706-3.202,2.259-7.061c0.989-1.272,1.672-1.765,2.048-1.483C121.23,204.874,120.971,205.698,120.03,207.11"/>
		<path fill="#0D131A" d="M146.439,166.577l1.13,0.141c0.612,0.376,0.848,0.683,0.707,0.917
			c-12.663,28.811-17.677,54.184-15.042,76.122c3.437,29.046,20.832,45.522,52.185,49.43c0.282,0.048,0.517,0.425,0.706,1.129
			c0.235,0.755,0.188,1.106-0.141,1.06c-33.425-3.765-51.925-20.666-55.504-50.701C127.844,222.268,133.163,196.234,146.439,166.577
			"/>
		<path fill="#0D131A" d="M140.437,181.688c1.789-3.86,3.978-6.896,6.567-9.109c2.542-2.166,5.131-3.248,7.768-3.248
			c3.531,0,7.508,3.177,11.935,9.533c4.189,5.979,8.12,13.77,11.792,23.373c8.52,22.361,11.628,41.427,9.32,57.197l-1.199,1.978
			l-1.06,1.058c2.402-17.183-0.8-36.979-9.603-59.386c-3.531-9.039-7.297-16.524-11.298-22.456
			c-4.048-5.979-7.343-8.968-9.886-8.968c-1.835,0-3.978,0.989-6.426,2.966c-2.966,2.401-5.39,5.649-7.273,9.745
			c-0.141,0.282-0.306-0.024-0.495-0.918C140.343,182.512,140.296,181.923,140.437,181.688"/>
		<path fill="#0D131A" d="M201.165,160.927c-0.048-0.33,0.258-1.483,0.918-3.46c0.706-1.929,1.083-2.753,1.13-2.471
			c2.871,20.525,5.602,35.801,8.191,45.828c3.437,13.606,8.121,25.185,14.051,34.743c9.651,15.534,13.252,29.987,10.805,43.356
			c-0.518,2.731-1.978,7.91-4.377,15.537c-1.978,6.165-3.038,11.25-3.179,15.252c-0.143,3.766-0.588,5.554-1.341,5.366
			c-0.707-0.188-0.966-2.214-0.776-6.072c0.281-4.426,1.339-9.769,3.176-16.03c2.166-7.247,3.46-12.239,3.883-14.97
			c1.884-12.287-1.905-26.387-11.368-42.298c-5.884-9.886-10.31-20.948-13.276-33.188
			C208.297,199.694,205.684,185.832,201.165,160.927"/>
		<path fill="#0D131A" d="M195.657,307.804c0.847,0.425,1.318,0.778,1.412,1.061c1.271,3.247,1.859,8.002,1.765,14.264
			c-0.047,5.837,0.259,9.25,0.917,10.239c1.131,1.694,3.342,3.036,6.638,4.025c3.295,0.988,6.755,1.366,10.38,1.128
			c9.275-0.564,14.688-4.354,16.242-11.368c0.377-1.742-0.494-5.109-2.613-10.098c-2.261-5.366-3.413-8.31-3.459-8.826
			c-0.049-0.284,0.163-0.847,0.634-1.695c0.424-0.846,0.659-1.106,0.705-0.776c0.143,1.648,1.483,5.203,4.025,10.664
			c2.261,4.943,3.226,8.614,2.896,11.017c-1.084,7.72-6.942,12.004-17.583,12.852c-4.237,0.328-8.286-0.05-12.145-1.131
			c-3.861-1.084-6.474-2.587-7.839-4.519c-1.083-1.6-1.435-5.649-1.059-12.146c0.378-6.732-0.282-11.7-1.976-14.899L195.657,307.804
			"/>
		<path fill="#0D131A" d="M187.254,257.103c1.742-3.151,2.873-4.565,3.39-4.236c0.471,0.378-0.093,2.214-1.695,5.51
			c-4.424,9.18-5.931,18.076-4.52,26.691c1.413,8.663,5.743,16.406,12.993,23.232c2.588,2.447,3.672,3.932,3.248,4.449
			c-0.375,0.517-1.883-0.401-4.519-2.756c-8.003-7.062-12.852-14.969-14.546-23.726
			C179.816,276.945,181.698,267.226,187.254,257.103"/>
		<path fill="#0D131A" d="M136.764,263.034c0.236-0.142,0.588,0.165,1.061,0.919c0.424,0.707,0.517,1.154,0.282,1.34
			c-3.438,2.448-6.568,6.145-9.392,11.09c-3.014,5.178-4.378,9.672-4.096,13.485c0.234,2.966,1.553,5.933,3.954,8.896
			c2.307,2.919,5.155,5.18,8.544,6.78c2.919,1.412,4.238,2.353,3.954,2.823c-0.235,0.519-1.953,0.12-5.155-1.198
			c-3.812-1.6-7.015-4.002-9.604-7.202c-2.636-3.204-4.072-6.521-4.308-9.958c-0.376-4.85,1.201-10.12,4.731-15.817
			C129.703,269.391,133.045,265.673,136.764,263.034"/>
		<path fill="#0D131A" d="M167.34,301.096c-0.188-0.235,0.024-0.563,0.636-0.988c0.566-0.424,0.942-0.517,1.13-0.28
			c1.601,2.259,2.73,4.495,3.389,6.707c0.66,2.309,0.707,4.19,0.142,5.65c-0.565,1.598-3.601,3.481-9.11,5.647
			c-5.884,2.354-11.745,3.812-17.583,4.378c-0.33,0.049-0.518-0.282-0.565-0.988c-0.094-0.704,0.022-1.081,0.354-1.13
			c5.696-0.564,11.133-1.906,16.312-4.025c4.661-1.93,7.414-3.695,8.262-5.296c0.424-0.846,0.375-2.164-0.142-3.953
			C169.6,304.886,168.659,302.979,167.34,301.096"/>
		<path fill="#0D131A" d="M131.61,303.285c0.282-0.094,0.659,0.189,1.129,0.848c0.471,0.659,0.566,1.013,0.283,1.059
			c-1.271,0.471-2.872,1.226-4.801,2.261c-1.93,1.082-3.414,2.023-4.449,2.824l-1.342-0.213c-0.659-0.328-0.871-0.588-0.635-0.775
			c1.224-0.988,2.778-2.095,4.66-3.318C128.574,304.65,130.292,303.757,131.61,303.285"/>
		<path fill="#0D131A" d="M167.552,303.921c-0.987,2.26-1.718,3.296-2.188,3.106c-0.472-0.188-0.377-1.457,0.282-3.812
			c0.754-2.541,2.118-4.942,4.095-7.202c1.884-2.308,3.649-3.649,5.297-4.025c0.282-0.047,0.799,0.188,1.552,0.704
			c0.754,0.52,0.989,0.802,0.707,0.849c-1.223,0.282-2.848,1.436-4.872,3.461C170.212,299.26,168.588,301.566,167.552,303.921"/>
		<path fill="#0D131A" d="M126.667,310.841c0.706,1.177,1.176,2.518,1.412,4.025c0.048,0.283-0.235,0.47-0.847,0.564
			c-0.612,0.048-0.964-0.07-1.059-0.353l-1.059-2.824c-0.612-0.942-1.106-1.413-1.483-1.413c-1.413-0.047-3.318,0.847-5.719,2.685
			c-2.354,1.74-3.437,2.918-3.249,3.529c0.188,0.473,1.389,0.683,3.601,0.637l5.932-0.637c0.282-0.047,0.495,0.236,0.635,0.848
			c0.141,0.613,0.071,0.942-0.212,0.989l-9.462,0.494c-2.119-0.235-3.225-0.636-3.319-1.2c-0.188-1.225,1.366-3.13,4.66-5.72
			c3.248-2.589,5.696-3.86,7.344-3.813C124.879,308.7,125.82,309.43,126.667,310.841"/>
		<path fill="#0D131A" d="M135.211,318.044c-0.047-1.224-0.354-2.354-0.917-3.389c-0.661-1.083-1.342-1.577-2.049-1.483
			c-1.272,0.187-3.155,1.459-5.65,3.812c-2.447,2.262-3.577,3.65-3.389,4.168c0.142,0.422,1.554,0.422,4.237,0l6.286-1.343
			c0.282-0.094,0.424,0.164,0.424,0.778c0,0.658-0.142,1.012-0.424,1.058c-2.307,0.754-4.943,1.248-7.908,1.482
			c-3.06,0.234-4.755,0.024-5.084-0.635c-0.47-0.989,0.777-3.037,3.742-6.143c2.966-3.204,5.46-4.943,7.485-5.227
			c1.271-0.189,2.401,0.423,3.39,1.836c1.035,1.411,1.577,3.106,1.624,5.083c0,0.281-0.283,0.425-0.848,0.425
			C135.517,318.468,135.211,318.324,135.211,318.044"/>
		<path fill="#0D131A" d="M130.339,325.176c-0.518-0.847,0.706-2.966,3.672-6.354c3.012-3.438,5.413-5.227,7.203-5.366
			c1.318-0.142,2.683,0.847,4.096,2.966c1.412,2.024,1.929,3.72,1.552,5.082c-0.33,1.271-3.107,2.355-8.333,3.25L130.339,325.176
			 M132.74,323.691l5.79-0.634c3.766-0.801,5.767-1.555,6.002-2.262c0.283-0.799,0.047-1.881-0.706-3.247
			c-0.754-1.365-1.555-2.023-2.402-1.977c-1.176,0.094-2.988,1.389-5.437,3.884C133.634,321.81,132.552,323.222,132.74,323.691"/>
		<path fill="#0D131A" d="M329.683,246.441c0.095-0.282,0.472-0.282,1.129,0c0.659,0.28,0.942,0.564,0.848,0.847
			c-5.179,12.287-12.239,21.985-21.184,29.095c-8.049,6.354-17.088,10.215-27.117,11.579c-9.273,1.271-18.312,0.282-27.114-2.966
			c-8.709-3.201-15.841-8.098-21.395-14.689c-0.191-0.234-0.121-0.894,0.211-1.975c0.375-1.084,0.658-1.509,0.846-1.272
			c6.026,7.155,13.416,12.334,22.172,15.534c8.616,3.201,17.443,4.073,26.48,2.612c9.415-1.552,17.937-5.437,25.562-11.65
			C318.455,266.779,324.974,257.739,329.683,246.441"/>
		<path fill="#0D131A" d="M335.899,250.889c0.046-0.282,0.423-0.376,1.127-0.282c0.706,0.096,1.038,0.282,0.99,0.566
			c-1.978,16.333-7.77,29.916-17.371,40.744c-8.381,9.414-18.996,16.1-31.848,20.055c-11.532,3.483-23.091,4.329-34.672,2.541
			c-11.252-1.742-19.867-5.576-25.846-11.511c-0.187-0.188-0.093-0.752,0.283-1.693c0.377-0.942,0.659-1.319,0.848-1.129
			c5.602,5.602,13.839,9.344,24.715,11.229c11.251,1.976,22.454,1.409,33.61-1.695c12.521-3.484,22.88-9.744,31.071-18.784
			C328.224,280.522,333.92,267.178,335.899,250.889"/>
		<path fill="#0D131A" d="M334.344,263.601l-0.213,3.531c-4.52,12.287-11.744,22.102-21.677,29.445
			c-8.71,6.497-18.831,10.641-30.365,12.429c-10.497,1.648-20.596,1.154-30.293-1.483c-9.556-2.543-16.711-6.613-21.466-12.216
			c-0.188-0.235-0.094-0.73,0.282-1.483c0.377-0.704,0.659-0.941,0.848-0.704c4.708,5.508,11.815,9.557,21.325,12.144
			c9.698,2.591,19.772,3.037,30.223,1.342c11.486-1.834,21.536-6.072,30.152-12.711C322.95,286.314,330.011,276.218,334.344,263.601
			"/>
		<path fill="#0D131A" d="M348.819,202.519v-2.189c-0.142-0.283-0.636-0.095-1.482,0.566c-2.306,1.929-3.626,2.753-3.953,2.47
			c-0.283-0.235-0.283-1.718,0-4.448c0.563-5.837-0.66-9.462-3.673-10.875c-1.271-0.565-1.954-1.436-2.049-2.612
			c-0.093-0.895,0.189-2.872,0.849-5.932c0.753-3.625,1.129-6.355,1.129-8.191c0-1.93-0.376-4.378-1.129-7.343
			c-0.377,2.589-0.824,4.566-1.342,5.931c-0.519,1.365-1.225,2.423-2.12,3.178c-3.481,3.013-5.884,5.578-7.2,7.696
			c-1.132,1.836-1.625,3.742-1.483,5.72c0.188,1.882,0.165,3.319-0.071,4.307l-1.271,2.753l-1.2,1.907
			c-0.377,0.705-0.636,1.601-0.777,2.683c-0.234,1.601-0.494,2.424-0.774,2.472c-0.236,0.046-0.802-0.612-1.696-1.978
			c-0.941-1.365-1.058-3.507-0.351-6.426c0.375-1.411,0.257-2.942-0.354-4.589c-0.613-1.6-0.753-2.895-0.423-3.883
			c-0.66,0.612-1.155,1.718-1.483,3.318c-0.33,1.742-0.212,3.249,0.353,4.52c0.519,1.13,0.61,2.542,0.283,4.237l-0.848,2.542
			c-0.612,1.177-0.919,2.236-0.919,3.178l0.566,2.542c0.564,1.79,0.683,3.153,0.353,4.096c-1.366,3.249-2.048,5.507-2.048,6.778
			c0,1.037,0.494,2.308,1.481,3.815c0.989,1.457,1.438,2.799,1.342,4.023l-1.199,3.741l-1.412,2.756
			c-0.425,1.036-0.659,2.142-0.707,3.319c-0.094,1.931,0.447,3.812,1.623,5.649c1.178,1.977,2.615,3.151,4.309,3.529l6.639,1.907
			c1.834,0.753,3.412,1.883,4.73,3.389c1.412,1.508,2.637,2.331,3.672,2.473c1.13,0.188,2.354-0.4,3.672-1.765
			c1.271-1.365,2.66-2.424,4.166-3.179c1.129-0.518,2.048-1.694,2.754-3.53c0.707-1.884,1.412-3.013,2.12-3.391
			c1.834-1.035,3.153-1.999,3.952-2.895c1.13-1.271,1.601-2.754,1.412-4.449c-0.14-1.035,0.095-2.636,0.707-4.8
			c0.612-2.167,0.871-3.769,0.775-4.804v-3.953c0.143-1.509,0.354-2.708,0.636-3.603l-1.693,3.318l-2.189,3.956
			c-1.083,2.119-1.837,3.152-2.26,3.107c-0.425,0-0.542-1.082-0.355-3.249l0.567-4.378l0.353-4.237
			c-1.413,1.13-2.33,1.6-2.754,1.413c-0.377-0.189-0.494-1.014-0.353-2.473L348.819,202.519 M341.262,168.413l0.354,4.59
			c-0.046,1.271-0.635,4.025-1.764,8.262c-0.754,2.684-0.518,4.308,0.706,4.872c2.542,1.13,4.096,2.942,4.659,5.438
			c0.564,2.165,0.424,5.249-0.422,9.25c3.012-3.013,4.825-3.907,5.437-2.683c0.706,1.271,0.398,5.391-0.919,12.357
			c1.459-1.224,2.378-1.483,2.756-0.776c0.517,0.895,0.424,3.483-0.283,7.768l2.189-3.109l1.412-2.754
			c0.752-1.928,1.271-2.918,1.551-2.964c0.378,0,0.591,1.105,0.637,3.318l-0.282,3.955c-0.093,1.788,0.023,3.248,0.354,4.377
			c0.423,1.319,0.189,3.131-0.708,5.438c-0.94,2.353-1.246,4.045-0.916,5.082c0.613,2.119-0.118,3.979-2.189,5.578
			c-2.87,2.167-4.542,3.767-5.014,4.803l-1.27,2.827c-0.707,1.175-1.507,1.951-2.403,2.327c-1.788,0.754-3.153,1.649-4.095,2.686
			c-2.259,2.307-4.002,3.389-5.225,3.248c-1.034-0.094-2.66-1.365-4.871-3.813c-2.685-3.014-6.333-4.802-10.946-5.366
			c-1.882-0.235-3.555-1.412-5.015-3.53c-1.363-1.979-2.118-4.025-2.26-6.145c-0.142-1.459,0.473-3.484,1.836-6.071
			c1.365-2.544,2.024-4.144,1.978-4.804c-0.048-0.847-0.376-1.623-0.989-2.33l-1.412-1.766c-0.94-1.787-0.4-5.249,1.624-10.381
			c0.563-1.317,0.54-2.587-0.069-3.811c-0.707-1.46-1.061-2.636-1.061-3.531c0.048-0.8,0.446-1.93,1.2-3.39l0.987-2.401
			c0.19-0.988,0.143-2.143-0.141-3.46c-0.516-2.306-0.492-4.308,0.071-6.001c0.33-0.894,1.084-2.237,2.26-4.025
			c0.706-1.083,1.153-1.601,1.341-1.553c0.236,0.047,0.377,0.73,0.425,2.048l-0.07,1.977c0.047,1.176,0.33,2.423,0.847,3.742
			c0.565,1.506,0.518,3.295-0.14,5.368c-0.426,1.224-0.355,2.541,0.211,3.954l2.259-4.378c0.612-1.084,0.896-2.19,0.848-3.319
			l-0.281-3.037c0-3.578,0.986-6.425,2.965-8.545c1.178-1.318,3.437-3.342,6.778-6.073c1.319-1.601,2.144-4.259,2.472-7.979
			c0.377-3.343,0.707-5.039,0.989-5.085c0.377-0.094,1.201,1.601,2.473,5.085C340.605,164.953,340.981,166.529,341.262,168.413"/>
		<path fill="#0D131A" d="M182.311,99.14l1.341-0.213c0.613,0.048,0.823,0.188,0.635,0.424c-3.061,3.343-4.943,8.663-5.649,15.96
			c-0.66,6.732-0.141,11.675,1.553,14.829c0.141,0.283-0.071,0.518-0.636,0.707l-1.059-0.141c-1.978-3.812-2.565-9.202-1.766-16.17
			C177.534,107.473,179.393,102.342,182.311,99.14"/>
		<path fill="#0D131A" d="M140.509,139.108c0.329,0,0.824,0.235,1.482,0.706c0.658,0.471,0.847,0.706,0.563,0.707
			c-1.929,0.141-4.001,0.682-6.214,1.623c-1.977,0.895-3.695,1.93-5.155,3.107c-0.188,0.189-0.447,0.047-0.776-0.423
			c-0.33-0.471-0.401-0.801-0.212-0.988C133.682,140.967,137.118,139.39,140.509,139.108"/>
		<path fill="#FFFFFF" d="M199.399,334.85c0.285-0.987,0.896-1.883,1.836-2.683c1.13-0.895,2.237-1.179,3.32-0.848
			c1.46,0.471,2.566,1.48,3.317,3.037c0.66,1.365,0.848,2.541,0.566,3.53c-0.471,1.602-1.672,3.626-3.601,6.073
			c-1.883,2.307-3.13,3.483-3.742,3.532c-0.754,0.046-1.342-1.672-1.765-5.156C198.906,338.897,198.929,336.403,199.399,334.85"/>
		<path fill="#FFFFFF" d="M213.734,337.393c-0.187-1.365-0.07-2.565,0.354-3.602c0.518-1.27,1.435-2.048,2.754-2.33
			c2.542-0.473,4.331,0.492,5.365,2.896c0.613,1.459,0.753,4.001,0.425,7.626c-0.33,3.578-0.824,5.509-1.483,5.79
			c-0.659,0.282-1.906-0.636-3.742-2.755C215.383,342.665,214.159,340.122,213.734,337.393"/>
		<path fill="#FFFFFF" d="M227.293,335.908c0.33-3.058,1.27-5.318,2.825-6.777c1.459-1.367,2.707-1.46,3.742-0.282
			c0.943,1.082,1.812,3.812,2.613,8.19c0.847,4.282,1.013,6.544,0.494,6.779c-0.612,0.282-2.402-0.801-5.365-3.248
			C228.635,338.122,227.198,336.57,227.293,335.908"/>
		<path fill="#EF8200" d="M188.878,167.353l16.03,24.927c-2.071,7.392-6.637,14.781-13.699,22.172
			c-2.495,2.591-6.285,5.91-11.369,9.956l-5.79,5.084c-2.401,1.977-4.001,2.824-4.801,2.543c-0.706-0.189-1.318-1.623-1.836-4.308
			l-0.565-3.955l-3.6,2.259c-2.542,1.367-4.143,1.719-4.802,1.062c-0.613-0.614-0.729-2.072-0.353-4.38l0.705-3.248
			c-3.483,0-5.202-0.541-5.154-1.625c0.046-0.751,0.942-1.858,2.682-3.319c2.167-1.834,3.649-3.342,4.449-4.518
			c1.93-9.369,7.203-19.278,15.817-29.729C180.876,175.05,184.971,170.744,188.878,167.353"/>
		<path fill="#CF7100" d="M169.6,231.895c2.683-4.991,4.708-8.31,6.073-9.957l13.417-12.216
			c7.202-6.449,12.216-12.098,15.039-16.947c-0.564,4.849-3.647,10.828-9.248,17.936c-5.181,6.589-9.816,10.922-13.912,12.993
			C174.944,228.553,171.155,231.282,169.6,231.895"/>
		<path fill="#DBDCDC" d="M206.815,332.802c1.788,2.684,1.742,5.767-0.141,9.251c-1.602,2.967-3.25,4.708-4.944,5.225l3.601-7.837
			C206.413,336.473,206.908,334.263,206.815,332.802"/>
		<path fill="#DBDCDC" d="M215.006,332.731l1.764,6.851c0.753,2.729,1.625,5.201,2.614,7.415c-0.846,0.188-1.953-0.846-3.319-3.108
			c-1.412-2.306-2.214-4.473-2.401-6.496c-0.14-1.742,0.047-3.036,0.565-3.885L215.006,332.731"/>
		<path fill="#DBDCDC" d="M228.423,332.308l3.671,4.873c2.496,3.436,3.814,5.719,3.956,6.851l-4.166-3.039
			c-2.778-2.305-4.168-4.046-4.168-5.224c0-1.177,0.119-2.096,0.353-2.755L228.423,332.308"/>
		<path fill="#0D131A" d="M204.13,332.449c-1.788-0.142-2.964,0.541-3.53,2.049c-0.566,1.41-0.683,3.72-0.353,6.92
			c0.235,3.013,0.588,4.612,1.06,4.801c0.471,0.189,1.506-0.824,3.107-3.035c1.601-2.262,2.543-4.096,2.825-5.51
			c0.188-1.127-0.024-2.234-0.636-3.317C205.991,333.228,205.167,332.59,204.13,332.449 M204.555,330.684
			c1.554,0.377,2.778,1.342,3.671,2.896c0.801,1.365,1.13,2.8,0.989,4.307c-0.188,1.412-1.413,3.576-3.672,6.496
			c-2.259,2.92-3.812,4.331-4.659,4.237c-1.035-0.047-1.812-2.142-2.331-6.284c-0.472-4.096-0.401-6.968,0.212-8.614
			c0.375-0.99,1.153-1.813,2.331-2.473C202.318,330.592,203.472,330.401,204.555,330.684"/>
		<path fill="#0D131A" d="M221.079,334.498c-0.331-0.753-0.871-1.32-1.625-1.696c-0.706-0.375-1.436-0.492-2.188-0.351
			c-0.659,0.141-1.248,0.54-1.765,1.2c-0.613,0.751-0.896,1.598-0.848,2.541c0.047,2.26,0.966,4.684,2.754,7.273
			c1.601,2.307,2.66,3.366,3.177,3.179c0.471-0.142,0.847-1.742,1.129-4.803C222.09,338.545,221.879,336.098,221.079,334.498
			 M220.232,330.967c1.083,0.564,1.906,1.438,2.471,2.613c0.802,1.742,0.99,4.684,0.566,8.826c-0.425,4.049-1.083,6.19-1.978,6.426
			c-1.224,0.33-2.989-1.177-5.296-4.52c-2.354-3.389-3.484-6.145-3.391-8.262c0.095-1.271,0.495-2.424,1.202-3.459
			c0.799-1.178,1.836-1.884,3.105-2.119C218.09,330.237,219.195,330.401,220.232,330.967"/>
		<path fill="#0D131A" d="M228.635,335.556c0.047,1.084,1.246,2.566,3.601,4.448c2.214,1.836,3.462,2.659,3.742,2.474
			c0.377-0.33,0.189-2.377-0.562-6.145c-0.802-4.003-1.768-6.355-2.896-7.061c-1.084-0.094-2.025,0.612-2.827,2.118
			C228.893,332.755,228.54,334.144,228.635,335.556 M226.657,335.697c-0.141-1.835,0.471-3.744,1.835-5.72
			c1.412-2.119,2.896-3.036,4.448-2.755c1.696,0.377,3.085,3.367,4.167,8.97c1.082,5.506,1.152,8.495,0.211,8.967
			c-0.612,0.329-2.494-0.801-5.648-3.389C228.423,339.088,226.752,337.063,226.657,335.697"/>
		<path fill="#0D131A" d="M184.359,169.966c2.447-1.883,3.861-2.685,4.237-2.401c0.425,0.329-0.47,1.553-2.683,3.671
			c-5.461,5.273-10.262,11.11-14.406,17.513c-4.661,7.156-7.862,14.052-9.602,20.69c-0.331,1.129-1.06,2.33-2.19,3.6l-3.107,2.827
			c-1.129,0.941-1.506,1.6-1.129,1.976c0.376,0.378,1.579,0.565,3.6,0.565c0.284,0,0.401,0.331,0.354,0.988
			c-0.047,0.659-0.212,0.989-0.495,0.989c-2.636,0-4.542-0.377-5.72-1.13c-1.6-1.084-1.059-2.73,1.625-4.943l3.461-2.965
			c0.8-0.802,1.294-1.625,1.482-2.473c1.977-7.344,5.13-14.499,9.462-21.467C173.767,180.111,178.803,174.297,184.359,169.966"/>
		<path fill="#0D131A" d="M201.589,196.658c1.317-3.295,2.189-4.824,2.613-4.589c0.472,0.235,0.141,2.095-0.988,5.579
			c-1.695,5.367-4.543,10.474-8.544,15.322c-3.72,4.566-7.863,8.238-12.429,11.015c-0.894,0.566-3.06,2.402-6.497,5.509
			c-3.342,2.73-5.696,3.884-7.061,3.46c-0.752-0.235-1.413-1.128-1.976-2.683c-0.565-1.555-0.825-3.177-0.778-4.872
			c-1.835,1.317-3.625,2.164-5.366,2.541l-3.036-0.14c-0.612-0.519-0.801-1.696-0.566-3.531c0.235-1.788,0.8-3.555,1.695-5.296
			c1.271-2.448,2.166-3.577,2.683-3.391c0.518,0.141,0.212,1.531-0.918,4.166c-1.366,3.202-1.718,5.133-1.059,5.792l2.613-0.425
			c1.412-0.518,2.778-1.2,4.096-2.049c0.658-0.424,1.082-0.587,1.27-0.494c0.236,0.049,0.377,0.447,0.424,1.2
			c0.283,4.144,0.895,6.356,1.836,6.64c0.801,0.234,2.518-0.777,5.155-3.036l6.637-5.439c3.72-2.305,7.485-5.789,11.299-10.45
			C196.646,206.638,199.611,201.695,201.589,196.658"/>
	</g>
</g>
</svg>
